<svg width="189" height="685" viewBox="0 0 189 685" fill="none" xmlns="http://www.w3.org/2000/svg">
<path d="M0 685H179.275L189 63L179.275 0H16.5995L0 25.2052V650V685Z" fill="#E9DCB7"/>
<path d="M124.867 531.593L117.29 532.317L144.236 598.721H132.647L126.351 581.398L108.416 570.199L85.6123 581.928L86.873 606.17H74.457V586.337L63.3242 570.54L45.8037 577.141L38.3369 594.972H31L54.7324 538.303L53.96 538.377L46.6445 456.96L113.049 446L124.867 531.593ZM67.3408 569.026L74.457 580.201V566.347L67.3408 569.026ZM112.732 567.979L124.104 575.219L120.096 564.193L112.732 567.979ZM85.2354 574.676L102.493 566.5L84.2168 555.087L85.2354 574.676ZM49.9463 567.249L59.167 564.641L54.0684 557.405L49.9463 567.249ZM83.2031 535.578L83.9336 549.646L107.031 564.351L118.226 559.049L108.803 533.129L83.2031 535.578ZM62.375 537.571L56.3984 551.841L63.7275 563.351L74.457 560.316V536.415L62.375 537.571Z" fill="#00A19E"/>
<path d="M69.0953 477.037L99.1077 472.913L100.143 475.361L98.0006 477.87L101.598 487.342L102.064 505.066L97.9239 512.063L81.1931 514.288L74.5712 508.57L69.9973 489.878L72.3712 481.392L69.36 479.69L69.0953 477.037Z" fill="#E64927"/>
</svg>
