<svg width="468" height="79" viewBox="0 0 468 79" fill="none" xmlns="http://www.w3.org/2000/svg">
<path d="M0 6.12653L15.2 0H461.2L468 72.8735L5.6 79L0 6.12653Z" fill="#2EE174"/>
<path d="M34.8383 63.6069L32.8633 26.8347L34.8383 20.8862H96.8526L101 26.8347V61.1734L34.8383 63.6069Z" fill="#078C63"/>
<path d="M40.4336 13.8562V20.8862H52.8712L50.7082 13.8562H40.4336Z" fill="#078C63"/>
<path d="M55.6078 31.4254L68.6971 27.3755L78.5141 31.4254L83.6953 40.4597V49.8056L75.7872 56.0362H66.7883L55.6078 49.8056L51.79 40.4597L55.6078 31.4254Z" fill="#2EE174"/>
<path d="M61.3668 36.4684L68.2442 34.4053L73.4023 36.4684L76.1246 41.0708V45.8319L71.9695 49.006H67.2413L61.3668 45.8319L59.3608 41.0708L61.3668 36.4684Z" fill="#078C63"/>
</svg>
