<svg width="452" height="358" viewBox="0 0 452 358" fill="none" xmlns="http://www.w3.org/2000/svg">
<path d="M354.488 217.149L272.215 243.879L258.104 212.371L328.943 182.257L354.488 217.149Z" fill="#00A09D"/>
<path d="M334.367 189.67L266.934 215.493" stroke="#137171" stroke-width="2" stroke-miterlimit="10"/>
<path d="M347.739 207.307L275.478 234.977" stroke="#137171" stroke-width="2" stroke-miterlimit="10"/>
<path d="M312.109 189.415L335.359 223.36" stroke="#137171" stroke-width="2" stroke-miterlimit="10"/>
<path d="M278.099 203.875L299.253 235.096" stroke="#137171" stroke-width="2" stroke-miterlimit="10"/>
<path d="M52.0671 153.814L66.9956 140.142L70.0686 120.427L62.0088 100.274L33.5017 86.9521L12.8639 100.274L4.86758 121L4.91522 140.214L25.4578 155.359L30.3254 157.851L52.0671 153.814Z" fill="#C02E19"/>
<path d="M99.0918 156.012L9.354 198.684L10.9025 207.252L21.265 210.253L28.3243 242.677L58.761 292.037L82.6466 303.735L132.53 279.743L140.463 252.177L119.603 192.799L97.9007 173.809L103.11 163.744L99.0918 156.012Z" fill="#C02E19"/>
<path d="M140.463 252.177L111.4 271.908L77.0325 282.347L28.3243 242.677L58.761 292.037L82.6466 303.735L132.53 279.743L140.463 252.177Z" fill="#901F18"/>
<path d="M10.9025 207.251L73.5387 177.463L21.2651 210.253L10.9025 207.251Z" fill="#901F18"/>
<path d="M203.242 330.505L452 357.036L337.13 318.911L418.435 314.603L293.067 274.862L341.902 272.545L241.095 237.422L203.242 330.505Z" fill="white"/>
<path d="M241.961 95.8065L388.633 124.05L369.163 105.274L452 113.181L350.502 74.3632L394.271 72.285L302.985 35.45L241.961 95.8065Z" fill="#2CB2AB"/>
<path d="M120.174 208.621C125.979 211.416 130.164 216.671 133.983 221.871C137.803 227.07 141.606 232.525 147.03 236.004C156.836 242.295 171.146 240.145 178.681 231.235C184.335 224.546 187.44 214.099 196.04 212.483C201.781 211.4 207.212 215.015 212.159 218.136C217.098 221.25 223.316 224.084 228.557 221.488C235.64 217.977 236.267 206.766 243.525 203.652C247.614 201.892 252.387 203.461 256.151 205.834C259.907 208.215 263.162 211.4 267.172 213.319C271.135 215.222 275.677 215.596 279.957 214.672L283.268 259.096L267.927 307.302L203.242 330.505L145.648 321.308L111.622 274.902L108.748 207.395C112.44 206.431 116.68 206.941 120.174 208.621Z" fill="#E64927"/>
<path d="M104.865 138.033L260.645 129.234L282.689 134.091L279.481 145.621L302.802 143.176L320.939 168.41L312.252 186.366L279.028 202.147L279.957 214.673C275.677 215.596 271.135 215.222 267.172 213.319C263.162 211.4 259.907 208.215 256.151 205.834C252.387 203.461 247.614 201.893 243.525 203.652C236.267 206.766 235.64 217.977 228.557 221.489C223.316 224.084 217.098 221.25 212.159 218.136C207.212 215.015 201.781 211.4 196.04 212.483C187.44 214.099 184.335 224.546 178.681 231.235C171.146 240.145 156.837 242.295 147.03 236.005C141.606 232.525 137.803 227.07 133.983 221.871C130.164 216.671 125.979 211.416 120.174 208.621C116.68 206.941 112.44 206.431 108.748 207.395L106.747 160.272L103.062 145.406L104.865 138.033ZM300.158 182.297L308.559 169.533L305.002 156.394L291.471 150.836L282.141 160.869L280.751 189.949L300.158 182.297Z" fill="#FF6E5F"/>
<path d="M112.011 144.721L125.924 148.001L146.53 148.686L186.837 150.024L252.3 150.239L253.213 149.817L271.151 141.464L262.043 135.62L261.098 135.014L227.787 137.005L217.337 137.698L196.786 139.067L151.977 142.053L112.011 144.721Z" fill="#E64927"/>
<path d="M146.53 148.686L186.837 150.032L252.3 150.247L253.213 149.825C253.125 148.941 253.086 148.041 253.276 147.062C253.951 143.614 258.017 141.217 260.296 138.916C261.161 138.048 261.733 136.894 262.043 135.62C263.202 130.794 260.534 124.082 255.635 123.182C251.712 122.458 247.448 123.716 243.462 125.507C240.381 126.893 237.458 128.597 234.973 129.95C229.327 133.032 223.435 135.683 217.337 137.706C215.217 138.407 213.073 139.036 210.905 139.569C207.578 140.397 203.734 141.703 200.367 140.596C199.153 140.198 197.961 139.665 196.786 139.075C194.587 137.977 192.427 136.695 190.211 135.771C184.82 133.526 178.697 132.904 172.877 133.796C166.294 134.808 160.053 137.913 154.224 141.002C153.676 141.289 152.874 141.647 151.977 142.061C149.69 143.12 146.823 144.546 146.299 146.162C145.998 147.094 146.133 147.938 146.53 148.686Z" fill="#00A09D"/>
<path d="M280.076 216.266L254.634 278.374L194.531 309.325L147.514 295.494L111.622 274.902L145.64 321.308L203.242 330.505L267.919 307.302L283.268 259.097L280.076 216.266Z" fill="#C02E19"/>
<path d="M176.299 294.561L194.094 317.414L179.88 331.54L165.897 341.517L135.333 346.055L85.3543 331.571" fill="#078C63"/>
<path d="M100.688 264.017C126.273 273.206 151.5 283.398 176.291 294.561L163.761 318.696L119.499 337.687L85.3463 331.572L66.6618 289.983C66.7889 285.365 77.5406 259.693 77.5406 259.693L100.68 264.025L100.688 264.017Z" fill="white"/>
<path d="M140.05 279.067L164.761 295.629L155.574 312.709L139.224 318.354C135.563 314.882 134.841 314.206 131.18 310.742L140.058 279.075L140.05 279.067Z" fill="#00CF70"/>
<path d="M127.321 273.652C127.321 273.652 128.274 320.615 128.035 321.037L117.212 326.906C117.212 326.906 100.711 326.388 98.361 326.977L88.5543 309.762L127.329 273.66L127.321 273.652Z" fill="#00CF70"/>
<path d="M119.793 270.721L91.0477 298.232C89.2451 299.729 78.692 296.822 78.692 296.822C76.5718 291.75 74.5231 278.907 74.5231 278.907L86.9423 258.753L119.785 270.721H119.793Z" fill="#00CF70"/>
<path d="M353.234 183.316C354.433 184.701 355.751 185.967 357.26 187.05C361.476 190.052 367.495 191.151 371.807 188.284C375.761 185.649 377.27 180.234 376.166 175.6C371.6 156.45 344.84 155.558 332.024 165.726C332.643 165.241 339.933 169.883 340.854 170.44C344.134 172.431 347.04 174.509 349.136 177.71C350.407 179.653 351.725 181.572 353.242 183.324L353.234 183.316Z" fill="#00A09D"/>
<path d="M322.464 134.577C327.681 130.253 341.569 123.596 347.898 129.553C353.25 134.593 350.677 144.602 343.507 145.828C336.034 147.102 334.827 142.197 330.23 138.248C328.292 136.583 324.878 134.195 322.464 134.585V134.577Z" fill="#00A09D"/>
<path d="M285.331 288.896V316.416L269.181 327.055L242.757 323.261L268.084 317.885L276.95 312.066L285.331 288.896Z" fill="#C02E19"/>
<path d="M198.041 66.4723C192.459 93.2744 238.538 95.273 238.538 95.273L297.323 98.7447L362.088 103.785C362.088 103.785 362.127 103.761 362.143 103.745C362.85 103.22 370.394 97.3672 371.132 87.0556C371.545 81.45 369.941 74.5145 364.136 66.4086C360.436 61.2409 354.576 56.6623 347.564 53.1747C344.166 51.4707 340.497 50.0295 336.654 48.9147C326.704 45.9845 315.682 45.1564 305.526 47.4417C295.831 38.7465 278.369 42.5048 269.269 35.5455L258.422 30.7918C258.422 30.7918 210.738 5.59018 198.065 66.4723H198.041Z" fill="#F8AC35"/>
<path d="M244.264 69.1321C250.553 77.23 270.619 76.4417 270.698 76.4338C270.849 75.956 271 75.4942 271.159 75.0324C272.604 70.7724 274.502 67.1414 276.749 64.044L276.765 64.0201C277.273 63.3194 277.797 62.6505 278.345 62.0055C279.624 60.4767 281.005 59.0832 282.458 57.8411C282.458 57.8411 282.464 57.8358 282.474 57.8252L282.506 57.8013C289.335 51.9249 297.776 49.0663 305.939 47.848C320.939 45.5946 335.018 48.8991 336.447 49.2415C336.527 49.2654 336.566 49.2733 336.566 49.2733L336.646 48.9309L336.678 48.7478L341.887 23.2674V23.2276C341.887 23.2276 341.895 23.2197 341.887 23.1958V23.1719C341.648 22.2482 338.806 11.4907 330.349 9.38064C321.519 7.16703 319.51 9.9858 314.269 14.7952C314.269 14.7952 313.919 14.8908 313.356 14.9704C313.022 15.0182 312.601 15.0659 312.149 15.0898C309.068 15.265 303.867 14.5165 305.288 6.97593C305.582 5.39137 305.423 4.13328 304.883 3.14591C304.756 2.90704 304.605 2.68408 304.438 2.48502C298.729 -4.56985 270.174 5.63821 270.174 5.63821L262.75 21.4997L258.39 30.8239L251.252 46.0962C251.252 46.0962 251.252 46.1042 251.259 46.1042L247.281 54.5923C247.281 54.5923 246.979 55.1418 246.551 56.0415L246.439 56.2804C245.733 57.7774 244.716 60.1104 244.073 62.4275V62.4435V62.4674C243.358 65.0711 243.104 67.6908 244.248 69.148L244.264 69.1321Z" fill="#F8AC35"/>
<path d="M251.267 46.0725C251.267 46.0725 260.558 56.9494 283.776 56.4L266.307 75.3749C266.307 75.3749 246.32 76.1712 243.914 61.5916L251.259 46.0725H251.267Z" fill="#B73826"/>
<path d="M284.269 97.7334L297.315 98.7526L362.08 103.793C362.08 103.793 362.119 103.769 362.135 103.753C362.842 103.228 370.386 97.3751 371.124 87.0635C371.537 81.4578 369.933 74.5224 364.128 66.4165C360.428 61.2487 354.568 56.6702 347.556 53.1826L344.181 73.5191L329.888 89.524L284.269 97.7334Z" fill="#EA7C0B"/>
<path d="M243.922 61.5916L258.398 30.7922C258.398 30.7922 226.508 10.4557 210.143 51.9329C201.582 73.631 220.1 88.2982 235.64 89.6518C253.245 91.1886 266.315 75.3749 266.315 75.3749C266.315 75.3749 245.431 70.3664 243.922 61.5916Z" fill="#EA7C0B"/>
<path d="M341.942 23.9842L336.645 48.9152C335.327 48.4852 322.519 44.9657 305.534 47.458C300.912 48.1348 295.973 49.2814 290.851 51.081C290.851 51.081 290.923 50.9775 291.066 50.7784C291.828 49.6875 294.56 45.746 297.95 40.7216C301.349 35.6972 305.121 25.6484 311.958 24.3903C313.975 24.0161 316.103 23.9365 317.913 23.0287C321.487 21.2371 322.646 16.8975 325.743 14.445C328.022 12.6455 331.325 12.0563 334.152 12.9481C337.916 14.1345 341.72 19.3898 341.886 23.1482V23.2517C341.91 23.4906 341.926 23.7374 341.934 23.9763L341.942 23.9842Z" fill="#EA7C0B"/>
<path d="M310.688 15.9812C311.768 15.7184 312.863 15.3999 313.864 14.9301C313.705 14.9381 313.538 14.9461 313.372 14.9461C313.038 14.9938 312.617 15.0416 312.165 15.0655C309.084 15.2407 303.882 14.4922 305.304 6.95161C305.598 5.36705 305.439 4.10895 304.899 3.12159C304.772 2.88271 304.621 2.65976 304.454 2.46069C303.192 2.89864 301.929 3.31269 300.651 3.59935C297.967 4.19654 295.172 4.22043 292.464 4.70615C289.748 5.18391 286.977 6.23497 285.397 8.35303C277.416 18.9751 305.899 17.1676 310.68 15.9812H310.688Z" fill="#EA7C0B"/>
<path d="M169.677 197.561L190.172 187.982L166.921 191.04L154.708 167.733L157.345 191.86L135.643 203.884L158.623 199.648L172.782 226.466L169.677 197.561Z" fill="#EDDCB6"/>
<path d="M280.751 189.949L293.583 195.228L279.02 202.148L280.751 189.949Z" fill="#E64927"/>
<path d="M47.1915 151.33L62.128 137.65L65.201 117.935L57.1333 97.7893L33.5018 86.9521L7.99628 97.7893L4.57764e-05 118.516L4.91529 140.214L25.4579 155.359L47.1915 151.33Z" fill="white"/>
<path d="M31.9693 91.6743L32.0804 117.099L10.7597 100.298L31.9693 91.6743Z" fill="#FF6E5F"/>
<path d="M30.9845 120.228L9.52878 105.585L3.47793 117.967L5.92367 134.8L30.9845 120.228Z" fill="#FF6E5F"/>
<path d="M26.5059 150.287L8.97292 137.65L30.9845 123.644L26.5059 150.287Z" fill="#FF6E5F"/>
<path d="M30.9847 149.252L43.5151 147.747L55.585 137.65L33.9228 122.028L30.9847 149.252Z" fill="#FF6E5F"/>
<path d="M56.9109 135.699L61.2306 121.16L56.9109 108.364L35.6616 120.196L56.9109 135.699Z" fill="#FF6E5F"/>
<path d="M53.9967 104.629L52.1545 98.9439L36.3922 93.2029L34.3435 117.967L53.9967 104.629Z" fill="#FF6E5F"/>
<path d="M207.625 265.14L226.5 261.875L208.84 268.962L193.022 265.92L193.237 269.798L206.148 275.929L225.833 274.878L213.883 280.635L205.402 281.089L205.561 284.155L216.908 286.273L239.325 278.939L263.869 267.051L276.59 265.721L277.114 265.665L276.193 248.363V248.347L275.375 233.082L258.97 233.958L237.744 218.503L226.278 219.124L226.548 224.34L234.004 230.16L239.475 236.96L214.367 238.298L198.644 237.088L196.898 242.646L213.541 248.554L226.866 249.573L205.974 253.419L190.188 254.263L190.458 259.391L207.625 265.14Z" fill="#FFAF32"/>
<path d="M205.402 281.089L205.561 284.155L216.908 286.273L239.325 278.939L263.869 267.051L276.59 265.721L276.193 248.363V248.347L260.772 252.392L247.48 266.223L225.833 274.878L213.883 280.635L205.402 281.089Z" fill="#D37B11"/>
<path d="M243.755 248.347L239.579 252.392L233.647 249.82H239.579L243.755 248.347Z" fill="#D37B11"/>
<path d="M243.755 260.665L239.579 264.718L233.647 262.146H239.579L243.755 260.665Z" fill="#D37B11"/>
<path d="M226.421 221.911L235.314 224.682L247.233 235.861L239.475 236.96L234.004 230.16L226.548 224.339L226.421 221.911Z" fill="#D37B11"/>
<path d="M303.525 271.686L275.55 273.175L272.977 224.746L296.084 223.512L303.525 271.686Z" fill="#00A09D"/>
<path d="M382.416 261.621L296.045 266.231L290.502 232.143L366.677 221.314L382.416 261.621Z" fill="#00A09D"/>
<path d="M370.021 229.874L298.237 237.43" stroke="#137171" stroke-width="2" stroke-miterlimit="10"/>
<path d="M378.414 250.369L301.492 258.467" stroke="#137171" stroke-width="2" stroke-miterlimit="10"/>
<path d="M348.573 223.885L362.342 262.687" stroke="#137171" stroke-width="2" stroke-miterlimit="10"/>
<path d="M312.006 229.085L324.433 264.718" stroke="#137171" stroke-width="2" stroke-miterlimit="10"/>
<path d="M283.268 223.885L289.335 272.282" stroke="#137171" stroke-width="2" stroke-miterlimit="10"/>
<path d="M298.236 246.897L276.193 248.346" stroke="#137171" stroke-width="2" stroke-miterlimit="10"/>
<path d="M289.017 263.706C287.342 263.706 285.984 262.345 285.984 260.665C285.984 258.985 287.342 257.623 289.017 257.623C290.692 257.623 292.051 258.985 292.051 260.665C292.051 262.345 290.692 263.706 289.017 263.706Z" fill="#EDDCB6"/>
<path d="M279.481 145.621L291.471 150.837L282.141 160.87L279.481 145.621Z" fill="#E64927"/>
</svg>
