<svg width="203" height="181" viewBox="0 0 203 181" fill="none" xmlns="http://www.w3.org/2000/svg">
<g clip-path="url(#clip0_1092_1403)">
<path d="M152.374 68.6996L142.275 39.8541L129.364 25.8376L114.454 20.9885L111.031 27.5052L122.882 38.397L127.786 49.054L128.379 64.1953" fill="#C02E19"/>
<path d="M132.935 80.2116L123.37 66.4623L108.931 62.9313L92.2074 77.5583L82.1606 73.729L97.6968 49.2737L113.251 42.8262L136.981 45.9582L159.627 67.8308L160.574 91.9562L172.201 113.105L201.511 146.221L148.757 163.142L134.178 129.772L112.041 124.593L86.7264 109.083L83.3677 83.9001L96.4798 83.5187L101.899 97.6128L116.68 99.7165L128.365 93.2845" fill="#E64927"/>
<path d="M157.984 66.1389L149.863 32.5383L136.897 15.3413L120.668 8.22574L116.074 15.1655L128.207 28.7555L132.533 41.2699L131.496 58.3836" fill="#E64927"/>
<path d="M131.419 44.8997L139.913 47.5034L152.432 60.9882L145.557 44.8053L147.556 39.4099L130.947 40.7926" fill="#C02E19"/>
<path d="M134.178 129.772L144.069 123.502L147.733 117.59L146.216 131.528L156.454 137.376L143.803 141.388L148.757 163.142L134.178 129.772Z" fill="#C02E19"/>
<path d="M32.8443 75.7101L8.01514 84.0685L36.0496 89.2252L43.9253 119.804L46.335 86.0893L76.6881 74.3318L43.993 71.4487L37.1224 35.6345L32.8443 75.7101Z" fill="#EDDCB6"/>
</g>
<defs>
<clipPath id="clip0_1092_1403">
<rect width="183.49" height="157.277" fill="white" transform="translate(0 24.4478) rotate(-7.65663)"/>
</clipPath>
</defs>
</svg>
