<svg width="162" height="161" viewBox="0 0 162 161" fill="none" xmlns="http://www.w3.org/2000/svg">
<path d="M39.7712 137.367L32.7597 138.291L35.0286 155.519L74.9936 155.134L78.4919 145.985L112.891 127.738L127.526 79.7478L120.712 79.392L111.795 116.739L76.9461 137.62L39.7712 137.367Z" fill="#14222F"/>
<path d="M87.467 93.2533C89.3143 103.98 108.963 75.6689 110.452 71.9197L120.71 79.375L111.793 116.722L76.944 137.603L33.66 138.81L34.4027 118.388L2.56625 50.0599L20.0332 45.5207L49.0108 28.6647L59.3785 40.0125L72.1321 21.074L87.467 93.2533Z" fill="#D94625"/>
<path d="M18.4121 67.4511L2.17993 49.6736L51.6484 24.9381L58.6055 34.9872L72.5186 21.0737L65.562 41.1708L26.5275 49.6733L18.4121 67.4511Z" fill="#792113"/>
<path fill-rule="evenodd" clip-rule="evenodd" d="M79.3271 71.037L79.3272 93.2516L76.383 92.7203L50.8927 88.1234L51.3361 85.6636L51.7803 83.2027L74.3264 87.2683L74.3264 71.0376L79.3271 71.037ZM72.223 56.4116L72.2229 78.6253L69.2797 78.0939L43.7895 73.4979L44.2329 71.0381L44.676 68.5763L67.2231 72.6419L67.2232 56.4121L72.223 56.4116Z" fill="#FFAF32"/>
<path d="M113.946 37.6887C113.946 37.6887 106.371 22.8921 103.876 16.2025C104.393 17.4464 111.455 23.4665 120.85 31.7338L138.46 18.3481L125.809 37.8626C125.809 37.8626 134.869 63.5621 136.33 67.1519L118.259 42.8236C118.259 42.8236 103.511 51.9953 98.8547 55.7713C103.288 51.1618 109.785 42.3946 113.96 37.7045L113.946 37.6887Z" fill="#E9DCB7"/>
<path d="M43.3252 109.285L27.6047 102.067L34.0415 118.12V138.778H76.1279L91.8484 129.071L62.5117 131.933L66.9679 122.227H54.0944L62.5117 111.276L43.3252 109.285Z" fill="#C02E19"/>
</svg>
