<svg width="202" height="171" viewBox="0 0 202 171" fill="none" xmlns="http://www.w3.org/2000/svg">
<g clip-path="url(#clip0_1092_1489)">
<path d="M180.598 75.7703L96.3343 60.2354L94.9415 72.7515C94.9415 72.7515 66.5519 70.6848 62.5825 123.304L49.026 126.903L45.428 151.889L115.299 171L173.169 162.478L180.598 75.7703Z" fill="#00A19E"/>
<path d="M130.898 147.407C130.898 147.407 136.795 101.058 173.053 92.9306L180.598 75.7703L202 74.7485L192.436 160.759L115.299 171L116.181 150.658L130.875 147.407H130.898Z" fill="#137171"/>
<path d="M202 74.7488L123.052 57.751L96.3574 60.2356L180.598 75.7705L202 74.7488Z" fill="#EDDCB6"/>
<path d="M160.449 52.2477L158.568 68.8275L144.339 66.2732L149.376 48.2769L160.449 52.2477Z" fill="#C02E19"/>
<path d="M190.835 64.9725L197.938 63.9508L201.814 37.3859L126.697 16.0225L111.725 16.2314" fill="#C02E19"/>
<path d="M193.458 37.7574L190.834 64.9725L106.153 45.4668L111.724 16.2314L193.458 37.7574Z" fill="#E64927"/>
<path d="M138.306 93.1333L143.57 93.3623L143.29 99.8117L138.026 99.5827L138.306 93.1333Z" fill="#C02E19"/>
<path d="M149.91 88.8435L149.747 92.4196L146.428 95.5312L135.773 95.4151L132.059 93.9057L132.221 90.3065L138.071 88.4023L149.91 88.8435Z" fill="#D37B11"/>
<path d="M147.844 86.5912L149.91 88.8437L146.59 91.9321L135.935 91.816L132.221 90.3066L132.361 87.1253L138.234 84.8032L147.844 86.5912Z" fill="#FFAF32"/>
<path d="M115.242 87.5381L120.506 87.7671L120.226 94.2165L114.962 93.9874L115.242 87.5381Z" fill="#C02E19"/>
<path d="M126.836 83.2244L126.673 86.8237L123.377 89.9121L112.722 89.796L109.008 88.2866L109.148 84.7105L114.997 82.7832L126.836 83.2244Z" fill="#D37B11"/>
<path d="M124.77 80.9718L126.836 83.2243L123.516 86.3359L112.885 86.1966L109.148 84.7104L109.287 81.5059L115.16 79.207L124.77 80.9718Z" fill="#FFAF32"/>
<path d="M95.9514 82.6177L101.216 82.8467L100.935 89.296L95.6711 89.067L95.9514 82.6177Z" fill="#C02E19"/>
<path d="M107.546 78.3245L107.383 81.9238L104.064 85.0122L93.4324 84.8961L89.6951 83.3867L89.8575 79.7874L95.7072 77.8833L107.546 78.3245Z" fill="#D37B11"/>
<path d="M105.48 76.0722L107.546 78.3246L104.226 81.4131L93.5716 81.2969L89.8575 79.7876L89.9968 76.6063L95.8697 74.2842L105.48 76.0722Z" fill="#FFAF32"/>
<path d="M127.329 108.293L132.594 108.522L132.313 114.971L127.049 114.742L127.329 108.293Z" fill="#C02E19"/>
<path d="M138.93 103.984L138.768 107.583L135.448 110.671L124.793 110.555L121.079 109.046L121.242 105.447L127.092 103.542L138.93 103.984Z" fill="#D37B11"/>
<path d="M136.864 101.731L138.93 103.984L135.611 107.072L124.956 106.956L121.242 105.447L121.381 102.265L127.254 99.9434L136.864 101.731Z" fill="#FFAF32"/>
<path d="M104.242 102.698L109.506 102.927L109.226 109.376L103.962 109.147L104.242 102.698Z" fill="#C02E19"/>
<path d="M115.856 98.3645L115.694 101.964L112.398 105.052L101.743 104.936L98.0288 103.427L98.1681 99.8507L104.018 97.9233L115.856 98.3645Z" fill="#D37B11"/>
<path d="M113.79 96.112L115.856 98.3644L112.56 101.476L101.905 101.337L98.1681 99.8506L98.3074 96.646L104.18 94.3472L113.79 96.112Z" fill="#FFAF32"/>
<path d="M84.9514 97.7539L90.2158 97.9829L89.9355 104.432L84.6711 104.203L84.9514 97.7539Z" fill="#C02E19"/>
<path d="M96.5664 93.4646L96.4039 97.0639L93.0844 100.152L82.4529 100.036L78.7156 98.5268L78.878 94.9508L84.7277 93.0234L96.5664 93.4646Z" fill="#D37B11"/>
<path d="M94.5004 91.2123L96.5664 93.4648L93.2469 96.5764L82.5921 96.4371L78.8781 94.9509L79.0173 91.7464L84.8902 89.4243L94.5004 91.2123Z" fill="#FFAF32"/>
<path d="M117.713 123.582L122.978 123.811L122.697 130.26L117.433 130.031L117.713 123.582Z" fill="#C02E19"/>
<path d="M129.32 119.286L129.157 122.886L125.838 125.974L115.206 125.858L111.469 124.349L111.631 120.773L117.481 118.845L129.32 119.286Z" fill="#D37B11"/>
<path d="M127.254 117.034L129.32 119.287L126 122.398L115.346 122.259L111.631 120.773L111.771 117.568L117.644 115.246L127.254 117.034Z" fill="#FFAF32"/>
<path d="M94.6492 117.986L99.9136 118.215L99.6332 124.665L94.3688 124.436L94.6492 117.986Z" fill="#C02E19"/>
<path d="M106.246 113.667L106.084 117.267L102.787 120.378L92.1326 120.239L88.4185 118.753L88.5577 115.153L94.4074 113.226L106.246 113.667Z" fill="#D37B11"/>
<path d="M104.18 111.415L106.246 113.667L102.95 116.779L92.295 116.663L88.5577 115.153L88.697 111.949L94.5699 109.65L104.18 111.415Z" fill="#FFAF32"/>
<path d="M75.3582 113.089L80.6226 113.318L80.3422 119.768L75.0778 119.539L75.3582 113.089Z" fill="#C02E19"/>
<path d="M86.9561 108.768L86.7936 112.367L83.4741 115.456L72.8425 115.339L69.1052 113.83L69.2677 110.254L75.1174 108.327L86.9561 108.768Z" fill="#D37B11"/>
<path d="M84.8901 106.515L86.9561 108.768L83.6366 111.879L72.9818 111.74L69.2677 110.254L69.407 107.049L75.2799 104.75L84.8901 106.515Z" fill="#FFAF32"/>
<path d="M116.205 150.635L49.0492 126.903L62.6056 123.304L130.898 147.407L116.205 150.635Z" fill="#EDDCB6"/>
<path d="M79.8995 150.496L83.4976 149.102L83.0101 144.899L78.971 141.857L75.814 143.483L74.1891 145.41L75.3498 148.986L73.1445 153.956L80.5959 154.722L79.8995 150.496Z" fill="#137171"/>
<path d="M73.0049 73.2857L74.4209 48.8571L60.1217 18.7162L42.2244 0L-0.000152588 4.06369L16.4579 29.305L22.8879 55.359L19.3131 73.2857H73.0049Z" fill="#EDDCB6"/>
<path d="M186.424 40.9619L185.867 57.6578L112.908 41.5192L116.251 22.5708L186.424 40.9619Z" fill="#EDDCB6"/>
<path d="M42.5263 7.89502L55.2935 21.6419L62.1646 33.4382L26.3236 34.9011L13.0689 10.8441L42.5263 7.89502Z" fill="#14222F"/>
<path d="M61.8393 38.9883L65.8784 47.5104L33.6355 47.046L31.8481 38.9883H61.8393Z" fill="#14222F"/>
<path d="M66.7607 52.4331L66.3197 60.0496L43.037 61.3732L43.9423 52.8743L66.7607 52.4331Z" fill="#14222F"/>
<path d="M58.4971 82.5277L56.6865 107.026L53.7616 104.425L50.1868 81.9937L58.4971 82.5277Z" fill="#D37B11"/>
<path d="M43.4316 80.2054L40.1122 95.6474L36.5374 93.0467L35.0981 79.9268L43.4316 80.2054Z" fill="#D37B11"/>
</g>
<defs>
<clipPath id="clip0_1092_1489">
<rect width="202" height="171" fill="white" transform="matrix(-1 0 0 1 202 0)"/>
</clipPath>
</defs>
</svg>
