<svg width="655" height="224" viewBox="0 0 655 224" fill="none" xmlns="http://www.w3.org/2000/svg">
<path d="M498 184.31L494.227 85.2415L86.3011 80.3105L17.9204 70.0002L36.6661 107.207L-5.25743e-06 131.862L36.6661 161.5L28.2954 192L86.3011 184.31L498 184.31Z" fill="#2EE174"/>
<circle cx="29.5522" cy="29.5522" r="29.5522" transform="matrix(-1 0 0 1 655 95.2239)" fill="#C02E19"/>
<ellipse cx="85.3731" cy="84.5522" rx="85.3731" ry="84.5522" transform="matrix(-1 0 0 1 640.224 54.1792)" fill="#D94625"/>
<circle cx="30.3731" cy="30.3731" r="30.3731" transform="matrix(-1 0 0 1 512.165 142.836)" fill="#D94625"/>
<circle cx="5.74627" cy="5.74627" r="5.74627" transform="matrix(-1 0 0 1 582.761 131.343)" fill="#FF5C45"/>
<path d="M457.985 173.092L495.747 177.314V170.981L460.083 167.463L457.985 173.092Z" fill="#792113"/>
<path d="M638.582 69.497L623.717 90.6187L608.851 79.0358L577.769 83.1239L516.955 106.971L453.881 144.478L435.821 137.91L439.925 83.1239L443.98 74.2664H462.899L454.791 39.5179V21.803L468.305 13.6269L496.009 21.803H504.117L510.874 0H541.281L577.769 39.5179L591.959 28.6164H623.717L638.582 69.497Z" fill="white"/>
<path d="M589.329 54.8509L577.813 39.4031L556.137 43.433L521.59 58.2091L492.463 77.6867L510.075 83.7315L544.621 68.2837L589.329 54.8509Z" fill="#FFAF32"/>
<path d="M612.032 63.2522L581.683 74.7102L529.5 91.5001L510 84.0001L538 70.0001L589.27 54.4903L576.855 38.9883L591 28.5001H624L612.032 63.2522Z" fill="#E9DCB7"/>
<path d="M458.806 122.314L499.03 114.984L466.194 137.09L453.881 144.478L435 138.732L438.284 98.5076L458.806 122.314Z" fill="#E9DCB7"/>
<path d="M523.199 18.8012L503.956 21.3433L510.141 1.64185H529.384L533.508 8.6327L523.199 18.8012Z" fill="#E9DCB7"/>
<path d="M517.089 127.403V108.358L496.871 115.582L466.194 137.254L470.377 145.134H490.596L495.476 154.328H505.934V132.657L517.089 127.403Z" fill="#792113"/>
<path d="M636.94 111.642L626.07 90.2657L611.124 77.1642L597.537 79.9225L609.086 93.7135H615.88L626.07 111.642H636.94Z" fill="#792113"/>
<path d="M536.791 141.194L535.149 130.523L540.075 128.06L542.537 137.911L549.926 138.732L554.03 137.09L550.746 126.418L554.03 123.955L560.597 137.09L554.03 144.478H545L536.791 141.194Z" fill="#792113"/>
<path d="M583.582 125.597L581.94 114.925L586.865 112.463L589.328 122.314L596.716 123.134L600.821 121.493L597.537 110.821L600.821 108.358L607.388 121.493L600.821 128.881H591.791L583.582 125.597Z" fill="#792113"/>
<path d="M582.367 155.844L570.606 164.521L570.331 173.546L565.358 175.038L565.608 166.833L560.859 160.939L554.345 159.099L558.547 155.941L566.653 159.473L580.925 149.23L594.128 147.167L604.745 149.132L602.109 154.801L593.929 153.731L582.367 155.844Z" fill="#792113"/>
</svg>
