<svg width="356" height="344" viewBox="0 0 357 345" fill="none" xmlns="http://www.w3.org/2000/svg">
<path d="M0 110.146L251.646 114.604L303.5 146.5L289.167 110.146L346.22 110.146L356.5 97.1879L356.5 -3.11662e-05L17.7798 -1.55436e-06L7.49998 10.6023L0 110.146Z" fill="#FD710C"/>
<path d="M329.482 147L312.5 164.969V169.281H324.079L322.535 164.969L329.482 154.906L341.061 159.219L343.377 164.969L329.482 180.063V193H335.658V180.063L356.5 164.969L349.553 150.594L329.482 147Z" fill="#14222F"/>
<path d="M326.5 199.81L331.45 196L337.5 199.81L331.45 206L326.5 199.81Z" fill="#14222F"/>
<path d="M125.745 212.421L113.445 227.329L113.672 230.692L122.703 230.083L121.272 226.801L126.161 218.588L135.419 221.342L137.527 225.705L127.484 238.208L128.165 248.298L132.981 247.973L132.301 237.883L147.762 225.015L141.587 214.168L125.745 212.421Z" fill="#14222F"/>
<path d="M126.197 253.766L129.857 250.534L134.776 253.187L130.383 258.334L126.197 253.766Z" fill="#14222F"/>
<path d="M262.53 211.391L291.051 217.692L312.617 240.742L318.145 278.288L313.746 312.881L288.993 336.017L260.737 344.674L229.194 337.058L202.034 315.391L194.613 288.397L201.088 248.579L224.147 220.577L262.53 211.391Z" fill="#E64927"/>
<path d="M310.214 256.259L320.755 250.164L334.342 251.925L345.205 268.719L341.905 286.41L327.439 292.572L309.91 288.086" fill="#E64927"/>
<path d="M200.496 255.269L190.397 248.952L177.208 250.467L166.378 267.11L169.268 284.906L183.171 291.36L200.214 287.178" fill="#E64927"/>
<path d="M315.844 269.644L332.072 263.492L334.616 268.265L315.792 275.609L315.844 269.644Z" fill="#14222F"/>
<path d="M194.614 268.639L191.828 274.397L176.966 268.478L176.999 264.704L194.614 268.639Z" fill="#14222F"/>
<path d="M238.332 248.495L227.199 246.878L217.359 248.752L215.5 253.466L223.612 252.565L229.676 252.135L239.157 253.852L238.332 248.495Z" fill="#14222F"/>
<path d="M212.859 266.928L210.625 275.846L214.236 280.635L217.364 284.91L230.135 285.162L242.137 281.185L244.891 271.126L238.213 264.253L226.327 262.305L212.859 266.928Z" fill="white"/>
<path d="M257.266 269.792L255.031 278.71L258.642 283.499L261.77 287.774L274.541 288.026L286.543 284.049L289.297 273.99L282.619 267.117L270.733 265.169L257.266 269.792Z" fill="white"/>
<path d="M230.743 266.534L222.854 262.236L212.809 266.18L210.632 275.457L216.426 284.891L224.397 285.049L230.559 275.85L230.743 266.534Z" fill="#14222F"/>
<path d="M275.125 270.562L267.231 266.523L257.191 270.209L255.026 278.903L260.832 287.755L268.803 287.913L274.953 279.296L275.125 270.562Z" fill="#14222F"/>
<circle cx="4.27079" cy="4.27079" r="4.27079" transform="matrix(-0.999805 -0.019724 -0.019724 0.999805 253.599 287.794)" fill="#FFAF32"/>
<path d="M269.321 301.894L279.321 306.962L277.178 311.306L267.893 306.962H255.035L247.892 309.134L244.321 311.306L239.321 309.134L242.892 304.79L252.892 301.894H269.321Z" fill="#14222F"/>
<path d="M288.705 262.173L270.861 259.706L259.037 262.232L255.277 256.915L270.952 255.585L288.841 255.543L288.705 262.173Z" fill="#14222F"/>
<path d="M178.5 217L181 243.5L200.5 256L201.5 249L212 236.5L239 229.5L300 236.5L313.5 245.5V254.5L331.5 245.5V224L317 200.5H300L296 209L288 177.5L280 173L260.5 177.5L248.5 173L239 177.5L222 207.5L215.5 198H198L178.5 217Z" fill="#00CF70"/>
<path d="M195.5 212.5L198 200.5V198H216L222 207.5L218 217L240 222H266.5L298 218L295.5 209L300.5 200.5H317L323 218L308.5 231.5L273 227.5L240 226L218 230.5L204.5 227.5L195.5 212.5Z" fill="#078C63"/>
<path d="M218 217L221.5 208L241 212.5L273 213.5L295.5 209.5L298 218.5L273 222H241L218 217Z" fill="#EDDCB6"/>
</svg>
