<svg width="568" height="258" viewBox="0 0 568 258" fill="none" xmlns="http://www.w3.org/2000/svg">
<path d="M557.963 119.893L307.148 119.893L258.529 163L266.562 110.935L245 103L251.559 15L543.406 15L568 37.7857L557.963 119.893Z" fill="#FFAF32"/>
<path d="M335.683 166.266C335.683 166.266 352.893 131.53 358.84 117.124L373.675 116.727L357.973 177.803" fill="#E64927"/>
<path d="M333.137 182.514C337.301 183.441 340.985 186.502 345.083 187.345C347.639 187.877 357.818 184.625 357.818 184.625L363.321 173.577C363.321 173.577 351.706 165.066 346.562 162.372L318.891 160.627L308.603 185.95C310.035 189.269 317.973 199.748 318.037 199.149L307.569 215.759L349.511 233.771L368.44 220.545L389.719 207.589L398.915 193.438L390.746 171.661L361.521 155.863" fill="#E64927"/>
<path d="M365.086 153.816C368.93 155.103 377.231 150.293 377.231 150.293C379.164 150.868 388.539 153.057 388.539 153.057L386.843 161.475C382.667 170.301 379.542 177.639 371.283 182.843C369.607 183.895 364.929 188.406 362.854 188.426C360.592 188.445 355.598 183.424 353.941 181.923C356.239 176.828 356.297 170.77 358.592 165.919C360.455 161.966 366.042 160.07 367.37 155.447" fill="#E64927"/>
<path d="M382.305 161.321L397.005 161.194L402.518 168.353C402.518 168.353 400.813 171.986 398.745 176.333C394.569 185.159 393.732 188.515 385.473 193.719C383.797 194.771 379.12 199.281 377.044 199.301C374.782 199.32 369.789 194.299 368.132 192.798C370.429 187.704 370.487 181.646 372.782 176.795C374.645 172.842 380.232 170.946 381.561 166.322" fill="#E64927"/>
<path d="M326.542 182.113C327.725 180.672 335.244 180.722 335.244 180.722L348.842 188.042L349.694 193.498L356.118 197.15L362.69 194.689L363.73 202.089L370.536 203.295L385.009 196.565L398.903 174.882L403.215 188.042L395.42 207.618L363.73 228.662L352.552 245.81L307.192 215.822L345.012 213.618L346.673 199.509L326.535 182.13L326.542 182.113Z" fill="#C02E19"/>
<path d="M373.596 117.205L365.672 152.996L377.126 150.144L361.499 179.183L361.584 173.184L353.331 163.97L361.584 145.264L373.596 117.205Z" fill="#C02E19"/>
<path d="M386.876 161.352L379.715 175.988L370.854 186.841L383.228 178.799L394.169 161.22L386.876 161.352Z" fill="#C02E19"/>
<circle cx="32.6276" cy="137.761" r="32.6276" fill="#C02E19"/>
<ellipse cx="110.571" cy="153.168" rx="94.2575" ry="93.3512" fill="#D94625"/>
<path d="M72.5059 179.452L79.7564 175.826L88.8197 179.452L90.6323 187.609L85.1944 195.766H77.9438L72.5059 187.609V179.452Z" fill="#792113"/>
<path d="M130.51 137.761L139.574 145.918L138.667 154.981L132.323 160.419H118.728L106.04 155.887L103.321 145.012L110.571 137.761L123.26 135.042L130.51 137.761Z" fill="white"/>
<path d="M70.6933 124.166L79.7565 132.323L78.8502 141.386L72.506 146.824H58.9111L46.2226 142.293L43.5037 131.417L50.7542 124.166L63.4427 121.447L70.6933 124.166Z" fill="white"/>
<path d="M119.634 142.045L128.335 137.761L139.211 142.045L141.386 151.685L134.86 161.325H126.16L119.634 151.685V142.045Z" fill="#792113"/>
<path d="M59.8174 128.451L68.5181 124.166L79.3939 128.451L81.5691 138.091L75.0436 147.731H66.3429L59.8174 138.091V128.451Z" fill="#792113"/>
<circle cx="191.234" cy="191.234" r="33.5339" fill="#D94625"/>
<circle cx="86.1006" cy="151.356" r="6.34425" fill="#FF5C45"/>
<path d="M217.517 191.105L175.827 195.766V188.774L215.201 184.89L217.517 191.105Z" fill="#792113"/>
<path d="M15.334 81.9269L32.4203 100.766L48.6305 86.308L85.2685 91.7742L152.41 118.103L206.124 150.449L229.25 142.927L237.457 91.7742L232.981 81.995H212.092L221.044 43.6304V24.0719L206.124 15.0449L175.537 24.0719H166.585L159.125 0H125.554L85.2685 43.6304L69.6021 31.5944H34.5392L15.334 81.9269Z" fill="white"/>
<path d="M72.5059 60.5588L85.2197 43.5035L109.152 47.9527L147.293 64.2665L179.452 85.771L160.007 92.4449L121.866 75.3895L72.5059 60.5588Z" fill="#FFAF32"/>
<path d="M46.3349 69.8345L79.842 82.4849L134.672 103.321L160.349 92.4416L123.547 75.7933L73.1645 60.8975L85.1727 43.0455L69.2215 31.544H35.0488L46.3349 69.8345Z" fill="#E9DCB7"/>
<path d="M212.464 129.411L174.807 127.929L208.738 152.911L230.009 143.262L235.266 107.337L212.464 129.411Z" fill="#E9DCB7"/>
<path d="M145.517 20.7577L166.763 23.5644L159.934 1.81265H138.688L134.136 9.53101L145.517 20.7577Z" fill="#E9DCB7"/>
<path d="M152.262 140.661V117.414L174.585 127.61L209.417 152.463L205.036 160.787L181.513 160.238L176.125 170.389H164.578V146.462L152.262 140.661Z" fill="#792113"/>
<path d="M20.1531 123.935L32.154 100.335L48.6553 85.8699L63.6565 88.9151L50.9055 104.141H43.4049L32.154 123.935H20.1531Z" fill="#792113"/>
</svg>
