<svg width="154" height="157" viewBox="0 0 154 157" fill="none" xmlns="http://www.w3.org/2000/svg">
<ellipse cx="76.3853" cy="123.44" rx="33.6288" ry="6.48555" fill="#1B6161"/>
<path d="M45.1425 29.802L116.051 37.1683L117.046 43.3064L110.744 47.8037L113.686 71.3386L104.86 111.88L91.4816 125.463L51.9939 121.179L40.0589 104.493L40.0257 59.4818L50.1993 41.5285L44.2699 35.9718L45.1425 29.802Z" fill="#E64927"/>
<path d="M40.059 104.493L64.4264 110.861L90.1755 109.694L113.686 71.3389L104.86 111.881L91.4817 125.463L51.994 121.179L40.059 104.493Z" fill="#C02E19"/>
<path d="M117.046 43.3065L67.5408 38.1646L110.744 47.8038L117.046 43.3065Z" fill="#C02E19"/>
<path d="M82.1271 114.338L72.5801 122.642L77.5183 129.9L82.7044 135.351L95.4652 139.874L118.151 137.87" fill="#FD710C"/>
<path d="M117.165 107.611C105.4 109.398 93.7169 111.647 82.1327 114.346L85.5171 125.748L102.97 137.616L118.151 137.87L129.631 121.605C129.962 119.611 127.472 107.699 127.472 107.699L117.165 107.611Z" fill="#E9DCB7"/>
<path d="M98.9949 110.745L86.9991 115.765L89.5329 123.866L96.0949 127.663C97.9621 126.483 98.3238 126.258 100.185 125.071L99.0029 110.74L98.9949 110.745Z" fill="#FF5C45"/>
<path d="M104.915 109.496C104.915 109.496 100.609 129.56 100.677 129.761L104.847 133.19C104.847 133.19 111.983 134.355 112.944 134.812L118.591 128.251L104.92 109.504L104.915 109.496Z" fill="#FF5C45"/>
<path d="M108.4 108.875L118.471 123.094C119.126 123.891 123.894 123.529 123.894 123.529C125.221 121.532 127.175 116.194 127.175 116.194L123.512 106.504L108.4 108.875Z" fill="#FF5C45"/>
</svg>
