<svg width="436" height="453" viewBox="0 0 436 453" fill="none" xmlns="http://www.w3.org/2000/svg">
<g clip-path="url(#clip0_519_390)">
<path d="M190.24 180.519C191.679 180.519 192.847 179.353 192.847 177.915C192.847 176.477 191.679 175.311 190.24 175.311C188.8 175.311 187.632 176.477 187.632 177.915C187.632 179.353 188.8 180.519 190.24 180.519Z" fill="#EDDCB6"/>
<path d="M181.272 174.095C182.712 174.095 183.879 172.929 183.879 171.491C183.879 170.053 182.712 168.887 181.272 168.887C179.832 168.887 178.665 170.053 178.665 171.491C178.665 172.929 179.832 174.095 181.272 174.095Z" fill="#EDDCB6"/>
<path d="M180.389 187.116C182.983 187.116 185.086 185.015 185.086 182.424C185.086 179.833 182.983 177.733 180.389 177.733C177.795 177.733 175.692 179.833 175.692 182.424C175.692 185.015 177.795 187.116 180.389 187.116Z" fill="#EDDCB6"/>
<path d="M187.937 170.691C188.917 170.691 189.712 169.897 189.712 168.918C189.712 167.938 188.917 167.145 187.937 167.145C186.956 167.145 186.161 167.938 186.161 168.918C186.161 169.897 186.956 170.691 187.937 170.691Z" fill="#EDDCB6"/>
<path d="M194.865 162.493L195.342 163.74L197.138 168.431L198.639 172.362L210.011 175.524L210.245 175.585L213.734 176.557C213.775 176.618 213.815 176.689 213.856 176.77C214.789 178.472 216.179 184.309 217.691 190.966C218.522 194.664 219.395 198.605 220.247 202.233C221.403 207.188 222.519 211.534 223.453 213.845C223.666 214.392 223.879 214.979 224.122 215.567L226.384 214.726C226.384 214.726 240.374 194.654 239.562 193.407C234.358 185.302 227.977 166.182 224.69 162.21H224.64L212.405 158.876L205.507 157.002L202.555 156.191L199.329 155.32L198.01 154.955L196.773 154.621L196.57 155.472L195.992 157.863L194.977 162.017L194.855 162.504L194.865 162.493Z" fill="#FFAF32"/>
<path d="M215.773 158.198L205.466 152.28L194.166 156.313L188.688 164.794L192.938 167.246L197.249 160.954L205.791 160.153L215.773 158.198Z" fill="#D37B11"/>
<path d="M216.372 161.804L205.517 156.971L194.693 162.139L191.802 167.793L192.837 172.585L196.793 172.524L197.097 168.512L198.233 166.435L206.643 164.773L216.372 161.804Z" fill="#D37B11"/>
<path d="M218.969 156.009L204.726 155.178C203.59 155.451 196.763 159.383 196.763 159.383C196.763 159.383 196.063 162.676 196.286 163.03L198.761 165.746L208.561 163.598C208.561 163.598 209.108 173.821 219.182 177.155C220.47 177.581 224.467 163.476 224.64 162.179L218.959 156.009H218.969Z" fill="#FFAF32"/>
<path d="M213.765 176.365L221.373 170.762L217.051 178.199L217.691 190.966L213.765 176.365Z" fill="#D37B11"/>
<path d="M218.969 156.009L210.255 147.943L198.335 149.342L191.092 156.384L192.644 160.396L200.303 154.55L208.804 155.685L218.969 156.009Z" fill="#FFAF32"/>
<path d="M198.761 165.736L204.452 162.818L208.561 163.588C208.561 163.588 209.463 170.103 212.091 172.322L210.113 175.808L207.242 167.053L205.477 172.413L205.406 167.084L198.761 165.736Z" fill="#D37B11"/>
<path d="M205.243 155.249L200.303 154.55L207.952 152.25L212.497 155.634L205.243 155.249Z" fill="#D37B11"/>
<path d="M213.765 187.592L234.591 173.568L240.719 185.018L217.569 199.629L213.765 187.592Z" fill="#14222F"/>
<path d="M218.969 196.599L224.082 225.649L234.591 234.029L261.596 225.852L248.428 214.554L237.371 185.018" fill="#14222F"/>
<path d="M243.549 240.878L257.335 223.45L274.226 214.554L311.831 215.283L331.015 223.409L332.171 243.421L243.549 240.878Z" fill="#14222F"/>
<path d="M305.877 197.329H278.963V215.77H305.877V197.329Z" fill="#D37B11"/>
<path d="M237.462 152.28L234.591 135.389L247.657 120.89L260.166 116.654L274.033 126.827L284.989 134.467H296.838L310.36 124.821L318.253 118.448L331.918 119.988L339.719 130.86L346.982 147.052V166.881L338.319 180.306L314.652 187.591L280.465 185.95L251.604 173.568L237.462 152.28Z" fill="#14222F"/>
<path d="M288.621 127.78L271.193 131.519L258.015 145.197L254.637 167.479L257.325 188.007L272.451 201.736L289.716 206.873L308.991 202.354L325.587 189.496L330.122 173.477L326.166 149.848L312.075 133.231L288.621 127.78Z" fill="#FFAF32"/>
<path d="M259.658 150.699L253.338 147.052L245.192 148.106L238.68 158.157L240.658 168.745L249.331 172.433L259.841 169.748" fill="#FFAF32"/>
<path d="M326.957 153.638L333.125 149.919L341.18 150.811L347.794 160.609L346.029 171.086L337.538 174.885L327.129 172.423" fill="#FFAF32"/>
<path d="M255.966 158.856L246.389 155.512L244.888 158.106L255.996 162.098L255.966 158.856Z" fill="#E64927"/>
<path d="M330.173 161.754L331.897 165.371L341.098 161.652L341.078 159.281L330.173 161.754Z" fill="#E64927"/>
<path d="M294.231 175.625L284.918 172.991L276.813 180.185L277.634 187.47L290.883 195.252L305.694 191.574L315.869 181.168L317.918 168.877L309.478 165.371L302.367 168.289L294.231 175.625Z" fill="#EDDCB6"/>
<path d="M290.173 159.737L290.224 166.952L281.104 165.371L290.173 159.737Z" fill="#E64927"/>
<path d="M294.231 175.625L290.883 195.252L286.217 192.506L291.248 174.774L294.231 175.625Z" fill="#14222F"/>
<path d="M298.816 171.501L309.59 187.592L313.14 183.954L300.987 169.536L298.816 171.501Z" fill="#14222F"/>
<path d="M265.126 155.31L273.516 152.28L279.359 152.716L280.799 149.261L273.191 149.869L264.609 151.429L265.126 155.31Z" fill="#14222F"/>
<path d="M266.983 158.927L266.394 163.071L269.661 167.002L272.937 167.762L277.584 166.364L279.105 162.2V159.231H275.169L274.561 164.155L271.811 164.885L269.661 163.344V159.15L266.983 158.927Z" fill="#14222F"/>
<path d="M300.206 154.864L299.618 159.008L302.884 162.939L306.161 163.699L310.817 162.301L312.329 158.126V155.168H308.393L307.784 160.092L305.035 160.822L302.884 159.282V155.087L300.206 154.864Z" fill="#14222F"/>
<path d="M303.046 144.295L309.711 145.967L314.865 149.26V152.28L310.472 149.919L307.135 148.288L301.383 147.051L303.046 144.295Z" fill="#14222F"/>
<path d="M163.438 429.665L166.045 414.527L177.671 407.819L186.902 414.253L193.557 428.489L194.257 446.312L184.914 452.939L172.862 448.714L163.438 429.665Z" fill="#14222F"/>
<path d="M415.143 285.339L428.99 279.513L428.341 264.922L80.2632 271.7L79.7864 291.418L107.237 296.261L106.923 337.085L99.5377 364.767L99.2536 365.82C99.2536 365.82 99.2638 365.841 99.2536 365.851L99.2029 366.023L99.2435 366.064L118.082 386.035L120.659 387.24L156.651 404.06L339.749 404.557L392.521 391.496L427.124 368.516L428.341 347.511L417.496 327.479L415.143 285.339Z" fill="#E64927"/>
<path d="M428.341 347.511L427.123 368.516L392.521 391.496L339.749 404.557L156.651 404.06L120.658 387.24L118.082 386.035L99.2435 366.064L99.2029 366.023L99.2435 366.033L126.471 371.951L161.155 379.479L300.084 380.431L378.389 368.506L428.341 347.511Z" fill="#C02E19"/>
<path d="M81.4298 271.701L126.613 230.097L407.575 220.927L428.341 264.922L81.4298 271.701Z" fill="#E9DCB7"/>
<path d="M106.913 337.085L83.4587 336.295L50.5094 345.465L43.5706 355.557H20.2078H4.423L0 368.8L21.4657 373.846L44.514 366.905L66.9232 380.776L126.35 387.737L123.286 373.136L73.2432 367.533L61.8814 358.799L84.0268 349.193L101.394 354.645L106.913 337.085Z" fill="#14222F"/>
<path d="M171.655 430.111L172.842 423.201L178.147 420.141L182.357 423.079L185.401 429.574L185.715 437.71L181.454 440.73L175.956 438.805L171.655 430.111Z" fill="#EDDCB6"/>
<path d="M325.821 429.716L328.428 414.588L340.053 407.87L349.285 414.314L355.94 428.55L356.64 446.373L347.297 453L335.245 448.765L325.821 429.716Z" fill="#14222F"/>
<path d="M334.038 430.171L335.225 423.261L340.53 420.201L344.74 423.14L347.783 429.634L348.098 437.761L343.837 440.79L338.339 438.855L334.038 430.171Z" fill="#EDDCB6"/>
<path d="M357.167 257.13C369.941 257.13 380.297 246.787 380.297 234.028C380.297 221.269 369.941 210.926 357.167 210.926C344.393 210.926 334.038 221.269 334.038 234.028C334.038 246.787 344.393 257.13 357.167 257.13Z" fill="#FFAF32"/>
<path d="M363.731 228.05C365.21 228.05 366.409 226.852 366.409 225.375C366.409 223.898 365.21 222.7 363.731 222.7C362.252 222.7 361.052 223.898 361.052 225.375C361.052 226.852 362.252 228.05 363.731 228.05Z" fill="#FD710C"/>
<path d="M368.143 235.244C369.623 235.244 370.822 234.046 370.822 232.569C370.822 231.092 369.623 229.894 368.143 229.894C366.664 229.894 365.465 231.092 365.465 232.569C365.465 234.046 366.664 235.244 368.143 235.244Z" fill="#FD710C"/>
<path d="M356.548 236.014C358.027 236.014 359.227 234.816 359.227 233.339C359.227 231.862 358.027 230.664 356.548 230.664C355.069 230.664 353.87 231.862 353.87 233.339C353.87 234.816 355.069 236.014 356.548 236.014Z" fill="#FD710C"/>
<path d="M335.032 227.017L340.753 243.066L357.999 251.912L376.371 246.917C376.371 246.917 369.097 257.404 357.167 257.13C345.237 256.857 330.66 247.19 335.032 227.017Z" fill="#FD710C"/>
<path d="M403.436 257.13C416.21 257.13 426.566 246.787 426.566 234.028C426.566 221.269 416.21 210.926 403.436 210.926C390.662 210.926 380.307 221.269 380.307 234.028C380.307 246.787 390.662 257.13 403.436 257.13Z" fill="#FFAF32"/>
<path d="M409.99 228.05C411.469 228.05 412.668 226.852 412.668 225.375C412.668 223.898 411.469 222.7 409.99 222.7C408.51 222.7 407.311 223.898 407.311 225.375C407.311 226.852 408.51 228.05 409.99 228.05Z" fill="#FD710C"/>
<path d="M414.413 235.244C415.892 235.244 417.091 234.046 417.091 232.569C417.091 231.092 415.892 229.894 414.413 229.894C412.933 229.894 411.734 231.092 411.734 232.569C411.734 234.046 412.933 235.244 414.413 235.244Z" fill="#FD710C"/>
<path d="M402.807 236.014C404.286 236.014 405.485 234.816 405.485 233.339C405.485 231.862 404.286 230.664 402.807 230.664C401.328 230.664 400.129 231.862 400.129 233.339C400.129 234.816 401.328 236.014 402.807 236.014Z" fill="#FD710C"/>
<path d="M381.301 227.017L387.022 243.066L404.268 251.912L422.64 246.917C422.64 246.917 415.366 257.404 403.436 257.13C391.506 256.857 376.929 247.19 381.301 227.017Z" fill="#FD710C"/>
<path d="M382.031 217.705C394.805 217.705 405.161 207.362 405.161 194.603C405.161 181.845 394.805 171.501 382.031 171.501C369.257 171.501 358.902 181.845 358.902 194.603C358.902 207.362 369.257 217.705 382.031 217.705Z" fill="#FFAF32"/>
<path d="M388.585 188.625C390.064 188.625 391.263 187.428 391.263 185.95C391.263 184.473 390.064 183.275 388.585 183.275C387.106 183.275 385.906 184.473 385.906 185.95C385.906 187.428 387.106 188.625 388.585 188.625Z" fill="#FD710C"/>
<path d="M393.008 195.829C394.487 195.829 395.686 194.632 395.686 193.154C395.686 191.677 394.487 190.479 393.008 190.479C391.529 190.479 390.329 191.677 390.329 193.154C390.329 194.632 391.529 195.829 393.008 195.829Z" fill="#FD710C"/>
<path d="M381.402 196.599C382.881 196.599 384.08 195.402 384.08 193.924C384.08 192.447 382.881 191.25 381.402 191.25C379.923 191.25 378.724 192.447 378.724 193.924C378.724 195.402 379.923 196.599 381.402 196.599Z" fill="#FD710C"/>
<path d="M359.896 187.592L365.617 203.642L382.863 212.487L401.235 207.492C401.235 207.492 393.961 217.979 382.031 217.705C370.101 217.432 355.524 207.765 359.896 187.592Z" fill="#FD710C"/>
<path d="M198.852 232.569L178.685 257.13H325.821L310.898 229.895L198.852 232.569Z" fill="white"/>
<path d="M348.129 362.568L350.817 364.433L356.153 359.66L356.051 359.295C356.051 359.295 351.689 359.133 351.568 359.154C351.446 359.174 348.139 362.568 348.139 362.568H348.129Z" fill="#137171"/>
<path d="M358.851 358.495L363.69 356.003L362.899 354.138L362.168 354.351L358.851 358.495Z" fill="#137171"/>
<path d="M362.787 352.811L370.852 347.035L377.203 335.879L376.797 334.461L358.415 351.686C358.648 351.747 362.787 352.811 362.787 352.811Z" fill="#137171"/>
<path d="M375.062 335.17C375.062 335.17 377.953 326.304 378.055 326.183C378.156 326.071 376.827 319.1 376.827 319.1L366.896 343.286L375.062 335.16V335.17Z" fill="#137171"/>
<path d="M356.822 351.341L364.299 345.14L369.27 311.44L364.522 291.206L354.58 351.666L356.822 351.341Z" fill="#137171"/>
<path d="M352.998 350.318L353.718 351.119L358.75 318.624L350.695 290.314L345.43 281.083L352.917 349.244L352.998 350.318Z" fill="#137171"/>
<path d="M351.405 342.982C351.415 342.719 343.513 328.564 343.513 328.564L340.54 321.269L330.183 288.247L328.854 301.814L334.616 328.23L351.588 348.748L351.405 342.972V342.982Z" fill="#137171"/>
<path d="M352.105 350.592L336.848 335.251L318.963 306.04L319.267 312.98L334.028 343.793L352.572 352.233L352.105 350.592Z" fill="#137171"/>
<path d="M349.386 352.355L332.912 344.198L311.862 313.325L323.051 345.404L345.491 352.476L349.386 352.355Z" fill="#137171"/>
<path d="M361.367 353.895L357.705 352.74L344.618 353.712L319.917 346.184L326.896 352.78L344.588 356.813L361.367 353.895Z" fill="#137171"/>
<path d="M360.018 355.182C360.018 355.182 352.825 356.965 352.612 357.026L352.643 357.066C352.572 357.087 352.521 357.097 352.501 357.097L353.13 357.907L357.928 357.735L357.989 357.664H358.04L360.018 355.192V355.182Z" fill="#137171"/>
<path d="M343.3 323.478L349.894 337.663L348.575 320.661L335.417 282.806L338.4 302.889L343.3 323.478Z" fill="#137171"/>
<path d="M184.914 334.056C185.806 337.896 184.985 343.904 185.482 348.596C184.812 350.49 186.476 351.24 187.714 351.879C185.543 351.767 183.372 352.071 181.201 351.96C183.595 350.673 182.966 347.157 183.007 344.877C182.388 341.888 183.96 338.321 182.225 335.677C179.202 334.745 183.646 333.964 184.914 334.066V334.056Z" fill="white"/>
<path d="M173.207 335.555C176.352 334.299 177.376 336.781 176.575 339.436C175.52 336.194 171.32 336.7 168.571 337.004C167.922 338.767 168.632 341.088 168.348 343.043C170.782 343.155 174.11 343.884 175.5 341.3C174.404 342.03 176.747 346.397 175.063 345.87C174.171 343.144 170.762 344.36 168.632 344.401C168.409 346.62 168.52 348.859 168.632 351.088C170.945 351.058 173.339 351.24 175.54 350.45C176.92 350.176 176.605 347.815 178.107 347.886C177.559 349.599 178.239 353.895 174.85 352.355C171.036 351.939 167.222 352.497 163.407 352.446C163.316 351.159 165.446 351.879 165.477 350.389C165.335 345.961 165.974 341.432 165.162 337.045C164.909 336.001 162.241 336.751 163.813 335.646C166.948 335.748 170.072 335.697 173.197 335.565L173.207 335.555Z" fill="white"/>
<path d="M252.466 327.642C254.698 327.51 257.69 330.165 255.854 332.435C254.333 335.049 250.295 333.701 249.565 331.127C249.514 329.476 251.025 328.189 252.466 327.652V327.642Z" fill="white"/>
<path d="M240.14 328.017C241.997 327.48 243.498 328.746 244.492 330.084C245.649 333.924 239.359 335.464 238.051 332.08C236.985 330.398 239.106 329.02 240.14 328.017Z" fill="white"/>
<path d="M214.799 328.169C218.502 328.047 222.367 328.26 225.847 329.668C226.354 332.404 226.719 335.221 227.084 337.997C224.061 339.406 224.609 335.262 222.6 334.086C217.569 330.216 209.301 330.743 204.919 335.434C199.248 342.83 201.185 356.144 210.316 359.863C213.775 360.917 217.549 360.897 220.927 359.549C220.856 355.891 222.55 348.211 216.605 348.829C215.418 349.032 215.865 347.826 215.895 347.106C220.825 347.37 225.806 347.299 230.716 346.782C231.436 349.477 227.652 347.846 227.226 350.085C226.648 353.925 226.851 357.847 227.145 361.707C218.512 364.321 207.333 366.084 200.07 359.306C191.335 351.413 193.699 334.998 204.756 330.297C207.881 328.858 211.33 328.128 214.779 328.189L214.799 328.169Z" fill="white"/>
<path d="M323.001 336.69C328.083 336.062 334.119 337.967 336.422 342.871C340.469 350.004 335.58 360.137 327.535 361.352C321.925 362.72 315.25 360.045 313.069 354.523C309.488 347.106 314.966 337.633 322.99 336.69H323.001ZM322.798 339.588C316.934 341.331 317.482 349.305 319.166 353.996C320.191 359.184 328.154 360.694 330.568 355.749C333.642 349.913 331.431 338.119 322.798 339.588Z" fill="white"/>
<path d="M256.595 338.879C256.808 338.879 257.244 338.858 257.457 338.858C257.893 345.292 257.345 351.787 257.985 358.221C258.715 360.005 262.154 358.434 261.038 360.947C258.177 361.535 255.398 362.467 252.537 363.075C251.989 362.447 253.744 358.779 251.594 359.761C248.337 362.558 243.397 364.696 239.39 362.193C234.246 357.066 237.98 349.173 236.093 342.901C235.768 341.604 234.257 341.989 233.191 341.827C233.293 340.834 232.847 339.081 235.007 339.912C237.33 339.811 239.461 338.504 241.794 338.646C242.311 345.221 240.424 352.426 243.549 358.546C246.46 360.217 249.97 358.971 252.425 357.097C252.233 352.73 252.75 348.322 252.08 343.985C253.004 340.338 247.201 343.225 248.57 340.034C251.238 339.638 253.906 339.253 256.585 338.879H256.595Z" fill="white"/>
<path d="M306.008 337.187C308.413 336.579 310.543 339.943 308.971 341.918C308.007 344.026 305.075 341.381 303.543 342.08C301.819 342.851 300.459 344.421 299.435 345.941C299.607 350.136 299.131 354.442 300.287 358.546C301.159 360.613 305.339 358.434 304.233 361.433C299.709 361.008 295.113 360.714 290.64 361.737C289.422 358.505 293.257 360.603 293.845 358.617C295.042 354.442 294.068 349.984 294.119 345.708C293.855 344.188 294.271 342.02 292.811 340.956C291.076 341.594 290.893 340.399 290.538 339.466C293.521 338.615 296.574 337.987 299.516 336.984C299.425 338.605 299.262 341.837 299.181 343.459C301.139 341.158 302.569 337.521 306.019 337.187H306.008Z" fill="white"/>
<path d="M274.682 337.632C281.418 336.102 287.18 342.354 286.917 348.808C281.56 348.96 276.042 348.474 270.797 349.578C270.178 353.206 272.481 357.259 276.092 358.292C279.521 359.792 283.173 357.988 286.257 356.519C286.531 357.046 286.825 357.573 287.059 358.13C282.494 362.376 275.129 364.514 269.59 360.805C261.281 354.807 264.355 339.436 274.692 337.632H274.682ZM274.916 340.135C272.136 341.118 270.675 344.107 270.503 346.903C274.195 347.137 277.898 346.691 281.57 346.296C280.972 343.104 278.791 339.152 274.916 340.135Z" fill="white"/>
<path d="M346.546 333.944C348.473 333.579 347.489 336.315 347.591 337.43C350.259 338.403 349.386 335.282 350.218 333.924C352.764 332.83 351.496 336.123 351.76 337.329C353.464 337.156 353.18 339.973 351.334 339.365C350.888 340.186 350.147 342.901 352.044 342.05C353.241 341.888 353.464 343.58 352.45 343.975C351.811 344.624 349.863 343.165 350.34 344.978C350.005 345.921 350.37 348.109 348.656 347.684C346.789 347.066 349.924 343.327 347.013 344.219C345.268 344.3 346.881 347.704 344.943 347.937C343.117 347.826 344.324 345.495 344.213 344.421C343.239 344.391 342.427 343.053 343.411 342.435C345.044 342.638 344.831 340.682 345.095 339.669C344.334 339.801 342.762 339.629 342.863 338.514C343.036 337.349 344.629 337.774 345.43 337.45C345.815 336.295 345.369 334.704 346.536 333.965L346.546 333.944ZM347.205 339.588C346.911 340.378 346.82 341.27 346.779 342.111C347.449 342.222 348.098 342.324 348.778 342.141C348.93 340.753 349.569 338.423 347.205 339.588Z" fill="white"/>
<path d="M359.003 333.803C360.048 333.235 360.931 334.117 360.87 335.089C360.799 338.849 361.337 342.628 361.053 346.377C360.992 347.806 358.78 347.664 358.719 346.347C358.435 343.52 358.527 340.632 358.263 337.795C357.096 338.241 355.595 340.419 354.377 339.031C353.667 337.886 355.311 337.329 356.061 336.883C357.34 336.194 358.415 335.14 359.003 333.813V333.803Z" fill="white"/>
<path d="M191.325 320.124C185.533 321.279 181.739 317.175 180.633 311.602C179.527 306.019 181.455 300.791 187.247 299.646C189.56 299.19 191.579 299.221 193.029 299.535L194.155 305.189L191.082 305.796L190.148 302.909C189.357 302.909 188.637 302.99 187.927 303.132C184.488 303.811 183.595 307.124 184.336 310.873C185.076 314.622 187.176 317.337 190.615 316.648C191.325 316.506 192.025 316.314 192.755 316.03L192.502 312.98L195.576 312.372L196.702 318.026C195.474 318.867 193.618 319.668 191.315 320.134L191.325 320.124Z" fill="#FFAF32"/>
<path d="M206.998 316.699C206.116 317.317 205 317.824 203.864 317.996C199.948 318.563 198.335 316.557 197.96 314.024C197.615 311.643 198.771 309.941 202.646 308.917L204.939 308.309C204.797 307.326 204.229 306.951 202.961 307.144C201.135 307.407 199.481 307.944 198.162 308.704L197.676 305.351C199.065 304.53 201.003 304.054 202.484 303.841C206.664 303.233 208.033 305.006 208.459 307.914L209.25 313.355L211.675 313.274L212.121 316.365L207.282 317.074L207.008 316.709L206.998 316.699ZM203.123 311.835C201.612 312.241 201.378 312.849 201.48 313.507C201.571 314.115 201.926 314.895 203.438 314.683C204.442 314.541 205.233 314.044 205.73 313.7L205.375 311.238L203.133 311.835H203.123Z" fill="#FFAF32"/>
<path d="M216.778 302.868C217.569 302.412 219.141 301.784 220.318 301.662C224.315 301.277 225.816 302.929 226.121 306.09L226.648 311.491L229.073 311.521L229.377 314.632L223.443 315.21L222.59 306.435C222.499 305.482 221.901 304.864 220.653 304.986C219.506 305.097 218.33 305.645 217.944 305.837L218.573 312.271L220.998 312.302L221.302 315.412L212.973 316.223L212.669 313.112L215.043 312.616L214.404 306.08L211.979 306.05L211.675 302.939L216.544 302.463L216.798 302.868H216.778Z" fill="#FFAF32"/>
<path d="M230.97 297.944L234.439 297.346L234.652 301.024L238.335 300.811L238.527 304.175L234.845 304.388L235.19 310.356C235.23 310.995 235.758 311.42 236.803 311.359C237.259 311.329 238.162 311.228 238.659 311.096L238.852 314.348C237.716 314.683 237.026 314.693 236.813 314.703C234.246 314.855 231.873 313.518 231.71 310.741L231.355 304.581L228.951 304.723L228.768 301.602L231.152 301.197L230.96 297.944H230.97Z" fill="#FFAF32"/>
<path d="M249.362 313.447C248.408 313.943 247.242 314.318 246.095 314.349C242.139 314.43 240.78 312.241 240.729 309.677C240.678 307.276 242.037 305.726 246.014 305.179L248.357 304.865C248.337 303.872 247.82 303.436 246.531 303.456C244.685 303.497 242.981 303.821 241.581 304.419L241.51 301.024C242.991 300.376 244.969 300.153 246.471 300.112C250.691 300.021 251.837 301.946 251.898 304.885L252.02 310.387L254.434 310.6L254.505 313.72L249.615 313.822L249.392 313.426L249.362 313.447ZM246.115 308.147C244.574 308.37 244.259 308.938 244.269 309.607C244.279 310.225 244.543 311.045 246.065 311.015C247.079 310.995 247.931 310.6 248.459 310.326L248.408 307.844L246.115 308.158V308.147Z" fill="#FFAF32"/>
<path d="M257.954 303.851L255.55 303.537L255.611 300.416L260.5 300.508L260.703 300.943C261.535 300.589 263.178 300.133 264.355 300.153C265.583 300.173 266.577 300.325 267.317 300.639L267.216 305.898L264.091 305.837L263.868 303.507C262.854 303.568 261.85 303.892 261.505 304.024L261.383 310.488L263.787 310.802L263.726 313.923L255.357 313.761L255.418 310.64L257.832 310.417L257.954 303.851Z" fill="#FFAF32"/>
<path d="M274.743 310.994L277.137 311.39L276.975 314.51L268.667 314.085L268.829 310.964L271.243 310.822L271.588 304.256L269.194 303.861L269.356 300.74L275.261 301.044L274.743 310.994ZM271.964 294.772L275.676 294.965L275.484 298.673L271.771 298.481L271.964 294.772Z" fill="#FFAF32"/>
<path d="M281.601 298.157L285.121 298.045L284.817 301.723L288.499 302.027L288.225 305.381L284.543 305.077L284.056 311.045C284.005 311.684 284.472 312.18 285.506 312.261C285.963 312.302 286.866 312.322 287.383 312.261L287.119 315.514C285.953 315.686 285.263 315.605 285.05 315.585C282.494 315.372 280.323 313.72 280.546 310.954L281.053 304.804L278.649 304.611L278.902 301.501L281.327 301.43L281.591 298.177L281.601 298.157Z" fill="#FFAF32"/>
<path d="M295.296 316.648C290.437 316.061 289.676 313.011 290.173 308.877C290.67 304.743 292.141 301.956 297 302.544C301.91 303.132 302.62 306.182 302.123 310.316C301.626 314.45 300.216 317.246 295.296 316.648ZM296.594 305.857C294.363 305.594 293.926 307.235 293.673 309.302C293.419 311.369 293.46 313.072 295.692 313.335C297.893 313.598 298.36 311.957 298.613 309.89C298.867 307.823 298.796 306.121 296.594 305.857Z" fill="#FFAF32"/>
<path d="M310.289 310.052C314.165 311.055 315.321 312.109 314.865 314.886C314.469 317.307 312.389 319.141 308.19 318.452C306.952 318.249 304.609 317.469 303.574 316.861L304.233 312.829L307.317 313.325L307.246 314.744C307.703 314.926 308.22 315.068 308.748 315.149C310.361 315.412 311.284 315.21 311.416 314.419C311.547 313.599 310.837 313.457 309.407 313.092C305.582 312.089 304.446 310.579 304.852 308.127C305.217 305.858 307.277 303.892 311.182 304.53C312.4 304.723 314.246 305.219 315.686 306.151L315.037 310.133L311.953 309.627L312.034 308.147C311.598 307.995 311.132 307.894 310.655 307.813C309.174 307.57 308.403 307.823 308.271 308.644C308.149 309.384 308.808 309.647 310.289 310.032V310.052Z" fill="#FFAF32"/>
<path d="M248.692 245.002C244.624 244.738 238.446 244.738 235.078 242.296C228.992 237.879 227.876 230.816 227.379 229.378C226.8 227.716 224.913 227.118 224.082 225.649C222.915 223.582 224.599 221.059 226.526 219.671C229.316 217.675 231.507 215.648 233.952 213.287C238.395 209.001 244.847 206.833 251.035 207.522" fill="#00CF70"/>
<path d="M248.814 207.279L241.195 214.483L238.091 227.797L240.353 239.713L248.692 245.002L258.481 239.5L261.86 229.489L261.342 214.149L254.809 207.948L248.814 207.279Z" fill="#EDDCB6"/>
<path d="M255.55 210.278L253.166 222.437L261.505 216.418L255.55 210.278Z" fill="#078C63"/>
<path d="M249.169 209.042L243.549 214.605L252.385 222.011L253.795 209.569L249.169 209.042Z" fill="#078C63"/>
<path d="M239.572 227.128L243.356 216.388L251.675 223.095L239.572 227.128Z" fill="#078C63"/>
<path d="M242.25 238.142L240.242 229.165L251.888 223.997L242.25 238.142Z" fill="#078C63"/>
<path d="M248.875 243.421L244.472 239.297L251.644 226.095L253.917 240.513L248.875 243.421Z" fill="#078C63"/>
<path d="M268.078 213.105C271.761 214.594 274.885 217.29 276.874 220.724C278.202 223.024 278.771 225.74 279.004 228.354C279.227 230.837 280.384 232.883 280.749 235.305C281.002 236.987 280.455 238.78 279.298 240.027C277.847 241.597 275.616 241.78 273.871 242.925C271.609 244.414 269.285 246.228 266.597 246.846C264.467 247.332 262.458 247.727 260.257 247.596C259.253 247.535 255.144 247.312 254.606 246.329L248.408 238.78L251.756 223.521L259.212 214.655L268.068 213.095L268.078 213.105Z" fill="#00CF70"/>
<path d="M268.545 226.216C269.733 226.216 270.696 225.254 270.696 224.068C270.696 222.882 269.733 221.92 268.545 221.92C267.357 221.92 266.394 222.882 266.394 224.068C266.394 225.254 267.357 226.216 268.545 226.216Z" fill="#078C63"/>
<path d="M269.661 232.904C270.849 232.904 271.811 231.942 271.811 230.756C271.811 229.569 270.849 228.607 269.661 228.607C268.473 228.607 267.51 229.569 267.51 230.756C267.51 231.942 268.473 232.904 269.661 232.904Z" fill="#078C63"/>
<path d="M260.795 229.986C261.982 229.986 262.945 229.024 262.945 227.838C262.945 226.651 261.982 225.689 260.795 225.689C259.607 225.689 258.644 226.651 258.644 227.838C258.644 229.024 259.607 229.986 260.795 229.986Z" fill="#078C63"/>
<path d="M151.893 184.572H202.697L203.853 188.848L199.725 192.506L203.549 208.971L200.272 238.365L191.782 248.984L163.489 248.862L153.79 237.909L150.453 205.992L156.337 192.506L151.721 189.01L151.893 184.572Z" fill="#C02E19"/>
<path d="M153.79 237.909L171.533 240.625L189.702 237.909L203.549 208.971L200.272 238.365L191.782 248.984L163.489 248.862L153.79 237.909Z" fill="#901F18"/>
<path d="M203.853 188.848H168.388L199.725 192.506L203.853 188.848Z" fill="#901F18"/>
<path d="M160.364 204.999C159.441 205.333 158.437 205.495 157.483 205.485C154.612 205.445 151.772 204.431 148.931 204.766C142.266 205.556 138.493 213.024 132.294 215.577C125.954 218.181 118.863 215.121 112.563 212.416C106.264 209.71 98.6044 207.431 92.9134 211.24C90.286 213.003 88.5715 215.8 86.6441 218.313C84.7166 220.826 82.2515 223.257 79.127 223.703C78.8734 223.744 78.6097 223.754 78.3459 223.754L78.1024 219.134L80.4965 218.9L79.6038 209.417L77.5445 208.576L76.8344 195.15L76.2358 183.944L73.8113 182.596L73.2939 179.496L153.435 170.366L155.606 173.315L155.18 182.17L160.364 204.979V204.999Z" fill="#FF6E5F"/>
<path d="M78.0923 219.154L77.5343 208.606L79.5936 209.447L80.4863 218.921L78.0923 219.154Z" fill="#E64927"/>
<path d="M165.964 229.651L161.896 253.33L147.186 261.122L94.8002 263.756L83.2355 254.779L76.8344 237.118L78.3357 223.794V223.774C78.5995 223.774 78.8632 223.764 79.1169 223.723C82.2515 223.267 84.7166 220.846 86.6339 218.333C88.5614 215.82 90.2657 213.023 92.9032 211.26C98.5943 207.441 106.253 209.72 112.553 212.436C118.853 215.151 125.944 218.201 132.284 215.597C138.482 213.044 142.266 205.566 148.921 204.786C151.772 204.451 154.602 205.465 157.473 205.505C158.426 205.515 159.431 205.353 160.354 205.019L165.954 229.671L165.964 229.651Z" fill="#E64927"/>
<path d="M80.4863 218.921L78.0922 219.154L77.1589 219.245L76.7227 213.936L67.3898 208.778L61.5872 194.775L67.1768 186.791L71.9345 185.22L73.8011 182.626L76.2257 183.974L76.8242 195.181L74.2779 189.719L71.0824 188.513L66.1319 195.464L72.6041 206.61L77.5343 208.606L79.5936 209.447L80.4863 218.921Z" fill="#FF6E5F"/>
<path d="M76.8445 237.119L104.914 246.066L134.841 243.249L154.561 235.589L162.535 214.554L165.964 229.651L161.906 253.33L147.197 261.122L94.8104 263.757L83.2457 254.779L76.8445 237.119Z" fill="#C02E19"/>
<path d="M155.616 173.568L98.8275 182.241L155.19 182.424L155.616 173.568Z" fill="#E64927"/>
<path d="M169.443 164.115L171.259 189.142L184.863 207.826L183.443 252.135" stroke="#EDDCB6" stroke-width="0.94" stroke-miterlimit="10"/>
<path d="M183.301 252.135H183.443L186.425 256.745L185.533 261.163L146.639 261.669L145.513 257.292L149.459 254.242L147.866 204.938L162.91 189.466L162.322 164.368" stroke="#EDDCB6" stroke-width="0.94" stroke-miterlimit="10"/>
<path d="M160.202 161.004L160.993 172.403L172.608 172.758L171.888 161.166L160.202 161.004Z" fill="#137171"/>
<path d="M150.25 205.586L152.015 252.256C152.015 252.256 159.005 260.95 179.994 252.145L181.11 207.39" fill="#EB7C00"/>
<path d="M165.599 216.773L165.254 230.887L158.173 221.312L161.368 233.613L154.825 231.587L161.196 239.672L169.717 239.176L179.111 232.732L171.127 233.664L176.058 220.978L168.723 227.696L165.599 216.773Z" fill="#EDDCB6"/>
<path d="M150.25 205.586C150.25 205.586 161.105 198.95 174.455 197.643L181.11 207.39C181.11 207.39 163.762 215.232 150.25 205.586Z" fill="#FFAF32"/>
<path d="M259.841 140.911L272.745 137.335H290.782H304.953L324.218 144.296L312.329 126.827L311.7 111.771L304.538 106.005L294.231 110.676L286.217 104.901L276.813 109.025L274.845 118.448L264.609 127.78" fill="#14222F"/>
<path d="M268.839 123.018L276.082 121.153L290.224 120.089L303.31 123.018L310.36 124.821L305.978 129.685L298.816 126.523L288.54 124.882L276.813 126.827H274.033L268.839 123.018Z" fill="#E64927"/>
<path d="M278.963 206.549L272.268 213.916L288.357 225.375L291.695 215.962L278.963 206.549Z" fill="#137171"/>
<path d="M291.695 215.962L296.483 224.605L311.831 214.848L305.877 207.988L291.695 215.962Z" fill="#137171"/>
<path d="M129.079 93.7655C129.079 93.7655 129.079 93.806 129.079 93.8567C128.703 95.8325 122.312 127.365 90.2251 126.817C57.1135 126.26 71.7317 91.5161 71.7317 91.5161L129.089 93.7655H129.079Z" fill="#E64927"/>
<path d="M180.653 29.5767L129.078 93.7655L71.7216 91.5161L160.415 33.6904L180.653 29.5767Z" fill="#FD710C"/>
<path d="M317.441 89.0537C317.441 97.4332 314.611 117.12 287.941 118.387C254.525 119.978 249.423 91.3031 249.27 90.4115V90.3912L317.441 89.0537Z" fill="#DBCCAF"/>
<path d="M317.441 89.0539L249.27 90.3914L249.057 32.2617L290.792 29.5767L317.441 89.0539Z" fill="#EDDCB6"/>
<path d="M249.27 90.3911V90.4114C249.27 91.2625 249.057 122.035 217.782 122.997C189.753 123.848 183.991 100.27 183.027 94.7987L249.27 90.3911Z" fill="#E64927"/>
<path d="M249.27 90.3915L183.027 94.7991C183.027 94.7991 183.017 94.7383 183.017 94.718C182.895 94.0493 182.854 93.6643 182.854 93.6643L197.432 30.2354L249.057 32.2618L249.27 90.3915Z" fill="#FD710C"/>
<path d="M412.485 116.644C386.84 117.029 379.16 91.1208 378.329 88.0304C378.318 87.9798 378.308 87.9392 378.298 87.8987C378.288 87.8683 378.278 87.8379 378.278 87.8177L435.807 85.1934C435.807 85.1934 439.743 116.239 412.485 116.644Z" fill="#DBCCAF"/>
<path d="M435.807 85.1936L378.278 87.8179L342.508 34.3086L370.984 35.1091L435.807 85.1936Z" fill="#EDDCB6"/>
<path d="M349.975 114.203C323.457 115.459 318.385 97.1397 317.441 89.054L378.278 87.8179C378.278 87.8179 378.288 87.8685 378.298 87.8989C378.308 87.9395 378.318 87.98 378.329 88.0307C378.836 90.8272 381.717 112.693 349.975 114.203Z" fill="#E64927"/>
<path d="M378.278 87.8178L317.441 89.0539L290.792 29.5767L342.508 34.3085L378.278 87.8178Z" fill="#FD710C"/>
<path d="M157.25 126.503C126.522 127.445 128.896 95.7916 129.068 93.8563C129.068 93.8057 129.068 93.7651 129.068 93.7651L183.017 94.7986C183.737 100.463 185.37 125.652 157.24 126.503H157.25Z" fill="#DBCCAF"/>
<path d="M183.017 94.718C183.017 94.718 183.017 94.7686 183.027 94.799L129.078 93.7655L180.653 29.5767L197.432 30.2353L182.854 93.6642C182.854 93.6642 182.895 94.0492 183.017 94.718Z" fill="#EDDCB6"/>
<path d="M256.473 65.6377L256.138 58.4538L251.786 55.6674L248.702 59.1428L249.22 50.581L257.7 49.588L257.366 42.4041L253.014 39.6177L249.666 43.1134L250.498 29.4549L246.146 26.6685L242.108 43.8024L233.536 44.5927L234.267 32.5351L229.915 29.7487L225.999 45.2817L212.527 51.5435L216.879 54.3299L225.35 53.337L224.711 61.3314L211.3 67.5933L215.652 70.3797L224.071 69.3968L218.451 82.4677L222.803 85.2541L231.213 83.0553L232.096 68.4647L240.211 67.5224L234.683 79.3874L239.035 82.1738L247.444 79.9751L248.256 66.5902L256.483 65.6276L256.473 65.6377ZM232.562 60.6222L233.06 52.4555L241.49 51.4726L240.82 59.8622L232.562 60.6222Z" fill="#14222F"/>
<path d="M252.121 62.8513L251.786 55.6674L244.35 56.3564L244.868 47.7945L253.348 46.8016L253.014 39.6177L245.324 40.327L246.156 26.6685L238.72 29.1813L237.766 41.016L229.194 41.8063L229.925 29.7487L222.489 32.2616L221.667 42.4953L212.689 43.3261L212.547 51.5537L221.018 50.5607L220.379 58.5552L211.462 59.3759L211.32 67.6034L219.74 66.6206L218.461 82.4778L226.871 80.2791L227.754 65.6884L235.869 64.7461L234.693 79.3975L243.102 77.1988L243.914 63.8139L252.141 62.8513H252.121ZM228.22 57.8358L228.718 49.669L237.148 48.6862L236.478 57.0758L228.22 57.8358Z" fill="#137171"/>
<path d="M222.661 63.5807L214.049 64.5839L214.099 61.8278L222.874 61.0173L223.96 47.5107L215.286 48.524L215.337 45.768L224.163 44.9574L225.025 34.2373L227.003 33.5685L226.324 44.7649L240.262 43.478L241.256 31.157L243.234 30.4883L242.463 43.2855L250.478 42.5459L250.569 44.4305L242.342 45.3931L241.5 59.3251L249.25 58.6057L249.341 60.4904L241.378 61.4225L240.546 75.1114L237.675 75.8612L238.811 61.7164L225.218 63.3072L224.315 78.2018L221.454 78.9516L222.692 63.601L222.661 63.5807ZM226.171 47.2676L225.35 60.8045L238.974 59.548L240.09 45.6464L226.171 47.2676Z" fill="#FFAF32"/>
<path d="M384.314 188.848L368.194 181.34L386.475 183.741L396.092 165.473L394.012 184.38L411.085 193.803L393.008 190.479L381.869 211.494L384.314 188.848Z" fill="#EDDCB6"/>
<path d="M103.839 211.849L87.7194 204.341L106.01 206.742L115.617 188.483L113.547 207.38L130.61 216.814L112.533 213.49L101.404 234.495L103.839 211.849Z" fill="#EDDCB6"/>
<path d="M428.99 279.513H326.957L415.924 299.443L415.143 285.339L428.99 279.513Z" fill="#C02E19"/>
<path d="M106.659 282.694H218.37L107.237 296.262L79.7864 291.418L106.659 282.694Z" fill="#C02E19"/>
<path d="M256.828 30.3871L285.04 0.810547L290.538 5.85649L286.359 75.1115L299.617 71.0586L305.116 76.1045L305.978 91.749L253.653 88.6485L248.154 83.5924L270.533 73.46L273.972 26.2226L262.336 35.433L256.828 30.3871Z" fill="#14222F"/>
<path d="M246.673 17.5899L271.659 0L285.04 0.810593L280.85 70.0555L299.617 71.0586L300.47 86.6929L248.154 83.5924L249.27 69.3868L265.025 68.4039L268.474 21.1666L256.828 30.3871L246.673 17.5899Z" fill="#187B7B"/>
<path d="M253.724 73.9159L269.509 72.9331L274.053 10.6289L257.609 23.649L253.592 18.5828L273.049 4.88379L279.957 5.29922L275.768 74.5948L295.063 75.6182L295.387 81.5963L253.318 79.0936L253.724 73.9159Z" fill="#FFAF32"/>
</g>
<defs>
<clipPath id="clip0_519_390">
<rect width="436" height="453" fill="white"/>
</clipPath>
</defs>
</svg>
