<svg width="224" height="210" viewBox="0 0 224 210" fill="none" xmlns="http://www.w3.org/2000/svg">
<g clip-path="url(#clip0_1092_1441)">
<path d="M122.782 141.924L119.122 201.83L130.077 210L149.281 205.467L137.398 138.287" fill="#AF4F08"/>
<path d="M111.774 127.929L83.1543 175.975L93.8437 187.229L103.95 184.172L116.124 172.918L124.48 130.986" fill="#AF4F08"/>
<path d="M50.7944 122.184L54.3487 145.245L75.9132 156.077L105.488 157.737L131.986 153.573L166.495 155.233L186.839 153.573L194.213 137.733L193.735 108.215" fill="#AF4F08"/>
<path d="M126.23 80.1206L88.1145 87.1575L52.3594 102.365L50.7944 123.423L81.669 140.764L112.729 136.284L163.153 138.34L188.961 130.433L193.735 108.215L178.643 89.5031L126.23 80.1206Z" fill="#D37B11"/>
<path d="M15.3578 167.093L4.64185 195.162L12.1748 197.138L16.3127 193.976L20.3444 167.752" fill="#D37B11"/>
<path d="M32.519 171.969L33.023 197.033L40.2907 197.982L44.6408 193.185L37.8505 170.045" fill="#D37B11"/>
<path d="M45.7549 169.834L49.7336 184.778L55.065 188.626L59.415 184.778L60.3964 178.031L51.0863 165.986" fill="#D37B11"/>
<path d="M176.999 178.215L166.283 206.284L173.816 208.26L177.954 205.124L181.985 178.901" fill="#D37B11"/>
<path d="M195.433 182.274L195.937 207.312L203.205 208.287L207.555 203.464L200.765 180.35" fill="#D37B11"/>
<path d="M208.669 174.209L212.648 189.153L217.979 193.001L222.329 189.153L223.311 182.406L214.027 170.361" fill="#D37B11"/>
<path d="M0.106098 144.559L0 159.318L4.80095 167.989L27.9569 176.239L44.5348 172.312L56.7891 164.959L62.4654 156.261L64.72 138.84" fill="#AF4F08"/>
<path d="M48.9114 130.275L18.0633 130.987L0.106201 144.56L5.86203 159.529L30.6095 162.244L47.4791 159.529L58.9642 154.522L64.72 138.84L48.9114 130.275Z" fill="#D37B11"/>
<path d="M159.413 154.68L159.28 169.439L164.081 178.11L187.237 186.359L203.842 182.459L216.069 175.079L221.746 166.408L224 148.987" fill="#AF4F08"/>
<path d="M208.218 140.422L177.343 141.133L159.413 154.68L165.142 169.65L189.889 172.391L206.759 169.65L218.244 164.669L224 148.987L208.218 140.422Z" fill="#D37B11"/>
<path d="M188.961 130.433L192.94 136.02L190.659 121.314L188.961 130.433Z" fill="#D37B11"/>
<path d="M81.6691 140.764L80.6877 149.014L77.8496 138.103" fill="#D37B11"/>
<path d="M163.153 138.34L163.71 147.063L154.797 136.152L163.153 138.34Z" fill="#D37B11"/>
<path d="M30.6093 162.244L29.1239 171.548L24.5352 160.162L30.6093 162.244Z" fill="#D37B11"/>
<path d="M189.89 172.391L191.269 181.773L196.998 169.65L189.89 172.391Z" fill="#D37B11"/>
<path d="M130.077 210L126.363 171.205L123.658 204.94L130.077 210Z" fill="#D37B11"/>
<path d="M93.8438 187.229L105.568 160.425L103.95 184.172L93.8438 187.229Z" fill="#D37B11"/>
<path d="M173.656 5.45557L180.42 15.5233L179.386 27.4096L171.747 37.9255L153.153 41.5625L142.994 30.8622L141.296 17.7108L144.108 6.58886L158.299 0.737952L161.508 0L173.656 5.45557Z" fill="#C02E19"/>
<path d="M170.447 6.19336L177.211 16.2611L176.176 28.1474L168.537 38.6632L153.153 41.5623L139.784 31.6263L138.087 18.4486L144.108 6.5887L158.299 0.737793L170.447 6.19336Z" fill="#EDDCB6"/>
<path d="M152.941 38.6106L156.654 23.8779L141.774 30.5459L152.941 38.6106Z" fill="#FF6E5F"/>
<path d="M156.469 21.9014L141.827 27.3042L140.05 19.2658L143.922 9.85693L156.469 21.9014Z" fill="#FF6E5F"/>
<path d="M158.192 3.84766L146.097 8.64434L156.972 19.9245L158.192 3.84766Z" fill="#FF6E5F"/>
<path d="M160.66 5.08643L167.768 7.74832L173.391 15.3387L158.458 21.295L160.66 5.08643Z" fill="#FF6E5F"/>
<path d="M173.869 16.6567L174.32 25.723L169.943 32.4963L159.201 22.5867L173.869 16.6567Z" fill="#FF6E5F"/>
<path d="M167.688 34.2619L165.805 37.2928L155.752 38.347L158.113 23.6934L167.688 34.2619Z" fill="#FF6E5F"/>
<path d="M105.037 26.8823H183.019L186.865 29.3597L185.274 32.048L184.611 69.5517L186.865 83.2302L183.682 101.653L170.818 109.849H119.281L107.53 99.6233L103.472 80.542L105.515 63.3846L106.178 31.1519L103.472 29.3597L105.037 26.8823Z" fill="#E64927"/>
<path d="M105.462 67.8122L102.942 66.2046L104.189 61.5133L94.6662 49.4952L92.5708 40.2972L98.0083 32.6014L106.178 31.1519L106.045 38.9004L102.226 35.7904L96.3903 40.6925L99.3611 51.2083L106.947 57.2964L109.387 63.4109" fill="#E64927"/>
<path d="M184.611 69.5518L178.325 85.7867L157.476 92.9817L124.4 95.6963H113.074L103.472 80.542L107.53 99.6233L119.281 109.849H170.818L183.682 101.653L186.865 83.2302L184.611 69.5518Z" fill="#C02E19"/>
<path d="M185.274 32.0479L130.846 34.3671L176.521 38.1096L185.274 46.3325V32.0479Z" fill="#C02E19"/>
<path d="M58.1152 72.5299L93.5521 65.1768L94.9844 67.9704L92.6502 71.1067L97.7164 81.9915L99.7058 102.865L95.3292 111.457L75.5684 115.463L67.2132 109.269L60.2372 87.6052L62.3592 77.3793L58.6457 75.6399L58.1152 72.5299Z" fill="#E64927"/>
<path d="M67.2131 109.27L79.998 108.584L92.2789 104.078L97.7164 81.9917L99.7057 102.865L95.3292 111.457L75.5684 115.463L67.2131 109.27Z" fill="#C02E19"/>
<path d="M94.9843 67.9702L70.2634 73.1095L92.6502 71.1065L94.9843 67.9702Z" fill="#C02E19"/>
<path d="M82.8628 108.9L75.7012 117.993L81.4305 123.607L87.0537 127.586L99.308 129.405L119.387 123.633" fill="#078C63"/>
<path d="M113.233 96.7243C102.942 100.388 92.8095 104.446 82.8628 108.874L87.9025 118.494L105.674 126.058L119.387 123.633L126.894 107.082C126.841 105.237 122.517 95.0376 122.517 95.0376L113.233 96.7507V96.7243Z" fill="#EDDCB6"/>
<path d="M97.4246 102.733L87.5044 109.322L91.1913 116.122L97.7694 118.362L101.005 115.331L97.4511 102.733H97.4246Z" fill="#00CF70"/>
<path d="M102.544 100.572C102.544 100.572 102.173 119.258 102.252 119.443L106.602 121.788C106.602 121.788 113.234 121.578 114.188 121.815L118.141 114.962L102.571 100.599L102.544 100.572Z" fill="#00CF70"/>
<path d="M105.568 99.4124L117.106 110.376C117.822 110.982 122.066 109.823 122.066 109.823C122.915 107.793 123.737 102.681 123.737 102.681L118.751 94.6685L105.568 99.4388V99.4124Z" fill="#00CF70"/>
<path d="M64.9057 12.1763L61.7758 28.3849L39.2034 26.5137L59.2559 35.211V50.787L66.1523 35.8435H81.8284L66.7889 26.5137L64.9057 9.06641" fill="#EDDCB6"/>
</g>
<defs>
<clipPath id="clip0_1092_1441">
<rect width="224" height="210" fill="white"/>
</clipPath>
</defs>
</svg>
