<svg width="159" height="143" viewBox="0 0 159 143" fill="none" xmlns="http://www.w3.org/2000/svg">
<g clip-path="url(#clip0_1092_1411)">
<path d="M17.6558 60.2582L76.561 70.6231L83.2621 48.1789L31.9206 34.4839L17.6558 60.2582Z" fill="#00A09D"/>
<path d="M25.4202 46.4058L29.2121 55.0957L75.4977 60.8102L76.561 70.6233L17.6558 60.2585L25.4202 46.4058Z" fill="#137171"/>
<path d="M117.851 119.787L39.4039 143L62.3561 112.95L0 113.718L63.5599 80.0618L35.5919 58.2285L89.1202 65.2041L117.851 119.787Z" fill="#EDDCB6"/>
<path d="M76.3399 14.0693L157.977 23.9022L159 30.8778L151.637 35.8632L154.526 62.6227L143.471 108.437L127.742 123.551L82.2987 117.896L68.8765 98.7225L69.7994 47.6469L81.9175 27.4688L75.1963 21.0647L76.3399 14.0693Z" fill="#E64927"/>
<path d="M68.8765 98.7223L96.8645 106.447L126.598 105.659L154.526 62.6226L143.471 108.437L127.742 123.551L82.2987 117.895L68.8765 98.7223Z" fill="#C02E19"/>
<path d="M159 30.8779L102 24.0205L151.637 35.8633L159 30.8779Z" fill="#C02E19"/>
<path d="M124.451 86.466L111.189 86.0128L123.97 89.1459L134.523 85.6384L134.743 88.2592L126.457 93.5795L112.875 94.683L121.602 97.4417L127.461 96.9688L127.621 99.0378L120.057 101.501L104.007 98.6437L86.0704 92.9293L77.2226 93.2051H76.8614L75.8783 81.52V81.5003L75.0156 71.1748L86.3312 70.2684L99.4324 57.933L107.357 57.2827L107.658 60.8296L103.084 65.4209L99.9741 70.4851L117.309 69.0664L127.962 66.8003L129.688 70.3669L118.833 75.8843L109.805 77.7957L124.471 78.446L135.365 77.5593L135.666 81.0274L124.451 86.466Z" fill="#FFAF32"/>
<path d="M127.461 96.969L127.621 99.038L120.057 101.501L104.007 98.6439L86.0705 92.9295L77.2226 93.2053L75.8784 81.5202V81.5005L86.8329 82.801L97.2255 90.8604L112.875 94.6832L121.602 97.4419L127.461 96.969Z" fill="#D37B11"/>
<path d="M98.1084 78.5249L101.339 80.8501L105.171 78.584L101.098 79.1161L98.1084 78.5249Z" fill="#D37B11"/>
<path d="M99.252 86.7812L102.502 89.1262L106.334 86.8404L102.261 87.3921L99.252 86.7812Z" fill="#D37B11"/>
<path d="M107.518 59.1743L101.68 61.8542L94.5571 70.4653L99.9742 70.485L103.084 65.4208L107.658 60.8295L107.518 59.1743Z" fill="#D37B11"/>
<path d="M59.3267 99.6881L78.6474 98.1117L75.8787 65.3618L59.9286 66.6624L59.3267 99.6881Z" fill="#00A09D"/>
<path d="M4.31348 100.2L63.941 95.3331L64.5629 71.9432L11.3356 71.687L4.31348 100.2Z" fill="#00A09D"/>
<path d="M60.4903 79.2344L55.8758 86.0523L8.60712 82.8601L5.59766 95.294L60.4903 90.151V79.2344Z" fill="#137171"/>
<path d="M4.5945 5.7933L1.32422 17.3602L38.6215 14.1483L32.723 20.5721H39.2635L48.4324 10.2861L39.2635 0L39.9256 9.00524L4.5945 5.7933Z" fill="#D37B11"/>
</g>
<defs>
<clipPath id="clip0_1092_1411">
<rect width="159" height="143" fill="white"/>
</clipPath>
</defs>
</svg>
