<svg width="40" height="39" viewBox="0 0 40 39" fill="none" xmlns="http://www.w3.org/2000/svg">
<path d="M19.606 0C8.82268 0 0 8.5706 0 19.1264C0 28.6705 7.17578 36.5921 16.5474 38.0237V24.662H11.5675V19.1264H16.5474V14.9079C16.5474 10.1167 19.4687 7.48257 23.9585 7.48257C26.0955 7.48257 28.3306 7.84525 28.3306 7.84525V12.56H25.8603C23.4291 12.56 22.6645 14.0298 22.6645 15.5378V19.1264H28.1149L27.2327 24.662H22.6645V38.0237C27.2844 37.3133 31.4915 35.0183 34.5259 31.5528C37.5603 28.0875 39.2225 23.6801 39.2119 19.1264C39.2119 8.5706 30.3892 0 19.606 0Z" fill="#E64927"/>
</svg>
