<svg width="375" height="512" viewBox="0 0 375 512" fill="none" xmlns="http://www.w3.org/2000/svg">
<path d="M-196.286 122.837L-93.7114 56.7231L-24.8389 91.1025L5.43675 77.8797L66.4344 107.841L85.1353 100.794L113.669 128.126" fill="#137171"/>
<path d="M262.615 72.1245L311.202 78.3152L278.163 27.783L323.627 58.3758L316.543 4.31245L342.054 54.1084L362.655 0L357.76 59.9686L411.833 11.5249L377.412 74.0479L428.893 67.7069L385.186 92.3495L433.356 109.554L331.66 133.325L262.615 72.1245Z" fill="#FFAF32"/>
<path d="M147.126 123.829L209.621 79.7578L241.711 106.203L273.815 89.4646L313.506 122.957" fill="#137171"/>
<path d="M500.587 123.258V512H-252.561L-252.561 123.708L-251.986 123.258L-198.82 81.2902L-159.964 56.2119L-112.671 96.0457L-75.5143 79.1265L-42.5753 99.7421L1.34821 110.065L17.2419 123.258H267.984L315.507 90.0353L338.628 108.562L403.411 70.8322L500.587 123.258Z" fill="#00A19E"/>
<path d="M317.681 84.7163H235.65L241.869 78.8712C245.799 75.1748 251.745 75.0546 255.819 78.5707L268.402 68.7287C273.714 64.5665 281.344 66.4447 284.324 72.6354L287.463 79.1416L296.792 75.1447C300.275 73.6572 304.249 74.1831 307.258 76.5422L317.666 84.7012L317.681 84.7163Z" fill="white"/>
<path d="M1.34815 110.065L-47.0814 115.084L-32.2243 107.105H-55.1866L-42.5753 99.7421L-75.5143 79.1265L1.34815 110.065Z" fill="#137171"/>
<path d="M53.1897 83.9645H-76.4789L-68.7768 72.2593C-65.2785 66.9251 -58.5697 65.0619 -52.9983 67.8567L-45.9441 71.3878C-45.9441 71.3878 -41.6827 48.9541 -22.3627 48.5784C0.930664 48.1276 0.757919 67.1956 0.757919 67.1956L5.73907 62.1168C8.17207 59.6375 11.4833 58.3002 14.8808 58.4054C19.4589 58.5406 23.605 61.2754 25.6925 65.5427L29.7235 73.7619L31.4799 72.7402C36.9505 69.5546 43.832 71.0723 47.6182 76.2863L53.1897 83.9645Z" fill="white"/>
<path d="M315.507 90.0503L320.056 101.515L313.981 107.856L338.627 108.562L315.507 90.0503Z" fill="#137171"/>
<path d="M209.621 79.7578L165.77 111.012L199.501 96.7672L217.323 97.9542L205.576 90.4413L213.148 88.8635L209.621 79.7578Z" fill="#00A19E"/>
<path d="M66.4345 107.842L83.3215 113.086L77.7789 107.316H84.43L85.1355 100.794L66.4345 107.842Z" fill="#00A19E"/>
</svg>
