<svg width="523" height="365" viewBox="0 0 523 365" fill="none" xmlns="http://www.w3.org/2000/svg">
<path d="M77.151 201.45L158.94 201.45L139.922 237L223.239 201.45L500.679 196.32L523 169.007L513.842 2.24081e-05L106.34 2.75155e-05L72 43.7607L77.151 201.45Z" fill="#E9DCB7"/>
<path d="M49.6276 364.843L0 226.455L109.746 196.685L159.373 336.281L49.6276 364.843Z" fill="#00A19E"/>
<path d="M50.2546 351.667L0.626953 212.762L110.373 182.882L160 322.997L50.2546 351.667Z" fill="#FFAF32"/>
<path d="M33.2559 216.764V202.633L48.8755 189.309L41.6664 185.675V177.196L52.8805 170.332L64.4951 177.196V189.309H78.9132L89.7267 202.633L33.2559 216.764Z" fill="#14222F"/>
<path d="M31.399 257.549L26.9805 242.992L108.121 221.156L112.942 235.309L31.399 257.549Z" fill="#E64927"/>
<path d="M37.6744 280.137L33.2559 265.58L114.397 243.745L119.217 257.897L37.6744 280.137Z" fill="#E64927"/>
<path d="M47.1149 303.353L42.667 288.943L74.6114 280.137L79.0593 294.146L47.1149 303.353Z" fill="#E64927"/>
<path d="M124.541 296.873C124.541 296.873 125.225 277.956 124.664 269.848C124.718 271.382 120.712 280.981 115.496 294.019L93.2044 288.603L113.507 302.725C113.507 302.725 116.156 333.622 116.343 338.031L122.726 304.243C122.726 304.243 140.511 306.672 146.508 308.348C140.359 305.704 130.477 299.748 124.535 296.896L124.541 296.873Z" fill="#EDDCB6"/>
</svg>
