<svg width="168" height="141" viewBox="0 0 168 141" fill="none" xmlns="http://www.w3.org/2000/svg">
<path d="M54.118 80.9312L80.0619 39.5776C80.0619 39.5776 113.974 32.098 109.615 45.201C106.526 54.4789 116.17 53.3992 116.17 53.3992C121.251 49.7122 123.34 47.4252 130.52 50.5282C137.7 53.6313 138.431 64.4997 138.431 64.4997L124.333 104.756" fill="#FFAF32"/>
<path d="M115.567 96.5304C115.567 96.5304 94.5061 68.211 81.5616 54.002L35.9689 49.1947C35.9689 49.1947 12.2497 56.5173 10.8083 85.4845C9.35385 114.436 41.2359 116.61 41.2359 116.61L90.5515 127.132L144.71 139.836C144.71 139.836 164.18 129.148 151.455 106.326C138.729 83.504 100.287 69.8468 78.4525 91.4147" fill="#FFAF32"/>
<path d="M39.0442 110L25.3772 102.504L15.7439 86.6497L30.7284 66.6323L68.8095 60.9119L52.7484 87.3845C52.7484 87.3845 50.9218 97.3381 72.5931 99.2859C72.5931 99.2859 63.5828 113.541 39.0312 109.984L39.0442 110Z" fill="#FD710C"/>
<path d="M60.058 75.3557C60.058 75.3557 58.3541 85.9527 78.4381 91.4134L72.6062 99.3025C72.6062 99.3025 51.211 98.0729 52.7615 87.4011L60.0564 75.3702L60.058 75.3557Z" fill="#EDDCB6"/>
<path d="M81.0004 125.098C81.0004 125.098 107.57 124.117 115.952 114.429C124.334 104.741 126.579 98.3362 126.579 98.3362L153.875 111.463C153.875 111.463 162.121 131.569 144.712 139.821L81.002 125.084L81.0004 125.098Z" fill="#FD710C"/>
<path d="M109.616 45.2002C109.616 45.2002 90.0785 41.9232 89.488 44.6028C88.8976 47.2824 92.8663 56.9234 100.535 57.4827C108.203 58.042 116.17 53.3984 116.17 53.3984C116.17 53.3984 106.496 54.3431 109.616 45.2002Z" fill="#FD710C"/>
<path d="M97.321 81.4252C97.321 81.4252 71.3635 77.8525 61.5666 81.0715C61.5666 81.0715 63.1323 88.3331 78.438 91.4132C78.438 91.4132 92.3204 80.1795 97.321 81.4252Z" fill="#FD710C"/>
<path d="M59.1419 35.2311L47.4169 3.61472L37.9909 3.17799L52.8022 31.249L59.1419 35.2311Z" fill="#14222F"/>
<path d="M49.6837 40.8021L26.5985 4.98216L11.6953 13.6596L49.6837 40.8021Z" fill="#14222F"/>
</svg>
