<svg width="950" height="208" viewBox="0 0 950 208" fill="none" xmlns="http://www.w3.org/2000/svg">
<path d="M119.264 19.2312C118.439 18.2125 118.039 17.1193 118.039 15.9267C118.039 15.5788 118.064 15.3304 118.114 15.1813C118.114 14.6347 118.364 13.9886 118.864 13.2433C119.364 12.4979 120.014 11.827 120.815 11.2555C121.615 10.6841 122.465 10.3611 123.365 10.3114C124.615 10.2368 125.69 10.7338 126.615 11.7773C127.54 12.8457 128.015 14.1129 127.99 15.6037C127.99 16.0509 127.965 16.3988 127.915 16.6472C127.465 19.107 125.79 20.4239 122.89 20.5978C121.29 20.6972 120.089 20.25 119.264 19.2312ZM120.74 64.5015C120.139 64.5015 119.714 64.4021 119.464 64.2033C119.214 64.0294 119.089 63.7561 119.089 63.4082C119.089 63.1598 119.089 62.8864 119.164 62.5883C119.214 62.2901 119.264 62.0168 119.314 61.7684C119.364 61.4205 119.389 60.7745 119.389 59.8303C119.389 58.6377 119.364 57.6935 119.314 56.9978C119.314 54.5629 119.564 50.3638 120.064 44.4255C120.164 42.1397 120.214 40.624 120.214 39.8786C120.189 39.009 120.164 38.1394 120.139 37.2698C120.039 35.2324 120.014 34.1391 120.064 33.99C120.114 33.7913 120.139 33.2695 120.139 32.4247C120.189 31.9775 120.214 31.2072 120.214 30.114C120.189 28.7226 120.164 27.3312 120.139 25.9398C120.139 25.8652 120.139 25.7907 120.139 25.7162C120.139 25.1695 120.264 24.8217 120.514 24.6478C120.765 24.4738 121.215 24.3993 121.865 24.4242C122.415 24.4242 122.965 24.4242 123.515 24.3993C124.09 24.3496 124.665 24.2751 125.24 24.2254C125.74 24.2005 126.065 24.3496 126.215 24.7223C126.365 25.095 126.465 25.6665 126.515 26.4616C126.615 27.0579 126.665 27.7039 126.665 28.3996C126.665 29.2444 126.615 30.7103 126.515 32.7974C126.515 34.7603 126.515 36.7231 126.515 38.686C126.615 44.351 126.74 48.5997 126.89 51.4819C127.14 57.1221 127.24 60.4266 127.19 61.3708C127.19 62.315 127.215 62.961 127.265 63.3088C127.265 63.3088 127.265 63.3585 127.265 63.3834C127.265 63.7809 127.115 64.0294 126.865 64.1288C126.59 64.2281 126.19 64.2778 125.715 64.3027C124.715 64.3027 123.065 64.4021 120.765 64.5263L120.74 64.5015Z" fill="#FFAF32"/>
<path d="M137.591 60.998C135.641 58.3643 134.616 56.9977 134.516 56.8983C134.316 56.6499 134.216 56.4263 134.216 56.1778C134.216 56.0287 134.416 55.7057 134.816 55.1839C135.466 54.2398 136.416 53.1217 137.666 51.8048C137.866 51.5812 138.066 51.4818 138.266 51.4818C138.516 51.4818 138.791 51.6309 139.091 52.0036C139.391 52.3514 139.641 52.6248 139.841 52.8235C142.791 55.5815 146.141 56.8486 149.892 56.6499C151.792 56.5505 153.442 56.0784 154.842 55.2833C156.242 54.4882 156.942 53.0968 156.942 51.1091C156.942 47.6803 154.217 44.177 148.767 40.6239C147.867 40.0773 147.017 39.6301 146.217 39.2822C144.116 38.2635 142.316 37.2448 140.816 36.2509C139.316 35.2322 137.991 33.8905 136.841 32.1513C135.691 30.4369 135.116 28.3746 135.116 25.9894C135.116 23.0078 136.041 20.2747 137.916 17.7652C139.791 15.2806 142.041 13.268 144.666 11.7772C147.292 10.2864 149.592 9.49134 151.517 9.3671C156.267 9.09379 160.168 9.81434 163.243 11.5039C166.318 13.1935 168.693 14.8582 170.393 16.4483C170.593 16.6471 170.693 16.8459 170.693 17.0943C170.693 17.2434 170.618 17.4422 170.518 17.6658C170.393 17.8894 170.318 18.0634 170.268 18.1627C170.018 18.5354 169.593 19.1566 169.043 20.0511C168.468 20.9455 168.018 21.6164 167.668 22.0388C167.518 22.2376 167.368 22.4612 167.168 22.7096C166.993 22.9333 166.843 23.1072 166.718 23.2066C166.593 23.306 166.393 23.3805 166.143 23.3805C166.043 23.3805 165.793 23.2314 165.443 22.9333C165.068 22.6351 164.693 22.3618 164.343 22.1382C162.343 20.4983 160.393 19.1318 158.492 17.9888C156.592 16.8459 154.767 16.3241 153.017 16.4235C151.617 16.498 150.467 16.8707 149.567 17.5416C148.667 18.2124 148.217 19.6535 148.217 21.84C148.217 23.9768 149.017 25.5918 150.617 26.7099C152.217 27.8032 154.342 28.8219 156.992 29.7909C157.242 29.8654 158.717 30.412 161.368 31.4059C164.043 32.3998 166.418 34.462 168.493 37.5678C170.568 40.6985 171.593 44.4751 171.593 48.9475C171.593 53.718 169.793 57.3953 166.193 59.9793C162.593 62.5633 157.617 64.0293 151.267 64.3771C144.066 64.7747 139.491 63.6814 137.541 61.0228L137.591 60.998Z" fill="#E64927"/>
<path d="M181.369 53.7926C179.019 47.9288 177.844 41.5681 177.844 34.7105C177.844 28.1014 178.744 22.7594 180.569 18.6846C182.394 14.6097 184.62 11.7276 187.245 9.9883C189.87 8.2739 192.47 7.32974 195.07 7.2055C200.071 6.95704 203.821 8.22421 206.321 10.9573C208.821 13.6904 210.422 16.995 211.122 20.871C211.822 24.7471 212.172 29.1449 212.172 34.0645C212.172 38.0399 211.572 42.1644 210.371 46.4132C209.171 50.6619 207.321 54.2895 204.821 57.2959C202.321 60.3023 199.246 61.8925 195.595 62.0664C188.445 62.4143 183.694 59.6563 181.344 53.7926H181.369ZM198.021 40.7979C198.671 39.2823 198.996 37.4685 198.996 35.3814C198.996 33.3936 198.696 31.6792 198.046 30.2133C197.42 28.7474 196.57 28.0517 195.545 28.1014C194.295 28.151 193.345 29.0704 192.745 30.8096C192.12 32.5489 191.82 34.4123 191.795 36.4001C191.795 38.4375 191.995 40.1022 192.395 41.3694C192.795 42.6365 193.67 43.2328 195.02 43.1831C196.37 43.1086 197.37 42.3135 198.021 40.7979Z" fill="#E64927"/>
<path d="M220.397 58.7866C220.272 58.4636 220.222 57.7928 220.297 56.7492C220.297 55.1094 220.272 53.544 220.222 52.0533C220.172 48.9971 220.122 45.941 220.072 42.8849C220.072 41.4935 220.122 40.0276 220.222 38.5119C220.322 36.9963 220.397 35.6298 220.447 34.4371C220.697 30.8592 220.822 28.3249 220.822 26.8838C220.872 22.2127 220.922 17.5416 220.972 12.8704C220.972 11.5287 220.922 10.187 220.897 8.8453C220.897 7.10605 221.022 6.11219 221.272 5.83888C221.422 5.6898 221.597 5.59042 221.797 5.59042C221.897 5.59042 222.072 5.61526 222.322 5.6898C222.572 5.73949 222.847 5.78919 223.147 5.76434C223.922 5.71465 224.697 5.64011 225.473 5.59042C226.423 5.54072 227.123 5.59042 227.573 5.64011C228.023 5.76434 228.348 6.11219 228.548 6.68366C228.748 7.25513 228.923 7.87629 229.073 8.59683C229.223 9.31738 229.348 9.864 229.448 10.2615C229.698 11.6033 230.273 13.4419 231.198 15.7775C232.123 18.113 232.998 20.1753 233.848 21.9394C234.548 23.1072 235.498 24.9955 236.648 27.6044C237.824 30.2132 238.649 32.2755 239.149 33.7911C239.449 34.5614 239.874 35.5552 240.424 36.723C240.799 37.5926 241.174 38.4871 241.549 39.3567C242.074 40.4997 242.599 41.6426 243.124 42.7855C244.574 39.9033 245.624 37.7914 246.274 36.4745C247.899 33.17 249.524 29.8902 251.15 26.5857C252.275 24.2998 253.4 22.0139 254.525 19.7529C256.275 16.1005 257.45 13.74 258.05 12.6965C259 10.7088 260 8.87015 261.05 7.18059C262.1 5.46618 262.85 4.6214 263.3 4.59656C263.7 4.59656 263.901 4.89471 263.901 5.54072C263.901 6.13704 263.775 6.93212 263.525 7.95083C263.425 8.57199 263.325 9.19315 263.225 9.81431C263.025 11.156 262.925 17.1192 262.925 27.7037C262.925 30.0393 262.875 32.8718 262.75 36.2012C262.625 39.5307 262.5 41.742 262.4 42.8352C262.3 44.1272 262.25 46.0404 262.25 48.5748C262.275 50.9849 262.3 53.395 262.325 55.8051V56.1778C262.325 56.7741 262.175 57.0225 261.875 56.948C261.825 56.948 261.775 56.948 261.725 56.948C261.475 56.948 261.2 56.9977 260.875 57.0474C260.55 57.0971 260.2 57.1468 259.85 57.1468C259.65 57.0971 259.5 56.9977 259.425 56.7989C259.35 56.6002 259.3 56.2523 259.325 55.7554C259.325 54.2894 259.325 52.8235 259.325 51.3576C259.325 46.2889 259.375 43.3073 259.475 42.4128C259.575 41.3693 259.675 39.4313 259.825 36.5988C259.95 33.7663 260 31.4804 260 29.7412C259.95 29.2939 260 27.9025 260.075 25.567C260.1 24.6725 260.125 23.778 260.15 22.8835C260.2 21.0946 260.25 19.3057 260.3 17.5167C259.95 18.0385 259.65 18.5603 259.4 19.1069C258.9 19.9765 258.425 20.9207 257.975 21.9145C257.725 22.4115 257.475 22.9332 257.225 23.4302C256.375 25.0949 255.4 27.0577 254.3 29.3188C253.2 31.5798 252.25 33.493 251.45 35.0583C250.549 36.8721 249.399 39.2325 248.049 42.0898C246.674 44.9472 245.599 47.2082 244.849 48.8978C243.549 51.9787 242.799 53.5192 242.599 53.544C242.449 53.544 242.224 53.3204 241.924 52.8235C241.624 52.3514 241.424 52.0284 241.324 51.8793C240.974 51.3576 240.424 50.2146 239.674 48.4754C238.924 46.7361 238.324 45.2205 237.874 43.8788C237.573 43.0092 236.273 40.5494 233.973 36.5242C232.173 33.17 231.248 31.4307 231.198 31.2816C230.698 30.3126 230.023 28.6728 229.173 26.3869C228.623 25.1694 228.198 24.101 227.898 23.1568C227.848 24.2501 227.798 25.3433 227.748 26.4366C227.698 28.1261 227.648 29.8157 227.598 31.5053C227.548 36.4 227.498 41.2947 227.448 46.1895C227.423 50.0655 227.398 53.9416 227.373 57.8176C227.373 58.2649 227.248 58.5382 226.998 58.6624C226.748 58.7618 226.448 58.8363 226.098 58.8115C225.748 58.8115 225.473 58.8115 225.273 58.8115C224.722 58.8612 224.172 58.9109 223.622 58.9606C222.722 59.1096 222.072 59.1842 221.672 59.209C220.922 59.2339 220.497 59.1096 220.372 58.7866H220.397Z" fill="#E64927"/>
<path d="M274.952 49.7675C272.601 43.854 271.426 37.4933 271.426 30.6357C271.426 24.0266 272.326 18.7094 274.151 14.6594C275.977 10.6095 278.202 7.75213 280.827 6.08742C283.452 4.39786 286.052 3.52824 288.678 3.4537C293.678 3.27977 297.428 4.59664 299.928 7.37944C302.429 10.1622 304.029 13.4917 304.729 17.3677C305.429 21.2437 305.779 25.6416 305.779 30.5612C305.779 34.5366 305.179 38.6363 303.979 42.885C302.779 47.1337 300.929 50.7116 298.428 53.6684C295.928 56.6251 292.853 58.1656 289.203 58.2898C282.052 58.5134 277.302 55.7058 274.952 49.7923V49.7675ZM291.603 37.0212C292.253 35.5056 292.578 33.7167 292.578 31.6296C292.578 29.6418 292.278 27.9026 291.628 26.4367C291.003 24.9707 290.153 24.2502 289.103 24.275C287.853 24.3247 286.902 25.1943 286.302 26.9336C285.677 28.6728 285.352 30.5363 285.352 32.524C285.352 34.5614 285.552 36.2262 285.952 37.4933C286.352 38.7853 287.227 39.3817 288.578 39.3568C289.928 39.3071 290.928 38.5369 291.578 37.0212H291.603Z" fill="#E64927"/>
<path d="M315.155 53.2708C313.204 50.5626 312.179 49.1712 312.079 49.0718C311.879 48.8233 311.779 48.5748 311.779 48.3264C311.779 48.1773 311.979 47.8543 312.379 47.3325C313.029 46.4132 313.979 45.32 315.23 44.0528C315.43 43.854 315.63 43.7298 315.83 43.7298C316.08 43.7298 316.355 43.9037 316.655 44.2764C316.955 44.6491 317.205 44.9224 317.405 45.1212C320.355 47.9785 323.705 49.3451 327.456 49.2457C329.356 49.196 331.006 48.7985 332.406 48.0531C333.806 47.3077 334.506 45.9163 334.506 43.9286C334.506 40.4998 331.781 36.9219 326.33 33.1701C325.43 32.5986 324.58 32.1265 323.78 31.7538C321.68 30.6606 319.88 29.5922 318.38 28.5486C316.88 27.5051 315.555 26.0888 314.405 24.3247C313.254 22.5606 312.679 20.4984 312.679 18.1131C312.679 15.1315 313.629 12.4233 315.48 9.98833C317.355 7.55337 319.605 5.61535 322.23 4.22395C324.855 2.8077 327.13 2.08716 329.106 2.03746C333.856 1.91323 337.781 2.75801 340.857 4.54696C343.932 6.3359 346.332 8.0503 348.007 9.71501C348.207 9.91379 348.307 10.1374 348.307 10.3859C348.307 10.5349 348.232 10.7337 348.107 10.9573C347.982 11.181 347.882 11.3549 347.857 11.4543C347.607 11.8021 347.182 12.4233 346.607 13.3177C346.032 14.2122 345.557 14.8582 345.232 15.2558C345.082 15.4545 344.932 15.6782 344.732 15.9018C344.557 16.1254 344.407 16.2993 344.282 16.3987C344.157 16.4981 343.957 16.5478 343.707 16.5726C343.607 16.5726 343.382 16.4236 343.007 16.1005C342.632 15.7775 342.257 15.5042 341.907 15.2806C339.906 13.5911 337.956 12.15 336.056 10.9573C334.156 9.76471 332.331 9.19324 330.581 9.21809C329.181 9.24293 328.031 9.59078 327.13 10.2368C326.23 10.8828 325.78 12.299 325.78 14.4855C325.78 16.6223 326.58 18.2622 328.181 19.43C329.781 20.5729 331.906 21.6662 334.556 22.7097C334.806 22.8091 336.256 23.3806 338.956 24.4738C341.632 25.567 344.007 27.679 346.082 30.8593C348.157 34.0397 349.182 37.866 349.207 42.3384C349.207 47.1089 347.407 50.7116 343.807 53.1963C340.206 55.6561 335.231 56.9729 328.881 57.1469C321.68 57.3208 317.105 56.0785 315.155 53.3702V53.2708Z" fill="#E64927"/>
<path d="M376.759 54.3641C376.709 54.1901 376.684 53.8671 376.684 53.3702C376.634 52.8236 376.609 51.9043 376.609 50.6123C376.609 50.2147 376.584 49.7923 376.534 49.3202C376.484 48.8482 376.459 48.227 376.459 47.4071V37.1952C376.459 36.2013 376.509 35.2323 376.559 34.2881C376.634 33.344 376.684 32.6483 376.684 32.201C376.884 29.9152 376.984 27.7287 376.984 25.6416C376.984 23.0576 376.909 21.0202 376.759 19.5294C376.659 17.8398 376.609 16.2993 376.609 14.9079C376.609 11.7773 376.684 8.12485 376.834 3.95065C376.834 3.30464 376.959 2.85741 377.209 2.63379C377.459 2.41017 377.809 2.28594 378.259 2.28594C378.635 2.28594 379.01 2.31078 379.385 2.33563C379.835 2.33563 380.56 2.33563 381.56 2.41017C382.56 2.45986 383.785 2.48471 385.235 2.45986C386.885 2.43502 388.835 2.28594 391.085 1.98778C393.786 1.73932 395.586 1.61508 396.486 1.61508C398.536 1.59024 400.411 1.61508 402.111 1.76416C403.011 1.76416 403.911 1.78901 404.812 1.81386C405.462 1.81386 405.887 1.93809 406.087 2.23624C406.287 2.5344 406.387 3.08102 406.387 3.87611C406.387 4.32334 406.437 5.09358 406.537 6.18683C406.637 7.47884 406.687 8.59693 406.687 9.5411C406.687 10.535 406.612 11.4543 406.462 12.2991C406.412 13.0444 406.062 13.4171 405.412 13.4171C405.212 13.4171 404.937 13.3674 404.587 13.2681C404.236 13.1687 403.961 13.0941 403.761 13.0444C403.011 12.8954 400.836 12.8457 397.236 12.8954C396.286 12.8954 395.336 12.8705 394.386 12.8705C393.736 12.8208 392.786 12.8208 391.536 12.8457C390.635 12.8457 389.96 12.8954 389.51 12.9451C388.01 13.0693 386.685 13.1438 385.535 13.1438C384.21 13.1438 382.885 13.1438 381.56 13.1438C381.16 13.1438 380.935 13.2432 380.885 13.4171C380.835 13.5911 380.81 14.0135 380.81 14.6595C380.81 15.5539 380.785 16.3242 380.735 16.9702C380.635 18.9579 380.585 20.5729 380.585 21.8152V26.2131C380.585 27.2566 380.585 28.0517 380.66 28.5983C381.06 28.648 381.735 28.648 382.685 28.648C383.535 28.6977 385.285 28.6729 387.935 28.648C389.035 28.648 390.635 28.5486 392.736 28.4244C394.336 28.3002 395.386 28.2256 395.886 28.2256C396.586 28.2256 397.286 28.2256 397.986 28.3002C398.686 28.3747 399.211 28.3995 399.561 28.3995C400.211 28.3995 400.536 28.6977 400.536 29.294C400.536 29.4928 400.511 29.7909 400.461 30.1636C400.411 30.5363 400.386 31.0333 400.386 31.6296C400.411 32.9464 400.436 34.2633 400.461 35.5802C400.461 36.0274 400.411 36.3504 400.311 36.5243C400.211 36.6983 400.036 36.7976 399.786 36.7976C399.636 36.7976 399.436 36.7728 399.161 36.6983C398.886 36.6237 398.636 36.5989 398.436 36.5989C397.986 36.5989 397.161 36.5989 395.911 36.5492C394.686 36.5243 393.011 36.5243 390.91 36.5492C388.66 36.574 386.71 36.7231 385.06 36.9467C383.41 37.1703 382.41 37.2946 382.06 37.2946C381.51 37.2946 381.185 37.2946 381.085 37.2449C380.835 37.2449 380.685 37.2449 380.635 37.1703V44.6243C380.985 44.6243 381.26 44.5994 381.46 44.5249C382.16 44.5 382.86 44.4503 383.56 44.4255C386.51 44.351 389.46 44.2764 392.411 44.2267C394.211 44.2267 395.636 44.2267 396.686 44.2267C398.411 44.2267 400.136 44.2267 401.861 44.2267C402.911 44.177 403.961 44.1522 405.012 44.1025C405.612 44.1025 406.012 44.2267 406.212 44.5C406.412 44.7733 406.512 45.146 406.512 45.643C406.487 46.1399 406.462 46.6368 406.437 47.1338C406.437 48.873 406.387 50.6123 406.362 52.3515C406.362 53.1466 406.187 53.6435 405.837 53.8174C405.487 53.9914 404.987 54.0659 404.337 54.0659C403.686 54.0659 403.161 54.0659 402.761 54.0659C400.611 54.0908 398.761 54.0908 397.211 54.0659C394.661 54.0659 392.111 54.0659 389.56 54.0908C388.96 54.0908 385.96 54.215 380.56 54.4635C379.61 54.5131 378.66 54.538 377.709 54.5877C377.559 54.6125 377.409 54.6374 377.259 54.6622C376.959 54.6622 376.784 54.5877 376.734 54.4138L376.759 54.3641Z" fill="#E64927"/>
<path d="M415.412 53.0472V47.2331C415.512 38.9096 415.612 30.586 415.712 22.2625C415.712 20.3741 415.587 16.9453 415.337 11.976C415.237 8.91992 415.137 5.86381 415.037 2.8077C415.037 1.96292 415.362 1.54053 416.012 1.54053C416.262 1.54053 416.687 1.61507 417.287 1.7393C417.887 1.88838 418.362 1.96292 418.713 1.93807C420.113 2.13684 421.788 2.21138 423.738 2.18653C425.088 2.18653 426.363 2.08715 427.563 1.93807C428.313 1.83868 428.838 1.86353 429.138 2.0623C429.438 2.26107 429.588 2.58408 429.588 3.03131C429.588 3.37916 429.563 3.72701 429.488 4.12456C429.413 4.49725 429.363 4.91964 429.363 5.36688C429.313 6.70859 429.263 8.05029 429.213 9.392C429.013 13.4668 428.913 16.5229 428.913 18.5603C428.963 22.3122 429.013 26.064 429.063 29.8158C429.113 31.6047 429.138 33.4434 429.138 35.3317C429.088 38.0399 429.038 40.7482 428.988 43.4565C428.988 43.9534 428.938 44.4503 428.913 44.9473C428.913 45.643 428.963 46.3387 428.988 47.0344C429.038 47.904 429.088 48.7736 429.138 49.6432C432.714 49.7426 436.289 49.842 439.864 49.9414C442.839 49.9414 445.815 49.9414 448.79 49.9662C448.84 49.9662 448.89 49.9662 448.94 49.9662C449.24 49.9662 449.415 50.0159 449.465 50.1153C449.515 50.2147 449.515 50.3638 449.49 50.5377C449.49 50.7116 449.465 50.8359 449.465 50.9601C449.415 51.1589 449.415 51.5316 449.49 52.0782C449.565 52.6248 449.59 53.1217 449.59 53.569C449.59 53.9168 449.465 54.1404 449.215 54.2398C448.965 54.3392 448.64 54.3889 448.265 54.3641C447.89 54.3392 447.59 54.3392 447.39 54.3392C446.065 54.2647 444.74 54.1901 443.414 54.1404C439.914 53.8671 437.439 53.718 435.989 53.7429C434.389 53.7429 430.338 53.9168 423.838 54.2895C421.563 54.3889 419.288 54.4883 417.012 54.5877C415.912 54.5877 415.362 54.1156 415.362 53.1217L415.412 53.0472Z" fill="#E64927"/>
<path d="M469.591 52.6745C469.591 52.5254 469.616 52.4011 469.666 52.3018C469.666 52.2024 469.691 52.0781 469.741 51.9291C469.791 51.78 469.866 51.5564 469.966 51.2582C470.191 50.3389 470.416 49.4196 470.641 48.5003C470.741 48.2021 470.916 47.6803 471.166 46.9349C471.416 46.1895 471.591 45.4938 471.691 44.8478C471.941 43.6552 472.416 41.8414 473.116 39.4065C473.316 38.7108 473.516 38.0151 473.716 37.3194C474.666 34.2384 475.266 32.0768 475.517 30.8344C475.867 29.5176 476.217 28.2007 476.567 26.8838C477.067 25.244 477.367 24.2004 477.467 23.7532C477.817 22.2624 478.317 20.3989 478.967 18.1627C479.142 17.467 479.317 16.7713 479.492 16.0756C479.642 15.5539 479.792 15.0321 479.942 14.5103C480.442 12.8208 480.867 11.6033 481.217 10.8579C481.317 10.5597 481.692 9.54103 482.292 7.77694C482.917 6.01284 483.342 4.62144 483.542 3.57789C483.892 2.38526 484.242 1.49079 484.642 0.894472C485.017 0.298157 485.517 0 486.167 0C486.417 0 486.667 0.223618 486.917 0.670854C487.167 1.11809 487.417 1.66471 487.667 2.31072C487.917 2.95673 488.092 3.42881 488.192 3.72697C488.593 4.67113 489.293 7.03154 490.293 10.8082C490.493 11.5039 490.693 12.1996 490.893 12.8953C490.943 13.2928 491.768 15.7278 493.368 20.2002C493.843 21.5667 494.318 22.9333 494.793 24.2998C495.243 25.4676 495.693 26.6354 496.143 27.8032C497.543 31.7289 498.443 34.1142 498.843 34.9589C500.593 40.2264 501.619 43.4316 501.919 44.5248C502.269 45.8168 502.819 47.4319 503.619 49.3699C504.394 51.3079 504.844 52.4011 504.919 52.6496C505.069 52.9975 505.144 53.2459 505.144 53.395C505.144 53.5938 504.869 53.6932 504.319 53.6932C502.919 53.6932 501.519 53.6932 500.118 53.6932C499.918 53.6932 499.743 53.6435 499.643 53.5689C499.518 53.4944 499.393 53.2956 499.293 52.9975C499.093 52.4508 498.818 51.5564 498.468 50.314C498.018 49.0717 497.718 47.9536 497.568 46.9598C497.418 46.2144 497.168 45.3199 496.843 44.2764C496.518 43.2328 496.218 42.4377 495.993 41.8911C495.543 40.9469 495.143 39.8785 494.793 38.6859C494.568 37.9654 494.343 37.2448 494.118 36.5243C493.868 35.9776 493.668 35.6298 493.543 35.5056C493.418 35.3813 493.193 35.3316 492.893 35.3068C491.843 35.3068 491.068 35.3068 490.568 35.3813C489.493 35.431 488.418 35.4807 487.342 35.5304C486.942 35.5801 485.092 35.6049 481.792 35.6049C480.267 35.6049 478.742 35.6049 477.217 35.6049H477.067C476.767 35.6049 476.542 35.8783 476.392 36.4249C476.342 36.6733 476.292 36.9218 476.242 37.1703C476.142 37.6424 476.042 38.1144 475.942 38.5865C475.842 38.8847 475.517 40.3258 474.966 42.9098C474.816 43.7546 474.566 44.8478 474.216 46.1895C474.116 47.1834 473.891 48.0033 473.541 48.6493C473.441 48.7984 473.316 49.1463 473.166 49.6929C473.016 50.2395 472.891 50.6867 472.791 51.0346C472.641 51.4321 472.466 52.0781 472.266 52.9726C472.216 53.0223 472.166 53.1465 472.116 53.3205C472.066 53.4944 471.991 53.5938 471.891 53.6186C471.791 53.6435 471.641 53.6683 471.441 53.6683C470.941 53.6683 470.441 53.6683 469.941 53.6683C469.491 53.6683 469.366 53.3453 469.566 52.6993L469.591 52.6745ZM484.292 30.5611C484.892 30.4617 485.742 30.412 486.842 30.412C488.192 30.4369 489.543 30.4617 490.893 30.4866C491.543 30.4866 491.868 30.3127 491.868 29.9648C491.868 29.7163 491.693 29.1697 491.343 28.3249C491.043 27.5795 490.593 26.1881 489.993 24.1507C489.543 22.5109 489.093 21.0946 488.643 19.902C488.142 18.4112 487.592 16.6471 487.042 14.6097C486.467 12.5723 486.142 11.2554 486.017 10.6591C485.267 8.0254 484.767 6.70854 484.517 6.70854C484.367 6.70854 484.117 7.37939 483.767 8.7211C483.617 9.26772 483.467 9.81434 483.317 10.361C482.967 11.7027 482.517 13.3674 481.967 15.3799C481.417 17.3925 480.917 19.0821 480.467 20.4735C480.167 21.7655 479.742 23.4053 479.217 25.3682C478.692 27.3311 478.292 28.6728 477.967 29.4182C477.867 29.7163 477.817 29.8903 477.817 29.94C477.817 30.2878 477.967 30.5114 478.292 30.6108C478.617 30.7102 478.942 30.7599 479.267 30.735C479.592 30.7102 479.792 30.7102 479.917 30.7102C481.367 30.6605 482.817 30.6108 484.267 30.5611H484.292Z" fill="#E64927"/>
<path d="M509.869 52.8732V47.0592C509.969 38.7356 510.069 30.4121 510.169 22.0885C510.169 20.2002 510.044 16.7714 509.794 11.8021C509.694 8.74597 509.594 5.68986 509.494 2.63375C509.494 1.78897 509.819 1.36658 510.469 1.36658C510.719 1.36658 511.144 1.44112 511.744 1.5902C512.344 1.73927 512.819 1.81381 513.169 1.81381C514.569 2.01258 516.244 2.13682 518.195 2.16166C519.545 2.16166 520.82 2.11197 522.02 1.96289C522.77 1.86351 523.295 1.9132 523.595 2.13682C523.895 2.33559 524.045 2.65859 524.045 3.10583C524.045 3.45368 524.02 3.82637 523.945 4.19907C523.87 4.57177 523.845 4.99416 523.845 5.41655C523.795 6.75825 523.745 8.09996 523.695 9.44167C523.495 13.5165 523.395 16.5726 523.395 18.61C523.445 22.3618 523.495 26.1136 523.545 29.8654C523.595 31.6544 523.62 33.493 523.62 35.3813C523.57 38.0896 523.52 40.7979 523.47 43.5061C523.47 44.0031 523.42 44.5 523.395 44.9969C523.395 45.6926 523.445 46.3883 523.47 47.084C523.52 47.9537 523.57 48.8233 523.62 49.6929C527.195 49.842 530.771 50.0159 534.346 50.165C537.321 50.2147 540.296 50.2892 543.271 50.3389C543.321 50.3389 543.371 50.3389 543.421 50.3389C543.722 50.3389 543.897 50.3886 543.947 50.488C543.997 50.5874 544.022 50.7365 543.972 50.9104C543.972 51.0843 543.947 51.2085 543.947 51.3079C543.897 51.5067 543.897 51.8794 543.972 52.426C544.047 52.9726 544.072 53.4696 544.072 53.9168C544.072 54.2646 543.947 54.4883 543.697 54.5876C543.446 54.687 543.121 54.7119 542.746 54.687C542.371 54.6622 542.071 54.6373 541.871 54.6373C540.546 54.538 539.221 54.4634 537.896 54.364C534.396 54.0162 531.921 53.8423 530.471 53.8423C528.87 53.8423 524.82 53.9416 518.32 54.1901C516.044 54.2398 513.769 54.3143 511.494 54.364C510.394 54.364 509.844 53.8671 509.844 52.8732H509.869Z" fill="#E64927"/>
<path d="M549.097 53.6684C548.972 53.3454 548.922 52.6497 548.997 51.6061C548.997 49.9663 548.972 48.4009 548.922 46.9101C548.872 43.854 548.822 40.7979 548.772 37.7418C548.772 36.3504 548.822 34.9093 548.922 33.3937C549.022 31.878 549.097 30.5363 549.147 29.3437C549.397 25.7658 549.522 23.2563 549.522 21.8152C549.572 17.1441 549.622 12.473 549.672 7.80185C549.672 6.46014 549.622 5.11843 549.597 3.77672C549.597 2.03747 549.722 1.04362 549.972 0.795151C550.122 0.646072 550.297 0.571533 550.497 0.571533C550.597 0.571533 550.772 0.621226 551.022 0.695765C551.272 0.770305 551.547 0.819998 551.847 0.819998C552.622 0.819998 553.397 0.795151 554.172 0.770305C555.122 0.770305 555.822 0.844844 556.272 0.94423C556.722 1.09331 557.047 1.466 557.247 2.03747C557.447 2.60894 557.622 3.25495 557.772 3.9755C557.922 4.69604 558.047 5.26751 558.147 5.66505C558.397 7.00676 558.973 8.89509 559.923 11.2803C560.848 13.6905 561.723 15.7776 562.573 17.5913C563.273 18.784 564.223 20.7468 565.398 23.4054C566.573 26.0888 567.423 28.2008 567.898 29.7413C568.198 30.5363 568.623 31.555 569.173 32.7477C569.548 33.6421 569.923 34.5615 570.298 35.4559C570.823 36.6237 571.348 37.8163 571.874 38.9841C573.324 36.1765 574.374 34.1391 575.024 32.8471C576.649 29.6419 578.274 26.4367 579.899 23.2563C581.024 21.045 582.149 18.8337 583.274 16.6223C585.025 13.0693 586.2 10.7834 586.8 9.76472C587.75 7.85154 588.75 6.0626 589.8 4.42273C590.85 2.78287 591.6 1.96293 592.05 1.96293C592.45 1.96293 592.65 2.31078 592.65 2.93194C592.65 3.52826 592.525 4.32335 592.275 5.3172C592.175 5.93836 592.075 6.55953 591.975 7.18069C591.775 8.52239 591.675 14.4855 591.675 25.0701C591.675 27.4057 591.625 30.2382 591.5 33.5676C591.375 36.897 591.25 39.1084 591.15 40.2016C591.05 41.4936 591 43.4068 591 45.9411C591.025 48.3512 591.05 50.7613 591.075 53.1714V53.5441C591.075 54.1405 590.925 54.3889 590.625 54.2895C590.575 54.2895 590.525 54.2895 590.475 54.2895C590.225 54.2895 589.925 54.2895 589.625 54.3392C589.3 54.3889 588.95 54.3889 588.6 54.3889C588.4 54.3392 588.25 54.215 588.175 54.0162C588.1 53.8175 588.075 53.4696 588.075 52.9727V48.5749C588.075 43.5062 588.125 40.5246 588.225 39.6301C588.325 38.5866 588.45 36.6486 588.575 33.8161C588.7 30.9836 588.75 28.6977 588.75 26.9585C588.7 26.5112 588.75 25.1198 588.825 22.7843C588.85 21.8898 588.875 20.9953 588.9 20.1008C588.95 18.3119 589 16.5229 589.05 14.734C588.7 15.2309 588.4 15.7279 588.15 16.2745C587.65 17.1193 587.175 18.0137 586.725 19.0076C586.475 19.5045 586.225 20.0014 585.975 20.4735C585.125 22.0886 584.149 24.0017 583.049 26.1882C581.949 28.3747 580.999 30.2382 580.199 31.7538C579.299 33.5179 578.174 35.8038 576.799 38.5866C575.424 41.3694 574.349 43.5807 573.599 45.1957C572.299 48.2022 571.548 49.7178 571.348 49.6929C571.198 49.6929 570.973 49.4445 570.673 48.9227C570.373 48.4258 570.173 48.1028 570.073 47.9537C569.723 47.4071 569.173 46.2393 568.423 44.4503C567.673 42.6862 567.073 41.1209 566.623 39.7544C566.323 38.8599 565.023 36.3256 562.723 32.1514C560.923 28.6977 559.998 26.8839 559.948 26.7348C559.448 25.741 558.773 24.0514 557.922 21.7159C557.372 20.4735 556.947 19.3554 556.647 18.4113C556.597 19.5045 556.547 20.5978 556.497 21.691C556.447 23.3806 556.397 25.0701 556.347 26.7597C556.297 31.6544 556.247 36.5492 556.197 41.4439C556.172 45.32 556.147 49.196 556.122 53.0721C556.122 53.5193 555.997 53.7926 555.747 53.892C555.497 53.9914 555.197 54.0162 554.847 53.9914C554.497 53.9665 554.222 53.9417 554.022 53.9417C553.472 53.9417 552.922 53.9665 552.372 53.9914C551.472 54.0908 550.822 54.1156 550.422 54.1156C549.672 54.1156 549.247 53.9417 549.122 53.6187L549.097 53.6684Z" fill="#E64927"/>
<path d="M597.375 54.0411C597.375 53.892 597.375 53.7678 597.45 53.6684C597.45 53.569 597.45 53.4448 597.525 53.2957C597.575 53.1466 597.65 52.923 597.75 52.6248C597.976 51.7055 598.201 50.7862 598.426 49.8917C598.526 49.5936 598.701 49.0718 598.951 48.3264C599.201 47.581 599.376 46.8853 599.476 46.2393C599.726 45.0467 600.201 43.2577 600.901 40.8228C601.101 40.1271 601.301 39.4314 601.501 38.7605C602.451 35.7044 603.051 33.5428 603.301 32.3253C603.651 31.0084 604.001 29.7164 604.351 28.3996C604.851 26.7597 605.151 25.741 605.251 25.2938C605.601 23.803 606.101 21.9643 606.751 19.7281C606.926 19.0324 607.101 18.3367 607.276 17.6659C607.426 17.1441 607.576 16.6223 607.726 16.1006C608.226 14.4359 608.651 13.2184 609.001 12.473C609.101 12.1748 609.451 11.1561 610.076 9.41687C610.702 7.67762 611.127 6.28622 611.327 5.24267C611.677 4.05004 612.027 3.18042 612.427 2.5841C612.802 1.98779 613.327 1.71448 613.952 1.71448C614.202 1.71448 614.452 1.96294 614.702 2.41018C614.952 2.85741 615.202 3.42888 615.452 4.07489C615.702 4.7209 615.877 5.19298 615.977 5.49114C616.377 6.4353 617.077 8.82056 618.077 12.6221C618.277 13.3178 618.477 14.0135 618.677 14.734C618.727 15.1316 619.552 17.5914 621.152 22.1134C621.627 23.48 622.102 24.8714 622.577 26.2628C623.027 27.4305 623.477 28.6232 623.928 29.791C625.328 33.7415 626.228 36.1765 626.628 37.0213C628.378 42.3384 629.403 45.5436 629.703 46.6368C630.053 47.9289 630.603 49.5687 631.378 51.5316C632.153 53.4945 632.578 54.5877 632.678 54.8362C632.828 55.184 632.903 55.4325 632.903 55.5816C632.903 55.7803 632.628 55.8797 632.078 55.8549C630.678 55.8052 629.278 55.7803 627.878 55.7306C627.678 55.7306 627.503 55.6809 627.403 55.6064C627.278 55.5319 627.153 55.3331 627.053 55.0349C626.853 54.4883 626.578 53.5938 626.228 52.3267C625.778 51.0844 625.478 49.9414 625.328 48.9476C625.178 48.2022 624.928 47.3077 624.603 46.2393C624.278 45.1957 624.003 44.3758 623.753 43.8292C623.302 42.8602 622.902 41.7918 622.552 40.5992C622.327 39.8786 622.102 39.1581 621.877 38.4127C621.627 37.866 621.427 37.5182 621.302 37.394C621.177 37.2697 620.977 37.1952 620.677 37.1952C619.627 37.1703 618.852 37.1952 618.352 37.1952C617.277 37.1952 616.202 37.2449 615.127 37.2697C614.727 37.3194 612.877 37.2697 609.576 37.22C608.051 37.1952 606.526 37.1455 605.001 37.1207C604.951 37.1207 604.901 37.1207 604.851 37.1207C604.551 37.1207 604.326 37.3691 604.176 37.9157C604.126 38.1642 604.076 38.4127 604.026 38.6611C603.926 39.1332 603.826 39.6053 603.726 40.0774C603.626 40.3755 603.301 41.8166 602.751 44.3758C602.601 45.2206 602.351 46.3138 602.001 47.6307C601.901 48.6246 601.676 49.4445 601.326 50.0656C601.226 50.2147 601.101 50.5626 600.951 51.1092C600.801 51.6558 600.676 52.1031 600.576 52.4509C600.426 52.8484 600.251 53.4945 600.051 54.3641C600.001 54.4138 599.951 54.5132 599.901 54.6871C599.851 54.861 599.776 54.9604 599.676 54.9852C599.576 54.9852 599.426 55.0101 599.226 55.0101C598.726 55.0101 598.226 55.0101 597.726 54.9852C597.275 54.9852 597.15 54.6374 597.35 54.0162L597.375 54.0411ZM612.077 32.2508C612.677 32.1762 613.527 32.1265 614.627 32.1514C615.977 32.2011 617.327 32.2756 618.677 32.3253C619.327 32.3253 619.652 32.1762 619.652 31.8284C619.652 31.5799 619.477 31.0333 619.127 30.1637C618.827 29.4183 618.377 28.002 617.777 25.9646C617.327 24.3247 616.877 22.8836 616.427 21.691C615.927 20.1754 615.402 18.4113 614.827 16.349C614.252 14.3116 613.902 12.9699 613.802 12.3736C613.052 9.71503 612.552 8.39817 612.302 8.39817C612.152 8.39817 611.902 9.06902 611.552 10.3859C611.402 10.9325 611.252 11.4791 611.102 12.0009C610.752 13.3426 610.301 15.0073 609.751 16.995C609.201 18.9828 608.701 20.6723 608.251 22.0637C607.951 23.3557 607.526 24.9707 607.001 26.9088C606.476 28.8468 606.076 30.2133 605.751 30.9339C605.651 31.232 605.601 31.406 605.601 31.4557C605.601 31.8035 605.776 32.0271 606.076 32.1265C606.401 32.2259 606.726 32.2756 607.051 32.2508C607.376 32.2259 607.576 32.2259 607.676 32.2508C609.126 32.2508 610.577 32.2259 612.027 32.2011L612.077 32.2508Z" fill="#E64927"/>
<path d="M657.23 54.0907C657.23 53.4447 657.28 52.7987 657.305 52.1527C657.255 50.9104 657.205 49.6681 657.155 48.4258C657.13 47.3077 657.105 46.1896 657.08 45.0715C657.08 44.3261 657.03 43.5807 657.005 42.8353C656.805 40.2513 656.705 37.3194 656.705 34.0397C656.705 32.1016 656.805 29.5425 657.005 26.3621C657.205 23.1818 657.305 20.5977 657.305 18.5355C657.305 15.2061 657.255 11.8766 657.23 8.54722C657.18 7.75214 657.155 6.85766 657.155 5.86381C657.155 5.31719 657.53 4.99418 658.23 4.8948C658.955 4.79541 659.73 4.77056 660.53 4.82026C661.33 4.86995 661.88 4.8948 662.181 4.91964C663.081 4.91964 663.981 4.86995 664.881 4.86995C666.981 4.8451 668.681 4.86995 669.981 4.8948C673.031 4.99418 676.282 5.9135 679.732 7.65275C683.182 9.392 686.207 12.4481 688.808 16.8211C691.408 21.1941 692.708 27.0578 692.708 34.4124C692.708 41.1209 691.108 46.1399 687.882 49.4693C684.657 52.7987 681.282 54.8858 677.707 55.7306C674.156 56.5754 671.206 56.9481 668.856 56.8735C666.806 56.8239 664.756 56.7742 662.706 56.7493C661.605 56.7493 660.255 56.7493 658.655 56.6996C657.705 56.6748 657.23 55.8052 657.23 54.1156V54.0907ZM673.881 38.5617C676.382 36.2758 677.632 33.4682 677.632 30.1885C677.632 27.0578 676.432 24.4986 674.031 22.5358C672.981 21.7158 671.806 21.0698 670.506 20.6226C670.606 21.7158 670.656 22.5606 670.656 23.1569C670.656 24.1011 670.606 25.4676 670.506 27.2566C670.406 28.9461 670.356 30.1885 670.356 30.9836C670.356 32.2756 670.306 34.3627 670.206 37.2449C670.156 38.0896 670.131 39.3817 670.131 41.1209C671.481 40.5246 672.731 39.6798 673.881 38.5617Z" fill="#E64927"/>
<path d="M700.359 58.0662C700.309 57.8923 700.284 57.5445 700.284 57.0475C700.234 56.5009 700.209 55.5816 700.209 54.2896C700.209 53.892 700.184 53.4696 700.134 52.9727C700.084 52.5006 700.058 51.8546 700.058 51.0595V40.8476C700.058 39.8538 700.108 38.8848 700.159 37.9406C700.234 36.9964 700.284 36.3007 700.284 35.8535C700.484 33.5676 700.584 31.406 700.584 29.3189C700.584 26.7349 700.509 24.6975 700.359 23.2067C700.259 21.5171 700.209 19.9766 700.209 18.5852C700.209 15.4546 700.284 11.8022 700.434 7.62796C700.434 6.98195 700.559 6.55956 700.809 6.33594C701.059 6.11232 701.409 6.01294 701.859 6.03778C702.234 6.08748 702.609 6.11232 702.984 6.16202C703.434 6.16202 704.159 6.2614 705.159 6.36079C706.159 6.48502 707.384 6.55956 708.834 6.6341C710.484 6.70864 712.434 6.65895 714.685 6.50987C717.385 6.43533 719.185 6.41048 720.085 6.43533C722.135 6.53471 724.01 6.68379 725.71 6.90741C726.611 6.98195 727.511 7.03164 728.411 7.10618C729.061 7.13103 729.486 7.30495 729.686 7.60311C729.886 7.90127 729.986 8.47274 729.986 9.26782C729.986 9.71506 730.036 10.4853 730.136 11.5785C730.236 12.8706 730.286 13.9886 730.286 14.9328C730.286 15.9267 730.211 16.846 730.061 17.6908C730.011 18.4362 729.661 18.784 729.011 18.7592C728.811 18.7592 728.536 18.6846 728.186 18.5852C727.836 18.461 727.561 18.3865 727.361 18.3368C726.611 18.1628 724.435 17.9889 720.835 17.815C719.885 17.7405 718.935 17.6908 717.985 17.6162C717.335 17.5417 716.385 17.4671 715.135 17.4175C714.235 17.3678 713.56 17.3678 713.109 17.4175C711.609 17.4671 710.284 17.4423 709.134 17.4175C707.809 17.3429 706.484 17.2684 705.159 17.1938C704.759 17.1938 704.534 17.2684 704.484 17.4175C704.434 17.5914 704.409 17.9889 704.409 18.6349C704.409 19.5294 704.384 20.2996 704.334 20.9456C704.234 22.9334 704.184 24.5484 704.184 25.7907V30.1885C704.184 31.2321 704.209 32.0272 704.259 32.5738C704.659 32.6483 705.334 32.698 706.284 32.7229C707.134 32.7974 708.884 32.8968 711.534 33.021C712.634 33.0707 714.235 33.0956 716.335 33.0707C717.935 33.0459 718.985 33.0459 719.485 33.0707C720.185 33.0956 720.885 33.1701 721.585 33.2695C722.285 33.3689 722.81 33.4434 723.16 33.4434C723.81 33.4683 724.135 33.7913 724.135 34.3876C724.135 34.5863 724.11 34.8597 724.06 35.2324C724.01 35.605 723.985 36.0771 723.985 36.6734C723.985 37.9903 724.035 39.3072 724.06 40.624C724.06 41.0713 724.01 41.3943 723.91 41.5433C723.81 41.7173 723.635 41.7918 723.385 41.7918C723.235 41.7918 723.01 41.7421 722.76 41.6427C722.485 41.5433 722.26 41.5185 722.035 41.4937C721.585 41.4937 720.76 41.4191 719.535 41.3197C718.31 41.2203 716.635 41.121 714.56 41.0216C712.309 40.9222 710.359 40.947 708.709 41.0713C707.059 41.1955 706.059 41.27 705.709 41.2452C705.159 41.2452 704.834 41.1955 704.734 41.121C704.484 41.121 704.334 41.0713 704.284 41.0216V48.4755C704.634 48.4755 704.909 48.4755 705.109 48.4258C705.809 48.4258 706.509 48.4258 707.209 48.4258C710.159 48.5252 713.109 48.6246 716.06 48.724C717.86 48.7985 719.285 48.8979 720.335 48.9724C722.06 49.0718 723.785 49.1712 725.51 49.2706C726.561 49.2706 727.611 49.3203 728.661 49.3451C729.261 49.37 729.661 49.5191 729.861 49.8172C730.061 50.0905 730.161 50.4881 730.161 50.985C730.136 51.4819 730.111 51.9789 730.086 52.4758C730.086 54.215 730.036 55.9543 730.011 57.6935C730.011 58.4886 729.836 58.9607 729.486 59.1346C729.136 59.2837 728.636 59.3334 727.986 59.2837C727.336 59.234 726.811 59.1843 726.411 59.1843C724.26 59.0849 722.41 58.9855 720.86 58.8613C718.31 58.7371 715.76 58.588 713.21 58.4638C712.609 58.4638 709.609 58.3892 704.209 58.3147C703.259 58.3147 702.309 58.2899 701.359 58.265C701.209 58.265 701.059 58.3147 700.909 58.3147C700.609 58.3147 700.434 58.2153 700.384 58.0414L700.359 58.0662Z" fill="#E64927"/>
<path d="M758.488 59.9048V54.0907C758.588 45.7672 758.688 37.4436 758.788 29.1449C758.788 27.2566 758.663 23.8278 758.413 18.8336C758.313 15.7775 758.213 12.7214 758.113 9.64045C758.113 8.79567 758.438 8.39812 759.088 8.42297C759.338 8.42297 759.763 8.52236 760.363 8.72113C760.963 8.89505 761.438 8.99444 761.788 9.01929C763.188 9.2926 764.863 9.46652 766.814 9.56591C768.164 9.64045 769.439 9.64045 770.639 9.56591C771.389 9.51621 771.914 9.56591 772.214 9.78952C772.514 10.0131 772.664 10.3361 772.664 10.7834C772.664 11.1312 772.639 11.4791 772.539 11.8518C772.464 12.2245 772.414 12.622 772.439 13.0693C772.389 14.411 772.339 15.7527 772.289 17.0944C772.089 21.1692 771.989 24.2005 771.989 26.2379C772.039 29.9897 772.089 33.7415 772.139 37.4933C772.189 39.2822 772.214 41.1209 772.214 43.0092C772.164 45.7175 772.114 48.4257 772.064 51.134C772.064 51.6309 772.014 52.1279 771.989 52.6248C771.989 53.3205 772.039 54.0162 772.064 54.7119C772.114 55.5815 772.164 56.4511 772.214 57.3208C775.789 57.6438 779.365 57.9419 782.94 58.2649C785.915 58.4637 788.89 58.6376 791.866 58.8364C791.916 58.8364 791.966 58.8364 792.016 58.8364C792.316 58.8364 792.491 58.9109 792.541 59.0103C792.591 59.1097 792.591 59.2588 792.566 59.4327C792.566 59.6066 792.541 59.7309 792.541 59.8303C792.491 60.029 792.516 60.4017 792.566 60.9483C792.641 61.495 792.691 61.9919 792.666 62.4391C792.666 62.787 792.541 63.0106 792.291 63.0851C792.04 63.1597 791.715 63.1845 791.365 63.1348C790.99 63.0851 790.715 63.0603 790.49 63.0603C789.165 62.9112 787.84 62.7621 786.515 62.6131C783.015 62.1161 780.54 61.8428 779.089 61.7683C777.489 61.6937 773.439 61.6192 766.939 61.5695C764.663 61.5198 762.388 61.495 760.113 61.4453C759.013 61.3956 758.463 60.8738 758.463 59.8799L758.488 59.9048Z" fill="#E64927"/>
<path d="M793.116 61.669C793.116 61.5199 793.141 61.3957 793.191 61.2963C793.191 61.1969 793.216 61.0727 793.266 60.9236C793.316 60.7745 793.391 60.5509 793.491 60.2776C793.716 59.3582 793.941 58.4638 794.166 57.5445C794.266 57.2463 794.441 56.7494 794.691 56.004C794.941 55.2834 795.116 54.5877 795.216 53.9417C795.466 52.7739 795.941 50.985 796.641 48.5749C796.841 47.8792 797.041 47.2083 797.241 46.5126C798.191 43.4814 798.791 41.3694 799.041 40.1271C799.391 38.8351 799.741 37.5431 800.091 36.2262C800.591 34.6112 800.891 33.5925 800.991 33.1453C801.341 31.6793 801.841 29.8407 802.491 27.6293C802.666 26.9336 802.841 26.2628 803.016 25.5671C803.166 25.0453 803.316 24.5484 803.466 24.0266C803.966 22.3619 804.391 21.1693 804.742 20.4487C804.842 20.1506 805.192 19.1567 805.817 17.4175C806.442 15.6782 806.867 14.3117 807.042 13.2681C807.392 12.1003 807.767 11.2307 808.142 10.6592C808.517 10.0878 809.042 9.81445 809.667 9.86414C809.917 9.86414 810.167 10.1126 810.417 10.5847C810.667 11.0568 810.917 11.6034 811.167 12.2742C811.417 12.9451 811.592 13.4172 811.692 13.7153C812.092 14.6844 812.792 17.0945 813.792 20.9208C813.992 21.6165 814.192 22.3371 814.392 23.0328C814.442 23.4303 815.267 25.9149 816.867 30.4867C817.343 31.8781 817.817 33.2695 818.293 34.6857C818.743 35.8784 819.193 37.071 819.643 38.2636C821.043 42.2639 821.943 44.7237 822.343 45.5933C824.093 50.9602 825.118 54.215 825.418 55.3331C825.768 56.65 826.318 58.2898 827.093 60.2776C827.868 62.2653 828.293 63.3834 828.393 63.6318C828.543 63.9797 828.618 64.253 828.618 64.4021C828.618 64.6008 828.343 64.6754 827.793 64.6505C826.393 64.5512 824.993 64.4766 823.593 64.4021C823.393 64.4021 823.218 64.3524 823.118 64.253C822.993 64.1785 822.868 63.9797 822.768 63.6815C822.568 63.1101 822.293 62.2156 821.943 60.9484C821.493 59.6813 821.193 58.5383 821.043 57.5445C820.893 56.7991 820.643 55.8797 820.343 54.8113C820.018 53.743 819.743 52.9479 819.493 52.3764C819.043 51.4074 818.643 50.3141 818.293 49.0967C818.067 48.3513 817.843 47.6307 817.617 46.8853C817.367 46.3139 817.167 45.966 817.042 45.8418C816.917 45.7176 816.717 45.643 816.417 45.6182C815.367 45.5436 814.592 45.5436 814.092 45.5436C813.017 45.5436 811.942 45.5188 810.867 45.4939C810.467 45.5188 808.617 45.4442 805.317 45.2455C803.791 45.1461 802.266 45.0715 800.741 44.9722C800.691 44.9722 800.641 44.9722 800.591 44.9722C800.291 44.9722 800.066 45.2206 799.916 45.7424C799.866 45.9909 799.816 46.2393 799.766 46.4878C799.666 46.9599 799.566 47.4071 799.466 47.8792C799.366 48.1773 799.041 49.5936 798.491 52.1528C798.341 52.9976 798.091 54.066 797.741 55.3828C797.641 56.3767 797.416 57.1718 797.066 57.7929C796.966 57.942 796.841 58.265 796.691 58.8116C796.541 59.3582 796.416 59.7806 796.316 60.1285C796.166 60.526 795.991 61.1472 795.791 62.0417C795.741 62.0914 795.691 62.1907 795.641 62.3647C795.591 62.5386 795.516 62.638 795.416 62.638C795.316 62.638 795.166 62.6628 794.966 62.638C794.466 62.6131 793.966 62.5883 793.466 62.5634C793.016 62.5386 792.891 62.2156 793.091 61.5696L793.116 61.669ZM807.792 40.3756C808.392 40.301 809.242 40.301 810.342 40.3756C811.692 40.475 813.042 40.5743 814.392 40.6986C815.042 40.7483 815.367 40.5743 815.367 40.2265C815.367 39.978 815.192 39.4066 814.842 38.5618C814.542 37.7915 814.092 36.3753 813.492 34.313C813.042 32.6483 812.592 31.2072 812.142 29.9898C811.642 28.4741 811.117 26.6603 810.542 24.5981C809.967 22.5358 809.642 21.1941 809.517 20.5978C808.767 17.9144 808.267 16.5727 808.017 16.5478C807.867 16.5478 807.617 17.1938 807.267 18.5107C807.117 19.0573 806.967 19.5791 806.817 20.1257C806.467 21.4426 806.017 23.1073 805.467 25.0702C804.917 27.0579 804.416 28.7226 803.966 30.0891C803.666 31.3563 803.241 32.9713 802.741 34.9094C802.216 36.8474 801.816 38.1642 801.516 38.9096C801.416 39.2078 801.366 39.3817 801.366 39.4314C801.366 39.7793 801.516 40.0029 801.841 40.1271C802.166 40.2513 802.491 40.301 802.816 40.301C803.141 40.301 803.341 40.301 803.441 40.301C804.892 40.3259 806.342 40.3756 807.792 40.4004V40.3756Z" fill="#E64927"/>
<path d="M172.219 141.311C171.769 141.311 170.843 141.311 169.443 141.385C167.618 141.509 165.793 141.634 163.968 141.758C163.418 141.758 163.068 141.659 162.968 141.509C162.843 141.36 162.793 141.162 162.768 140.888C162.768 140.615 162.768 140.441 162.768 140.317C162.743 139 162.718 137.683 162.693 136.366C162.693 135.671 162.693 135.074 162.618 134.577C162.618 132.888 162.568 131.198 162.543 129.509C162.543 128.763 162.568 127.993 162.643 127.223C162.718 126.453 162.768 125.881 162.743 125.533C162.893 124.39 162.968 123.098 162.968 121.632C162.943 118.8 162.918 115.967 162.893 113.135C162.918 111.495 162.943 109.855 162.968 108.215C163.068 105.929 163.118 104.19 163.118 102.997C163.118 100.215 163.068 96.7859 162.968 92.7111C162.968 91.8166 163.093 91.2203 163.293 90.8973C163.518 90.5991 163.868 90.4252 164.318 90.4003C164.618 90.4003 164.918 90.4003 165.243 90.4003C165.568 90.4252 165.943 90.45 166.393 90.4003C168.293 90.2513 170.193 90.1022 172.094 89.9531C173.694 89.8289 175.294 89.6798 176.894 89.5556C177.494 89.5307 178.169 89.4562 178.919 89.3816C179.669 89.2822 180.419 89.2077 181.169 89.1083C182.869 88.8599 184.27 88.7356 185.37 88.6611C187.47 88.5865 189.57 88.4872 191.67 88.4126C192.82 88.3629 193.395 88.7108 193.395 89.4562V93.1831C193.395 93.6304 193.32 93.9037 193.145 93.9782C192.97 94.0528 192.595 94.1273 192.045 94.1521C191.395 94.177 190.82 94.177 190.32 94.1521C188.72 94.2018 187.12 94.2515 185.52 94.3261C183.619 94.4255 181.769 94.6242 179.969 94.8975C178.744 95.0466 177.519 95.1708 176.294 95.3199C176.219 95.7672 176.144 96.2144 176.069 96.6616C175.969 97.7549 175.919 98.6245 175.919 99.2705C175.894 101.482 175.869 103.693 175.844 105.905C175.819 107.172 175.794 108.439 175.769 109.706V111.495C176.819 111.445 177.594 111.371 178.094 111.296C179.294 111.197 180.494 111.122 181.694 111.048C182.694 110.973 183.694 110.899 184.695 110.824C185.395 110.75 186.37 110.675 187.62 110.6C188.42 110.551 188.945 110.625 189.22 110.824C189.495 111.023 189.645 111.321 189.62 111.768C189.62 112.588 189.57 113.408 189.545 114.228C189.545 114.626 189.445 114.899 189.195 115.073C188.97 115.222 188.52 115.321 187.82 115.371C186.92 115.421 186.17 115.421 185.57 115.421C184.57 115.446 183.569 115.47 182.569 115.495C180.244 115.619 177.919 115.744 175.594 115.868C175.594 117.16 175.619 118.104 175.669 118.7C175.694 120.266 175.719 121.831 175.744 123.396C175.719 124.614 175.694 125.831 175.669 127.049C175.569 128.639 175.519 129.856 175.519 130.701C175.544 133.633 175.569 136.565 175.594 139.497C175.594 140.143 175.469 140.59 175.169 140.863C174.894 141.137 174.444 141.261 173.869 141.311C173.619 141.311 173.044 141.311 172.144 141.261L172.219 141.311Z" fill="#E64927"/>
<path d="M197.821 140.839C197.396 140.839 197.146 140.839 197.02 140.714C196.92 140.615 196.87 140.416 196.87 140.118C196.87 139.323 196.92 138.528 196.945 137.733C196.995 134.478 197.045 131.223 197.096 127.968C197.146 122.75 197.196 117.533 197.246 112.315C197.246 110.824 197.346 107.445 197.546 102.153C197.596 100.91 197.671 98.8729 197.771 96.0652C197.871 93.2576 197.871 91.5929 197.771 91.1208C197.771 90.599 197.721 90.0772 197.696 89.5555C197.696 88.2635 198.096 87.5926 198.896 87.5678C199.821 87.5678 200.746 87.5181 201.671 87.5181C202.171 87.5181 202.421 87.8411 202.421 88.5368C202.421 88.7852 202.396 89.0834 202.346 89.4064C202.296 89.7294 202.271 90.0524 202.271 90.3506C202.121 91.4438 201.996 94.2763 201.896 98.7984C201.896 100.19 201.796 103.718 201.596 109.408C201.396 114.899 201.296 118.228 201.296 119.421C201.296 122.303 201.346 125.956 201.446 130.328C201.546 134.726 201.646 137.335 201.746 138.18C201.796 138.478 201.821 138.826 201.821 139.224C201.821 139.571 201.746 139.82 201.621 139.969C201.496 140.118 201.321 140.292 201.071 140.441C200.771 140.665 199.996 140.789 198.746 140.863C198.546 140.863 198.221 140.863 197.796 140.913L197.821 140.839Z" fill="#E64927"/>
<path d="M210.096 139.621C210.046 139.447 210.021 139.124 210.021 138.627C209.971 138.081 209.946 137.161 209.946 135.869C209.946 135.472 209.921 135.049 209.871 134.577C209.821 134.105 209.796 133.484 209.796 132.689V122.477C209.796 121.483 209.846 120.514 209.896 119.57C209.971 118.626 210.021 117.93 210.021 117.483C210.221 115.197 210.321 112.986 210.321 110.899C210.321 108.315 210.246 106.277 210.096 104.786C209.996 103.097 209.946 101.556 209.946 100.165C209.946 97.0343 210.021 93.3819 210.171 89.2077C210.171 88.5617 210.296 88.1145 210.546 87.8908C210.796 87.6672 211.146 87.5181 211.597 87.5181C211.972 87.5181 212.347 87.5181 212.722 87.5181C213.172 87.5181 213.897 87.5181 214.897 87.5181C215.897 87.543 217.122 87.5181 218.572 87.4684C220.222 87.3939 222.172 87.1951 224.423 86.8473C227.123 86.5243 228.923 86.3504 229.823 86.3255C231.873 86.2261 233.748 86.2261 235.448 86.3255C236.348 86.3255 237.248 86.3007 238.149 86.3007C238.799 86.2758 239.224 86.4001 239.424 86.6982C239.624 86.9964 239.724 87.543 239.724 88.3381C239.724 88.7853 239.774 89.5556 239.874 90.6488C239.974 91.9408 240.024 93.0589 240.024 94.0031C240.024 94.9969 239.949 95.9162 239.799 96.761C239.749 97.5064 239.399 97.904 238.749 97.9288C238.549 97.9288 238.274 97.904 237.924 97.8046C237.574 97.73 237.298 97.6555 237.098 97.6058C236.348 97.4816 234.173 97.5064 230.573 97.6555C229.623 97.6555 228.673 97.6803 227.723 97.7052C227.073 97.7052 226.123 97.7052 224.873 97.7549C223.972 97.8046 223.297 97.8543 222.847 97.9288C221.347 98.1027 220.022 98.2021 218.872 98.2518C217.547 98.2767 216.222 98.3263 214.897 98.3512C214.497 98.3512 214.272 98.4754 214.222 98.6493C214.172 98.8233 214.147 99.2457 214.147 99.8917C214.147 100.786 214.147 101.556 214.072 102.202C213.972 104.19 213.922 105.805 213.922 107.047V111.445C213.922 112.489 213.947 113.284 213.997 113.831C214.397 113.855 215.072 113.831 216.022 113.831C216.872 113.831 218.622 113.781 221.272 113.681C222.372 113.632 223.972 113.508 226.073 113.334C227.673 113.16 228.723 113.06 229.223 113.035C229.923 113.011 230.623 113.035 231.323 113.035C232.023 113.085 232.548 113.085 232.898 113.085C233.548 113.06 233.873 113.334 233.873 113.93C233.873 114.129 233.873 114.427 233.798 114.8C233.748 115.172 233.723 115.669 233.723 116.265C233.748 117.582 233.773 118.899 233.798 120.216C233.798 120.663 233.748 120.986 233.648 121.16C233.548 121.334 233.373 121.434 233.123 121.434C232.973 121.434 232.748 121.434 232.498 121.359C232.223 121.284 231.998 121.26 231.773 121.284C231.323 121.284 230.498 121.309 229.273 121.309C228.048 121.309 226.373 121.359 224.298 121.458C222.047 121.558 220.097 121.757 218.447 122.005C216.797 122.278 215.797 122.427 215.447 122.427C214.897 122.452 214.572 122.427 214.472 122.403C214.222 122.403 214.072 122.403 214.022 122.353V129.807C214.372 129.807 214.647 129.757 214.847 129.683C215.547 129.633 216.247 129.558 216.947 129.509C219.897 129.36 222.847 129.186 225.798 129.037C227.598 128.962 229.023 128.912 230.073 128.937C231.798 128.887 233.523 128.838 235.248 128.788C236.298 128.714 237.349 128.639 238.399 128.589C238.999 128.564 239.399 128.689 239.599 128.962C239.799 129.235 239.899 129.608 239.899 130.105C239.874 130.602 239.849 131.099 239.824 131.596C239.824 133.335 239.774 135.074 239.749 136.813C239.749 137.609 239.574 138.105 239.224 138.279C238.874 138.478 238.374 138.553 237.724 138.553C237.073 138.553 236.548 138.553 236.148 138.578C233.998 138.677 232.148 138.727 230.598 138.727C228.048 138.801 225.498 138.901 222.947 138.975C222.347 139 219.347 139.199 213.947 139.596C212.997 139.671 212.047 139.721 211.096 139.795C210.946 139.82 210.796 139.87 210.646 139.894C210.346 139.894 210.171 139.82 210.121 139.671L210.096 139.621Z" fill="#E64927"/>
<path d="M249.75 135.472C247.799 132.788 246.774 131.397 246.674 131.298C246.474 131.049 246.374 130.801 246.374 130.552C246.374 130.403 246.574 130.08 246.974 129.558C247.624 128.639 248.574 127.521 249.825 126.229C250.025 126.03 250.225 125.906 250.425 125.906C250.675 125.906 250.95 126.08 251.25 126.428C251.55 126.775 251.8 127.074 252 127.248C254.95 130.055 258.3 131.397 262.05 131.273C263.951 131.198 265.601 130.776 267.001 130.006C268.401 129.235 269.101 127.869 269.101 125.856C269.101 122.427 266.376 118.874 260.925 115.197C260.025 114.626 259.175 114.178 258.375 113.806C256.275 112.737 254.475 111.694 252.975 110.65C251.475 109.607 250.15 108.215 248.999 106.476C247.849 104.737 247.274 102.674 247.274 100.289C247.274 97.3076 248.224 94.5745 250.075 92.1147C251.95 89.6549 254.2 87.7169 256.825 86.2758C259.45 84.8347 261.75 84.0893 263.676 84.0147C268.426 83.8408 272.326 84.6359 275.427 86.4C278.502 88.1641 280.902 89.8537 282.577 91.4935C282.777 91.6923 282.877 91.9159 282.877 92.1644C282.877 92.3135 282.802 92.5122 282.677 92.7359C282.552 92.9595 282.452 93.1334 282.427 93.2328C282.177 93.5806 281.752 94.2018 281.177 95.0963C280.602 95.9907 280.127 96.6367 279.802 97.0343C279.652 97.2331 279.502 97.4567 279.302 97.6803C279.127 97.9039 278.977 98.0778 278.852 98.1772C278.727 98.2766 278.552 98.3263 278.277 98.3511C278.177 98.3511 277.927 98.2021 277.577 97.8791C277.202 97.5809 276.827 97.3076 276.477 97.0591C274.476 95.3944 272.526 93.9782 270.626 92.7855C268.726 91.6178 266.901 91.0463 265.151 91.1208C263.751 91.1705 262.601 91.5184 261.7 92.1892C260.8 92.8352 260.35 94.2763 260.35 96.438C260.35 98.5748 261.15 100.215 262.751 101.333C264.351 102.476 266.476 103.519 269.126 104.538C269.376 104.637 270.851 105.184 273.526 106.252C276.202 107.296 278.577 109.408 280.652 112.563C282.727 115.719 283.752 119.545 283.752 124.018C283.752 128.788 281.952 132.416 278.352 134.925C274.751 137.435 269.776 138.801 263.426 139.025C256.225 139.298 251.65 138.081 249.7 135.422L249.75 135.472Z" fill="#E64927"/>
<path d="M302.479 135.919C302.379 135.72 302.329 135.372 302.329 134.851V133.708C302.429 130.627 302.529 127.546 302.629 124.465C302.929 116.414 303.079 111.222 303.079 108.936C303.079 107.644 303.029 105.706 302.929 103.122C302.929 101.805 302.879 100.488 302.854 99.1711C299.253 99.2704 295.603 99.4444 291.903 99.668C291.128 99.7177 290.353 99.7674 289.578 99.8171C288.928 99.8171 288.478 99.668 288.228 99.345C287.978 98.9971 287.928 98.5996 288.078 98.1524C288.103 97.5312 288.128 96.91 288.153 96.2889C288.253 93.4067 288.303 90.7481 288.303 88.3132C288.303 87.1205 288.278 86.4 288.228 86.1515V85.6297C288.228 85.0831 288.353 84.7601 288.553 84.6359C288.778 84.5365 289.128 84.462 289.578 84.462C292.053 84.3874 294.528 84.3129 297.003 84.2383C298.403 84.1638 299.803 84.1141 301.204 84.0396C303.804 83.8656 305.629 83.7663 306.679 83.7166C308.179 83.7166 309.679 83.6669 311.179 83.6669C314.78 83.6669 317.605 83.642 319.655 83.5923C321.155 83.5426 322.13 83.4929 322.58 83.4433C323.68 83.3687 324.455 83.493 324.905 83.8656C325.355 84.2135 325.58 84.6359 325.58 85.0831C325.58 85.3316 325.555 85.9776 325.48 87.0211C325.405 88.0647 325.38 89.3567 325.38 90.8972C325.38 92.2886 325.455 94.1769 325.605 96.5622C325.605 97.9039 324.73 98.5996 322.98 98.6493C318.58 98.7735 314.18 98.8977 309.779 99.022C309.729 101.581 309.679 104.14 309.629 106.7C309.579 107.544 309.554 109.656 309.554 113.035C309.554 116.514 309.579 119.893 309.629 123.173C309.679 126.452 309.704 129.285 309.704 131.67C309.704 132.689 309.754 133.708 309.779 134.726V135.099C309.779 135.546 309.704 135.82 309.604 135.919C309.479 136.018 309.304 136.068 309.104 136.093C308.904 136.093 308.754 136.093 308.654 136.093C306.954 136.143 305.254 136.192 303.554 136.242C302.954 136.242 302.604 136.167 302.504 135.969L302.479 135.919Z" fill="#E64927"/>
<path d="M324.98 134.602C324.98 134.453 324.98 134.329 325.055 134.229C325.055 134.13 325.055 134.006 325.13 133.857C325.18 133.708 325.255 133.484 325.355 133.186C325.58 132.267 325.805 131.347 326.03 130.403C326.13 130.105 326.305 129.583 326.555 128.813C326.805 128.067 326.98 127.347 327.08 126.701C327.331 125.508 327.806 123.67 328.506 121.21L329.106 119.098C330.056 115.992 330.656 113.806 330.906 112.563C331.256 111.246 331.606 109.905 331.956 108.588C332.456 106.923 332.756 105.88 332.856 105.432C333.206 103.942 333.706 102.053 334.356 99.8171C334.531 99.1214 334.706 98.4257 334.881 97.73C335.031 97.2082 335.181 96.6864 335.331 96.1646C335.831 94.4751 336.256 93.2328 336.606 92.4874C336.706 92.1892 337.056 91.1457 337.681 89.3816C338.306 87.5926 338.731 86.1764 338.931 85.1328C339.281 83.9402 339.631 83.0209 340.031 82.4246C340.407 81.8283 340.907 81.5052 341.557 81.5052C341.807 81.5052 342.057 81.7289 342.307 82.1513C342.557 82.5985 342.807 83.1451 343.057 83.7663C343.307 84.4123 343.482 84.8844 343.582 85.1577C343.982 86.1018 344.682 88.4374 345.682 92.1892C345.882 92.8849 346.082 93.5806 346.282 94.2515C346.332 94.649 347.157 97.0591 348.757 101.507C349.232 102.873 349.707 104.215 350.182 105.581C350.632 106.749 351.082 107.892 351.532 109.06C352.932 112.961 353.833 115.321 354.233 116.166C355.983 121.409 357.008 124.564 357.308 125.633C357.658 126.925 358.208 128.515 358.983 130.453C359.758 132.366 360.183 133.459 360.283 133.708C360.433 134.055 360.508 134.304 360.508 134.453C360.508 134.652 360.233 134.751 359.683 134.776C358.283 134.801 356.883 134.826 355.483 134.851C355.283 134.851 355.108 134.826 355.008 134.751C354.883 134.677 354.758 134.503 354.658 134.205C354.458 133.658 354.183 132.763 353.833 131.546C353.383 130.304 353.082 129.21 352.932 128.217C352.782 127.471 352.532 126.577 352.207 125.558C351.882 124.514 351.582 123.744 351.357 123.198C350.907 122.253 350.507 121.21 350.157 120.017C349.932 119.297 349.707 118.576 349.482 117.88C349.232 117.334 349.032 117.011 348.907 116.887C348.782 116.762 348.582 116.713 348.257 116.713C347.207 116.713 346.432 116.787 345.932 116.837C344.857 116.911 343.782 116.986 342.707 117.06C342.307 117.11 340.457 117.185 337.156 117.259C335.631 117.284 334.106 117.334 332.581 117.359C332.531 117.359 332.481 117.359 332.431 117.359C332.131 117.359 331.906 117.657 331.756 118.203C331.706 118.452 331.656 118.7 331.606 118.949C331.506 119.421 331.406 119.893 331.306 120.365C331.206 120.663 330.881 122.104 330.331 124.713C330.181 125.558 329.931 126.651 329.581 128.018C329.481 129.012 329.256 129.832 328.906 130.502C328.806 130.652 328.681 130.999 328.531 131.546C328.381 132.093 328.256 132.54 328.156 132.888C328.006 133.285 327.831 133.931 327.631 134.826C327.581 134.875 327.531 135 327.481 135.174C327.431 135.347 327.356 135.447 327.256 135.472C327.155 135.497 327.005 135.521 326.805 135.521C326.305 135.521 325.805 135.546 325.305 135.571C324.855 135.571 324.73 135.273 324.93 134.602H324.98ZM339.706 112.116C340.307 111.992 341.157 111.942 342.257 111.917C343.607 111.917 344.957 111.917 346.307 111.917C346.957 111.917 347.282 111.719 347.282 111.371C347.282 111.122 347.107 110.576 346.757 109.731C346.457 108.985 346.007 107.619 345.407 105.581C344.957 103.942 344.507 102.55 344.057 101.358C343.557 99.8668 343.032 98.1275 342.457 96.0901C341.882 94.0775 341.557 92.7607 341.432 92.1644C340.682 89.5555 340.181 88.2386 339.931 88.2386C339.781 88.2386 339.531 88.9343 339.181 90.276C339.031 90.8227 338.881 91.3693 338.731 91.9159C338.381 93.2576 337.931 94.9472 337.381 96.9846C336.831 98.9971 336.331 100.736 335.881 102.128C335.581 103.42 335.156 105.06 334.631 107.047C334.106 109.035 333.706 110.377 333.381 111.147C333.281 111.445 333.231 111.619 333.231 111.669C333.231 112.017 333.381 112.24 333.706 112.315C334.031 112.414 334.356 112.439 334.681 112.414C335.006 112.389 335.231 112.365 335.331 112.365C336.781 112.29 338.231 112.191 339.681 112.116H339.706Z" fill="#E64927"/>
<path d="M386.56 131.148C383.885 128.738 382.135 126.105 381.31 123.247C380.485 120.415 380.085 117.98 380.085 115.992C380.085 113.855 380.135 111.718 380.16 109.582C380.21 108.638 380.235 107.569 380.235 106.376C380.235 105.73 380.31 105.333 380.46 105.209C380.61 105.084 380.91 105.035 381.36 105.084C381.91 105.084 383.46 104.886 386.01 104.488C386.91 104.414 387.36 104.861 387.36 105.805C387.36 106.103 387.31 106.526 387.21 107.072C387.11 107.619 387.06 108.116 387.06 108.563C387.06 113.383 387.435 117.11 388.135 119.719C388.86 122.353 389.835 124.142 391.06 125.086C392.286 126.03 393.811 126.502 395.611 126.477C397.611 126.452 399.261 125.906 400.536 124.813C401.811 123.719 402.711 122.427 403.286 120.937C403.836 119.446 404.111 118.029 404.111 116.688C404.186 109.83 404.261 102.973 404.336 96.1149C404.236 94.6241 404.186 92.9843 404.186 91.1953C404.186 88.7852 404.236 86.3751 404.261 83.965C404.161 82.7227 404.286 81.9525 404.636 81.6046C404.987 81.2816 405.487 81.1077 406.137 81.1077C406.437 81.058 406.912 80.9834 407.562 80.9089C408.212 80.8344 408.812 80.7847 409.362 80.7847C409.912 80.7847 410.312 80.7847 410.562 80.8344C411.412 80.8841 411.937 81.0331 412.137 81.3064C412.337 81.5798 412.412 82.2258 412.362 83.2693C412.312 90.8723 412.262 98.4753 412.212 106.078C412.162 106.426 412.162 106.824 412.162 107.246C412.162 107.669 412.187 108.041 412.212 108.389V110.774C412.212 126.577 407.487 134.528 398.036 134.652C393.086 134.726 389.26 133.534 386.585 131.124L386.56 131.148Z" fill="#E64927"/>
<path d="M416.987 132.962C416.987 132.813 417.012 132.689 417.062 132.59C417.062 132.49 417.087 132.366 417.137 132.217C417.187 132.068 417.262 131.844 417.362 131.546C417.587 130.627 417.812 129.707 418.037 128.788C418.137 128.49 418.312 127.968 418.562 127.223C418.812 126.477 418.987 125.782 419.088 125.136C419.338 123.943 419.813 122.129 420.513 119.669C420.713 118.974 420.913 118.278 421.113 117.582C422.063 114.501 422.663 112.34 422.913 111.073C423.263 109.756 423.613 108.439 423.963 107.122C424.463 105.482 424.763 104.439 424.863 103.991C425.213 102.501 425.713 100.637 426.363 98.376C426.538 97.6803 426.713 96.9846 426.888 96.2889C427.038 95.7671 427.188 95.2454 427.338 94.7236C427.838 93.034 428.263 91.8166 428.613 91.0712C428.713 90.773 429.063 89.7295 429.713 87.9654C430.338 86.2013 430.738 84.785 430.963 83.7415C431.313 82.5488 431.688 81.6544 432.063 81.058C432.439 80.4617 432.964 80.1636 433.589 80.1636C433.839 80.1636 434.089 80.3872 434.339 80.8344C434.589 81.2817 434.839 81.8283 435.089 82.4743C435.339 83.1203 435.514 83.5924 435.614 83.8905C436.014 84.8347 436.714 87.1951 437.714 90.9718C437.914 91.6675 438.114 92.3632 438.314 93.0589C438.364 93.4564 439.189 95.8914 440.789 100.339C441.264 101.705 441.739 103.072 442.214 104.439C442.664 105.606 443.114 106.774 443.564 107.942C444.964 111.868 445.865 114.253 446.265 115.073C448.015 120.34 449.04 123.496 449.34 124.589C449.69 125.881 450.24 127.496 451.04 129.434C451.815 131.372 452.24 132.465 452.34 132.714C452.49 133.062 452.565 133.31 452.565 133.459C452.565 133.658 452.29 133.757 451.74 133.757C450.34 133.757 448.94 133.757 447.54 133.757C447.34 133.757 447.19 133.732 447.065 133.658C446.94 133.583 446.815 133.385 446.715 133.086C446.515 132.54 446.24 131.645 445.89 130.403C445.44 129.161 445.14 128.043 444.989 127.049C444.839 126.303 444.614 125.409 444.264 124.365C443.939 123.322 443.639 122.527 443.414 121.98C442.964 121.036 442.564 119.968 442.214 118.775L441.539 116.613C441.289 116.067 441.089 115.744 440.964 115.619C440.839 115.495 440.639 115.446 440.314 115.446C439.264 115.446 438.489 115.47 437.989 115.545C436.914 115.595 435.839 115.669 434.764 115.719C434.364 115.769 432.514 115.818 429.213 115.843C427.688 115.843 426.163 115.843 424.638 115.893C424.588 115.893 424.538 115.893 424.488 115.893C424.188 115.893 423.963 116.166 423.813 116.713C423.763 116.961 423.713 117.21 423.663 117.458C423.563 117.93 423.463 118.402 423.363 118.874C423.263 119.172 422.938 120.614 422.388 123.198C422.238 124.042 421.988 125.136 421.638 126.477C421.538 127.471 421.313 128.291 420.963 128.937C420.863 129.086 420.738 129.434 420.588 129.981C420.438 130.527 420.313 130.975 420.213 131.322C420.063 131.72 419.888 132.366 419.688 133.26C419.638 133.31 419.588 133.434 419.538 133.608C419.488 133.782 419.413 133.882 419.313 133.906C419.213 133.931 419.062 133.956 418.862 133.956C418.362 133.956 417.862 133.956 417.362 133.956C416.912 133.956 416.787 133.633 416.987 132.987V132.962ZM431.688 110.7C432.289 110.6 433.139 110.526 434.239 110.526C435.589 110.526 436.939 110.551 438.289 110.576C438.939 110.576 439.264 110.402 439.264 110.054C439.264 109.805 439.089 109.259 438.739 108.414C438.439 107.669 437.989 106.277 437.389 104.24C436.939 102.6 436.489 101.184 436.039 99.991C435.539 98.5002 435.014 96.7361 434.414 94.6987C433.839 92.6613 433.514 91.3445 433.389 90.7482C432.639 88.1144 432.138 86.7976 431.888 86.7976C431.738 86.7976 431.488 87.4684 431.138 88.8101C430.988 89.3568 430.838 89.9034 430.688 90.45C430.338 91.7917 429.888 93.4813 429.338 95.4938C428.788 97.5064 428.288 99.2208 427.838 100.612C427.538 101.904 427.113 103.544 426.588 105.507C426.063 107.47 425.663 108.836 425.338 109.582C425.238 109.88 425.188 110.054 425.188 110.104C425.188 110.451 425.338 110.675 425.663 110.774C425.988 110.874 426.313 110.899 426.638 110.874C426.963 110.849 427.163 110.824 427.263 110.824C428.713 110.774 430.163 110.7 431.613 110.65L431.688 110.7Z" fill="#E64927"/>
<path d="M457.29 132.764V126.949C457.39 118.626 457.49 110.302 457.59 101.979C457.59 100.09 457.465 96.6616 457.215 91.6923C457.115 88.6362 457.015 85.5801 456.915 82.524C456.915 81.6792 457.24 81.2568 457.89 81.2568C458.14 81.2568 458.565 81.3314 459.165 81.4805C459.765 81.6295 460.24 81.7041 460.59 81.7041C461.99 81.9028 463.666 82.0022 465.616 82.0022C466.966 82.0022 468.241 81.9277 469.441 81.7786C470.191 81.6792 470.716 81.7289 471.016 81.9277C471.316 82.1265 471.466 82.4495 471.466 82.8967C471.466 83.2446 471.441 83.6173 471.341 83.9899C471.266 84.3626 471.216 84.7602 471.241 85.2323C471.191 86.574 471.141 87.9157 471.091 89.2574C470.891 93.3322 470.791 96.3883 470.791 98.4257C470.841 102.178 470.891 105.929 470.941 109.681C470.991 111.47 471.016 113.309 471.016 115.197C470.966 117.905 470.916 120.614 470.866 123.322C470.866 123.819 470.816 124.316 470.791 124.813C470.791 125.508 470.841 126.204 470.866 126.9C470.916 127.769 470.966 128.639 471.016 129.509C474.591 129.633 478.167 129.757 481.742 129.881C484.717 129.906 487.692 129.931 490.668 129.981C490.718 129.981 490.768 129.981 490.818 129.981C491.118 129.981 491.293 130.03 491.343 130.13C491.393 130.229 491.393 130.378 491.368 130.552C491.368 130.726 491.343 130.875 491.343 130.975C491.293 131.173 491.293 131.546 491.368 132.093C491.443 132.639 491.468 133.136 491.468 133.583C491.468 133.931 491.343 134.155 491.093 134.254C490.843 134.354 490.518 134.379 490.143 134.354C489.768 134.329 489.468 134.329 489.268 134.304C487.942 134.229 486.617 134.155 485.292 134.08C481.792 133.782 479.317 133.633 477.867 133.633C476.267 133.633 472.216 133.782 465.716 134.08C463.441 134.155 461.165 134.229 458.89 134.329C457.79 134.329 457.24 133.832 457.24 132.838L457.29 132.764Z" fill="#E64927"/>
<path d="M495.743 134.205C495.318 134.205 495.068 134.155 494.943 134.055C494.843 133.956 494.793 133.757 494.793 133.459C494.793 132.664 494.843 131.869 494.868 131.074C494.918 127.819 494.968 124.564 495.018 121.309C495.068 116.091 495.118 110.874 495.168 105.656C495.168 104.165 495.268 100.786 495.468 95.5186C495.518 94.2763 495.593 92.2637 495.693 89.4561C495.793 86.6484 495.793 85.0086 495.693 84.5116C495.693 83.9899 495.643 83.4681 495.618 82.9463C495.618 81.6543 496.018 81.0083 496.818 81.0083C497.743 81.0331 498.668 81.058 499.593 81.0828C500.093 81.0828 500.343 81.4307 500.343 82.1264C500.343 82.3749 500.318 82.673 500.268 82.9712C500.218 83.2942 500.193 83.5923 500.193 83.8905C500.043 84.9837 499.918 87.7914 499.818 92.3134C499.818 93.7048 499.718 97.233 499.518 102.898C499.318 108.364 499.218 111.694 499.218 112.886C499.218 115.768 499.268 119.421 499.368 123.794C499.468 128.192 499.568 130.801 499.668 131.67C499.718 131.968 499.743 132.316 499.743 132.714C499.743 133.062 499.668 133.31 499.543 133.459C499.418 133.608 499.243 133.757 498.993 133.906C498.693 134.105 497.918 134.205 496.668 134.205C496.468 134.205 496.143 134.205 495.718 134.205H495.743Z" fill="#E64927"/>
<path d="M509.144 131.173C507.194 128.415 506.169 126.974 506.069 126.875C505.869 126.626 505.769 126.378 505.769 126.129C505.769 125.98 505.969 125.657 506.369 125.16C507.019 124.266 507.969 123.198 509.219 121.98C509.419 121.781 509.619 121.682 509.819 121.682C510.069 121.682 510.344 121.881 510.644 122.253C510.944 122.626 511.194 122.924 511.394 123.123C514.344 126.08 517.694 127.571 521.445 127.595C523.345 127.595 524.995 127.272 526.395 126.552C527.795 125.856 528.495 124.49 528.495 122.502C528.495 119.073 525.77 115.396 520.32 111.47C519.42 110.874 518.57 110.377 517.769 109.954C515.669 108.787 513.869 107.669 512.369 106.55C510.869 105.457 509.544 103.991 508.394 102.202C507.244 100.413 506.669 98.3263 506.669 95.941C506.669 92.9594 507.619 90.276 509.494 87.9156C511.369 85.5304 513.619 83.6917 516.244 82.3749C518.87 81.058 521.17 80.412 523.12 80.412C527.87 80.4617 531.796 81.4307 534.871 83.319C537.946 85.2074 540.346 87.0211 542.046 88.7355C542.246 88.9343 542.346 89.1579 542.346 89.4064C542.346 89.5555 542.271 89.7542 542.146 89.953C542.021 90.1766 541.946 90.3257 541.896 90.4251C541.646 90.773 541.221 91.3693 540.646 92.2389C540.071 93.1085 539.596 93.7297 539.271 94.1272C539.121 94.326 538.946 94.5248 538.771 94.7484C538.596 94.972 538.446 95.1211 538.321 95.2205C538.196 95.3199 537.996 95.3695 537.746 95.3695C537.646 95.3695 537.421 95.1956 537.046 94.8726C536.671 94.5496 536.296 94.2515 535.946 94.003C533.946 92.2389 531.996 90.7233 530.095 89.4809C528.195 88.2138 526.37 87.5926 524.62 87.5678C523.22 87.5678 522.07 87.8659 521.17 88.4622C520.27 89.0834 519.82 90.4748 519.82 92.6613C519.82 94.7981 520.62 96.4628 522.22 97.6803C523.82 98.8729 525.945 100.041 528.595 101.159C528.845 101.258 530.32 101.904 532.996 103.072C535.671 104.24 538.046 106.451 540.121 109.706C542.196 112.961 543.221 116.837 543.246 121.309C543.246 126.08 541.446 129.633 537.846 131.968C534.246 134.304 529.27 135.447 522.92 135.397C515.719 135.347 511.144 133.931 509.194 131.148L509.144 131.173Z" fill="#E64927"/>
<path d="M558.848 131.571C555.872 129.111 553.472 125.782 551.672 121.583C549.872 117.384 548.972 112.787 548.972 107.768C548.972 102.799 549.847 98.3263 551.547 94.3757C553.272 90.4251 555.472 87.3442 558.198 85.1577C560.898 82.9712 563.673 81.878 566.523 81.9276C570.074 81.9773 572.949 82.7724 575.124 84.2632C577.299 85.7789 578.874 87.1951 579.824 88.5617C580.024 88.8598 580.199 89.1331 580.374 89.3816C580.549 89.63 580.624 89.8785 580.624 90.127C580.624 90.4251 580.349 90.8227 579.799 91.2948C577.499 93.034 575.849 94.5745 574.849 95.8914C574.349 96.5374 573.924 97.0094 573.574 97.3324C573.224 97.6554 572.874 97.8045 572.524 97.8045C572.174 97.8045 571.774 97.5312 571.324 97.0343C570.274 95.8665 569.474 95.0466 568.898 94.5745C568.323 94.1024 567.623 93.8539 566.823 93.8291C565.573 93.8291 564.348 94.3012 563.098 95.3447C561.873 96.3634 560.823 98.0778 559.973 100.488C559.123 102.898 558.698 105.979 558.698 109.756C558.698 113.433 559.248 116.365 560.323 118.526C561.398 120.713 562.623 122.229 563.998 123.098C565.373 123.968 566.548 124.415 567.573 124.415C568.473 124.415 569.399 124.142 570.349 123.521C571.299 122.924 572.124 122.278 572.824 121.583C572.924 121.483 573.074 121.309 573.299 121.061C573.524 120.812 573.749 120.688 573.924 120.713C574.174 120.713 574.474 120.812 574.824 121.036C576.949 122.253 579.074 123.446 581.199 124.664C581.399 124.763 581.724 124.912 582.149 125.086C582.575 125.26 582.875 125.434 583.05 125.583C583.225 125.732 583.3 125.931 583.3 126.179C583.3 126.428 583.225 126.701 583.075 126.999C581.974 128.813 580.249 130.676 577.899 132.565C575.549 134.453 572.299 135.372 568.148 135.298C564.898 135.248 561.798 133.981 558.798 131.546L558.848 131.571Z" fill="#E64927"/>
<path d="M589.075 135.347C588.65 135.347 588.375 135.273 588.275 135.174C588.175 135.074 588.125 134.875 588.125 134.577C588.125 133.782 588.175 132.987 588.2 132.192C588.25 128.937 588.3 125.682 588.35 122.427C588.4 117.21 588.45 111.992 588.5 106.774C588.5 105.283 588.6 101.904 588.8 96.6367C588.85 95.3944 588.925 93.3818 589.025 90.5741C589.125 87.7665 589.125 86.1266 589.025 85.6297C589.025 85.1079 588.975 84.5862 588.95 84.0644C588.95 82.7724 589.35 82.1264 590.15 82.1512C591.075 82.2009 592 82.2506 592.925 82.2754C593.425 82.2754 593.675 82.6481 593.675 83.3438C593.675 83.5923 593.65 83.8656 593.6 84.1886C593.55 84.5116 593.525 84.8098 593.525 85.1079C593.375 86.2012 593.25 89.0088 593.15 93.5309C593.15 94.9223 593.05 98.4505 592.85 104.115C592.65 109.582 592.55 112.911 592.55 114.104C592.55 116.986 592.6 120.638 592.7 125.036C592.8 129.434 592.9 132.068 593 132.912C593.05 133.211 593.075 133.558 593.075 133.956C593.075 134.304 593 134.552 592.875 134.701C592.75 134.851 592.575 135 592.325 135.124C592.025 135.323 591.25 135.397 590 135.372C589.8 135.372 589.475 135.372 589.05 135.372L589.075 135.347Z" fill="#E64927"/>
<path d="M601.351 134.975C601.301 134.801 601.276 134.453 601.276 133.956C601.226 133.41 601.201 132.49 601.201 131.198C601.201 130.801 601.201 130.378 601.126 129.881C601.076 129.409 601.051 128.763 601.051 127.968V117.756C601.051 116.762 601.101 115.793 601.151 114.849C601.226 113.905 601.251 113.209 601.276 112.762C601.476 110.476 601.576 108.29 601.576 106.203C601.576 103.619 601.501 101.581 601.351 100.09C601.251 98.4009 601.201 96.8604 601.201 95.469C601.201 92.3384 601.276 88.686 601.426 84.5118C601.426 83.8657 601.551 83.4434 601.801 83.2197C602.051 82.9961 602.401 82.8967 602.851 82.8967C603.226 82.9216 603.601 82.9713 603.976 82.9961C604.426 82.9961 605.151 83.0707 606.151 83.17C607.151 83.2694 608.376 83.344 609.826 83.3688C611.477 83.4185 613.427 83.3191 615.677 83.1452C618.377 83.021 620.177 82.9713 621.077 82.9961C623.127 83.0458 625.003 83.17 626.703 83.3688C627.603 83.4185 628.503 83.4682 629.403 83.5179C630.053 83.5179 630.478 83.6918 630.678 83.99C630.878 84.2881 630.978 84.8348 630.978 85.6298C630.978 86.0771 631.028 86.8473 631.128 87.9406C631.228 89.2326 631.278 90.3507 631.278 91.2948C631.278 92.2887 631.203 93.208 631.053 94.0528C631.003 94.7982 630.653 95.146 630.003 95.146C629.803 95.146 629.528 95.0715 629.178 94.9721C628.828 94.8727 628.553 94.7733 628.353 94.7236C627.603 94.5497 625.428 94.4255 621.827 94.3261C620.877 94.2764 619.927 94.2267 618.977 94.177C618.327 94.1025 617.377 94.0528 616.127 94.0279C615.227 94.0279 614.552 94.0279 614.102 94.0528C612.602 94.1273 611.277 94.1273 610.126 94.1025C608.801 94.0528 607.476 93.9782 606.151 93.9286C605.751 93.9286 605.526 94.0031 605.476 94.177C605.426 94.3509 605.401 94.7485 605.401 95.3945C605.401 96.289 605.376 97.0592 605.326 97.7052C605.226 99.6929 605.176 101.308 605.176 102.55V106.948C605.176 107.992 605.176 108.787 605.251 109.333C605.651 109.383 606.326 109.433 607.276 109.458C608.126 109.532 609.876 109.607 612.527 109.656C613.627 109.681 615.227 109.656 617.327 109.632C618.927 109.582 619.977 109.557 620.477 109.557C621.177 109.557 621.877 109.632 622.577 109.731C623.277 109.83 623.803 109.88 624.153 109.88C624.803 109.88 625.128 110.203 625.128 110.799C625.128 110.998 625.103 111.271 625.053 111.644C625.003 112.017 624.978 112.489 624.978 113.085C625.003 114.402 625.028 115.719 625.053 117.036C625.053 117.483 625.003 117.781 624.903 117.955C624.803 118.129 624.628 118.204 624.378 118.204C624.228 118.204 624.003 118.154 623.753 118.079C623.478 118.005 623.252 117.955 623.027 117.955C622.577 117.955 621.727 117.905 620.527 117.806C619.302 117.731 617.652 117.657 615.527 117.607C613.277 117.558 611.327 117.607 609.676 117.756C608.026 117.905 607.026 117.98 606.676 117.98C606.126 117.98 605.801 117.93 605.701 117.881C605.451 117.881 605.301 117.856 605.251 117.806V125.26C605.601 125.26 605.876 125.26 606.076 125.21C606.776 125.21 607.476 125.21 608.176 125.185C611.127 125.235 614.077 125.285 617.027 125.334C618.827 125.384 620.252 125.434 621.302 125.508C623.027 125.583 624.753 125.657 626.478 125.732C627.528 125.732 628.578 125.732 629.628 125.732C630.228 125.732 630.628 125.906 630.828 126.179C631.028 126.453 631.128 126.85 631.128 127.347C631.128 127.844 631.078 128.341 631.053 128.838C631.053 130.577 631.003 132.316 630.978 134.056C630.978 134.851 630.803 135.323 630.453 135.497C630.103 135.671 629.603 135.72 628.953 135.671C628.303 135.621 627.778 135.596 627.378 135.596C625.228 135.546 623.377 135.472 621.827 135.372C619.277 135.273 616.727 135.198 614.177 135.099C613.577 135.099 610.576 135.099 605.176 135.099C604.226 135.099 603.276 135.099 602.326 135.099C602.176 135.099 602.026 135.149 601.876 135.174C601.576 135.174 601.401 135.074 601.351 134.9V134.975Z" fill="#E64927"/>
<path d="M640.204 136.565C639.954 136.292 639.804 135.969 639.754 135.621C639.704 135.273 639.654 135.024 639.604 134.875C639.404 133.981 639.304 132.888 639.304 131.596C639.304 130.403 639.329 129.384 639.379 128.54C639.379 125.956 639.429 122.924 639.529 119.495C639.629 116.042 639.754 113.582 639.904 112.091C640.029 110.327 640.154 108.563 640.279 106.799C640.879 98.5747 641.179 93.9284 641.179 92.8849C641.179 88.9591 641.254 86.0273 641.404 84.0893C641.504 82.7475 642.204 82.1015 643.504 82.1512C643.904 82.1512 644.279 82.2009 644.629 82.2506C644.979 82.3003 645.254 82.35 645.454 82.35C647.579 82.3997 649.704 82.4245 651.83 82.4742C652.93 82.4991 653.755 82.6481 654.255 82.8966C654.78 83.1451 655.18 83.5426 655.505 84.0893C656.005 85.1576 656.63 86.4994 657.38 88.1641C658.305 90.1766 659.23 92.1892 660.155 94.2266C661.33 96.8355 662.505 99.4195 663.681 102.028C664.331 103.445 665.181 105.308 666.231 107.619C667.281 109.93 668.031 111.545 668.481 112.464C669.331 114.228 669.881 115.321 670.131 115.719C670.831 117.11 671.531 118.502 672.231 119.893C673.006 121.433 673.781 122.974 674.556 124.514C674.506 123.073 674.456 121.632 674.406 120.191C674.306 117.756 674.206 115.321 674.106 112.886V110.65C674.106 107.917 674.156 105.159 674.256 102.376C674.256 100.289 674.231 98.5996 674.181 97.3076C674.181 95.4192 674.131 93.5309 674.106 91.6426C674.206 89.2573 674.306 86.8721 674.406 84.4868C674.406 83.7414 674.781 83.3935 675.531 83.4184C675.781 83.4184 676.282 83.5178 677.032 83.6917C677.482 83.8159 677.957 83.8656 678.457 83.8905C678.957 83.8905 679.357 83.9153 679.657 83.9402C680.057 83.9402 680.332 84.0147 680.432 84.1141C680.557 84.2135 680.632 84.3874 680.632 84.6359C680.632 84.8346 680.632 85.0583 680.557 85.3067C680.507 85.5552 680.482 85.8285 680.482 86.1267C680.482 88.2635 680.432 90.4002 680.407 92.537C680.357 97.556 680.307 102.575 680.257 107.594C680.257 108.315 680.207 109.035 680.182 109.756C680.182 111.445 680.182 112.986 680.257 114.377C680.307 115.768 680.357 116.911 680.407 117.806C680.557 119.943 680.632 121.732 680.632 123.173C680.632 122.974 680.707 125.931 680.857 132.043C680.907 133.434 680.957 134.826 681.007 136.217V136.366C681.007 137.36 680.532 137.782 679.582 137.658C679.432 137.608 679.132 137.559 678.682 137.559C677.957 137.559 677.232 137.559 676.507 137.559C676.357 137.559 676.207 137.559 676.057 137.559C675.707 137.559 675.431 137.459 675.281 137.31C675.106 137.161 674.806 136.714 674.406 136.018C674.256 135.67 674.056 135.174 673.806 134.503C673.556 133.857 673.256 133.111 672.906 132.316C670.756 126.875 669.206 123.173 668.256 121.21C667.156 119.073 664.381 113.01 659.93 102.973C658.93 100.91 657.805 98.6989 656.555 96.3882C655.83 95.0714 655.105 93.7545 654.38 92.4376C654.455 94.7981 654.53 97.1585 654.605 99.5189C654.63 100.985 654.655 102.451 654.68 103.917C654.78 107.196 654.83 109.358 654.83 110.402C654.83 114.476 654.905 118.576 655.055 122.701C655.055 124.639 655.105 126.577 655.13 128.515C655.13 129.558 655.18 131.074 655.28 133.062C655.33 133.931 655.38 134.801 655.43 135.67V135.82C655.43 136.316 655.305 136.639 655.055 136.764C654.805 136.913 654.455 136.962 654.005 136.962C653.455 136.962 652.905 136.962 652.355 136.962C651.305 137.087 650.18 137.112 648.979 137.087C647.579 137.037 646.429 137.037 645.529 137.062C644.254 137.062 642.979 137.037 641.704 137.012C640.954 137.012 640.454 136.838 640.204 136.565Z" fill="#E64927"/>
<path d="M691.733 135.273C689.783 132.44 688.758 130.974 688.658 130.875C688.458 130.627 688.358 130.378 688.358 130.105C688.358 129.956 688.558 129.633 688.958 129.161C689.608 128.291 690.558 127.248 691.808 126.055C692.008 125.856 692.208 125.782 692.408 125.782C692.658 125.782 692.933 125.98 693.233 126.378C693.533 126.751 693.783 127.049 693.983 127.272C696.933 130.328 700.283 131.919 704.034 132.068C705.934 132.142 707.584 131.844 708.984 131.198C710.384 130.527 711.084 129.21 711.084 127.223C711.084 123.794 708.359 120.017 702.909 115.918C702.009 115.272 701.159 114.75 700.358 114.327C698.258 113.11 696.458 111.917 694.958 110.75C693.458 109.607 692.133 108.116 690.983 106.277C689.833 104.439 689.258 102.327 689.258 99.9413C689.258 96.9597 690.208 94.3012 692.058 91.9904C693.933 89.6797 696.183 87.8908 698.808 86.6733C701.434 85.431 703.734 84.8595 705.659 84.9341C710.409 85.1328 714.335 86.2261 717.385 88.2138C720.46 90.2015 722.835 92.0898 724.535 93.8539C724.735 94.0527 724.835 94.3012 724.835 94.5248C724.835 94.6739 724.785 94.8478 724.66 95.0714C724.535 95.295 724.435 95.4441 724.41 95.5435C724.16 95.8665 723.735 96.4628 723.185 97.3076C722.61 98.1524 722.16 98.7735 721.81 99.1462C721.66 99.345 721.51 99.5438 721.31 99.7674C721.135 99.991 720.985 100.14 720.86 100.239C720.735 100.339 720.535 100.389 720.285 100.364C720.185 100.364 719.96 100.19 719.585 99.8419C719.21 99.4941 718.86 99.1959 718.485 98.9474C716.485 97.1337 714.535 95.5435 712.634 94.2266C710.734 92.9098 708.909 92.2141 707.159 92.1395C705.759 92.0898 704.609 92.3383 703.709 92.9346C702.809 93.5309 702.359 94.8975 702.359 97.084C702.359 99.2208 703.159 100.91 704.759 102.177C706.359 103.445 708.484 104.662 711.134 105.88C711.384 105.979 712.834 106.675 715.51 107.917C718.185 109.184 720.56 111.47 722.635 114.775C724.71 118.104 725.735 122.005 725.735 126.477C725.735 131.248 723.935 134.751 720.335 136.962C716.735 139.199 711.759 140.168 705.409 139.919C698.208 139.621 693.633 138.081 691.683 135.248L691.733 135.273Z" fill="#E64927"/>
<path d="M733.811 139.497C733.761 139.323 733.736 138.975 733.736 138.478C733.686 137.932 733.661 137.012 733.661 135.72C733.661 135.323 733.661 134.9 733.586 134.403C733.536 133.931 733.511 133.285 733.511 132.49V122.278C733.511 121.284 733.561 120.315 733.636 119.371C733.711 118.427 733.761 117.731 733.761 117.284C733.961 114.998 734.061 112.837 734.061 110.75C734.061 108.165 733.986 106.128 733.836 104.637C733.736 102.948 733.686 101.407 733.686 100.016C733.686 96.8852 733.761 93.2328 733.911 89.0586C733.911 88.4126 734.036 87.9902 734.286 87.7665C734.536 87.5429 734.886 87.4684 735.336 87.4684C735.711 87.5181 736.086 87.5429 736.461 87.5926C736.911 87.5926 737.636 87.692 738.637 87.8162C739.637 87.9405 740.862 88.0399 742.312 88.0895C743.962 88.1641 745.912 88.1392 748.162 87.9902C750.862 87.9156 752.663 87.9156 753.563 87.9653C755.613 88.0647 757.488 88.2386 759.188 88.4622C760.088 88.5368 760.988 88.6113 761.888 88.6859C762.538 88.7107 762.963 88.8846 763.163 89.2076C763.363 89.5058 763.463 90.0773 763.463 90.8724C763.463 91.3196 763.513 92.0898 763.613 93.1831C763.713 94.4751 763.763 95.5932 763.763 96.5373C763.763 97.5312 763.688 98.4505 763.538 99.2953C763.488 100.041 763.138 100.389 762.488 100.364C762.288 100.364 762.013 100.289 761.663 100.165C761.313 100.041 761.038 99.9661 760.838 99.8916C760.088 99.6928 757.913 99.5189 754.313 99.345C753.363 99.2704 752.413 99.1959 751.463 99.1214C750.812 99.0468 749.862 98.9723 748.612 98.8978C747.712 98.8481 747.037 98.8481 746.587 98.8978C745.087 98.9226 743.762 98.8978 742.612 98.8481C741.287 98.7487 739.962 98.6741 738.637 98.5996C738.236 98.5996 738.011 98.6493 737.961 98.8232C737.911 98.9971 737.886 99.3947 737.886 100.041C737.886 100.935 737.861 101.705 737.811 102.351C737.711 104.339 737.661 105.954 737.661 107.196V111.594C737.661 112.638 737.686 113.433 737.736 113.98C738.136 114.054 738.812 114.104 739.762 114.153C740.612 114.253 742.362 114.352 745.012 114.476C746.112 114.526 747.712 114.551 749.812 114.551C751.412 114.551 752.463 114.551 752.963 114.551C753.663 114.576 754.363 114.65 755.063 114.775C755.763 114.874 756.288 114.949 756.638 114.973C757.288 114.998 757.613 115.321 757.613 115.918C757.613 116.116 757.613 116.39 757.538 116.762C757.488 117.135 757.463 117.607 757.463 118.203C757.488 119.52 757.513 120.837 757.538 122.154C757.538 122.601 757.488 122.924 757.388 123.073C757.288 123.247 757.113 123.322 756.863 123.297C756.713 123.297 756.488 123.247 756.238 123.148C755.963 123.048 755.738 123.024 755.538 122.999C755.088 122.999 754.263 122.899 753.038 122.8C751.813 122.701 750.162 122.576 748.062 122.477C745.812 122.378 743.862 122.378 742.212 122.477C740.562 122.601 739.562 122.651 739.212 122.626C738.662 122.601 738.336 122.552 738.236 122.502C737.986 122.502 737.836 122.452 737.786 122.402V129.856C738.136 129.856 738.412 129.856 738.612 129.832C739.312 129.832 740.012 129.832 740.712 129.832C743.662 129.956 746.612 130.055 749.562 130.179C751.362 130.279 752.788 130.353 753.838 130.453C755.563 130.552 757.288 130.676 759.013 130.776C760.063 130.801 761.113 130.825 762.163 130.85C762.763 130.875 763.163 131.049 763.363 131.322C763.563 131.596 763.663 131.993 763.663 132.49C763.638 132.987 763.613 133.484 763.588 133.981C763.588 135.72 763.538 137.459 763.513 139.199C763.513 139.994 763.338 140.466 762.988 140.615C762.638 140.764 762.138 140.814 761.488 140.764C760.838 140.714 760.313 140.665 759.913 140.64C757.763 140.54 755.913 140.416 754.363 140.292C751.813 140.143 749.262 139.994 746.712 139.845C746.112 139.82 743.112 139.745 737.711 139.646C736.761 139.646 735.811 139.596 734.861 139.596C734.711 139.596 734.561 139.621 734.411 139.646C734.111 139.646 733.936 139.547 733.886 139.373L733.811 139.497Z" fill="#E64927"/>
<path d="M773.164 128.167C772.964 127.794 772.839 127.173 772.789 126.328C772.689 125.831 772.639 124.713 772.639 122.974V119.992C772.589 118.054 772.539 116.116 772.489 114.178C772.439 110.65 772.139 106.302 771.589 101.159C771.089 96.2143 770.839 93.4812 770.839 92.9098V91.2699C770.839 89.3319 771.339 88.3877 772.339 88.4374C772.589 88.4374 772.789 88.4871 772.939 88.5368C773.289 88.6113 773.639 88.6362 774.014 88.6362C774.389 88.6362 774.739 88.6362 775.039 88.6362C775.614 88.661 776.189 88.6859 776.764 88.7356C778.114 88.8101 779.19 88.8846 779.99 88.984C780.59 89.0586 781.015 89.2076 781.265 89.4313C781.515 89.6549 781.64 89.9282 781.64 90.276C781.64 90.5245 781.615 90.7978 781.565 91.096C781.515 91.3941 781.465 91.6674 781.415 91.9159C781.265 93.6055 781.165 95.1459 781.115 96.587C781.065 98.7735 780.84 102.948 780.44 109.159C780.415 110.501 780.39 111.843 780.365 113.184C780.39 114.253 780.415 115.321 780.44 116.39C780.59 118.328 780.64 119.396 780.59 119.595C780.54 119.794 780.515 120.315 780.515 121.16C780.515 122.552 780.565 123.943 780.59 125.334C780.64 125.98 780.665 126.751 780.665 127.645C780.715 128.291 780.54 128.689 780.115 128.838C779.69 128.987 779.14 129.036 778.439 128.937C777.164 128.863 775.889 128.813 774.614 128.738C773.864 128.738 773.389 128.564 773.189 128.192L773.164 128.167ZM772.989 140.963C772.064 139.795 771.614 138.478 771.614 136.987C771.614 136.54 771.614 136.192 771.689 135.944C772.139 133.534 773.814 132.391 776.714 132.565C778.314 132.639 779.515 133.26 780.34 134.354C781.165 135.472 781.59 136.615 781.565 137.807C781.565 138.155 781.54 138.404 781.49 138.553C781.49 139.099 781.24 139.72 780.74 140.416C780.24 141.112 779.59 141.708 778.789 142.18C777.989 142.652 777.139 142.876 776.239 142.826C774.989 142.752 773.889 142.131 772.989 140.963Z" fill="#FFAF32"/>
<ellipse cx="77.4838" cy="184.704" rx="59.9518" ry="10.1389" fill="#00A19E"/>
<path d="M50.9072 134.334L74.3393 96.9839C74.3393 96.9839 104.968 90.2285 101.032 102.063C98.2411 110.443 106.952 109.467 106.952 109.467C111.541 106.137 113.427 104.072 119.912 106.874C126.397 109.677 127.057 119.493 127.057 119.493L114.324 155.853" fill="#FFAF32"/>
<path d="M106.407 148.423C106.407 148.423 87.3852 122.845 75.6938 110.012L34.5152 105.67C34.5152 105.67 13.0923 112.284 11.7904 138.446C10.4768 164.595 39.2723 166.558 39.2723 166.558L83.8134 176.062L132.729 187.536C132.729 187.536 150.314 177.883 138.82 157.27C127.327 136.658 92.6061 124.323 72.8858 143.802" fill="#FFAF32"/>
<path d="M37.2927 160.589L24.9489 153.818L16.2483 139.499L29.7821 121.419L64.1763 116.253L49.6702 140.162C49.6702 140.162 48.0204 149.152 67.5937 150.912C67.5937 150.912 59.4557 163.786 37.281 160.574L37.2927 160.589Z" fill="#FD710C"/>
<path d="M56.272 129.298C56.272 129.298 54.7331 138.869 72.8726 143.801L67.6054 150.927C67.6054 150.927 48.2816 149.816 49.6819 140.177L56.2706 129.311L56.272 129.298Z" fill="#EDDCB6"/>
<path d="M75.187 174.225C75.187 174.225 99.1844 173.338 106.755 164.589C114.326 155.839 116.353 150.054 116.353 150.054L141.006 161.91C141.006 161.91 148.454 180.07 132.73 187.523L75.1884 174.212L75.187 174.225Z" fill="#FD710C"/>
<path d="M101.032 102.062C101.032 102.062 83.3861 99.1027 82.8529 101.523C82.3196 103.943 85.9041 112.651 92.83 113.156C99.7558 113.661 106.952 109.467 106.952 109.467C106.952 109.467 98.2143 110.32 101.032 102.062Z" fill="#FD710C"/>
<path d="M89.9274 134.78C89.9274 134.78 66.4829 131.553 57.6346 134.461C57.6346 134.461 59.0487 141.019 72.8725 143.801C72.8725 143.801 85.4109 133.655 89.9274 134.78Z" fill="#FD710C"/>
<path d="M55.4448 93.0585L44.855 64.5031L36.3415 64.1087L49.7189 89.4619L55.4448 93.0585Z" fill="#14222F"/>
<path d="M46.9023 98.0901L26.052 65.738L12.5917 73.5754L46.9023 98.0901Z" fill="#14222F"/>
<ellipse cx="878.103" cy="185.691" rx="49.5543" ry="11.3658" transform="rotate(-4.87303 878.103 185.691)" fill="#00A19E"/>
<path d="M841.667 179.298L835.485 180.112L837.486 195.301L872.721 194.961L875.805 186.896L906.132 170.808L919.035 128.498L913.028 128.184L905.166 161.111L874.442 179.52L841.667 179.298Z" fill="#14222F"/>
<path d="M883.718 140.405C885.346 149.862 902.67 124.901 903.982 121.596L913.026 128.169L905.165 161.096L874.44 179.505L836.279 180.569L836.934 162.564L808.865 102.323L824.265 98.3214L849.813 83.4604L858.954 93.4651L870.198 76.7681L883.718 140.405Z" fill="#D94625"/>
<path d="M822.836 117.656L808.525 101.983L852.138 80.1751L858.272 89.0348L870.539 76.7681L864.405 94.4865L829.991 101.983L822.836 117.656Z" fill="#792113"/>
<path fill-rule="evenodd" clip-rule="evenodd" d="M876.837 120.818L876.837 140.757L873.893 140.225L851.42 136.174L851.863 133.713L852.307 131.253L871.837 134.774L871.837 120.819L876.837 120.818ZM870.574 107.924L870.574 127.862L867.631 127.331L845.157 123.279L845.601 120.819L846.044 118.358L865.574 121.88L865.573 107.924L870.574 107.924Z" fill="#FFAF32"/>
<path d="M907.063 91.4166C907.063 91.4166 900.384 78.3712 898.184 72.4734C898.641 73.57 904.867 78.8776 913.15 86.1665L928.676 74.365L917.521 91.5698C917.521 91.5698 925.509 114.228 926.797 117.393L910.865 95.9437C910.865 95.9437 897.863 104.03 893.758 107.359C897.666 103.295 903.394 95.5654 907.075 91.4305L907.063 91.4166Z" fill="#E9DCB7"/>
<path d="M844.8 154.539L830.94 148.175L836.615 162.328V180.541H873.721L887.58 171.983L861.716 174.507L865.645 165.949H854.295L861.716 156.294L844.8 154.539Z" fill="#C02E19"/>
</svg>
