<svg width="39" height="39" viewBox="0 0 39 39" fill="none" xmlns="http://www.w3.org/2000/svg">
<path fill-rule="evenodd" clip-rule="evenodd" d="M1.14766 5.74929C0 8.00171 0 10.9503 0 16.8474V21.7613C0 27.6584 0 30.607 1.14766 32.8593C2.15717 34.8407 3.768 36.4515 5.74929 37.461C8.00171 38.6087 10.9503 38.6087 16.8474 38.6087H21.7613C27.6584 38.6087 30.607 38.6087 32.8593 37.461C34.8407 36.4515 36.4515 34.8407 37.461 32.8593C38.6087 30.607 38.6087 27.6584 38.6087 21.7613V16.8474C38.6087 10.9503 38.6087 8.00171 37.461 5.74929C36.4515 3.768 34.8407 2.15717 32.8593 1.14766C30.607 0 27.6584 0 21.7613 0H16.8474C10.9503 0 8.00171 0 5.74929 1.14766C3.768 2.15717 2.15717 3.768 1.14766 5.74929ZM21.7613 3.50988H16.8474C13.8409 3.50988 11.7972 3.51262 10.2174 3.64168C8.6786 3.7674 7.89169 3.99528 7.34274 4.27498C6.02189 4.948 4.948 6.02189 4.27498 7.34274C3.99528 7.89169 3.7674 8.6786 3.64168 10.2174C3.51262 11.7972 3.50988 13.8409 3.50988 16.8474V21.7613C3.50988 24.7678 3.51262 26.8115 3.64168 28.3913C3.7674 29.9302 3.99528 30.7171 4.27498 31.266C4.948 32.5868 6.02189 33.6606 7.34274 34.3337C7.89169 34.6134 8.6786 34.8414 10.2174 34.967C11.7972 35.096 13.8409 35.0988 16.8474 35.0988H21.7613C24.7678 35.0988 26.8115 35.096 28.3913 34.967C29.9302 34.8414 30.7171 34.6134 31.266 34.3337C32.5868 33.6606 33.6606 32.5868 34.3337 31.266C34.6134 30.7171 34.8414 29.9302 34.967 28.3913C35.096 26.8115 35.0988 24.7678 35.0988 21.7613V16.8474C35.0988 13.8409 35.096 11.7972 34.967 10.2174C34.8414 8.6786 34.6134 7.89169 34.3337 7.34274C33.6606 6.02189 32.5868 4.948 31.266 4.27498C30.7171 3.99528 29.9302 3.7674 28.3913 3.64168C26.8115 3.51262 24.7678 3.50988 21.7613 3.50988Z" fill="#E64927"/>
<path fill-rule="evenodd" clip-rule="evenodd" d="M19.3044 29.8085C25.1055 29.8085 29.8082 25.1057 29.8082 19.3046C29.8082 13.5035 25.1055 8.80078 19.3044 8.80078C13.5033 8.80078 8.80054 13.5035 8.80054 19.3046C8.80054 25.1057 13.5033 29.8085 19.3044 29.8085ZM19.3044 26.3072C23.1717 26.3072 26.3069 23.172 26.3069 19.3046C26.3069 15.4372 23.1717 12.3021 19.3044 12.3021C15.437 12.3021 12.3018 15.4372 12.3018 19.3046C12.3018 23.172 15.437 26.3072 19.3044 26.3072Z" fill="#E64927"/>
<path d="M29.8081 7.09717C28.8673 7.09717 28.1047 7.85978 28.1047 8.80049C28.1047 9.7412 28.8673 10.5038 29.8081 10.5038C30.7488 10.5038 31.5114 9.7412 31.5114 8.80049C31.5114 7.85978 30.7488 7.09717 29.8081 7.09717Z" fill="#E64927"/>
</svg>
