<svg width="414" height="209" viewBox="0 0 414 209" fill="none" xmlns="http://www.w3.org/2000/svg">
<path d="M279.5 161.047L347.5 161.047L300.5 111.5L326.5 18L231 46.5L216 -1.14961e-05L146 46.5L35 13.5L1.5e-05 177.5L87 167.5L116.5 208.5L216 167.5L300.5 204.5L279.5 161.047Z" fill="#792113"/>
<path d="M340.179 110.382L339.232 106.965L354.027 104.969L362.712 114.391L363.879 126.683L353.362 125.654L353.803 116.858L349.17 110.52L340.179 110.382Z" fill="#00A19E"/>
<path d="M357.657 110.025L355.852 102.384L353.599 101.392L350.795 95.9829L362.485 99.1586L366.824 111.215L363.12 122.994L353.83 117.957L357.657 110.025Z" fill="#00A19E"/>
<path d="M360.606 98.7521L362.821 95.9829L373.106 106.804L370.559 119.362L361.28 127.509L355.953 118.383L363.34 113.588L365.762 106.119L360.606 98.7521Z" fill="#00A19E"/>
<path d="M274.186 71.0881L299.647 38.7764C299.647 38.7764 328.734 35.5637 323.902 46.1496C320.478 53.6449 328.656 53.6088 328.656 53.6088C333.245 50.9772 335.201 49.2492 340.937 52.4957C346.674 55.7422 346.307 64.9142 346.307 64.9142L330.87 97.3737" fill="#C02E19"/>
<path d="M324.266 89.692C324.266 89.692 309.17 64.0678 299.604 50.997L261.838 42.8631C261.838 42.8631 241.305 46.8622 237.488 71.0026C233.662 95.1283 260.179 99.8211 260.179 99.8211L300.551 113.079L344.783 128.601C344.783 128.601 362.059 121.399 353.452 101.131C344.845 80.8638 313.866 65.959 293.63 82.0632" fill="#C02E19"/>
<path d="M258.938 94.0856L248.162 86.5737L241.519 72.423L255.876 57.0009L288.298 55.6376L272.457 76.3712C272.457 76.3712 270.03 84.5464 288.012 88.1301C288.012 88.1301 279.179 99.2619 258.929 94.071L258.938 94.0856Z" fill="#792113"/>
<path d="M279.664 66.9511C279.664 66.9511 277.282 75.6764 293.618 82.0604L288.021 88.1451C288.021 88.1451 270.206 85.1881 272.466 76.3863L279.662 66.9631L279.664 66.9511Z" fill="#EDDCB6"/>
<path d="M292.731 110.515C292.731 110.515 315.081 112.085 322.977 104.723C330.872 97.3615 333.329 92.1969 333.329 92.1969L355.017 105.654C355.017 105.654 360.116 123.242 344.786 128.588L292.734 110.503L292.731 110.515Z" fill="#792113"/>
<path d="M323.902 46.1496C323.902 46.1496 307.828 41.6445 307.092 43.8364C306.356 46.0283 308.813 54.4634 315.187 55.6226C321.562 56.7818 328.656 53.6088 328.656 53.6088C328.656 53.6088 320.465 53.529 323.902 46.1496Z" fill="#792113"/>
<path d="M310.339 75.3926C310.339 75.3926 288.912 70.0615 280.414 71.8763C280.414 71.8763 281.072 78.1014 293.618 82.0605C293.618 82.0605 306.261 73.8986 310.339 75.3926Z" fill="#792113"/>
<path d="M328.423 134.039L327.192 122.396L335.455 125.316L339.884 130.306L345.279 128.403C352.567 126.117 355.413 117.285 355.778 113.186L364.254 115.061L374.098 141.657L399.262 169.73L367.068 173.45L358.61 155.566L351.743 148.057L338.373 144.362L328.423 134.039Z" fill="#00A19E"/>
<path d="M361.743 148.79L351.603 148.354L358.498 155.298L361.743 148.79Z" fill="#1B6161"/>
</svg>
