<svg width="32" height="33" viewBox="0 0 32 33" fill="none" xmlns="http://www.w3.org/2000/svg">
<path d="M28 13.5C28 22.8333 16 30.8333 16 30.8333C16 30.8333 4 22.8333 4 13.5C4 10.3174 5.26428 7.26515 7.51472 5.01472C9.76515 2.76428 12.8174 1.5 16 1.5C19.1826 1.5 22.2348 2.76428 24.4853 5.01472C26.7357 7.26515 28 10.3174 28 13.5Z" stroke="#137171" stroke-width="3" stroke-linecap="round" stroke-linejoin="round"/>
<path d="M16 17.5C18.2091 17.5 20 15.7091 20 13.5C20 11.2909 18.2091 9.5 16 9.5C13.7909 9.5 12 11.2909 12 13.5C12 15.7091 13.7909 17.5 16 17.5Z" stroke="#137171" stroke-width="3" stroke-linecap="round" stroke-linejoin="round"/>
</svg>
