<svg width="200" height="158" viewBox="0 0 200 158" fill="none" xmlns="http://www.w3.org/2000/svg">
<path d="M145.652 117.631L120.483 116.596L123.646 141.904L129.18 141.476L126.846 122.801L145.374 127.172L145.652 117.631Z" fill="#FD710C"/>
<path d="M127.707 121.841L138.23 134.618L151.689 141.364L168.487 133.952L186.324 105.477L198.049 123.545L180.071 148.192L153.408 155.123L134.187 139.497L125.277 124.038" fill="#FD710C"/>
<path d="M41.0171 17.1768L3 37.836L27.5427 103.177L57.3788 83.9589L99.2457 103.177L144 83.9589L103.096 17.1768L68.4471 33.0315L41.0171 17.1768Z" fill="#E9DCB7"/>
<path d="M0 83.8235C0.665477 79.1 5.88551 75.1314 10.0819 77.2064C7.31618 70.5185 11.7954 61.7993 18.7372 60.3478C25.6809 58.8963 33.1334 65.1214 33.1457 72.3828C35.3273 69.2609 40.4211 69.8595 42.9528 72.6915C45.4845 75.5214 46.0217 79.6547 45.9993 83.494L0 83.8235Z" fill="#43BFBA"/>
<path d="M137 41.112C135.207 36.1537 129.042 34.177 125.279 37.3539C126.093 31.4148 122.469 25.556 117.801 22.8558C113.669 20.466 108.399 20.186 104.582 23.1888C100.764 26.1916 99.169 32.8497 101.872 37.1662C99.4535 34.5584 96.19 32.5454 92.9266 33.2038C89.6617 33.8622 86.9598 38.1591 88.3942 41.5978L136.999 41.112H137Z" fill="#43BFBA"/>
<ellipse cx="67.8857" cy="56.2408" rx="20.2729" ry="4.57776" fill="#FFAF32"/>
<path fill-rule="evenodd" clip-rule="evenodd" d="M66.9828 0.00261142C81.8418 -0.20667 86.0628 12.2047 84.099 22.2536C81.4738 35.6859 68.941 52.3244 66.9828 56.2409C60.8997 47.202 51.6947 33.3855 50.1117 22.2536C48.6829 12.2058 53.8054 0.18834 66.9828 0.00261142ZM67.7172 9.29363C63.3958 9.29363 59.8929 12.7975 59.8929 17.1188C59.8931 21.44 63.3959 24.943 67.7172 24.943C72.0383 24.9429 75.5412 21.44 75.5414 17.1188C75.5414 12.7975 72.0384 9.29372 67.7172 9.29363Z" fill="#E64927"/>
</svg>
