<svg width="543" height="134" viewBox="0 0 543 134" fill="none" xmlns="http://www.w3.org/2000/svg">
<path d="M543 134H0L54.8383 84.1942L76.0335 92.2166L153.076 61.1298L176.29 73.832L280.247 14.6667L377.139 73.832L416.838 61.1298L473.022 99.2362L498.591 84.1942L513.73 92.2166L543 134Z" fill="#00A19E"/>
<path d="M473.043 99.3333L416.744 61L412.413 85L422.074 79.6667L430.402 107.333L444.06 96.3333L479.705 122L473.043 99.3333Z" fill="#137171"/>
<path d="M514.351 109L498.693 84.3334L513.684 92L514.351 109Z" fill="#137171"/>
<path d="M263.171 63.6667L280.161 14.6667L378.101 73.6667L301.814 103.667L343.122 67.984L323.468 52.6667L319.47 73.6667L289.489 33.0001L263.171 63.6667Z" fill="#137171"/>
<path d="M190.549 109.333L176.558 73.6667L153.239 61.3334L147.243 75L155.904 79.6667L150.907 87.3334L169.895 85L190.549 109.333Z" fill="#137171"/>
<path d="M45.3052 100L54.9659 84L75.953 92.3334L54.9659 121.333V94.3333L45.3052 100Z" fill="#137171"/>
<path d="M279.828 14.6667L176.891 73.3334L252.844 47.1915L263.171 64.6667L279.828 14.6667Z" fill="#1BEAEA"/>
<path d="M412.08 85.3331L416.744 60.6665L378.434 72.9998L300.482 105.333L358.446 93.9998V105.333L379.433 89.3331L412.08 85.3331Z" fill="#1BEAEA"/>
<path d="M74.9536 92.6665L153.905 60.6665L147.576 73.9998L74.9536 92.6665Z" fill="#1BEAEA"/>
<path d="M362.777 55.3333L323.801 40.6666L377.435 73.3333L418.077 62.6666L427.737 67.9999L458.718 48.6666L418.077 55.3333L434.4 24L399.088 48.6666L407.75 0L376.769 48.6666L357.78 6.66666L362.777 55.3333Z" fill="#FFAF32"/>
</svg>
