<svg width="411" height="285" viewBox="0 0 411 285" fill="none" xmlns="http://www.w3.org/2000/svg">
<path d="M68.6641 12.7587C2.66406 91.2587 62.0834 171.513 97.655 179.555C142.964 189.799 167.433 169.394 174.3 155.417C181.953 139.839 164.888 118.254 155.739 115.669C148 113.482 138.479 116.072 130.972 119.761C105.493 132.284 110.625 158.38 117.164 173.759C133.2 211.473 170.524 211.471 206.475 208.162" stroke="#E9DCB7" stroke-width="6" stroke-dasharray="14 14"/>
<path d="M268.244 165.022L308.312 148.137L344.639 150.24L377.855 177.135L397.04 180.561L398.172 201.851L383.753 209.164L381.858 234.882L334.612 265.533L288.159 267.949L260.913 258.284L243.247 231.827L228.199 228.167L224.856 210.889L242.073 201.056L268.244 165.022Z" fill="#2EE174"/>
<path d="M354.57 183.401L359.901 195.514L356.008 203.186L352.668 210.013L334.797 213.471L316.964 210.741L310.623 197.135L318.311 185.76L334.522 180.11L354.57 183.401Z" fill="white"/>
<path d="M303.665 192.055L308.997 204.168L305.104 211.841L301.763 218.667L283.892 222.125L266.059 219.395L259.719 205.79L267.406 194.414L283.617 188.764L303.665 192.055Z" fill="white"/>
<path d="M328.788 188.38L339.136 180.535L354.523 183.401L359.834 195.52L353.708 209.852L342.27 212.065L331.24 201.053L328.788 188.38Z" fill="#792113"/>
<path d="M277.884 197.035L288.232 189.19L303.618 192.056L308.93 204.175L302.804 218.507L291.366 220.72L280.336 209.707L277.884 197.035Z" fill="#792113"/>
<circle cx="313.622" cy="218.808" r="5.86609" transform="rotate(-10.9508 313.622 218.808)" fill="#078C63"/>
</svg>
