<svg width="108" height="109" viewBox="0 0 108 109" fill="none" xmlns="http://www.w3.org/2000/svg">
<path d="M53.1738 31.0613C48.4853 26.6971 31.3199 18.855 31.3199 18.855L12.434 8.6351L1.60139 16.9814C1.60139 16.9814 29.4536 36.8412 45.6119 45.5649" fill="#FFAF32"/>
<path d="M67.3898 44.3311C64.5099 47.0069 63.0063 51.1564 60.1405 53.7345C58.3557 55.3482 48.7474 57.5026 48.7474 57.5026L39.2277 51.2808C39.2277 51.2808 44.4998 39.1042 47.3352 34.5668L68.5241 20.2943L88.4968 35.6385C88.9042 38.944 87.4724 50.9726 87.1426 50.5262L103.2 58.8584L78.2387 92.7115L57.0293 91.0102L34.0763 90.6174L20.1748 83.6481L16.5292 62.5281L32.4098 36.3576" fill="#FFAF32"/>
<path d="M28.621 36.3916C26.164 39.2052 17.3243 39.2462 17.3243 39.2462C16.0546 40.603 9.61979 46.709 9.61979 46.709L14.8879 52.6129C22.3185 57.6862 28.2212 62.0654 37.2116 62.3574C39.0335 62.4134 44.8535 63.8216 46.5131 62.8707C48.3203 61.8327 49.9528 55.5151 50.5714 53.5502C46.372 50.569 43.5046 45.7793 39.421 42.9911C36.099 40.7156 30.7734 41.8095 27.5645 38.752" fill="#FFAF32"/>
<path d="M18.4248 50.3764L6.67727 57.1209L5.62743 65.3799C5.62743 65.3799 8.67525 67.4749 12.3441 69.9681C19.7747 75.0414 22.0024 77.3195 30.9928 77.6116C32.8147 77.6676 38.6347 79.0758 40.2943 78.1249C42.1015 77.0868 43.734 70.7693 44.3526 68.8043C40.1532 65.8232 37.2858 61.0335 33.2022 58.2453C29.8802 55.9697 24.5546 57.0637 21.3457 54.0062" fill="#FFAF32"/>
<path d="M72.4464 40.9407C70.8345 40.3457 64.879 43.8873 64.879 43.8873L57.4755 56.0393L59.339 60.7743L55.9317 66.6699L49.5606 67.7736L52.179 74.1416L47.3295 78.2693L32.688 79.658L18.5494 74.1454L20.1866 83.6468L34.0881 90.616L83.3726 100.721L103.529 58.7326L72.4316 74.5915L64.5404 64.1474L72.4595 40.9514L72.4464 40.9407Z" fill="#EB7C00"/>
<path d="M1.60168 16.981L27.7735 36.0112L17.3382 39.0778L43.2865 54.8899L40.4252 50.1598L43.1784 40.0687L20.2994 27.1236L1.60168 16.981Z" fill="#EB7C00"/>
<path d="M14.8052 52.53L27.3144 60.8323L39.4142 65.3357L25.8306 64.7029L8.94469 55.8212L14.8052 52.53Z" fill="#EB7C00"/>
</svg>
