<svg width="328" height="241" viewBox="0 0 328 241" fill="none" xmlns="http://www.w3.org/2000/svg">
<path d="M71.9581 115.6L118.928 115.6L108.006 136L155.853 115.6L315.181 112.656L328 96.9831L322.741 8.33484e-06L88.7207 1.35347e-05L69 25.1116L71.9581 115.6Z" fill="#E9DCB7"/>
<path d="M28.5358 191.843L0 112.27L63.1035 95.1529L91.6392 175.42L28.5358 191.843Z" fill="#00A19E"/>
<path d="M28.8966 184.267L0.36084 104.397L63.4643 87.2157L92.0001 167.782L28.8966 184.267Z" fill="#FFAF32"/>
<path d="M19.1216 106.698V98.5726L28.1028 90.9114L23.9576 88.822V83.9467L30.4057 80L37.084 83.9467V90.9114H45.3744L51.5922 98.5726L19.1216 106.698Z" fill="#14222F"/>
<path d="M18.0543 130.149L15.5137 121.779L62.1695 109.224L64.9411 117.361L18.0543 130.149Z" fill="#E64927"/>
<path d="M21.6622 143.137L19.1216 134.767L65.7774 122.212L68.549 130.349L21.6622 143.137Z" fill="#E64927"/>
<path d="M27.091 156.486L24.5334 148.201L42.9014 143.137L45.4589 151.193L27.091 156.486Z" fill="#E64927"/>
<path d="M69.8859 211.551C69.8859 211.551 70.279 199.901 69.9564 194.907C69.9875 195.851 67.6843 201.764 64.6846 209.793L51.8673 206.458L63.5411 215.155C63.5411 215.155 65.0642 234.184 65.1717 236.9L68.8424 216.09C68.8424 216.09 79.0686 217.586 82.5168 218.618C78.9812 216.99 73.2988 213.322 69.8824 211.565L69.8859 211.551Z" fill="#EDDCB6"/>
</svg>
