<svg width="334" height="163" viewBox="0 0 334 163" fill="none" xmlns="http://www.w3.org/2000/svg">
<path d="M248.133 107.1L202.614 107.1L213.199 126L166.829 107.1L12.4226 104.373L3.16015e-06 89.852L5.09658 9.02002e-06L231.888 1.3588e-05L251 23.2652L248.133 107.1Z" fill="#FFAF32"/>
<g clip-path="url(#clip0_553_9152)">
<path d="M296.342 120.367L334 104.004L311.528 100.273L333.76 84.3137L306.43 87.0132L325.283 52L294.249 82.1116L290.325 59.3414L279.438 90.6765L266.629 76.6321L272.738 108.957" fill="#E64927"/>
<path d="M212.916 81.1954L209.953 123.069L215.272 127.766L279.858 129.675L284.989 83.8291L282.4 79.5073L212.916 81.1954Z" fill="#393A39"/>
<path d="M194.812 96.7322L213.312 95.8123L224.628 99.2854L225.032 107.294L225.254 111.64L222.075 115.881L216.153 116.176L198.104 117.072" fill="#BFC0C1"/>
<path d="M200.914 96.5403L210.991 100.88L225.254 111.64L222.076 115.881L201.943 116.882L197.102 99.141L200.914 96.5403Z" fill="#ABACAC"/>
<path d="M189.703 85.5702L194.236 85.3452L199.413 89.5115L204.038 96.2731L205.803 103.627L206.856 114.442L204.116 125.425L198.632 129.392L191.938 129.724" fill="#535554"/>
<path d="M189.703 85.5703L181.937 90.9437L178 102.638L178.616 114.8L185.237 128.188L191.938 129.725L200.541 125.245L203.564 114.495L200.591 99.3678L197.084 90.503L189.703 85.5703Z" fill="#131313"/>
<path d="M200.596 112.913L198.272 121.174L191.659 124.62L188.223 123.83L186.508 123.438L181.418 113.147L180.946 103.799L183.971 94.8083L189.941 90.6768L192.125 92.1362L195.615 94.4681L198.311 101.285L200.596 112.913Z" fill="#ABACAC"/>
<path d="M200.596 112.913L198.272 121.174L194.439 123.171L189.45 121.61L184.871 113.655L184.284 104.33L186.198 96.2349L192.125 92.1362L195.615 94.4681L198.311 101.285L200.596 112.913Z" fill="#D4D5D5"/>
<path d="M192.658 97.9138L188.967 99.5635L187.939 103.37L187.485 109.994L188.961 113.282L191.728 111.466L192.305 105.517L194.118 103.565L194.192 100.849L192.658 97.9138Z" fill="white"/>
<path d="M194.983 106.936L194.057 107.682L193.743 109.414L194.094 112.09L195.044 112.419L195.925 112.371L196.043 110.65L196.2 108.362L194.983 106.936Z" fill="white"/>
<path d="M243.717 86.9621L242.735 94.3144L246.273 101.778L278.454 98.6837L277.858 86.8962L243.717 86.9621Z" fill="#535554"/>
<path d="M288.118 84.9685L279.685 87.7997L281.167 97.8058L288.251 100.61L290.524 98.9233L289.858 85.7714L288.118 84.9685Z" fill="#131313"/>
<path d="M277.985 89.4349L279.886 89.1587L280.997 96.6555L278.358 96.7872L277.985 89.4349Z" fill="#535554"/>
<path d="M236.794 114.103L234.333 114.225L234.684 121.162L237.145 121.04L236.794 114.103Z" fill="#535554"/>
<path d="M246.318 114.283L243.857 114.405L244.208 121.343L246.669 121.22L246.318 114.283Z" fill="#535554"/>
<path d="M241.188 113.883L238.727 114.005L239.078 120.943L241.539 120.821L241.188 113.883Z" fill="#535554"/>
<path d="M251.628 120.969C253.172 120.969 254.424 119.729 254.424 118.199C254.424 116.668 253.172 115.428 251.628 115.428C250.083 115.428 248.832 116.668 248.832 118.199C248.832 119.729 250.083 120.969 251.628 120.969Z" fill="#E74A28"/>
<path d="M262.19 113.911L256.094 145.927L258.54 150.58L320.846 163L327.712 123.864L322.618 119.819L268.525 110.561L262.19 113.911Z" fill="#E9EAEA"/>
<path d="M320.846 163L258.54 150.58L259.617 147.743L314.307 157.74L320.846 163Z" fill="#ABACAC"/>
<path d="M322.618 119.819L319.109 124.159L314.307 157.74L320.846 163L327.712 123.864L322.618 119.819Z" fill="#BFC0C1"/>
<path d="M275.381 124.737L286.23 125.798L292.263 131.292L291.299 140.963L290.777 146.207L288.304 150.929L284.831 150.591L274.246 149.555" fill="#BFC0C1"/>
<path d="M278.943 125.221L284.127 131.614L290.777 146.207L288.304 150.929L276.498 149.775L276.346 127.899L278.943 125.221Z" fill="#ABACAC"/>
<path d="M269.48 120.303L258.003 122.939L250.891 130.904L249.985 139.999L257.179 151.033L266.193 153.323L278.696 151.494L284.412 144.069L282.494 132.376L278.943 125.221L269.48 120.303Z" fill="#131313"/>
<path d="M280.551 142.39L276.158 148.096L266.546 149.503L261.924 148.328L259.617 147.743L254.088 139.261L254.784 132.27L260.25 126.145L269.073 124.121L271.871 125.575L276.346 127.899L279.078 133.401L280.551 142.39Z" fill="#ABACAC"/>
<path d="M280.551 142.39L276.158 148.096L266.546 149.502L261.924 148.328L256.95 140.7L257.646 133.706L263.111 127.584L271.871 125.574L276.346 127.899L279.078 133.4L280.551 142.39Z" fill="#D4D5D5"/>
<path d="M269.165 129.68L263.838 130.266L261.873 132.901L260.291 137.719L261.854 140.403L265.928 139.537L267.583 135.24L270.361 134.11L270.854 132.115L269.165 129.68Z" fill="white"/>
<path d="M271.068 136.751L269.682 137.143L269.001 138.368L269.099 140.405L270.361 140.813L271.581 140.93L271.991 139.678L272.539 138.013L271.068 136.751Z" fill="white"/>
<path d="M268.524 110.561L262.19 113.911L319.109 124.159L322.618 119.819L268.524 110.561Z" fill="white"/>
<path d="M282.025 114.919L289.764 108.957L299.477 109.906L303.929 112.887L305.068 119.433L282.025 114.919Z" fill="#131313"/>
</g>
<defs>
<clipPath id="clip0_553_9152">
<rect width="156" height="111" fill="white" transform="translate(178 52)"/>
</clipPath>
</defs>
</svg>
