<svg width="861" height="361" viewBox="0 0 861 361" fill="none" xmlns="http://www.w3.org/2000/svg">
<path d="M764.171 278.8L623.988 278.8L656.584 328L513.781 278.8L38.2576 271.701L8.22643e-06 233.901L15.6958 2.53471e-05L714.142 5.58897e-05L773 60.5634L764.171 278.8Z" fill="#FFAF32"/>
<g clip-path="url(#clip0_1587_2999)">
<path d="M785.683 276.119L861 243.539L816.055 236.111L860.52 204.336L805.86 209.711L843.566 140L781.498 199.952L773.65 154.617L751.875 217.005L726.258 189.042L738.476 253.4" fill="#E64927"/>
<path d="M618.832 198.128L612.907 281.497L623.545 290.849L752.717 294.65L762.979 203.371L757.8 194.767L618.832 198.128Z" fill="#393A39"/>
<path d="M582.624 229.061L619.625 227.229L642.256 234.145L643.065 250.09L643.508 258.742L637.151 267.187L625.306 267.773L589.209 269.557" fill="#BFC0C1"/>
<path d="M594.827 228.679L614.981 237.32L643.507 258.742L637.151 267.186L596.886 269.178L587.204 233.857L594.827 228.679Z" fill="#ABACAC"/>
<path d="M572.406 206.838L581.472 206.39L591.826 214.685L601.076 228.147L604.605 242.79L606.713 264.321L601.231 286.188L590.265 294.086L576.876 294.749" fill="#535554"/>
<path d="M572.406 206.838L556.873 217.536L549 240.819L550.233 265.035L563.473 291.69L576.876 294.748L594.081 285.831L600.128 264.427L594.181 234.309L587.168 216.659L572.406 206.838Z" fill="#131313"/>
<path d="M594.192 261.276L589.545 277.725L576.319 284.585L569.446 283.012L566.017 282.233L555.837 261.743L554.892 243.131L560.942 225.23L572.883 217.004L577.25 219.91L584.23 224.553L589.623 238.124L594.192 261.276Z" fill="#ABACAC"/>
<path d="M594.192 261.277L589.544 277.725L581.878 281.702L571.9 278.592L562.742 262.755L561.568 244.188L565.396 228.071L577.249 219.911L584.229 224.553L589.622 238.125L594.192 261.277Z" fill="#D4D5D5"/>
<path d="M578.316 231.414L570.934 234.698L568.878 242.276L567.97 255.465L570.923 262.012L576.456 258.396L577.611 246.551L581.236 242.665L581.384 237.258L578.316 231.414Z" fill="white"/>
<path d="M582.967 249.376L581.114 250.862L580.486 254.311L581.188 259.638L583.089 260.293L584.849 260.199L585.086 256.772L585.399 252.217L582.967 249.376Z" fill="white"/>
<path d="M680.434 209.609L678.471 224.248L685.547 239.108L749.908 232.947L748.715 209.478L680.434 209.609Z" fill="#535554"/>
<path d="M769.235 205.64L752.37 211.277L755.334 231.199L769.501 236.781L774.049 233.424L772.716 207.238L769.235 205.64Z" fill="#131313"/>
<path d="M748.971 214.532L752.773 213.982L754.995 228.909L749.716 229.171L748.971 214.532Z" fill="#535554"/>
<path d="M666.588 263.646L661.666 263.889L662.368 277.702L667.29 277.458L666.588 263.646Z" fill="#535554"/>
<path d="M685.636 264.004L680.714 264.248L681.416 278.06L686.337 277.817L685.636 264.004Z" fill="#535554"/>
<path d="M675.376 263.208L670.454 263.452L671.156 277.264L676.078 277.021L675.376 263.208Z" fill="#535554"/>
<path d="M696.255 277.317C699.344 277.317 701.848 274.847 701.848 271.8C701.848 268.754 699.344 266.284 696.255 266.284C693.167 266.284 690.663 268.754 690.663 271.8C690.663 274.847 693.167 277.317 696.255 277.317Z" fill="#E74A28"/>
<path d="M717.38 263.265L705.188 327.007L710.078 336.271L834.692 361L848.423 283.081L838.235 275.026L730.048 256.594L717.38 263.265Z" fill="#E9EAEA"/>
<path d="M834.692 361L710.079 336.271L712.235 330.624L821.614 350.527L834.692 361Z" fill="#ABACAC"/>
<path d="M838.236 275.027L831.219 283.668L821.614 350.528L834.692 361L848.424 283.082L838.236 275.027Z" fill="#BFC0C1"/>
<path d="M743.761 284.818L765.459 286.93L777.525 297.869L775.598 317.125L774.554 327.565L769.608 336.967L762.661 336.293L741.491 334.232" fill="#BFC0C1"/>
<path d="M750.886 285.783L761.255 298.51L774.554 327.565L769.608 336.967L745.995 334.669L745.692 291.114L750.886 285.783Z" fill="#ABACAC"/>
<path d="M731.96 275.992L709.005 281.239L694.782 297.097L692.97 315.206L707.358 337.174L725.386 341.733L750.391 338.092L761.823 323.308L757.988 300.029L750.886 285.783L731.96 275.992Z" fill="#131313"/>
<path d="M754.101 319.965L745.316 331.326L726.092 334.127L716.849 331.789L712.235 330.624L701.176 313.735L702.567 299.817L713.501 287.622L731.145 283.591L736.741 286.486L745.692 291.114L751.155 302.068L754.101 319.965Z" fill="#ABACAC"/>
<path d="M754.101 319.965L745.315 331.326L726.091 334.127L716.848 331.789L706.9 316.601L708.292 302.676L719.222 290.488L736.741 286.486L745.692 291.115L751.155 302.068L754.101 319.965Z" fill="#D4D5D5"/>
<path d="M731.33 294.661L720.677 295.826L716.745 301.074L713.582 310.665L716.709 316.011L724.855 314.285L728.166 305.731L733.722 303.481L734.707 299.508L731.33 294.661Z" fill="white"/>
<path d="M735.135 308.739L732.363 309.518L731.001 311.958L731.197 316.014L733.721 316.826L736.161 317.059L736.981 314.565L738.077 311.251L735.135 308.739Z" fill="white"/>
<path d="M730.048 256.594L717.38 263.265L831.218 283.668L838.235 275.026L730.048 256.594Z" fill="white"/>
<path d="M757.05 265.271L772.527 253.4L791.954 255.29L800.858 261.226L803.135 274.258L757.05 265.271Z" fill="#131313"/>
</g>
<defs>
<clipPath id="clip0_1587_2999">
<rect width="312" height="221" fill="white" transform="translate(549 140)"/>
</clipPath>
</defs>
</svg>
