<svg width="222" height="111" viewBox="0 0 222 111" fill="none" xmlns="http://www.w3.org/2000/svg">
<g clip-path="url(#clip0_1092_1429)">
<path d="M220.393 99.8973C218.843 106.531 216.307 110.772 213.207 111C209.881 111.228 206.584 106.815 204.075 99.6411C202.018 93.8619 200.496 86.2607 199.904 77.8624C199.228 68.1545 199.904 59.3007 201.595 52.9522C203.117 47.0591 205.513 43.3297 208.416 43.1304C212.361 42.8457 216.279 49.1089 218.872 58.7029C220.253 63.7703 221.267 69.7772 221.718 76.2681C222.366 85.3497 221.803 93.6911 220.393 99.8973Z" fill="#C02E19"/>
<path d="M220.394 99.8972L213.911 101.435L204.075 99.641L184.009 95.9685L119.328 66.9587L99.318 72.9087L68.1473 64.9659L59.5232 50.5322L64.1734 46.8313L96.7252 32.9385L119.554 38.1767L195.141 56.6815L217.378 54.7741L218.872 58.6743C220.253 63.7418 221.267 69.7487 221.718 76.2396C222.366 85.3211 221.803 93.6625 220.394 99.8687V99.8972Z" fill="#137171"/>
<path d="M82.9717 64.1688L38.1038 45.721L0 55.7705L14.6835 7.62965L49.2081 0L77.8141 6.80405L95.2878 28.0703L82.9717 64.1688Z" fill="#EDDCB6"/>
<path d="M20.3766 13.6933L12.8235 39.7423L43.0924 34.9026L46.1644 7.14551L20.3766 13.6933Z" fill="#14222F"/>
<path d="M55.8875 10.7329L50.0254 36.2979L60.3687 38.8032L63.4407 11.0461L55.8875 10.7329Z" fill="#14222F"/>
<path d="M68.852 21.5796L66.3718 44.1269L75.1368 47.3724L75.1087 22.576L68.852 21.5796Z" fill="#14222F"/>
<path d="M92.1594 44.3831L89.0875 32.9956L70.6274 30.9458L68.4573 23.1454L86.2409 21.2095L106.082 21.3233L116.143 30.0918L121.47 39.7427L88.2138 56.2831L92.1594 44.3831Z" fill="#137171"/>
<path d="M69.5846 27.3587L86.9455 24.4834L106.082 21.3233L86.2409 21.2095L68.4573 23.1454L69.5846 27.3587Z" fill="#00A09D"/>
<path d="M89.0874 32.9954L94.1604 59.6707L96.6969 46.0341L104.278 44.4968L96.7251 32.9385L89.0874 32.9954Z" fill="#00A09D"/>
<path d="M195.169 56.7101L204.836 55.7422L214.109 78.261L202.046 66.9874L199.904 77.8625L193.676 62.3185L176.061 51.5288L195.169 56.7101Z" fill="#00A09D"/>
<path d="M202.751 7.48718L206.668 21.6647L162.223 17.7075L169.241 25.5934H161.462L150.555 12.9817L161.462 0.398438L160.673 11.4159L202.751 7.48718Z" fill="#D37B11"/>
</g>
<defs>
<clipPath id="clip0_1092_1429">
<rect width="222" height="111" fill="white"/>
</clipPath>
</defs>
</svg>
