<svg width="413" height="341" viewBox="0 0 413 341" fill="none" xmlns="http://www.w3.org/2000/svg">
<path d="M191.907 268.779L102.457 288.274L114.073 311.228L215.197 308.058L257.276 319.672L335.349 319.605L367.345 217.732L355.69 158.623L244.37 167.02L159.986 215.045L191.907 268.779Z" fill="#00CF70"/>
<path d="M199.513 279.16L66.9652 270.93L54.5817 245.129L196.42 229.312" fill="#00CF70"/>
<path d="M185.621 250.597L43.179 221.518L40.9789 188.291L207.748 195.696" fill="#00CF70"/>
<path d="M225.694 219.394L88.8281 175.618L94.1838 150.125L247.136 166.812" fill="#00CF70"/>
<path d="M355.69 158.623L337.473 109.466L300.838 81.7007L285.796 95.7341L299.996 126.843L278.246 172.455" fill="#00CF70"/>
<path d="M340.27 186.334L372.713 208.309L413 273.061L347.059 340.514L335.348 319.605L296.972 308.446" fill="#00CF70"/>
<path d="M335.348 319.605L364.094 285.272L347.059 340.514L335.348 319.605Z" fill="#078C63"/>
<path d="M66.9653 270.931L61.6913 259.94L177.669 263.914L164.148 276.962L66.9653 270.931Z" fill="#078C63"/>
<path d="M43.1789 221.518L42.3365 208.805L192.737 243.42L176.915 252.567L43.1789 221.518Z" fill="#078C63"/>
<path d="M109.252 301.705L124.565 303.333L213.154 296.658L257.276 319.672L215.197 308.058L114.073 311.228L109.252 301.705Z" fill="#078C63"/>
<path d="M295.935 117.943L318.866 130.884L303.528 132.044L296.343 134.503L299.996 126.843L295.935 117.943Z" fill="#078C63"/>
<path d="M233.854 93.69C232.515 94.1993 231.063 94.454 229.686 94.4339C225.531 94.3735 221.426 92.812 217.309 93.3281C207.672 94.5411 202.203 106.081 193.233 110.029C184.062 114.056 173.797 109.332 164.682 105.15C155.567 100.968 144.485 97.4429 136.25 103.34C132.447 106.068 129.97 110.384 127.186 114.271C124.401 118.151 120.837 121.904 116.304 122.601C115.934 122.661 115.55 122.682 115.173 122.682L114.815 115.544L118.285 115.189L116.99 100.546L114.01 99.2524L112.979 78.524L112.118 61.2134L108.604 59.1359L107.862 54.3442L223.821 40.2371L226.958 44.7875L226.348 58.459L233.854 93.69Z" fill="#FF6E5F"/>
<path d="M114.815 115.545L114.01 99.2527L116.99 100.546L118.285 115.189L114.815 115.545Z" fill="#E64927"/>
<path d="M241.963 131.762L236.079 168.334L214.801 180.363L138.997 184.431L122.264 170.559L113.005 143.289L115.173 122.708V122.682C115.55 122.682 115.934 122.661 116.305 122.601C120.837 121.904 124.401 118.151 127.186 114.271C129.971 110.384 132.447 106.068 136.25 103.34C144.485 97.4429 155.567 100.968 164.682 105.15C173.797 109.332 184.062 114.056 193.233 110.029C202.204 106.081 207.673 94.541 217.309 93.328C221.426 92.812 225.531 94.3735 229.686 94.4338C231.063 94.4539 232.515 94.1993 233.854 93.6899L241.963 131.762Z" fill="#E64927"/>
<path d="M118.285 115.189L114.815 115.544L113.463 115.678L112.835 107.482L99.3321 99.5272L90.9276 77.8941L99.0241 65.5562L105.907 63.1302L108.604 59.136L112.118 61.2135L112.979 78.5241L109.289 70.0799L104.669 68.2235L97.5091 78.9597L106.875 96.1697L114.01 99.2525L116.99 100.546L118.285 115.189Z" fill="#FF6E5F"/>
<path d="M113.005 143.289L153.625 157.108L196.923 152.752L225.449 140.924L236.991 108.434L241.957 131.763L236.079 168.334L214.795 180.363L138.997 184.431L122.264 170.559L113.005 143.289Z" fill="#C02E19"/>
<path d="M226.989 45.1357L144.818 58.5325L226.373 58.8072L226.989 45.1357Z" fill="#E64927"/>
<path fill-rule="evenodd" clip-rule="evenodd" d="M265.661 6.59131L259.922 51.0435L259.896 51.2446L259.736 51.3706L230.905 74.2505L220.383 161.47L220.354 161.717L220.138 161.842L213.076 165.952L213.719 173.282L277.321 183.329L279.779 176.354L276.156 167.551L276.365 167.464L276.392 167.321V167.32L276.126 167.272L290.291 89.6772L272.86 52.9907L272.802 52.8687L272.813 52.7349L276.51 8.07471L277.506 8.15674L273.82 52.6821L291.264 89.394L291.333 89.5396L291.304 89.6987L277.136 167.305L280.776 176.152L280.85 176.328L280.786 176.508L278.127 184.054L277.988 184.447L277.577 184.381L213.177 174.208L212.791 174.148L212.757 173.758L212.053 165.723L212.025 165.407L212.299 165.248L219.42 161.102L229.938 73.9263L229.963 73.7222L230.124 73.5942L258.955 50.7134L264.669 6.4624L265.661 6.59131Z" fill="#EDDCB6"/>
<path d="M262.568 0L260.821 20.3397L279.918 24.2535L281.823 3.61893L262.568 0Z" fill="#00A19E"/>
<path d="M234.2 75.8096L224.651 158.643C224.651 158.643 233.879 175.96 270.916 166.403L284.721 87.7654" fill="#EB7C00"/>
<path d="M256.571 99.9155L252.228 124.712L243.094 105.8L245.093 128.411L234.815 122.976L243.188 139.047L257.395 140.602L274.644 131.91L261.204 131.273L272.733 110.296L258.815 120.074L256.571 99.9155Z" fill="#EDDCB6"/>
<path d="M234.199 75.8091C234.199 75.8091 253.919 67.1907 276.328 68.6785L284.714 87.765C284.714 87.765 253.956 96.6649 234.199 75.8091Z" fill="#FFAF32"/>
<path d="M96.0382 194.215L132.447 137.753L268.867 177.186L277.422 229.875L252.486 217.511L242.145 235.424C238.386 236.925 235.815 237.951 232.056 239.452L96.0382 194.215Z" fill="#EDDCB6"/>
<path d="M268.873 177.186L277.429 229.875L252.492 217.511L268.873 177.186Z" fill="#14222F"/>
<path d="M123.778 178.138C123.741 178.017 123.772 177.85 123.873 177.635L124.2 177.019L124.891 175.431C125.677 173.514 126.4 171.859 127.066 170.471C127.412 169.748 127.676 169.258 127.858 169.01C128.166 168.588 128.82 167.335 129.813 165.237C130.857 163.053 131.605 161.384 132.07 160.238C132.12 160.084 132.208 159.883 132.328 159.635C132.466 159.347 132.592 159.145 132.705 159.038C132.818 158.931 132.912 158.884 132.981 158.897C133.05 158.911 133.164 158.944 133.327 158.998L133.956 159.145C135.282 159.427 136.313 159.688 137.061 159.943C139.098 160.633 140.386 161.672 140.921 163.059C141.455 164.447 141.323 165.968 140.531 167.63C139.902 168.95 138.871 170.069 137.438 170.987C136.822 171.389 136.181 171.718 135.508 171.973L135.779 176.061C135.992 179.029 136.137 180.712 136.219 181.12C136.281 181.603 136.288 181.911 136.225 182.039C136.193 182.112 136.124 182.139 136.024 182.126C135.923 182.112 135.841 182.099 135.779 182.072C135.716 182.045 135.665 182.032 135.628 182.018L132.504 181.06C132.359 181.013 132.271 180.906 132.252 180.758C132.233 180.604 132.227 180.343 132.233 179.968C132.271 179.666 132.277 179.251 132.258 178.714C132.202 177.937 132.158 176.51 132.12 174.419L132.007 171.262L131.403 172.723L130.555 174.827C129.511 177.287 128.964 178.654 128.914 178.929C128.895 179.009 128.864 179.103 128.814 179.21C128.656 179.539 128.405 179.639 128.066 179.525C127.959 179.492 127.871 179.445 127.808 179.405C127.531 179.271 126.808 179.07 125.627 178.795C124.828 178.607 124.344 178.487 124.181 178.433C123.942 178.353 123.804 178.252 123.766 178.138H123.778ZM134.383 167.69C135.005 167.63 135.489 167.234 135.829 166.511C136.08 165.988 136.181 165.572 136.137 165.264C136.093 164.956 135.942 164.761 135.691 164.674C135.489 164.607 135.282 164.621 135.068 164.715C135.043 164.728 134.98 164.855 134.886 165.097C134.792 165.338 134.691 165.572 134.578 165.814C134.484 166.015 134.408 166.155 134.345 166.236C134.125 166.517 133.937 166.826 133.786 167.147L133.641 167.382L133.566 167.61C133.836 167.704 134.113 167.73 134.383 167.697V167.69Z" fill="#14222F"/>
<path d="M137.086 182.239C137.099 182.172 137.149 182.045 137.237 181.864C137.312 181.656 137.463 181.321 137.69 180.852C137.759 180.705 137.822 180.544 137.891 180.369C137.954 180.195 138.054 179.961 138.193 179.672L139.959 175.96C140.129 175.598 140.311 175.249 140.506 174.914C140.694 174.579 140.833 174.331 140.908 174.17C141.38 173.366 141.794 172.582 142.153 171.825C142.599 170.887 142.926 170.136 143.127 169.573C143.385 168.95 143.63 168.38 143.875 167.877C144.416 166.738 145.076 165.418 145.855 163.923C145.968 163.689 146.088 163.548 146.22 163.495C146.352 163.441 146.496 163.448 146.66 163.501L147.056 163.669C147.219 163.722 147.477 163.83 147.829 163.977C148.181 164.124 148.621 164.292 149.149 164.473C149.753 164.674 150.482 164.868 151.343 165.056C152.361 165.317 153.034 165.498 153.361 165.612C154.109 165.867 154.775 166.122 155.372 166.383L156.34 166.745C156.579 166.825 156.705 166.933 156.73 167.067C156.749 167.201 156.692 167.408 156.554 167.703C156.479 167.864 156.359 168.152 156.208 168.561C156.02 169.044 155.844 169.459 155.68 169.801C155.511 170.163 155.322 170.484 155.121 170.773C154.97 171.041 154.781 171.128 154.543 171.054C154.467 171.027 154.379 170.98 154.266 170.9C154.153 170.82 154.071 170.759 154.002 170.719C153.757 170.572 152.977 170.277 151.664 169.834L150.639 169.459C150.413 169.359 150.067 169.238 149.614 169.084C149.287 168.97 149.036 168.896 148.866 168.863C148.301 168.715 147.81 168.568 147.395 168.427L145.962 167.911C145.818 167.864 145.717 167.864 145.673 167.924C145.623 167.985 145.547 168.125 145.434 168.36C145.277 168.682 145.139 168.963 145.007 169.191C144.623 169.901 144.328 170.484 144.114 170.933L143.353 172.535C143.171 172.917 143.045 173.205 142.97 173.413C143.108 173.48 143.347 173.574 143.693 173.688C143.995 173.808 144.623 174.036 145.591 174.358C145.994 174.492 146.584 174.673 147.364 174.894C147.961 175.055 148.357 175.169 148.539 175.229C148.797 175.316 149.042 175.417 149.287 175.531C149.526 175.645 149.715 175.725 149.841 175.765C150.079 175.846 150.142 175.993 150.042 176.208C150.01 176.281 149.947 176.382 149.866 176.509C149.784 176.637 149.69 176.811 149.589 177.025L148.929 178.473C148.854 178.634 148.778 178.741 148.715 178.795C148.646 178.848 148.571 178.855 148.477 178.821C148.42 178.801 148.351 178.761 148.263 178.701C148.175 178.64 148.093 178.593 148.024 178.573C147.86 178.52 147.559 178.406 147.119 178.238C146.679 178.071 146.082 177.856 145.315 177.595C144.497 177.32 143.768 177.112 143.133 176.985C142.498 176.851 142.115 176.764 141.989 176.724C141.788 176.657 141.675 176.61 141.65 176.576C141.556 176.543 141.505 176.516 141.499 176.496L140.21 179.203C140.336 179.244 140.443 179.27 140.525 179.277L141.304 179.505L144.541 180.564C145.195 180.785 145.711 180.973 146.088 181.113L147.961 181.777L149.118 182.139C149.338 182.212 149.457 182.313 149.482 182.434C149.507 182.554 149.482 182.708 149.394 182.889L149.111 183.419L148.181 185.309C148.043 185.597 147.892 185.751 147.735 185.771C147.578 185.791 147.383 185.758 147.15 185.671C146.918 185.583 146.729 185.51 146.584 185.463C145.799 185.201 145.132 184.96 144.579 184.752L141.807 183.781C141.587 183.707 140.481 183.365 138.494 182.755L137.444 182.434L137.268 182.407C137.162 182.373 137.111 182.32 137.124 182.246L137.086 182.239Z" fill="#14222F"/>
<path d="M151.4 186.623C150.802 185.899 150.419 185.302 150.237 184.847C150.13 184.626 150.161 184.445 150.331 184.311C150.362 184.284 150.513 184.163 150.771 183.955C151.029 183.748 151.211 183.667 151.318 183.701L151.374 183.721C151.431 183.741 151.475 183.768 151.506 183.815C151.538 183.855 151.569 183.929 151.601 184.016C151.632 184.11 151.67 184.217 151.72 184.337C151.846 184.652 152.179 185.075 152.732 185.611C153.279 186.14 153.782 186.482 154.241 186.643C155.209 186.971 156.221 187.078 157.29 186.964C158.358 186.851 159.207 186.14 159.835 184.82C160.099 184.257 160.087 183.687 159.779 183.104C159.477 182.521 158.93 181.771 158.144 180.852L157.277 179.807C156.347 178.654 155.718 177.542 155.397 176.463C155.077 175.391 155.234 174.171 155.881 172.817C156.416 171.698 157.202 170.833 158.245 170.217C159.289 169.607 160.401 169.245 161.577 169.138C162.758 169.031 163.827 169.138 164.795 169.473C166.379 170.009 167.404 170.713 167.875 171.584C168.347 172.455 168.592 172.918 168.611 172.965C168.73 173.152 168.762 173.313 168.705 173.434C168.667 173.507 168.598 173.568 168.491 173.615C168.403 173.668 168.221 173.782 167.944 173.963C167.668 174.144 167.486 174.218 167.391 174.184C167.297 174.151 167.203 174.07 167.102 173.93L166.989 173.702C166.077 172.241 165.135 171.343 164.148 171.014C162.89 170.592 161.803 170.552 160.885 170.9C159.967 171.249 159.301 171.859 158.886 172.73C158.534 173.474 158.503 174.191 158.786 174.901C159.075 175.605 159.54 176.342 160.194 177.106C160.395 177.301 160.615 177.488 160.841 177.669C161.589 178.319 162.212 178.956 162.708 179.572C163.205 180.189 163.538 180.987 163.714 181.958C163.884 182.93 163.689 184.009 163.117 185.202C162.142 187.246 160.778 188.405 159.018 188.68C157.258 188.955 155.517 188.801 153.788 188.218C152.789 187.883 151.99 187.346 151.393 186.623H151.4Z" fill="#14222F"/>
<path d="M172.735 194.242C172.269 194.021 171.289 193.659 169.799 193.156C168.887 192.848 168.227 192.633 167.819 192.519C167.498 192.432 166.989 192.271 166.279 192.03L163.752 191.146C163.469 191.032 163.129 190.904 162.727 190.77C162.469 190.683 162.319 190.596 162.268 190.502C162.218 190.415 162.224 190.294 162.293 190.147L162.526 189.725C162.576 189.658 162.627 189.577 162.671 189.49C162.696 189.437 162.752 189.303 162.828 189.088C162.909 188.874 163.085 188.485 163.349 187.929C163.607 187.386 164.009 186.495 164.563 185.255C164.99 184.223 165.43 183.238 165.876 182.299C166.065 181.904 166.656 180.771 167.655 178.902C167.857 178.526 168.051 178.158 168.253 177.782C168.454 177.407 168.623 177.072 168.768 176.764C169.767 174.666 170.396 173.279 170.66 172.589C170.811 172.139 171.182 172.005 171.76 172.207C171.905 172.253 172.137 172.354 172.445 172.501C172.716 172.635 172.929 172.729 173.074 172.776L174.821 173.306C176.091 173.654 177.066 173.936 177.738 174.17C178.518 174.431 179.611 174.827 181.013 175.343C181.46 175.517 181.937 175.685 182.446 175.859C182.666 175.933 182.773 176.033 182.78 176.161C182.78 176.288 182.754 176.408 182.685 176.522C182.622 176.636 182.578 176.71 182.56 176.75L182.415 177.045C182.22 177.461 182.082 177.655 182.006 177.635C181.9 177.601 181.78 177.541 181.654 177.467C181.529 177.394 181.372 177.327 181.17 177.253L173.426 174.606C173.319 174.572 172.892 174.458 172.156 174.271L171.502 174.11L171.1 174.82C170.956 175.082 170.742 175.504 170.465 176.087C170.327 176.375 170.164 176.764 169.981 177.246C169.811 177.695 169.679 178.017 169.585 178.211L169.07 179.297C168.931 179.585 168.831 179.813 168.774 179.987C168.931 180.061 169.17 180.155 169.497 180.262L170.591 180.631C170.698 180.671 170.93 180.724 171.27 180.798C171.76 180.925 172.175 181.046 172.527 181.16C172.672 181.207 173.168 181.408 174.017 181.756L174.601 181.984C174.746 182.031 174.966 182.092 175.249 182.152C175.538 182.219 175.808 182.293 176.06 182.38L176.946 182.715C177.405 182.909 177.719 183.043 177.902 183.104C178.103 183.171 178.241 183.211 178.323 183.217L178.499 183.244C178.625 183.284 178.7 183.358 178.713 183.459C178.725 183.559 178.713 183.64 178.656 183.707C178.581 183.827 178.493 183.981 178.405 184.169C178.317 184.357 178.222 184.524 178.141 184.665C178.053 184.806 177.983 184.879 177.933 184.893C177.883 184.906 177.77 184.886 177.587 184.826L176.544 184.35C175.236 183.76 174.375 183.398 173.96 183.258C172.414 182.735 171.264 182.38 170.509 182.185C170.201 182.125 169.874 182.031 169.529 181.917C169.183 181.803 168.963 181.73 168.875 181.696C168.529 181.582 168.278 181.482 168.121 181.408L167.831 181.817C167.643 182.132 167.486 182.413 167.366 182.668C167.266 182.882 167.159 183.144 167.058 183.445C166.958 183.747 166.857 184.008 166.75 184.223L165.242 187.46L164.569 188.807C164.475 188.961 164.355 189.189 164.217 189.477C164.443 189.577 164.789 189.698 165.242 189.852C165.612 190 166.203 190.207 167.002 190.482L168.466 191.012C168.768 191.132 169.233 191.3 169.874 191.521C170.258 191.648 170.767 191.802 171.402 191.977L172.558 192.338C172.999 192.486 173.357 192.62 173.64 192.734C173.923 192.848 174.136 192.935 174.281 192.982C174.425 193.029 174.501 193.089 174.501 193.149C174.501 193.21 174.463 193.337 174.375 193.518C174.312 193.645 174.243 193.773 174.161 193.9C174.08 194.027 173.998 194.175 173.923 194.336C173.86 194.463 173.778 194.53 173.665 194.55C173.552 194.563 173.395 194.537 173.193 194.47C172.992 194.403 172.835 194.336 172.716 194.275L172.735 194.242Z" fill="#14222F"/>
<path d="M175.519 195.623C175.481 195.502 175.513 195.335 175.613 195.12L175.94 194.504L176.632 192.915C177.417 190.999 178.14 189.343 178.807 187.956C179.152 187.232 179.416 186.743 179.599 186.495C179.907 186.073 180.56 184.82 181.56 182.722C182.603 180.537 183.352 178.868 183.81 177.722C183.861 177.568 183.949 177.367 184.068 177.119C184.206 176.831 184.332 176.63 184.445 176.523C184.558 176.416 184.653 176.369 184.722 176.382C184.791 176.396 184.904 176.429 185.068 176.483L185.696 176.63C187.023 176.912 188.053 177.173 188.802 177.428C190.838 178.118 192.127 179.157 192.661 180.544C193.195 181.931 193.063 183.452 192.271 185.114C191.643 186.435 190.612 187.554 189.179 188.472C188.563 188.874 187.921 189.203 187.249 189.457L187.519 193.545C187.733 196.514 187.877 198.196 187.965 198.605C188.028 199.088 188.035 199.396 187.972 199.523C187.94 199.597 187.871 199.624 187.771 199.61C187.67 199.597 187.588 199.583 187.525 199.557C187.463 199.537 187.412 199.516 187.375 199.503L184.25 198.538C184.106 198.491 184.024 198.384 183.999 198.23C183.98 198.076 183.974 197.814 183.98 197.439C184.018 197.137 184.024 196.722 184.005 196.186C183.949 195.415 183.905 193.981 183.867 191.89L183.754 188.733L183.15 190.194L182.302 192.299C181.258 194.758 180.711 196.125 180.661 196.4C180.642 196.481 180.611 196.574 180.56 196.682C180.403 197.01 180.152 197.111 179.812 196.997C179.706 196.956 179.618 196.916 179.548 196.876C179.272 196.742 178.549 196.541 177.367 196.266C176.569 196.078 176.085 195.958 175.921 195.904C175.683 195.824 175.544 195.723 175.507 195.609L175.519 195.623ZM186.124 185.175C186.746 185.114 187.23 184.719 187.576 183.995C187.827 183.473 187.928 183.057 187.884 182.749C187.84 182.44 187.689 182.246 187.437 182.159C187.236 182.092 187.029 182.105 186.815 182.199C186.79 182.213 186.727 182.34 186.633 182.581C186.539 182.822 186.438 183.057 186.325 183.298C186.231 183.499 186.149 183.64 186.092 183.721C185.872 184.002 185.684 184.31 185.533 184.632L185.388 184.866L185.313 185.094C185.583 185.188 185.853 185.215 186.124 185.181V185.175Z" fill="#14222F"/>
<path d="M193.56 201.232C193.535 201.191 193.529 201.151 193.535 201.111C193.541 201.071 193.541 201.037 193.535 201.017L193.742 199.516C194.019 197.7 194.17 196.594 194.207 196.212L194.83 190.382C194.83 190.422 194.949 189.597 195.194 187.895C195.402 186.709 195.559 185.67 195.666 184.779C195.666 184.551 195.798 183.787 196.062 182.487L196.364 180.986C196.382 180.765 196.426 180.59 196.489 180.463C196.521 180.389 196.565 180.349 196.609 180.349C196.653 180.349 196.697 180.349 196.734 180.349C196.772 180.349 196.804 180.356 196.822 180.363L197.778 180.684L197.86 180.711C198.023 180.765 198.117 180.832 198.149 180.905C198.174 180.979 198.18 181.06 198.161 181.147C198.143 181.234 198.13 181.301 198.13 181.341C198.117 181.629 197.979 182.34 197.721 183.465C197.564 184.189 197.376 185.416 197.143 187.138C197.099 187.46 197.011 188.07 196.885 188.974C196.76 189.879 196.653 190.536 196.565 190.945C196.345 191.983 196.15 193.196 195.974 194.584L195.873 195.529C195.766 196.286 195.691 196.916 195.647 197.405C195.634 197.74 195.628 197.928 195.634 197.968C195.942 197.633 196.401 197.15 197.005 196.527C197.608 195.904 198.08 195.435 198.413 195.133C198.752 194.872 199.4 194.215 200.362 193.163C201.33 192.117 202.128 191.239 202.756 190.529L205.246 188.096C206.05 187.339 206.541 186.863 206.717 186.676C207.062 186.354 207.471 185.912 207.949 185.362L208.584 184.692C208.691 184.558 208.779 184.484 208.86 184.471C208.942 184.457 209.03 184.497 209.137 184.591C209.231 184.665 209.351 184.725 209.508 184.779C209.665 184.833 209.759 184.866 209.797 184.873C209.904 184.913 209.948 184.953 209.923 185.007C209.904 185.04 209.828 185.121 209.684 185.241C208.86 186.079 208.219 186.669 207.76 187.017C207.421 187.279 206.44 188.284 204.806 190.033C203.171 191.776 202.103 192.935 201.6 193.498C201.562 193.525 200.594 194.543 198.689 196.54C197.545 197.747 196.848 198.477 196.602 198.732C196.169 199.154 195.685 199.643 195.15 200.206C194.616 200.769 194.314 201.084 194.245 201.145C194.138 201.279 194.057 201.352 193.994 201.372C193.931 201.393 193.843 201.386 193.736 201.346C193.642 201.312 193.585 201.279 193.566 201.238L193.56 201.232Z" fill="#14222F"/>
<path d="M199.488 202.968C199.513 202.914 199.544 202.874 199.582 202.84C199.601 202.807 199.632 202.76 199.676 202.713C199.72 202.666 199.789 202.592 199.877 202.499L200.6 201.58C200.688 201.487 200.839 201.319 201.065 201.078C201.285 200.837 201.468 200.609 201.619 200.381C201.914 199.979 202.404 199.376 203.077 198.578L203.655 197.895C204.535 196.889 205.126 196.179 205.434 195.757L206.503 194.45C206.968 193.914 207.257 193.572 207.37 193.424C207.754 192.929 208.263 192.312 208.885 191.575L209.438 190.878L209.872 190.362C210.344 189.806 210.715 189.417 210.972 189.189C211.06 189.095 211.368 188.76 211.903 188.197C212.437 187.634 212.827 187.172 213.084 186.817C213.418 186.428 213.707 186.146 213.946 185.972C214.184 185.805 214.423 185.758 214.662 185.838C214.75 185.865 214.807 185.979 214.819 186.173C214.832 186.368 214.826 186.595 214.807 186.863C214.788 187.132 214.769 187.319 214.75 187.44C214.731 187.835 214.58 188.78 214.285 190.275L214.14 191.106C214.09 191.26 213.971 192.245 213.776 194.068L213.581 195.737L213.468 197.177C213.298 198.779 213.21 199.758 213.21 200.113C212.933 202.244 212.757 203.524 212.676 203.96C212.581 204.476 212.506 205.132 212.449 205.93C212.399 206.727 212.368 207.183 212.361 207.284C212.361 207.431 212.343 207.532 212.311 207.585C212.28 207.659 212.16 207.659 211.959 207.585L210.432 207.069C210.356 207.042 210.306 207.009 210.274 206.969C210.243 206.928 210.23 206.841 210.249 206.721C210.268 206.5 210.325 206.138 210.413 205.642C210.463 205.132 210.551 204.69 210.664 204.308C210.74 204.02 210.809 203.665 210.872 203.242C210.935 202.827 210.966 202.499 210.972 202.271C210.972 201.875 211.01 201.433 211.092 200.957L211.217 200.086C211.217 199.858 211.217 199.711 211.186 199.65C211.161 199.59 211.098 199.543 210.985 199.503C210.601 199.376 210.318 199.288 210.124 199.242L208.923 198.9C208.766 198.866 208.093 198.652 206.886 198.243L205.221 197.68L205.164 197.66C205.057 197.626 204.925 197.693 204.774 197.874L204.592 198.129L204.24 198.605C204.152 198.699 203.787 199.188 203.14 200.059C202.939 200.347 202.656 200.716 202.297 201.158C202.09 201.507 201.864 201.775 201.625 201.969C201.562 202.009 201.455 202.123 201.311 202.304C201.16 202.485 201.04 202.633 200.94 202.747C200.814 202.874 200.638 203.088 200.412 203.39C200.387 203.403 200.349 203.437 200.299 203.49C200.248 203.551 200.204 203.571 200.167 203.571C200.129 203.571 200.066 203.551 199.997 203.531L199.45 203.343C199.286 203.289 199.299 203.155 199.481 202.948L199.488 202.968ZM208.678 196.728C208.917 196.769 209.231 196.856 209.633 196.99L211.098 197.513C211.337 197.593 211.481 197.566 211.544 197.445C211.588 197.358 211.62 197.137 211.639 196.782C211.657 196.474 211.733 195.911 211.871 195.1C211.991 194.45 212.072 193.88 212.116 193.391C212.192 192.788 212.305 192.077 212.443 191.267C212.581 190.456 212.695 189.933 212.757 189.705C212.94 188.653 212.984 188.117 212.896 188.083C212.839 188.063 212.632 188.278 212.273 188.72L211.827 189.263C211.469 189.705 211.01 190.261 210.463 190.925C209.916 191.588 209.438 192.144 209.03 192.6C208.697 193.036 208.263 193.572 207.735 194.222C207.207 194.872 206.817 195.314 206.578 195.549C206.49 195.643 206.44 195.703 206.434 195.716C206.371 195.844 206.396 195.944 206.497 196.018C206.597 196.092 206.71 196.145 206.83 196.179C206.955 196.212 207.031 196.232 207.069 196.246L208.678 196.728Z" fill="#14222F"/>
<path d="M213.355 206.995L213.719 206.298L214.31 204.924L214.863 203.698L215.222 202.874C215.599 201.909 216.07 200.83 216.636 199.637C216.969 198.933 217.453 198.015 218.076 196.882C218.698 195.75 219.188 194.812 219.54 194.074L221.244 190.435C221.363 190.14 221.508 189.812 221.684 189.45C221.778 189.249 221.967 189.175 222.256 189.216C222.539 189.263 222.828 189.336 223.117 189.444C223.406 189.551 223.601 189.624 223.708 189.658L224.72 189.939C225.499 190.161 226.128 190.355 226.606 190.516C227.718 190.891 228.762 191.588 229.736 192.593C230.711 193.605 231.301 195.046 231.509 196.923C231.716 198.799 231.182 201.071 229.906 203.745C228.743 206.184 227.278 207.833 225.506 208.691C223.733 209.549 222.117 209.937 220.659 209.85C219.201 209.763 218.038 209.575 217.183 209.287L214.933 208.557C214.524 208.443 214.027 208.282 213.443 208.088C213.097 207.974 213.072 207.605 213.361 206.989L213.355 206.995ZM222.212 203.189C223.532 202.626 224.481 201.755 225.047 200.562C225.587 199.422 225.587 198.363 225.047 197.378C224.802 196.963 224.475 196.601 224.072 196.293C223.922 196.701 223.79 197.016 223.689 197.231C223.526 197.573 223.268 198.069 222.922 198.705C222.595 199.308 222.363 199.751 222.224 200.046C221.998 200.515 221.621 201.265 221.087 202.304C220.923 202.606 220.691 203.075 220.389 203.705C220.992 203.638 221.602 203.464 222.218 203.189H222.212Z" fill="#14222F"/>
<path d="M230.095 207.994C230.277 206.232 230.792 204.369 231.641 202.412C232.402 200.824 233.458 199.423 234.815 198.217C236.173 197.01 237.613 196.153 239.128 195.663C240.643 195.167 241.982 195.121 243.145 195.509C244.201 195.864 244.974 196.159 245.464 196.387C245.961 196.615 246.35 196.937 246.64 197.352C247.388 198.445 247.802 199.718 247.878 201.172C247.953 202.626 247.853 203.98 247.557 205.233C247.268 206.487 246.96 207.452 246.646 208.115C246.112 209.234 245.313 210.474 244.251 211.841C243.189 213.202 241.774 214.321 240.001 215.206C238.229 216.083 236.242 216.15 234.042 215.407C231.019 214.388 229.705 211.915 230.088 208.001L230.095 207.994ZM240.09 212.9C241.799 211.62 243.233 209.77 244.383 207.351C245.087 205.87 245.514 204.422 245.672 203.022C245.822 201.614 245.672 200.401 245.219 199.376C244.766 198.351 244.012 197.66 242.956 197.305C242.868 197.272 242.623 197.191 242.233 197.057C241.843 196.923 241.472 196.876 241.12 196.903C240.768 196.93 240.416 197.03 240.058 197.205C239.172 197.6 238.405 197.975 237.764 198.331C237.122 198.686 236.356 199.289 235.482 200.127C234.608 200.964 233.866 202.023 233.257 203.31C232.534 204.825 232.043 206.306 231.792 207.74C231.54 209.174 231.628 210.447 232.056 211.54C232.483 212.639 233.345 213.409 234.633 213.845C236.563 214.495 238.38 214.187 240.09 212.907V212.9Z" fill="#14222F"/>
<path d="M105.166 160.687L121.396 156.552L132.686 160.687L138.017 151.814L118.429 140.528L95.6989 144.784L105.166 160.687Z" fill="#FFAF32"/>
<path d="M95.6989 144.784H83.8057L61.2639 132.124L48.2832 162.805L75.3195 171.048L89.0608 185.778L98.8985 189.478L121.396 156.552L95.6989 144.784Z" fill="#FFAF32"/>
<path d="M121.396 156.552L106.787 162.202L100.338 176.858L111.496 171.021L121.396 156.552Z" fill="#D37B11"/>
<path d="M68.631 176.858L43.5433 169.191L59.7174 127.312L85.6788 138.712L68.631 176.858Z" fill="#14222F"/>
<path d="M0 159.903L59.1895 168.079L70.7118 140.528L19.8891 118.922L0 159.903Z" fill="#14222F"/>
<path d="M309.211 257.915C333.454 257.915 353.106 253.877 353.106 248.895C353.106 243.913 333.454 239.874 309.211 239.874C284.968 239.874 265.315 243.913 265.315 248.895C265.315 253.877 284.968 257.915 309.211 257.915Z" fill="#137171"/>
<path d="M309.211 254.457C339.297 254.457 363.686 248.336 363.686 240.786C363.686 233.235 339.297 227.114 309.211 227.114C279.125 227.114 254.736 233.235 254.736 240.786C254.736 248.336 279.125 254.457 309.211 254.457Z" fill="#00A19E"/>
<path d="M294.024 175.726L287.744 187.025L293.32 221.043L321.77 239.874L346.657 236.316L358.852 227.295L355.495 215.313L341.207 217.082L314.705 205.796L304.056 177.991L294.024 175.726Z" fill="#FFAF32"/>
<path d="M274.499 183.051L278.151 175.726L284.878 172.804L291.698 175.726L293.948 180.558L299.323 196.977L313.687 215.749L332.457 218.215L349.611 217.036L354.081 218.959L356.645 227.517L352.767 234.561L345.488 239.875H328.61L286.147 222.712L281.709 199.015L274.499 183.051Z" fill="#C02E19"/>
<path d="M276.115 185.678L269.835 196.977L275.411 231.002L301.982 247.327L331.91 245.819L340.943 237.248L335.631 227.034L319.533 228.288L296.796 215.749L286.147 187.943L276.115 185.678Z" fill="#FFAF32"/>
<path d="M352.515 220.574L347.417 228.797" stroke="#FF5C45" stroke-width="2.26" stroke-miterlimit="10"/>
<path d="M346.116 222.256L353.1 225.299" stroke="#FF5C45" stroke-width="2.26" stroke-miterlimit="10"/>
<path d="M337.052 229.769L328.61 239.875L310.839 241.189L287.744 235.479L275.411 231.002L301.982 247.328L331.91 245.82L340.943 237.248L337.052 229.769Z" fill="#EB7C00"/>
<path d="M290.296 188.52V182.428H292.031L294.828 190.182L290.296 188.52Z" fill="#EDDCB6"/>
<path d="M319.583 222.792V216.7H321.311L324.115 224.448L319.583 222.792Z" fill="#EDDCB6"/>
<path d="M303.12 221.298V215.206H304.855L307.658 222.953L303.12 221.298Z" fill="#EDDCB6"/>
<path d="M295.18 197.413L299.82 200.777L299.147 202.486L292.653 201.467L295.18 197.413Z" fill="#EDDCB6"/>
<path d="M303.415 207.773L307.306 203.464L308.771 204.449L306.74 211.111L303.415 207.773Z" fill="#EDDCB6"/>
<path d="M169.045 222.872H233.294V260.255L221.546 278.845H188.733L172.628 264.852L169.045 254.035V222.872Z" fill="#E64927"/>
<path d="M170.044 226.391L164.21 224.783L152.751 235.841L154.913 250.859L167.448 261.193H172.64V255.892H167.668L158.804 248.058L158.584 237.918L164.858 233.307L171.125 235.613" fill="#E64927"/>
<path d="M233.294 239.057L222.356 264.57L195.861 270.91L172.627 264.852L188.732 278.845H221.546L233.294 260.254V239.057Z" fill="#C02E19"/>
<path d="M122.836 52.5753C124.615 44.5265 131.008 39.5941 138.545 37.6439C146.082 35.6937 153.977 36.652 161.709 37.3423C169.441 38.0326 177.474 38.4012 184.697 35.372C189.839 33.2207 194.246 29.4678 199.186 26.8273C204.127 24.1868 210.174 22.7392 215.09 25.4199C220.006 28.1006 220.301 37.5902 216.09 41.4035L122.842 52.5753H122.836Z" fill="#00A19E"/>
<path d="M109.308 97.2217L105.436 103.119L112.835 107.475L113.463 115.672L114.815 115.598V99.6008L109.308 97.2217Z" fill="#E64927"/>
<path d="M112.118 61.2068L112.973 78.5241L109.289 70.0732L108.604 59.136L112.118 61.2068Z" fill="#E64927"/>
<path d="M142.272 115.289C142.272 115.176 142.285 115.082 142.31 115.008C142.335 114.934 142.347 114.874 142.347 114.814C142.454 114.525 142.593 113.869 142.75 112.843C142.8 112.555 142.863 111.831 142.932 110.659C143.001 109.486 143.045 108.661 143.07 108.172L143.108 108.045C143.108 107.904 142.945 107.83 142.624 107.83H140.487C140.242 107.83 140.122 107.777 140.122 107.656C140.122 107.515 140.147 107.388 140.204 107.267C140.26 107.154 140.33 107.006 140.424 106.818C140.518 106.631 140.594 106.43 140.644 106.195C140.701 105.994 140.801 105.847 140.946 105.746C141.09 105.646 141.235 105.599 141.367 105.599C141.555 105.686 142.014 105.726 142.737 105.726C143.007 105.726 143.177 105.652 143.24 105.512C143.309 105.371 143.341 105.183 143.341 104.955C143.341 104.815 143.378 104.459 143.46 103.903C143.542 103.347 143.58 102.838 143.58 102.382C143.686 101.839 143.837 100.814 144.026 99.2991C144.214 97.7845 144.309 96.8396 144.309 96.471C144.309 96.1828 144.271 96.0153 144.189 95.955C144.108 95.9014 144.013 95.8679 143.906 95.8679H142.329C142.033 95.8679 141.882 95.7271 141.882 95.4389C141.939 95.2982 141.983 95.1709 142.021 95.0502C142.058 94.9363 142.121 94.809 142.203 94.6615C142.366 94.2594 142.498 94.0048 142.605 93.8909C142.769 93.8909 142.976 93.8707 143.234 93.8238C143.492 93.7836 143.749 93.7568 144.02 93.7568C144.233 93.7568 144.384 93.7166 144.466 93.6295C144.548 93.5424 144.623 93.4016 144.686 93.2006C144.755 92.9995 144.812 92.832 144.868 92.6845C144.893 92.5438 145 91.9406 145.189 90.8818C145.377 89.8229 145.472 88.9115 145.472 88.1408C145.472 87.5979 145.597 87.2629 145.855 87.1355C146.113 87.0082 146.509 86.9412 147.049 86.9412H149.47C149.765 86.9412 150.073 86.9814 150.4 87.0685C150.72 87.1556 150.978 87.2092 151.167 87.2427C151.519 87.2695 151.689 87.3969 151.689 87.6314C151.689 87.7454 151.657 87.8794 151.588 88.0402C151.519 88.2011 151.475 88.3351 151.45 88.449C151.179 89.5347 150.991 90.4529 150.884 91.1901C150.859 91.5318 150.79 91.9205 150.683 92.3495C150.551 93.0933 150.519 93.5089 150.601 93.596C150.601 93.7367 150.733 93.8104 151.003 93.8104L151.77 93.7702C152.336 93.7702 153.373 93.6563 154.882 93.4284H158.76C158.924 93.4284 159.031 93.3882 159.081 93.3011C159.138 93.214 159.175 93.0866 159.2 92.9124C159.226 92.7382 159.257 92.6108 159.282 92.5237C159.364 91.954 159.496 91.1834 159.684 90.2116C159.873 89.2399 160.036 88.5563 160.168 88.1542C160.275 87.4706 160.502 87.2092 160.854 87.3835C160.91 87.3835 161.061 87.3634 161.319 87.3165C161.576 87.2762 161.903 87.2494 162.306 87.2494C162.551 87.2763 162.67 87.3634 162.67 87.5041C162.67 87.5912 162.601 87.7856 162.469 88.0805C162.337 88.382 162.243 88.6434 162.186 88.8713L161.903 90.4596C161.608 92.2288 161.457 93.1738 161.457 93.2877C161.457 93.5155 161.589 93.6295 161.859 93.6295L162.425 93.5893C162.639 93.5893 163.217 93.4887 164.16 93.2877L164.324 93.2475C164.456 93.2475 164.556 93.3078 164.625 93.4217C164.694 93.5357 164.726 93.6496 164.726 93.7635C164.669 93.8238 164.625 93.9579 164.588 94.1723C164.55 94.3868 164.5 94.5945 164.443 94.7956C164.386 94.9966 164.273 95.1508 164.097 95.2647C163.921 95.3786 163.751 95.4389 163.594 95.4389H161.576C161.199 95.4389 161.011 95.7405 161.011 96.337C160.929 96.5112 160.835 96.9669 160.728 97.7108C160.621 98.4547 160.527 99.1517 160.445 99.8085C160.231 100.72 160.005 101.806 159.779 103.065C159.552 104.325 159.433 105.049 159.433 105.25L159.351 105.639C159.351 105.753 159.389 105.82 159.471 105.833C159.552 105.847 159.628 105.853 159.691 105.853H159.873C159.923 105.914 160.099 105.941 160.395 105.941C160.854 105.941 161.482 105.867 162.293 105.726C162.563 105.726 162.752 105.807 162.859 105.961C162.966 106.115 162.966 106.242 162.859 106.323C162.859 106.497 162.84 106.691 162.796 106.926C162.758 107.154 162.733 107.415 162.733 107.696C162.651 107.924 162.507 108.038 162.287 108.038L161.841 107.998L160.671 108.085L159.42 108.172C159.15 108.085 158.987 108.125 158.936 108.279C158.88 108.434 158.855 108.802 158.855 109.372C158.723 110.089 158.553 111.014 158.352 112.16C158.151 113.306 157.981 114.19 157.849 114.814C157.849 115.129 157.792 115.33 157.685 115.417C157.579 115.504 157.44 115.504 157.283 115.417C157.12 115.417 156.969 115.43 156.818 115.457C156.667 115.484 156.516 115.497 156.353 115.497C156.246 115.497 156.082 115.47 155.869 115.41C155.655 115.41 155.548 115.31 155.548 115.108C155.548 114.995 155.586 114.794 155.668 114.505C155.749 114.217 155.812 113.963 155.869 113.735C155.894 113.507 156.045 112.662 156.315 111.208C156.585 109.754 156.717 108.822 156.717 108.42L156.755 108.119C156.755 107.891 156.661 107.777 156.472 107.777L155.988 107.817C155.856 107.79 155.573 107.777 155.14 107.777L153.002 107.817L150.582 107.73L149.331 107.69C149.275 107.663 149.212 107.649 149.13 107.649C148.967 107.649 148.841 107.723 148.747 107.864C148.652 108.005 148.602 108.152 148.602 108.293C148.602 108.521 148.495 109.177 148.281 110.263C148.175 110.893 148.061 111.771 147.936 112.897C147.816 114.023 147.753 114.76 147.753 115.102C147.753 115.33 147.722 115.49 147.653 115.571C147.584 115.658 147.483 115.698 147.351 115.698C147.244 115.698 147.125 115.685 146.987 115.658C146.855 115.631 146.716 115.598 146.584 115.571C146.264 115.511 145.937 115.484 145.616 115.484C144.944 115.484 144.026 115.558 142.869 115.698C142.435 115.698 142.222 115.558 142.222 115.269L142.272 115.289ZM151.682 105.686L154.228 105.599C154.794 105.686 155.598 105.726 156.648 105.726C156.893 105.726 157.069 105.672 157.195 105.552C157.315 105.438 157.415 105.197 157.497 104.821L157.616 103.407C157.641 103.179 157.698 102.63 157.78 101.759C157.861 100.887 157.956 100.278 158.063 99.9358C158.333 98.2202 158.572 97.0675 158.792 96.4643C158.817 96.2901 158.848 96.1359 158.873 95.9952C158.899 95.8545 158.911 95.707 158.911 95.5663C158.911 95.2513 158.723 95.0972 158.345 95.0972C158.157 95.0972 157.868 95.124 157.478 95.1843C157.088 95.2446 156.787 95.2848 156.567 95.3116C155.542 95.4859 154.844 95.5663 154.467 95.5663C154.033 95.6266 153.606 95.6534 153.172 95.6534C152.77 95.6534 152.349 95.6266 151.921 95.5663C151.601 95.4524 151.236 95.392 150.834 95.392C150.538 95.392 150.375 95.4524 150.35 95.5663C150.293 95.7405 150.218 96.1091 150.104 96.6788L149.903 97.6639C149.903 98.066 149.809 99.0378 149.62 100.579C149.432 102.121 149.281 103.025 149.174 103.28C148.986 104.279 148.891 104.835 148.891 104.949V105.163C148.891 105.478 149.092 105.666 149.495 105.719L151.676 105.679L151.682 105.686Z" fill="#EDDCB6"/>
<path d="M167.165 119.189C167.165 119.096 167.152 119.002 167.133 118.908C167.108 118.814 167.121 118.7 167.165 118.559C167.165 117.534 167.429 116.958 167.95 116.817C169.176 116.629 170.358 116.354 171.496 115.979C171.76 115.885 172.351 115.698 173.268 115.423C175.324 115.47 176.399 114.961 176.487 113.888C176.531 113.144 176.55 112.146 176.55 110.893C176.55 109.405 176.525 108.078 176.487 106.918V100.646C176.531 98.3671 176.487 96.1823 176.355 94.0914L176.292 90.6065C176.292 89.0249 176.311 87.8387 176.355 87.0479L176.55 80.2859L170.767 82.236C169.365 82.5644 168.535 82.7253 168.271 82.7253C167.787 82.7253 167.548 82.6113 167.548 82.3768C167.416 82.1422 167.353 81.8675 167.353 81.5391C167.309 79.7229 167.353 78.5434 167.485 77.9805C167.661 77.518 168.227 77.0757 169.195 76.6535C173.489 76.419 178.109 75.0049 183.056 72.3979C183.622 72.2103 184.175 72.1165 184.697 72.1165C185.181 72.1165 185.551 72.1969 185.815 72.3577C186.079 72.5186 186.211 72.7397 186.211 73.0212C186.211 74.6028 186.167 76.553 186.079 78.8785L186.017 81.3916L185.621 87.8052V92.684L185.815 96.9396C185.903 98.4274 185.947 100.471 185.947 103.078C185.991 103.588 186.01 104.727 186.01 106.496C186.01 111.147 186.161 114.257 186.469 115.838C191.68 116.073 194.289 116.395 194.289 116.817L194.484 119.813C194.572 120.744 194.088 121.207 193.038 121.207C191.196 121.207 189.531 121.113 188.047 120.925C187.299 120.831 186.073 120.737 184.37 120.644C182.27 120.784 179.441 120.925 175.896 121.059L173.331 120.992C171.798 120.992 170.069 121.059 168.139 121.2C167.699 121.2 167.372 120.53 167.152 119.176L167.165 119.189Z" fill="#EDDCB6"/>
<path d="M321.884 175.277L311.895 170.311L323.222 171.899L329.182 159.816L327.893 172.321L338.472 178.554L327.271 176.356L320.369 190.255L321.884 175.277Z" fill="#EDDCB6"/>
</svg>
