<svg width="452" height="382" viewBox="0 0 452 382" fill="none" xmlns="http://www.w3.org/2000/svg">
<path d="M180.162 311.706L82.9454 285.157L98.6365 315.427L44.3116 311.243L80.7249 330.257L0 357.906L93.9214 354.794L79.4179 381.097L142.695 355.649L142.414 378.042L179.052 353.336L194.069 334.49L180.162 311.706Z" fill="#FD710C"/>
<path d="M384.596 304.795L386.563 286.306L396.246 278.26L404.116 286.285L409.935 303.814L410.792 325.638L403.027 333.614L392.817 328.26L384.596 304.795Z" fill="#14222F"/>
<path d="M296.289 130.324L291.679 141.166L285.137 146.093L279.972 143.276L262.257 137.234L236.989 102.815L247.22 137.234L253.593 145.792L241.015 158.197L229.976 162.423C229.365 161.127 228.304 159.921 227.158 159.164C224.664 157.517 221.487 156.312 220.49 153.396C218.958 148.897 223.764 144.853 224.699 140.178C225.865 134.319 220.525 129.041 215.044 127.528C209.563 126.021 203.738 126.869 198.165 125.825C192.586 124.773 186.697 120.701 186.529 114.716C186.255 104.848 200.646 100.755 201.77 90.95C202.283 86.3944 199.5 81.944 195.776 79.5751C192.059 77.2062 187.576 76.5895 183.24 76.5054C180.556 76.4563 177.801 76.5755 175.286 75.5943C172.777 74.606 170.535 72.1531 170.697 69.3216C170.838 66.6654 172.939 64.6469 174.913 62.9859C180.24 58.5074 185.819 54.3583 191.602 50.5597C193.274 45.6327 191.806 40.0048 188.595 36.08L191.216 35.3231L191.349 35.5194L212.36 29.6672L212.282 29.2117L219.548 27.1021L219.246 28.0482L236.989 22.0419L241.444 17.1289L247.164 17.1569L268.771 22.4274L284.659 49.0809C282.221 47.3918 279.312 46.3055 276.332 45.92L264.113 27.074L245.484 23.4226L236.989 31.0549V55.6059L241.999 72.6717C242.203 73.5197 242.519 74.4939 242.891 75.7204C242.941 75.8886 242.99 76.0638 243.046 76.2461C243.095 76.4143 243.144 76.5895 243.194 76.7647C244.704 82.2314 245.54 90.0459 248.478 94.7626L262.307 116.994C262.363 117.022 262.426 117.043 262.482 117.071L269.102 127.612L284.406 137.234L289.915 128.243C292.03 128.971 294.16 129.672 296.289 130.324Z" fill="#FF6E5F"/>
<path d="M212.359 29.667L191.349 35.5191L191.216 35.3229L205.157 31.2789L205.262 31.2439L212.282 29.2114L212.359 29.667Z" fill="#E64927"/>
<path d="M229.976 162.424L204.785 172.075L168.413 177.296L151.76 171.093L121.207 85.9744L130.201 58.9214L152.989 46.4112L188.595 36.0806C191.806 40.0054 193.274 45.6332 191.602 50.5602C185.819 54.3589 180.24 58.5079 174.913 62.9864C172.939 64.6474 170.838 66.6659 170.697 69.3221C170.535 72.1536 172.777 74.6066 175.286 75.5948C177.801 76.576 180.556 76.4568 183.24 76.5059C187.576 76.59 192.059 77.2067 195.776 79.5756C199.5 81.9445 202.283 86.395 201.77 90.9505C200.646 100.755 186.255 104.848 186.529 114.717C186.697 120.702 192.586 124.774 198.165 125.825C203.738 126.869 209.563 126.021 215.044 127.528C220.525 129.042 225.865 134.319 224.699 140.179C223.764 144.853 218.958 148.897 220.49 153.397C221.487 156.312 224.664 157.518 227.158 159.165C228.303 159.922 229.365 161.127 229.976 162.424Z" fill="#E64927"/>
<path d="M236.989 22.0422L219.246 28.0486L219.548 27.1024L219.555 27.0954L226.652 25.0349L236.989 22.0422Z" fill="#E64927"/>
<path d="M262.257 137.235L279.972 143.276L241.015 158.197L253.593 145.792L247.22 137.235L236.989 102.816L262.257 137.235Z" fill="#E64927"/>
<path d="M303.512 113.343L296.289 130.324C294.16 129.673 292.03 128.972 289.915 128.243L284.406 137.235L269.102 127.612L262.482 117.071C262.426 117.043 262.363 117.022 262.307 116.994L248.478 94.7629C245.54 90.0462 244.704 82.2316 243.194 76.7649C243.144 76.5897 243.095 76.4145 243.046 76.2463C242.99 76.0641 242.941 75.8889 242.891 75.7207C242.519 74.4942 242.203 73.52 241.999 72.672L236.989 55.6061V31.0552L245.484 23.4229L264.113 27.0743L276.332 45.9203C279.312 46.3058 282.221 47.3921 284.659 49.0812L291.264 60.1617L298.045 71.5366L299.205 80.3954L303.512 113.343Z" fill="#E64927"/>
<path d="M226.652 25.0345V17.7597L221.839 9.9942L215.929 8.04582L209.746 14.6969L212.282 29.2116L205.262 31.2441L202.866 23.0511L204.785 10.5759L207.16 5.95727L219.97 0L234.536 9.71385L236.989 22.0419L226.652 25.0345Z" fill="#FF6E5F"/>
<path d="M212.282 29.2112L212.36 29.6667L191.349 35.5189L191.216 35.3226L189.037 32.0496L197.772 27.5291L199.163 21.4878L204.785 10.5754L202.866 23.0507L205.262 31.2437L212.282 29.2112Z" fill="#E64927"/>
<path d="M236.989 22.0418L219.246 28.0482L219.548 27.102L219.555 27.095L222.752 17.1288L221.839 9.99414L226.652 17.7596V25.0345L236.989 22.0418Z" fill="#E64927"/>
<path d="M204.778 172.074L162.94 158.723L136.216 116.385L133.658 72.9315L152.982 46.4111L130.201 58.9214L114.988 84.6148L121.207 130.619L143.728 168.101L171.73 180.282L204.778 172.074Z" fill="#C02E19"/>
<path d="M299.043 113.343L289.915 128.243L284.406 137.235L269.102 127.612L262.482 117.071L248.478 94.7629L243.194 76.7649C243.144 76.5897 243.095 76.4145 243.046 76.2463C242.99 76.0641 242.941 75.8889 242.891 75.7207L241.999 72.672L236.989 55.6061V31.0552L245.484 23.4229L264.113 27.0743L276.332 45.9203L292.15 70.3241L292.719 71.2002L293.204 74.4381L299.043 113.343Z" fill="#E64927"/>
<path d="M241.015 158.197L253.593 145.792L247.22 137.235L236.989 102.816L262.257 137.235L279.972 143.276L241.015 158.197Z" fill="#E64927"/>
<path d="M205.263 31.2437L205.157 31.2787L191.349 35.5189L191.216 35.3226L189.037 32.0496L197.772 27.5291L199.163 21.4878L204.785 10.5754L202.866 23.0507L205.263 31.2437Z" fill="#E64927"/>
<path d="M226.652 17.7596V25.0345L219.555 27.095L219.527 27.102L222.661 16.6663L221.839 9.99414L226.652 17.7596Z" fill="#E64927"/>
<path d="M356.544 122.026C355.743 123.162 354.837 124.227 353.839 125.208C346.018 132.925 334.185 134.817 323.181 134.957C314.833 135.062 305.55 133.156 296.289 130.325C294.159 129.673 292.03 128.972 289.915 128.243C280.127 124.844 270.605 120.681 262.482 117.071C262.426 117.043 262.363 117.022 262.307 116.994L248.478 94.7631C245.54 90.0464 244.704 82.2318 243.193 76.7652C243.144 76.5899 243.095 76.4147 243.046 76.2465C242.99 76.0643 242.94 75.8891 242.891 75.7209C242.519 74.4944 242.203 73.5202 241.999 72.6722C241.655 71.2634 241.619 70.1981 242.161 68.8665C242.406 68.2568 242.779 67.591 243.299 66.806C245.871 62.9513 249.532 58.8863 253.172 55.5012C254.05 54.6812 254.928 53.9033 255.786 53.1814C260.88 48.8851 267.254 45.7453 273.929 45.7593C274.73 45.7593 275.531 45.8154 276.332 45.9205C279.312 46.306 282.221 47.3923 284.659 49.0814C287.02 50.7144 288.946 52.908 290.056 55.5643C290.674 57.0361 291.033 58.585 291.264 60.1619C291.56 62.2154 291.637 64.325 291.763 66.3995C291.841 67.7031 291.953 69.0277 292.15 70.3243C292.368 71.74 292.691 73.1277 293.204 74.4383C293.548 75.3144 293.977 76.1554 294.518 76.9404C295.579 78.4893 297.223 79.6036 299.205 80.3956C305.009 82.7294 313.652 82.2949 318.501 81.9935C327.193 81.4539 336.208 80.0381 344.416 82.9467C352.539 85.8342 358.961 93.0811 360.838 101.484C362.405 108.521 360.739 116.174 356.544 122.026Z" fill="#00A19E"/>
<path d="M332.92 8.69798C336.82 12.812 337.558 19.8766 333.855 24.1729C330.974 27.5159 326.329 28.6093 322.007 29.5204C314.995 30.9992 307.982 32.478 300.962 33.9568C289.41 36.3888 298.074 18.7833 301.44 14.459C308.382 5.53713 323.666 -1.05091 332.92 8.70499V8.69798Z" fill="#00A19E"/>
<path d="M356.544 122.026C355.743 123.161 354.837 124.227 353.839 125.208C346.018 132.924 334.185 134.817 323.181 134.957C314.833 135.062 305.55 133.155 296.289 130.324C294.159 129.672 292.03 128.971 289.915 128.242C280.127 124.843 270.605 120.68 262.482 117.071C262.426 117.043 262.363 117.022 262.307 116.994L248.478 94.7626C245.54 90.0459 244.704 82.2313 243.193 76.7647C243.144 76.5895 243.095 76.4143 243.046 76.246C242.99 76.0638 242.94 75.8886 242.891 75.7204C242.519 74.4939 242.203 73.5197 241.999 72.6717C241.655 71.263 241.619 70.1977 242.161 68.866C242.406 68.2563 242.779 67.5905 243.299 66.8055C245.871 62.9508 249.532 58.8859 253.172 55.5007C261.773 61.5842 264.415 73.1132 265.869 83.598C267.345 94.244 268.722 105.871 276.36 113.454C283.83 120.884 295.495 122.369 305.937 120.905C316.379 119.447 326.329 115.515 336.707 113.658C343.116 112.515 350.845 112.677 354.724 117.891C355.638 119.117 356.235 120.533 356.544 122.026Z" fill="#137171"/>
<path d="M439.356 285.956L360.901 330.523L346.011 336.467L314.397 328.869L304.51 298.473L294.37 294.871L278.363 302.601L275.819 320.382L275.503 322.604L194.069 334.49L180.169 311.705H160.304L150.375 324.58L151.366 343.405H117.602L105.417 310.934L82.9453 251.067L94.1321 228.584L148.387 201.769L385.713 158.723L400.68 164.189L423.468 214.644L439.356 285.956Z" fill="#00A19E"/>
<path d="M278.518 329.269L281.209 310.752L293.556 302.601L303.435 310.549L310.631 328.021L311.481 349.853L301.566 357.906L288.693 352.656L278.518 329.269Z" fill="#14222F"/>
<path d="M155.765 340.987L158.744 323.76L171.997 316.114L182.516 323.451L190.112 339.655L190.906 359.945L180.254 367.493L166.516 362.678L155.765 340.987Z" fill="#14222F"/>
<path d="M337.874 255.251L316.709 202.694L321.839 191.305L380.837 171.464L391.3 173.553L418.712 220.237L337.874 255.251Z" fill="#1BEAEA"/>
<path d="M394.651 284.19C403.581 284.19 410.82 275.304 410.82 264.342C410.82 253.38 403.581 244.493 394.651 244.493C385.721 244.493 378.482 253.38 378.482 264.342C378.482 275.304 385.721 284.19 394.651 284.19Z" fill="#FD710C"/>
<path d="M357.061 293.729C362.373 292.251 365.118 285.468 363.191 278.578C361.265 271.688 355.397 267.3 350.085 268.777C344.773 270.254 342.028 277.037 343.955 283.928C345.881 290.818 351.749 295.206 357.061 293.729Z" fill="#FFAF32"/>
<path d="M424.507 258.922C429.819 257.445 432.564 250.661 430.637 243.771C428.711 236.881 422.843 232.493 417.531 233.97C412.219 235.447 409.474 242.231 411.401 249.121C413.327 256.011 419.195 260.399 424.507 258.922Z" fill="#FFAF32"/>
<path d="M98.9175 239.868L92.2631 251.06L106.24 294.969L161.935 286.131L146.18 239.868L142.182 230.574L98.9175 239.868Z" fill="#1BEAEA"/>
<path d="M170.142 286.131L158.161 241.2V230.575L227.383 217.959L242.259 274.161L170.142 286.131Z" fill="#1BEAEA"/>
<path d="M255.189 269.079L242.259 227.918V217.959L297.708 207.691L322.562 261.398L255.189 269.079Z" fill="#1BEAEA"/>
<path d="M165.996 142.925L182.531 147.768L180.535 159.493L177.218 169.144L163.994 181.907L134.776 192.237" fill="#FD710C"/>
<path d="M118.818 154.398C134.389 149.969 150.129 146.135 165.996 142.925L168.287 158.884L153.432 183.357L134.776 192.237L111.334 178.676C109.795 176.405 106.113 160.32 106.113 160.32L118.811 154.391L118.818 154.398Z" fill="#EDDCB6"/>
<path d="M143.082 148.013L160.782 147.431L162.244 158.834L156.285 167.217C153.313 166.817 152.729 166.733 149.75 166.333L143.082 148.006V148.013Z" fill="#FFAF32"/>
<path d="M135.043 149.815C135.043 149.815 151.767 172.102 151.795 172.389L148.584 178.963C148.584 178.963 140.418 184.43 139.477 185.523L128.768 180.624L135.043 149.815Z" fill="#FFAF32"/>
<path d="M130.384 151.013L125.992 174.211C125.634 175.557 119.52 177.813 119.52 177.813C116.738 176.103 111.299 170.63 111.299 170.63L110.336 156.627L130.384 151.02V151.013Z" fill="#FFAF32"/>
<path d="M178.82 104.701L176.818 97.615L171.836 95.8418L169.559 100.012L168.09 91.3563L176.333 88.4127L174.33 81.3271L169.348 79.5539L166.818 83.8081L164.486 70.0083L159.503 68.2351L159.44 86.2471L151.064 89.0155L149.005 76.8346L144.023 75.0614L143.714 91.4474L131.719 100.797L136.701 102.57L144.93 99.6334L146.138 107.749L134.2 117.085L139.182 118.858L147.354 115.935L144.768 130.261L149.75 132.034L157.634 127.906L155.14 113.153L163.024 110.335L160.255 123.434L165.237 125.208L173.122 121.08L170.831 107.546L178.813 104.694L178.82 104.701ZM153.805 105.219L152.406 96.9632L160.6 94.0406L161.872 102.563L153.805 105.226V105.219Z" fill="#14222F"/>
<path d="M173.838 102.927L171.835 95.8418L164.577 98.2387L163.108 89.5832L171.351 86.6396L169.348 79.5539L161.829 82.0349L159.496 68.2351L152.652 72.4613L154.444 84.4809L146.068 87.2493L144.009 75.0684L137.165 79.2946L138.711 89.6813L129.941 92.5758L131.698 100.811L139.926 97.8743L141.135 105.99L132.422 108.871L134.178 117.106L142.351 114.183L144.754 130.282L152.638 126.154L150.143 111.401L158.028 108.583L160.248 123.455L168.132 119.327L165.841 105.794L173.824 102.941L173.838 102.927ZM148.815 103.446L147.417 95.19L155.61 92.2674L156.882 100.79L148.815 103.453V103.446Z" fill="#FFAF32"/>
<path d="M144.599 110.455L136.23 113.44L135.64 110.686L144.206 107.854L142.161 94.1457L133.736 97.1523L133.145 94.398L141.767 91.5525L140.144 80.6682L141.964 79.5469L143.875 90.8587L157.493 86.3592L155.631 73.8489L157.451 72.7275L159.637 85.6583L167.465 83.0722L167.992 84.9294L160.002 87.7819L162.384 101.862L169.952 99.36L170.479 101.217L162.743 103.979L165.082 117.821L162.398 119.229L160.255 104.869L147.051 109.586L149.602 124.64L146.918 126.049L144.592 110.462L144.599 110.455ZM144.325 93.3747L146.644 107.055L159.946 102.661L157.845 88.5458L144.325 93.3747Z" fill="#EDDCB6"/>
<path d="M186.051 83.528L207.356 47.5391L214.018 51.3097L225.872 121.304L238.176 114.204L244.838 117.968L249.314 133.359L196.366 142.337L189.705 138.566L209.696 123.302L202.199 75.4191L192.712 87.2986L186.051 83.528Z" fill="#14222F"/>
<path d="M172.953 73.1133L193.816 49.8238L207.356 47.5391L219.218 117.533L238.176 114.204L242.652 129.595L189.705 138.566L187.534 124.15L203.035 119.538L195.537 71.6555L186.051 83.528L172.953 73.1133Z" fill="#FFAF32"/>
<path d="M193.029 127.633L208.558 123.015L198.671 59.8677L185.271 76.6392L180.085 72.5181L196.338 54.373L203.323 53.1956L215.191 123.225L234.684 119.798L236.391 125.678L193.823 132.897L193.029 127.633Z" fill="#EDDCB6"/>
<path d="M383.5 90.7815C379.129 90.5012 372.489 90.5012 368.877 87.88C362.342 83.1422 361.147 75.573 360.613 74.0311C359.995 72.2439 357.964 71.6132 357.072 70.0292C355.821 67.8145 357.627 65.1022 359.7 63.6164C362.693 61.4718 365.047 59.3061 367.675 56.7761C372.439 52.1855 379.375 49.8516 386.022 50.5945" fill="#00CF70"/>
<path d="M383.633 50.3286L375.454 58.059L372.116 72.3355L374.547 85.1121L383.5 90.782L394.012 84.8878L397.638 74.1507L397.09 57.7016L390.07 51.0505L383.633 50.3286Z" fill="#EDDCB6"/>
<path d="M390.864 53.5457L388.299 66.5886L397.265 60.1267L390.864 53.5457Z" fill="#078C63"/>
<path d="M384.012 52.228L377.983 58.1853L387.47 66.133L388.98 52.7887L384.012 52.228Z" fill="#078C63"/>
<path d="M373.704 71.6205L377.766 60.0984L386.711 67.2892L373.704 71.6205Z" fill="#078C63"/>
<path d="M376.585 83.4299L374.435 73.8002L386.929 68.2634L376.585 83.4299Z" fill="#078C63"/>
<path d="M383.696 89.0858L378.974 84.6705L386.676 70.5132L389.114 85.9741L383.696 89.0858Z" fill="#078C63"/>
<path d="M404.321 56.5735C408.277 58.1714 411.628 61.066 413.765 64.7525C415.198 67.2125 415.802 70.128 416.055 72.9385C416.294 75.6017 417.531 77.7954 417.925 80.3885C418.199 82.1968 417.608 84.1101 416.372 85.4557C414.812 87.1448 412.415 87.334 410.546 88.5675C408.115 90.1655 405.62 92.1068 402.732 92.7727C400.449 93.2983 398.291 93.7188 395.923 93.5716C394.848 93.5086 390.435 93.2703 389.859 92.212L383.205 84.1241L386.795 67.7661L394.799 58.2555L404.306 56.5805L404.321 56.5735Z" fill="#00CF70"/>
<path d="M404.819 70.6461C406.096 70.6461 407.131 69.6137 407.131 68.3402C407.131 67.0668 406.096 66.0344 404.819 66.0344C403.542 66.0344 402.507 67.0668 402.507 68.3402C402.507 69.6137 403.542 70.6461 404.819 70.6461Z" fill="#078C63"/>
<path d="M406.021 77.816C407.297 77.816 408.333 76.7836 408.333 75.5102C408.333 74.2367 407.297 73.2043 406.021 73.2043C404.744 73.2043 403.709 74.2367 403.709 75.5102C403.709 76.7836 404.744 77.816 406.021 77.816Z" fill="#078C63"/>
<path d="M396.499 74.6905C397.776 74.6905 398.811 73.6581 398.811 72.3847C398.811 71.1112 397.776 70.0789 396.499 70.0789C395.223 70.0789 394.188 71.1112 394.188 72.3847C394.188 73.6581 395.223 74.6905 396.499 74.6905Z" fill="#078C63"/>
<path d="M313.491 101.092C328.645 101.092 340.931 88.8385 340.931 73.7234C340.931 58.6082 328.645 46.355 313.491 46.355C298.336 46.355 286.051 58.6082 286.051 73.7234C286.051 88.8385 298.336 101.092 313.491 101.092Z" fill="#FF6E5F"/>
<path d="M321.276 66.6443C323.031 66.6443 324.453 65.226 324.453 63.4765C324.453 61.7269 323.031 60.3086 321.276 60.3086C319.522 60.3086 318.1 61.7269 318.1 63.4765C318.1 65.226 319.522 66.6443 321.276 66.6443Z" fill="#E64927"/>
<path d="M326.511 75.1736C328.265 75.1736 329.687 73.7553 329.687 72.0058C329.687 70.2562 328.265 68.8379 326.511 68.8379C324.757 68.8379 323.335 70.2562 323.335 72.0058C323.335 73.7553 324.757 75.1736 326.511 75.1736Z" fill="#E64927"/>
<path d="M312.753 76.085C314.507 76.085 315.929 74.6667 315.929 72.9171C315.929 71.1676 314.507 69.7493 312.753 69.7493C310.999 69.7493 309.577 71.1676 309.577 72.9171C309.577 74.6667 310.999 76.085 312.753 76.085Z" fill="#E64927"/>
<path d="M287.231 65.4179L294.019 84.4321L314.481 94.9099L336.279 88.9877C336.279 88.9877 327.65 101.407 313.498 101.091C299.345 100.776 282.045 89.3101 287.231 65.4109V65.4179Z" fill="#E64927"/>
<path d="M247.621 191.074L217.679 192.238L186.051 198.384L149.483 207.692L140.285 215.752L163.509 219.634L228.163 200.858L243.412 196.583" fill="#137171"/>
<path d="M247.621 191.074L243.412 196.583L228.163 200.858L219.352 198.938L211.13 168.836L238.767 158.723L247.621 191.074Z" fill="#14222F"/>
<path d="M98.6365 271.091L102.241 259.197L120.617 252.041L130.286 255.251L133.195 243.904L146.18 239.867L161.935 286.131L106.24 294.969L98.6365 271.091Z" fill="#137171"/>
<path d="M246.869 245.79L250.474 233.903L268.849 226.747L278.518 229.95L281.427 218.61L300.077 212.807L322.563 261.398L254.472 269.675L246.869 245.79Z" fill="#137171"/>
<path d="M328.936 234.429L333.468 219.48L351.836 212.324L361.512 215.534L364.414 204.187L383.064 198.384L395.157 203.381L406.555 225.5L337.796 255.427L328.936 234.429Z" fill="#137171"/>
<path d="M163.509 261.797L167.114 249.904L185.482 242.748L195.158 245.958L198.06 234.611L215.782 228.093L230.721 230.574L242.259 274.16L229.534 276.277L170.142 286.131L163.509 261.797Z" fill="#137171"/>
<path d="M264.436 226.061L250.2 257.431L252.258 262.54L272.102 222.872L264.436 226.061Z" fill="#EDDCB6"/>
<path d="M354.057 193.107L339.813 224.484L341.872 229.593L361.716 189.925L354.057 193.107Z" fill="#EDDCB6"/>
<path d="M390.709 182.054L369.586 233.329L375.784 231.92L393.541 189.925L390.709 182.054Z" fill="#EDDCB6"/>
<path d="M130.384 244.746L116.148 276.123L118.206 281.232L138.05 241.564L130.384 244.746Z" fill="#EDDCB6"/>
<path d="M207.518 231.471L186.395 282.746L192.593 281.337L210.35 239.342L207.518 231.471Z" fill="#EDDCB6"/>
<path d="M236.792 255.251L242.259 274.161L194.069 282.157L236.792 255.251Z" fill="#14222F"/>
<path d="M331.922 317.467L330.214 330.04L335.969 338.233H357.971L380.239 333.229L451.92 281.59L450.213 266.101L444.233 259.198L435.266 262.709L438.028 268.911L373.577 319.001L352.848 322.155L331.922 317.467Z" fill="#EDDCB6"/>
<path d="M418.669 246.316L407.503 241.123L420.166 242.784L426.827 230.147L425.387 243.225L437.213 249.743L424.691 247.444L416.976 261.98L418.669 246.316Z" fill="#EDDCB6"/>
<path d="M404.046 275.73C405.121 275.73 405.993 274.861 405.993 273.789C405.993 272.717 405.121 271.847 404.046 271.847C402.971 271.847 402.1 272.717 402.1 273.789C402.1 274.861 402.971 275.73 404.046 275.73Z" fill="#E64927"/>
<path d="M398.2 271.259C399.275 271.259 400.146 270.39 400.146 269.318C400.146 268.246 399.275 267.376 398.2 267.376C397.125 267.376 396.253 268.246 396.253 269.318C396.253 270.39 397.125 271.259 398.2 271.259Z" fill="#E64927"/>
<path d="M404.861 266.283C405.936 266.283 406.808 265.414 406.808 264.342C406.808 263.269 405.936 262.4 404.861 262.4C403.786 262.4 402.915 263.269 402.915 264.342C402.915 265.414 403.786 266.283 404.861 266.283Z" fill="#E64927"/>
<path d="M352.307 256.842L358.111 262.975L370.247 266.129C374.112 266.871 380.843 264.432 380.843 264.432C382.185 263.535 382.558 259.435 382.389 258.216C382.08 255.966 380.773 251.81 380.773 251.81C377.492 251.284 367.373 250.065 367.373 250.065C367.373 250.065 355.912 253.997 352.314 256.842H352.307Z" fill="#00CF70"/>
<path d="M352.307 256.842L366.67 255.104L382.073 255.973L388.179 260.403L387.259 263.318L382.312 259.372L373.332 257.831L365.967 264.433H364.253L369.228 257.88L366.368 257.305L354.745 258.223L352.307 256.842Z" fill="#078C63"/>
<path d="M275.819 320.382L275.503 322.604L194.069 334.49L180.169 311.706H160.304L150.375 324.58L151.366 343.405H117.602L105.417 310.935C114.222 312.673 121.734 322.345 131.248 323.235C137.214 323.795 142.948 320.754 147.621 317.025C152.301 313.297 156.362 308.79 161.401 305.552C172.552 298.382 188.061 298.712 198.896 306.351C202.48 308.881 205.551 312.098 209.275 314.404C212.999 316.71 217.756 318.027 221.783 316.282C228.472 313.388 231.473 303.043 238.746 303.625C244.592 304.101 247.129 311.502 252.336 314.194C258.835 317.558 267.949 312.855 273.62 317.481C274.597 318.28 275.321 319.275 275.819 320.382Z" fill="#1BEAEA"/>
<path d="M123.582 346.222L127.103 343.405L125.339 333.614L120.764 330.257H112.669L110.695 325.008L104.23 333.13V343.405L118.347 346.222H123.582Z" fill="#EDDCB6"/>
<path d="M221.396 287.414C224.144 284.898 227.987 283.615 231.705 283.98C233.11 284.113 234.536 284.498 235.661 285.346C236.785 286.194 237.565 287.589 237.417 288.991C237.263 290.498 236.089 291.731 234.761 292.453C233.433 293.175 231.922 293.49 230.468 293.932C227.748 294.759 225.177 296.055 222.893 297.752C220.321 299.658 216.189 301.466 215.796 296.946C215.599 294.696 219.808 288.879 221.403 287.414H221.396Z" fill="#1BEAEA"/>
<path d="M257.423 298.081C259.067 297.205 261.246 297.254 262.665 298.459C263.979 299.574 264.436 301.501 264.007 303.162C263.579 304.823 262.37 306.218 260.909 307.129C258.906 308.376 253.889 310.472 253.53 306.834C253.221 303.73 254.556 299.609 257.423 298.074V298.081Z" fill="#1BEAEA"/>
</svg>
