<svg width="127" height="128" viewBox="0 0 127 128" fill="none" xmlns="http://www.w3.org/2000/svg">
<path d="M53.1386 46.5924C47.7553 45.3387 31.5395 46.8388 31.5395 46.8388L13.0149 47.2978L8.48998 58.1963C8.48998 58.1963 37.865 61.1033 53.7055 60.6955" fill="#E64927"/>
<path d="M69.4768 50.421C68.47 53.6605 69.1262 57.412 68.088 60.5722C67.4448 62.5465 61.1778 68.2845 61.1778 68.2845L51.3807 67.7147C51.3807 67.7147 50.0988 56.3366 50.2731 51.7228L60.0055 31.9418L81.5437 34.8519C83.2679 37.1513 87.3607 46.7698 86.9222 46.5773L102.519 45.9197L98.37 81.9769L81.7637 89.8099L64.4142 99.3709L51.0163 100.123L39.2194 85.8793L39.8699 59.4716" fill="#E64927"/>
<path d="M37.0483 61.1237C36.4172 64.2846 29.8181 68.1107 29.8181 68.1107C29.4502 69.6714 27.2553 77.0048 27.2553 77.0048L33.7335 79.1621C41.4738 79.7692 47.7723 80.5128 54.6272 76.8713C56.015 76.1309 60.976 74.6861 61.81 73.2618C62.717 71.7089 61.2265 66.2791 60.8459 64.5427C56.4225 64.1143 52.2198 61.7602 47.966 61.4265C44.5023 61.1495 40.9857 64.255 37.271 63.3441" fill="#E64927"/>
<path d="M35.421 75.9697L29.5235 86.062L32.2837 92.6948C32.2837 92.6948 35.4646 92.9544 39.2812 93.2454C47.0215 93.8525 49.6671 94.6013 56.5221 90.9598C57.9099 90.2194 62.8709 88.7746 63.7049 87.3503C64.6119 85.7974 63.1214 80.3676 62.7408 78.6312C58.3174 78.2028 54.1147 75.8487 49.8608 75.515C46.3972 75.238 42.8805 78.3435 39.1658 77.4326" fill="#E64927"/>
<path d="M71.8061 45.7126C70.3441 45.9594 67.4069 51.1674 67.4069 51.1674L67.0827 63.4422L70.5106 66.1863L70.4914 72.0623L66.1964 75.6239L70.8905 79.2663L69.0327 84.4382L58.6695 91.7641L45.7195 93.7083L51.0245 100.117L64.4225 99.3653L105.652 85.7682L102.711 45.6849L86.2432 70.9075L75.8522 66.4779L71.8205 45.715L71.8061 45.7126Z" fill="#C02E19"/>
<path d="M8.48975 58.1956L36.2508 61.2031L29.7564 67.9791L55.9684 68.6737L51.7957 66.3616L49.5239 57.626L26.8403 57.7596L8.48975 58.1956Z" fill="#C02E19"/>
<path d="M33.6364 79.1357L46.5645 79.9793L57.555 78.155L47.1157 83.5136L30.6627 84.1155L33.6364 79.1357Z" fill="#C02E19"/>
</svg>
