<svg width="39" height="39" viewBox="0 0 39 39" fill="none" xmlns="http://www.w3.org/2000/svg">
<path fill-rule="evenodd" clip-rule="evenodd" d="M30.7229 17.1138C24.5011 13.4189 14.2369 13.0787 8.29507 14.8817C7.34144 15.1693 6.33375 14.6326 6.04418 13.6771C5.75462 12.7234 6.29321 11.7157 7.24685 11.4261C14.0671 9.35478 25.4026 9.75421 32.5664 14.007C33.4235 14.5166 33.7054 15.6251 33.1958 16.4822C32.69 17.3393 31.5781 17.6234 30.7229 17.1138ZM30.5202 22.5865C30.0839 23.2949 29.1573 23.5166 28.4488 23.0823C23.2617 19.8932 15.3508 18.9704 9.21397 20.8332C8.4167 21.0726 7.57696 20.6247 7.33566 19.8294C7.09628 19.034 7.54414 18.194 8.33948 17.9527C15.3489 15.8253 24.0648 16.8564 30.0241 20.5184C30.7325 20.9528 30.9545 21.8799 30.5202 22.5865ZM28.1573 27.8424C27.8098 28.4099 27.0705 28.5895 26.5029 28.242C21.9703 25.4719 16.2639 24.8467 9.54407 26.3813C8.89737 26.53 8.25067 26.1241 8.10396 25.4755C7.95532 24.8288 8.35878 24.1848 9.00934 24.0362C16.3624 22.3548 22.6691 23.0782 27.7577 26.1881C28.3253 26.5356 28.5048 27.2748 28.1573 27.8424ZM19.3043 0C8.64256 0 0 8.64256 0 19.3043C0 29.9661 8.64256 38.6087 19.3043 38.6087C29.9661 38.6087 38.6087 29.9661 38.6087 19.3043C38.6087 8.64449 29.9661 0 19.3043 0Z" fill="#E64927"/>
</svg>
