<svg width="32" height="39" viewBox="0 0 32 39" fill="none" xmlns="http://www.w3.org/2000/svg">
<path d="M16.5225 0.0321891C18.4988 1.22311e-07 20.4607 0.0167382 22.4213 0C22.4865 2.61503 23.4813 4.96868 25.064 6.71204L25.0616 6.70946C26.7651 8.34595 28.9816 9.40689 31.4251 9.58715L31.4589 9.58973V16.0739C29.1506 16.0121 26.9799 15.4443 25.023 14.4683L25.1219 14.5121C24.1754 14.0266 23.375 13.5284 22.6144 12.9721L22.6772 13.0159C22.6627 17.7142 22.6917 22.4125 22.647 27.0941C22.5227 29.4799 21.779 31.6559 20.5862 33.4726L20.6104 33.4327C18.6159 36.4791 15.3853 38.4787 11.7115 38.5971H11.6946C11.5461 38.6048 11.3711 38.6087 11.1948 38.6087C9.10623 38.6087 7.15407 37.9881 5.49044 36.9104L5.53873 36.94C2.51088 34.9971 0.422295 31.6726 0.0359669 27.8061L0.0311378 27.7533C0.000955925 26.9486 -0.0135315 26.1439 0.0166504 25.3559C0.608216 19.2026 5.44215 14.4425 11.318 14.4425C11.9783 14.4425 12.6254 14.503 13.2544 14.6176L13.1868 14.6073C13.217 16.988 13.1265 19.37 13.1265 21.7507C12.6158 21.5537 12.0266 21.4391 11.4121 21.4391C9.15694 21.4391 7.23857 22.9765 6.5287 25.1228L6.51783 25.1614C6.35726 25.7112 6.2643 26.3434 6.2643 26.9975C6.2643 27.2627 6.28 27.5254 6.30897 27.7829L6.30656 27.752C6.70737 30.3864 8.82493 32.3743 11.3783 32.3743C11.452 32.3743 11.5244 32.3731 11.5968 32.3692H11.586C13.3522 32.3125 14.8855 31.2992 15.7523 29.8018L15.7644 29.7786C16.0867 29.2997 16.3076 28.7203 16.3813 28.0906L16.3825 28.0726C16.5334 25.1923 16.473 22.3288 16.4875 19.4486C16.502 12.9644 16.473 6.49573 16.5177 0.0283264L16.5225 0.0321891Z" fill="#E64927"/>
</svg>
