<svg width="210" height="129" viewBox="0 0 210 129" fill="none" xmlns="http://www.w3.org/2000/svg">
<path d="M181.762 6.5259L174.087 4.53415C172.867 9.33705 170.914 22.484 165.237 25.1996C127.144 43.4206 80.6567 67.842 21.5265 83.5218L20.4801 79.8272L15.9783 77.2405L10.8428 79.3076L18.5133 101.441L22.4606 98.7341L24.686 94.6781L24.067 92.4924C98.6023 76.2711 130.369 65.0796 181.536 73.4529L183.344 80.3089L191.772 82.8004L201.041 71.976L190.399 16.2949L181.762 6.5259Z" fill="#FD710C"/>
<path d="M90.9503 106.851L82.4875 77.1547L87.623 75.0876L96.0851 104.784L90.9503 106.851Z" fill="#C02E19"/>
<path d="M100.702 105.065L92.2395 75.3687L97.375 73.3016L105.837 102.998L100.702 105.065Z" fill="#C02E19"/>
<path d="M111.131 102.444L102.669 72.7471L107.804 70.68L116.266 100.377L111.131 102.444Z" fill="#C02E19"/>
<path d="M75.1336 58.0462L74.6583 53.5085L85.6064 48.5388L88.2713 52.0826L83.215 54.9059L85.5198 62.3103L80.4635 65.1336L79.6713 57.5709L75.1336 58.0462Z" fill="#C02E19"/>
<path d="M91.4544 53.2781L90.9791 48.7405L101.927 43.7708L104.592 47.3145L99.5358 50.1379L101.841 57.5422L96.7843 60.3656L95.9921 52.8028L91.4544 53.2781Z" fill="#C02E19"/>
<path d="M107.459 45.4849L106.984 40.9472L117.932 35.9776L120.596 39.5213L115.54 42.3447L117.845 49.749L112.789 52.5724L111.996 45.0096L107.459 45.4849Z" fill="#C02E19"/>
<path d="M181.299 37.478L178.685 12.4476L189.741 22.8293L197.336 70.6913L188.8 76.4414L181.299 37.478Z" fill="#C02E19"/>
<path d="M157.95 70.7991L149.827 61.2093L131.52 61.7146L145.164 74.1708L127.817 90.8888L65.9941 100.811L51.5701 92.4705L54.328 78.5706L46.1914 80.7162L45.8464 106.123L67.5672 106.776L131.429 96.7285L155.257 81.8005L157.95 70.7991Z" fill="#FD710C"/>
</svg>
