<svg width="334" height="198" viewBox="0 0 334 198" fill="none" xmlns="http://www.w3.org/2000/svg">
<path d="M248.133 115.6L202.614 115.6L213.199 136L166.829 115.6L12.4226 112.656L3.41096e-06 96.9831L5.09658 9.02002e-06L231.888 1.3588e-05L251 25.1116L248.133 115.6Z" fill="#E9DCB7"/>
<ellipse cx="22.5" cy="2.31289" rx="22.5" ry="2.31289" transform="matrix(-1 0 0 1 241 192.421)" fill="#43BFBA"/>
<ellipse cx="28" cy="3.08386" rx="28" ry="3.08386" transform="matrix(-1 0 0 1 220 186.253)" fill="#43BFBA"/>
<ellipse cx="50.5" cy="3.85482" rx="50.5" ry="3.85482" transform="matrix(-1 0 0 1 325 184.711)" fill="#43BFBA"/>
<path d="M319.231 94.6963L228.238 93L226.111 96.4031L227.526 105.928L220.443 158.323L227.526 183.503L244.882 190.415L304.013 187.928L316.051 177.034L321.358 157.301L318.266 143.056L316.402 99.8062L318.99 98.0994L319.231 94.6963Z" fill="#E64927"/>
<path d="M321.358 100.712L326.862 101.924L334 109.984L328.967 125.714L319.023 132.236L319.1 138.009H315.328V127.674L322.882 123.902L328.967 111.196L322.674 104.189L319.209 105.812L316.929 111.986L316.402 99.8063L318.99 98.0995L321.358 100.712Z" fill="#E64927"/>
<path d="M321.358 157.235L290.768 169.773H256.855L233.896 163.504L222.702 141.589L220.443 158.257L227.526 183.438L244.882 190.349L304.013 187.863L316.051 176.969L321.358 157.235Z" fill="#C02E19"/>
<path d="M226.111 96.6456L290.833 100.238L227.526 106.181L226.111 96.6456Z" fill="#C02E19"/>
<path d="M174.265 141.826H213.872L214.777 145.053L211.556 147.814L214.53 160.234L211.979 182.404L205.372 190.415L183.305 190.324L175.746 182.063L173.148 157.984L177.733 147.814L174.135 145.178L174.265 141.826Z" fill="#E64927"/>
<path d="M175.746 182.063L189.583 184.108L198.686 177.722L211.979 150.765L214.53 160.234L211.979 182.404L205.372 190.415L183.305 190.324L175.746 182.063Z" fill="#C02E19"/>
<path d="M214.777 145.053H187.138L211.556 147.814L214.777 145.053Z" fill="#C02E19"/>
<path d="M237.541 170.268H203.939V187.84L210.085 196.578H227.246L235.666 189.998L237.541 184.916V170.268Z" fill="#E64927"/>
<path d="M237.02 171.927L240.071 171.161L246.061 176.37L244.929 183.428L238.373 188.275H235.655V185.788H238.262L242.899 182.11L243.01 177.337L239.727 175.169L236.454 176.253" fill="#E64927"/>
<path d="M203.939 177.879L209.663 189.87L223.519 192.846L235.667 189.997L227.247 196.577H210.085L203.939 187.84V177.879Z" fill="#C02E19"/>
<path d="M254.663 127.094C254.663 127.094 255.034 118.149 254.729 114.316C254.759 115.041 252.586 119.58 249.757 125.744L237.666 123.183L248.678 129.861C248.678 129.861 250.115 144.47 250.216 146.555L253.679 130.579C253.679 130.579 263.325 131.727 266.577 132.52C263.242 131.269 257.882 128.453 254.66 127.105L254.663 127.094Z" fill="#FFA022"/>
</svg>
