<svg width="885" height="380" viewBox="0 0 885 380" fill="none" xmlns="http://www.w3.org/2000/svg">
<path d="M860.062 225.34L702.288 225.34L717.724 265L646.004 225.34L43.0584 216.298L-5.25688e-05 168.156L17.6658 0.000108592L803.757 0.000116279L870 77.1329L860.062 225.34Z" fill="#E9DCB7"/>
<ellipse cx="36.9265" cy="3.79586" rx="36.9265" ry="3.79586" transform="matrix(-1 0 0 1 732.37 371.455)" fill="#43BFBA"/>
<ellipse cx="45.9529" cy="5.06115" rx="45.9529" ry="5.06115" transform="matrix(-1 0 0 1 697.906 361.333)" fill="#43BFBA"/>
<ellipse cx="82.8794" cy="6.32644" rx="82.8794" ry="6.32644" transform="matrix(-1 0 0 1 870.229 358.802)" fill="#43BFBA"/>
<path d="M860.762 211.072L711.427 208.288L707.936 213.873L710.257 229.504L698.633 315.494L710.257 356.82L738.743 368.163L835.786 364.082L855.544 346.203L864.253 313.817L859.179 290.439L856.119 219.458L860.366 216.657L860.762 211.072Z" fill="#E64927"/>
<path d="M864.253 220.945L873.286 222.934L885 236.161L876.741 261.977L860.42 272.681L860.546 282.156H854.356V265.194L866.754 259.003L876.741 238.15L866.412 226.651L860.726 229.314L856.983 239.447L856.119 219.458L860.366 216.657L864.253 220.945Z" fill="#E64927"/>
<path d="M864.253 313.709L814.049 334.285H758.392L720.712 323.997L702.34 288.031L698.633 315.386L710.257 356.712L738.743 368.055L835.786 363.974L855.544 346.095L864.253 313.709Z" fill="#C02E19"/>
<path d="M707.937 214.271L814.157 220.167L710.258 229.92L707.937 214.271Z" fill="#C02E19"/>
<path d="M622.848 288.42H687.85L689.336 293.716L684.049 298.248L688.931 318.631L684.744 355.015L673.9 368.163L637.685 368.014L625.279 354.456L621.015 314.939L628.539 298.248L622.635 293.921L622.848 288.42Z" fill="#E64927"/>
<path d="M625.279 354.456L647.989 357.813L662.928 347.332L684.744 303.09L688.931 318.631L684.744 355.015L673.901 368.163L637.686 368.014L625.279 354.456Z" fill="#C02E19"/>
<path d="M689.336 293.716H643.975L684.049 298.248L689.336 293.716Z" fill="#C02E19"/>
<path d="M726.693 335.099H671.546V363.937L681.633 378.277H709.798L723.616 367.478L726.693 359.139V335.099Z" fill="#E64927"/>
<path d="M725.838 337.82L730.844 336.564L740.676 345.113L738.819 356.697L728.059 364.652H723.598V360.57H727.877L735.487 354.533L735.669 346.7L730.28 343.141L724.909 344.921" fill="#E64927"/>
<path d="M671.546 347.59L680.94 367.269L703.68 372.153L723.616 367.478L709.798 378.277H681.632L671.546 363.936V347.59Z" fill="#C02E19"/>
<path d="M754.794 264.242C754.794 264.242 755.403 249.562 754.903 243.27C754.951 244.46 751.386 251.91 746.742 262.027L726.9 257.824L744.972 268.783C744.972 268.783 747.33 292.759 747.496 296.181L753.179 269.961C753.179 269.961 769.01 271.846 774.348 273.147C768.874 271.094 760.077 266.472 754.789 264.26L754.794 264.242Z" fill="#FFA022"/>
</svg>
