<svg width="1439" height="1703" viewBox="0 0 1439 1703" fill="none" xmlns="http://www.w3.org/2000/svg">
<path d="M1439.59 25.7754H1440V1703H0V25.7754H0.40918L55.5225 0L110.636 25.7754H111.319L166.433 0L221.545 25.7754H222.229L277.342 0L332.455 25.7754H333.139L388.252 0L442.725 25.4756L497.199 0L552.312 25.7754H552.996L608.109 0L663.222 25.7754H663.905L719.019 0L774.132 25.7754H774.815L829.929 0L885.042 25.7754H885.726L940.839 0L995.951 25.7754H996.635L1051.75 0L1106.86 25.7754H1107.54L1162.66 0L1217.77 25.7754H1218.46L1273.57 0L1328.68 25.7754H1329.36L1384.48 0L1439.59 25.7754Z" fill="#FFAF32"/>
</svg>
