<svg width="46" height="32" viewBox="0 0 46 32" fill="none" xmlns="http://www.w3.org/2000/svg">
<path fill-rule="evenodd" clip-rule="evenodd" d="M18.0984 21.9006V9.07975C22.6119 11.2214 26.1076 13.2903 30.242 15.5209C26.832 17.4278 22.6119 19.5676 18.0984 21.9006ZM43.2522 2.70335C42.4736 1.66897 41.1467 0.863788 39.7339 0.597219C35.5815 -0.197942 9.67626 -0.200204 5.52609 0.597219C4.3932 0.811379 3.38441 1.32904 2.51781 2.13331C-1.13361 5.55087 0.0105716 23.8781 0.890706 26.8469C1.26081 28.1319 1.73926 29.0586 2.34182 29.667C3.11814 30.4712 4.18105 31.025 5.40195 31.2733C8.82093 31.9865 26.4349 32.3852 39.6617 31.3804C40.8803 31.1663 41.959 30.5947 42.8098 29.7562C46.1859 26.3523 45.9558 6.9958 43.2522 2.70335Z" fill="#E64927"/>
</svg>
