<svg width="643" height="434" viewBox="0 0 643 434" fill="none" xmlns="http://www.w3.org/2000/svg">
<path d="M46.7187 416.894L32.3438 33.2657L63.5721 4.16735L566.133 0L575.717 389.684L525.022 433.405L46.7187 416.894Z" fill="#E64927"/>
<path d="M78.1453 361.53L63.5721 2.15625L32.3438 31.2637L46.9084 415.342L523.06 433.405L575.717 386.821L78.1453 361.53Z" fill="#C02E19"/>
<path d="M508.981 425.862L63.8367 407.226L67.6324 401.019L517.482 418.294L508.981 425.862Z" fill="#792113"/>
<path d="M521.963 414.511L68.3232 394.068L72.1176 387.728L532.975 406.086L521.963 414.511Z" fill="#792113"/>
<path d="M539.591 401.28L75.0084 381.323L78.8235 376.349L548.469 393.422L539.591 401.28Z" fill="#792113"/>
<path d="M567.103 255.207L465.398 306.304L484.907 338.411L590.971 323.901L567.103 255.207Z" fill="#FD710C"/>
<path d="M537.983 283.378L473.391 312.549V307.34L537.983 274.002V283.378Z" fill="#FFAF32"/>
<path d="M450.395 329.807L465.266 306.271L485.509 338.396L450.395 329.807Z" fill="#FFAF32"/>
<path d="M617.006 316.226L589.909 324.17L556.898 309.452L545.453 273.834L565.17 254.972L591.05 245.532L614.735 268.488L617.006 316.226Z" fill="#792113"/>
<path d="M464.64 333.364L458.725 316.434L450.396 329.807L464.64 333.364Z" fill="#14222F"/>
<path d="M66.9107 260.905L99.1877 287.755L90.7543 295.636L66.9107 282.001L30.7214 293.508L18.9843 313.645L25.831 332.823H43.54L44.4523 349.311L15.2601 345.102L4.31299 306.933L25.831 275.289L66.9107 260.905Z" fill="#14222F"/>
<path d="M59.7524 40.9686L90.5622 67.131L87.7613 73.8981H81.2259L59.7524 61.5248L25.208 72.7372L14.0045 92.359L20.5399 111.046H35.7024L35.7024 125.062L10.2699 119.456L0 85.8184L20.5399 54.9842L59.7524 40.9686Z" fill="#14222F"/>
<path d="M59.7524 144.468L90.5622 171.374L81.2259 178.334L59.7524 165.609L25.208 177.14L14.0045 197.32L20.5399 216.538H38.2789L39.2125 232.874L10.2699 225.187L0 190.593L20.5399 158.882L59.7524 144.468Z" fill="#14222F"/>
<path d="M398.905 62.5063H599.436L584.238 48.6678C574.611 39.9199 560.097 39.6234 550.128 47.9759L519.365 24.6729C506.366 14.8377 487.723 19.2611 480.417 33.915L472.745 49.335L449.948 39.8705C441.445 36.3368 431.696 37.597 424.341 43.1819L398.905 62.531V62.5063Z" fill="#00A19E"/>
<path d="M310.294 347.155H58.0137L72.9987 325.762C79.805 316.013 92.8573 312.608 103.697 317.716L117.422 324.169C117.422 324.169 125.712 283.169 163.301 282.482C208.62 281.658 208.284 316.507 208.284 316.507L217.975 307.225C222.709 302.694 229.151 300.25 235.761 300.442C244.668 300.689 252.735 305.687 256.796 313.487L264.639 328.508L268.056 326.641C278.699 320.819 292.088 323.593 299.454 333.122L310.294 347.155Z" fill="#00A19E"/>
</svg>
