<svg width="298" height="201" viewBox="0 0 298 201" fill="none" xmlns="http://www.w3.org/2000/svg">
<path d="M21.6667 193.343L15 15.4276L29.4828 1.93269L262.556 0L267 180.724L243.489 201L21.6667 193.343Z" fill="#E64927"/>
<path d="M36.2414 167.667L29.4828 1L15 14.4991L21.7546 192.623L242.579 201L267 179.396L36.2414 167.667Z" fill="#C02E19"/>
<path d="M81.6729 49.896C83.0889 51.144 84.0249 52.632 84.4809 54.36C84.9369 56.064 85.1649 57.948 85.1649 60.012C85.1649 61.092 84.9849 62.304 84.6249 63.648C84.2649 64.992 83.7609 66.24 83.1129 67.392C82.4889 68.544 81.7569 69.396 80.9169 69.948C79.7649 70.692 78.3369 71.22 76.6329 71.532C74.9289 71.82 73.5849 71.964 72.6009 71.964H68.9289C68.6649 71.964 68.4969 71.904 68.4249 71.784C68.3529 71.664 68.3529 71.532 68.4249 71.388C68.4489 71.316 68.4609 71.22 68.4609 71.1C68.4609 71.004 68.4489 70.884 68.4249 70.74C68.4249 70.572 68.4249 70.344 68.4249 70.056C68.4249 69.264 68.4129 68.484 68.3889 67.716L68.3169 61.2L68.3529 53.964C68.3529 53.34 68.3409 52.74 68.3169 52.164C68.2929 51.564 68.2689 51.048 68.2449 50.616L68.1729 48.348C68.1969 47.796 68.2329 47.412 68.2809 47.196C68.3289 46.98 68.4249 46.872 68.5689 46.872H68.6769C68.7729 46.872 68.8809 46.896 69.0009 46.944C69.1209 46.968 69.2289 46.98 69.3249 46.98C69.5169 46.98 69.7449 46.968 70.0089 46.944C70.2969 46.92 70.5849 46.908 70.8729 46.908L72.2769 46.944C73.6209 46.944 74.8329 47.004 75.9129 47.124C76.0089 47.124 76.3209 47.148 76.8489 47.196C77.4009 47.244 78.0969 47.496 78.9369 47.952C79.8009 48.408 80.7129 49.056 81.6729 49.896ZM74.3649 70.596C76.0209 70.692 77.5329 70.392 78.9009 69.696C80.2209 69.024 81.3129 67.908 82.1769 66.348C83.0409 64.788 83.4729 62.676 83.4729 60.012C83.4729 57.372 83.0409 55.26 82.1769 53.676C81.3369 52.068 80.2689 50.868 78.9729 50.076C77.6529 49.284 76.1529 48.876 74.4729 48.852L74.3289 52.128C74.2569 53.304 74.2209 54.924 74.2209 56.988C74.2209 57.18 74.2569 58.248 74.3289 60.192C74.4009 61.008 74.4369 61.776 74.4369 62.496L74.4009 67.14C74.3769 67.86 74.3649 69.012 74.3649 70.596ZM88.0193 46.62C88.3313 46.644 88.6313 46.656 88.9193 46.656C89.2313 46.632 89.4953 46.62 89.7113 46.62C90.2393 46.62 90.6233 46.632 90.8633 46.656C91.1513 46.68 91.3553 46.74 91.4753 46.836C91.5953 46.932 91.6553 47.064 91.6553 47.232C91.6553 47.352 91.6433 47.484 91.6193 47.628C91.5953 47.772 91.5713 47.904 91.5473 48.024C91.2833 50.064 91.1393 52.164 91.1153 54.324C91.0913 54.948 91.0793 55.908 91.0793 57.204L91.1153 61.56C91.1393 61.92 91.1513 62.292 91.1513 62.676L91.1873 64.116C91.2353 65.364 91.2593 66.288 91.2593 66.888C91.2593 67.344 91.2473 67.62 91.2233 67.716C91.1993 67.812 91.1873 68.088 91.1873 68.544L91.2233 70.524C91.2473 70.812 91.2593 71.172 91.2593 71.604C91.2833 71.916 91.1873 72.108 90.9713 72.18C90.7793 72.276 90.5153 72.312 90.1793 72.288H86.9033C86.5433 72.312 86.3153 72.228 86.2193 72.036C86.1233 71.868 86.0633 71.58 86.0393 71.172C85.9913 71.004 86.0153 70.56 86.1113 69.84C86.2073 69.168 86.2553 68.592 86.2553 68.112C86.2553 67.944 86.3393 66.324 86.5073 63.252C86.6513 60.996 86.7233 59.76 86.7233 59.544L86.7953 56.016L86.8673 52.74L86.9393 50.796L87.0113 49.5V47.988C87.0113 47.052 87.2513 46.584 87.7313 46.584C87.8513 46.584 87.9473 46.596 88.0193 46.62ZM109.985 70.992C110.321 71.52 110.489 71.868 110.489 72.036C110.489 72.132 110.429 72.192 110.309 72.216C110.189 72.24 110.081 72.252 109.985 72.252C109.913 72.252 109.853 72.252 109.805 72.252L105.737 72.36C105.545 72.36 105.389 72.276 105.269 72.108C105.173 71.94 105.029 71.64 104.837 71.208C104.717 70.848 104.501 70.368 104.189 69.768C103.709 68.904 102.881 67.284 101.705 64.908L99.8692 61.344L99.9772 63.252L100.157 65.988C100.301 69.204 100.421 70.98 100.517 71.316C100.541 71.412 100.553 71.532 100.553 71.676C100.553 72.108 100.325 72.324 99.8692 72.324C99.7252 72.324 99.6052 72.312 99.5092 72.288C99.1252 72.24 98.1892 72.288 96.7012 72.432C95.6932 72.528 95.0812 72.576 94.8652 72.576C94.5532 72.576 94.3372 72.516 94.2172 72.396C94.1212 72.276 94.0732 72.072 94.0732 71.784L94.1092 70.956L94.0372 68.868C93.8932 66.372 93.8212 64.2 93.8212 62.352C93.8212 61.392 93.8572 60.732 93.9292 60.372C94.0492 59.772 94.1092 58.08 94.1092 55.296C94.1092 52.392 94.0612 50.196 93.9652 48.708C93.9412 48.516 93.9292 48.252 93.9292 47.916C93.9292 47.532 93.9652 47.256 94.0372 47.088C94.1092 46.92 94.1812 46.836 94.2532 46.836C94.3492 46.812 94.5052 46.8 94.7212 46.8L95.5132 46.728C97.1692 46.536 98.4892 46.44 99.4732 46.44C102.161 46.44 104.177 47.136 105.521 48.528C106.889 49.896 107.573 51.684 107.573 53.892C107.573 55.644 107.009 57.324 105.881 58.932C105.401 59.628 104.849 60.252 104.225 60.804L106.745 65.376C108.593 68.688 109.673 70.56 109.985 70.992ZM99.6532 56.556C100.013 56.556 100.337 56.484 100.625 56.34C101.297 56.028 101.633 55.392 101.633 54.432C101.633 53.736 101.525 53.22 101.309 52.884C101.093 52.548 100.817 52.38 100.481 52.38C100.217 52.38 99.9892 52.476 99.7972 52.668C99.7732 52.692 99.7732 52.86 99.7972 53.172C99.8212 53.484 99.8332 53.796 99.8332 54.108C99.8332 54.372 99.8212 54.564 99.7972 54.684C99.7012 55.092 99.6532 55.512 99.6532 55.944L99.6172 56.268L99.6532 56.556ZM126.289 50.508C126.289 50.988 126.253 51.432 126.181 51.84C126.157 52.2 125.989 52.38 125.677 52.38C125.581 52.38 125.449 52.356 125.281 52.308C125.113 52.26 124.981 52.224 124.885 52.2C124.525 52.128 123.481 52.092 121.753 52.092L120.385 52.056C120.073 52.032 119.617 52.02 119.017 52.02C118.585 52.02 118.261 52.032 118.045 52.056C117.325 52.104 116.689 52.128 116.137 52.128L114.229 52.092C114.037 52.092 113.929 52.14 113.905 52.236C113.881 52.308 113.869 52.5 113.869 52.812C113.869 53.244 113.857 53.616 113.833 53.928C113.785 54.888 113.761 55.668 113.761 56.268V58.392C113.761 58.896 113.773 59.28 113.797 59.544C113.989 59.568 114.313 59.58 114.769 59.58C115.177 59.604 116.017 59.616 117.289 59.616C117.817 59.616 118.585 59.592 119.593 59.544C120.361 59.496 120.865 59.472 121.105 59.472C121.441 59.472 121.777 59.496 122.113 59.544C122.449 59.568 122.701 59.58 122.869 59.58C123.181 59.58 123.337 59.724 123.337 60.012C123.337 60.108 123.325 60.252 123.301 60.444C123.277 60.612 123.265 60.84 123.265 61.128L123.301 63.036C123.301 63.252 123.277 63.408 123.229 63.504C123.181 63.576 123.097 63.612 122.977 63.612C122.905 63.612 122.797 63.6 122.653 63.576C122.533 63.528 122.425 63.504 122.329 63.504C122.113 63.504 121.705 63.492 121.105 63.468C120.529 63.444 119.737 63.432 118.729 63.432C117.649 63.432 116.713 63.48 115.921 63.576C115.129 63.672 114.649 63.72 114.481 63.72C114.217 63.72 114.061 63.708 114.013 63.684C113.893 63.684 113.821 63.672 113.797 63.648V67.248C113.965 67.248 114.097 67.236 114.193 67.212L115.201 67.176L119.449 67.14C120.313 67.14 120.997 67.152 121.501 67.176L123.985 67.212L125.497 67.176C125.785 67.176 125.977 67.248 126.073 67.392C126.169 67.512 126.217 67.692 126.217 67.932L126.181 68.652L126.145 71.172C126.145 71.556 126.061 71.796 125.893 71.892C125.725 71.964 125.485 72 125.173 72C124.861 71.976 124.609 71.964 124.417 71.964C123.385 71.964 122.497 71.952 121.753 71.928L118.081 71.892C117.793 71.892 116.353 71.928 113.761 72L112.393 72.036L112.177 72.072C112.033 72.072 111.949 72.036 111.925 71.964C111.901 71.868 111.889 71.7 111.889 71.46C111.865 71.196 111.853 70.752 111.853 70.128C111.853 69.936 111.841 69.732 111.817 69.516C111.793 69.276 111.781 68.964 111.781 68.58V63.648C111.781 63.168 111.793 62.7 111.817 62.244C111.865 61.788 111.889 61.452 111.889 61.236C111.985 60.132 112.033 59.076 112.033 58.068C112.033 56.82 111.997 55.836 111.925 55.116C111.877 54.3 111.853 53.556 111.853 52.884C111.853 51.372 111.889 49.608 111.961 47.592C111.961 47.28 112.021 47.076 112.141 46.98C112.261 46.86 112.429 46.8 112.645 46.8L113.185 46.836C113.401 46.836 113.749 46.86 114.229 46.908C114.709 46.932 115.297 46.944 115.993 46.944C116.785 46.944 117.721 46.884 118.801 46.764C120.097 46.668 120.961 46.62 121.393 46.62C122.377 46.62 123.277 46.656 124.093 46.728L125.389 46.764C125.701 46.764 125.905 46.836 126.001 46.98C126.097 47.124 126.145 47.388 126.145 47.772C126.145 47.988 126.169 48.36 126.217 48.888C126.265 49.512 126.289 50.052 126.289 50.508ZM137.139 46.08C139.107 46.08 140.595 46.44 141.603 47.16C142.611 47.856 143.307 48.504 143.691 49.104C144.099 49.68 144.351 50.04 144.447 50.184C144.687 50.496 144.807 50.736 144.807 50.904C144.807 51.048 144.759 51.168 144.663 51.264C144.567 51.36 144.447 51.444 144.303 51.516C144.159 51.588 144.063 51.648 144.015 51.696C143.727 51.888 143.343 52.188 142.863 52.596C142.647 52.764 142.323 53.016 141.891 53.352C141.483 53.664 141.207 53.856 141.063 53.928C140.967 54 140.871 54.036 140.775 54.036C140.607 54.036 140.451 53.94 140.307 53.748C140.163 53.556 140.067 53.424 140.019 53.352C139.971 53.28 139.839 53.124 139.623 52.884C139.431 52.644 139.179 52.44 138.867 52.272C138.555 52.104 138.207 52.02 137.823 52.02C137.103 52.02 136.539 52.488 136.131 53.424C135.723 54.36 135.519 56.028 135.519 58.428C135.519 60.012 135.651 61.308 135.915 62.316C136.179 63.324 136.491 64.056 136.851 64.512C137.235 64.944 137.595 65.16 137.931 65.16C138.411 65.16 138.771 65.052 139.011 64.836C139.275 64.62 139.503 64.212 139.695 63.612C139.887 63.036 140.199 62.748 140.631 62.748C140.775 62.748 140.931 62.772 141.099 62.82C141.291 62.868 141.435 62.904 141.531 62.928C141.771 63.024 142.359 63.18 143.295 63.396C144.231 63.588 145.035 63.744 145.707 63.864C146.043 63.936 146.211 64.224 146.211 64.728C146.211 64.968 146.199 65.148 146.175 65.268C146.151 65.58 146.055 66 145.887 66.528C145.383 68.064 144.519 69.456 143.295 70.704C142.095 71.928 140.295 72.54 137.895 72.54C136.431 72.54 134.955 72.096 133.467 71.208C131.979 70.32 130.719 68.844 129.687 66.78C128.655 64.692 128.139 61.956 128.139 58.572C128.139 53.772 129.063 50.496 130.911 48.744C132.759 46.968 134.835 46.08 137.139 46.08ZM164.327 47.592C164.327 47.712 164.303 48.024 164.255 48.528C164.231 49.032 164.219 49.656 164.219 50.4C164.219 51.072 164.255 51.984 164.327 53.136C164.327 53.784 163.907 54.108 163.067 54.108H156.731L156.659 57.816C156.635 58.224 156.623 59.244 156.623 60.876C156.623 62.556 156.635 64.188 156.659 65.772C156.683 67.356 156.695 68.724 156.695 69.876L156.731 71.352V71.532C156.731 71.748 156.695 71.88 156.623 71.928C156.575 71.976 156.503 72 156.407 72C156.311 72 156.239 72 156.191 72H153.743C153.455 72 153.287 71.952 153.239 71.856C153.191 71.76 153.167 71.592 153.167 71.352C153.167 71.088 153.167 70.896 153.167 70.776L153.311 66.312C153.455 62.424 153.527 59.928 153.527 58.824C153.527 58.2 153.503 57.264 153.455 56.016L153.419 54.108C151.691 54.108 149.939 54.132 148.163 54.18L147.047 54.216C146.735 54.216 146.519 54.132 146.399 53.964C146.279 53.796 146.255 53.604 146.327 53.388L146.363 52.488C146.411 51.096 146.435 49.812 146.435 48.636C146.435 48.06 146.423 47.712 146.399 47.592V47.34C146.399 47.076 146.447 46.92 146.543 46.872C146.663 46.824 146.831 46.8 147.047 46.8H150.611L152.627 46.764C153.875 46.716 154.751 46.692 155.255 46.692L157.415 46.728C159.143 46.776 160.499 46.8 161.483 46.8C162.203 46.8 162.671 46.788 162.887 46.764C163.415 46.74 163.787 46.824 164.003 47.016C164.219 47.184 164.327 47.376 164.327 47.592ZM178.942 46.872C180.382 47.832 181.534 49.128 182.398 50.76C183.286 52.392 183.898 53.988 184.234 55.548C184.594 57.084 184.774 58.296 184.774 59.184C184.774 60.672 184.534 62.4 184.054 64.368C183.598 66.336 182.602 68.172 181.066 69.876C179.53 71.556 177.31 72.396 174.406 72.396C170.422 72.396 167.59 70.08 165.91 65.448C165.166 63.36 164.746 61.032 164.65 58.464C164.65 56.352 165.094 54.348 165.982 52.452C166.87 50.532 168.034 48.996 169.474 47.844C170.938 46.692 172.438 46.116 173.974 46.116C175.366 46.116 176.398 46.152 177.07 46.224C177.766 46.296 178.39 46.512 178.942 46.872ZM174.226 70.38C176.77 70.38 178.666 69.324 179.914 67.212C181.162 65.076 181.786 62.4 181.786 59.184C181.786 57.216 181.486 55.404 180.886 53.748C180.31 52.068 179.482 50.736 178.402 49.752C177.346 48.744 176.122 48.24 174.73 48.24C174.61 48.24 174.286 48.24 173.758 48.24C173.254 48.24 172.81 48.324 172.426 48.492C172.042 48.66 171.694 48.912 171.382 49.248C170.59 50.04 169.918 50.772 169.366 51.444C168.838 52.092 168.298 53.064 167.746 54.36C167.218 55.656 166.954 57.156 166.954 58.86C166.954 60.876 167.194 62.76 167.674 64.512C168.178 66.24 168.97 67.656 170.05 68.76C171.13 69.84 172.522 70.38 174.226 70.38ZM202.943 70.524C203.591 71.172 203.915 71.616 203.915 71.856C203.915 71.904 203.855 71.988 203.735 72.108C203.519 72.252 202.979 72.324 202.115 72.324C201.491 72.324 201.095 72.276 200.927 72.18C200.759 72.108 200.627 71.976 200.531 71.784C200.459 71.592 200.399 71.448 200.351 71.352C200.279 71.208 199.979 70.8 199.451 70.128C198.947 69.432 198.563 68.904 198.299 68.544C197.027 66.912 195.923 65.436 194.987 64.116C194.411 63.3 193.343 61.896 191.783 59.904L191.207 59.184L188.723 56.088L188.579 57.528C188.483 58.248 188.459 59.112 188.507 60.12C188.579 60.792 188.627 62.532 188.651 65.34C188.675 68.148 188.687 70.2 188.687 71.496C188.687 71.88 188.543 72.12 188.255 72.216C187.967 72.336 187.631 72.396 187.247 72.396C187.079 72.396 186.971 72.324 186.923 72.18C186.875 72.036 186.839 71.88 186.815 71.712C186.815 71.544 186.815 71.436 186.815 71.388C186.767 71.004 186.743 70.44 186.743 69.696C186.743 69.216 186.755 68.856 186.779 68.616C186.803 67.32 186.839 65.064 186.887 61.848C186.935 58.608 186.959 55.704 186.959 53.136C186.959 50.376 186.923 48.768 186.851 48.312C186.827 48.12 186.815 47.868 186.815 47.556C186.815 47.196 186.863 46.968 186.959 46.872C187.079 46.776 187.247 46.728 187.463 46.728C187.943 46.728 188.411 46.74 188.867 46.764L192.791 46.836C194.231 46.836 195.731 47.088 197.291 47.592C198.851 48.096 199.631 49.032 199.631 50.4C199.631 51.696 199.151 52.704 198.191 53.424C197.231 54.144 196.151 54.636 194.951 54.9C193.775 55.164 192.743 55.296 191.855 55.296C191.543 55.296 191.375 55.284 191.351 55.26C191.495 55.404 192.443 56.676 194.195 59.076C199.475 66.156 202.391 69.972 202.943 70.524ZM188.615 53.82C189.407 53.82 190.007 53.808 190.415 53.784C191.807 53.736 192.887 53.64 193.655 53.496C194.759 53.304 195.587 53.04 196.139 52.704C196.715 52.368 197.003 51.84 197.003 51.12C197.003 50.64 196.751 50.232 196.247 49.896C195.743 49.536 195.131 49.272 194.411 49.104C193.715 48.912 193.103 48.816 192.575 48.816C191.975 48.792 191.135 48.78 190.055 48.78H188.831L188.615 53.82ZM206.958 47.952C206.886 48.48 206.826 49.836 206.778 52.02C206.778 52.692 206.73 54.396 206.634 57.132C206.538 59.772 206.49 61.38 206.49 61.956C206.49 63.348 206.514 65.112 206.562 67.248C206.61 69.36 206.658 70.62 206.706 71.028C206.73 71.172 206.742 71.34 206.742 71.532C206.742 71.7 206.706 71.82 206.634 71.892C206.586 71.964 206.502 72.036 206.382 72.108C206.238 72.204 205.866 72.252 205.266 72.252C205.17 72.252 205.014 72.252 204.798 72.252C204.606 72.252 204.486 72.228 204.438 72.18C204.39 72.132 204.366 72.036 204.366 71.892L204.402 70.74L204.474 66.024L204.546 58.464C204.546 57.744 204.594 56.112 204.69 53.568C204.714 52.968 204.75 51.996 204.798 50.652C204.846 49.284 204.846 48.48 204.798 48.24L204.762 47.484C204.762 46.86 204.954 46.548 205.338 46.548L206.67 46.584C206.91 46.584 207.03 46.752 207.03 47.088C207.03 47.208 207.018 47.352 206.994 47.52C206.97 47.664 206.958 47.808 206.958 47.952ZM222.234 46.872C223.674 47.832 224.826 49.128 225.69 50.76C226.578 52.392 227.19 53.988 227.526 55.548C227.886 57.084 228.066 58.296 228.066 59.184C228.066 60.672 227.826 62.4 227.346 64.368C226.89 66.336 225.894 68.172 224.358 69.876C222.822 71.556 220.602 72.396 217.698 72.396C213.714 72.396 210.882 70.08 209.202 65.448C208.458 63.36 208.038 61.032 207.942 58.464C207.942 56.352 208.386 54.348 209.274 52.452C210.162 50.532 211.326 48.996 212.766 47.844C214.23 46.692 215.73 46.116 217.266 46.116C218.658 46.116 219.69 46.152 220.362 46.224C221.058 46.296 221.682 46.512 222.234 46.872ZM217.518 70.38C220.062 70.38 221.958 69.324 223.206 67.212C224.454 65.076 225.078 62.4 225.078 59.184C225.078 57.216 224.778 55.404 224.178 53.748C223.602 52.068 222.774 50.736 221.694 49.752C220.638 48.744 219.414 48.24 218.022 48.24C217.902 48.24 217.578 48.24 217.05 48.24C216.546 48.24 216.102 48.324 215.718 48.492C215.334 48.66 214.986 48.912 214.674 49.248C213.882 50.04 213.21 50.772 212.658 51.444C212.13 52.092 211.59 53.064 211.038 54.36C210.51 55.656 210.246 57.156 210.246 58.86C210.246 60.876 210.486 62.76 210.966 64.512C211.47 66.24 212.262 67.656 213.342 68.76C214.422 69.84 215.814 70.38 217.518 70.38Z" fill="#E9DCB7"/>
<path d="M58.8049 93.416C58.2049 93.416 57.6049 93.668 57.0049 94.172C56.4289 94.676 55.9369 95.516 55.5289 96.692C55.1209 97.844 54.9169 99.332 54.9169 101.156C54.9169 102.932 55.1689 104.348 55.6729 105.404C56.2009 106.436 56.7889 107.156 57.4369 107.564C58.1089 107.972 58.6849 108.176 59.1649 108.176C59.5969 108.176 60.0409 108.032 60.4969 107.744C60.9529 107.432 61.3489 107.108 61.6849 106.772C61.7329 106.724 61.8049 106.64 61.9009 106.52C62.0209 106.4 62.1289 106.34 62.2249 106.34C62.3449 106.34 62.4889 106.388 62.6569 106.484L65.7169 108.176C65.8129 108.224 65.9569 108.296 66.1489 108.392C66.3649 108.464 66.5089 108.536 66.5809 108.608C66.6769 108.68 66.7249 108.776 66.7249 108.896C66.7249 109.016 66.6889 109.148 66.6169 109.292C66.0889 110.18 65.2609 111.092 64.1329 112.028C63.0049 112.964 61.4449 113.432 59.4529 113.432C57.8929 113.432 56.3929 112.856 54.9529 111.704C53.5369 110.528 52.3969 108.932 51.5329 106.916C50.6689 104.9 50.2369 102.68 50.2369 100.256C50.2369 97.856 50.6449 95.696 51.4609 93.776C52.3009 91.856 53.3689 90.356 54.6649 89.276C55.9609 88.196 57.2929 87.656 58.6609 87.656C60.3649 87.656 61.7329 88.016 62.7649 88.736C63.8209 89.432 64.5769 90.104 65.0329 90.752C65.1289 90.896 65.2129 91.028 65.2849 91.148C65.3809 91.268 65.4289 91.388 65.4289 91.508C65.4289 91.652 65.2969 91.844 65.0329 92.084C63.9289 92.948 63.1369 93.704 62.6569 94.352C62.4169 94.664 62.2129 94.904 62.0449 95.072C61.8769 95.216 61.7089 95.288 61.5409 95.288C61.3729 95.288 61.1809 95.168 60.9649 94.928C60.4609 94.376 60.0649 93.992 59.7769 93.776C59.5129 93.536 59.1889 93.416 58.8049 93.416ZM86.6444 112.28C86.7644 112.52 86.8244 112.676 86.8244 112.748C86.8244 112.94 86.6084 113.036 86.1764 113.036H83.5844C83.4884 113.036 83.3924 112.952 83.2964 112.784C83.2004 112.616 83.1164 112.448 83.0444 112.28C82.9724 112.112 82.9124 111.968 82.8644 111.848C82.7444 111.608 82.5164 111.056 82.1804 110.192C81.8684 109.328 81.6284 108.644 81.4604 108.14C81.3884 107.9 81.2444 107.552 81.0284 107.096C80.8124 106.616 80.6564 106.28 80.5604 106.088C80.4644 105.8 80.3684 105.608 80.2724 105.512C80.2004 105.416 80.0804 105.368 79.9124 105.368C79.7444 105.368 79.5284 105.38 79.2644 105.404C79.0244 105.428 78.7604 105.452 78.4724 105.476C78.2804 105.524 77.6804 105.548 76.6724 105.548C75.9764 105.548 75.2924 105.572 74.6204 105.62C74.4044 105.644 74.0204 105.656 73.4684 105.656L71.5604 105.62C71.4404 105.62 71.3444 105.668 71.2724 105.764C71.2244 105.86 71.1884 105.98 71.1644 106.124C71.1404 106.244 71.1164 106.34 71.0924 106.412L70.8764 107.312C70.8044 107.648 70.7084 108.044 70.5884 108.5C70.4924 108.932 70.4084 109.34 70.3364 109.724L69.9404 111.272L69.6524 112.316C69.5804 112.604 69.5084 112.796 69.4364 112.892C69.3884 112.964 69.3044 113 69.1844 113H67.0604C66.9404 113 66.8804 112.952 66.8804 112.856C66.8804 112.808 66.9284 112.64 67.0244 112.352C67.2164 111.896 67.3844 111.44 67.5284 110.984C68.4164 108.008 68.9444 106.064 69.1124 105.152C69.3284 103.952 69.7724 102.404 70.4444 100.508C70.6604 99.692 70.8644 98.948 71.0564 98.276C71.1284 97.94 71.2364 97.532 71.3804 97.052C71.8364 95.372 72.2924 93.8 72.7484 92.336L73.6484 89.456C73.8404 88.712 74.0804 87.944 74.3684 87.152C74.5124 86.792 74.6804 86.708 74.8724 86.9C75.0164 86.996 75.1244 87.164 75.1964 87.404C75.2684 87.644 75.3164 87.812 75.3404 87.908C75.4124 88.196 76.0484 89.636 77.2484 92.228C77.7284 93.212 78.2444 94.496 78.7964 96.08C79.0364 96.776 79.6964 98.276 80.7764 100.58C81.3284 101.708 81.6884 102.488 81.8564 102.92C82.2404 103.76 83.2724 105.8 84.9524 109.04L85.3844 109.94C85.9364 111.164 86.3564 111.944 86.6444 112.28ZM77.2124 100.4C77.3804 100.376 77.5244 100.364 77.6444 100.364C77.7644 100.364 77.8604 100.352 77.9324 100.328C78.0044 100.304 78.0404 100.268 78.0404 100.22C78.0404 100.172 78.0044 100.076 77.9324 99.932C77.8124 99.716 77.5364 99.116 77.1044 98.132C76.6724 97.124 76.3724 96.368 76.2044 95.864C75.9644 95.288 75.7724 94.808 75.6284 94.424C75.5084 94.04 75.4124 93.776 75.3404 93.632C75.2924 93.512 75.2324 93.392 75.1604 93.272C75.1124 93.152 75.0644 93.056 75.0164 92.984C74.9684 92.912 74.9204 92.876 74.8724 92.876C74.8004 92.876 74.7164 93.056 74.6204 93.416C74.5484 93.776 74.4884 94.052 74.4404 94.244C74.0084 95.636 73.6964 96.692 73.5044 97.412C73.4084 97.772 73.2644 98.216 73.0724 98.744C72.9044 99.248 72.7844 99.596 72.7124 99.788C72.6404 100.028 72.6044 100.22 72.6044 100.364C72.6044 100.508 72.7124 100.58 72.9284 100.58C73.4324 100.58 74.2004 100.568 75.2324 100.544C76.2884 100.496 76.9484 100.448 77.2124 100.4ZM97.6959 90.572C97.6959 89.084 97.7079 88.16 97.7319 87.8C97.7319 87.344 97.8879 87.068 98.1999 86.972C98.5119 86.876 98.9679 86.828 99.5679 86.828C100.096 86.828 100.768 86.804 101.584 86.756C102.424 86.684 103.072 86.612 103.528 86.54C103.864 86.516 104.104 86.576 104.248 86.72C104.392 86.84 104.464 87.056 104.464 87.368C104.464 87.464 104.44 87.728 104.392 88.16C104.344 88.52 104.32 90.908 104.32 95.324V103.46C104.32 104.684 104.332 106.04 104.356 107.528C104.404 108.992 104.452 110.312 104.5 111.488C104.548 112.664 104.572 112.988 104.572 112.46C104.572 112.844 104.38 113.036 103.996 113.036C103.828 113.036 103.684 113.024 103.564 113C103.468 112.976 103.276 112.964 102.988 112.964C102.7 112.964 102.244 112.988 101.62 113.036C100.948 113.084 100.48 113.108 100.216 113.108C99.7599 113.108 99.4119 113.012 99.1719 112.82C98.9559 112.628 98.7279 112.28 98.4879 111.776L97.8759 110.552C97.1559 108.944 96.5199 107.684 95.9679 106.772C95.6559 106.244 94.8639 104.792 93.5919 102.416L92.0079 99.428V100.796V101.624C92.0079 101.816 91.9959 102.056 91.9719 102.344C91.9719 102.632 91.9839 102.956 92.0079 103.316C92.0079 104.564 92.0199 106.196 92.0439 108.212C92.0919 110.228 92.1519 111.44 92.2239 111.848C92.2479 111.968 92.2599 112.112 92.2599 112.28C92.2599 112.52 92.2119 112.676 92.1159 112.748C92.0199 112.796 91.8399 112.808 91.5759 112.784C91.1919 112.784 90.7359 112.808 90.2079 112.856C89.7039 112.904 89.2239 112.952 88.7679 113C88.4079 113.048 88.1679 112.988 88.0479 112.82C87.9519 112.652 87.9159 112.28 87.9399 111.704C87.9399 110.84 87.9039 109.316 87.8319 107.132C87.7359 104.852 87.6759 102.872 87.6519 101.192C87.6519 99.488 87.6879 97.76 87.7599 96.008C87.8079 93.8 87.8319 92.288 87.8319 91.472C87.8319 90.368 87.7959 89.564 87.7239 89.06C87.6759 88.628 87.6519 88.352 87.6519 88.232C87.6519 87.8 87.7239 87.512 87.8679 87.368C88.0119 87.2 88.2039 87.116 88.4439 87.116C88.5639 87.116 88.8039 87.128 89.1639 87.152C89.5239 87.152 90.0399 87.068 90.7119 86.9C90.9759 86.852 91.2399 86.828 91.5039 86.828C91.6479 86.828 91.8519 86.84 92.1159 86.864C92.3799 86.888 92.7279 86.9 93.1599 86.9C93.7119 86.9 94.1679 87.116 94.5279 87.548C94.9119 87.98 95.3199 88.592 95.7519 89.384L96.1119 90.032C96.3999 90.56 96.7479 91.124 97.1559 91.724L97.6959 92.552V90.572ZM123.856 88.592C123.856 88.712 123.832 89.024 123.784 89.528C123.76 90.032 123.748 90.656 123.748 91.4C123.748 92.072 123.784 92.984 123.856 94.136C123.856 94.784 123.436 95.108 122.596 95.108H116.26L116.188 98.816C116.164 99.224 116.152 100.244 116.152 101.876C116.152 103.556 116.164 105.188 116.188 106.772C116.212 108.356 116.224 109.724 116.224 110.876L116.26 112.352V112.532C116.26 112.748 116.224 112.88 116.152 112.928C116.104 112.976 116.032 113 115.936 113C115.84 113 115.768 113 115.72 113H113.272C112.984 113 112.816 112.952 112.768 112.856C112.72 112.76 112.696 112.592 112.696 112.352C112.696 112.088 112.696 111.896 112.696 111.776L112.84 107.312C112.984 103.424 113.056 100.928 113.056 99.824C113.056 99.2 113.032 98.264 112.984 97.016L112.948 95.108C111.22 95.108 109.468 95.132 107.692 95.18L106.576 95.216C106.264 95.216 106.048 95.132 105.928 94.964C105.808 94.796 105.784 94.604 105.856 94.388L105.892 93.488C105.94 92.096 105.964 90.812 105.964 89.636C105.964 89.06 105.952 88.712 105.928 88.592V88.34C105.928 88.076 105.976 87.92 106.072 87.872C106.192 87.824 106.36 87.8 106.576 87.8H110.14L112.156 87.764C113.404 87.716 114.28 87.692 114.784 87.692L116.944 87.728C118.672 87.776 120.028 87.8 121.012 87.8C121.732 87.8 122.2 87.788 122.416 87.764C122.944 87.74 123.316 87.824 123.532 88.016C123.748 88.184 123.856 88.376 123.856 88.592ZM140.488 112.496C140.56 112.664 140.596 112.784 140.596 112.856C140.596 112.952 140.464 113 140.2 113H138.184C138.088 113 138.004 112.988 137.932 112.964C137.884 112.916 137.836 112.82 137.788 112.676C137.692 112.412 137.56 111.98 137.392 111.38C137.176 110.78 137.032 110.24 136.96 109.76C136.888 109.4 136.768 108.968 136.6 108.464C136.456 107.96 136.324 107.576 136.204 107.312C135.988 106.856 135.796 106.34 135.628 105.764L135.304 104.72C135.184 104.456 135.088 104.3 135.016 104.252C134.968 104.18 134.872 104.144 134.728 104.144C134.224 104.144 133.852 104.156 133.612 104.18L132.064 104.252C131.872 104.276 130.984 104.288 129.4 104.288H127.204H127.132C126.988 104.288 126.88 104.42 126.808 104.684L126.736 105.044L126.592 105.728C126.544 105.848 126.388 106.544 126.124 107.816C126.052 108.224 125.932 108.752 125.764 109.4C125.716 109.88 125.608 110.276 125.44 110.588C125.392 110.66 125.332 110.828 125.26 111.092C125.188 111.356 125.128 111.572 125.08 111.74C125.008 111.932 124.924 112.244 124.828 112.676C124.804 112.7 124.78 112.76 124.756 112.856C124.732 112.928 124.696 112.976 124.648 113C124.6 113 124.528 113 124.432 113H123.712C123.496 113 123.436 112.844 123.532 112.532C123.532 112.46 123.544 112.4 123.568 112.352C123.568 112.304 123.58 112.244 123.604 112.172C123.628 112.1 123.664 111.992 123.712 111.848L124.036 110.516C124.084 110.372 124.168 110.12 124.288 109.76C124.408 109.4 124.492 109.064 124.54 108.752C124.66 108.176 124.888 107.3 125.224 106.124L125.512 105.116C125.968 103.628 126.256 102.584 126.376 101.984L126.88 100.076C127.12 99.284 127.264 98.78 127.312 98.564C127.48 97.844 127.72 96.944 128.032 95.864L128.284 94.856L128.5 94.1C128.74 93.284 128.944 92.696 129.112 92.336C129.16 92.192 129.328 91.7 129.616 90.86C129.928 89.996 130.132 89.312 130.228 88.808C130.396 88.232 130.564 87.8 130.732 87.512C130.924 87.224 131.176 87.08 131.488 87.08C131.608 87.08 131.728 87.188 131.848 87.404C131.968 87.62 132.088 87.884 132.208 88.196C132.328 88.508 132.412 88.736 132.46 88.88C132.652 89.336 132.988 90.476 133.468 92.3L133.756 93.308C133.78 93.5 134.176 94.676 134.944 96.836L135.628 98.816L136.276 100.508C136.948 102.404 137.38 103.556 137.572 103.964C138.412 106.508 138.904 108.044 139.048 108.572C139.216 109.196 139.48 109.976 139.84 110.912C140.224 111.848 140.44 112.376 140.488 112.496ZM133.756 101.804C134.068 101.804 134.224 101.72 134.224 101.552C134.224 101.432 134.14 101.168 133.972 100.76C133.828 100.4 133.612 99.728 133.324 98.744C133.108 97.952 132.892 97.268 132.676 96.692C132.436 95.972 132.172 95.12 131.884 94.136C131.62 93.152 131.464 92.516 131.416 92.228C131.056 90.956 130.816 90.32 130.696 90.32C130.624 90.32 130.504 90.644 130.336 91.292L130.12 92.084C129.952 92.732 129.736 93.548 129.472 94.532C129.208 95.492 128.968 96.308 128.752 96.98C128.608 97.604 128.404 98.396 128.14 99.356C127.9 100.292 127.708 100.94 127.564 101.3C127.516 101.444 127.492 101.528 127.492 101.552C127.492 101.72 127.564 101.828 127.708 101.876C127.876 101.924 128.032 101.948 128.176 101.948C128.344 101.924 128.452 101.912 128.5 101.912L130.588 101.84C130.876 101.792 131.284 101.768 131.812 101.768L133.756 101.804ZM157.726 111.524C158.374 112.172 158.698 112.616 158.698 112.856C158.698 112.904 158.638 112.988 158.518 113.108C158.302 113.252 157.762 113.324 156.898 113.324C156.274 113.324 155.878 113.276 155.71 113.18C155.542 113.108 155.41 112.976 155.314 112.784C155.242 112.592 155.182 112.448 155.134 112.352C155.062 112.208 154.762 111.8 154.234 111.128C153.73 110.432 153.346 109.904 153.082 109.544C151.81 107.912 150.706 106.436 149.77 105.116C149.194 104.3 148.126 102.896 146.566 100.904L145.99 100.184L143.506 97.088L143.362 98.528C143.266 99.248 143.242 100.112 143.29 101.12C143.362 101.792 143.41 103.532 143.434 106.34C143.458 109.148 143.47 111.2 143.47 112.496C143.47 112.88 143.326 113.12 143.038 113.216C142.75 113.336 142.414 113.396 142.03 113.396C141.862 113.396 141.754 113.324 141.706 113.18C141.658 113.036 141.622 112.88 141.598 112.712C141.598 112.544 141.598 112.436 141.598 112.388C141.55 112.004 141.526 111.44 141.526 110.696C141.526 110.216 141.538 109.856 141.562 109.616C141.586 108.32 141.622 106.064 141.67 102.848C141.718 99.608 141.742 96.704 141.742 94.136C141.742 91.376 141.706 89.768 141.634 89.312C141.61 89.12 141.598 88.868 141.598 88.556C141.598 88.196 141.646 87.968 141.742 87.872C141.862 87.776 142.03 87.728 142.246 87.728C142.726 87.728 143.194 87.74 143.65 87.764L147.574 87.836C149.014 87.836 150.514 88.088 152.074 88.592C153.634 89.096 154.414 90.032 154.414 91.4C154.414 92.696 153.934 93.704 152.974 94.424C152.014 95.144 150.934 95.636 149.734 95.9C148.558 96.164 147.526 96.296 146.638 96.296C146.326 96.296 146.158 96.284 146.134 96.26C146.278 96.404 147.226 97.676 148.978 100.076C154.258 107.156 157.174 110.972 157.726 111.524ZM143.398 94.82C144.19 94.82 144.79 94.808 145.198 94.784C146.59 94.736 147.67 94.64 148.438 94.496C149.542 94.304 150.37 94.04 150.922 93.704C151.498 93.368 151.786 92.84 151.786 92.12C151.786 91.64 151.534 91.232 151.03 90.896C150.526 90.536 149.914 90.272 149.194 90.104C148.498 89.912 147.886 89.816 147.358 89.816C146.758 89.792 145.918 89.78 144.838 89.78H143.614L143.398 94.82ZM165.99 83.804C165.918 84.068 165.678 84.32 165.27 84.56C164.886 84.8 164.538 84.956 164.226 85.028C163.074 85.388 162.054 85.784 161.166 86.216C161.07 86.24 160.89 86.3 160.626 86.396C160.386 86.492 160.182 86.54 160.014 86.54C159.774 86.54 159.522 86.456 159.258 86.288C158.778 86.12 158.538 85.856 158.538 85.496C158.538 85.448 158.562 85.328 158.61 85.136C158.634 85.016 158.874 84.86 159.33 84.668C159.786 84.452 160.146 84.308 160.41 84.236C160.554 84.14 160.818 84.044 161.202 83.948C161.586 83.828 162.054 83.648 162.606 83.408L163.398 83.12C163.902 82.952 164.322 82.868 164.658 82.868L165.378 82.796C165.81 82.796 166.026 83 166.026 83.408C166.026 83.576 166.014 83.708 165.99 83.804ZM160.986 87.62C161.298 87.644 161.598 87.656 161.886 87.656C162.198 87.632 162.462 87.62 162.678 87.62C163.206 87.62 163.59 87.632 163.83 87.656C164.118 87.68 164.322 87.74 164.442 87.836C164.562 87.932 164.622 88.064 164.622 88.232C164.622 88.352 164.61 88.484 164.586 88.628C164.562 88.772 164.538 88.904 164.514 89.024C164.25 91.064 164.106 93.164 164.082 95.324C164.058 95.948 164.046 96.908 164.046 98.204L164.082 102.56C164.106 102.92 164.118 103.292 164.118 103.676L164.154 105.116C164.202 106.364 164.226 107.288 164.226 107.888C164.226 108.344 164.214 108.62 164.19 108.716C164.166 108.812 164.154 109.088 164.154 109.544L164.19 111.524C164.214 111.812 164.226 112.172 164.226 112.604C164.25 112.916 164.154 113.108 163.938 113.18C163.746 113.276 163.482 113.312 163.146 113.288H159.87C159.51 113.312 159.282 113.228 159.186 113.036C159.09 112.868 159.03 112.58 159.006 112.172C158.958 112.004 158.982 111.56 159.078 110.84C159.174 110.168 159.222 109.592 159.222 109.112C159.222 108.944 159.306 107.324 159.474 104.252C159.618 101.996 159.69 100.76 159.69 100.544L159.762 97.016L159.834 93.74L159.906 91.796L159.978 90.5V88.988C159.978 88.052 160.218 87.584 160.698 87.584C160.818 87.584 160.914 87.596 160.986 87.62ZM174.66 87.188C176.94 87.188 178.812 87.644 180.276 88.556C181.764 89.444 182.916 90.296 183.732 91.112C183.828 91.208 183.876 91.316 183.876 91.436C183.876 91.508 183.84 91.604 183.768 91.724C183.72 91.82 183.684 91.892 183.66 91.94C183.54 92.108 183.336 92.408 183.048 92.84C182.784 93.248 182.568 93.548 182.4 93.74C182.328 93.836 182.244 93.944 182.148 94.064C182.076 94.16 182.004 94.232 181.932 94.28C181.884 94.328 181.8 94.352 181.68 94.352C181.632 94.352 181.512 94.28 181.32 94.136C181.152 93.968 180.984 93.824 180.816 93.704C179.856 92.864 178.92 92.144 178.008 91.544C177.096 90.944 176.22 90.644 175.38 90.644C174.708 90.644 174.156 90.8 173.724 91.112C173.292 91.4 173.076 92.072 173.076 93.128C173.076 94.16 173.46 94.964 174.228 95.54C174.996 96.116 176.016 96.668 177.288 97.196C177.408 97.244 178.104 97.544 179.376 98.096C180.672 98.648 181.812 99.704 182.796 101.264C183.804 102.824 184.308 104.684 184.308 106.844C184.308 109.148 183.444 110.876 181.716 112.028C179.988 113.18 177.6 113.756 174.552 113.756C171.096 113.756 168.9 113.096 167.964 111.776C167.028 110.432 166.536 109.736 166.488 109.688C166.392 109.568 166.344 109.448 166.344 109.328C166.344 109.256 166.44 109.1 166.632 108.86C166.944 108.428 167.4 107.912 168 107.312C168.096 107.216 168.192 107.168 168.288 107.168C168.408 107.168 168.54 107.264 168.684 107.456C168.828 107.624 168.948 107.756 169.044 107.852C170.46 109.268 172.068 109.976 173.868 109.976C174.78 109.976 175.572 109.808 176.244 109.472C176.916 109.112 177.252 108.452 177.252 107.492C177.252 105.836 175.944 104.072 173.328 102.2C172.896 101.912 172.488 101.672 172.104 101.48C171.096 100.928 170.232 100.388 169.512 99.86C168.792 99.332 168.156 98.636 167.604 97.772C167.052 96.908 166.776 95.9 166.776 94.748C166.776 93.308 167.22 92.012 168.108 90.86C169.02 89.708 170.1 88.808 171.348 88.16C172.62 87.512 173.724 87.188 174.66 87.188ZM203.178 87.116C203.466 87.14 203.634 87.212 203.682 87.332C203.754 87.452 203.778 87.62 203.754 87.836C203.754 88.028 203.754 88.172 203.754 88.268C203.778 88.58 203.718 88.796 203.574 88.916C203.43 89.036 203.202 89.096 202.89 89.096C202.698 89.096 202.326 89.108 201.774 89.132C201.246 89.156 200.598 89.156 199.83 89.132H199.686L199.614 95.648L199.578 101.984C199.578 102.944 199.626 104.168 199.722 105.656C199.842 107.12 199.914 108.044 199.938 108.428C200.082 110.348 200.154 111.428 200.154 111.668C200.178 112.148 200.07 112.46 199.83 112.604C199.59 112.748 199.17 112.82 198.57 112.82L196.986 112.784C196.866 112.784 194.898 112.748 191.082 112.676L188.85 112.64C188.61 112.64 188.49 112.4 188.49 111.92C188.49 111.752 188.514 111.428 188.562 110.948C188.61 110.324 188.634 109.844 188.634 109.508C188.586 108.884 188.562 107.792 188.562 106.232C188.562 104.144 188.586 101.912 188.634 99.536C188.706 97.16 188.79 95.372 188.886 94.172C188.934 93.548 188.958 92.708 188.958 91.652C188.958 90.476 188.922 89.588 188.85 88.988L188.202 88.952L185.214 89.024C185.022 89.024 184.926 88.832 184.926 88.448L184.962 87.656C184.962 87.464 184.986 87.344 185.034 87.296C185.106 87.224 185.214 87.188 185.358 87.188C185.454 87.188 185.574 87.2 185.718 87.224C185.862 87.248 186.03 87.26 186.222 87.26L193.89 87.224L200.154 87.152C201.138 87.128 202.146 87.116 203.178 87.116ZM207.143 88.952C207.071 89.48 207.011 90.836 206.963 93.02C206.963 93.692 206.915 95.396 206.819 98.132C206.723 100.772 206.675 102.38 206.675 102.956C206.675 104.348 206.699 106.112 206.747 108.248C206.795 110.36 206.843 111.62 206.891 112.028C206.915 112.172 206.927 112.34 206.927 112.532C206.927 112.7 206.891 112.82 206.819 112.892C206.771 112.964 206.687 113.036 206.567 113.108C206.423 113.204 206.051 113.252 205.451 113.252C205.355 113.252 205.199 113.252 204.983 113.252C204.791 113.252 204.671 113.228 204.623 113.18C204.575 113.132 204.551 113.036 204.551 112.892L204.587 111.74L204.659 107.024L204.731 99.464C204.731 98.744 204.779 97.112 204.875 94.568C204.899 93.968 204.935 92.996 204.983 91.652C205.031 90.284 205.031 89.48 204.983 89.24L204.947 88.484C204.947 87.86 205.139 87.548 205.523 87.548L206.855 87.584C207.095 87.584 207.215 87.752 207.215 88.088C207.215 88.208 207.203 88.352 207.179 88.52C207.155 88.664 207.143 88.808 207.143 88.952ZM216.586 93.416C215.986 93.416 215.386 93.668 214.786 94.172C214.21 94.676 213.718 95.516 213.31 96.692C212.902 97.844 212.698 99.332 212.698 101.156C212.698 102.932 212.95 104.348 213.454 105.404C213.982 106.436 214.57 107.156 215.218 107.564C215.89 107.972 216.466 108.176 216.946 108.176C217.378 108.176 217.822 108.032 218.278 107.744C218.734 107.432 219.13 107.108 219.466 106.772C219.514 106.724 219.586 106.64 219.682 106.52C219.802 106.4 219.91 106.34 220.006 106.34C220.126 106.34 220.27 106.388 220.438 106.484L223.498 108.176C223.594 108.224 223.738 108.296 223.93 108.392C224.146 108.464 224.29 108.536 224.362 108.608C224.458 108.68 224.506 108.776 224.506 108.896C224.506 109.016 224.47 109.148 224.398 109.292C223.87 110.18 223.042 111.092 221.914 112.028C220.786 112.964 219.226 113.432 217.234 113.432C215.674 113.432 214.174 112.856 212.734 111.704C211.318 110.528 210.178 108.932 209.314 106.916C208.45 104.9 208.018 102.68 208.018 100.256C208.018 97.856 208.426 95.696 209.242 93.776C210.082 91.856 211.15 90.356 212.446 89.276C213.742 88.196 215.074 87.656 216.442 87.656C218.146 87.656 219.514 88.016 220.546 88.736C221.602 89.432 222.358 90.104 222.814 90.752C222.91 90.896 222.994 91.028 223.066 91.148C223.162 91.268 223.21 91.388 223.21 91.508C223.21 91.652 223.078 91.844 222.814 92.084C221.71 92.948 220.918 93.704 220.438 94.352C220.198 94.664 219.994 94.904 219.826 95.072C219.658 95.216 219.49 95.288 219.322 95.288C219.154 95.288 218.962 95.168 218.746 94.928C218.242 94.376 217.846 93.992 217.558 93.776C217.294 93.536 216.97 93.416 216.586 93.416ZM239.638 87.872C241.078 88.832 242.23 90.128 243.094 91.76C243.982 93.392 244.594 94.988 244.93 96.548C245.29 98.084 245.47 99.296 245.47 100.184C245.47 101.672 245.23 103.4 244.75 105.368C244.294 107.336 243.298 109.172 241.762 110.876C240.226 112.556 238.006 113.396 235.102 113.396C231.118 113.396 228.286 111.08 226.606 106.448C225.862 104.36 225.442 102.032 225.346 99.464C225.346 97.352 225.79 95.348 226.678 93.452C227.566 91.532 228.73 89.996 230.17 88.844C231.634 87.692 233.134 87.116 234.67 87.116C236.062 87.116 237.094 87.152 237.766 87.224C238.462 87.296 239.086 87.512 239.638 87.872ZM234.922 111.38C237.466 111.38 239.362 110.324 240.61 108.212C241.858 106.076 242.482 103.4 242.482 100.184C242.482 98.216 242.182 96.404 241.582 94.748C241.006 93.068 240.178 91.736 239.098 90.752C238.042 89.744 236.818 89.24 235.426 89.24C235.306 89.24 234.982 89.24 234.454 89.24C233.95 89.24 233.506 89.324 233.122 89.492C232.738 89.66 232.39 89.912 232.078 90.248C231.286 91.04 230.614 91.772 230.062 92.444C229.534 93.092 228.994 94.064 228.442 95.36C227.914 96.656 227.65 98.156 227.65 99.86C227.65 101.876 227.89 103.76 228.37 105.512C228.874 107.24 229.666 108.656 230.746 109.76C231.826 110.84 233.218 111.38 234.922 111.38Z" fill="#E9DCB7"/>
<path d="M236.05 197.502L29.6056 188.859L31.3658 185.981L239.992 193.992L236.05 197.502Z" fill="#792113"/>
<path d="M242.07 192.238L31.686 182.757L33.4457 179.817L247.177 188.33L242.07 192.238Z" fill="#792113"/>
<path d="M250.246 186.102L34.7868 176.846L36.5561 174.539L254.364 182.457L250.246 186.102Z" fill="#792113"/>
<path d="M263.006 118.357L215.838 142.054L224.886 156.945L274.075 150.216L263.006 118.357Z" fill="#FD710C"/>
<path d="M249.5 131.422L219.544 144.951V142.535L249.5 127.074V131.422Z" fill="#FFAF32"/>
<path d="M208.88 152.955L215.777 142.039L225.165 156.938L208.88 152.955Z" fill="#FFAF32"/>
<path d="M286.149 146.656L273.582 150.34L258.272 143.514L252.965 126.996L262.109 118.248L274.111 113.87L285.096 124.517L286.149 146.656Z" fill="#792113"/>
<path d="M215.486 154.604L212.743 146.753L208.88 152.955L215.486 154.604Z" fill="#14222F"/>
<path d="M31.0309 121L46 133.452L42.0889 137.107L31.0309 130.784L14.2474 136.12L8.80412 145.459L11.9794 154.353H20.1923L20.6154 162L7.07692 160.048L2 142.346L11.9794 127.671L31.0309 121Z" fill="#14222F"/>
<path d="M27.7113 19L42 31.1333L40.701 34.2717H37.6701L27.7113 28.5333L11.6907 33.7333L6.49485 42.8333L9.52577 51.5H16.5577L16.5577 58L4.76289 55.4L0 39.8L9.52577 25.5L27.7113 19Z" fill="#14222F"/>
<path d="M27.7113 67L42 79.4783L37.6701 82.7059L27.7113 76.8043L11.6907 82.1522L6.49485 91.5109L9.52577 100.424H17.7526L18.1856 108L4.76289 104.435L0 88.3913L9.52577 73.6848L27.7113 67Z" fill="#14222F"/>
<path d="M185 28.9885H278L270.952 22.5707C266.487 18.5137 259.756 18.3761 255.132 22.2498L240.866 11.4425C234.837 6.88127 226.191 8.93269 222.803 15.7288L219.245 22.8801L208.672 18.4907C204.729 16.8519 200.207 17.4364 196.796 20.0264L185 29V28.9885Z" fill="#00A19E"/>
<path d="M143.905 161H26.9049L33.8545 151.079C37.0111 146.557 43.0643 144.978 48.0914 147.347L54.4565 150.34C54.4565 150.34 58.3015 131.325 75.7339 131.007C96.7516 130.625 96.5957 146.787 96.5957 146.787L101.09 142.482C103.285 140.38 106.273 139.247 109.339 139.336C113.47 139.451 117.211 141.769 119.094 145.386L122.731 152.352L124.316 151.486C129.252 148.786 135.461 150.072 138.878 154.492L143.905 161Z" fill="#00A19E"/>
</svg>
