<svg width="298" height="201" viewBox="0 0 298 201" fill="none" xmlns="http://www.w3.org/2000/svg">
<path d="M21.6667 193.343L15 15.4276L29.4828 1.93269L262.556 0L267 180.724L243.489 201L21.6667 193.343Z" fill="#E64927"/>
<path d="M36.2414 167.667L29.4828 1L15 14.4991L21.7546 192.623L242.579 201L267 179.396L36.2414 167.667Z" fill="#C02E19"/>
<path d="M236.05 197.502L29.6056 188.859L31.3658 185.981L239.992 193.992L236.05 197.502Z" fill="#792113"/>
<path d="M242.07 192.238L31.686 182.757L33.4457 179.817L247.177 188.33L242.07 192.238Z" fill="#792113"/>
<path d="M250.246 186.102L34.7868 176.846L36.5561 174.539L254.364 182.457L250.246 186.102Z" fill="#792113"/>
<path d="M263.006 118.357L215.838 142.054L224.886 156.945L274.075 150.216L263.006 118.357Z" fill="#FD710C"/>
<path d="M249.5 131.422L219.544 144.951V142.535L249.5 127.074V131.422Z" fill="#FFAF32"/>
<path d="M208.88 152.955L215.777 142.039L225.165 156.938L208.88 152.955Z" fill="#FFAF32"/>
<path d="M286.149 146.656L273.582 150.34L258.272 143.514L252.965 126.996L262.109 118.248L274.111 113.87L285.096 124.517L286.149 146.656Z" fill="#792113"/>
<path d="M215.486 154.604L212.743 146.753L208.88 152.955L215.486 154.604Z" fill="#14222F"/>
<path d="M31.0309 121L46 133.452L42.0889 137.107L31.0309 130.784L14.2474 136.12L8.80412 145.459L11.9794 154.353H20.1923L20.6154 162L7.07692 160.048L2 142.346L11.9794 127.671L31.0309 121Z" fill="#14222F"/>
<path d="M27.7113 19L42 31.1333L40.701 34.2717H37.6701L27.7113 28.5333L11.6907 33.7333L6.49485 42.8333L9.52577 51.5H16.5577L16.5577 58L4.76289 55.4L0 39.8L9.52577 25.5L27.7113 19Z" fill="#14222F"/>
<path d="M27.7113 67L42 79.4783L37.6701 82.7059L27.7113 76.8043L11.6907 82.1522L6.49485 91.5109L9.52577 100.424H17.7526L18.1856 108L4.76289 104.435L0 88.3913L9.52577 73.6848L27.7113 67Z" fill="#14222F"/>
<path d="M185 28.9885H278L270.952 22.5707C266.487 18.5137 259.756 18.3761 255.132 22.2498L240.866 11.4425C234.837 6.88127 226.191 8.93269 222.803 15.7288L219.245 22.8801L208.672 18.4907C204.729 16.8519 200.207 17.4364 196.796 20.0264L185 29V28.9885Z" fill="#00A19E"/>
<path d="M143.905 161H26.9049L33.8545 151.079C37.0111 146.557 43.0643 144.978 48.0914 147.347L54.4565 150.34C54.4565 150.34 58.3015 131.325 75.7339 131.007C96.7516 130.625 96.5957 146.787 96.5957 146.787L101.09 142.482C103.285 140.38 106.273 139.247 109.339 139.336C113.47 139.451 117.211 141.769 119.094 145.386L122.731 152.352L124.316 151.486C129.252 148.786 135.461 150.072 138.878 154.492L143.905 161Z" fill="#00A19E"/>
</svg>
