<svg width="643" height="434" viewBox="0 0 643 434" fill="none" xmlns="http://www.w3.org/2000/svg">
<path d="M46.7187 416.894L32.3438 33.2657L63.5721 4.16735L566.133 0L575.717 389.684L525.022 433.405L46.7187 416.894Z" fill="#E64927"/>
<path d="M78.1453 361.53L63.5721 2.15625L32.3438 31.2637L46.9084 415.342L523.06 433.405L575.717 386.821L78.1453 361.53Z" fill="#C02E19"/>
<path d="M189.227 119.491C191.823 121.779 193.539 124.507 194.375 127.675C195.211 130.799 195.629 134.253 195.629 138.037C195.629 140.017 195.299 142.239 194.639 144.703C193.979 147.167 193.055 149.455 191.867 151.567C190.723 153.679 189.381 155.241 187.841 156.253C185.729 157.617 183.111 158.585 179.987 159.157C176.863 159.685 174.399 159.949 172.595 159.949H165.863C165.379 159.949 165.071 159.839 164.939 159.619C164.807 159.399 164.807 159.157 164.939 158.893C164.983 158.761 165.005 158.585 165.005 158.365C165.005 158.189 164.983 157.969 164.939 157.705C164.939 157.397 164.939 156.979 164.939 156.451C164.939 154.999 164.917 153.569 164.873 152.161L164.741 140.215L164.807 126.949C164.807 125.805 164.785 124.705 164.741 123.649C164.697 122.549 164.653 121.603 164.609 120.811L164.477 116.653C164.521 115.641 164.587 114.937 164.675 114.541C164.763 114.145 164.939 113.947 165.203 113.947H165.401C165.577 113.947 165.775 113.991 165.995 114.079C166.215 114.123 166.413 114.145 166.589 114.145C166.941 114.145 167.359 114.123 167.843 114.079C168.371 114.035 168.899 114.013 169.427 114.013L172.001 114.079C174.465 114.079 176.687 114.189 178.667 114.409C178.843 114.409 179.415 114.453 180.383 114.541C181.395 114.629 182.671 115.091 184.211 115.927C185.795 116.763 187.467 117.951 189.227 119.491ZM175.829 157.441C178.865 157.617 181.637 157.067 184.145 155.791C186.565 154.559 188.567 152.513 190.151 149.653C191.735 146.793 192.527 142.921 192.527 138.037C192.527 133.197 191.735 129.325 190.151 126.421C188.611 123.473 186.653 121.273 184.277 119.821C181.857 118.369 179.107 117.621 176.027 117.577L175.763 123.583C175.631 125.739 175.565 128.709 175.565 132.493C175.565 132.845 175.631 134.803 175.763 138.367C175.895 139.863 175.961 141.271 175.961 142.591L175.895 151.105C175.851 152.425 175.829 154.537 175.829 157.441ZM204.162 113.485C204.734 113.529 205.284 113.551 205.812 113.551C206.384 113.507 206.868 113.485 207.264 113.485C208.232 113.485 208.936 113.507 209.376 113.551C209.904 113.595 210.278 113.705 210.498 113.881C210.718 114.057 210.828 114.299 210.828 114.607C210.828 114.827 210.806 115.069 210.762 115.333C210.718 115.597 210.674 115.839 210.63 116.059C210.146 119.799 209.882 123.649 209.838 127.609C209.794 128.753 209.772 130.513 209.772 132.889L209.838 140.875C209.882 141.535 209.904 142.217 209.904 142.921L209.97 145.561C210.058 147.849 210.102 149.543 210.102 150.643C210.102 151.479 210.08 151.985 210.036 152.161C209.992 152.337 209.97 152.843 209.97 153.679L210.036 157.309C210.08 157.837 210.102 158.497 210.102 159.289C210.146 159.861 209.97 160.213 209.574 160.345C209.222 160.521 208.738 160.587 208.122 160.543H202.116C201.456 160.587 201.038 160.433 200.862 160.081C200.686 159.773 200.576 159.245 200.532 158.497C200.444 158.189 200.488 157.375 200.664 156.055C200.84 154.823 200.928 153.767 200.928 152.887C200.928 152.579 201.082 149.609 201.39 143.977C201.654 139.841 201.786 137.575 201.786 137.179L201.918 130.711L202.05 124.705L202.182 121.141L202.314 118.765V115.993C202.314 114.277 202.754 113.419 203.634 113.419C203.854 113.419 204.03 113.441 204.162 113.485ZM247.733 158.167C248.349 159.135 248.657 159.773 248.657 160.081C248.657 160.257 248.547 160.367 248.327 160.411C248.107 160.455 247.909 160.477 247.733 160.477C247.601 160.477 247.491 160.477 247.403 160.477L239.945 160.675C239.593 160.675 239.307 160.521 239.087 160.213C238.911 159.905 238.647 159.355 238.295 158.563C238.075 157.903 237.679 157.023 237.107 155.923C236.227 154.339 234.709 151.369 232.553 147.013L229.187 140.479L229.385 143.977L229.715 148.993C229.979 154.889 230.199 158.145 230.375 158.761C230.419 158.937 230.441 159.157 230.441 159.421C230.441 160.213 230.023 160.609 229.187 160.609C228.923 160.609 228.703 160.587 228.527 160.543C227.823 160.455 226.107 160.543 223.379 160.807C221.531 160.983 220.409 161.071 220.013 161.071C219.441 161.071 219.045 160.961 218.825 160.741C218.649 160.521 218.561 160.147 218.561 159.619L218.627 158.101L218.495 154.273C218.231 149.697 218.099 145.715 218.099 142.327C218.099 140.567 218.165 139.357 218.297 138.697C218.517 137.597 218.627 134.495 218.627 129.391C218.627 124.067 218.539 120.041 218.363 117.313C218.319 116.961 218.297 116.477 218.297 115.861C218.297 115.157 218.363 114.651 218.495 114.343C218.627 114.035 218.759 113.881 218.891 113.881C219.067 113.837 219.353 113.815 219.749 113.815L221.201 113.683C224.237 113.331 226.657 113.155 228.461 113.155C233.389 113.155 237.085 114.431 239.549 116.983C242.057 119.491 243.311 122.769 243.311 126.817C243.311 130.029 242.277 133.109 240.209 136.057C239.329 137.333 238.317 138.477 237.173 139.489L241.793 147.871C245.181 153.943 247.161 157.375 247.733 158.167ZM228.791 131.701C229.451 131.701 230.045 131.569 230.573 131.305C231.805 130.733 232.421 129.567 232.421 127.807C232.421 126.531 232.223 125.585 231.827 124.969C231.431 124.353 230.925 124.045 230.309 124.045C229.825 124.045 229.407 124.221 229.055 124.573C229.011 124.617 229.011 124.925 229.055 125.497C229.099 126.069 229.121 126.641 229.121 127.213C229.121 127.697 229.099 128.049 229.055 128.269C228.879 129.017 228.791 129.787 228.791 130.579L228.725 131.173L228.791 131.701ZM280.923 120.613C280.923 121.493 280.857 122.307 280.725 123.055C280.681 123.715 280.373 124.045 279.801 124.045C279.625 124.045 279.383 124.001 279.075 123.913C278.767 123.825 278.525 123.759 278.349 123.715C277.689 123.583 275.775 123.517 272.607 123.517L270.099 123.451C269.527 123.407 268.691 123.385 267.591 123.385C266.799 123.385 266.205 123.407 265.809 123.451C264.489 123.539 263.323 123.583 262.311 123.583L258.813 123.517C258.461 123.517 258.263 123.605 258.219 123.781C258.175 123.913 258.153 124.265 258.153 124.837C258.153 125.629 258.131 126.311 258.087 126.883C257.999 128.643 257.955 130.073 257.955 131.173V135.067C257.955 135.991 257.977 136.695 258.021 137.179C258.373 137.223 258.967 137.245 259.803 137.245C260.551 137.289 262.091 137.311 264.423 137.311C265.391 137.311 266.799 137.267 268.647 137.179C270.055 137.091 270.979 137.047 271.419 137.047C272.035 137.047 272.651 137.091 273.267 137.179C273.883 137.223 274.345 137.245 274.653 137.245C275.225 137.245 275.511 137.509 275.511 138.037C275.511 138.213 275.489 138.477 275.445 138.829C275.401 139.137 275.379 139.555 275.379 140.083L275.445 143.581C275.445 143.977 275.401 144.263 275.313 144.439C275.225 144.571 275.071 144.637 274.851 144.637C274.719 144.637 274.521 144.615 274.257 144.571C274.037 144.483 273.839 144.439 273.663 144.439C273.267 144.439 272.519 144.417 271.419 144.373C270.363 144.329 268.911 144.307 267.063 144.307C265.083 144.307 263.367 144.395 261.915 144.571C260.463 144.747 259.583 144.835 259.275 144.835C258.791 144.835 258.505 144.813 258.417 144.769C258.197 144.769 258.065 144.747 258.021 144.703V151.303C258.329 151.303 258.571 151.281 258.747 151.237L260.595 151.171L268.383 151.105C269.967 151.105 271.221 151.127 272.145 151.171L276.699 151.237L279.471 151.171C279.999 151.171 280.351 151.303 280.527 151.567C280.703 151.787 280.791 152.117 280.791 152.557L280.725 153.877L280.659 158.497C280.659 159.201 280.505 159.641 280.197 159.817C279.889 159.949 279.449 160.015 278.877 160.015C278.305 159.971 277.843 159.949 277.491 159.949C275.599 159.949 273.971 159.927 272.607 159.883L265.875 159.817C265.347 159.817 262.707 159.883 257.955 160.015L255.447 160.081L255.051 160.147C254.787 160.147 254.633 160.081 254.589 159.949C254.545 159.773 254.523 159.465 254.523 159.025C254.479 158.541 254.457 157.727 254.457 156.583C254.457 156.231 254.435 155.857 254.391 155.461C254.347 155.021 254.325 154.449 254.325 153.745V144.703C254.325 143.823 254.347 142.965 254.391 142.129C254.479 141.293 254.523 140.677 254.523 140.281C254.699 138.257 254.787 136.321 254.787 134.473C254.787 132.185 254.721 130.381 254.589 129.061C254.501 127.565 254.457 126.201 254.457 124.969C254.457 122.197 254.523 118.963 254.655 115.267C254.655 114.695 254.765 114.321 254.985 114.145C255.205 113.925 255.513 113.815 255.909 113.815L256.899 113.881C257.295 113.881 257.933 113.925 258.813 114.013C259.693 114.057 260.771 114.079 262.047 114.079C263.499 114.079 265.215 113.969 267.195 113.749C269.571 113.573 271.155 113.485 271.947 113.485C273.751 113.485 275.401 113.551 276.897 113.683L279.273 113.749C279.845 113.749 280.219 113.881 280.395 114.145C280.571 114.409 280.659 114.893 280.659 115.597C280.659 115.993 280.703 116.675 280.791 117.643C280.879 118.787 280.923 119.777 280.923 120.613ZM304.114 112.495C307.722 112.495 310.45 113.155 312.298 114.475C314.146 115.751 315.422 116.939 316.126 118.039C316.874 119.095 317.336 119.755 317.512 120.019C317.952 120.591 318.172 121.031 318.172 121.339C318.172 121.603 318.084 121.823 317.908 121.999C317.732 122.175 317.512 122.329 317.248 122.461C316.984 122.593 316.808 122.703 316.72 122.791C316.192 123.143 315.488 123.693 314.608 124.441C314.212 124.749 313.618 125.211 312.826 125.827C312.078 126.399 311.572 126.751 311.308 126.883C311.132 127.015 310.956 127.081 310.78 127.081C310.472 127.081 310.186 126.905 309.922 126.553C309.658 126.201 309.482 125.959 309.394 125.827C309.306 125.695 309.064 125.409 308.668 124.969C308.316 124.529 307.854 124.155 307.282 123.847C306.71 123.539 306.072 123.385 305.368 123.385C304.048 123.385 303.014 124.243 302.266 125.959C301.518 127.675 301.144 130.733 301.144 135.133C301.144 138.037 301.386 140.413 301.87 142.261C302.354 144.109 302.926 145.451 303.586 146.287C304.29 147.079 304.95 147.475 305.566 147.475C306.446 147.475 307.106 147.277 307.546 146.881C308.03 146.485 308.448 145.737 308.8 144.637C309.152 143.581 309.724 143.053 310.516 143.053C310.78 143.053 311.066 143.097 311.374 143.185C311.726 143.273 311.99 143.339 312.166 143.383C312.606 143.559 313.684 143.845 315.4 144.241C317.116 144.593 318.59 144.879 319.822 145.099C320.438 145.231 320.746 145.759 320.746 146.683C320.746 147.123 320.724 147.453 320.68 147.673C320.636 148.245 320.46 149.015 320.152 149.983C319.228 152.799 317.644 155.351 315.4 157.639C313.2 159.883 309.9 161.005 305.5 161.005C302.816 161.005 300.11 160.191 297.382 158.563C294.654 156.935 292.344 154.229 290.452 150.445C288.56 146.617 287.614 141.601 287.614 135.397C287.614 126.597 289.308 120.591 292.696 117.379C296.084 114.123 299.89 112.495 304.114 112.495ZM357.259 115.267C357.259 115.487 357.215 116.059 357.127 116.983C357.083 117.907 357.061 119.051 357.061 120.415C357.061 121.647 357.127 123.319 357.259 125.431C357.259 126.619 356.489 127.213 354.949 127.213H343.333L343.201 134.011C343.157 134.759 343.135 136.629 343.135 139.621C343.135 142.701 343.157 145.693 343.201 148.597C343.245 151.501 343.267 154.009 343.267 156.121L343.333 158.827V159.157C343.333 159.553 343.267 159.795 343.135 159.883C343.047 159.971 342.915 160.015 342.739 160.015C342.563 160.015 342.431 160.015 342.343 160.015H337.855C337.327 160.015 337.019 159.927 336.931 159.751C336.843 159.575 336.799 159.267 336.799 158.827C336.799 158.343 336.799 157.991 336.799 157.771L337.063 149.587C337.327 142.459 337.459 137.883 337.459 135.859C337.459 134.715 337.415 132.999 337.327 130.711L337.261 127.213C334.093 127.213 330.881 127.257 327.625 127.345L325.579 127.411C325.007 127.411 324.611 127.257 324.391 126.949C324.171 126.641 324.127 126.289 324.259 125.893L324.325 124.243C324.413 121.691 324.457 119.337 324.457 117.181C324.457 116.125 324.435 115.487 324.391 115.267V114.805C324.391 114.321 324.479 114.035 324.655 113.947C324.875 113.859 325.183 113.815 325.579 113.815H332.113L335.809 113.749C338.097 113.661 339.703 113.617 340.627 113.617L344.587 113.683C347.755 113.771 350.241 113.815 352.045 113.815C353.365 113.815 354.223 113.793 354.619 113.749C355.587 113.705 356.269 113.859 356.665 114.211C357.061 114.519 357.259 114.871 357.259 115.267ZM387.354 113.947C389.994 115.707 392.106 118.083 393.69 121.075C395.318 124.067 396.44 126.993 397.056 129.853C397.716 132.669 398.046 134.891 398.046 136.519C398.046 139.247 397.606 142.415 396.726 146.023C395.89 149.631 394.064 152.997 391.248 156.121C388.432 159.201 384.362 160.741 379.038 160.741C371.734 160.741 366.542 156.495 363.462 148.003C362.098 144.175 361.328 139.907 361.152 135.199C361.152 131.327 361.966 127.653 363.594 124.177C365.222 120.657 367.356 117.841 369.996 115.729C372.68 113.617 375.43 112.561 378.246 112.561C380.798 112.561 382.69 112.627 383.922 112.759C385.198 112.891 386.342 113.287 387.354 113.947ZM378.708 157.045C383.372 157.045 386.848 155.109 389.136 151.237C391.424 147.321 392.568 142.415 392.568 136.519C392.568 132.911 392.018 129.589 390.918 126.553C389.862 123.473 388.344 121.031 386.364 119.227C384.428 117.379 382.184 116.455 379.632 116.455C379.412 116.455 378.818 116.455 377.85 116.455C376.926 116.455 376.112 116.609 375.408 116.917C374.704 117.225 374.066 117.687 373.494 118.303C372.042 119.755 370.81 121.097 369.798 122.329C368.83 123.517 367.84 125.299 366.828 127.675C365.86 130.051 365.376 132.801 365.376 135.925C365.376 139.621 365.816 143.075 366.696 146.287C367.62 149.455 369.072 152.051 371.052 154.075C373.032 156.055 375.584 157.045 378.708 157.045ZM434.655 157.309C435.843 158.497 436.437 159.311 436.437 159.751C436.437 159.839 436.327 159.993 436.107 160.213C435.711 160.477 434.721 160.609 433.137 160.609C431.993 160.609 431.267 160.521 430.959 160.345C430.651 160.213 430.409 159.971 430.233 159.619C430.101 159.267 429.991 159.003 429.903 158.827C429.771 158.563 429.221 157.815 428.253 156.583C427.329 155.307 426.625 154.339 426.141 153.679C423.809 150.687 421.785 147.981 420.069 145.561C419.013 144.065 417.055 141.491 414.195 137.839L413.139 136.519L408.585 130.843L408.321 133.483C408.145 134.803 408.101 136.387 408.189 138.235C408.321 139.467 408.409 142.657 408.453 147.805C408.497 152.953 408.519 156.715 408.519 159.091C408.519 159.795 408.255 160.235 407.727 160.411C407.199 160.631 406.583 160.741 405.879 160.741C405.571 160.741 405.373 160.609 405.285 160.345C405.197 160.081 405.131 159.795 405.087 159.487C405.087 159.179 405.087 158.981 405.087 158.893C404.999 158.189 404.955 157.155 404.955 155.791C404.955 154.911 404.977 154.251 405.021 153.811C405.065 151.435 405.131 147.299 405.219 141.403C405.307 135.463 405.351 130.139 405.351 125.431C405.351 120.371 405.285 117.423 405.153 116.587C405.109 116.235 405.087 115.773 405.087 115.201C405.087 114.541 405.175 114.123 405.351 113.947C405.571 113.771 405.879 113.683 406.275 113.683C407.155 113.683 408.013 113.705 408.849 113.749L416.043 113.881C418.683 113.881 421.433 114.343 424.293 115.267C427.153 116.191 428.583 117.907 428.583 120.415C428.583 122.791 427.703 124.639 425.943 125.959C424.183 127.279 422.203 128.181 420.003 128.665C417.847 129.149 415.955 129.391 414.327 129.391C413.755 129.391 413.447 129.369 413.403 129.325C413.667 129.589 415.405 131.921 418.617 136.321C428.297 149.301 433.643 156.297 434.655 157.309ZM408.387 126.685C409.839 126.685 410.939 126.663 411.687 126.619C414.239 126.531 416.219 126.355 417.627 126.091C419.651 125.739 421.169 125.255 422.181 124.639C423.237 124.023 423.765 123.055 423.765 121.735C423.765 120.855 423.303 120.107 422.379 119.491C421.455 118.831 420.333 118.347 419.013 118.039C417.737 117.687 416.615 117.511 415.647 117.511C414.547 117.467 413.007 117.445 411.027 117.445H408.783L408.387 126.685ZM445.317 115.927C445.185 116.895 445.075 119.381 444.987 123.385C444.987 124.617 444.899 127.741 444.723 132.757C444.547 137.597 444.459 140.545 444.459 141.601C444.459 144.153 444.503 147.387 444.591 151.303C444.679 155.175 444.767 157.485 444.855 158.233C444.899 158.497 444.921 158.805 444.921 159.157C444.921 159.465 444.855 159.685 444.723 159.817C444.635 159.949 444.481 160.081 444.261 160.213C443.997 160.389 443.315 160.477 442.215 160.477C442.039 160.477 441.753 160.477 441.357 160.477C441.005 160.477 440.785 160.433 440.697 160.345C440.609 160.257 440.565 160.081 440.565 159.817L440.631 157.705L440.763 149.059L440.895 135.199C440.895 133.879 440.983 130.887 441.159 126.223C441.203 125.123 441.269 123.341 441.357 120.877C441.445 118.369 441.445 116.895 441.357 116.455L441.291 115.069C441.291 113.925 441.643 113.353 442.347 113.353L444.789 113.419C445.229 113.419 445.449 113.727 445.449 114.343C445.449 114.563 445.427 114.827 445.383 115.135C445.339 115.399 445.317 115.663 445.317 115.927ZM476.622 113.947C479.262 115.707 481.374 118.083 482.958 121.075C484.586 124.067 485.708 126.993 486.324 129.853C486.984 132.669 487.314 134.891 487.314 136.519C487.314 139.247 486.874 142.415 485.994 146.023C485.158 149.631 483.332 152.997 480.516 156.121C477.7 159.201 473.63 160.741 468.306 160.741C461.002 160.741 455.81 156.495 452.73 148.003C451.366 144.175 450.596 139.907 450.42 135.199C450.42 131.327 451.234 127.653 452.862 124.177C454.49 120.657 456.624 117.841 459.264 115.729C461.948 113.617 464.698 112.561 467.514 112.561C470.066 112.561 471.958 112.627 473.19 112.759C474.466 112.891 475.61 113.287 476.622 113.947ZM467.976 157.045C472.64 157.045 476.116 155.109 478.404 151.237C480.692 147.321 481.836 142.415 481.836 136.519C481.836 132.911 481.286 129.589 480.186 126.553C479.13 123.473 477.612 121.031 475.632 119.227C473.696 117.379 471.452 116.455 468.9 116.455C468.68 116.455 468.086 116.455 467.118 116.455C466.194 116.455 465.38 116.609 464.676 116.917C463.972 117.225 463.334 117.687 462.762 118.303C461.31 119.755 460.078 121.097 459.066 122.329C458.098 123.517 457.108 125.299 456.096 127.675C455.128 130.051 454.644 132.801 454.644 135.925C454.644 139.621 455.084 143.075 455.964 146.287C456.888 149.455 458.34 152.051 460.32 154.075C462.3 156.055 464.852 157.045 467.976 157.045Z" fill="#E9DCB7"/>
<path d="M142.632 212.111C141.532 212.111 140.432 212.573 139.332 213.497C138.276 214.421 137.374 215.961 136.626 218.117C135.878 220.229 135.504 222.957 135.504 226.301C135.504 229.557 135.966 232.153 136.89 234.089C137.858 235.981 138.936 237.301 140.124 238.049C141.356 238.797 142.412 239.171 143.292 239.171C144.084 239.171 144.898 238.907 145.734 238.379C146.57 237.807 147.296 237.213 147.912 236.597C148 236.509 148.132 236.355 148.308 236.135C148.528 235.915 148.726 235.805 148.902 235.805C149.122 235.805 149.386 235.893 149.694 236.069L155.304 239.171C155.48 239.259 155.744 239.391 156.096 239.567C156.492 239.699 156.756 239.831 156.888 239.963C157.064 240.095 157.152 240.271 157.152 240.491C157.152 240.711 157.086 240.953 156.954 241.217C155.986 242.845 154.468 244.517 152.4 246.233C150.332 247.949 147.472 248.807 143.82 248.807C140.96 248.807 138.21 247.751 135.57 245.639C132.974 243.483 130.884 240.557 129.3 236.861C127.716 233.165 126.924 229.095 126.924 224.651C126.924 220.251 127.672 216.291 129.168 212.771C130.708 209.251 132.666 206.501 135.042 204.521C137.418 202.541 139.86 201.551 142.368 201.551C145.492 201.551 148 202.211 149.892 203.531C151.828 204.807 153.214 206.039 154.05 207.227C154.226 207.491 154.38 207.733 154.512 207.953C154.688 208.173 154.776 208.393 154.776 208.613C154.776 208.877 154.534 209.229 154.05 209.669C152.026 211.253 150.574 212.639 149.694 213.827C149.254 214.399 148.88 214.839 148.572 215.147C148.264 215.411 147.956 215.543 147.648 215.543C147.34 215.543 146.988 215.323 146.592 214.883C145.668 213.871 144.942 213.167 144.414 212.771C143.93 212.331 143.336 212.111 142.632 212.111ZM196.971 246.695C197.191 247.135 197.301 247.421 197.301 247.553C197.301 247.905 196.905 248.081 196.113 248.081H191.361C191.185 248.081 191.009 247.927 190.833 247.619C190.657 247.311 190.503 247.003 190.371 246.695C190.239 246.387 190.129 246.123 190.041 245.903C189.821 245.463 189.403 244.451 188.787 242.867C188.215 241.283 187.775 240.029 187.467 239.105C187.335 238.665 187.071 238.027 186.675 237.191C186.279 236.311 185.993 235.695 185.817 235.343C185.641 234.815 185.465 234.463 185.289 234.287C185.157 234.111 184.937 234.023 184.629 234.023C184.321 234.023 183.925 234.045 183.441 234.089C183.001 234.133 182.517 234.177 181.989 234.221C181.637 234.309 180.537 234.353 178.689 234.353C177.413 234.353 176.159 234.397 174.927 234.485C174.531 234.529 173.827 234.551 172.815 234.551L169.317 234.485C169.097 234.485 168.921 234.573 168.789 234.749C168.701 234.925 168.635 235.145 168.591 235.409C168.547 235.629 168.503 235.805 168.459 235.937L168.063 237.587C167.931 238.203 167.755 238.929 167.535 239.765C167.359 240.557 167.205 241.305 167.073 242.009L166.347 244.847L165.819 246.761C165.687 247.289 165.555 247.641 165.423 247.817C165.335 247.949 165.181 248.015 164.961 248.015H161.067C160.847 248.015 160.737 247.927 160.737 247.751C160.737 247.663 160.825 247.355 161.001 246.827C161.353 245.991 161.661 245.155 161.925 244.319C163.553 238.863 164.521 235.299 164.829 233.627C165.225 231.427 166.039 228.589 167.271 225.113C167.667 223.617 168.041 222.253 168.393 221.021C168.525 220.405 168.723 219.657 168.987 218.777C169.823 215.697 170.659 212.815 171.495 210.131L173.145 204.851C173.497 203.487 173.937 202.079 174.465 200.627C174.729 199.967 175.037 199.813 175.389 200.165C175.653 200.341 175.851 200.649 175.983 201.089C176.115 201.529 176.203 201.837 176.247 202.013C176.379 202.541 177.545 205.181 179.745 209.933C180.625 211.737 181.571 214.091 182.583 216.995C183.023 218.271 184.233 221.021 186.213 225.245C187.225 227.313 187.885 228.743 188.193 229.535C188.897 231.075 190.789 234.815 193.869 240.755L194.661 242.405C195.673 244.649 196.443 246.079 196.971 246.695ZM179.679 224.915C179.987 224.871 180.251 224.849 180.471 224.849C180.691 224.849 180.867 224.827 180.999 224.783C181.131 224.739 181.197 224.673 181.197 224.585C181.197 224.497 181.131 224.321 180.999 224.057C180.779 223.661 180.273 222.561 179.481 220.757C178.689 218.909 178.139 217.523 177.831 216.599C177.391 215.543 177.039 214.663 176.775 213.959C176.555 213.255 176.379 212.771 176.247 212.507C176.159 212.287 176.049 212.067 175.917 211.847C175.829 211.627 175.741 211.451 175.653 211.319C175.565 211.187 175.477 211.121 175.389 211.121C175.257 211.121 175.103 211.451 174.927 212.111C174.795 212.771 174.685 213.277 174.597 213.629C173.805 216.181 173.233 218.117 172.881 219.437C172.705 220.097 172.441 220.911 172.089 221.879C171.781 222.803 171.561 223.441 171.429 223.793C171.297 224.233 171.231 224.585 171.231 224.849C171.231 225.113 171.429 225.245 171.825 225.245C172.749 225.245 174.157 225.223 176.049 225.179C177.985 225.091 179.195 225.003 179.679 224.915ZM220.532 206.897C220.532 204.169 220.554 202.475 220.598 201.815C220.598 200.979 220.884 200.473 221.456 200.297C222.028 200.121 222.864 200.033 223.964 200.033C224.932 200.033 226.164 199.989 227.66 199.901C229.2 199.769 230.388 199.637 231.224 199.505C231.84 199.461 232.28 199.571 232.544 199.835C232.808 200.055 232.94 200.451 232.94 201.023C232.94 201.199 232.896 201.683 232.808 202.475C232.72 203.135 232.676 207.513 232.676 215.609V230.525C232.676 232.769 232.698 235.255 232.742 237.983C232.83 240.667 232.918 243.087 233.006 245.243C233.094 247.399 233.138 247.993 233.138 247.025C233.138 247.729 232.786 248.081 232.082 248.081C231.774 248.081 231.51 248.059 231.29 248.015C231.114 247.971 230.762 247.949 230.234 247.949C229.706 247.949 228.87 247.993 227.726 248.081C226.494 248.169 225.636 248.213 225.152 248.213C224.316 248.213 223.678 248.037 223.238 247.685C222.842 247.333 222.424 246.695 221.984 245.771L220.862 243.527C219.542 240.579 218.376 238.269 217.364 236.597C216.792 235.629 215.34 232.967 213.008 228.611L210.104 223.133V225.641V227.159C210.104 227.511 210.082 227.951 210.038 228.479C210.038 229.007 210.06 229.601 210.104 230.261C210.104 232.549 210.126 235.541 210.17 239.237C210.258 242.933 210.368 245.155 210.5 245.903C210.544 246.123 210.566 246.387 210.566 246.695C210.566 247.135 210.478 247.421 210.302 247.553C210.126 247.641 209.796 247.663 209.312 247.619C208.608 247.619 207.772 247.663 206.804 247.751C205.88 247.839 205 247.927 204.164 248.015C203.504 248.103 203.064 247.993 202.844 247.685C202.668 247.377 202.602 246.695 202.646 245.639C202.646 244.055 202.58 241.261 202.448 237.257C202.272 233.077 202.162 229.447 202.118 226.367C202.118 223.243 202.184 220.075 202.316 216.863C202.404 212.815 202.448 210.043 202.448 208.547C202.448 206.523 202.382 205.049 202.25 204.125C202.162 203.333 202.118 202.827 202.118 202.607C202.118 201.815 202.25 201.287 202.514 201.023C202.778 200.715 203.13 200.561 203.57 200.561C203.79 200.561 204.23 200.583 204.89 200.627C205.55 200.627 206.496 200.473 207.728 200.165C208.212 200.077 208.696 200.033 209.18 200.033C209.444 200.033 209.818 200.055 210.302 200.099C210.786 200.143 211.424 200.165 212.216 200.165C213.228 200.165 214.064 200.561 214.724 201.353C215.428 202.145 216.176 203.267 216.968 204.719L217.628 205.907C218.156 206.875 218.794 207.909 219.542 209.009L220.532 210.527V206.897ZM271.793 203.267C271.793 203.487 271.749 204.059 271.661 204.983C271.617 205.907 271.595 207.051 271.595 208.415C271.595 209.647 271.661 211.319 271.793 213.431C271.793 214.619 271.023 215.213 269.483 215.213H257.867L257.735 222.011C257.691 222.759 257.669 224.629 257.669 227.621C257.669 230.701 257.691 233.693 257.735 236.597C257.779 239.501 257.801 242.009 257.801 244.121L257.867 246.827V247.157C257.867 247.553 257.801 247.795 257.669 247.883C257.581 247.971 257.449 248.015 257.273 248.015C257.097 248.015 256.965 248.015 256.877 248.015H252.389C251.861 248.015 251.553 247.927 251.465 247.751C251.377 247.575 251.333 247.267 251.333 246.827C251.333 246.343 251.333 245.991 251.333 245.771L251.597 237.587C251.861 230.459 251.993 225.883 251.993 223.859C251.993 222.715 251.949 220.999 251.861 218.711L251.795 215.213C248.627 215.213 245.415 215.257 242.159 215.345L240.113 215.411C239.541 215.411 239.145 215.257 238.925 214.949C238.705 214.641 238.661 214.289 238.793 213.893L238.859 212.243C238.947 209.691 238.991 207.337 238.991 205.181C238.991 204.125 238.969 203.487 238.925 203.267V202.805C238.925 202.321 239.013 202.035 239.189 201.947C239.409 201.859 239.717 201.815 240.113 201.815H246.647L250.343 201.749C252.631 201.661 254.237 201.617 255.161 201.617L259.121 201.683C262.289 201.771 264.775 201.815 266.579 201.815C267.899 201.815 268.757 201.793 269.153 201.749C270.121 201.705 270.803 201.859 271.199 202.211C271.595 202.519 271.793 202.871 271.793 203.267ZM305.584 247.091C305.716 247.399 305.782 247.619 305.782 247.751C305.782 247.927 305.54 248.015 305.056 248.015H301.36C301.184 248.015 301.03 247.993 300.898 247.949C300.81 247.861 300.722 247.685 300.634 247.421C300.458 246.937 300.216 246.145 299.908 245.045C299.512 243.945 299.248 242.955 299.116 242.075C298.984 241.415 298.764 240.623 298.456 239.699C298.192 238.775 297.95 238.071 297.73 237.587C297.334 236.751 296.982 235.805 296.674 234.749L296.08 232.835C295.86 232.351 295.684 232.065 295.552 231.977C295.464 231.845 295.288 231.779 295.024 231.779C294.1 231.779 293.418 231.801 292.978 231.845L290.14 231.977C289.788 232.021 288.16 232.043 285.256 232.043H281.23H281.098C280.834 232.043 280.636 232.285 280.504 232.769L280.372 233.429L280.108 234.683C280.02 234.903 279.734 236.179 279.25 238.511C279.118 239.259 278.898 240.227 278.59 241.415C278.502 242.295 278.304 243.021 277.996 243.593C277.908 243.725 277.798 244.033 277.666 244.517C277.534 245.001 277.424 245.397 277.336 245.705C277.204 246.057 277.05 246.629 276.874 247.421C276.83 247.465 276.786 247.575 276.742 247.751C276.698 247.883 276.632 247.971 276.544 248.015C276.456 248.015 276.324 248.015 276.148 248.015H274.828C274.432 248.015 274.322 247.729 274.498 247.157C274.498 247.025 274.52 246.915 274.564 246.827C274.564 246.739 274.586 246.629 274.63 246.497C274.674 246.365 274.74 246.167 274.828 245.903L275.422 243.461C275.51 243.197 275.664 242.735 275.884 242.075C276.104 241.415 276.258 240.799 276.346 240.227C276.566 239.171 276.984 237.565 277.6 235.409L278.128 233.561C278.964 230.833 279.492 228.919 279.712 227.819L280.636 224.321C281.076 222.869 281.34 221.945 281.428 221.549C281.736 220.229 282.176 218.579 282.748 216.599L283.21 214.751L283.606 213.365C284.046 211.869 284.42 210.791 284.728 210.131C284.816 209.867 285.124 208.965 285.652 207.425C286.224 205.841 286.598 204.587 286.774 203.663C287.082 202.607 287.39 201.815 287.698 201.287C288.05 200.759 288.512 200.495 289.084 200.495C289.304 200.495 289.524 200.693 289.744 201.089C289.964 201.485 290.184 201.969 290.404 202.541C290.624 203.113 290.778 203.531 290.866 203.795C291.218 204.631 291.834 206.721 292.714 210.065L293.242 211.913C293.286 212.265 294.012 214.421 295.42 218.381L296.674 222.011L297.862 225.113C299.094 228.589 299.886 230.701 300.238 231.449C301.778 236.113 302.68 238.929 302.944 239.897C303.252 241.041 303.736 242.471 304.396 244.187C305.1 245.903 305.496 246.871 305.584 247.091ZM293.242 227.489C293.814 227.489 294.1 227.335 294.1 227.027C294.1 226.807 293.946 226.323 293.638 225.575C293.374 224.915 292.978 223.683 292.45 221.879C292.054 220.427 291.658 219.173 291.262 218.117C290.822 216.797 290.338 215.235 289.81 213.431C289.326 211.627 289.04 210.461 288.952 209.933C288.292 207.601 287.852 206.435 287.632 206.435C287.5 206.435 287.28 207.029 286.972 208.217L286.576 209.669C286.268 210.857 285.872 212.353 285.388 214.157C284.904 215.917 284.464 217.413 284.068 218.645C283.804 219.789 283.43 221.241 282.946 223.001C282.506 224.717 282.154 225.905 281.89 226.565C281.802 226.829 281.758 226.983 281.758 227.027C281.758 227.335 281.89 227.533 282.154 227.621C282.462 227.709 282.748 227.753 283.012 227.753C283.32 227.709 283.518 227.687 283.606 227.687L287.434 227.555C287.962 227.467 288.71 227.423 289.678 227.423L293.242 227.489ZM340.488 245.309C341.676 246.497 342.27 247.311 342.27 247.751C342.27 247.839 342.16 247.993 341.94 248.213C341.544 248.477 340.554 248.609 338.97 248.609C337.826 248.609 337.1 248.521 336.792 248.345C336.484 248.213 336.242 247.971 336.066 247.619C335.934 247.267 335.824 247.003 335.736 246.827C335.604 246.563 335.054 245.815 334.086 244.583C333.162 243.307 332.458 242.339 331.974 241.679C329.642 238.687 327.618 235.981 325.902 233.561C324.846 232.065 322.888 229.491 320.028 225.839L318.972 224.519L314.418 218.843L314.154 221.483C313.978 222.803 313.934 224.387 314.022 226.235C314.154 227.467 314.242 230.657 314.286 235.805C314.33 240.953 314.352 244.715 314.352 247.091C314.352 247.795 314.088 248.235 313.56 248.411C313.032 248.631 312.416 248.741 311.712 248.741C311.404 248.741 311.206 248.609 311.118 248.345C311.03 248.081 310.964 247.795 310.92 247.487C310.92 247.179 310.92 246.981 310.92 246.893C310.832 246.189 310.788 245.155 310.788 243.791C310.788 242.911 310.81 242.251 310.854 241.811C310.898 239.435 310.964 235.299 311.052 229.403C311.14 223.463 311.184 218.139 311.184 213.431C311.184 208.371 311.118 205.423 310.986 204.587C310.942 204.235 310.92 203.773 310.92 203.201C310.92 202.541 311.008 202.123 311.184 201.947C311.404 201.771 311.712 201.683 312.108 201.683C312.988 201.683 313.846 201.705 314.682 201.749L321.876 201.881C324.516 201.881 327.266 202.343 330.126 203.267C332.986 204.191 334.416 205.907 334.416 208.415C334.416 210.791 333.536 212.639 331.776 213.959C330.016 215.279 328.036 216.181 325.836 216.665C323.68 217.149 321.788 217.391 320.16 217.391C319.588 217.391 319.28 217.369 319.236 217.325C319.5 217.589 321.238 219.921 324.45 224.321C334.13 237.301 339.476 244.297 340.488 245.309ZM314.22 214.685C315.672 214.685 316.772 214.663 317.52 214.619C320.072 214.531 322.052 214.355 323.46 214.091C325.484 213.739 327.002 213.255 328.014 212.639C329.07 212.023 329.598 211.055 329.598 209.735C329.598 208.855 329.136 208.107 328.212 207.491C327.288 206.831 326.166 206.347 324.846 206.039C323.57 205.687 322.448 205.511 321.48 205.511C320.38 205.467 318.84 205.445 316.86 205.445H314.616L314.22 214.685ZM358.938 194.489C358.806 194.973 358.366 195.435 357.618 195.875C356.914 196.315 356.276 196.601 355.704 196.733C353.592 197.393 351.722 198.119 350.094 198.911C349.918 198.955 349.588 199.065 349.104 199.241C348.664 199.417 348.29 199.505 347.982 199.505C347.542 199.505 347.08 199.351 346.596 199.043C345.716 198.735 345.276 198.251 345.276 197.591C345.276 197.503 345.32 197.283 345.408 196.931C345.452 196.711 345.892 196.425 346.728 196.073C347.564 195.677 348.224 195.413 348.708 195.281C348.972 195.105 349.456 194.929 350.16 194.753C350.864 194.533 351.722 194.203 352.734 193.763L354.186 193.235C355.11 192.927 355.88 192.773 356.496 192.773L357.816 192.641C358.608 192.641 359.004 193.015 359.004 193.763C359.004 194.071 358.982 194.313 358.938 194.489ZM349.764 201.485C350.336 201.529 350.886 201.551 351.414 201.551C351.986 201.507 352.47 201.485 352.866 201.485C353.834 201.485 354.538 201.507 354.978 201.551C355.506 201.595 355.88 201.705 356.1 201.881C356.32 202.057 356.43 202.299 356.43 202.607C356.43 202.827 356.408 203.069 356.364 203.333C356.32 203.597 356.276 203.839 356.232 204.059C355.748 207.799 355.484 211.649 355.44 215.609C355.396 216.753 355.374 218.513 355.374 220.889L355.44 228.875C355.484 229.535 355.506 230.217 355.506 230.921L355.572 233.561C355.66 235.849 355.704 237.543 355.704 238.643C355.704 239.479 355.682 239.985 355.638 240.161C355.594 240.337 355.572 240.843 355.572 241.679L355.638 245.309C355.682 245.837 355.704 246.497 355.704 247.289C355.748 247.861 355.572 248.213 355.176 248.345C354.824 248.521 354.34 248.587 353.724 248.543H347.718C347.058 248.587 346.64 248.433 346.464 248.081C346.288 247.773 346.178 247.245 346.134 246.497C346.046 246.189 346.09 245.375 346.266 244.055C346.442 242.823 346.53 241.767 346.53 240.887C346.53 240.579 346.684 237.609 346.992 231.977C347.256 227.841 347.388 225.575 347.388 225.179L347.52 218.711L347.652 212.705L347.784 209.141L347.916 206.765V203.993C347.916 202.277 348.356 201.419 349.236 201.419C349.456 201.419 349.632 201.441 349.764 201.485ZM378.133 200.693C382.313 200.693 385.745 201.529 388.429 203.201C391.157 204.829 393.269 206.391 394.765 207.887C394.941 208.063 395.029 208.261 395.029 208.481C395.029 208.613 394.963 208.789 394.831 209.009C394.743 209.185 394.677 209.317 394.633 209.405C394.413 209.713 394.039 210.263 393.511 211.055C393.027 211.803 392.631 212.353 392.323 212.705C392.191 212.881 392.037 213.079 391.861 213.299C391.729 213.475 391.597 213.607 391.465 213.695C391.377 213.783 391.223 213.827 391.003 213.827C390.915 213.827 390.695 213.695 390.343 213.431C390.035 213.123 389.727 212.859 389.419 212.639C387.659 211.099 385.943 209.779 384.271 208.679C382.599 207.579 380.993 207.029 379.453 207.029C378.221 207.029 377.209 207.315 376.417 207.887C375.625 208.415 375.229 209.647 375.229 211.583C375.229 213.475 375.933 214.949 377.341 216.005C378.749 217.061 380.619 218.073 382.951 219.041C383.171 219.129 384.447 219.679 386.779 220.691C389.155 221.703 391.245 223.639 393.049 226.499C394.897 229.359 395.821 232.769 395.821 236.729C395.821 240.953 394.237 244.121 391.069 246.233C387.901 248.345 383.523 249.401 377.935 249.401C371.599 249.401 367.573 248.191 365.857 245.771C364.141 243.307 363.239 242.031 363.151 241.943C362.975 241.723 362.887 241.503 362.887 241.283C362.887 241.151 363.063 240.865 363.415 240.425C363.987 239.633 364.823 238.687 365.923 237.587C366.099 237.411 366.275 237.323 366.451 237.323C366.671 237.323 366.913 237.499 367.177 237.851C367.441 238.159 367.661 238.401 367.837 238.577C370.433 241.173 373.381 242.471 376.681 242.471C378.353 242.471 379.805 242.163 381.037 241.547C382.269 240.887 382.885 239.677 382.885 237.917C382.885 234.881 380.487 231.647 375.691 228.215C374.899 227.687 374.151 227.247 373.447 226.895C371.599 225.883 370.015 224.893 368.695 223.925C367.375 222.957 366.209 221.681 365.197 220.097C364.185 218.513 363.679 216.665 363.679 214.553C363.679 211.913 364.493 209.537 366.121 207.425C367.793 205.313 369.773 203.663 372.061 202.475C374.393 201.287 376.417 200.693 378.133 200.693ZM433.716 200.561C434.244 200.605 434.552 200.737 434.64 200.957C434.772 201.177 434.816 201.485 434.772 201.881C434.772 202.233 434.772 202.497 434.772 202.673C434.816 203.245 434.706 203.641 434.442 203.861C434.178 204.081 433.76 204.191 433.188 204.191C432.836 204.191 432.154 204.213 431.142 204.257C430.174 204.301 428.986 204.301 427.578 204.257H427.314L427.182 216.203L427.116 227.819C427.116 229.579 427.204 231.823 427.38 234.551C427.6 237.235 427.732 238.929 427.776 239.633C428.04 243.153 428.172 245.133 428.172 245.573C428.216 246.453 428.018 247.025 427.578 247.289C427.138 247.553 426.368 247.685 425.268 247.685L422.364 247.619C422.144 247.619 418.536 247.553 411.54 247.421L407.448 247.355C407.008 247.355 406.788 246.915 406.788 246.035C406.788 245.727 406.832 245.133 406.92 244.253C407.008 243.109 407.052 242.229 407.052 241.613C406.964 240.469 406.92 238.467 406.92 235.607C406.92 231.779 406.964 227.687 407.052 223.331C407.184 218.975 407.338 215.697 407.514 213.497C407.602 212.353 407.646 210.813 407.646 208.877C407.646 206.721 407.58 205.093 407.448 203.993L406.26 203.927L400.782 204.059C400.43 204.059 400.254 203.707 400.254 203.003L400.32 201.551C400.32 201.199 400.364 200.979 400.452 200.891C400.584 200.759 400.782 200.693 401.046 200.693C401.222 200.693 401.442 200.715 401.706 200.759C401.97 200.803 402.278 200.825 402.63 200.825L416.688 200.759L428.172 200.627C429.976 200.583 431.824 200.561 433.716 200.561ZM444.284 203.927C444.152 204.895 444.042 207.381 443.954 211.385C443.954 212.617 443.866 215.741 443.69 220.757C443.514 225.597 443.426 228.545 443.426 229.601C443.426 232.153 443.47 235.387 443.558 239.303C443.646 243.175 443.734 245.485 443.822 246.233C443.866 246.497 443.888 246.805 443.888 247.157C443.888 247.465 443.822 247.685 443.69 247.817C443.602 247.949 443.448 248.081 443.228 248.213C442.964 248.389 442.282 248.477 441.182 248.477C441.006 248.477 440.72 248.477 440.324 248.477C439.972 248.477 439.752 248.433 439.664 248.345C439.576 248.257 439.532 248.081 439.532 247.817L439.598 245.705L439.73 237.059L439.862 223.199C439.862 221.879 439.95 218.887 440.126 214.223C440.17 213.123 440.236 211.341 440.324 208.877C440.412 206.369 440.412 204.895 440.324 204.455L440.258 203.069C440.258 201.925 440.61 201.353 441.314 201.353L443.756 201.419C444.196 201.419 444.416 201.727 444.416 202.343C444.416 202.563 444.394 202.827 444.35 203.135C444.306 203.399 444.284 203.663 444.284 203.927ZM464.898 212.111C463.798 212.111 462.698 212.573 461.598 213.497C460.542 214.421 459.64 215.961 458.892 218.117C458.144 220.229 457.77 222.957 457.77 226.301C457.77 229.557 458.232 232.153 459.156 234.089C460.124 235.981 461.202 237.301 462.39 238.049C463.622 238.797 464.678 239.171 465.558 239.171C466.35 239.171 467.164 238.907 468 238.379C468.836 237.807 469.562 237.213 470.178 236.597C470.266 236.509 470.398 236.355 470.574 236.135C470.794 235.915 470.992 235.805 471.168 235.805C471.388 235.805 471.652 235.893 471.96 236.069L477.57 239.171C477.746 239.259 478.01 239.391 478.362 239.567C478.758 239.699 479.022 239.831 479.154 239.963C479.33 240.095 479.418 240.271 479.418 240.491C479.418 240.711 479.352 240.953 479.22 241.217C478.252 242.845 476.734 244.517 474.666 246.233C472.598 247.949 469.738 248.807 466.086 248.807C463.226 248.807 460.476 247.751 457.836 245.639C455.24 243.483 453.15 240.557 451.566 236.861C449.982 233.165 449.19 229.095 449.19 224.651C449.19 220.251 449.938 216.291 451.434 212.771C452.974 209.251 454.932 206.501 457.308 204.521C459.684 202.541 462.126 201.551 464.634 201.551C467.758 201.551 470.266 202.211 472.158 203.531C474.094 204.807 475.48 206.039 476.316 207.227C476.492 207.491 476.646 207.733 476.778 207.953C476.954 208.173 477.042 208.393 477.042 208.613C477.042 208.877 476.8 209.229 476.316 209.669C474.292 211.253 472.84 212.639 471.96 213.827C471.52 214.399 471.146 214.839 470.838 215.147C470.53 215.411 470.222 215.543 469.914 215.543C469.606 215.543 469.254 215.323 468.858 214.883C467.934 213.871 467.208 213.167 466.68 212.771C466.196 212.331 465.602 212.111 464.898 212.111ZM510.459 201.947C513.099 203.707 515.211 206.083 516.795 209.075C518.423 212.067 519.545 214.993 520.161 217.853C520.821 220.669 521.151 222.891 521.151 224.519C521.151 227.247 520.711 230.415 519.831 234.023C518.995 237.631 517.169 240.997 514.353 244.121C511.537 247.201 507.467 248.741 502.143 248.741C494.839 248.741 489.647 244.495 486.567 236.003C485.203 232.175 484.433 227.907 484.257 223.199C484.257 219.327 485.071 215.653 486.699 212.177C488.327 208.657 490.461 205.841 493.101 203.729C495.785 201.617 498.535 200.561 501.351 200.561C503.903 200.561 505.795 200.627 507.027 200.759C508.303 200.891 509.447 201.287 510.459 201.947ZM501.813 245.045C506.477 245.045 509.953 243.109 512.241 239.237C514.529 235.321 515.673 230.415 515.673 224.519C515.673 220.911 515.123 217.589 514.023 214.553C512.967 211.473 511.449 209.031 509.469 207.227C507.533 205.379 505.289 204.455 502.737 204.455C502.517 204.455 501.923 204.455 500.955 204.455C500.031 204.455 499.217 204.609 498.513 204.917C497.809 205.225 497.171 205.687 496.599 206.303C495.147 207.755 493.915 209.097 492.903 210.329C491.935 211.517 490.945 213.299 489.933 215.675C488.965 218.051 488.481 220.801 488.481 223.925C488.481 227.621 488.921 231.075 489.801 234.287C490.725 237.455 492.177 240.051 494.157 242.075C496.137 244.055 498.689 245.045 501.813 245.045Z" fill="#E9DCB7"/>
<path d="M508.981 425.862L63.8367 407.226L67.6324 401.019L517.482 418.294L508.981 425.862Z" fill="#792113"/>
<path d="M521.963 414.511L68.3232 394.068L72.1176 387.728L532.975 406.086L521.963 414.511Z" fill="#792113"/>
<path d="M539.591 401.28L75.0084 381.323L78.8235 376.349L548.469 393.422L539.591 401.28Z" fill="#792113"/>
<path d="M567.103 255.207L465.398 306.304L484.907 338.411L590.971 323.901L567.103 255.207Z" fill="#FD710C"/>
<path d="M537.983 283.378L473.391 312.549V307.34L537.983 274.002V283.378Z" fill="#FFAF32"/>
<path d="M450.395 329.807L465.266 306.271L485.509 338.396L450.395 329.807Z" fill="#FFAF32"/>
<path d="M617.006 316.226L589.909 324.17L556.898 309.452L545.453 273.834L565.17 254.972L591.05 245.532L614.735 268.488L617.006 316.226Z" fill="#792113"/>
<path d="M464.64 333.364L458.725 316.434L450.396 329.807L464.64 333.364Z" fill="#14222F"/>
<path d="M66.9107 260.905L99.1877 287.755L90.7543 295.636L66.9107 282.001L30.7214 293.508L18.9843 313.645L25.831 332.823H43.54L44.4523 349.311L15.2601 345.102L4.31299 306.933L25.831 275.289L66.9107 260.905Z" fill="#14222F"/>
<path d="M59.7524 40.9686L90.5622 67.131L87.7613 73.8981H81.2259L59.7524 61.5248L25.208 72.7372L14.0045 92.359L20.5399 111.046H35.7024L35.7024 125.062L10.2699 119.456L0 85.8184L20.5399 54.9842L59.7524 40.9686Z" fill="#14222F"/>
<path d="M59.7524 144.468L90.5622 171.374L81.2259 178.334L59.7524 165.609L25.208 177.14L14.0045 197.32L20.5399 216.538H38.2789L39.2125 232.874L10.2699 225.187L0 190.593L20.5399 158.882L59.7524 144.468Z" fill="#14222F"/>
<path d="M398.905 62.5063H599.436L584.238 48.6678C574.611 39.9199 560.097 39.6234 550.128 47.9759L519.365 24.6729C506.366 14.8377 487.723 19.2611 480.417 33.915L472.745 49.335L449.948 39.8705C441.445 36.3368 431.696 37.597 424.341 43.1819L398.905 62.531V62.5063Z" fill="#00A19E"/>
<path d="M310.294 347.155H58.0137L72.9987 325.762C79.805 316.013 92.8573 312.608 103.697 317.716L117.422 324.169C117.422 324.169 125.712 283.169 163.301 282.482C208.62 281.658 208.284 316.507 208.284 316.507L217.975 307.225C222.709 302.694 229.151 300.25 235.761 300.442C244.668 300.689 252.735 305.687 256.796 313.487L264.639 328.508L268.056 326.641C278.699 320.819 292.088 323.593 299.454 333.122L310.294 347.155Z" fill="#00A19E"/>
</svg>
