<svg width="651" height="308" viewBox="0 0 651 308" fill="none" xmlns="http://www.w3.org/2000/svg">
<path d="M4.21365 106.032L442.879 106.032L480.033 133L485.971 99.646L509.225 99.646L503.129 1.79143e-06L7.7251 2.98422e-05L-9.99741e-05 23.6672L4.21365 106.032Z" fill="#792113"/>
<path d="M546.139 163.675L515.254 170.497L491.902 195.457L485.916 236.115L490.68 273.573L517.484 298.626L548.08 308L582.236 299.754L611.647 276.291L619.682 247.06L612.671 203.944L587.701 173.622L546.139 163.675Z" fill="#FFAF32"/>
<path d="M494.504 212.26L483.09 205.66L468.377 207.567L456.615 225.752L460.187 244.909L475.852 251.582L494.834 246.724" fill="#FFAF32"/>
<path d="M613.313 211.188L624.249 204.348L638.531 205.988L650.258 224.01L647.128 243.281L632.073 250.27L613.619 245.741" fill="#FFAF32"/>
<path d="M488.408 226.754L470.836 220.093L468.081 225.26L488.464 233.213L488.408 226.754Z" fill="#14222F"/>
<path d="M619.683 225.666L622.699 231.901L638.792 225.492L638.757 221.405L619.683 225.666Z" fill="#14222F"/>
<path d="M570.754 212.154L582.809 210.404L593.465 212.433L595.478 217.537L586.693 216.562L580.127 216.096L569.86 217.956L570.754 212.154Z" fill="#14222F"/>
<circle cx="559.188" cy="242.628" r="4.62463" transform="rotate(-1.13018 559.188 242.628)" fill="#E64927"/>
<path d="M566.635 265.041L577.464 259.553L575.143 254.85L565.088 259.553L551.166 259.553L543.431 257.201L539.563 254.85L534.149 257.201L538.016 261.905L548.845 265.041L566.635 265.041Z" fill="#14222F"/>
<path d="M513.275 211.745L532.597 209.074L545.401 211.809L549.472 206.052L532.499 204.612L513.128 204.566L513.275 211.745Z" fill="#14222F"/>
<path d="M518.906 227.751L523.14 226.057L527.375 232.832L533.303 234.525L539.231 232.832L541.771 226.057H546.006L541.771 237.066L531.609 240.453L523.14 237.066L518.906 227.751Z" fill="#14222F"/>
<path d="M564.636 227.751L568.87 226.057L573.105 232.832L579.033 234.525L584.961 232.832L587.501 226.057H591.735L587.501 237.066L577.339 240.453L568.87 237.066L564.636 227.751Z" fill="#14222F"/>
<path d="M637.131 169.749L634.424 198.444L613.308 211.98L612.225 204.4L600.855 190.864L571.618 183.284L505.564 190.864L490.946 200.61V210.356L471.455 200.61V177.329L487.156 151.882H505.564L509.896 161.086L518.559 126.976L527.221 122.103L548.337 126.976L561.331 122.103L571.618 126.976L590.027 159.462L597.065 149.175H616.015L637.131 169.749Z" fill="white"/>
<path d="M618.723 164.876L616.016 151.881V149.174H596.524L590.027 159.461L594.358 169.748L570.536 175.163H541.84L507.73 170.831L510.437 161.086L505.023 151.881H487.156L480.659 170.831L496.36 185.45L534.802 181.118L570.536 179.494L594.358 184.367L608.977 181.118L618.723 164.876Z" fill="#EDDCB6"/>
<path d="M594.358 169.749L590.568 160.003L569.453 164.876L534.802 165.959L510.437 161.627L507.73 171.373L534.802 175.163H569.453L594.358 169.749Z" fill="#E64927"/>
<path d="M417.52 171C417.52 171 410.242 139.469 408.19 126.622L396.218 123.438L397.191 176.071" fill="#FFAF32"/>
<path d="M416.454 184.687C412.893 184.637 409.311 186.412 405.82 186.306C403.641 186.246 396.001 181.641 396.001 181.641L393.663 171.607C393.663 171.607 404.738 166.935 409.436 165.739L432.245 169.658L435.717 192.21C433.914 194.629 425.446 201.609 425.51 201.11L430.808 216.619L393.269 223.159L380.447 208.766L365.663 194.139L360.923 180.873L371.759 164.761L398.541 157.567" fill="#FFAF32"/>
<path d="M396.041 155.217C392.67 155.521 386.856 150.014 386.856 150.014C385.176 150.108 377.139 150.077 377.139 150.077L376.893 157.241C378.582 165.215 379.706 171.778 385.41 177.598C386.568 178.775 389.497 183.341 391.179 183.757C393.012 184.209 398.036 181.094 399.671 180.195C398.788 175.614 399.909 170.682 398.981 166.3C398.23 162.73 394.058 160.112 393.871 156.101" fill="#FFAF32"/>
<path d="M380.607 157.992L368.693 155.054L362.835 159.804C362.835 159.804 363.519 163.084 364.36 167.014C366.05 174.988 366.082 177.874 371.786 183.694C372.944 184.871 375.873 189.437 377.555 189.853C379.388 190.305 384.413 187.19 386.048 186.291C385.164 181.71 386.285 176.778 385.357 172.396C384.606 168.826 380.434 166.208 380.247 162.197" fill="#FFAF32"/>
<path d="M421.888 185.634C421.205 184.235 415.088 182.826 415.088 182.826L402.632 186.148L400.888 190.415L394.966 192.142L390.103 188.876L387.831 194.685L382.072 194.352L371.615 186.095L364.512 165.804L358.472 175.661L361.027 193.063L382.706 216.267L388.478 232.35L431.102 216.743L400.811 207.659L402.182 195.88L421.89 185.649L421.888 185.634Z" fill="#EB7C00"/>
<path d="M396.19 123.841L395.723 154.438L386.97 149.913L394.061 176.512L395.149 171.623L403.629 165.732L400.534 148.947L396.19 123.841Z" fill="#EB7C00"/>
<path d="M376.889 157.136L379.883 170.403L384.986 180.927L376.488 172.009L370.991 155.622L376.889 157.136Z" fill="#EB7C00"/>
</svg>
