<svg width="193" height="137" viewBox="0 0 193 137" fill="none" xmlns="http://www.w3.org/2000/svg">
<path d="M28.8657 30.5587V137H102.833V30.5587L67.6536 17.0281L28.8657 30.5587Z" fill="#EDDCB6"/>
<path d="M102.833 77.4648V137H184.017V77.4648H102.833Z" fill="#EDDCB6"/>
<path d="M35.1802 54.9141V39.5793H52.319V54.9141H35.1802Z" fill="#FFAF32"/>
<path d="M35.1802 83.7793V68.4446H52.319V83.7793H35.1802Z" fill="#FFAF32"/>
<path d="M35.1802 112.645V97.3101H52.319V112.645H35.1802Z" fill="#FFAF32"/>
<path d="M59.5356 54.9141V39.5793H76.6745V54.9141H59.5356Z" fill="#FFAF32"/>
<path d="M59.5356 83.7793V68.4446H76.6745V83.7793H59.5356Z" fill="#FFAF32"/>
<path d="M140.718 112.645V97.3101H157.857V112.645H140.718Z" fill="#FFAF32"/>
<path d="M59.5356 112.645V97.3101H76.6745V112.645H59.5356Z" fill="#FFAF32"/>
<path d="M84.793 137V113.547H108.246V137H84.793Z" fill="#792113"/>
<path d="M115.462 112.645V97.3101H132.601V112.645H115.462Z" fill="#FFAF32"/>
<path d="M67.6532 23.3423L6.3143 48.5995L0 33.2648L67.6532 8.00757L117.266 33.2648L111.853 48.5995L67.6532 23.3423Z" fill="#792113"/>
<path d="M192.135 80.1712H102.833V63.0323H192.135V80.1712Z" fill="#792113"/>
<path d="M154.708 25.6913C154.708 25.6913 163.171 14.3912 167.517 9.99592C166.739 10.8544 165.517 18.508 163.67 28.7857L184.982 37.3466L161.181 34.8645C161.181 34.8645 144.194 51.3454 141.93 53.7976L152.711 30.9061C152.711 30.9061 136.611 22.9812 130.773 20.8051C137.201 22.5009 148.348 24.2402 154.702 25.7077L154.708 25.6913Z" fill="#00A19E"/>
</svg>
