<svg width="344" height="151" viewBox="0 0 344 151" fill="none" xmlns="http://www.w3.org/2000/svg">
<path d="M83.8106 57.4495L338.217 57.4495L343.811 69.9492L340.76 113.45L49.8105 111.305L83.8106 57.4495Z" fill="#792113"/>
<path d="M62.7846 28.3483C69.8688 20.7853 77.8735 22.6159 80.9904 24.4765C84.1705 25.6085 86.455 31.3561 87.1998 34.0885C89.2884 44.4906 93.5345 67.3866 93.8101 75.7543C94.0856 84.1219 86.8998 91.2519 83.2725 93.7709C74.6281 102.999 55.5638 123.217 48.4624 130.257C39.5856 139.056 29.5165 131.535 29.2151 122.383L27.751 77.9299C27.6434 74.6613 27.9314 63.5265 30.4185 59.518C32.9055 55.5095 53.9293 37.8019 62.7846 28.3483Z" fill="#00A19E"/>
<path d="M70.4878 93.555C66.8308 101.41 57.3663 104.751 49.3482 101.018C41.3302 97.2853 37.7948 87.8916 41.4518 80.0367C45.1088 72.1819 54.5733 68.8404 62.5914 72.5734C70.6094 76.3064 74.1447 85.7002 70.4878 93.555Z" fill="#FD710C"/>
<path d="M66.6623 88.0902C66.2962 88.8765 65.3637 89.2179 64.5794 88.8528C63.7952 88.4876 63.4562 87.5542 63.8223 86.7679C64.1883 85.9816 65.1209 85.6402 65.9051 86.0053C66.6894 86.3704 67.0284 87.3038 66.6623 88.0902Z" fill="#C02E19"/>
<path d="M65.3829 82.291C65.0168 83.0773 64.0842 83.4188 63.3 83.0536C62.5157 82.6885 62.1768 81.7551 62.5428 80.9688C62.9089 80.1825 63.8414 79.841 64.6257 80.2062C65.4099 80.5713 65.749 81.5047 65.3829 82.291Z" fill="#C02E19"/>
<path d="M59.4744 85.4691C59.1084 86.2554 58.1758 86.5968 57.3916 86.2317C56.6073 85.8666 56.2683 84.9332 56.6344 84.1469C57.0005 83.3605 57.933 83.0191 58.7173 83.3843C59.5015 83.7494 59.8405 84.6828 59.4744 85.4691Z" fill="#C02E19"/>
<path d="M69.0508 44.3444L72.3842 50.8062L69.3105 62.8803L63.6802 67.4834L55.8107 67.7627L53.0761 63.3541C53.8996 60.7633 56.8085 52.9193 56.8085 52.9193L69.048 44.3495L69.0508 44.3444Z" fill="#2EE174"/>
<path d="M91.3265 76.6472C91.3265 76.6472 94.9732 65.0613 97.121 60.297C96.7505 61.2103 97.4045 67.9528 98.1399 77.0576L114.578 79.0457L97.6076 82.7847C97.6076 82.7847 89.0734 100.819 87.9863 103.438L90.9657 81.5264C90.9657 81.5264 78.262 78.7973 73.792 78.395C78.5767 78.2483 86.6378 76.9829 91.3256 76.6624L91.3265 76.6472Z" fill="#E9DCB7"/>
<path d="M69.051 44.3444L60.7742 55.9772L54.4142 69.4394L53.0731 75.5076L57.2721 76.2855L57.4326 70.8712L60.1876 62.6484L69.6891 58.7468L70.4862 57.2832L61.6784 59.1163L63.2614 55.6791L69.4053 45.9594L69.051 44.3444Z" fill="#1B6161"/>
<circle cx="75.1636" cy="35.2812" r="5.8751" transform="rotate(-16.0692 75.1636 35.2812)" fill="#E64927"/>
<path d="M78.4394 12.1744L73.0202 25.1992L72.1344 35.3896L76.0809 41.131L80.6142 38.2966L81.0092 34.3616L80.6901 25.2826L84.3029 16.5994L93.6686 9.31612L106.072 7.27181L109.815 12.3075L105.7 21.8996L99.1571 28.3698L87.0613 34.1468L88.1851 40.7013L101.991 32.9031L110.544 22.7971L113.344 11.2911L108.991 4.13834L92.449 5.08196L78.4394 12.1744Z" fill="#FFAF32"/>
</svg>
