<svg width="556" height="274" viewBox="0 0 556 274" fill="none" xmlns="http://www.w3.org/2000/svg">
<path d="M144.153 92.3207L546.454 92.3207L555.229 113.972L550.442 189.321L137.229 183.479L144.153 92.3207Z" fill="#792113"/>
<path d="M114.28 51.5988C127.174 37.8329 141.744 41.1648 147.418 44.5515C153.206 46.6119 157.364 57.0737 158.72 62.0471C162.522 80.9808 170.25 122.656 170.752 137.887C171.253 153.117 158.174 166.095 151.572 170.68C135.837 187.478 101.137 224.277 88.2106 237.091C72.0532 253.108 53.7256 239.418 53.1769 222.759L50.5121 141.847C50.3162 135.897 50.8405 115.63 55.3673 108.334C59.8942 101.037 98.1615 68.8062 114.28 51.5988Z" fill="#00A19E"/>
<path d="M128.301 170.287C121.645 184.585 104.418 190.667 89.8234 183.872C75.2291 177.077 68.7941 159.979 75.4505 145.681C82.1069 131.384 99.334 125.302 113.928 132.097C128.523 138.892 134.958 155.99 128.301 170.287Z" fill="#FD710C"/>
<path d="M121.338 160.34C120.672 161.771 118.975 162.393 117.547 161.728C116.12 161.064 115.503 159.365 116.169 157.933C116.835 156.502 118.533 155.881 119.96 156.545C121.388 157.21 122.005 158.909 121.338 160.34Z" fill="#C02E19"/>
<path d="M119.009 149.785C118.343 151.216 116.646 151.837 115.218 151.173C113.791 150.508 113.174 148.809 113.84 147.378C114.506 145.947 116.204 145.325 117.631 145.99C119.059 146.654 119.676 148.353 119.009 149.785Z" fill="#C02E19"/>
<path d="M108.255 155.569C107.589 157.001 105.891 157.622 104.464 156.957C103.036 156.293 102.419 154.594 103.086 153.163C103.752 151.731 105.449 151.11 106.877 151.775C108.304 152.439 108.921 154.138 108.255 155.569Z" fill="#C02E19"/>
<path d="M125.685 80.7149L131.753 92.4766L126.158 114.454L115.91 122.832L101.586 123.341L96.6084 115.316C98.1074 110.6 103.402 96.3229 103.402 96.3229L125.68 80.7242L125.685 80.7149Z" fill="#2EE174"/>
<path d="M166.232 125.606C166.232 125.606 172.869 105.015 176.779 96.547C176.104 98.1702 177.295 110.154 178.633 126.335L208.554 129.869L177.664 136.514C177.664 136.514 162.131 168.567 160.152 173.221L165.575 134.278C165.575 134.278 142.452 129.427 134.316 128.712C143.025 128.452 157.697 126.203 166.23 125.633L166.232 125.606Z" fill="#E9DCB7"/>
<path d="M125.686 80.7149L110.621 101.889L99.0444 126.393L96.6033 137.438L104.246 138.854L104.538 128.999L109.553 114.032L126.848 106.93L128.298 104.266L112.267 107.603L115.148 101.346L126.331 83.6545L125.686 80.7149Z" fill="#1B6161"/>
<circle cx="136.812" cy="64.218" r="10.6938" transform="rotate(-16.0692 136.812 64.218)" fill="#E64927"/>
<path d="M142.774 22.1596L132.91 45.867L131.298 64.4154L138.482 74.8659L146.733 69.7069L147.452 62.5444L146.871 46.0188L153.447 30.2139L170.494 16.9569L193.071 13.2359L199.884 22.4018L192.394 39.8613L180.484 51.6382L158.468 62.1534L160.513 74.0838L185.643 59.8897L201.211 41.4947L206.307 20.5518L198.383 7.5324L168.274 9.24996L142.774 22.1596Z" fill="#FFAF32"/>
</svg>
