<svg width="278" height="174" viewBox="0 0 278 174" fill="none" xmlns="http://www.w3.org/2000/svg">
<path d="M2.38168 59.7926L170.5 59.7926L191.5 75.0001L194.856 56.1914L208 56.1915L204.554 5.00548e-06L4.36641 1.48771e-05L-5.38996e-06 13.3462L2.38168 59.7926Z" fill="#792113"/>
<path d="M218.566 92.4808L201.121 96.3344L187.932 110.433L184.55 133.397L187.241 154.555L202.381 168.705L219.663 174L238.955 169.342L255.567 156.09L260.106 139.579L256.146 115.226L242.042 98.0993L218.566 92.4808Z" fill="#FFAF32"/>
<path d="M189.401 119.923L182.954 116.195L174.644 117.272L168 127.544L170.018 138.364L178.866 142.133L189.587 139.389" fill="#FFAF32"/>
<path d="M256.508 119.318L262.685 115.454L270.751 116.381L277.375 126.56L275.608 137.445L267.104 141.392L256.681 138.834" fill="#FFAF32"/>
<path d="M185.958 128.11L176.032 124.348L174.476 127.266L185.989 131.758L185.958 128.11Z" fill="#14222F"/>
<path d="M260.106 127.495L261.809 131.017L270.899 127.397L270.879 125.089L260.106 127.495Z" fill="#14222F"/>
<path d="M232.469 119.863L239.279 118.875L245.297 120.021L246.434 122.904L241.472 122.353L237.763 122.09L231.965 123.14L232.469 119.863Z" fill="#14222F"/>
<circle cx="225.937" cy="137.076" r="2.61213" transform="rotate(-1.13018 225.937 137.076)" fill="#C02E19"/>
<path d="M230.143 149.736L236.259 146.636L234.949 143.979L229.269 146.636L221.405 146.636L217.036 145.307L214.852 143.979L211.794 145.307L213.978 147.964L220.095 149.736L230.143 149.736Z" fill="#14222F"/>
<path d="M200.003 119.632L210.917 118.124L218.149 119.669L220.449 116.417L210.862 115.603L199.92 115.578L200.003 119.632Z" fill="#14222F"/>
<path d="M203.184 128.673L205.576 127.716L207.967 131.543L211.316 132.499L214.664 131.543L216.099 127.716H218.49L216.099 133.934L210.359 135.848L205.576 133.934L203.184 128.673Z" fill="#14222F"/>
<path d="M229.013 128.673L231.405 127.716L233.797 131.543L237.145 132.499L240.493 131.543L241.928 127.716H244.32L241.928 133.934L236.188 135.848L231.405 133.934L229.013 128.673Z" fill="#14222F"/>
<path d="M269.961 95.9116L268.432 112.12L256.505 119.765L255.894 115.484L249.472 107.838L232.958 103.557L195.649 107.838L187.392 113.343V118.848L176.382 113.343V100.193L185.251 85.8197H195.649L198.095 91.0186L202.988 71.7523L207.881 69L219.808 71.7523L227.147 69L232.958 71.7523L243.355 90.1011L247.331 84.2907H258.034L269.961 95.9116Z" fill="white"/>
<path d="M259.563 93.1591L258.034 85.8196V84.2905H247.025L243.355 90.101L245.802 95.9114L232.346 98.9696H216.138L196.871 96.5231L198.401 91.0184L195.342 85.8196H185.251L181.581 96.5231L190.449 104.78L212.162 102.334L232.346 101.416L245.802 104.168L254.059 102.334L259.563 93.1591Z" fill="#EDDCB6"/>
<path d="M245.802 95.9116L243.661 90.407L231.734 93.1593L212.162 93.7709L198.401 91.3244L196.872 96.8291L212.162 98.9698H231.734L245.802 95.9116Z" fill="#C02E19"/>
<path d="M145.918 96.6183C145.918 96.6183 141.807 78.8087 140.648 71.5522L133.886 69.7536L134.435 99.4825" fill="#FFAF32"/>
<path d="M145.316 104.349C143.304 104.321 141.281 105.324 139.31 105.264C138.079 105.229 133.763 102.629 133.763 102.629L132.443 96.9612C132.443 96.9612 138.698 94.322 141.351 93.6465L154.235 95.8606L156.196 108.598C155.178 109.965 150.395 113.907 150.431 113.626L153.423 122.385L132.22 126.079L124.978 117.95L116.627 109.688L113.95 102.195L120.07 93.0944L135.198 89.031" fill="#FFAF32"/>
<path d="M133.785 87.7037C131.882 87.8755 128.598 84.7648 128.598 84.7648C127.648 84.8176 123.109 84.8005 123.109 84.8005L122.97 88.8469C123.924 93.3508 124.559 97.0577 127.781 100.345C128.435 101.01 130.089 103.589 131.039 103.824C132.075 104.079 134.912 102.32 135.836 101.812C135.337 99.2242 135.97 96.4388 135.446 93.9636C135.022 91.9473 132.665 90.4686 132.56 88.2031" fill="#FFAF32"/>
<path d="M125.069 89.2709L118.339 87.6113L115.03 90.2946C115.03 90.2946 115.417 92.1472 115.892 94.3666C116.846 98.8705 116.864 100.501 120.086 103.788C120.74 104.453 122.395 107.032 123.345 107.267C124.38 107.522 127.218 105.763 128.142 105.255C127.643 102.667 128.276 99.882 127.751 97.4067C127.327 95.3904 124.971 93.9118 124.865 91.6463" fill="#FFAF32"/>
<path d="M148.385 104.884C147.999 104.094 144.544 103.298 144.544 103.298L137.509 105.174L136.524 107.584L133.179 108.56L130.432 106.715L129.149 109.996L125.895 109.808L119.989 105.144L115.977 93.6838L112.566 99.251L114.009 109.08L126.254 122.187L129.514 131.271L153.589 122.455L136.48 117.324L137.255 110.671L148.386 104.893L148.385 104.884Z" fill="#EB7C00"/>
<path d="M133.87 69.9817L133.606 87.2637L128.662 84.7079L132.668 99.7316L133.282 96.9704L138.072 93.6425L136.324 84.1622L133.87 69.9817Z" fill="#EB7C00"/>
<path d="M122.969 88.7874L124.659 96.2814L127.542 102.226L122.742 97.1882L119.637 87.9322L122.969 88.7874Z" fill="#EB7C00"/>
</svg>
