<svg width="99" height="72" viewBox="0 0 99 72" fill="none" xmlns="http://www.w3.org/2000/svg">
<path d="M14.8733 16.8446V71.6897H52.986V16.8446L34.8592 9.87274L14.8733 16.8446Z" fill="#EDDCB6"/>
<path d="M52.986 41.0136V71.6897H94.817V41.0136H52.986Z" fill="#EDDCB6"/>
<path d="M18.1267 29.3939V21.4925H26.9577V29.3939H18.1267Z" fill="#FFAF32"/>
<path d="M18.1267 44.2672V36.3658H26.9577V44.2672H18.1267Z" fill="#FFAF32"/>
<path d="M18.1267 59.1404V51.239H26.9577V59.1404H18.1267Z" fill="#FFAF32"/>
<path d="M30.676 29.3939V21.4925H39.507V29.3939H30.676Z" fill="#FFAF32"/>
<path d="M30.676 44.2672V36.3658H39.507V44.2672H30.676Z" fill="#FFAF32"/>
<path d="M72.507 59.1404V51.239H81.3379V59.1404H72.507Z" fill="#FFAF32"/>
<path d="M30.676 59.1404V51.239H39.507V59.1404H30.676Z" fill="#FFAF32"/>
<path d="M43.6902 71.6897V59.6052H55.7747V71.6897H43.6902Z" fill="#792113"/>
<path d="M59.493 59.1404V51.239H68.324V59.1404H59.493Z" fill="#FFAF32"/>
<path d="M34.8592 13.1263L3.25352 26.1404L0 18.239L34.8592 5.22491L60.4226 18.239L57.6338 26.1404L34.8592 13.1263Z" fill="#792113"/>
<path d="M99.0001 42.408H52.986V33.577H99.0001V42.408Z" fill="#792113"/>
<path d="M79.7149 13.5573C79.7149 13.5573 84.0759 7.59424 86.3148 5.27485C85.9139 5.72789 85.2844 9.76665 84.3327 15.1902L95.3141 19.7078L83.0502 18.398C83.0502 18.398 74.2975 27.095 73.1311 28.389L78.686 16.3092C78.686 16.3092 70.3904 12.1272 67.3822 10.9788C70.6946 11.8737 76.4382 12.7916 79.7119 13.5659L79.7149 13.5573Z" fill="#00A19E"/>
</svg>
