<svg width="24" height="24" viewBox="0 0 24 24" fill="none" xmlns="http://www.w3.org/2000/svg">
<path fill-rule="evenodd" clip-rule="evenodd" d="M0.713411 3.57388C0 4.97403 0 6.80694 0 10.4727V13.5273C0 17.1931 0 19.026 0.713411 20.4261C1.34095 21.6577 2.34227 22.6591 3.57388 23.2865C4.97403 24 6.80694 24 10.4727 24H13.5273C17.1931 24 19.026 24 20.4261 23.2865C21.6577 22.6591 22.6591 21.6577 23.2865 20.4261C24 19.026 24 17.1931 24 13.5273V10.4727C24 6.80694 24 4.97403 23.2865 3.57388C22.6591 2.34227 21.6577 1.34095 20.4261 0.713411C19.026 0 17.1931 0 13.5273 0H10.4727C6.80694 0 4.97403 0 3.57388 0.713411C2.34227 1.34095 1.34095 2.34227 0.713411 3.57388ZM13.5273 2.18182H10.4727C8.60383 2.18182 7.33336 2.18352 6.35136 2.26375C5.39481 2.3419 4.90564 2.48355 4.56441 2.65742C3.74333 3.07579 3.07579 3.74333 2.65742 4.56441C2.48355 4.90564 2.3419 5.39481 2.26375 6.35136C2.18352 7.33336 2.18182 8.60383 2.18182 10.4727V13.5273C2.18182 15.3962 2.18352 16.6666 2.26375 17.6486C2.3419 18.6052 2.48355 19.0944 2.65742 19.4356C3.07579 20.2567 3.74333 20.9242 4.56441 21.3425C4.90564 21.5164 5.39481 21.6581 6.35136 21.7363C7.33336 21.8164 8.60383 21.8182 10.4727 21.8182H13.5273C15.3962 21.8182 16.6666 21.8164 17.6486 21.7363C18.6052 21.6581 19.0944 21.5164 19.4356 21.3425C20.2567 20.9242 20.9242 20.2567 21.3425 19.4356C21.5164 19.0944 21.6581 18.6052 21.7363 17.6486C21.8164 16.6666 21.8182 15.3962 21.8182 13.5273V10.4727C21.8182 8.60383 21.8164 7.33336 21.7363 6.35136C21.6581 5.39481 21.5164 4.90564 21.3425 4.56441C20.9242 3.74333 20.2567 3.07579 19.4356 2.65742C19.0944 2.48355 18.6052 2.3419 17.6486 2.26375C16.6666 2.18352 15.3962 2.18182 13.5273 2.18182Z" fill="#14222F"/>
<path fill-rule="evenodd" clip-rule="evenodd" d="M12 18.5295C15.6061 18.5295 18.5294 15.6062 18.5294 12.0001C18.5294 8.39402 15.6061 5.4707 12 5.4707C8.3939 5.4707 5.47058 8.39402 5.47058 12.0001C5.47058 15.6062 8.3939 18.5295 12 18.5295ZM12 16.3531C14.404 16.3531 16.3529 14.4041 16.3529 12.0001C16.3529 9.59605 14.404 7.64717 12 7.64717C9.59593 7.64717 7.64705 9.59605 7.64705 12.0001C7.64705 14.4041 9.59593 16.3531 12 16.3531Z" fill="#14222F"/>
<path d="M18.5294 4.41187C17.9446 4.41187 17.4706 4.88592 17.4706 5.47069C17.4706 6.05546 17.9446 6.52951 18.5294 6.52951C19.1142 6.52951 19.5882 6.05546 19.5882 5.47069C19.5882 4.88592 19.1142 4.41187 18.5294 4.41187Z" fill="#14222F"/>
</svg>
