<svg width="20" height="24" viewBox="0 0 20 24" fill="none" xmlns="http://www.w3.org/2000/svg">
<path d="M10.5042 0.0200094C11.7606 7.60314e-08 13.0078 0.0104049 14.2543 0C14.2958 1.62556 14.9282 3.08864 15.9344 4.17235L15.9329 4.17075C17.0159 5.18802 18.425 5.84753 19.9785 5.95958L20 5.96118V9.99186C18.5325 9.95344 17.1525 9.60048 15.9083 8.9938L15.9713 9.02101C15.3695 8.71927 14.8607 8.40952 14.3771 8.06376L14.417 8.09098C14.4078 11.0115 14.4262 13.9321 14.3978 16.8423C14.3188 18.3254 13.846 19.678 13.0877 20.8073L13.103 20.7825C11.8351 22.6762 9.78118 23.9192 7.4456 23.9928H7.43485C7.34045 23.9976 7.22916 24 7.1171 24C5.78928 24 4.54819 23.6142 3.49054 22.9443L3.52124 22.9627C1.59629 21.755 0.268474 19.6884 0.0228659 17.2849L0.0197958 17.2521C0.000607728 16.7518 -0.00860263 16.2516 0.0105855 15.7618C0.386673 11.9368 3.45984 8.97779 7.19539 8.97779C7.61522 8.97779 8.02661 9.01541 8.42649 9.08664L8.38351 9.08024C8.4027 10.5601 8.34514 12.0408 8.34514 13.5207C8.02047 13.3983 7.64592 13.327 7.25525 13.327C5.82152 13.327 4.60192 14.2827 4.15061 15.6169L4.14371 15.6409C4.04163 15.9827 3.98253 16.3756 3.98253 16.7822C3.98253 16.9471 3.9925 17.1104 4.01092 17.2705L4.00939 17.2513C4.26421 18.8888 5.61045 20.1246 7.23376 20.1246C7.28058 20.1246 7.32663 20.1238 7.37268 20.1214H7.36578C8.48866 20.0862 9.46342 19.4563 10.0145 18.5254L10.0222 18.511C10.2271 18.2133 10.3676 17.8531 10.4144 17.4617L10.4152 17.4505C10.5111 15.6601 10.4727 13.8801 10.4819 12.0896C10.4911 8.05896 10.4727 4.03788 10.5011 0.0176083L10.5042 0.0200094Z" fill="#14222F"/>
</svg>
