<svg width="610" height="268" viewBox="0 0 610 268" fill="none" xmlns="http://www.w3.org/2000/svg">
<path d="M93.153 66.9782L495.454 66.9782L504.229 88.6293L499.442 163.978L86.2285 158.136L93.153 66.9782Z" fill="#1B6161"/>
<path d="M529.415 194.546C543.264 190.835 554.619 175.605 554.619 175.605C558.184 171.874 558.33 164.063 562.275 162.038C565.852 160.202 568.091 157.926 566.256 151.022C564.829 145.654 558.403 146.082 557.188 143.716C555.582 140.588 543.609 128.091 537.809 124.091C529.572 120.345 514.819 122.955 503.515 126.08C462.225 140.85 481.422 207.404 529.415 194.546Z" fill="#2EE174"/>
<path d="M484.206 156.48C482.246 141.271 496.061 131.675 503.213 128.778C528.123 123.965 537.243 146.087 538.689 157.75C538.908 170.043 534.716 194.282 516.192 192.893C493.037 191.157 486.656 175.492 484.206 156.48Z" fill="#E9DCB7"/>
<path d="M531.931 143.941L511.205 159.233L533.996 176.442L537.516 159.35L531.931 143.941Z" fill="#2AA16E"/>
<path d="M515.124 129.974L502.054 131.7L509.315 155.552L529.636 139.47L515.124 129.974Z" fill="#2AA16E"/>
<path d="M504.344 185.352L509.13 162.957L531.516 179.377L518.416 190.754L504.344 185.352Z" fill="#2AA16E"/>
<path d="M498.784 135.04L507.51 159.802L486.253 150.113L498.784 135.04Z" fill="#2AA16E"/>
<path d="M489.378 170.439L488.413 154.32L505.946 161.934L500.358 183.411L489.378 170.439Z" fill="#2AA16E"/>
<path d="M453.46 196.936C469.277 213.85 489.154 208.186 493.776 206.948C500.431 188.721 504.568 149.51 467.877 138.482C461.971 140.115 452.672 148.049 449.206 153.715C446.681 157.843 445.893 165.385 443.526 166.6C440 168.411 435.394 170.825 435.828 176.201C436.389 183.154 443.432 182.192 444.114 184.575C446.2 191.858 453.46 196.936 453.46 196.936Z" fill="#2EE174"/>
<path d="M458.77 163.535C459.096 161.895 460.81 160.853 462.599 161.208C464.389 161.563 465.575 163.181 465.25 164.821C464.924 166.461 463.21 167.503 461.421 167.148C459.631 166.793 458.445 165.175 458.77 163.535Z" fill="#2AA16E"/>
<path d="M456.55 178.326C456.905 176.537 458.523 175.35 460.163 175.675C461.803 176.001 462.845 177.715 462.49 179.504C462.135 181.294 460.518 182.48 458.877 182.155C457.237 181.83 456.195 180.115 456.55 178.326Z" fill="#2AA16E"/>
<path d="M467.922 171.967C468.248 170.327 469.841 169.261 471.481 169.587C473.122 169.912 474.188 171.506 473.862 173.146C473.537 174.786 471.943 175.852 470.303 175.527C468.663 175.201 467.597 173.608 467.922 171.967Z" fill="#2AA16E"/>
<path d="M533.582 233.895C529.233 222.836 525.326 203.576 525.326 203.576C525.477 204.495 540.485 211.743 552.332 219.285C556.563 221.979 561.868 233.329 555.059 239.484C550.249 243.831 538.802 247.172 533.582 233.895Z" fill="#43BFBA"/>
<path d="M504.119 229.968C505.219 222.978 509.003 211.909 509.003 211.909C508.804 212.426 514.283 220.674 518.061 228.119C519.411 230.778 518.712 238.206 513.394 239.314C509.638 240.096 502.799 238.36 504.119 229.968Z" fill="#43BFBA"/>
<path d="M61.2011 19.1309C59.7436 22.7112 59.0877 31.4362 59.0508 34.6166L138.667 58.7342C139.021 57.8003 139.252 56.9976 139.506 56.264C140.029 54.8855 141.131 53.1456 147.338 48.0704C152.263 44.5865 161.715 38.6886 168.243 32.8423C179.471 22.7877 184.85 17.3586 185.796 15.118C186.788 12.7702 187.825 9.38281 186.928 5.90998C186.227 3.1952 185.291 1.1488 183.808 0.603893C182.484 0.117093 176.662 -1.44421 164.568 3.72364C159.762 5.77725 154.753 8.5614 150.471 13.4579C143.147 21.8328 136.216 31.5822 127.891 32.0942C123.828 32.3441 120.204 31.6403 118.823 29.712C118.259 28.9246 118.005 28.1834 118.321 27.45C120.809 21.6698 126.4 13.3322 125.975 9.67752C125.768 7.90028 125.305 5.94274 123.869 4.88539C122.609 3.95685 116.992 2.16193 111.985 5.12246C103.495 10.1422 100.038 12.5626 95.2866 11.5851C88.5381 10.1968 80.3685 8.01514 74.9919 10.0251C68.5064 12.4497 62.9548 14.8233 61.2011 19.1309Z" fill="#E9DCB7"/>
<path d="M42.1819 23.2249L142.715 56.2896L142.222 65.5075L131.661 70.0422L128.5 105.11L102.902 161.133L79.2091 176.614L23.2812 157.937L11.2347 129.966L25.3925 64.6629L45.8161 41.8311L38.9689 31.8993L42.1819 23.2249Z" fill="#E64927"/>
<path d="M11.235 129.966L44.572 146.894L82.2915 153.328L128.501 105.11L102.902 161.134L79.2094 176.614L23.2815 157.937L11.235 129.966Z" fill="#C02E19"/>
<path d="M142.222 65.5078L72.0332 42.4248L131.661 70.0425L142.222 65.5078Z" fill="#C02E19"/>
<path d="M42.908 63.1224C42.908 63.1224 52.897 49.464 58.0253 44.1514C57.1071 45.1891 55.6651 54.4399 53.4852 66.8627L78.6383 77.2103L50.5475 74.2102C50.5475 74.2102 30.4993 94.1308 27.8276 97.0947L40.5513 69.4257C40.5513 69.4257 21.5501 59.8468 14.6597 57.2165C22.2469 59.2662 35.4027 61.3686 42.9011 63.1423L42.908 63.1224Z" fill="#FFAF32"/>
</svg>
