<svg width="335" height="152" viewBox="0 0 335 152" fill="none" xmlns="http://www.w3.org/2000/svg">
<path d="M52.6853 37.7786L279.822 37.7786L284.776 50.0551L282.073 92.7786L48.7758 89.4662L52.6853 37.7786Z" fill="#1B6161"/>
<path d="M288.938 109.885C296.761 107.79 303.175 99.1871 303.175 99.1871C305.188 97.0799 305.271 92.6679 307.499 91.5241C309.519 90.4869 310.784 89.2015 309.747 85.3019C308.942 82.27 305.312 82.5116 304.626 81.1749C303.719 79.4083 296.956 72.3498 293.68 70.0904C289.027 67.9744 280.695 69.4486 274.31 71.2138C250.987 79.5562 261.831 117.148 288.938 109.885Z" fill="#2EE174"/>
<path d="M263.403 88.3847C262.296 79.7939 270.099 74.374 274.139 72.7378C288.209 70.0191 293.36 82.5146 294.177 89.1021C294.301 96.0456 291.932 109.736 281.47 108.952C268.391 107.971 264.787 99.1231 263.403 88.3847Z" fill="#E9DCB7"/>
<path d="M290.36 81.302L278.653 89.9397L291.526 99.6596L293.514 90.0054L290.36 81.302Z" fill="#2AA16E"/>
<path d="M280.867 73.413L273.484 74.3877L277.586 87.8602L289.064 78.7769L280.867 73.413Z" fill="#2AA16E"/>
<path d="M274.778 104.692L277.481 92.0431L290.125 101.317L282.726 107.744L274.778 104.692Z" fill="#2AA16E"/>
<path d="M271.638 76.2743L276.566 90.2607L264.56 84.788L271.638 76.2743Z" fill="#2AA16E"/>
<path d="M266.325 96.2691L265.78 87.1646L275.683 91.4649L272.526 103.596L266.325 96.2691Z" fill="#2AA16E"/>
<path d="M246.037 111.235C254.97 120.789 266.198 117.59 268.808 116.89C272.567 106.595 274.904 84.448 254.18 78.2188C250.844 79.1414 245.591 83.6224 243.634 86.8229C242.208 89.1545 241.763 93.4146 240.426 94.1009C238.434 95.1236 235.833 96.4872 236.078 99.5235C236.395 103.451 240.372 102.908 240.758 104.254C241.936 108.367 246.037 111.235 246.037 111.235Z" fill="#2EE174"/>
<path d="M249.036 92.3696C249.22 91.4432 250.188 90.8547 251.199 91.0552C252.209 91.2557 252.88 92.1693 252.696 93.0957C252.512 94.0222 251.544 94.6107 250.533 94.4101C249.522 94.2096 248.852 93.2961 249.036 92.3696Z" fill="#2AA16E"/>
<path d="M247.782 100.724C247.982 99.7132 248.896 99.0429 249.822 99.2267C250.749 99.4105 251.337 100.379 251.137 101.389C250.936 102.4 250.023 103.07 249.096 102.887C248.17 102.703 247.581 101.735 247.782 100.724Z" fill="#2AA16E"/>
<path d="M254.205 97.1325C254.389 96.206 255.289 95.604 256.216 95.7878C257.142 95.9716 257.744 96.8716 257.56 97.798C257.376 98.7245 256.476 99.3265 255.55 99.1427C254.623 98.9589 254.021 98.0589 254.205 97.1325Z" fill="#2AA16E"/>
<path d="M291.292 132.111C288.836 125.864 286.629 114.986 286.629 114.986C286.714 115.505 295.191 119.599 301.882 123.859C304.273 125.38 307.269 131.791 303.423 135.267C300.706 137.723 294.24 139.61 291.292 132.111Z" fill="#43BFBA"/>
<path d="M274.65 129.893C275.271 125.944 277.409 119.692 277.409 119.692C277.296 119.985 280.391 124.643 282.525 128.848C283.288 130.35 282.893 134.546 279.889 135.171C277.767 135.613 273.904 134.633 274.65 129.893Z" fill="#43BFBA"/>
<path d="M34.5682 10.8057C33.745 12.8279 33.3745 17.7561 33.3536 19.5525L78.3235 33.1748C78.523 32.6473 78.6534 32.1939 78.797 31.7796C79.0926 31.001 79.7152 30.0182 83.2206 27.1516C86.0026 25.1838 91.3412 21.8525 95.0288 18.5503C101.371 12.8712 104.409 9.80464 104.943 8.5391C105.503 7.213 106.089 5.29969 105.582 3.33814C105.186 1.80475 104.658 0.648877 103.82 0.341096C103.072 0.0661374 99.7839 -0.815732 92.9529 2.10322C90.2384 3.26316 87.4089 4.83574 84.9903 7.60144C80.8535 12.3318 76.9387 17.8386 72.2369 18.1278C69.942 18.2689 67.8946 17.8714 67.1147 16.7822C66.7962 16.3375 66.653 15.9188 66.8313 15.5046C68.2368 12.2398 71.3944 7.5304 71.1544 5.46615C71.0378 4.46231 70.7759 3.35664 69.9651 2.75941C69.253 2.23495 66.0806 1.22112 63.2524 2.89332C58.457 5.72863 56.5045 7.09575 53.8207 6.54364C50.009 5.75947 45.3945 4.52719 42.3577 5.6625C38.6944 7.03197 35.5587 8.37265 34.5682 10.8057Z" fill="#E9DCB7"/>
<path d="M23.8258 13.1181L80.6101 31.794L80.3313 37.0006L74.3661 39.5619L72.5811 59.3692L58.1222 91.013L44.7398 99.7569L13.1501 89.2075L6.34588 73.4085L14.3426 36.5235L25.8785 23.6275L22.011 18.0177L23.8258 13.1181Z" fill="#E64927"/>
<path d="M6.34596 73.4086L25.1757 82.9701L46.4808 86.6041L72.5812 59.3694L58.1223 91.0131L44.7399 99.757L13.1502 89.2077L6.34596 73.4086Z" fill="#C02E19"/>
<path d="M80.3313 37.0007L40.6866 23.9627L74.3661 39.562L80.3313 37.0007Z" fill="#C02E19"/>
<path d="M24.2357 35.6534C24.2357 35.6534 29.8778 27.9387 32.7744 24.938C32.2558 25.5241 31.4413 30.7493 30.21 37.766L44.4172 43.6107L28.5508 41.9161C28.5508 41.9161 17.2269 53.1679 15.7179 54.842L22.9046 39.2137C22.9046 39.2137 12.1722 33.8032 8.28021 32.3176C12.5657 33.4753 19.9965 34.6628 24.2318 35.6646L24.2357 35.6534Z" fill="#FFAF32"/>
</svg>
