<svg width="124" height="124" viewBox="0 0 124 124" fill="none" xmlns="http://www.w3.org/2000/svg">
<circle cx="62" cy="62" r="62" fill="#00A49F"/>
<path d="M89.2291 69.9576L74.09 74.8762L71.4936 69.0785L84.5286 63.5371L89.2291 69.9576Z" fill="#EA7C0B"/>
<path d="M85.5265 64.9014L73.1183 69.653" stroke="#14222F" stroke-width="2" stroke-miterlimit="10"/>
<path d="M87.9871 68.1465L74.6905 73.238" stroke="#14222F" stroke-width="2" stroke-miterlimit="10"/>
<path d="M81.431 64.8545L85.7092 71.1006" stroke="#14222F" stroke-width="2" stroke-miterlimit="10"/>
<path d="M75.1728 67.5151L79.0653 73.2602" stroke="#14222F" stroke-width="2" stroke-miterlimit="10"/>
<path d="M33.5807 58.3032L36.3277 55.7875L36.8932 52.1597L35.4101 48.4513L30.1645 46L26.367 48.4513L24.8956 52.2652L24.9044 55.8007L28.6844 58.5875L29.5801 59.0461L33.5807 58.3032Z" fill="#C02E19"/>
<path d="M42.2338 58.708L25.7212 66.56L26.0061 68.1365L27.9129 68.6889L29.2119 74.6552L34.8126 83.7379L39.2077 85.8903L48.3867 81.4757L49.8464 76.4032L46.008 65.4772L42.0146 61.9827L42.9731 60.1307L42.2338 58.708Z" fill="#C02E19"/>
<path d="M49.8464 76.4033L44.4986 80.034L38.1747 81.9549L29.2119 74.6553L34.8126 83.738L39.2077 85.8904L48.3867 81.4758L49.8464 76.4033Z" fill="#901F18"/>
<path d="M26.0062 68.1366L37.5319 62.6553L27.913 68.6889L26.0062 68.1366Z" fill="#901F18"/>
<path d="M51.4548 89.1179L97.2286 93.9999L76.0915 86.9845L91.0523 86.1919L67.9835 78.8791L76.9696 78.4527L58.4202 71.9897L51.4548 89.1179Z" fill="white"/>
<path d="M68.523 47.6291L95.5121 52.8262L91.9293 49.3712L107.172 50.8262L88.4956 43.6834L96.5495 43.3009L79.752 36.5229L68.523 47.6291Z" fill="white"/>
<path d="M46.1131 68.3883C47.1812 68.9026 47.9513 69.8697 48.6541 70.8264C49.3569 71.7832 50.0568 72.7869 51.0548 73.4271C52.8593 74.5847 55.4923 74.189 56.879 72.5495C57.9193 71.3187 58.4906 69.3964 60.0731 69.099C61.1295 68.8997 62.1289 69.5649 63.0392 70.1393C63.9481 70.7121 65.0921 71.2337 66.0565 70.7561C67.3599 70.1099 67.4753 68.047 68.8108 67.4741C69.5633 67.1503 70.4414 67.4389 71.134 67.8755C71.8252 68.3136 72.4242 68.8997 73.1621 69.2528C73.8912 69.603 74.727 69.6719 75.5146 69.5019L76.1239 77.6762L73.3009 86.5465L61.3983 90.8161L50.8005 89.1238L44.5395 80.5846L44.0105 68.1627C44.69 67.9854 45.4702 68.0792 46.1131 68.3883Z" fill="#E64927"/>
<path d="M43.296 55.3993L71.9611 53.7803L76.0173 54.674L75.4269 56.7956L79.7184 56.3458L83.0557 60.989L81.4572 64.293L75.3437 67.1971L75.5146 69.5018C74.727 69.6718 73.8913 69.6029 73.1621 69.2527C72.4243 68.8996 71.8252 68.3135 71.1341 67.8754C70.4415 67.4388 69.5633 67.1502 68.8108 67.474C67.4753 68.0469 67.3599 70.1099 66.0565 70.756C65.0922 71.2337 63.9481 70.7121 63.0392 70.1392C62.1289 69.5648 61.1295 68.8996 60.0731 69.0989C58.4906 69.3963 57.9193 71.3186 56.879 72.5494C55.4923 74.189 52.8593 74.5846 51.0548 73.4271C50.0568 72.7868 49.3569 71.7831 48.6541 70.8263C47.9513 69.8696 47.1812 68.9025 46.1131 68.3883C45.4702 68.0791 44.69 67.9853 44.0105 68.1626L43.6423 59.4916L42.9643 56.7561L43.296 55.3993ZM79.2318 63.5443L80.7777 61.1956L80.1231 58.778L77.6333 57.7553L75.9164 59.6015L75.6607 64.9524L79.2318 63.5443Z" fill="#FF6E5F"/>
<path d="M44.6112 56.6298L47.1711 57.2335L50.9628 57.3595L58.3797 57.6056L70.4255 57.6452L70.5935 57.5675L73.8943 56.0306L72.2183 54.9551L72.0445 54.8438L65.9149 55.21L63.992 55.3375L60.2105 55.5895L51.9652 56.139L44.6112 56.6298Z" fill="#E64927"/>
<path d="M50.9628 57.3598L58.3796 57.6074L70.4254 57.647L70.5935 57.5693C70.5774 57.4067 70.5701 57.2411 70.6052 57.0609C70.7294 56.4265 71.4775 55.9854 71.8968 55.562C72.0561 55.4023 72.1613 55.1898 72.2183 54.9554C72.4316 54.0675 71.9407 52.8323 71.0391 52.6668C70.3173 52.5334 69.5327 52.7649 68.7992 53.0946C68.2322 53.3496 67.6945 53.6631 67.2372 53.9122C66.1983 54.4792 65.1141 54.9671 63.992 55.3393C63.6018 55.4682 63.2073 55.584 62.8084 55.6821C62.1962 55.8345 61.489 56.0748 60.8694 55.8712C60.6459 55.7979 60.4267 55.6997 60.2105 55.5913C59.8057 55.3891 59.4083 55.1532 59.0006 54.9833C58.0085 54.5701 56.8819 54.4558 55.8109 54.6199C54.5996 54.806 53.4511 55.3774 52.3786 55.9459C52.2778 55.9986 52.1303 56.0646 51.9651 56.1408C51.5443 56.3356 51.0168 56.5979 50.9204 56.8953C50.8649 57.0668 50.8897 57.2221 50.9628 57.3598Z" fill="#14222F"/>
<path d="M75.5365 69.7949L70.855 81.2234L59.7954 86.9186L51.1439 84.3736L44.5395 80.5846L50.7991 89.1238L61.3983 90.8161L73.2995 86.5465L76.1239 77.6762L75.5365 69.7949Z" fill="#C02E19"/>
<path d="M56.4406 84.2017L59.7151 88.4068L57.0996 91.006L54.5265 92.8419L48.9025 93.6771L39.706 91.0119" fill="#078C63"/>
<path d="M42.5275 78.5812C47.2354 80.2721 51.8775 82.1475 56.4392 84.2017L54.1335 88.6427L45.989 92.1372L39.7045 91.0119L36.2664 83.3592C36.2898 82.5094 38.2682 77.7856 38.2682 77.7856L42.526 78.5827L42.5275 78.5812Z" fill="white"/>
<path d="M49.7704 81.3506L54.3175 84.3982L52.6269 87.541L49.6184 88.5799C48.9448 87.941 48.8119 87.8165 48.1383 87.1791L49.7718 81.3521L49.7704 81.3506Z" fill="#00CF70"/>
<path d="M47.4281 80.3545C47.4281 80.3545 47.6034 88.9962 47.5596 89.0739L45.5681 90.1537C45.5681 90.1537 42.5318 90.0585 42.0993 90.1669L40.2947 86.9991L47.4296 80.356L47.4281 80.3545Z" fill="#00CF70"/>
<path d="M46.043 79.815L40.7536 84.8772C40.4219 85.1527 38.48 84.6179 38.48 84.6179C38.0899 83.6846 37.7129 81.3212 37.7129 81.3212L39.9981 77.6128L46.0415 79.815H46.043Z" fill="#00CF70"/>
<path d="M88.9984 63.732C89.219 63.987 89.4615 64.2199 89.7392 64.4192C90.515 64.9716 91.6226 65.1738 92.416 64.6463C93.1437 64.1613 93.4213 63.165 93.2182 62.3123C92.378 58.7885 87.4539 58.6244 85.0956 60.4954C85.2096 60.406 86.5509 61.2603 86.7204 61.3628C87.3239 61.7291 87.8587 62.1115 88.2444 62.7005C88.4782 63.058 88.7207 63.4112 88.9998 63.7335L88.9984 63.732Z" fill="#14222F"/>
<path d="M83.3363 54.7635C84.2963 53.9679 86.8519 52.743 88.0164 53.839C89.0012 54.7665 88.5278 56.6082 87.2084 56.8338C85.8334 57.0683 85.6113 56.1657 84.7653 55.439C84.4088 55.1328 83.7805 54.6932 83.3363 54.765V54.7635Z" fill="#14222F"/>
<path d="M76.5034 83.1597V88.2237L73.5318 90.1813L68.6696 89.4832L73.3299 88.4939L74.9614 87.4233L76.5034 83.1597Z" fill="#C02E19"/>
<path d="M60.4413 42.2317C59.4141 47.1635 67.8932 47.5313 67.8932 47.5313L78.7102 48.1701L90.6274 49.0976C90.6274 49.0976 90.6348 49.0932 90.6377 49.0902C90.7677 48.9935 92.1558 47.9166 92.2917 46.0192C92.3677 44.9877 92.0725 43.7115 91.0044 42.2199C90.3235 41.269 89.2452 40.4265 87.955 39.7848C87.3296 39.4712 86.6546 39.206 85.9474 39.0009C84.1165 38.4617 82.0884 38.3093 80.2196 38.7298C78.4355 37.1299 75.2224 37.8214 73.5479 36.5408L71.552 35.6661C71.552 35.6661 62.7777 31.0288 60.4457 42.2317H60.4413Z" fill="#F8AC35"/>
<path d="M68.9466 42.7209C70.1038 44.211 73.7962 44.066 73.8108 44.0645C73.8386 43.9766 73.8663 43.8916 73.8956 43.8066C74.1615 43.0228 74.5107 42.3546 74.9242 41.7847L74.9271 41.7803C75.0207 41.6513 75.1171 41.5283 75.2179 41.4096C75.4532 41.1283 75.7074 40.8719 75.9748 40.6433C75.9748 40.6433 75.9758 40.6423 75.9777 40.6404L75.9836 40.636C77.2402 39.5547 78.7934 39.0287 80.2954 38.8045C83.0556 38.3898 85.6462 38.9979 85.9092 39.0609C85.9238 39.0653 85.9311 39.0667 85.9311 39.0667L85.9458 39.0037L85.9516 38.97L86.9101 34.2814V34.2741C86.9101 34.2741 86.9116 34.2726 86.9101 34.2682V34.2638C86.8663 34.0939 86.3432 32.1144 84.7871 31.7261C83.1622 31.3188 82.7926 31.8375 81.8282 32.7225C81.8282 32.7225 81.7639 32.74 81.6602 32.7547C81.5988 32.7635 81.5214 32.7723 81.4381 32.7767C80.8711 32.8089 79.9141 32.6712 80.1756 31.2836C80.2297 30.9921 80.2005 30.7606 80.1011 30.5789C80.0777 30.5349 80.05 30.4939 80.0193 30.4573C78.9687 29.1591 73.7144 31.0375 73.7144 31.0375L72.3482 33.9561L71.546 35.6719L70.2324 38.4821C70.2324 38.4821 70.2324 38.4836 70.2339 38.4836L69.5018 40.0455C69.5018 40.0455 69.4463 40.1466 69.3674 40.3122L69.347 40.3561C69.2169 40.6316 69.0299 41.0609 68.9115 41.4872V41.4902V41.4946C68.78 41.9737 68.7333 42.4557 68.9437 42.7239L68.9466 42.7209Z" fill="#F8AC35"/>
<path d="M70.2354 38.478C70.2354 38.478 71.945 40.4795 76.2174 40.3784L73.0029 43.8699C73.0029 43.8699 69.3251 44.0165 68.8824 41.3337L70.234 38.478H70.2354Z" fill="#B73826"/>
<path d="M76.3081 47.9839L78.7088 48.1714L90.626 49.0989C90.626 49.0989 90.6333 49.0945 90.6362 49.0916C90.7663 48.9949 92.1544 47.918 92.2902 46.0205C92.3662 44.989 92.0711 43.7129 91.003 42.2213C90.3221 41.2704 89.2437 40.4279 87.9535 39.7861L87.3325 43.5282L84.7024 46.4733L76.3081 47.9839Z" fill="#EA7C0B"/>
<path d="M68.8839 41.3332L71.5476 35.6658C71.5476 35.6658 65.6796 31.9237 62.6681 39.5559C61.093 43.5486 64.5004 46.2475 67.3599 46.4965C70.5993 46.7793 73.0044 43.8695 73.0044 43.8695C73.0044 43.8695 69.1615 42.9478 68.8839 41.3332Z" fill="#EA7C0B"/>
<path d="M86.9204 34.4134L85.9458 39.0009C85.7033 38.9218 83.3464 38.2742 80.221 38.7328C79.3706 38.8574 78.4618 39.0683 77.5193 39.3995C77.5193 39.3995 77.5325 39.3804 77.5588 39.3438C77.699 39.1431 78.2017 38.4178 78.8256 37.4933C79.451 36.5687 80.145 34.7196 81.4031 34.4881C81.7742 34.4193 82.1658 34.4046 82.4989 34.2376C83.1565 33.9079 83.3698 33.1094 83.9396 32.6581C84.359 32.327 84.9668 32.2186 85.487 32.3827C86.1796 32.601 86.8795 33.568 86.9102 34.2596V34.2786C86.9146 34.3226 86.9175 34.368 86.9189 34.412L86.9204 34.4134Z" fill="#EA7C0B"/>
<path d="M81.1694 32.9405C81.3682 32.8922 81.5698 32.8336 81.7539 32.7471C81.7247 32.7486 81.694 32.7501 81.6633 32.7501C81.6019 32.7589 81.5245 32.7676 81.4412 32.772C80.8743 32.8043 79.9172 32.6665 80.1788 31.279C80.2328 30.9874 80.2036 30.7559 80.1043 30.5742C80.0809 30.5303 80.0531 30.4893 80.0224 30.4526C79.7901 30.5332 79.5578 30.6094 79.3225 30.6622C78.8287 30.772 78.3143 30.7764 77.8161 30.8658C77.3164 30.9537 76.8064 31.1471 76.5156 31.5369C75.0472 33.4914 80.2884 33.1588 81.168 32.9405H81.1694Z" fill="#EA7C0B"/>
<path d="M55.222 66.3529L58.9933 64.5902L54.715 65.1529L52.4677 60.8643L52.9528 65.3038L48.9595 67.5162L53.1881 66.7368L55.7933 71.6715L55.222 66.3529Z" fill="#EDDCB6"/>
<path d="M75.6607 64.9526L78.022 65.9241L75.3422 67.1973L75.6607 64.9526Z" fill="#E64927"/>
<path d="M32.6836 57.8461L35.4321 55.3289L35.9976 51.7011L34.513 47.9941L30.1646 46L25.4714 47.9941L24 51.808L24.9044 55.8007L28.6845 58.5875L32.6836 57.8461Z" fill="white"/>
<path d="M29.8825 46.8691L29.903 51.5475L25.9797 48.4559L29.8825 46.8691Z" fill="#FF6E5F"/>
<path d="M29.7013 52.1232L25.7532 49.4287L24.6398 51.7071L25.0899 54.8045L29.7013 52.1232Z" fill="#FF6E5F"/>
<path d="M28.8772 57.654L25.651 55.3287L29.7013 52.7515L28.8772 57.654Z" fill="#FF6E5F"/>
<path d="M29.7015 57.4636L32.0072 57.1867L34.2281 55.3288L30.2421 52.4541L29.7015 57.4636Z" fill="#FF6E5F"/>
<path d="M34.472 54.97L35.2668 52.2945L34.472 49.9399L30.5619 52.1172L34.472 54.97Z" fill="#FF6E5F"/>
<path d="M33.9358 49.2529L33.5968 48.2068L30.6964 47.1504L30.3194 51.7071L33.9358 49.2529Z" fill="#FF6E5F"/>
<path d="M62.2051 78.7882L65.6783 78.1875L62.4286 79.4915L59.518 78.9318L59.5575 79.6453L61.9333 80.7735L65.5555 80.5801L63.3565 81.6395L61.796 81.723L61.8252 82.2871L63.9132 82.6768L68.038 81.3274L72.5545 79.1398L74.8953 78.8951L74.9917 78.8849L74.8222 75.701V75.6981L74.6717 72.8893L71.6529 73.0505L67.7473 70.2065L65.6373 70.3208L65.687 71.2805L67.0591 72.3516L68.0658 73.6029L63.4456 73.849L60.5525 73.6263L60.2311 74.649L63.2937 75.7362L65.7455 75.9237L61.9012 76.6314L58.9964 76.7867L59.0461 77.7303L62.2051 78.7882Z" fill="#FFAF32"/>
<path d="M61.796 81.7231L61.8252 82.2872L63.9132 82.677L68.038 81.3275L72.5545 79.14L74.8953 78.8953L74.8222 75.7012V75.6982L71.9846 76.4426L69.5386 78.9876L65.5555 80.5803L63.3565 81.6396L61.796 81.7231Z" fill="#D37B11"/>
<path d="M68.8534 75.6982L68.0848 76.4426L66.9933 75.9693H68.0848L68.8534 75.6982Z" fill="#D37B11"/>
<path d="M68.8534 77.9648L68.0848 78.7106L66.9933 78.2374H68.0848L68.8534 77.9648Z" fill="#D37B11"/>
<path d="M65.6636 70.8335L67.3001 71.3434L69.4933 73.4005L68.0657 73.6027L67.059 72.3514L65.687 71.2804L65.6636 70.8335Z" fill="#D37B11"/>
<path d="M79.8514 79.9928L74.7038 80.2668L74.2304 71.3555L78.4823 71.1284L79.8514 79.9928Z" fill="#EA7C0B"/>
<path d="M94.368 78.1404L78.475 78.9888L77.4551 72.7163L91.472 70.7236L94.368 78.1404Z" fill="#EA7C0B"/>
<path d="M92.0872 72.2988L78.8783 73.6893" stroke="#14222F" stroke-width="2" stroke-miterlimit="10"/>
<path d="M93.6316 76.0703L79.4773 77.5604" stroke="#14222F" stroke-width="2" stroke-miterlimit="10"/>
<path d="M88.1405 71.1968L90.6742 78.3367" stroke="#14222F" stroke-width="2" stroke-miterlimit="10"/>
<path d="M81.412 72.1538L83.6987 78.7106" stroke="#14222F" stroke-width="2" stroke-miterlimit="10"/>
<path d="M76.124 71.1968L77.2404 80.1022" stroke="#14222F" stroke-width="2" stroke-miterlimit="10"/>
<path d="M78.8783 75.4312L74.8221 75.6978" stroke="#14222F" stroke-width="2" stroke-miterlimit="10"/>
<path d="M77.1818 78.5242C76.8736 78.5242 76.6237 78.2736 76.6237 77.9645C76.6237 77.6554 76.8736 77.4048 77.1818 77.4048C77.4901 77.4048 77.74 77.6554 77.74 77.9645C77.74 78.2736 77.4901 78.5242 77.1818 78.5242Z" fill="#EDDCB6"/>
<path d="M75.4269 56.7959L77.6333 57.7556L75.9164 59.6017L75.4269 56.7959Z" fill="#E64927"/>
</svg>
