<svg width="124" height="124" viewBox="0 0 124 124" fill="none" xmlns="http://www.w3.org/2000/svg">
<circle cx="62" cy="62" r="62" fill="#00CF70"/>
<path d="M55.161 54.7734C55.3666 54.7734 55.5333 54.6069 55.5333 54.4016C55.5333 54.1962 55.3666 54.0298 55.161 54.0298C54.9555 54.0298 54.7888 54.1962 54.7888 54.4016C54.7888 54.6069 54.9555 54.7734 55.161 54.7734Z" fill="#EDDCB6"/>
<path d="M53.8808 53.8564C54.0864 53.8564 54.253 53.6899 54.253 53.4846C54.253 53.2792 54.0864 53.1128 53.8808 53.1128C53.6752 53.1128 53.5085 53.2792 53.5085 53.4846C53.5085 53.6899 53.6752 53.8564 53.8808 53.8564Z" fill="#EDDCB6"/>
<path d="M53.7546 55.7151C54.1249 55.7151 54.4252 55.4152 54.4252 55.0453C54.4252 54.6754 54.1249 54.3755 53.7546 54.3755C53.3842 54.3755 53.084 54.6754 53.084 55.0453C53.084 55.4152 53.3842 55.7151 53.7546 55.7151Z" fill="#EDDCB6"/>
<path d="M54.8323 53.3701C54.9723 53.3701 55.0858 53.2567 55.0858 53.1169C55.0858 52.9771 54.9723 52.8638 54.8323 52.8638C54.6923 52.8638 54.5789 52.9771 54.5789 53.1169C54.5789 53.2567 54.6923 53.3701 54.8323 53.3701Z" fill="#EDDCB6"/>
<path d="M55.8215 52.1997L55.8896 52.3777L56.1459 53.0474L56.3603 53.6087L57.9839 54.0601L58.0172 54.0688L58.5155 54.2077C58.5213 54.2163 58.5271 54.2265 58.5328 54.238C58.6661 54.4811 58.8645 55.3143 59.0803 56.2648C59.1991 56.7928 59.3237 57.3555 59.4453 57.8734C59.6104 58.5808 59.7697 59.2014 59.903 59.5313C59.9334 59.6094 59.9638 59.6933 59.9986 59.7772L60.3216 59.6571C60.3216 59.6571 62.3189 56.7913 62.203 56.6134C61.46 55.4561 60.549 52.7263 60.0797 52.1592H60.0725L58.3257 51.6833L57.3408 51.4156L56.9194 51.2999L56.4588 51.1755L56.2705 51.1234L56.0938 51.0757L56.0648 51.1972L55.9823 51.5386L55.8374 52.1317L55.8201 52.2012L55.8215 52.1997Z" fill="#FFAF32"/>
<path d="M58.8066 51.5865L57.335 50.7417L55.7216 51.3175L54.9395 52.5283L55.5463 52.8784L56.1619 51.98L57.3814 51.8657L58.8066 51.5865Z" fill="#D37B11"/>
<path d="M58.8922 52.1017L57.3425 51.4116L55.7971 52.1494L55.3843 52.9566L55.532 53.6409L56.0969 53.6322L56.1403 53.0593L56.3025 52.7628L57.5032 52.5255L58.8922 52.1017Z" fill="#D37B11"/>
<path d="M59.2629 51.2739L57.2294 51.1553C57.0672 51.1943 56.0924 51.7556 56.0924 51.7556C56.0924 51.7556 55.9925 52.2258 56.0243 52.2764L56.3777 52.6641L57.7769 52.3574C57.7769 52.3574 57.8551 53.8171 59.2933 54.293C59.4772 54.3538 60.0479 52.3401 60.0725 52.1549L59.2614 51.2739H59.2629Z" fill="#FFAF32"/>
<path d="M58.5198 54.1804L59.606 53.3804L58.989 54.4422L59.0803 56.265L58.5198 54.1804Z" fill="#D37B11"/>
<path d="M59.2628 51.2741L58.0187 50.1226L56.3168 50.3222L55.2827 51.3276L55.5043 51.9005L56.5978 51.0658L57.8116 51.2278L59.2628 51.2741Z" fill="#FFAF32"/>
<path d="M56.3774 52.6627L57.19 52.2461L57.7766 52.356C57.7766 52.356 57.9055 53.2862 58.2806 53.603L57.9982 54.1007L57.5883 52.8508L57.3363 53.6161L57.3261 52.8551L56.3774 52.6627Z" fill="#D37B11"/>
<path d="M57.3033 51.1655L56.5979 51.0657L57.69 50.7373L58.3388 51.2205L57.3033 51.1655Z" fill="#D37B11"/>
<path d="M57.906 55.7623L61.8512 53.7998L63.0119 55.4021L58.6266 57.4469L57.906 55.7623Z" fill="#14222F"/>
<path d="M59.3647 57.5395L60.0646 61.4306L61.5033 62.553L65.2 61.4577L63.3975 59.9445L61.8838 55.9883" fill="#14222F"/>
<path d="M63.012 63.5618L64.9409 60.4793L67.3043 58.9058L72.566 59.0348L75.2501 60.4721L75.412 64.0116L63.012 63.5618Z" fill="#14222F"/>
<path d="M71.7647 57.4468H68.1177V60.3644H71.7647V57.4468Z" fill="#D37B11"/>
<path d="M61.9626 50.9049L61.5527 48.4733L63.4183 46.3861L65.2042 45.7764L67.1842 47.2408L68.7485 48.3406H70.4402L72.371 46.952L73.4979 46.0345L75.4489 46.2563L76.5627 47.8213L77.5998 50.1522V53.0067L76.3628 54.9394L72.9837 55.9881L68.1025 55.7518L63.9817 53.9694L61.9626 50.9049Z" fill="#14222F"/>
<path d="M69.2072 47.2437L66.7189 47.7775L64.8375 49.7304L64.3552 52.9116L64.739 55.8425L66.8985 57.8027L69.3637 58.5361L72.1155 57.8909L74.4851 56.0551L75.1325 53.768L74.5676 50.3944L72.5558 48.0219L69.2072 47.2437Z" fill="#FFAF32"/>
<path d="M65.0721 50.5159L64.1698 49.9951L63.0068 50.1456L62.0769 51.5806L62.3593 53.0924L63.5977 53.6189L65.0982 53.2356" fill="#FFAF32"/>
<path d="M74.6807 50.9352L75.5613 50.4043L76.7113 50.5316L77.6556 51.9305L77.4036 53.4263L76.1913 53.9688L74.7053 53.6173" fill="#FFAF32"/>
<path d="M64.545 51.6805L63.1777 51.2031L62.9634 51.5735L64.5493 52.1434L64.545 51.6805Z" fill="#E64927"/>
<path d="M75.1396 52.0942L75.3859 52.6106L76.6995 52.0797L76.6966 51.7412L75.1396 52.0942Z" fill="#E64927"/>
<path d="M70.0081 54.0743L68.6785 53.6982L67.5212 54.7253L67.6386 55.7655L69.5301 56.8765L71.6447 56.3514L73.0974 54.8657L73.39 53.1109L72.185 52.6104L71.1697 53.027L70.0081 54.0743Z" fill="#EDDCB6"/>
<path d="M69.4289 51.8062L69.4361 52.8362L68.134 52.6105L69.4289 51.8062Z" fill="#E64927"/>
<path d="M70.008 54.0742L69.53 56.8763L68.8638 56.4843L69.5822 53.9526L70.008 54.0742Z" fill="#14222F"/>
<path d="M70.6628 53.4857L72.201 55.783L72.7079 55.2636L70.9728 53.2051L70.6628 53.4857Z" fill="#14222F"/>
<path d="M65.8529 51.1742L67.0507 50.7416L67.885 50.8039L68.0906 50.3105L67.0044 50.3973L65.7791 50.6201L65.8529 51.1742Z" fill="#14222F"/>
<path d="M66.1179 51.6904L66.0339 52.2821L66.5003 52.8434L66.9681 52.9519L67.6315 52.7523L67.8487 52.1577V51.7338H67.2868L67.1999 52.4369L66.8074 52.5411L66.5003 52.3212V51.7223L66.1179 51.6904Z" fill="#14222F"/>
<path d="M70.8611 51.1104L70.7771 51.702L71.2435 52.2633L71.7113 52.3718L72.3761 52.1722L72.5919 51.5762V51.1538H72.0299L71.943 51.8568L71.5505 51.961L71.2435 51.7411V51.1422L70.8611 51.1104Z" fill="#14222F"/>
<path d="M71.2668 49.6016L72.2184 49.8403L72.9542 50.3104V50.7415L72.327 50.4044L71.8505 50.1715L71.0293 49.995L71.2668 49.6016Z" fill="#14222F"/>
<path d="M51.3413 90.1551L51.7115 87.7079L53.3624 86.6235L54.6734 87.6637L55.6184 89.9651L55.7178 92.8464L54.391 93.9177L52.6796 93.2346L51.3413 90.1551Z" fill="#14222F"/>
<path d="M87.2713 69.7387L89.2483 68.9069L89.1556 66.8237L39.4594 67.7915L39.3914 70.6067L43.3106 71.2982L43.2657 77.1267L42.2113 81.0789L42.1708 81.2293C42.1708 81.2293 42.1722 81.2322 42.1708 81.2337L42.1635 81.2583L42.1693 81.2641L44.8589 84.1154L45.2268 84.2875L50.3656 86.689L76.5071 86.7598L84.0414 84.8951L88.9818 81.6142L89.1556 78.6153L87.6073 75.7553L87.2713 69.7387Z" fill="#E64927"/>
<path d="M89.1557 78.6152L88.9819 81.6141L84.0415 84.8951L76.5071 86.7598L50.3656 86.6889L45.2269 84.2875L44.859 84.1153L42.1694 81.264L42.1636 81.2582L42.1694 81.2597L46.0568 82.1045L51.0087 83.1794L70.844 83.3154L82.0239 81.6127L89.1557 78.6152Z" fill="#C02E19"/>
<path d="M39.6707 68.3878L46.1308 61.8133L86.3017 60.3643L89.2707 67.3166L39.6707 68.3878Z" fill="#E9DCB7"/>
<path d="M42.8129 77.2532L39.5633 77.1411L34.9981 78.4413L34.0368 79.8723H30.7998H28.6128L28 81.75L30.9741 82.4655L34.1675 81.4814L37.2723 83.4482L45.5059 84.4352L45.0814 82.365L38.1479 81.5705L36.5737 80.332L39.642 78.97L42.0483 79.743L42.8129 77.2532Z" fill="#14222F"/>
<path d="M52.8 90.5781L52.9848 89.354L53.8105 88.812L54.4657 89.3325L54.9393 90.483L54.9883 91.9242L54.3252 92.4591L53.4695 92.1181L52.8 90.5781Z" fill="#EDDCB6"/>
<path d="M73.9529 90.1543L74.3231 87.7093L75.974 86.6235L77.2849 87.6651L78.23 89.966L78.3294 92.8466L77.0026 93.9177L75.2912 93.2331L73.9529 90.1543Z" fill="#14222F"/>
<path d="M76.1411 90.5781L76.2643 89.354L76.8147 88.812L77.2515 89.3325L77.5673 90.483L77.5999 91.9224L77.1579 92.4591L76.5874 92.1163L76.1411 90.5781Z" fill="#EDDCB6"/>
<path d="M78.9939 65.7109C80.8177 65.7109 82.2962 64.2342 82.2962 62.4126C82.2962 60.591 80.8177 59.1143 78.9939 59.1143C77.1701 59.1143 75.6917 60.591 75.6917 62.4126C75.6917 64.2342 77.1701 65.7109 78.9939 65.7109Z" fill="#FFAF32"/>
<path d="M79.9312 61.5592C80.1424 61.5592 80.3136 61.3882 80.3136 61.1773C80.3136 60.9664 80.1424 60.7954 79.9312 60.7954C79.72 60.7954 79.5488 60.9664 79.5488 61.1773C79.5488 61.3882 79.72 61.5592 79.9312 61.5592Z" fill="#FD710C"/>
<path d="M80.5608 62.5866C80.772 62.5866 80.9432 62.4156 80.9432 62.2047C80.9432 61.9937 80.772 61.8228 80.5608 61.8228C80.3497 61.8228 80.1785 61.9937 80.1785 62.2047C80.1785 62.4156 80.3497 62.5866 80.5608 62.5866Z" fill="#FD710C"/>
<path d="M78.9056 62.6964C79.1167 62.6964 79.2879 62.5255 79.2879 62.3145C79.2879 62.1036 79.1167 61.9326 78.9056 61.9326C78.6944 61.9326 78.5232 62.1036 78.5232 62.3145C78.5232 62.5255 78.6944 62.6964 78.9056 62.6964Z" fill="#FD710C"/>
<path d="M75.8335 61.4116L76.6504 63.7031L79.1126 64.966L81.7356 64.2528C81.7356 64.2528 80.6971 65.7501 78.9938 65.711C77.2906 65.672 75.2093 64.2919 75.8335 61.4116Z" fill="#FD710C"/>
<path d="M85.5999 65.7109C87.4237 65.7109 88.9021 64.2342 88.9021 62.4126C88.9021 60.591 87.4237 59.1143 85.5999 59.1143C83.7761 59.1143 82.2976 60.591 82.2976 62.4126C82.2976 64.2342 83.7761 65.7109 85.5999 65.7109Z" fill="#FFAF32"/>
<path d="M86.5354 61.5592C86.7466 61.5592 86.9178 61.3882 86.9178 61.1773C86.9178 60.9664 86.7466 60.7954 86.5354 60.7954C86.3243 60.7954 86.1531 60.9664 86.1531 61.1773C86.1531 61.3882 86.3243 61.5592 86.5354 61.5592Z" fill="#FD710C"/>
<path d="M87.167 62.5866C87.3782 62.5866 87.5494 62.4156 87.5494 62.2047C87.5494 61.9937 87.3782 61.8228 87.167 61.8228C86.9559 61.8228 86.7847 61.9937 86.7847 62.2047C86.7847 62.4156 86.9559 62.5866 87.167 62.5866Z" fill="#FD710C"/>
<path d="M85.5103 62.6964C85.7215 62.6964 85.8927 62.5255 85.8927 62.3145C85.8927 62.1036 85.7215 61.9326 85.5103 61.9326C85.2991 61.9326 85.1279 62.1036 85.1279 62.3145C85.1279 62.5255 85.2991 62.6964 85.5103 62.6964Z" fill="#FD710C"/>
<path d="M82.4397 61.4116L83.2566 63.7031L85.7188 64.966L88.3418 64.2528C88.3418 64.2528 87.3033 65.7501 85.6 65.711C83.8968 65.672 81.8155 64.2919 82.4397 61.4116Z" fill="#FD710C"/>
<path d="M82.544 60.0825C84.3678 60.0825 85.8462 58.6058 85.8462 56.7842C85.8462 54.9626 84.3678 53.4858 82.544 53.4858C80.7202 53.4858 79.2417 54.9626 79.2417 56.7842C79.2417 58.6058 80.7202 60.0825 82.544 60.0825Z" fill="#FFAF32"/>
<path d="M83.4795 55.9303C83.6907 55.9303 83.8619 55.7593 83.8619 55.5484C83.8619 55.3375 83.6907 55.1665 83.4795 55.1665C83.2684 55.1665 83.0972 55.3375 83.0972 55.5484C83.0972 55.7593 83.2684 55.9303 83.4795 55.9303Z" fill="#FD710C"/>
<path d="M84.1109 56.9591C84.3221 56.9591 84.4933 56.7881 84.4933 56.5772C84.4933 56.3663 84.3221 56.1953 84.1109 56.1953C83.8997 56.1953 83.7285 56.3663 83.7285 56.5772C83.7285 56.7881 83.8997 56.9591 84.1109 56.9591Z" fill="#FD710C"/>
<path d="M82.4541 57.069C82.6653 57.069 82.8365 56.898 82.8365 56.6871C82.8365 56.4762 82.6653 56.3052 82.4541 56.3052C82.243 56.3052 82.0718 56.4762 82.0718 56.6871C82.0718 56.898 82.243 57.069 82.4541 57.069Z" fill="#FD710C"/>
<path d="M79.3836 55.7832L80.2004 58.0747L82.6627 59.3376L85.2856 58.6244C85.2856 58.6244 84.2472 60.1217 82.5439 60.0826C80.8406 60.0436 78.7593 58.6635 79.3836 55.7832Z" fill="#FD710C"/>
<path d="M56.3287 62.1819L53.5293 65.4708H73.9528L71.8815 61.8237L56.3287 62.1819Z" fill="white"/>
<path d="M77.7036 80.7651L78.0874 81.0313L78.8493 80.3499L78.8348 80.2978C78.8348 80.2978 78.212 80.2747 78.1946 80.2776C78.1772 80.2805 77.7051 80.7651 77.7051 80.7651H77.7036Z" fill="#137171"/>
<path d="M79.2344 80.1836L79.9252 79.8277L79.8123 79.5615L79.708 79.5919L79.2344 80.1836Z" fill="#137171"/>
<path d="M79.7964 79.3718L80.9478 78.5472L81.8545 76.9545L81.7965 76.752L79.1721 79.2112C79.2054 79.2199 79.7964 79.3718 79.7964 79.3718Z" fill="#137171"/>
<path d="M81.5487 76.8535C81.5487 76.8535 81.9615 75.5876 81.976 75.5703C81.9905 75.5544 81.8008 74.5591 81.8008 74.5591L80.3828 78.0122L81.5487 76.852V76.8535Z" fill="#137171"/>
<path d="M78.9446 79.162L80.012 78.2766L80.7217 73.4651L80.0439 70.5762L78.6245 79.2083L78.9446 79.162Z" fill="#137171"/>
<path d="M78.3986 79.0162L78.5014 79.1305L79.2198 74.4911L78.0698 70.4492L77.3181 69.1313L78.387 78.8629L78.3986 79.0162Z" fill="#137171"/>
<path d="M78.1714 77.969C78.1728 77.9314 77.0445 75.9105 77.0445 75.9105L76.6202 74.8689L75.1414 70.1543L74.9517 72.0913L75.7743 75.8627L78.1974 78.7922L78.1714 77.9676V77.969Z" fill="#137171"/>
<path d="M78.2713 79.0552L76.093 76.865L73.5396 72.6943L73.583 73.6853L75.6904 78.0845L78.338 79.2896L78.2713 79.0552Z" fill="#137171"/>
<path d="M77.8829 79.3068L75.5307 78.1423L72.5254 73.7344L74.1229 78.3144L77.3267 79.3242L77.8829 79.3068Z" fill="#137171"/>
<path d="M79.5935 79.5267L79.0707 79.3618L77.2023 79.5006L73.6755 78.4258L74.672 79.3675L77.198 79.9433L79.5935 79.5267Z" fill="#137171"/>
<path d="M79.4009 79.7104C79.4009 79.7104 78.374 79.9651 78.3436 79.9737L78.3479 79.9795C78.3378 79.9824 78.3305 79.9839 78.3276 79.9839L78.4174 80.0996L79.1025 80.075L79.1112 80.0649H79.1184L79.4009 79.7119V79.7104Z" fill="#137171"/>
<path d="M77.014 75.1838L77.9555 77.209L77.7672 74.7816L75.8887 69.377L76.3145 72.2442L77.014 75.1838Z" fill="#137171"/>
<path d="M54.4008 76.6943C54.5283 77.2426 54.411 78.1005 54.4819 78.7703C54.3863 79.0408 54.6239 79.1478 54.8006 79.239C54.4906 79.2231 54.1807 79.2665 53.8707 79.2505C54.2125 79.0668 54.1227 78.5648 54.1285 78.2393C54.0402 77.8126 54.2647 77.3034 54.017 76.9258C53.5854 76.7927 54.2198 76.6813 54.4008 76.6958V76.6943Z" fill="white"/>
<path d="M52.7292 76.9083C53.1782 76.7289 53.3245 77.0834 53.2101 77.4624C53.0594 76.9995 52.4598 77.0718 52.0673 77.1152C51.9746 77.3669 52.076 77.6982 52.0355 77.9774C52.3831 77.9933 52.8581 78.0975 53.0565 77.7286C52.9001 77.8327 53.2347 78.4562 52.9943 78.381C52.8668 77.9919 52.3802 78.1655 52.076 78.1712C52.0441 78.4881 52.0601 78.8078 52.076 79.126C52.4062 79.1217 52.748 79.1477 53.0623 79.0349C53.2593 78.9958 53.2144 78.6588 53.4288 78.6689C53.3506 78.9134 53.4476 79.5267 52.9639 79.3068C52.4193 79.2475 51.8747 79.3271 51.3301 79.3199C51.3171 79.1361 51.6212 79.2389 51.6256 79.0262C51.6053 78.394 51.6965 77.7474 51.5807 77.121C51.5445 76.972 51.1635 77.079 51.388 76.9213C51.8356 76.9358 52.2817 76.9286 52.7278 76.9098L52.7292 76.9083Z" fill="white"/>
<path d="M64.0453 75.7785C64.3639 75.7597 64.7912 76.1387 64.529 76.4628C64.3118 76.836 63.7353 76.6436 63.631 76.2761C63.6238 76.0403 63.8396 75.8566 64.0453 75.78V75.7785Z" fill="white"/>
<path d="M62.2855 75.832C62.5506 75.7553 62.7649 75.9362 62.9069 76.1271C63.072 76.6754 62.174 76.8953 61.9872 76.4121C61.8351 76.172 62.1378 75.9752 62.2855 75.832Z" fill="white"/>
<path d="M58.6676 75.8538C59.1963 75.8364 59.7481 75.8668 60.2449 76.0679C60.3173 76.4585 60.3695 76.8606 60.4216 77.257C59.99 77.4581 60.0682 76.8664 59.7814 76.6986C59.063 76.146 57.8826 76.2212 57.2569 76.891C56.4473 77.9471 56.7239 79.848 58.0275 80.3789C58.5214 80.5293 59.0601 80.5264 59.5424 80.334C59.5323 79.8118 59.7742 78.7152 58.9254 78.8035C58.756 78.8324 58.8197 78.6603 58.8241 78.5576C59.528 78.5952 60.2391 78.585 60.9401 78.5113C61.0429 78.8961 60.5027 78.6632 60.4419 78.9829C60.3593 79.5311 60.3883 80.091 60.4303 80.6422C59.1977 81.0154 57.6016 81.2671 56.5646 80.2993C55.3176 79.1724 55.655 76.8288 57.2338 76.1576C57.6799 75.9522 58.1723 75.848 58.6647 75.8567L58.6676 75.8538Z" fill="white"/>
<path d="M74.1157 77.0708C74.8413 76.9811 75.7031 77.253 76.0319 77.9532C76.6098 78.9716 75.9117 80.4183 74.7631 80.5919C73.9622 80.7872 73.0091 80.4053 72.6977 79.6168C72.1865 78.5579 72.9686 77.2053 74.1142 77.0708H74.1157ZM74.0867 77.4845C73.2496 77.7333 73.3278 78.8718 73.5682 79.5416C73.7145 80.2823 74.8515 80.4978 75.1962 79.7919C75.635 78.9586 75.3193 77.2747 74.0867 77.4845Z" fill="white"/>
<path d="M64.6348 77.383C64.6652 77.383 64.7275 77.3801 64.7579 77.3801C64.8202 78.2987 64.742 79.226 64.8333 80.1446C64.9375 80.3992 65.4285 80.175 65.2692 80.5337C64.8608 80.6176 64.4639 80.7507 64.0555 80.8375C63.9773 80.7478 64.2278 80.2241 63.9208 80.3645C63.4559 80.7637 62.7505 81.069 62.1784 80.7117C61.4441 79.9797 61.9771 78.8527 61.7077 77.9573C61.6613 77.7721 61.4455 77.8271 61.2935 77.8039C61.3079 77.6622 61.2442 77.4119 61.5527 77.5305C61.8844 77.516 62.1885 77.3294 62.5217 77.3497C62.5955 78.2885 62.3261 79.3171 62.7722 80.1909C63.1879 80.4296 63.689 80.2516 64.0396 79.984C64.012 79.3605 64.0859 78.7312 63.9903 78.1121C64.1221 77.5913 63.2936 78.0036 63.4892 77.5479C63.8701 77.4914 64.251 77.4365 64.6334 77.383H64.6348Z" fill="white"/>
<path d="M71.6898 77.1412C72.0331 77.0544 72.3372 77.5347 72.1127 77.8168C71.9751 78.1177 71.5566 77.7401 71.3379 77.84C71.0916 77.9499 70.8976 78.1741 70.7513 78.3911C70.7759 78.99 70.7078 79.6049 70.8729 80.1907C70.9975 80.4859 71.5942 80.1748 71.4363 80.603C70.7904 80.5423 70.1343 80.5003 69.4955 80.6464C69.3217 80.185 69.8692 80.4844 69.9532 80.2009C70.1241 79.6049 69.9851 78.9683 69.9923 78.3579C69.9547 78.1409 70.0141 77.8313 69.8055 77.6794C69.5578 77.7705 69.5317 77.5998 69.4811 77.4667C69.9069 77.3452 70.3428 77.2555 70.7629 77.1123C70.7498 77.3438 70.7266 77.8052 70.7151 78.0367C70.9946 77.7083 71.1988 77.189 71.6913 77.1412H71.6898Z" fill="white"/>
<path d="M67.2172 77.2052C68.1789 76.9868 69.0016 77.8793 68.9639 78.8008C68.1992 78.8225 67.4113 78.7531 66.6625 78.9108C66.5741 79.4287 66.9029 80.0073 67.4185 80.1549C67.908 80.369 68.4295 80.1115 68.8698 79.9017C68.9089 79.977 68.9509 80.0522 68.9842 80.1317C68.3324 80.7379 67.2809 81.0431 66.4901 80.5137C65.3039 79.6572 65.7427 77.4627 67.2186 77.2052H67.2172ZM67.2505 77.5625C66.8536 77.7028 66.6451 78.1296 66.6205 78.5289C67.1477 78.5621 67.6763 78.4985 68.2006 78.4421C68.1152 77.9864 67.8038 77.4222 67.2505 77.5625Z" fill="white"/>
<path d="M77.4773 76.6783C77.7525 76.6262 77.612 77.0168 77.6265 77.1759C78.0075 77.3148 77.8829 76.8692 78.0017 76.6754C78.3652 76.5191 78.1842 76.9893 78.2218 77.1614C78.4651 77.1368 78.4246 77.539 78.161 77.4522C78.0972 77.5694 77.9915 77.9571 78.2624 77.8356C78.4333 77.8124 78.4651 78.054 78.3203 78.1104C78.229 78.203 77.951 77.9947 78.019 78.2537C77.9712 78.3882 78.0234 78.7007 77.7786 78.6399C77.5121 78.5517 77.9597 78.0178 77.544 78.1452C77.2949 78.1567 77.5251 78.6428 77.2485 78.6761C76.9878 78.6602 77.1602 78.3274 77.1442 78.1741C77.0052 78.1697 76.8893 77.9788 77.0298 77.8905C77.263 77.9195 77.2326 77.6403 77.2702 77.4956C77.1616 77.5144 76.9371 77.4898 76.9516 77.3307C76.9762 77.1643 77.2036 77.2251 77.318 77.1788C77.3731 77.0139 77.3093 76.7868 77.4759 76.6812L77.4773 76.6783ZM77.5715 77.484C77.5295 77.5969 77.5165 77.7242 77.5107 77.8443C77.6063 77.8602 77.6989 77.8746 77.796 77.8486C77.8177 77.6504 77.909 77.3177 77.5715 77.484Z" fill="white"/>
<path d="M79.2559 76.6583C79.405 76.5773 79.5311 76.7032 79.5224 76.842C79.5122 77.3787 79.589 77.9183 79.5484 78.4536C79.5397 78.6576 79.224 78.6373 79.2153 78.4492C79.1748 78.0456 79.1878 77.6333 79.1501 77.2283C78.9836 77.2919 78.7692 77.603 78.5954 77.4048C78.494 77.2413 78.7287 77.1617 78.8358 77.0981C79.0183 76.9997 79.1719 76.8493 79.2559 76.6598V76.6583Z" fill="white"/>
<path d="M55.3161 74.7049C54.4891 74.8698 53.9474 74.2839 53.7895 73.4883C53.6317 72.6912 53.9069 71.9447 54.7339 71.7812C55.0641 71.7161 55.3523 71.7205 55.5594 71.7653L55.7202 72.5725L55.2814 72.6593L55.1481 72.2471C55.0351 72.2471 54.9323 72.2586 54.8309 72.2789C54.3399 72.3758 54.2125 72.8489 54.3182 73.3841C54.4239 73.9194 54.7237 74.3071 55.2147 74.2087C55.3161 74.1884 55.416 74.161 55.5203 74.1204L55.4841 73.685L55.923 73.5982L56.0837 74.4054C55.9085 74.5255 55.6434 74.6398 55.3147 74.7063L55.3161 74.7049Z" fill="#FFAF32"/>
<path d="M57.5539 74.2161C57.4279 74.3043 57.2686 74.3767 57.1064 74.4012C56.5473 74.4823 56.317 74.1958 56.2635 73.8342C56.2142 73.4942 56.3793 73.2512 56.9326 73.1051L57.2599 73.0183C57.2397 72.8779 57.1585 72.8244 56.9775 72.8519C56.7168 72.8895 56.4807 72.9662 56.2924 73.0747L56.2229 72.5958C56.4213 72.4787 56.698 72.4107 56.9094 72.3803C57.5061 72.2935 57.7017 72.5467 57.7625 72.9618L57.8755 73.7387L58.2216 73.7271L58.2854 74.1683L57.5945 74.2696L57.5554 74.2175L57.5539 74.2161ZM57.0007 73.5217C56.7849 73.5796 56.7516 73.6664 56.766 73.7604C56.7791 73.8472 56.8298 73.9586 57.0456 73.9282C57.189 73.9079 57.3019 73.8371 57.3729 73.7879L57.3222 73.4363L57.0021 73.5217H57.0007Z" fill="#FFAF32"/>
<path d="M58.95 72.2415C59.0629 72.1764 59.2874 72.0867 59.4554 72.0694C60.0261 72.0144 60.2404 72.2502 60.2839 72.7016L60.3592 73.4726L60.7054 73.477L60.7488 73.9211L59.9015 74.0035L59.7799 72.7507C59.7668 72.6148 59.6814 72.5265 59.5032 72.5439C59.3396 72.5598 59.1716 72.6379 59.1165 72.6654L59.2063 73.584L59.5525 73.5884L59.5959 74.0325L58.4068 74.1482L58.3634 73.7041L58.7023 73.6332L58.611 72.7001L58.2649 72.6958L58.2214 72.2517L58.9166 72.1837L58.9529 72.2415H58.95Z" fill="#FFAF32"/>
<path d="M60.9764 71.5385L61.4717 71.4531L61.5022 71.9783L62.0279 71.9479L62.0554 72.4282L61.5297 72.4585L61.5789 73.3106C61.5847 73.4017 61.66 73.4625 61.8092 73.4538C61.8744 73.4495 62.0033 73.435 62.0743 73.4162L62.1018 73.8806C61.9396 73.9283 61.8411 73.9298 61.8107 73.9312C61.4442 73.9529 61.1053 73.762 61.0821 73.3656L61.0314 72.486L60.6882 72.5063L60.6621 72.0607L61.0025 72.0028L60.975 71.5385H60.9764Z" fill="#FFAF32"/>
<path d="M63.6024 73.7514C63.4662 73.8223 63.2997 73.8758 63.136 73.8801C62.5711 73.8917 62.3771 73.5792 62.3698 73.2132C62.3626 72.8704 62.5567 72.649 63.1244 72.5709L63.459 72.5261C63.4561 72.3843 63.3822 72.3221 63.1983 72.325C62.9347 72.3308 62.6914 72.3771 62.4915 72.4624L62.4813 71.9778C62.6928 71.8852 62.9752 71.8534 63.1896 71.8476C63.7921 71.8346 63.9558 72.1095 63.9645 72.529L63.9818 73.3145L64.3266 73.3449L64.3367 73.7904L63.6386 73.8049L63.6067 73.7485L63.6024 73.7514ZM63.1389 72.9948C62.9188 73.0266 62.8739 73.1076 62.8753 73.2031C62.8767 73.2914 62.9144 73.4085 63.1317 73.4042C63.2765 73.4013 63.3982 73.3449 63.4735 73.3058L63.4662 72.9514L63.1389 72.9962V72.9948Z" fill="#FFAF32"/>
<path d="M64.829 72.3816L64.4858 72.3368L64.4945 71.8912L65.1926 71.9042L65.2215 71.9664C65.3403 71.9158 65.5749 71.8507 65.7429 71.8536C65.9182 71.8565 66.0601 71.8782 66.1659 71.923L66.1514 72.6738L65.7053 72.6652L65.6734 72.3324C65.5286 72.3411 65.3852 72.3874 65.336 72.4062L65.3186 73.3292L65.6618 73.374L65.6531 73.8196L64.4583 73.7964L64.4669 73.3509L64.8117 73.319L64.829 72.3816Z" fill="#FFAF32"/>
<path d="M67.2262 73.4015L67.568 73.4579L67.5449 73.9035L66.3586 73.8427L66.3818 73.3972L66.7265 73.3769L66.7758 72.4395L66.434 72.3831L66.4571 71.9375L67.3001 71.9809L67.2262 73.4015ZM66.8294 71.0854L67.3595 71.1129L67.3319 71.6424L66.8018 71.6149L66.8294 71.0854Z" fill="#FFAF32"/>
<path d="M68.2052 71.5686L68.7077 71.5527L68.6643 72.0779L69.1901 72.1213L69.1509 72.6001L68.6252 72.5567L68.5557 73.4088C68.5484 73.4999 68.6151 73.5708 68.7628 73.5824C68.828 73.5882 68.9569 73.591 69.0307 73.5824L68.9931 74.0467C68.8265 74.0713 68.728 74.0598 68.6976 74.0569C68.3326 74.0265 68.0227 73.7907 68.0545 73.3958L68.127 72.5176L67.7837 72.4902L67.8199 72.046L68.1661 72.0359L68.2037 71.5715L68.2052 71.5686Z" fill="#FFAF32"/>
<path d="M70.1605 74.2085C69.4667 74.1246 69.3581 73.6891 69.429 73.0989C69.5 72.5087 69.71 72.1108 70.4038 72.1948C71.1048 72.2787 71.2062 72.7141 71.1352 73.3043C71.0642 73.8946 70.8629 74.2938 70.1605 74.2085ZM70.3459 72.6678C70.0272 72.6302 69.9649 72.8645 69.9287 73.1597C69.8925 73.4548 69.8983 73.6978 70.217 73.7354C70.5312 73.773 70.5979 73.5387 70.6341 73.2436C70.6703 72.9485 70.6601 72.7054 70.3459 72.6678Z" fill="#FFAF32"/>
<path d="M72.3011 73.2673C72.8544 73.4105 73.0195 73.5609 72.9543 73.9573C72.8978 74.3031 72.6009 74.5649 72.0013 74.4665C71.8246 74.4376 71.49 74.3262 71.3423 74.2394L71.4364 73.6636L71.8767 73.7345L71.8666 73.9371C71.9318 73.9631 72.0056 73.9833 72.081 73.9949C72.3112 74.0325 72.443 74.0036 72.4619 73.8908C72.4807 73.7736 72.3793 73.7533 72.1751 73.7013C71.6291 73.558 71.4668 73.3425 71.5248 72.9924C71.5769 72.6684 71.8709 72.3877 72.4286 72.4788C72.6024 72.5063 72.866 72.5772 73.0716 72.7103L72.9789 73.2788L72.5386 73.2065L72.5502 72.9953C72.4879 72.9736 72.4213 72.9591 72.3532 72.9476C72.1418 72.9128 72.0317 72.949 72.0129 73.0662C71.9955 73.1718 72.0896 73.2094 72.3011 73.2644V73.2673Z" fill="#FFAF32"/>
<path d="M63.5063 63.9799C62.9255 63.9423 62.0435 63.9423 61.5626 63.5937C60.6936 62.9629 60.5343 61.9546 60.4633 61.7492C60.3808 61.512 60.1114 61.4266 59.9926 61.2169C59.8261 60.9217 60.0665 60.5615 60.3417 60.3633C60.74 60.0784 61.0528 59.789 61.4019 59.452C62.0363 58.84 62.9574 58.5304 63.8409 58.6288" fill="#00CF70"/>
<path d="M63.5238 58.5938L62.4361 59.6223L61.9929 61.5232L62.3159 63.2244L63.5065 63.9796L64.9041 63.1941L65.3864 61.7648L65.3126 59.5746L64.3798 58.6892L63.5238 58.5938Z" fill="#EDDCB6"/>
<path d="M64.4856 59.022L64.1453 60.7579L65.3358 59.8986L64.4856 59.022Z" fill="#078C63"/>
<path d="M63.5746 58.8457L62.7722 59.6399L64.0337 60.6974L64.2351 58.9209L63.5746 58.8457Z" fill="#078C63"/>
<path d="M62.2043 61.428L62.7446 59.8945L63.9322 60.8522L62.2043 61.428Z" fill="#078C63"/>
<path d="M62.5868 63.0005L62.3 61.7187L63.9628 60.981L62.5868 63.0005Z" fill="#078C63"/>
<path d="M63.5326 63.754L62.9041 63.1652L63.928 61.2803L64.2525 63.3388L63.5326 63.754Z" fill="#078C63"/>
<path d="M66.2744 59.4258C66.8002 59.6384 67.2463 60.0232 67.5302 60.5136C67.7199 60.842 67.801 61.2297 67.8343 61.603C67.8662 61.9574 68.0313 62.2496 68.0834 62.5953C68.1197 62.8355 68.0414 63.0915 67.8763 63.2695C67.6692 63.4937 67.3506 63.5197 67.1015 63.6832C66.7785 63.8959 66.4468 64.1548 66.063 64.2431C65.7588 64.3125 65.472 64.3689 65.1577 64.3501C65.0144 64.3414 64.4278 64.3096 64.351 64.1693L63.4661 63.0915L63.944 60.9129L65.0086 59.6471L66.273 59.4243L66.2744 59.4258Z" fill="#00CF70"/>
<path d="M66.341 61.2979C66.5106 61.2979 66.648 61.1606 66.648 60.9913C66.648 60.8219 66.5106 60.6846 66.341 60.6846C66.1714 60.6846 66.0339 60.8219 66.0339 60.9913C66.0339 61.1606 66.1714 61.2979 66.341 61.2979Z" fill="#078C63"/>
<path d="M66.5002 62.252C66.6697 62.252 66.8072 62.1147 66.8072 61.9454C66.8072 61.776 66.6697 61.6387 66.5002 61.6387C66.3306 61.6387 66.1931 61.776 66.1931 61.9454C66.1931 62.1147 66.3306 62.252 66.5002 62.252Z" fill="#078C63"/>
<path d="M65.2343 61.836C65.4039 61.836 65.5414 61.6987 65.5414 61.5293C65.5414 61.36 65.4039 61.2227 65.2343 61.2227C65.0647 61.2227 64.9272 61.36 64.9272 61.5293C64.9272 61.6987 65.0647 61.836 65.2343 61.836Z" fill="#078C63"/>
<path d="M49.6864 55.3516H56.9398L57.1049 55.962L56.5154 56.4843L57.0614 58.8351L56.5936 63.0318L55.3813 64.5478L51.3419 64.5305L49.9572 62.9667L49.4807 58.4098L50.3208 56.4843L49.6618 55.9852L49.6864 55.3516Z" fill="#C02E19"/>
<path d="M49.957 62.967L52.4902 63.3547L55.0842 62.967L57.0612 58.8354L56.5934 63.0321L55.3811 64.5482L51.3417 64.5309L49.957 62.967Z" fill="#901F18"/>
<path d="M57.1047 55.9624H52.0413L56.5152 56.4846L57.1047 55.9624Z" fill="#901F18"/>
<path d="M50.8959 58.2683C50.7641 58.3161 50.6207 58.3392 50.4846 58.3378C50.0747 58.332 49.6691 58.1873 49.2636 58.2351C48.312 58.3479 47.7732 59.4141 46.8883 59.7786C45.983 60.1504 44.9706 59.7135 44.0712 59.3273C43.1718 58.941 42.0783 58.6155 41.2657 59.1595C40.8906 59.4112 40.6458 59.8105 40.3706 60.1692C40.0955 60.528 39.7435 60.8752 39.2974 60.9388C39.2612 60.9446 39.2235 60.9461 39.1859 60.9461L39.1511 60.2864L39.4929 60.2531L39.3655 58.8991L39.0715 58.779L38.9701 56.8622L38.8846 55.2622L38.5385 55.0698L38.4646 54.6272L49.9067 53.3237L50.2166 53.7447L50.1558 55.0091L50.8959 58.2654V58.2683Z" fill="#FF6E5F"/>
<path d="M39.1495 60.2896L39.0698 58.7837L39.3638 58.9038L39.4913 60.2564L39.1495 60.2896Z" fill="#E64927"/>
<path d="M51.6953 61.7882L51.1145 65.169L49.0144 66.2815L41.535 66.6576L39.8839 65.3759L38.97 62.8544L39.1843 60.9521V60.9492C39.222 60.9492 39.2596 60.9477 39.2959 60.9419C39.7434 60.8768 40.0953 60.5311 40.3691 60.1723C40.6443 59.8135 40.8876 59.4143 41.2642 59.1626C42.0767 58.6172 43.1702 58.9427 44.0697 59.3304C44.9691 59.7181 45.9815 60.1535 46.8867 59.7817C47.7717 59.4172 48.3119 58.3496 49.262 58.2382C49.669 58.1904 50.0731 58.3351 50.483 58.3409C50.6191 58.3423 50.7625 58.3192 50.8943 58.2714L51.6938 61.7911L51.6953 61.7882Z" fill="#E64927"/>
<path d="M39.4913 60.2561L39.1495 60.2893L39.0162 60.3024L38.9539 59.5443L37.6214 58.808L36.793 56.8087L37.591 55.6688L38.2703 55.4446L38.5368 55.0742L38.883 55.2666L38.9684 56.8666L38.6049 56.0869L38.1486 55.9147L37.4418 56.9071L38.3659 58.4984L39.0698 58.7834L39.3638 58.9035L39.4913 60.2561Z" fill="#FF6E5F"/>
<path d="M38.9712 62.854L42.9788 64.1314L47.2515 63.7292L50.0671 62.6355L51.2055 59.6323L51.695 61.7878L51.1157 65.1686L49.0156 66.2811L41.5362 66.6572L39.8851 65.3755L38.9712 62.854Z" fill="#C02E19"/>
<path d="M50.2178 53.7808L42.1099 55.0191L50.157 55.0451L50.2178 53.7808Z" fill="#E64927"/>
<path d="M52.1919 52.4312L52.4512 56.0043L54.3934 58.6719L54.1906 64.9981" stroke="#EDDCB6" stroke-width="0.94" stroke-miterlimit="10"/>
<path d="M54.1703 64.9981H54.1906L54.6164 65.6563L54.4889 66.287L48.9359 66.3593L48.7751 65.7344L49.3386 65.299L49.1112 58.2596L51.2591 56.0506L51.1751 52.4673" stroke="#EDDCB6" stroke-width="0.94" stroke-miterlimit="10"/>
<path d="M50.8723 51.9873L50.9853 53.6148L52.6437 53.6654L52.5408 52.0105L50.8723 51.9873Z" fill="#137171"/>
<path d="M49.4517 58.3525L49.7037 65.0158C49.7037 65.0158 50.7016 66.257 53.6983 64.9998L53.8576 58.61" fill="#EB7C00"/>
<path d="M51.6431 59.9497L51.5939 61.9649L50.5829 60.5978L51.0392 62.354L50.105 62.0647L51.0146 63.2191L52.2312 63.1482L53.5724 62.2282L52.4325 62.3613L53.1364 60.5501L52.0892 61.5092L51.6431 59.9497Z" fill="#EDDCB6"/>
<path d="M49.4517 58.3524C49.4517 58.3524 51.0014 57.4049 52.9075 57.2183L53.8576 58.6099C53.8576 58.6099 51.3809 59.7296 49.4517 58.3524Z" fill="#FFAF32"/>
<path d="M65.2 48.9846L66.9544 48.5211H69.4068H71.3336L73.9529 49.4233L72.3364 47.1592L72.2509 45.2078L71.2771 44.4605L69.8757 45.0659L68.7861 44.3174L67.5075 44.8519L67.2399 46.0732L65.8482 47.2827" fill="#14222F"/>
<path d="M65.9294 46.4442L67.0746 46.019L69.3104 45.7764L71.3794 46.4442L72.4942 46.8555L71.8013 47.9646L70.6689 47.2437L69.0442 46.8693L67.1901 47.313H66.7506L65.9294 46.4442Z" fill="#E64927"/>
<path d="M68.1424 58.1763L67.3882 59.3179L69.2005 61.0939L69.5764 59.6351L68.1424 58.1763Z" fill="#137171"/>
<path d="M69.5767 59.5764L70.2704 61.0939L72.4943 59.3807L71.6315 58.1763L69.5767 59.5764Z" fill="#137171"/>
<path d="M46.9632 42.4082C46.9632 42.4082 46.9632 42.4132 46.9632 42.4195C46.9044 42.6644 45.9039 46.5728 40.8807 46.505C35.6972 46.4359 37.9856 42.1294 37.9856 42.1294L46.9648 42.4082H46.9632Z" fill="#E64927"/>
<path d="M53.5294 33.3765L46.6225 42.1294L38.9412 41.8227L50.8191 33.9374L53.5294 33.3765Z" fill="#FD710C"/>
<path d="M73.2236 41.3999C73.2236 42.6474 72.8299 45.5783 69.1202 45.7669C64.4721 46.0037 63.7624 41.7348 63.7412 41.602V41.599L73.2236 41.3999Z" fill="#DBCCAF"/>
<path d="M73.2236 41.9369L63.7708 42.1294L63.7412 33.7629L69.5282 33.3765L73.2236 41.9369Z" fill="#EDDCB6"/>
<path d="M63.7411 42.1294V42.1321C63.7411 42.2463 63.7082 46.3737 58.887 46.5029C54.5661 46.617 53.6779 43.4545 53.5293 42.7206L63.7411 42.1294Z" fill="#E64927"/>
<path d="M63.7411 41.5319L53.5558 42.1294C53.5558 42.1294 53.5543 42.1212 53.5543 42.1184C53.5355 42.0278 53.5293 41.9756 53.5293 41.9756L55.7707 33.3765L63.7083 33.6512L63.7411 41.5319Z" fill="#FD710C"/>
<path d="M86.7311 45.7758C83.1666 45.8294 82.0992 42.2246 81.9836 41.7946C81.9822 41.7876 81.9808 41.7819 81.9794 41.7763C81.978 41.7721 81.9766 41.7678 81.9766 41.765L89.9726 41.3999C89.9726 41.3999 90.5197 45.7194 86.7311 45.7758Z" fill="#DBCCAF"/>
<path d="M90 41.0419L81.9042 41.3996L76.8706 34.1055L80.8778 34.2146L90 41.0419Z" fill="#EDDCB6"/>
<path d="M77.8779 45.0385C74.084 45.2117 73.3584 42.6854 73.2234 41.5704L81.9271 41.3999C81.9271 41.3999 81.9286 41.4069 81.93 41.4111C81.9315 41.4167 81.9329 41.4223 81.9344 41.4292C82.0069 41.8149 82.4191 44.8303 77.8779 45.0385Z" fill="#E64927"/>
<path d="M81.9767 41.2332L73.3539 41.4L69.5767 33.3765L76.9068 34.0148L81.9767 41.2332Z" fill="#FD710C"/>
<path d="M50.3812 46.5031C46.67 46.629 46.9567 42.4001 46.9776 42.1416C46.9776 42.1348 46.9776 42.1294 46.9776 42.1294L53.4932 42.2675C53.5802 43.0242 53.7774 46.3894 50.3799 46.5031H50.3812Z" fill="#DBCCAF"/>
<path d="M54.4472 42.1185C54.4472 42.1185 54.4472 42.1253 54.4486 42.1294L46.9646 41.9907L54.1193 33.3765L56.447 33.4649L54.4247 41.9771C54.4247 41.9771 54.4303 42.0288 54.4472 42.1185Z" fill="#EDDCB6"/>
<path d="M64.6175 38.3714L64.5697 37.3457L63.9484 36.9479L63.5081 37.4441L63.5819 36.2217L64.7928 36.0799L64.745 35.0542L64.1236 34.6564L63.6457 35.1555L63.7644 33.2054L63.1431 32.8076L62.5666 35.2539L61.3428 35.3667L61.4471 33.6452L60.8257 33.2474L60.2666 35.4651L58.3432 36.3591L58.9646 36.7569L60.1739 36.6152L60.0827 37.7566L58.168 38.6506L58.7893 39.0484L59.9915 38.9081L59.1891 40.7742L59.8104 41.1721L61.0111 40.8582L61.1371 38.775L62.2958 38.6405L61.5064 40.3345L62.1278 40.7323L63.3285 40.4184L63.4444 38.5074L64.619 38.3699L64.6175 38.3714ZM61.2037 37.6553L61.2747 36.4893L62.4783 36.349L62.3827 37.5468L61.2037 37.6553Z" fill="#14222F"/>
<path d="M63.996 37.9736L63.9482 36.9479L62.8865 37.0463L62.9604 35.8239L64.1712 35.6821L64.1234 34.6564L63.0256 34.7577L63.1443 32.8076L62.0827 33.1664L61.9465 34.8561L60.7227 34.9689L60.8269 33.2474L59.7653 33.6062L59.648 35.0673L58.3662 35.1859L58.3459 36.3606L59.5553 36.2188L59.464 37.3602L58.1909 37.4774L58.1707 38.652L59.3728 38.5117L59.1903 40.7757L60.391 40.4618L60.517 38.3786L61.6757 38.2441L61.5077 40.3359L62.7084 40.022L62.8242 38.111L63.9989 37.9736H63.996ZM60.5836 37.2575L60.6546 36.0915L61.8582 35.9512L61.7626 37.149L60.5836 37.2575Z" fill="#137171"/>
<path d="M59.79 38.0777L58.5603 38.221L58.5675 37.8275L59.8204 37.7117L59.9754 35.7834L58.737 35.928L58.7442 35.5346L60.0043 35.4188L60.1274 33.8883L60.4099 33.7928L60.3128 35.3913L62.3029 35.2076L62.4448 33.4485L62.7272 33.353L62.6172 35.1801L63.7614 35.0745L63.7744 35.3436L62.5998 35.481L62.4796 37.4702L63.5861 37.3674L63.5992 37.6365L62.4622 37.7696L62.3434 39.724L61.9335 39.8311L62.0958 37.8116L60.1549 38.0387L60.026 40.1652L59.6176 40.2723L59.7943 38.0806L59.79 38.0777ZM60.2911 35.7487L60.1738 37.6814L62.1189 37.502L62.2782 35.5172L60.2911 35.7487Z" fill="#FFAF32"/>
<path d="M82.7106 56.0347L80.5176 55.0827L83.0046 55.3872L84.313 53.0708L84.0301 55.4681L86.3529 56.6629L83.8934 56.2415L82.378 58.9061L82.7106 56.0347Z" fill="#EDDCB6"/>
<path d="M42.8671 59.322L40.3999 58.2507L43.1994 58.5933L44.6698 55.9883L44.353 58.6844L46.9646 60.0303L44.1977 59.5562L42.4945 62.553L42.8671 59.322Z" fill="#EDDCB6"/>
<path d="M89.2705 69.1177H73.9529L87.309 72.0353L87.1917 69.9706L89.2705 69.1177Z" fill="#C02E19"/>
<path d="M43.4895 69.1177H59.3648L43.5717 72.0353L39.6707 70.9938L43.4895 69.1177Z" fill="#C02E19"/>
<path d="M64.668 33.3385L68.6959 29.1157L69.4809 29.8361L68.8842 39.7239L70.7772 39.1453L71.5622 39.8657L71.6853 42.0993L64.2147 41.6566L63.4297 40.9348L66.6248 39.4881L67.1158 32.7439L65.4545 34.0589L64.668 33.3385Z" fill="#14222F"/>
<path d="M63.2183 31.5114L66.7856 29L68.696 29.1157L68.0978 39.0021L70.7773 39.1453L70.8989 41.3774L63.4297 40.9348L63.589 38.9066L65.8383 38.7662L66.3308 32.022L64.6681 33.3385L63.2183 31.5114Z" fill="#187B7B"/>
<path d="M64.2249 39.5532L66.4786 39.4129L67.1274 30.5175L64.7796 32.3764L64.2061 31.6531L66.9841 29.6973L67.9704 29.7566L67.3722 39.6501L70.127 39.7962L70.1733 40.6498L64.167 40.2924L64.2249 39.5532Z" fill="#FFAF32"/>
</svg>
