<svg width="124" height="124" viewBox="0 0 124 124" fill="none" xmlns="http://www.w3.org/2000/svg">
<circle cx="62" cy="62" r="62" fill="#FD710C"/>
<path d="M58.7098 80.8224L42.5549 94L45.2784 83.3459L26.8058 85.7818L46.4057 67.0214L20 60.6883L50.9149 54.3037L24.6655 32.1544L58.7098 44.2125V30L73.085 48.9298L69.3484 63.4176L60.0565 70.2591L58.7098 80.8224Z" fill="#00CF70"/>
<path d="M50.9149 59.3268L55.4121 53.9105L64.2921 50.3037L69.1109 49.9769L69.6039 49.3203L76.1663 49.9981L76.7044 50.9301L82.6144 51.4626L90.9324 56.1013L93.716 61.3209L94.4856 67.0216L88.3411 68.9521L87.9563 64.6039L81.3789 57.357L77.005 56.7791L77.6243 62.1651L65.1098 61.5115L65.6419 56.1981L59.1577 57.4538L56.4672 62.1651L50.9149 59.3268Z" fill="#FFAF32"/>
<path d="M92.1385 45.6095L87.3618 43.3673L92.7788 44.0844L95.6286 38.6318L95.0124 44.2751L100.072 47.0921L94.7148 46.0997L91.4141 52.3723L92.1385 45.6095Z" fill="white"/>
<path d="M94.7763 83.819L91.1509 84.4878L94.5267 82.6904L93.9586 78.4209L95.8765 81.8885L99.8897 81.4347L96.4386 83.0505L97.0819 87.9675L94.7763 83.819Z" fill="white"/>
<path d="M74.3927 51.2322L72.2373 51.68L70.4667 50.6209L70.7192 48.7056L74.6572 49.2351L74.3927 51.2322Z" fill="#C02E19"/>
<path d="M66.1078 41.5439L66.0176 38.9962L68.215 37.1171L70.1269 36.7358L71.9577 38.509L73.4096 39.8525L75.1441 40.0855L77.3116 38.9296L78.5922 38.1429L80.5612 38.6391L81.4901 40.3971L82.2356 42.9268L81.8478 45.8497L80.3177 47.6592L76.7103 48.2674L71.7412 47.3536L67.7611 44.9601L66.1078 41.5439Z" fill="#14222F"/>
<path d="M74.0709 38.9385L71.4496 39.1442L69.2521 40.9053L68.3232 44.1218L68.3142 47.2021L70.2592 49.5229L72.6851 50.6213L75.595 50.3339L78.2735 48.7665L79.2505 46.491L79.1332 42.9296L77.3957 40.2033L74.0709 38.9385Z" fill="#E64927"/>
<path d="M69.3874 41.7463L68.5337 41.0836L67.3192 41.0806L66.1709 42.4331L66.2521 44.0338L67.4515 44.7479L69.0387 44.5603" fill="#E64927"/>
<path d="M79.1755 43.5043L80.1524 43.0776L81.3128 43.3681L82.0884 44.9416L81.6254 46.4515L80.3088 46.8448L78.8328 46.276" fill="#E64927"/>
<path d="M68.687 42.8781L67.3493 42.1973L67.0787 42.5483L68.6269 43.3562L68.687 42.8781Z" fill="#C02E19"/>
<path d="M79.4882 44.763L79.6715 45.3319L81.0874 44.9627L81.1325 44.6147L79.4882 44.763Z" fill="#C02E19"/>
<path d="M73.9568 46.1005L72.6461 45.5316L71.3204 46.4333L71.2964 47.5226L73.085 48.9297L75.3246 48.6785L77.014 47.3471L77.5551 45.574L76.3887 44.8901L75.2915 45.1806L73.9568 46.1005Z" fill="white"/>
<path d="M73.6741 43.6797L73.5418 44.7448L72.2372 44.3302L73.6741 43.6797Z" fill="#FFAF32"/>
<path d="M73.9568 46.101L73.085 48.9302L72.4537 48.4339L73.5359 45.9194L73.9568 46.101Z" fill="#14222F"/>
<path d="M74.7083 45.583L75.9708 48.1701L76.56 47.7041L75.066 45.3379L74.7083 45.583Z" fill="#14222F"/>
<path d="M69.604 40.3061L71.564 40.0337L74.2034 40.3878L76.2746 40.6692L78.959 42.0732L77.5612 39.2621L77.7626 37.0321L76.8277 36.0396L75.2285 36.5237L74.1673 35.5161L72.7123 35.9397L72.2404 37.2893L70.56 38.4663" fill="#14222F"/>
<path d="M71.2722 37.846L72.3664 37.7129L74.4557 37.8339L76.3165 38.5238L77.3115 38.9293L76.575 39.5587L75.589 38.9535L74.116 38.5087L72.3634 38.5632L71.9576 38.5087L71.2722 37.846Z" fill="#E64927"/>
<path d="M53.2477 75.1856L55.4151 68.1837L60.0235 64.6374H65.176L65.1098 61.5117L77.6243 62.1653L77.5281 64.0141L82.422 66.1837L84.6796 70.8223L83.9702 79.0073L77.6243 78.5534L77.005 73.0947L74.7745 68.4561L66.661 67.7299L63.0055 70.9131L61.289 76.7318L53.2477 75.1856Z" fill="#137171"/>
<path d="M60.4624 80.8221L62.4073 72.9458L57.7538 74.5555L54.4591 70.2588L53.2477 75.1849L46.4058 78.4619V79.5694L56.2177 79.0066V80.8221H60.4624Z" fill="#C02E19"/>
<path d="M75.3185 82.3865L76.4939 78.002L77.1252 74.1562L79.99 76.2228L84.424 73.7598L83.9701 79.0066L87.4301 83.3457L79.99 82.0446L78.514 83.3457L75.3185 82.3865Z" fill="#C02E19"/>
<path d="M64.4874 60.6885V62.1651L78.2314 62.8762V61.1242L64.4874 60.6885Z" fill="#C02E19"/>
<path d="M69.2553 58.9062L73.518 58.9698L73.6112 59.3359L73.2595 59.6385L73.5601 61.0365L73.2444 63.5177L72.52 64.4042L70.1482 64.3558L69.3485 63.4178L69.108 60.7157L69.6191 59.581L69.2373 59.2815L69.2553 58.9062Z" fill="#E64927"/>
<path d="M88.3411 68.952L86.0625 71.2093L86.5946 72.4348L89.0295 71.2849L90.6288 74.5014H91.9966L91.4645 71.7267L93.1389 74.5014L94.4856 73.5059L94.0528 70.7493L96.2592 72.9703L97.0949 71.1306L94.4856 67.0215L88.3411 68.952Z" fill="#E64927"/>
<path d="M56.7496 62.062L58.7096 64.6038L58.0212 65.7475L55.7576 64.283L53.7495 67.2574L52.3938 67.0729L53.2866 64.395L51.2605 66.9216L50.058 65.7536L50.8516 63.0787L48.3716 64.985L47.7854 63.0515L50.9148 59.3267L56.7496 62.062Z" fill="#E64927"/>
<path d="M69.6038 49.3203L72.2372 51.6805L71.0979 54.077L69.1108 49.9769L69.6038 49.3203Z" fill="#D37B11"/>
<path d="M76.7043 50.93L76.1662 49.998L72.2372 51.6804L72.9556 54.3038L76.7043 50.93Z" fill="#D37B11"/>
<path d="M70.9146 43.0776L70.4667 43.6283L70.5989 44.3334L70.9146 44.4998L71.5639 44.2335V43.5527L71.2272 43.0776H70.9146Z" fill="#14222F"/>
<path d="M75.3155 43.0776L74.8676 43.6283L75.0028 44.3334L75.3155 44.4998L75.9678 44.2335V43.5527L75.6281 43.0776H75.3155Z" fill="#14222F"/>
</svg>
