<svg width="151" height="132" viewBox="0 0 151 132" fill="none" xmlns="http://www.w3.org/2000/svg">
<path d="M70.1646 104.192L37.46 111.749L41.7072 120.647L78.6798 119.418L94.0646 123.921L122.609 123.895L134.308 84.4038L130.047 61.4902L89.3462 64.7454L58.4939 83.3621L70.1646 104.192Z" fill="#00CF70"/>
<path d="M72.9455 108.216L24.4837 105.026L19.9561 95.0236L71.8147 88.8926" fill="#00CF70"/>
<path d="M67.8662 97.1435L15.7869 85.8712L14.9825 72.9907L75.9562 75.8614" fill="#00CF70"/>
<path d="M82.5179 85.0478L32.4772 68.0783L34.4353 58.1958L90.3573 64.6646" fill="#00CF70"/>
<path d="M130.047 61.4902L123.386 42.4345L109.992 31.6714L104.492 37.1114L109.684 49.1709L101.732 66.8523" fill="#00CF70"/>
<path d="M124.409 72.2324L136.27 80.751L151 105.852L126.891 132L122.609 123.895L108.578 119.569" fill="#00CF70"/>
<path d="M122.609 123.894L133.119 110.585L126.891 132L122.609 123.894Z" fill="#078C63"/>
<path d="M24.4837 105.026L22.5554 100.766L64.9589 102.306L60.0153 107.364L24.4837 105.026Z" fill="#078C63"/>
<path d="M15.787 85.8716L15.479 80.9434L70.4679 94.3616L64.6831 97.9077L15.787 85.8716Z" fill="#078C63"/>
<path d="M39.9443 116.955L45.543 117.587L77.9328 114.999L94.0645 123.92L78.6797 119.418L41.7071 120.647L39.9443 116.955Z" fill="#078C63"/>
<path d="M108.199 45.7207L116.583 50.7373L110.975 51.1867L108.348 52.1401L109.684 49.1707L108.199 45.7207Z" fill="#078C63"/>
<path d="M85.501 36.3186C85.0115 36.5161 84.4806 36.6148 83.9773 36.607C82.4581 36.5836 80.9573 35.9783 79.452 36.1783C75.9287 36.6485 73.9292 41.1221 70.6495 42.6523C67.2963 44.2137 63.5432 42.3821 60.2107 40.761C56.8781 39.1399 52.8262 37.7734 49.8155 40.0596C48.425 41.117 47.5195 42.79 46.5013 44.2968C45.4832 45.801 44.1801 47.2558 42.523 47.526C42.3874 47.5494 42.2472 47.5572 42.1093 47.5572L41.9783 44.7904L43.247 44.6527L42.7735 38.9763L41.6841 38.4749L41.3072 30.4395L40.9923 23.7291L39.7076 22.9238L39.4364 21.0663L81.833 15.5977L82.9798 17.3616L82.7569 22.6614L85.501 36.3186Z" fill="#FF6E5F"/>
<path d="M41.9784 44.7906L41.6842 38.4751L42.7736 38.9765L43.247 44.6529L41.9784 44.7906Z" fill="#E64927"/>
<path d="M88.466 51.0772L86.3148 65.254L78.5351 69.9173L50.82 71.4942L44.7019 66.1165L41.3165 55.5456L42.1094 47.5674V47.557C42.2473 47.557 42.3875 47.5492 42.5231 47.5259C44.1802 47.2557 45.4833 45.8008 46.5015 44.2966C47.5196 42.7899 48.4251 41.1168 49.8156 40.0594C52.8264 37.7733 56.8783 39.1398 60.2108 40.7609C63.5433 42.382 67.2964 44.2135 70.6496 42.6522C73.9293 41.122 75.9288 36.6484 79.4521 36.1782C80.9575 35.9781 82.4583 36.5834 83.9774 36.6068C84.4808 36.6146 85.0117 36.5159 85.5012 36.3185L88.466 51.0772Z" fill="#E64927"/>
<path d="M43.247 44.6528L41.9784 44.7905L41.4842 44.8424L41.2544 41.6652L36.3177 38.5814L33.2449 30.1954L36.2051 25.4126L38.7217 24.4722L39.7077 22.9238L40.9924 23.7292L41.3073 30.4396L39.9582 27.1662L38.2689 26.4466L35.6512 30.6085L39.0756 37.2799L41.6842 38.4749L42.7736 38.9763L43.247 44.6528Z" fill="#FF6E5F"/>
<path d="M41.3165 55.5459L56.1681 60.9028L71.9987 59.2142L82.4284 54.6289L86.648 42.0342L88.4637 51.0775L86.3148 65.2543L78.5328 69.9176L50.82 71.4945L44.7019 66.1168L41.3165 55.5459Z" fill="#C02E19"/>
<path d="M82.9913 17.4971L52.948 22.6903L82.766 22.7968L82.9913 17.4971Z" fill="#E64927"/>
<path fill-rule="evenodd" clip-rule="evenodd" d="M96.9487 2.53076L97.4458 2.59131L95.3472 19.8228L95.3237 20.019L95.1724 20.145L84.7241 28.9351L80.8911 62.6274L80.8638 62.8687L80.6567 62.9966L78.2349 64.4907L78.436 66.9116L101.175 70.7202L101.957 68.3716L100.67 65.0591L101.044 64.9136L101.053 64.8628L100.643 64.7925L105.806 34.8003L99.4712 20.6626L99.4185 20.5464L99.4292 20.4194L100.78 3.10693L101.279 3.146L101.777 3.18506L100.435 20.3696L106.782 34.5317L106.844 34.6714L106.819 34.8218L101.652 64.8237L102.954 68.1782L103.019 68.3462L102.962 68.5171L101.991 71.4419L101.855 71.8481L101.433 71.7778L77.8872 67.8345L77.5034 67.77L77.4712 67.3823L77.2144 64.2671L77.189 63.9614L77.4497 63.8003L79.9253 62.2729L83.7544 28.6245L83.7769 28.4272L83.9292 28.2983L94.3774 19.5073L96.4526 2.46924L96.9487 2.53076Z" fill="#EDDCB6"/>
<path d="M95.9995 0L95.3606 7.88466L102.343 9.40184L103.039 1.40287L95.9995 0Z" fill="#00A19E"/>
<path d="M85.6273 29.3872L82.1362 61.4974C82.1362 61.4974 85.5101 68.2104 99.0517 64.5058L104.099 34.0219" fill="#EB7C00"/>
<path d="M93.8068 38.7319L92.2187 48.3442L88.8793 41.0129L89.6101 49.7783L85.8524 47.6714L88.9137 53.9011L94.1079 54.5039L100.414 51.1344L95.5006 50.8876L99.7157 42.7561L94.6273 46.5465L93.8068 38.7319Z" fill="#EDDCB6"/>
<path d="M85.6272 29.3872C85.6272 29.3872 92.8369 26.0463 101.03 26.6231L104.096 34.0219C104.096 34.0219 92.8507 37.472 85.6272 29.3872Z" fill="#FFAF32"/>
<path d="M35.1133 75.2878L48.425 53.4004L98.3025 68.6865L101.43 89.1113L92.3132 84.3181L88.5325 91.2624C87.1581 91.8443 86.2181 92.2418 84.8437 92.8237L35.1133 75.2878Z" fill="#EDDCB6"/>
<path d="M98.3049 68.686L101.433 89.1108L92.3156 84.3177L98.3049 68.686Z" fill="#14222F"/>
<path d="M45.2556 69.0552C45.2419 69.0084 45.2533 68.9435 45.2901 68.8603L45.4096 68.6213L45.6624 68.0056C45.9497 67.2626 46.214 66.6209 46.4576 66.0832C46.5841 65.8026 46.6806 65.6129 46.7472 65.5168C46.8598 65.3531 47.0989 64.8673 47.462 64.0542C47.8435 63.2073 48.117 62.5604 48.2871 62.1162C48.3055 62.0564 48.3376 61.9785 48.3813 61.8823C48.4319 61.7706 48.4778 61.6927 48.5192 61.6511C48.5606 61.6096 48.5951 61.5914 48.6203 61.5966C48.6456 61.6018 48.687 61.6148 48.7467 61.6355L48.9766 61.6927C49.4615 61.8018 49.8384 61.9031 50.1119 62.0018C50.8566 62.2694 51.3277 62.6721 51.5231 63.2099C51.7184 63.7476 51.6702 64.3374 51.3806 64.9816C51.1508 65.4934 50.7738 65.9273 50.2498 66.2832C50.0246 66.4391 49.7902 66.5664 49.5443 66.6651L49.6431 68.2498C49.7212 69.4007 49.7741 70.0528 49.804 70.2112C49.8269 70.3983 49.8292 70.5178 49.8063 70.5672C49.7948 70.5957 49.7695 70.6061 49.7327 70.6009C49.6959 70.5957 49.6661 70.5905 49.6431 70.5801C49.6201 70.5698 49.6017 70.5646 49.5879 70.5594L48.4457 70.1879C48.3928 70.1697 48.3606 70.1281 48.3537 70.071C48.3468 70.0112 48.3445 69.9099 48.3468 69.7644C48.3606 69.6475 48.3629 69.4864 48.356 69.2786C48.3353 68.9772 48.3193 68.4239 48.3055 67.6133L48.2641 66.3897L48.0435 66.9561L47.7332 67.7718C47.3517 68.7252 47.1517 69.2552 47.1333 69.3617C47.1265 69.3929 47.115 69.4293 47.0966 69.4708C47.0391 69.5981 46.9472 69.6371 46.8231 69.5929C46.784 69.58 46.7518 69.5618 46.7288 69.5462C46.6277 69.4942 46.3634 69.4163 45.9313 69.3098C45.6395 69.237 45.4625 69.1903 45.4027 69.1695C45.3154 69.1383 45.2648 69.0993 45.251 69.0552H45.2556ZM49.1329 65.005C49.3604 64.9816 49.5374 64.8284 49.6615 64.5478C49.7534 64.3452 49.7902 64.1841 49.7741 64.0646C49.758 63.9451 49.7028 63.8697 49.6109 63.836C49.5374 63.81 49.4615 63.8152 49.3834 63.8516C49.3742 63.8568 49.3512 63.9061 49.3167 63.9996C49.2822 64.0932 49.2455 64.1841 49.2041 64.2776C49.1696 64.3556 49.1421 64.4101 49.1191 64.4413C49.0386 64.5504 48.9697 64.6699 48.9145 64.7946L48.8617 64.8855L48.8341 64.9739C48.9329 65.0102 49.034 65.0206 49.1329 65.0076V65.005Z" fill="#14222F"/>
<path d="M50.1212 70.645C50.1258 70.619 50.1442 70.5696 50.1764 70.4995C50.204 70.4189 50.2591 70.289 50.3418 70.1072C50.3671 70.05 50.3901 69.9877 50.4154 69.9202C50.4384 69.8526 50.4752 69.7617 50.5257 69.65L51.1715 68.2107C51.2336 68.0704 51.3002 67.9353 51.3715 67.8054C51.4404 67.6756 51.491 67.5794 51.5186 67.5171C51.6909 67.2053 51.8426 66.9014 51.9736 66.6078C52.1368 66.2441 52.2563 65.9531 52.3299 65.7349C52.4241 65.4933 52.5137 65.2725 52.6034 65.0776C52.801 64.636 53.0423 64.1242 53.3273 63.5449C53.3687 63.4539 53.4124 63.3994 53.4606 63.3786C53.5089 63.3578 53.5618 63.3604 53.6215 63.3812L53.7663 63.4462C53.8261 63.4669 53.9203 63.5085 54.049 63.5657C54.1777 63.6228 54.3386 63.6878 54.5316 63.7579C54.7523 63.8358 55.0189 63.9112 55.3337 63.9839C55.7061 64.0852 55.952 64.1554 56.0715 64.1995C56.345 64.2983 56.5886 64.397 56.8069 64.4983L57.1609 64.6386C57.2482 64.6698 57.2942 64.7113 57.3034 64.7633C57.3103 64.8152 57.2896 64.8958 57.239 65.0101C57.2114 65.0724 57.1678 65.1842 57.1126 65.3426C57.0437 65.5297 56.9793 65.6907 56.9196 65.8232C56.8575 65.9635 56.7886 66.0882 56.715 66.1999C56.6599 66.3039 56.5909 66.3376 56.5036 66.3091C56.476 66.2987 56.4438 66.2805 56.4024 66.2493C56.3611 66.2181 56.3312 66.1947 56.3059 66.1792C56.2163 66.122 55.9313 66.0077 55.451 65.8362L55.0763 65.6907C54.9936 65.6518 54.8672 65.605 54.7017 65.5453C54.5822 65.5011 54.4903 65.4725 54.4282 65.4595C54.2214 65.4024 54.0421 65.3452 53.8904 65.2907L53.3664 65.0906C53.3135 65.0724 53.2768 65.0724 53.2607 65.0958C53.2423 65.1192 53.2147 65.1738 53.1733 65.2647C53.1159 65.3894 53.0653 65.4985 53.0171 65.5868C52.8769 65.8622 52.7688 66.0882 52.6907 66.2623L52.4126 66.8832C52.346 67.0313 52.3 67.143 52.2724 67.2235C52.323 67.2495 52.4103 67.2859 52.5367 67.33C52.647 67.3768 52.8769 67.4651 53.2308 67.5898C53.3779 67.6418 53.5939 67.7119 53.8789 67.7977C54.0973 67.86 54.2421 67.9042 54.3087 67.9276C54.4029 67.9613 54.4926 68.0003 54.5822 68.0445C54.6695 68.0886 54.7385 68.1198 54.7844 68.1354C54.8718 68.1666 54.8948 68.2237 54.858 68.3068C54.8465 68.3354 54.8235 68.3744 54.7936 68.4238C54.7638 68.4731 54.7293 68.5407 54.6925 68.6238L54.4512 69.1849C54.4236 69.2473 54.396 69.2889 54.3731 69.3096C54.3478 69.3304 54.3202 69.333 54.2857 69.32C54.265 69.3122 54.2398 69.2966 54.2076 69.2733C54.1754 69.2499 54.1455 69.2317 54.1202 69.2239C54.0605 69.2031 53.9502 69.159 53.7893 69.094C53.6284 69.0291 53.4101 68.9459 53.1297 68.8446C52.8309 68.7381 52.5643 68.6576 52.3322 68.6082C52.1 68.5562 51.9598 68.5225 51.9139 68.5069C51.8403 68.4809 51.799 68.4627 51.7898 68.4497C51.7553 68.4367 51.7369 68.4263 51.7346 68.4186L51.2635 69.4681C51.3094 69.4837 51.3485 69.4941 51.3784 69.4967L51.6634 69.585L52.847 69.9955C53.086 70.0812 53.2745 70.154 53.4124 70.2085L54.0973 70.4657L54.5201 70.606C54.6006 70.6346 54.6443 70.6735 54.6534 70.7203C54.6626 70.7671 54.6534 70.8268 54.6213 70.897L54.5178 71.1022L54.1777 71.8348C54.1271 71.9465 54.072 72.0063 54.0145 72.0141C53.9571 72.0219 53.8858 72.0089 53.8008 71.9751C53.7157 71.9413 53.6468 71.9127 53.5939 71.8946C53.3066 71.7932 53.063 71.6997 52.8608 71.6192L51.8472 71.2425C51.7668 71.2139 51.3623 71.0814 50.636 70.845L50.2522 70.7203L50.1879 70.7099C50.1488 70.6969 50.1304 70.6761 50.135 70.6476L50.1212 70.645Z" fill="#14222F"/>
<path d="M55.3544 72.3442C55.1361 72.0637 54.9959 71.8325 54.9293 71.6558C54.8902 71.5701 54.9017 71.4999 54.9637 71.448C54.9752 71.4376 55.0304 71.3908 55.1246 71.3103C55.2188 71.2297 55.2855 71.1986 55.3246 71.2115L55.3453 71.2193C55.3659 71.2271 55.382 71.2375 55.3935 71.2557C55.405 71.2713 55.4165 71.2999 55.428 71.3337C55.4395 71.37 55.4533 71.4116 55.4717 71.4584C55.5176 71.5805 55.6394 71.7441 55.8417 71.952C56.0416 72.1572 56.2255 72.2897 56.3933 72.352C56.7472 72.4793 57.1172 72.5209 57.5079 72.4767C57.8987 72.4326 58.2089 72.1572 58.4388 71.6454C58.5353 71.4272 58.5307 71.2064 58.4181 70.9803C58.3077 70.7543 58.1078 70.4633 57.8205 70.1074L57.5033 69.7022C57.1632 69.2553 56.9334 68.8241 56.8162 68.4058C56.6989 67.9901 56.7564 67.5173 56.9931 66.9925C57.1885 66.5587 57.4758 66.2236 57.8573 65.9846C58.2388 65.7481 58.6456 65.6079 59.0754 65.5663C59.5075 65.5247 59.8982 65.5663 60.2521 65.6962C60.8313 65.904 61.2059 66.1768 61.3783 66.5145C61.5506 66.8523 61.6403 67.0315 61.6472 67.0497C61.6908 67.1224 61.7023 67.1848 61.6816 67.2316C61.6679 67.2601 61.6426 67.2835 61.6035 67.3017C61.5713 67.3225 61.5047 67.3666 61.4035 67.4368C61.3024 67.5069 61.2358 67.5355 61.2013 67.5225C61.1668 67.5095 61.1323 67.4784 61.0956 67.4238L61.0542 67.3355C60.721 66.7691 60.3762 66.421 60.0154 66.2937C59.5557 66.13 59.1581 66.1144 58.8226 66.2495C58.487 66.3846 58.2434 66.621 58.0917 66.9588C57.963 67.2471 57.9515 67.5251 58.0549 67.8005C58.1607 68.0733 58.3307 68.359 58.5698 68.6552C58.6433 68.7305 58.7237 68.8033 58.8065 68.8734C59.08 69.1254 59.3075 69.3722 59.4891 69.6112C59.6706 69.8502 59.7924 70.1594 59.8568 70.5361C59.9189 70.9128 59.8476 71.3311 59.6385 71.7935C59.2822 72.5858 58.7835 73.0353 58.14 73.1418C57.4965 73.2483 56.8598 73.1886 56.2278 72.9625C55.8624 72.8327 55.5705 72.6248 55.3521 72.3442H55.3544Z" fill="#14222F"/>
<path d="M63.1549 75.2979C62.9848 75.2122 62.6263 75.0719 62.0816 74.8771C61.7483 74.7576 61.507 74.6744 61.3576 74.6303C61.2404 74.5965 61.0542 74.5341 60.7945 74.4406L59.8706 74.0977C59.7672 74.0535 59.6431 74.0042 59.496 73.9522C59.4018 73.9184 59.3466 73.8847 59.3282 73.8483C59.3098 73.8145 59.3121 73.7678 59.3374 73.7106L59.4225 73.5469C59.4408 73.521 59.4592 73.4898 59.4753 73.456C59.4845 73.4352 59.5052 73.3833 59.5328 73.3001C59.5626 73.217 59.627 73.0663 59.7235 72.8507C59.8178 72.6403 59.9649 72.2947 60.1671 71.8141C60.3234 71.414 60.4843 71.0322 60.6474 70.6684C60.7164 70.5152 60.9324 70.0761 61.2979 69.3513C61.3714 69.2058 61.4427 69.0629 61.5162 68.9175C61.5897 68.772 61.6518 68.6421 61.7047 68.5226C62.0701 67.7094 62.2999 67.1717 62.3964 66.9041C62.4516 66.73 62.5872 66.6781 62.7986 66.756C62.8515 66.7742 62.9365 66.8131 63.0492 66.8703C63.148 66.9223 63.2261 66.9586 63.279 66.9768L63.9179 67.182C64.3822 67.3171 64.7384 67.4263 64.9843 67.5172C65.2693 67.6185 65.6692 67.7718 66.1817 67.9718C66.3449 68.0394 66.5196 68.1043 66.7057 68.1719C66.7862 68.2004 66.8252 68.2394 66.8275 68.2888C66.8275 68.3381 66.8184 68.3849 66.7931 68.429C66.7701 68.4732 66.754 68.5018 66.7471 68.5174L66.6942 68.6317C66.623 68.7928 66.5724 68.8681 66.5449 68.8603C66.5058 68.8473 66.4621 68.8239 66.4162 68.7954C66.3702 68.7668 66.3127 68.7408 66.2392 68.7122L63.4077 67.686C63.3686 67.6731 63.2123 67.6289 62.9434 67.5561L62.7044 67.4938L62.5573 67.7692C62.5045 67.8705 62.4263 68.0342 62.3252 68.2602C62.2746 68.3719 62.2149 68.5226 62.1482 68.7096C62.0862 68.8837 62.0379 69.0084 62.0034 69.0837L61.815 69.5046C61.7644 69.6163 61.7276 69.7046 61.707 69.7722C61.7644 69.8007 61.8518 69.8371 61.9713 69.8787L62.3712 70.0216C62.4102 70.0372 62.4953 70.0579 62.6194 70.0865C62.7986 70.1359 62.9503 70.1826 63.079 70.2268C63.1319 70.245 63.3135 70.3229 63.6237 70.458L63.8375 70.5463C63.8903 70.5645 63.9708 70.5879 64.0742 70.6113C64.1799 70.6373 64.2787 70.6659 64.3707 70.6996L64.6947 70.8295C64.8625 70.9049 64.9774 70.9568 65.0441 70.9802C65.1176 71.0062 65.1682 71.0218 65.1981 71.0244L65.2624 71.0348C65.3084 71.0503 65.336 71.0789 65.3406 71.1179C65.3451 71.1569 65.3406 71.188 65.3199 71.214C65.2923 71.2608 65.2601 71.3205 65.2279 71.3933C65.1958 71.466 65.1613 71.531 65.1314 71.5855C65.0992 71.6401 65.074 71.6686 65.0556 71.6738C65.0372 71.679 64.9958 71.6712 64.9292 71.6479L64.5476 71.4634C64.0696 71.2348 63.7547 71.0945 63.603 71.04C63.0377 70.8373 62.6171 70.6996 62.3413 70.6243C62.2287 70.6009 62.1092 70.5645 61.9828 70.5204C61.8563 70.4762 61.7759 70.4476 61.7437 70.4346C61.6173 70.3905 61.5254 70.3515 61.4679 70.3229L61.3622 70.4814C61.2933 70.6035 61.2358 70.7126 61.1921 70.8113C61.1554 70.8945 61.1163 70.9958 61.0795 71.1127C61.0428 71.2296 61.006 71.3309 60.9669 71.4141L60.4153 72.6688L60.1694 73.191C60.1349 73.2508 60.0913 73.3391 60.0407 73.4508C60.1234 73.4898 60.2498 73.5365 60.4153 73.5963C60.5509 73.6535 60.767 73.734 61.0588 73.8405L61.5943 74.0457C61.7047 74.0925 61.8747 74.1574 62.1092 74.2432C62.2493 74.2925 62.4355 74.3523 62.6676 74.4198L63.0905 74.5601C63.2514 74.6173 63.3824 74.6692 63.4858 74.7134C63.5893 74.7576 63.6674 74.7913 63.7203 74.8095C63.7731 74.8277 63.8007 74.8511 63.8007 74.8745C63.8007 74.8978 63.7869 74.9472 63.7547 75.0174C63.7317 75.0667 63.7065 75.1161 63.6766 75.1654C63.6467 75.2148 63.6168 75.272 63.5893 75.3343C63.5663 75.3837 63.5364 75.4096 63.495 75.4174C63.4537 75.4226 63.3962 75.4122 63.3227 75.3863C63.2491 75.3603 63.1917 75.3343 63.148 75.3109L63.1549 75.2979Z" fill="#14222F"/>
<path d="M64.173 75.833C64.1592 75.7862 64.1707 75.7213 64.2075 75.6382L64.327 75.3992L64.5798 74.7834C64.8671 74.0404 65.1314 73.3988 65.375 72.861C65.5014 72.5804 65.5979 72.3908 65.6646 72.2946C65.7772 72.131 66.0162 71.6452 66.3817 70.832C66.7632 69.9851 67.0367 69.3382 67.2044 68.894C67.2228 68.8342 67.255 68.7563 67.2987 68.6602C67.3492 68.5485 67.3952 68.4705 67.4366 68.429C67.4779 68.3874 67.5124 68.3692 67.5377 68.3744C67.563 68.3796 67.6043 68.3926 67.6641 68.4134L67.8939 68.4705C68.3789 68.5796 68.7558 68.681 69.0293 68.7797C69.7739 69.0473 70.2451 69.4499 70.4404 69.9877C70.6358 70.5255 70.5875 71.1152 70.2979 71.7595C70.0681 72.2713 69.6912 72.7051 69.1672 73.061C68.942 73.2169 68.7075 73.3442 68.4616 73.4429L68.5604 75.0277C68.6386 76.1785 68.6914 76.8306 68.7236 76.9891C68.7466 77.1761 68.7489 77.2956 68.7259 77.345C68.7144 77.3736 68.6891 77.384 68.6524 77.3788C68.6156 77.3736 68.5857 77.3684 68.5627 77.358C68.5398 77.3502 68.5214 77.3424 68.5076 77.3372L67.3653 76.9631C67.3125 76.9449 67.2826 76.9033 67.2734 76.8436C67.2665 76.7838 67.2642 76.6825 67.2665 76.537C67.2803 76.4201 67.2826 76.2591 67.2757 76.0512C67.255 75.7525 67.2389 75.1965 67.2251 74.386L67.1838 73.1624L66.9631 73.7287L66.6529 74.5444C66.2713 75.4979 66.0714 76.0278 66.053 76.1344C66.0461 76.1655 66.0346 76.2019 66.0162 76.2435C65.9588 76.3708 65.8668 76.4097 65.7427 76.3656C65.7037 76.35 65.6715 76.3344 65.6462 76.3188C65.5451 76.2669 65.2808 76.1889 64.8487 76.0824C64.5568 76.0097 64.3798 75.9629 64.3201 75.9421C64.2328 75.9109 64.1822 75.872 64.1684 75.8278L64.173 75.833ZM68.0502 71.7829C68.2777 71.7595 68.4547 71.6062 68.5811 71.3256C68.6731 71.123 68.7098 70.9619 68.6937 70.8424C68.6777 70.7229 68.6225 70.6476 68.5306 70.6138C68.457 70.5878 68.3812 70.593 68.303 70.6294C68.2938 70.6346 68.2709 70.6839 68.2364 70.7775C68.2019 70.871 68.1651 70.9619 68.1238 71.0554C68.0893 71.1334 68.0594 71.1879 68.0387 71.2191C67.9583 71.3282 67.8893 71.4477 67.8342 71.5724L67.7813 71.6634L67.7537 71.7517C67.8526 71.7881 67.9514 71.7985 68.0502 71.7855V71.7829Z" fill="#14222F"/>
<path d="M70.7692 78.0072C70.76 77.9916 70.7577 77.976 70.76 77.9604C70.7623 77.9449 70.7623 77.9319 70.76 77.9241L70.8358 77.3421C70.9369 76.6381 70.9921 76.2095 71.0059 76.0614L71.2334 73.8012C71.2334 73.8168 71.2771 73.4972 71.3667 72.8374C71.4426 72.3775 71.5 71.9749 71.5391 71.6293C71.5391 71.541 71.5874 71.2448 71.6839 70.7408L71.7942 70.1589C71.8011 70.0732 71.8172 70.0056 71.8402 69.9563C71.8517 69.9277 71.8678 69.9121 71.8838 69.9121C71.8999 69.9121 71.916 69.9121 71.9298 69.9121C71.9436 69.9121 71.9551 69.9147 71.962 69.9173L72.3113 70.042L72.3412 70.0524C72.401 70.0732 72.4354 70.0992 72.4469 70.1277C72.4561 70.1563 72.4584 70.1875 72.4515 70.2213C72.4446 70.255 72.44 70.281 72.44 70.2966C72.4354 70.4083 72.3849 70.6837 72.2906 71.1201C72.2332 71.4007 72.1642 71.8761 72.0792 72.5438C72.0631 72.6685 72.0309 72.9049 71.985 73.2556C71.939 73.6063 71.8999 73.8609 71.8678 74.0194C71.7873 74.4221 71.7161 74.8923 71.6517 75.4301L71.6149 75.7964C71.5759 76.09 71.5483 76.3342 71.5322 76.5238C71.5276 76.6537 71.5253 76.7264 71.5276 76.742C71.6402 76.6121 71.808 76.4251 72.0286 76.1835C72.2493 75.9419 72.4217 75.76 72.5435 75.6431C72.6676 75.5418 72.9043 75.2872 73.2559 74.8793C73.6099 74.4741 73.9017 74.1337 74.1316 73.8583L75.0417 72.9153C75.3359 72.6217 75.5151 72.4373 75.5795 72.3645C75.7059 72.2398 75.8553 72.0684 76.03 71.8554L76.2621 71.5956C76.3012 71.5436 76.3333 71.515 76.3632 71.5098C76.3931 71.5046 76.4253 71.5202 76.4643 71.5566C76.4988 71.5852 76.5425 71.6086 76.5999 71.6293C76.6574 71.6501 76.6919 71.6631 76.7057 71.6657C76.7447 71.6813 76.7608 71.6969 76.7516 71.7177C76.7447 71.7307 76.7172 71.7618 76.6643 71.8086C76.3632 72.1333 76.1288 72.3619 75.961 72.497C75.8369 72.5984 75.4784 72.988 74.8808 73.6661C74.2833 74.3416 73.8926 74.791 73.7087 75.0092C73.6949 75.0196 73.341 75.4145 72.6446 76.1887C72.2263 76.6563 71.9712 76.9395 71.8816 77.0382C71.723 77.2019 71.546 77.3915 71.3506 77.6097C71.1553 77.828 71.045 77.9501 71.0197 77.9734C70.9806 78.0254 70.9507 78.054 70.9278 78.0618C70.9048 78.0696 70.8726 78.067 70.8335 78.0514C70.7991 78.0384 70.7784 78.0254 70.7715 78.0098L70.7692 78.0072Z" fill="#14222F"/>
<path d="M72.9364 78.6805C72.9456 78.6597 72.9571 78.6441 72.9708 78.6312C72.9777 78.6182 72.9892 78.6 73.0053 78.5818C73.0214 78.5636 73.0467 78.535 73.0789 78.4987L73.3432 78.1427C73.3753 78.1064 73.4305 78.0414 73.5132 77.9479C73.5937 77.8544 73.6603 77.766 73.7155 77.6777C73.8235 77.5218 74.0028 77.288 74.2487 76.9789L74.4601 76.7139C74.7819 76.3242 74.9979 76.0488 75.1106 75.8852L75.5013 75.3786C75.6713 75.1707 75.7771 75.0382 75.8184 74.9811C75.9586 74.7888 76.1448 74.5498 76.3723 74.2641L76.5746 73.9939L76.7332 73.7938C76.9055 73.5782 77.0411 73.4275 77.1354 73.3392C77.1675 73.3028 77.2801 73.1729 77.4755 72.9547C77.6709 72.7365 77.8134 72.5572 77.9076 72.4195C78.0294 72.2689 78.1351 72.1597 78.2224 72.0922C78.3098 72.0273 78.3971 72.0091 78.4844 72.0402C78.5166 72.0506 78.5373 72.0948 78.5419 72.1701C78.5465 72.2455 78.5442 72.3338 78.5373 72.4377C78.5304 72.5416 78.5235 72.6144 78.5166 72.6611C78.5097 72.8144 78.4546 73.1807 78.3466 73.7601L78.2937 74.0822C78.2753 74.142 78.2316 74.5238 78.1604 75.2305L78.0891 75.8774L78.0478 76.4359C77.9857 77.0568 77.9535 77.4361 77.9535 77.5738C77.8524 78.3999 77.7881 78.8961 77.7582 79.065C77.7237 79.265 77.6961 79.5196 77.6755 79.8288C77.6571 80.1379 77.6456 80.3146 77.6433 80.3536C77.6433 80.4107 77.6364 80.4497 77.6249 80.4705C77.6134 80.499 77.5697 80.499 77.4962 80.4705L76.9377 80.2704C76.9101 80.26 76.8917 80.247 76.8802 80.2315C76.8688 80.2159 76.8642 80.1821 76.8711 80.1353C76.8779 80.0496 76.8986 79.9093 76.9308 79.7171C76.9492 79.5196 76.9814 79.3482 77.0227 79.2001C77.0503 79.0884 77.0756 78.9507 77.0986 78.787C77.1216 78.6259 77.1331 78.4987 77.1354 78.4103C77.1354 78.257 77.1491 78.0856 77.179 77.9011L77.225 77.5634C77.225 77.4751 77.225 77.4179 77.2135 77.3945C77.2043 77.3712 77.1813 77.353 77.14 77.3374C76.9998 77.288 76.8963 77.2543 76.8251 77.2361L76.3861 77.1036C76.3286 77.0906 76.0827 77.0075 75.6415 76.849L75.0324 76.6308L75.0117 76.623C74.9727 76.61 74.9244 76.636 74.8692 76.7061L74.8026 76.8048L74.6739 76.9893C74.6417 77.0256 74.5084 77.2153 74.2717 77.553C74.1981 77.6647 74.0947 77.8076 73.9637 77.9791C73.8879 78.1142 73.8051 78.2181 73.7178 78.2934C73.6948 78.309 73.6557 78.3532 73.6029 78.4233C73.5477 78.4935 73.5041 78.5506 73.4673 78.5948C73.4213 78.6441 73.357 78.7273 73.2742 78.8442C73.265 78.8494 73.2512 78.8624 73.2329 78.8831C73.2145 78.9065 73.1984 78.9143 73.1846 78.9143C73.1708 78.9143 73.1478 78.9065 73.1225 78.8987L72.9226 78.826C72.8628 78.8052 72.8674 78.7532 72.9341 78.6727L72.9364 78.6805ZM76.2965 76.2618C76.3838 76.2774 76.4987 76.3112 76.6458 76.3632L77.1813 76.5658C77.2687 76.597 77.3215 76.5866 77.3445 76.5398C77.3606 76.5061 77.3721 76.4203 77.379 76.2826C77.3859 76.1631 77.4134 75.9449 77.464 75.6306C77.5077 75.3786 77.5376 75.1577 77.5536 74.9681C77.5812 74.7343 77.6226 74.4589 77.6732 74.1446C77.7237 73.8302 77.7651 73.6276 77.7881 73.5392C77.8547 73.1314 77.8708 72.9235 77.8386 72.9105C77.8179 72.9027 77.7421 72.9859 77.6111 73.1573L77.4479 73.3678C77.3169 73.5392 77.1491 73.7549 76.9492 74.0121C76.7492 74.2693 76.5746 74.4849 76.4252 74.6615C76.3034 74.8304 76.1448 75.0382 75.9517 75.2902C75.7587 75.5422 75.6162 75.7137 75.5288 75.8046C75.4967 75.841 75.4783 75.8644 75.476 75.8696C75.453 75.9189 75.4622 75.9579 75.499 75.9865C75.5357 76.015 75.5771 76.0358 75.6208 76.0488C75.6667 76.0618 75.6943 76.0696 75.7081 76.0748L76.2965 76.2618Z" fill="#14222F"/>
<path d="M78.0063 80.2416L78.1396 79.9714L78.3557 79.4388L78.5579 78.9634L78.6889 78.6439C78.8268 78.2698 78.9992 77.8515 79.206 77.3891C79.3279 77.1163 79.5048 76.7604 79.7324 76.3213C79.9599 75.8823 80.1392 75.5186 80.2679 75.2328L80.8907 73.8221C80.9344 73.7078 80.9872 73.5805 81.0516 73.4402C81.0861 73.3623 81.155 73.3337 81.2607 73.3493C81.3641 73.3675 81.4699 73.3961 81.5756 73.4376C81.6813 73.4792 81.7526 73.5078 81.7916 73.5208L82.1616 73.6299C82.4466 73.7156 82.6765 73.791 82.8511 73.8533C83.2579 73.9988 83.6395 74.269 83.9957 74.6587C84.3519 75.0509 84.568 75.6095 84.6438 76.3369C84.7197 77.0643 84.5243 77.945 84.0577 78.9816C83.6326 79.9272 83.0971 80.5663 82.4489 80.8988C81.8008 81.2314 81.2102 81.3821 80.677 81.3483C80.1438 81.3145 79.7186 81.2418 79.406 81.1301L78.5832 80.8469C78.4338 80.8027 78.2523 80.7404 78.0385 80.665C77.9121 80.6209 77.9029 80.478 78.0086 80.239L78.0063 80.2416ZM81.2446 78.766C81.7273 78.5477 82.0743 78.21 82.2812 77.7476C82.4788 77.3059 82.4788 76.8955 82.2812 76.5136C82.1915 76.3525 82.072 76.2122 81.9249 76.0927C81.8698 76.2512 81.8215 76.3733 81.7847 76.4564C81.725 76.5889 81.6307 76.7812 81.5043 77.028C81.3848 77.2618 81.2998 77.4332 81.2492 77.5475C81.1665 77.7294 81.0286 78.0204 80.8332 78.423C80.7735 78.5399 80.6884 78.7218 80.5781 78.966C80.7988 78.94 81.0217 78.8725 81.2469 78.766H81.2446Z" fill="#14222F"/>
<path d="M84.1268 80.6288C84.1934 79.9455 84.3819 79.2233 84.6921 78.4647C84.9702 77.849 85.3563 77.306 85.8528 76.8384C86.3492 76.3708 86.8755 76.0383 87.4294 75.8486C87.9833 75.6564 88.4728 75.6382 88.898 75.7889C89.2841 75.9266 89.5668 76.0409 89.7461 76.1292C89.9276 76.2175 90.0701 76.3422 90.1759 76.5033C90.4494 76.9267 90.601 77.4203 90.6286 77.9841C90.6562 78.5478 90.6194 79.0726 90.5114 79.5584C90.4057 80.0442 90.2931 80.4183 90.1782 80.6755C89.9828 81.1094 89.6909 81.59 89.3025 82.12C88.9141 82.6473 88.397 83.0812 87.7489 83.4241C87.1007 83.7644 86.3745 83.7904 85.5701 83.5021C84.4646 83.1072 83.9843 82.1485 84.1245 80.6314L84.1268 80.6288ZM87.781 82.5304C88.4062 82.0342 88.9302 81.3172 89.3508 80.3794C89.6082 79.8052 89.7645 79.2441 89.8219 78.7011C89.8771 78.1556 89.8219 77.6853 89.6564 77.2879C89.491 76.8904 89.2152 76.6228 88.8291 76.4851C88.7969 76.4721 88.7073 76.4409 88.5648 76.389C88.4223 76.337 88.2867 76.3188 88.158 76.3292C88.0293 76.3396 87.9006 76.3786 87.7696 76.4461C87.4455 76.5994 87.1651 76.7449 86.9307 76.8826C86.6962 77.0203 86.4158 77.2541 86.0964 77.5788C85.7769 77.9036 85.5057 78.314 85.2828 78.8128C85.0185 79.4 84.8392 79.9741 84.7473 80.5301C84.6554 81.086 84.6875 81.5796 84.8438 82.0031C85.0001 82.4291 85.315 82.7279 85.7861 82.8967C86.4917 83.1487 87.1559 83.0292 87.781 82.533V82.5304Z" fill="#14222F"/>
<path d="M38.4504 62.2901L44.3846 60.6872L48.5123 62.2901L50.4612 58.8505L43.2998 54.4756L34.9891 56.1253L38.4504 62.2901Z" fill="#FFAF32"/>
<path d="M34.9892 56.1252H30.6408L22.3992 51.2178L17.6532 63.111L27.5382 66.3065L32.5622 72.0167L36.159 73.4507L44.3846 60.6872L34.9892 56.1252Z" fill="#FFAF32"/>
<path d="M44.3845 60.6875L39.0432 62.8775L36.6852 68.5592L40.7646 66.2964L44.3845 60.6875Z" fill="#D37B11"/>
<path d="M25.0926 68.5589L15.9202 65.5869L21.8337 49.3525L31.3256 53.7716L25.0926 68.5589Z" fill="#14222F"/>
<path d="M0 61.9863L21.6407 65.1558L25.8535 54.4758L7.27179 46.1001L0 61.9863Z" fill="#14222F"/>
<path d="M113.053 99.9804C121.916 99.9804 129.102 98.4148 129.102 96.4836C129.102 94.5524 121.916 92.9868 113.053 92.9868C104.189 92.9868 97.0039 94.5524 97.0039 96.4836C97.0039 98.4148 104.189 99.9804 113.053 99.9804Z" fill="#137171"/>
<path d="M113.053 98.64C124.053 98.64 132.97 96.2672 132.97 93.3403C132.97 90.4133 124.053 88.0405 113.053 88.0405C102.053 88.0405 93.136 90.4133 93.136 93.3403C93.136 96.2672 102.053 98.64 113.053 98.64Z" fill="#00A19E"/>
<path d="M107.5 68.1201L105.204 72.5002L107.243 85.6872L117.645 92.9873L126.744 91.6078L131.202 88.1111L129.975 83.466L124.751 84.1518L115.062 79.7769L111.168 68.9982L107.5 68.1201Z" fill="#FFAF32"/>
<path d="M100.362 70.9595L101.697 68.12L104.156 66.9873L106.65 68.12L107.473 69.9931L109.438 76.358L114.689 83.6347L121.552 84.5908L127.824 84.1335L129.458 84.8791L130.396 88.1967L128.978 90.9271L126.316 92.9872H120.145L104.62 86.334L102.998 77.1477L100.362 70.9595Z" fill="#C02E19"/>
<path d="M100.952 71.978L98.6564 76.3581L100.695 89.5477L110.41 95.8762L121.352 95.2917L124.655 91.969L122.713 88.0097L116.827 88.4956L108.514 83.6349L104.62 72.8561L100.952 71.978Z" fill="#FFAF32"/>
<path d="M128.886 85.5054L127.022 88.693" stroke="#FF5C45" stroke-width="2.26" stroke-miterlimit="10"/>
<path d="M126.546 86.1572L129.1 87.3367" stroke="#FF5C45" stroke-width="2.26" stroke-miterlimit="10"/>
<path d="M123.232 89.0693L120.146 92.987L113.648 93.4962L105.204 91.2828L100.695 89.5474L110.41 95.8759L121.352 95.2913L124.655 91.9686L123.232 89.0693Z" fill="#EB7C00"/>
<path d="M106.137 73.0793V70.7178H106.772L107.794 73.7236L106.137 73.0793Z" fill="#EDDCB6"/>
<path d="M116.845 86.3654V84.0039H117.477L118.502 87.0071L116.845 86.3654Z" fill="#EDDCB6"/>
<path d="M110.826 85.7853V83.4238H111.46L112.485 86.427L110.826 85.7853Z" fill="#EDDCB6"/>
<path d="M107.923 76.5269L109.619 77.831L109.373 78.4935L106.999 78.0986L107.923 76.5269Z" fill="#EDDCB6"/>
<path d="M110.934 80.543L112.356 78.8726L112.892 79.2545L112.15 81.8368L110.934 80.543Z" fill="#EDDCB6"/>
<path d="M61.8058 86.396H85.2966V100.887L81.0011 108.094H69.004L63.1158 102.669L61.8058 98.4763V86.396Z" fill="#E64927"/>
<path d="M62.1711 87.7602L60.0383 87.1367L55.8485 91.4233L56.6391 97.2452L61.2219 101.251H63.1203V99.1962H61.3024L58.0618 96.1593L57.9813 92.2286L60.275 90.4413L62.5664 91.3349" fill="#E64927"/>
<path d="M85.2964 92.6699L81.2974 102.56L71.6101 105.018L63.1156 102.669L69.0038 108.094H81.0009L85.2964 100.887V92.6699Z" fill="#C02E19"/>
<path d="M44.911 20.381C45.5614 17.2609 47.8988 15.3488 50.6544 14.5928C53.4101 13.8368 56.2967 14.2083 59.1236 14.4759C61.9505 14.7435 64.8878 14.8864 67.5285 13.7121C69.4085 12.8782 71.0196 11.4234 72.8261 10.3998C74.6325 9.37621 76.8435 8.81506 78.6407 9.85423C80.438 10.8934 80.546 14.572 79.0062 16.0502L44.9133 20.381H44.911Z" fill="#00A19E"/>
<path d="M39.9649 37.6875L38.5492 39.9737L41.2543 41.6623L41.4841 44.8396L41.9782 44.811V38.6098L39.9649 37.6875Z" fill="#E64927"/>
<path d="M40.9923 23.7266L41.3048 30.4396L39.958 27.1636L39.7075 22.9238L40.9923 23.7266Z" fill="#E64927"/>
<path d="M52.0173 44.6918C52.0173 44.6476 52.0219 44.6113 52.0311 44.5827C52.0403 44.5541 52.0449 44.5307 52.0449 44.5074C52.084 44.3957 52.1345 44.1411 52.192 43.7436C52.2104 43.6319 52.2334 43.3513 52.2587 42.8967C52.2839 42.442 52.3 42.1225 52.3092 41.9328L52.323 41.8835C52.323 41.8289 52.2633 41.8003 52.146 41.8003H51.3646C51.275 41.8003 51.2313 41.7796 51.2313 41.7328C51.2313 41.6782 51.2405 41.6289 51.2612 41.5821C51.2819 41.5379 51.3072 41.4808 51.3416 41.408C51.3761 41.3353 51.4037 41.2574 51.4221 41.1664C51.4428 41.0885 51.4795 41.0314 51.5324 40.9924C51.5853 40.9534 51.6381 40.9352 51.6864 40.9352C51.7553 40.969 51.9231 40.9846 52.1874 40.9846C52.2862 40.9846 52.3483 40.956 52.3713 40.9015C52.3966 40.8469 52.408 40.7742 52.408 40.6858C52.408 40.6313 52.4218 40.4936 52.4517 40.278C52.4816 40.0623 52.4954 39.8649 52.4954 39.6882C52.5345 39.4778 52.5896 39.0803 52.6586 38.4932C52.7275 37.9061 52.762 37.5398 52.762 37.3969C52.762 37.2852 52.7482 37.2202 52.7183 37.1968C52.6884 37.176 52.654 37.1631 52.6149 37.1631H52.038C51.93 37.1631 51.8748 37.1085 51.8748 36.9968C51.8955 36.9422 51.9116 36.8929 51.9254 36.8461C51.9392 36.8019 51.9622 36.7526 51.9921 36.6954C52.0518 36.5396 52.1001 36.4408 52.1391 36.3967C52.1989 36.3967 52.2747 36.3889 52.369 36.3707C52.4632 36.3551 52.5574 36.3447 52.6563 36.3447C52.7344 36.3447 52.7896 36.3291 52.8194 36.2954C52.8493 36.2616 52.8769 36.207 52.8999 36.1291C52.9252 36.0512 52.9458 35.9862 52.9665 35.9291C52.9757 35.8745 53.0148 35.6407 53.0837 35.2302C53.1527 34.8197 53.1872 34.4664 53.1872 34.1677C53.1872 33.9572 53.2331 33.8273 53.3274 33.778C53.4216 33.7286 53.5664 33.7026 53.764 33.7026H54.6489C54.7569 33.7026 54.8695 33.7182 54.989 33.752C55.1062 33.7858 55.2005 33.8066 55.2694 33.8195C55.3981 33.8299 55.4602 33.8793 55.4602 33.9702C55.4602 34.0144 55.4487 34.0663 55.4234 34.1287C55.3981 34.191 55.382 34.243 55.3728 34.2872C55.274 34.708 55.2051 35.0639 55.166 35.3497C55.1568 35.4822 55.1315 35.6329 55.0925 35.7992C55.0442 36.0875 55.0327 36.2486 55.0626 36.2824C55.0626 36.3369 55.1108 36.3655 55.2097 36.3655L55.4901 36.3499C55.6969 36.3499 56.0761 36.3057 56.6277 36.2174H58.0458C58.1055 36.2174 58.1446 36.2018 58.163 36.1681C58.1837 36.1343 58.1974 36.0849 58.2066 36.0174C58.2158 35.9498 58.2273 35.9005 58.2365 35.8667C58.2664 35.6459 58.3147 35.3471 58.3836 34.9704C58.4526 34.5937 58.5123 34.3287 58.5606 34.1729C58.5996 33.9079 58.6824 33.8066 58.8111 33.8741C58.8318 33.8741 58.8869 33.8663 58.9812 33.8481C59.0754 33.8325 59.1949 33.8221 59.342 33.8221C59.4316 33.8325 59.4753 33.8663 59.4753 33.9209C59.4753 33.9546 59.45 34.03 59.4017 34.1443C59.3535 34.2612 59.319 34.3625 59.2983 34.4508L59.1949 35.0665C59.0869 35.7524 59.0317 36.1187 59.0317 36.1629C59.0317 36.2512 59.08 36.2954 59.1788 36.2954L59.3857 36.2798C59.4638 36.2798 59.6752 36.2408 60.02 36.1629L60.0797 36.1473C60.128 36.1473 60.1648 36.1707 60.1901 36.2148C60.2153 36.259 60.2268 36.3032 60.2268 36.3473C60.2061 36.3707 60.1901 36.4227 60.1763 36.5058C60.1625 36.5889 60.1441 36.6695 60.1234 36.7474C60.1027 36.8253 60.0614 36.8851 59.997 36.9292C59.9326 36.9734 59.8706 36.9968 59.8131 36.9968H59.0754C58.9375 36.9968 58.8685 37.1137 58.8685 37.3449C58.8387 37.4125 58.8042 37.5891 58.7651 37.8775C58.7261 38.1659 58.6916 38.436 58.6617 38.6906C58.5836 39.0439 58.5008 39.4648 58.4181 39.9532C58.3353 40.4416 58.2917 40.7222 58.2917 40.8001L58.2618 40.9508C58.2618 40.995 58.2756 41.021 58.3055 41.0262C58.3353 41.0314 58.3629 41.0339 58.3859 41.0339H58.4526C58.4709 41.0573 58.5353 41.0677 58.6433 41.0677C58.8111 41.0677 59.0409 41.0391 59.3374 40.9846C59.4362 40.9846 59.5052 41.0158 59.5442 41.0755C59.5833 41.1353 59.5833 41.1846 59.5442 41.2158C59.5442 41.2833 59.5373 41.3587 59.5213 41.4496C59.5075 41.5379 59.4983 41.6393 59.4983 41.7484C59.4684 41.8367 59.4155 41.8809 59.3351 41.8809L59.1719 41.8653L58.7444 41.8991L58.2871 41.9328C58.1883 41.8991 58.1285 41.9146 58.1101 41.9744C58.0894 42.0341 58.0802 42.177 58.0802 42.3979C58.032 42.6758 57.9699 43.0343 57.8964 43.4786C57.8228 43.9228 57.7608 44.2658 57.7125 44.5074C57.7125 44.6295 57.6918 44.7074 57.6527 44.7412C57.6137 44.7749 57.5631 44.7749 57.5057 44.7412C57.4459 44.7412 57.3907 44.7464 57.3356 44.7568C57.2804 44.7672 57.2253 44.7723 57.1655 44.7723C57.1264 44.7723 57.0667 44.762 56.9885 44.7386C56.9104 44.7386 56.8713 44.6996 56.8713 44.6217C56.8713 44.5775 56.8851 44.4996 56.915 44.3879C56.9449 44.2761 56.9679 44.1774 56.9885 44.0891C56.9977 44.0008 57.0529 43.6734 57.1517 43.1097C57.2505 42.5459 57.2988 42.1848 57.2988 42.0289L57.3126 41.912C57.3126 41.8237 57.2781 41.7796 57.2092 41.7796L57.0322 41.7951C56.9839 41.7847 56.8805 41.7796 56.7219 41.7796L55.9405 41.7951L55.0557 41.7614L54.5983 41.7458C54.5776 41.7354 54.5547 41.7302 54.5248 41.7302C54.465 41.7302 54.4191 41.7588 54.3846 41.8133C54.3501 41.8679 54.3317 41.925 54.3317 41.9796C54.3317 42.0679 54.2926 42.3225 54.2145 42.7434C54.1754 42.9876 54.1341 43.3279 54.0881 43.7644C54.0444 44.2008 54.0214 44.4866 54.0214 44.6191C54.0214 44.7074 54.01 44.7697 53.9847 44.8009C53.9594 44.8347 53.9226 44.8503 53.8744 44.8503C53.8353 44.8503 53.7916 44.8451 53.7411 44.8347C53.6928 44.8243 53.6422 44.8113 53.594 44.8009C53.4768 44.7775 53.3572 44.7672 53.24 44.7672C52.9941 44.7672 52.6586 44.7957 52.2357 44.8503C52.0771 44.8503 51.999 44.7957 51.999 44.684L52.0173 44.6918ZM55.4579 40.969L56.3887 40.9352C56.5955 40.969 56.8897 40.9846 57.2735 40.9846C57.3632 40.9846 57.4275 40.9638 57.4735 40.917C57.5172 40.8729 57.5539 40.7794 57.5838 40.6339L57.6275 40.0857C57.6367 39.9974 57.6573 39.7844 57.6872 39.4466C57.7171 39.1089 57.7516 38.8725 57.7906 38.74C57.8895 38.0749 57.9768 37.6281 58.0572 37.3943C58.0664 37.3267 58.0779 37.267 58.0871 37.2124C58.0963 37.1579 58.1009 37.1007 58.1009 37.0462C58.1009 36.9241 58.032 36.8643 57.8941 36.8643C57.8251 36.8643 57.7194 36.8747 57.5769 36.8981C57.4344 36.9215 57.3241 36.937 57.2437 36.9474C56.869 37.015 56.6139 37.0462 56.476 37.0462C56.3174 37.0695 56.1612 37.0799 56.0026 37.0799C55.8555 37.0799 55.7015 37.0695 55.5452 37.0462C55.428 37.002 55.2947 36.9786 55.1476 36.9786C55.0396 36.9786 54.9798 37.002 54.9706 37.0462C54.95 37.1137 54.9224 37.2566 54.881 37.4774L54.8075 37.8593C54.8075 38.0152 54.773 38.3919 54.704 38.9894C54.6351 39.5869 54.5799 39.9376 54.5409 40.0364C54.4719 40.4234 54.4374 40.6391 54.4374 40.6832V40.7664C54.4374 40.8885 54.511 40.9612 54.6581 40.982L55.4556 40.9664L55.4579 40.969Z" fill="#EDDCB6"/>
<path d="M61.1185 46.2038C61.1185 46.1674 61.1139 46.1311 61.107 46.0947C61.0978 46.0583 61.1024 46.0141 61.1185 45.9596C61.1185 45.5621 61.215 45.3387 61.4058 45.2841C61.8539 45.2114 62.286 45.1049 62.702 44.9594C62.7985 44.923 63.0146 44.8503 63.3501 44.7438C64.1017 44.762 64.4947 44.5645 64.5268 44.1488C64.5429 43.8605 64.5498 43.4734 64.5498 42.9876C64.5498 42.4108 64.5406 41.8965 64.5268 41.447V39.0154C64.5429 38.1321 64.5268 37.2852 64.4786 36.4746L64.4556 35.1237C64.4556 34.5106 64.4625 34.0508 64.4786 33.7442L64.5498 31.1229L62.4354 31.8789C61.9229 32.0062 61.6195 32.0686 61.523 32.0686C61.346 32.0686 61.2587 32.0244 61.2587 31.9335C61.2104 31.8425 61.1874 31.736 61.1874 31.6087C61.1713 30.9047 61.1874 30.4475 61.2357 30.2292C61.3 30.05 61.5069 29.8785 61.8608 29.7148C63.4306 29.6239 65.1198 29.0758 66.9286 28.0652C67.1354 27.9924 67.3376 27.9561 67.5284 27.9561C67.7054 27.9561 67.841 27.9872 67.9375 28.0496C68.034 28.1119 68.0823 28.1977 68.0823 28.3068C68.0823 28.9199 68.0662 29.6759 68.034 30.5773L68.0111 31.5516L67.8663 34.0378V35.929L67.9375 37.5787C67.9697 38.1555 67.9858 38.9478 67.9858 39.9584C68.0019 40.1559 68.0087 40.5975 68.0087 41.2833C68.0087 43.0863 68.0639 44.2917 68.1765 44.9048C70.0818 44.9958 71.0356 45.1205 71.0356 45.2841L71.1068 46.4454C71.139 46.8065 70.9621 46.9858 70.5782 46.9858C69.9048 46.9858 69.2958 46.9494 68.7534 46.8767C68.4799 46.8403 68.0317 46.8039 67.4089 46.7675C66.6413 46.8221 65.607 46.8767 64.3108 46.9286L63.3731 46.9026C62.8123 46.9026 62.1803 46.9286 61.4747 46.9832C61.3138 46.9832 61.1943 46.7234 61.1139 46.1986L61.1185 46.2038Z" fill="#EDDCB6"/>
<path d="M117.686 67.9455L114.034 66.0205L118.176 66.6362L120.355 61.9521L119.883 66.7999L123.751 69.2159L119.656 68.3638L117.132 73.7519L117.686 67.9455Z" fill="#EDDCB6"/>
</svg>
