<svg width="124" height="124" viewBox="0 0 124 124" fill="none" xmlns="http://www.w3.org/2000/svg">
<circle cx="62" cy="62" r="62" fill="#D11300"/>
<path d="M59.1026 81.3653L41.3424 85.2361L43.6489 89.7934L63.7267 89.164L72.0813 91.47L87.5825 91.4567L93.9352 71.2301L91.6213 59.4941L69.519 61.1614L52.7648 70.6965L59.1026 81.3653Z" fill="#00CF70"/>
<path d="M60.6127 83.4263L34.2958 81.7924L31.837 76.6695L59.9987 73.5293" fill="#00CF70"/>
<path d="M57.8545 77.7554L29.5731 71.9819L29.1362 65.3848L62.2477 66.8551" fill="#00CF70"/>
<path d="M65.811 71.5598L38.6366 62.8683L39.7 57.8066L70.0682 61.1199" fill="#00CF70"/>
<path d="M91.6213 59.4939L88.0044 49.7339L80.7306 44.2212L77.7439 47.0075L80.5633 53.1842L76.245 62.2403" fill="#00CF70"/>
<path d="M88.5597 64.9961L95.001 69.3592L103 82.2155L89.9076 95.608L87.5824 91.4566L79.9629 89.2411" fill="#00CF70"/>
<path d="M87.5825 91.4568L93.29 84.6401L89.9077 95.6083L87.5825 91.4568Z" fill="#078C63"/>
<path d="M34.2957 81.7925L33.2485 79.6104L56.2756 80.3994L53.591 82.9901L34.2957 81.7925Z" fill="#078C63"/>
<path d="M29.573 71.9817L29.4058 69.4575L59.2673 76.3301L56.1259 78.1464L29.573 71.9817Z" fill="#078C63"/>
<path d="M42.6917 87.9023L45.732 88.2257L63.3211 86.9004L72.0814 91.4697L63.7268 89.1638L43.6489 89.7931L42.6917 87.9023Z" fill="#078C63"/>
<path d="M79.757 51.417L84.31 53.9864L81.2646 54.2166L79.8381 54.7049L80.5632 53.184L79.757 51.417Z" fill="#078C63"/>
<path d="M67.4309 46.6017C67.165 46.7028 66.8767 46.7534 66.6034 46.7494C65.7784 46.7374 64.9634 46.4274 64.1459 46.5298C62.2326 46.7707 61.1468 49.062 59.3658 49.8457C57.5449 50.6454 55.5067 49.7073 53.697 48.877C51.8873 48.0467 49.687 47.3468 48.052 48.5178C47.2969 49.0593 46.8051 49.9162 46.2522 50.688C45.6993 51.4584 44.9917 52.2036 44.0918 52.3419C44.0182 52.3539 43.942 52.3579 43.8672 52.3579L43.796 50.9408L44.485 50.8703L44.2279 47.9629L43.6363 47.7061L43.4316 43.5905L43.2606 40.1536L42.5629 39.7411L42.4156 38.7897L65.439 35.9888L66.0617 36.8923L65.9407 39.6067L67.4309 46.6017Z" fill="#FF6E5F"/>
<path d="M43.7961 50.9412L43.6364 47.7065L44.2279 47.9633L44.485 50.8707L43.7961 50.9412Z" fill="#E64927"/>
<path d="M69.041 54.161L67.8728 61.4222L63.648 63.8106L48.5974 64.6183L45.2751 61.8639L43.4366 56.4497L43.8672 52.3634V52.3581C43.9421 52.3581 44.0183 52.3541 44.0919 52.3421C44.9918 52.2037 45.6994 51.4586 46.2523 50.6882C46.8052 49.9164 47.297 49.0595 48.052 48.5179C49.687 47.347 51.8874 48.0469 53.6971 48.8772C55.5068 49.7075 57.5449 50.6456 59.3659 49.8459C61.1469 49.0622 62.2327 46.7708 64.146 46.53C64.9635 46.4275 65.7785 46.7376 66.6035 46.7496C66.8768 46.7535 67.1651 46.703 67.431 46.6019L69.041 54.161Z" fill="#E64927"/>
<path d="M44.485 50.8704L43.796 50.9409L43.5277 50.9675L43.4029 49.3402L40.722 47.7608L39.0533 43.4656L40.6609 41.0159L42.0275 40.5343L42.5629 39.7412L43.2606 40.1537L43.4316 43.5907L42.699 41.9141L41.7816 41.5455L40.3601 43.6771L42.2197 47.0941L43.6363 47.7062L44.2279 47.963L44.485 50.8704Z" fill="#FF6E5F"/>
<path d="M43.4366 56.4498L51.5017 59.1935L60.0985 58.3286L65.7623 55.9801L68.0538 49.5293L69.0397 54.1611L67.8728 61.4223L63.6468 63.8107L48.5975 64.6184L45.2751 61.864L43.4366 56.4498Z" fill="#C02E19"/>
<path d="M66.0681 36.9619L49.7532 39.6218L65.9457 39.6764L66.0681 36.9619Z" fill="#E64927"/>
<path d="M74.1437 29.3604L73.004 38.1855L72.9777 38.3877L72.8195 38.5137L67.2228 42.9531L65.1544 60.1074L65.1241 60.3545L64.9093 60.4795L63.7267 61.167L63.8048 62.0576L75.7941 63.9512L76.1202 63.0244L75.4591 61.4199L75.8712 61.25L75.8761 61.2207L75.4308 61.1396L78.2189 45.8584L74.8146 38.6934L74.756 38.5713L74.7677 38.4375L75.5011 29.5703L75.9991 29.6113L76.4982 29.6523L75.7745 38.3848L79.1915 45.5771L79.2609 45.7227L79.2325 45.8809L76.4396 61.1758L77.1183 62.8223L77.1906 62.998L77.1271 63.1787L76.5988 64.6768L76.4611 65.0693L76.0499 65.0039L63.2628 62.9844L62.8771 62.9238L62.8429 62.5342L62.7032 60.9385L62.6759 60.623L62.9493 60.4629L64.1906 59.7402L66.256 42.6299L66.2804 42.4258L66.4415 42.2979L72.0382 37.8555L73.1515 29.2314L74.1437 29.3604Z" fill="#EDDCB6"/>
<path d="M73.1324 28L72.7854 32.0384L76.5771 32.8155L76.9552 28.7185L73.1324 28Z" fill="#00A19E"/>
<path d="M67.4997 43.0518L65.6039 59.4981C65.6039 59.4981 67.4361 62.9364 74.7897 61.0389L77.5305 45.4256" fill="#EB7C00"/>
<path d="M71.9417 47.8379L71.0792 52.7611L69.2658 49.0062L69.6627 53.4956L67.6221 52.4165L69.2845 55.6073L72.1052 55.916L75.5299 54.1902L72.8615 54.0638L75.1505 49.899L72.3872 51.8404L71.9417 47.8379Z" fill="#EDDCB6"/>
<path d="M67.4998 43.0516C67.4998 43.0516 71.415 41.3404 75.8644 41.6358L77.5293 45.4254C77.5293 45.4254 71.4225 47.1925 67.4998 43.0516Z" fill="#FFAF32"/>
<path d="M40.0681 66.561L47.297 55.3506L74.3828 63.1799L76.0814 73.6411L71.1303 71.1861L69.0772 74.7429C68.3309 75.0409 67.8204 75.2445 67.074 75.5426L40.0681 66.561Z" fill="#EDDCB6"/>
<path d="M74.384 63.1797L76.0826 73.6409L71.1315 71.186L74.384 63.1797Z" fill="#14222F"/>
<path d="M45.5758 63.3685C45.5683 63.3445 45.5746 63.3113 45.5945 63.2687L45.6594 63.1463L45.7967 62.8309C45.9527 62.4503 46.0963 62.1217 46.2286 61.8463C46.2972 61.7025 46.3496 61.6054 46.3858 61.5562C46.447 61.4724 46.5768 61.2235 46.774 60.807C46.9812 60.3733 47.1297 60.042 47.222 59.8144C47.232 59.7838 47.2495 59.7439 47.2732 59.6947C47.3007 59.6374 47.3256 59.5975 47.3481 59.5762C47.3706 59.5549 47.3893 59.5456 47.403 59.5483C47.4167 59.551 47.4392 59.5576 47.4716 59.5683L47.5965 59.5975C47.8598 59.6534 48.0645 59.7053 48.213 59.7559C48.6174 59.8929 48.8732 60.0992 48.9793 60.3746C49.0854 60.65 49.0592 60.9521 48.9019 61.2821C48.7771 61.5442 48.5725 61.7664 48.2879 61.9487C48.1656 62.0285 48.0383 62.0937 47.9047 62.1443L47.9584 62.956C48.0008 63.5454 48.0295 63.8794 48.0458 63.9606C48.0582 64.0564 48.0595 64.1176 48.047 64.1429C48.0408 64.1575 48.027 64.1628 48.0071 64.1602C47.9871 64.1575 47.9709 64.1549 47.9584 64.1495C47.9459 64.1442 47.9359 64.1416 47.9284 64.1389L47.3081 63.9486C47.2794 63.9393 47.262 63.918 47.2582 63.8887C47.2545 63.8581 47.2532 63.8062 47.2545 63.7317C47.262 63.6718 47.2632 63.5894 47.2595 63.4829C47.2482 63.3286 47.2395 63.0451 47.232 62.63L47.2096 62.0033L47.0897 62.2933L46.9212 62.7111C46.7141 63.1995 46.6055 63.4709 46.5955 63.5255C46.5918 63.5414 46.5855 63.5601 46.5755 63.5814C46.5443 63.6466 46.4944 63.6665 46.427 63.6439C46.4058 63.6373 46.3883 63.6279 46.3758 63.62C46.3209 63.5933 46.1774 63.5534 45.9428 63.4989C45.7842 63.4616 45.6881 63.4377 45.6557 63.427C45.6083 63.411 45.5808 63.3911 45.5733 63.3685H45.5758ZM47.6813 61.2941C47.8049 61.2821 47.901 61.2036 47.9684 61.0599C48.0183 60.9561 48.0383 60.8736 48.0295 60.8124C48.0208 60.7512 47.9908 60.7126 47.9409 60.6953C47.901 60.682 47.8598 60.6846 47.8174 60.7033C47.8124 60.7059 47.7999 60.7312 47.7812 60.7791C47.7625 60.827 47.7425 60.8736 47.72 60.9215C47.7013 60.9614 47.6863 60.9893 47.6738 61.0053C47.6302 61.0612 47.5927 61.1224 47.5628 61.1863L47.5341 61.2328L47.5191 61.2781C47.5727 61.2967 47.6277 61.302 47.6813 61.2954V61.2941Z" fill="#14222F"/>
<path d="M48.218 64.1827C48.2205 64.1694 48.2305 64.1441 48.248 64.1082C48.2629 64.0669 48.2929 64.0004 48.3378 63.9072C48.3516 63.878 48.364 63.846 48.3778 63.8114C48.3903 63.7768 48.4102 63.7303 48.4377 63.673L48.7884 62.9359C48.8221 62.864 48.8583 62.7948 48.897 62.7283C48.9344 62.6618 48.9619 62.6126 48.9768 62.5806C49.0705 62.4209 49.1528 62.2653 49.224 62.1149C49.3126 61.9286 49.3775 61.7796 49.4174 61.6678C49.4686 61.5441 49.5173 61.431 49.5659 61.3312C49.6733 61.105 49.8043 60.8428 49.9591 60.5461C49.9816 60.4996 50.0053 60.4716 50.0315 60.461C50.0577 60.4503 50.0864 60.4516 50.1188 60.4623L50.1975 60.4956C50.2299 60.5062 50.2811 60.5275 50.351 60.5568C50.4209 60.586 50.5082 60.6193 50.6131 60.6552C50.7329 60.6951 50.8777 60.7337 51.0487 60.771C51.2508 60.8229 51.3844 60.8588 51.4493 60.8814C51.5978 60.932 51.7301 60.9826 51.8487 61.0345L52.0409 61.1063C52.0883 61.1223 52.1133 61.1436 52.1183 61.1702C52.122 61.1968 52.1108 61.238 52.0833 61.2966C52.0683 61.3285 52.0446 61.3857 52.0147 61.4669C51.9772 61.5627 51.9423 61.6452 51.9098 61.7131C51.8761 61.7849 51.8387 61.8488 51.7988 61.906C51.7688 61.9592 51.7314 61.9765 51.6839 61.9619C51.669 61.9566 51.6515 61.9473 51.629 61.9313C51.6066 61.9153 51.5903 61.9033 51.5766 61.8954C51.5279 61.8661 51.3732 61.8075 51.1123 61.7197L50.9089 61.6452C50.8639 61.6252 50.7953 61.6013 50.7054 61.5707C50.6405 61.5481 50.5906 61.5334 50.5569 61.5268C50.4446 61.4975 50.3472 61.4682 50.2649 61.4403L49.9803 61.3378C49.9516 61.3285 49.9316 61.3285 49.9229 61.3405C49.9129 61.3525 49.8979 61.3804 49.8755 61.427C49.8443 61.4909 49.8168 61.5467 49.7906 61.592C49.7145 61.733 49.6558 61.8488 49.6134 61.9379L49.4624 62.256C49.4262 62.3318 49.4012 62.389 49.3862 62.4303C49.4137 62.4436 49.4611 62.4622 49.5297 62.4848C49.5897 62.5088 49.7145 62.554 49.9067 62.6179C49.9865 62.6445 50.1039 62.6804 50.2586 62.7243C50.3772 62.7563 50.4558 62.7789 50.492 62.7909C50.5432 62.8082 50.5919 62.8281 50.6405 62.8507C50.688 62.8734 50.7254 62.8893 50.7504 62.8973C50.7978 62.9133 50.8103 62.9425 50.7903 62.9851C50.7841 62.9998 50.7716 63.0197 50.7554 63.045C50.7391 63.0703 50.7204 63.1049 50.7004 63.1475L50.5694 63.4349C50.5544 63.4668 50.5394 63.4881 50.527 63.4987C50.5132 63.5094 50.4983 63.5107 50.4795 63.5041C50.4683 63.5001 50.4546 63.4921 50.4371 63.4801C50.4196 63.4681 50.4034 63.4588 50.3897 63.4548C50.3572 63.4442 50.2973 63.4216 50.2099 63.3883C50.1226 63.355 50.004 63.3125 49.8518 63.2606C49.6895 63.206 49.5447 63.1648 49.4187 63.1395C49.2926 63.1129 49.2165 63.0956 49.1915 63.0876C49.1516 63.0743 49.1291 63.065 49.1241 63.0583C49.1054 63.0517 49.0954 63.0463 49.0942 63.0423L48.8383 63.5799C48.8633 63.5879 48.8845 63.5932 48.9007 63.5945L49.0555 63.6398L49.6982 63.85C49.828 63.8939 49.9304 63.9312 50.0053 63.9591L50.3772 64.0909L50.6068 64.1627C50.6505 64.1773 50.6742 64.1973 50.6792 64.2213C50.6842 64.2452 50.6792 64.2758 50.6618 64.3117L50.6056 64.4169L50.4209 64.7921C50.3934 64.8493 50.3635 64.8799 50.3323 64.8839C50.3011 64.8879 50.2624 64.8812 50.2162 64.8639C50.17 64.8466 50.1326 64.832 50.1039 64.8227C49.9479 64.7708 49.8156 64.7229 49.7057 64.6816L49.1553 64.4887C49.1116 64.4741 48.892 64.4062 48.4976 64.2851L48.2892 64.2213L48.2542 64.2159C48.233 64.2093 48.223 64.1986 48.2255 64.184L48.218 64.1827Z" fill="#14222F"/>
<path d="M51.0598 65.0532C50.9413 64.9095 50.8651 64.7911 50.8289 64.7006C50.8077 64.6567 50.814 64.6208 50.8477 64.5942C50.8539 64.5888 50.8839 64.5649 50.935 64.5236C50.9862 64.4824 51.0224 64.4664 51.0436 64.4731L51.0548 64.4771C51.0661 64.4811 51.0748 64.4864 51.0811 64.4957C51.0873 64.5037 51.0935 64.5183 51.0998 64.5356C51.106 64.5542 51.1135 64.5755 51.1235 64.5995C51.1485 64.662 51.2146 64.7459 51.3244 64.8523C51.433 64.9574 51.5329 65.0253 51.624 65.0572C51.8162 65.1224 52.0171 65.1437 52.2293 65.1211C52.4415 65.0985 52.61 64.9574 52.7348 64.6953C52.7872 64.5835 52.7847 64.4704 52.7235 64.3547C52.6636 64.2389 52.555 64.0899 52.399 63.9076L52.2268 63.7C52.0421 63.4711 51.9173 63.2503 51.8536 63.036C51.79 62.8231 51.8212 62.581 51.9497 62.3122C52.0558 62.09 52.2118 61.9183 52.419 61.7959C52.6262 61.6748 52.8471 61.603 53.0805 61.5817C53.3151 61.5604 53.5273 61.5817 53.7195 61.6482C54.034 61.7547 54.2374 61.8944 54.3311 62.0673C54.4247 62.2403 54.4733 62.3321 54.4771 62.3414C54.5008 62.3787 54.507 62.4106 54.4958 62.4346C54.4883 62.4492 54.4746 62.4612 54.4534 62.4705C54.4359 62.4812 54.3997 62.5038 54.3448 62.5397C54.2899 62.5756 54.2537 62.5903 54.235 62.5836C54.2162 62.577 54.1975 62.561 54.1775 62.5331L54.1551 62.4878C53.9741 62.1977 53.7869 62.0194 53.5909 61.9542C53.3413 61.8704 53.1254 61.8624 52.9432 61.9316C52.761 62.0008 52.6287 62.1219 52.5463 62.2949C52.4764 62.4426 52.4702 62.585 52.5263 62.726C52.5837 62.8657 52.6761 63.0121 52.8059 63.1638C52.8458 63.2024 52.8895 63.2396 52.9345 63.2755C53.083 63.4046 53.2065 63.531 53.3051 63.6534C53.4037 63.7758 53.4699 63.9342 53.5048 64.1271C53.5385 64.3201 53.4998 64.5343 53.3863 64.7711C53.1928 65.177 52.922 65.4072 52.5725 65.4617C52.2231 65.5163 51.8773 65.4857 51.5341 65.3699C51.3357 65.3034 51.1772 65.1969 51.0586 65.0532H51.0598Z" fill="#14222F"/>
<path d="M55.2959 66.566C55.2035 66.5221 55.0088 66.4502 54.7131 66.3504C54.5321 66.2892 54.401 66.2466 54.3199 66.224C54.2563 66.2067 54.1552 66.1748 54.0141 66.1269L53.5124 65.9512C53.4562 65.9286 53.3888 65.9033 53.309 65.8767C53.2578 65.8594 53.2278 65.8421 53.2179 65.8235C53.2079 65.8062 53.2091 65.7822 53.2228 65.753L53.269 65.6691C53.279 65.6558 53.289 65.6399 53.2977 65.6226C53.3027 65.6119 53.314 65.5853 53.3289 65.5427C53.3452 65.5001 53.3801 65.423 53.4325 65.3125C53.4837 65.2048 53.5636 65.0278 53.6734 64.7816C53.7583 64.5767 53.8456 64.3811 53.9343 64.1948C53.9717 64.1163 54.089 63.8914 54.2875 63.5202C54.3274 63.4457 54.3661 63.3725 54.406 63.298C54.446 63.2235 54.4797 63.1569 54.5084 63.0957C54.7068 62.6793 54.8316 62.4038 54.884 62.2668C54.914 62.1776 54.9876 62.151 55.1025 62.1909C55.1312 62.2002 55.1773 62.2202 55.2385 62.2495C55.2922 62.2761 55.3346 62.2947 55.3633 62.304L55.7103 62.4091C55.9624 62.4783 56.1558 62.5342 56.2894 62.5808C56.4441 62.6327 56.6613 62.7112 56.9396 62.8137C57.0282 62.8482 57.1231 62.8815 57.2242 62.9161C57.2679 62.9307 57.2891 62.9507 57.2903 62.976C57.2903 63.0013 57.2853 63.0252 57.2716 63.0478C57.2591 63.0705 57.2504 63.0851 57.2467 63.0931L57.2179 63.1516C57.1793 63.2341 57.1518 63.2727 57.1368 63.2687C57.1156 63.2621 57.0919 63.2501 57.0669 63.2355C57.042 63.2208 57.0108 63.2075 56.9708 63.1929L55.4332 62.6673C55.412 62.6606 55.3271 62.638 55.1811 62.6008L55.0513 62.5688L54.9714 62.7099C54.9427 62.7618 54.9003 62.8456 54.8453 62.9613C54.8179 63.0186 54.7854 63.0957 54.7492 63.1915C54.7155 63.2807 54.6893 63.3446 54.6706 63.3832L54.5683 63.5987C54.5408 63.6559 54.5208 63.7012 54.5096 63.7358C54.5408 63.7504 54.5882 63.769 54.6531 63.7903L54.8703 63.8635C54.8915 63.8715 54.9377 63.8821 55.0051 63.8968C55.1025 63.922 55.1848 63.946 55.2547 63.9686C55.2834 63.9779 55.382 64.0178 55.5505 64.087L55.6666 64.1323C55.6953 64.1416 55.739 64.1536 55.7951 64.1655C55.8525 64.1789 55.9062 64.1935 55.9561 64.2108L56.1321 64.2773C56.2232 64.3159 56.2856 64.3425 56.3218 64.3545C56.3618 64.3678 56.3892 64.3758 56.4054 64.3771L56.4404 64.3824C56.4654 64.3904 56.4803 64.4051 56.4828 64.425C56.4853 64.445 56.4828 64.4609 56.4716 64.4742C56.4566 64.4982 56.4391 64.5288 56.4217 64.5661C56.4042 64.6033 56.3855 64.6366 56.3693 64.6645C56.3518 64.6925 56.338 64.7071 56.3281 64.7098C56.3181 64.7124 56.2956 64.7084 56.2594 64.6965L56.0522 64.602C55.7926 64.4849 55.6217 64.413 55.5393 64.3851C55.2323 64.2813 55.0039 64.2108 54.8541 64.1722C54.7929 64.1602 54.728 64.1416 54.6594 64.119C54.5907 64.0964 54.5471 64.0817 54.5296 64.0751C54.4609 64.0524 54.411 64.0325 54.3798 64.0178L54.3224 64.099C54.285 64.1616 54.2538 64.2174 54.23 64.268C54.2101 64.3106 54.1889 64.3625 54.1689 64.4224C54.1489 64.4822 54.1289 64.5341 54.1077 64.5767L53.8082 65.2194L53.6746 65.4868C53.6559 65.5174 53.6322 65.5627 53.6048 65.6199C53.6497 65.6399 53.7183 65.6638 53.8082 65.6944C53.8818 65.7237 53.9992 65.7649 54.1577 65.8195L54.4485 65.9246C54.5084 65.9486 54.6007 65.9818 54.728 66.0257C54.8042 66.051 54.9053 66.0816 55.0313 66.1162L55.261 66.1881C55.3483 66.2173 55.4195 66.244 55.4756 66.2666C55.5318 66.2892 55.5742 66.3065 55.6029 66.3158C55.6316 66.3251 55.6466 66.3371 55.6466 66.3491C55.6466 66.361 55.6391 66.3863 55.6217 66.4223C55.6092 66.4475 55.5954 66.4728 55.5792 66.4981C55.563 66.5234 55.5468 66.5527 55.5318 66.5846C55.5193 66.6099 55.5031 66.6232 55.4806 66.6272C55.4582 66.6298 55.427 66.6245 55.387 66.6112C55.3471 66.5979 55.3159 66.5846 55.2922 66.5726L55.2959 66.566Z" fill="#14222F"/>
<path d="M55.8488 66.8401C55.8413 66.8162 55.8475 66.7829 55.8675 66.7404L55.9324 66.6179L56.0697 66.3026C56.2257 65.922 56.3692 65.5934 56.5015 65.3179C56.5702 65.1742 56.6226 65.0771 56.6588 65.0279C56.7199 64.944 56.8497 64.6952 57.0482 64.2787C57.2553 63.845 57.4039 63.5136 57.495 63.2861C57.505 63.2555 57.5224 63.2156 57.5462 63.1663C57.5736 63.1091 57.5986 63.0692 57.621 63.0479C57.6435 63.0266 57.6622 63.0173 57.676 63.02C57.6897 63.0226 57.7121 63.0293 57.7446 63.0399L57.8694 63.0692C58.1328 63.1251 58.3374 63.177 58.486 63.2275C58.8903 63.3646 59.1462 63.5708 59.2523 63.8463C59.3584 64.1217 59.3322 64.4238 59.1749 64.7538C59.0501 65.0159 58.8454 65.2381 58.5608 65.4204C58.4385 65.5002 58.3112 65.5654 58.1777 65.616L58.2313 66.4277C58.2738 67.0171 58.3025 67.3511 58.32 67.4323C58.3324 67.5281 58.3337 67.5893 58.3212 67.6146C58.315 67.6292 58.3012 67.6345 58.2813 67.6319C58.2613 67.6292 58.2451 67.6265 58.2326 67.6212C58.2201 67.6172 58.2101 67.6132 58.2026 67.6106L57.5823 67.419C57.5536 67.4096 57.5374 67.3884 57.5324 67.3578C57.5287 67.3272 57.5274 67.2753 57.5287 67.2007C57.5362 67.1409 57.5374 67.0584 57.5337 66.9519C57.5224 66.7989 57.5137 66.5141 57.5062 66.099L57.4838 65.4723L57.3639 65.7624L57.1954 66.1802C56.9883 66.6685 56.8797 66.9399 56.8697 66.9945C56.8659 67.0105 56.8597 67.0291 56.8497 67.0504C56.8185 67.1156 56.7686 67.1355 56.7012 67.1129C56.68 67.1049 56.6625 67.097 56.6488 67.089C56.5939 67.0624 56.4503 67.0224 56.2157 66.9679C56.0572 66.9306 55.9611 66.9067 55.9286 66.896C55.8812 66.8801 55.8538 66.8601 55.8463 66.8375L55.8488 66.8401ZM57.9543 64.7657C58.0778 64.7538 58.1739 64.6752 58.2426 64.5315C58.2925 64.4278 58.3125 64.3453 58.3037 64.2841C58.295 64.2228 58.265 64.1843 58.2151 64.167C58.1752 64.1537 58.134 64.1563 58.0916 64.1749C58.0866 64.1776 58.0741 64.2029 58.0554 64.2508C58.0366 64.2987 58.0167 64.3453 57.9942 64.3932C57.9755 64.4331 57.9593 64.461 57.948 64.477C57.9044 64.5329 57.8669 64.5941 57.837 64.658L57.8083 64.7045L57.7933 64.7498C57.8469 64.7684 57.9006 64.7737 57.9543 64.7671V64.7657Z" fill="#14222F"/>
<path d="M59.4307 67.9543C59.4257 67.9463 59.4245 67.9383 59.4257 67.9303C59.427 67.9223 59.427 67.9157 59.4257 67.9117L59.4669 67.6136C59.5218 67.253 59.5518 67.0335 59.5593 66.9577L59.6828 65.8C59.6828 65.808 59.7066 65.6443 59.7552 65.3064C59.7964 65.0709 59.8276 64.8646 59.8488 64.6876C59.8488 64.6424 59.875 64.4907 59.9275 64.2326L59.9874 63.9345C59.9911 63.8906 59.9999 63.856 60.0123 63.8307C60.0186 63.8161 60.0273 63.8081 60.0361 63.8081C60.0448 63.8081 60.0535 63.8081 60.061 63.8081C60.0685 63.8081 60.0747 63.8094 60.0785 63.8108L60.2682 63.8746L60.2844 63.88C60.3169 63.8906 60.3356 63.9039 60.3418 63.9185C60.3468 63.9332 60.3481 63.9492 60.3443 63.9664C60.3406 63.9837 60.3381 63.9971 60.3381 64.005C60.3356 64.0623 60.3081 64.2033 60.257 64.4268C60.2258 64.5705 60.1883 64.814 60.1421 65.156C60.1334 65.2199 60.1159 65.341 60.091 65.5206C60.066 65.7002 60.0448 65.8306 60.0273 65.9118C59.9836 66.118 59.9449 66.3589 59.91 66.6343L59.89 66.8219C59.8688 66.9723 59.8538 67.0974 59.8451 67.1945C59.8426 67.261 59.8414 67.2983 59.8426 67.3063C59.9038 67.2397 59.9949 67.1439 60.1147 67.0202C60.2345 66.8964 60.3281 66.8033 60.3943 66.7434C60.4616 66.6915 60.5902 66.5611 60.7812 66.3522C60.9734 66.1447 61.1319 65.9703 61.2567 65.8293L61.7509 65.3463C61.9107 65.1959 62.008 65.1015 62.043 65.0642C62.1116 65.0003 62.1927 64.9125 62.2876 64.8034L62.4136 64.6703C62.4349 64.6437 62.4523 64.6291 62.4686 64.6264C62.4848 64.6238 62.5023 64.6318 62.5235 64.6504C62.5422 64.665 62.5659 64.677 62.5971 64.6876C62.6283 64.6983 62.647 64.7049 62.6545 64.7063C62.6757 64.7142 62.6845 64.7222 62.6795 64.7329C62.6757 64.7395 62.6608 64.7555 62.6321 64.7795C62.4686 64.9458 62.3413 65.0629 62.2501 65.1321C62.1827 65.184 61.988 65.3835 61.6635 65.7308C61.339 66.0768 61.1269 66.307 61.027 66.4188C61.0195 66.4241 60.8273 66.6263 60.4492 67.0229C60.222 67.2624 60.0835 67.4074 60.0348 67.458C59.9487 67.5418 59.8526 67.6389 59.7465 67.7507C59.6404 67.8625 59.5805 67.925 59.5668 67.937C59.5456 67.9636 59.5293 67.9782 59.5169 67.9822C59.5044 67.9862 59.4869 67.9849 59.4657 67.9769C59.447 67.9702 59.4357 67.9636 59.432 67.9556L59.4307 67.9543Z" fill="#14222F"/>
<path d="M60.6076 68.2983C60.6126 68.2876 60.6188 68.2797 60.6263 68.273C60.6301 68.2664 60.6363 68.257 60.645 68.2477C60.6538 68.2384 60.6675 68.2238 60.685 68.2051L60.8285 68.0229C60.846 68.0042 60.8759 67.971 60.9209 67.9231C60.9646 67.8752 61.0007 67.8299 61.0307 67.7847C61.0894 67.7048 61.1867 67.5851 61.3203 67.4267L61.4351 67.291C61.6098 67.0914 61.7271 66.9504 61.7883 66.8666L62.0005 66.6071C62.0928 66.5006 62.1502 66.4328 62.1727 66.4035C62.2488 66.305 62.3499 66.1826 62.4735 66.0363L62.5833 65.8979L62.6694 65.7954C62.763 65.685 62.8367 65.6078 62.8878 65.5626C62.9053 65.5439 62.9665 65.4774 63.0726 65.3656C63.1786 65.2539 63.256 65.162 63.3072 65.0915C63.3733 65.0144 63.4308 64.9585 63.4782 64.9239C63.5256 64.8906 63.573 64.8813 63.6205 64.8973C63.6379 64.9026 63.6492 64.9252 63.6517 64.9638C63.6542 65.0024 63.6529 65.0476 63.6492 65.1008C63.6454 65.1541 63.6417 65.1913 63.6379 65.2153C63.6342 65.2938 63.6042 65.4814 63.5456 65.7781L63.5169 65.9431C63.5069 65.9737 63.4832 66.1693 63.4445 66.5312L63.4058 66.8626L63.3833 67.1486C63.3496 67.4667 63.3322 67.6609 63.3322 67.7315C63.2772 68.1546 63.2423 68.4087 63.2261 68.4952C63.2074 68.5977 63.1924 68.7281 63.1811 68.8864C63.1712 69.0448 63.1649 69.1352 63.1637 69.1552C63.1637 69.1845 63.1599 69.2044 63.1537 69.2151C63.1474 69.2297 63.1237 69.2297 63.0838 69.2151L62.7805 69.1126C62.7655 69.1073 62.7556 69.1006 62.7493 69.0927C62.7431 69.0847 62.7406 69.0674 62.7443 69.0434C62.7481 68.9995 62.7593 68.9277 62.7768 68.8292C62.7868 68.7281 62.8042 68.6403 62.8267 68.5644C62.8417 68.5072 62.8554 68.4367 62.8679 68.3528C62.8804 68.2703 62.8866 68.2051 62.8878 68.1599C62.8878 68.0814 62.8953 67.9936 62.9116 67.8991L62.9365 67.7261C62.9365 67.6809 62.9365 67.6516 62.9303 67.6396C62.9253 67.6277 62.9128 67.6183 62.8903 67.6104C62.8142 67.5851 62.758 67.5678 62.7194 67.5585L62.481 67.4906C62.4498 67.484 62.3162 67.4414 62.0766 67.3602L61.7459 67.2484L61.7346 67.2444C61.7134 67.2378 61.6872 67.2511 61.6572 67.287L61.621 67.3376L61.5512 67.4321C61.5337 67.4507 61.4613 67.5478 61.3327 67.7208C61.2928 67.778 61.2366 67.8512 61.1655 67.939C61.1243 68.0082 61.0794 68.0614 61.032 68.1C61.0195 68.108 60.9983 68.1306 60.9695 68.1666C60.9396 68.2025 60.9159 68.2318 60.8959 68.2544C60.871 68.2797 60.836 68.3222 60.7911 68.3821C60.7861 68.3848 60.7786 68.3914 60.7686 68.4021C60.7586 68.4141 60.7499 68.418 60.7424 68.418C60.7349 68.418 60.7224 68.4141 60.7087 68.4101L60.6001 68.3728C60.5677 68.3622 60.5702 68.3355 60.6064 68.2943L60.6076 68.2983ZM62.4323 67.0595C62.4797 67.0675 62.5421 67.0848 62.622 67.1114L62.9128 67.2152C62.9602 67.2311 62.9889 67.2258 63.0014 67.2019C63.0102 67.1846 63.0164 67.1407 63.0201 67.0701C63.0239 67.0089 63.0389 66.8972 63.0663 66.7362C63.09 66.6071 63.1063 66.494 63.115 66.3969C63.13 66.2771 63.1524 66.1361 63.1799 65.975C63.2074 65.814 63.2298 65.7103 63.2423 65.665C63.2785 65.4561 63.2872 65.3497 63.2698 65.343C63.2585 65.339 63.2173 65.3816 63.1462 65.4694L63.0576 65.5772C62.9864 65.665 62.8953 65.7755 62.7868 65.9072C62.6782 66.0389 62.5833 66.1494 62.5022 66.2398C62.436 66.3263 62.3499 66.4328 62.2451 66.5618C62.1402 66.6909 62.0629 66.7787 62.0154 66.8253C61.998 66.8439 61.988 66.8559 61.9867 66.8586C61.9743 66.8839 61.9792 66.9038 61.9992 66.9184C62.0192 66.9331 62.0416 66.9437 62.0654 66.9504C62.0903 66.957 62.1053 66.961 62.1128 66.9637L62.4323 67.0595Z" fill="#14222F"/>
<path d="M63.361 69.0981L63.4334 68.9597L63.5507 68.687L63.6605 68.4435L63.7317 68.2798C63.8066 68.0882 63.9002 67.874 64.0125 67.6371C64.0786 67.4974 64.1747 67.3151 64.2983 67.0902C64.4219 66.8654 64.5192 66.6791 64.5891 66.5327L64.9273 65.8102C64.951 65.7516 64.9798 65.6864 65.0147 65.6146C65.0334 65.5747 65.0709 65.56 65.1283 65.568C65.1844 65.5773 65.2419 65.592 65.2993 65.6133C65.3567 65.6345 65.3954 65.6492 65.4166 65.6558L65.6175 65.7117C65.7723 65.7556 65.8971 65.7942 65.9919 65.8262C66.2129 65.9007 66.42 66.0391 66.6135 66.2386C66.8069 66.4396 66.9243 66.7256 66.9655 67.0982C67.0066 67.4708 66.9005 67.9219 66.6472 68.4528C66.4163 68.9371 66.1255 69.2644 65.7735 69.4348C65.4216 69.6051 65.1008 69.6823 64.8113 69.665C64.5217 69.6477 64.2908 69.6104 64.1211 69.5532L63.6743 69.4082C63.5931 69.3855 63.4945 69.3536 63.3785 69.315C63.3098 69.2924 63.3048 69.2192 63.3622 69.0968L63.361 69.0981ZM65.1195 68.3423C65.3816 68.2306 65.5701 68.0576 65.6824 67.8207C65.7898 67.5945 65.7898 67.3843 65.6824 67.1887C65.6338 67.1062 65.5688 67.0343 65.489 66.9731C65.459 67.0543 65.4328 67.1168 65.4128 67.1594C65.3804 67.2273 65.3292 67.3258 65.2606 67.4522C65.1957 67.5719 65.1495 67.6597 65.122 67.7183C65.0771 67.8114 65.0022 67.9604 64.8961 68.1667C64.8637 68.2266 64.8175 68.3197 64.7576 68.4448C64.8774 68.4315 64.9985 68.3969 65.1208 68.3423H65.1195Z" fill="#14222F"/>
<path d="M66.6846 69.2969C66.7208 68.947 66.8231 68.5771 66.9916 68.1885C67.1426 67.8732 67.3523 67.5951 67.6219 67.3556C67.8914 67.1161 68.1773 66.9458 68.478 66.8486C68.7788 66.7502 69.0447 66.7408 69.2756 66.818C69.4852 66.8885 69.6388 66.9471 69.7361 66.9923C69.8347 67.0376 69.9121 67.1014 69.9695 67.1839C70.118 67.4008 70.2004 67.6536 70.2154 67.9424C70.2303 68.2311 70.2104 68.4999 70.1517 68.7487C70.0943 68.9975 70.0331 69.1892 69.9707 69.3209C69.8647 69.5431 69.7062 69.7893 69.4952 70.0607C69.2843 70.3308 69.0035 70.553 68.6515 70.7287C68.2996 70.903 67.9052 70.9163 67.4683 70.7686C66.868 70.5663 66.6072 70.0753 66.6833 69.2983L66.6846 69.2969ZM68.669 70.2709C69.0085 70.0168 69.293 69.6495 69.5214 69.1692C69.6612 68.8751 69.7461 68.5877 69.7773 68.3096C69.8072 68.0302 69.7773 67.7894 69.6874 67.5858C69.5976 67.3822 69.4478 67.2451 69.2381 67.1746C69.2207 67.168 69.172 67.152 69.0946 67.1254C69.0172 67.0988 68.9436 67.0895 68.8737 67.0948C68.8038 67.1001 68.7339 67.1201 68.6628 67.1547C68.4868 67.2332 68.3345 67.3077 68.2072 67.3782C68.0799 67.4487 67.9276 67.5685 67.7542 67.7348C67.5807 67.9011 67.4334 68.1114 67.3123 68.3668C67.1688 68.6676 67.0715 68.9616 67.0215 69.2464C66.9716 69.5311 66.9891 69.7839 67.074 70.0008C67.1588 70.219 67.3298 70.3721 67.5857 70.4586C67.9688 70.5876 68.3295 70.5264 68.669 70.2723V70.2709Z" fill="#14222F"/>
<path d="M41.8803 59.9038L45.1029 59.0829L47.3444 59.9038L48.4028 58.1421L44.5138 55.9014L40.0007 56.7463L41.8803 59.9038Z" fill="#FFAF32"/>
<path d="M40.0008 56.7464H37.6394L33.1638 54.2329L30.5865 60.3244L35.9545 61.9611L38.6828 64.8858L40.6361 65.6203L45.1029 59.083L40.0008 56.7464Z" fill="#FFAF32"/>
<path d="M45.1029 59.083L42.2024 60.2047L40.9219 63.1147L43.1372 61.9558L45.1029 59.083Z" fill="#D37B11"/>
<path d="M34.6265 63.1145L29.6454 61.5923L32.8567 53.2773L38.0113 55.5407L34.6265 63.1145Z" fill="#14222F"/>
<path d="M21 59.7485L32.7519 61.3718L35.0396 55.9017L24.9489 51.6118L21 59.7485Z" fill="#14222F"/>
<path d="M82.3929 79.208C87.2063 79.208 91.1083 78.4061 91.1083 77.417C91.1083 76.4278 87.2063 75.626 82.3929 75.626C77.5796 75.626 73.6776 76.4278 73.6776 77.417C73.6776 78.4061 77.5796 79.208 82.3929 79.208Z" fill="#137171"/>
<path d="M82.393 78.5217C88.3664 78.5217 93.2088 77.3064 93.2088 75.8072C93.2088 74.3081 88.3664 73.0928 82.393 73.0928C76.4196 73.0928 71.5771 74.3081 71.5771 75.8072C71.5771 77.3064 76.4196 78.5217 82.393 78.5217Z" fill="#00A19E"/>
<path d="M79.3776 62.8896L78.1307 65.1331L79.2378 71.8872L84.8866 75.6262L89.8277 74.9197L92.249 73.1287L91.5825 70.7495L88.7456 71.1008L83.4837 68.8601L81.3695 63.3394L79.3776 62.8896Z" fill="#FFAF32"/>
<path d="M75.5011 64.3441L76.2262 62.8897L77.5617 62.3096L78.9158 62.8897L79.3627 63.8491L80.4298 67.1091L83.2816 70.8361L87.0084 71.3258L90.4144 71.0916L91.3018 71.4735L91.811 73.1726L91.0409 74.5711L89.5956 75.6263H86.2446L77.8138 72.2186L76.9326 67.5136L75.5011 64.3441Z" fill="#C02E19"/>
<path d="M75.8218 64.8652L74.575 67.1086L75.682 73.8641L80.9576 77.1055L86.8997 76.8061L88.6932 75.1043L87.6386 73.0764L84.4423 73.3252L79.928 70.8357L77.8137 65.315L75.8218 64.8652Z" fill="#FFAF32"/>
<path d="M90.9909 71.7939L89.9788 73.4266" stroke="#FF5C45" stroke-width="2.26" stroke-miterlimit="10"/>
<path d="M89.7205 72.1279L91.1071 72.732" stroke="#FF5C45" stroke-width="2.26" stroke-miterlimit="10"/>
<path d="M87.9207 73.6196L86.2445 75.6262L82.7162 75.887L78.1307 74.7533L75.682 73.8645L80.9576 77.1058L86.8997 76.8064L88.6932 75.1046L87.9207 73.6196Z" fill="#EB7C00"/>
<path d="M78.6376 65.4297V64.2202H78.982L79.5374 65.7597L78.6376 65.4297Z" fill="#EDDCB6"/>
<path d="M84.4523 72.2344V71.0249H84.7955L85.3521 72.5631L84.4523 72.2344Z" fill="#EDDCB6"/>
<path d="M81.1836 71.9375V70.728H81.5281L82.0847 72.2662L81.1836 71.9375Z" fill="#EDDCB6"/>
<path d="M79.6072 67.1953L80.5283 67.8633L80.3947 68.2026L79.1055 68.0003L79.6072 67.1953Z" fill="#EDDCB6"/>
<path d="M81.2423 69.2521L82.0149 68.3965L82.3057 68.5921L81.9025 69.9147L81.2423 69.2521Z" fill="#EDDCB6"/>
<path d="M54.5634 72.2505H67.32V79.6726L64.9873 83.3637H58.4723L55.2748 80.5854L54.5634 78.4378V72.2505Z" fill="#E64927"/>
<path d="M54.7617 72.9492L53.6035 72.6299L51.3282 74.8254L51.7576 77.8073L54.2463 79.8591H55.2772V78.8066H54.2899L52.5301 77.2511L52.4865 75.2379L53.732 74.3224L54.9764 74.7801" fill="#E64927"/>
<path d="M67.32 75.4639L65.1483 80.5295L59.8877 81.7882L55.2748 80.5854L58.4724 83.3637H64.9873L67.32 79.6726V75.4639Z" fill="#C02E19"/>
<path d="M45.3887 38.4385C45.7419 36.8405 47.0112 35.8611 48.5076 35.4739C50.0041 35.0867 51.5717 35.277 53.1068 35.4141C54.6419 35.5511 56.237 35.6243 57.671 35.0229C58.6919 34.5957 59.5668 33.8506 60.5478 33.3263C61.5288 32.8021 62.7295 32.5147 63.7055 33.0469C64.6815 33.5791 64.7401 35.4633 63.9039 36.2204L45.3899 38.4385H45.3887Z" fill="#00A19E"/>
<path d="M42.7028 47.3032L41.934 48.4742L43.4029 49.3391L43.5278 50.9664L43.7961 50.9517V47.7756L42.7028 47.3032Z" fill="#E64927"/>
<path d="M43.2607 40.1524L43.4304 43.5907L42.699 41.9128L42.563 39.7412L43.2607 40.1524Z" fill="#E64927"/>
<path d="M49.2476 50.8902C49.2476 50.8676 49.2501 50.8489 49.2551 50.8343C49.2601 50.8197 49.2626 50.8077 49.2626 50.7957C49.2838 50.7385 49.3113 50.6081 49.3425 50.4045C49.3525 50.3473 49.365 50.2036 49.3787 49.9707C49.3924 49.7379 49.4012 49.5742 49.4061 49.4771L49.4136 49.4518C49.4136 49.4239 49.3812 49.4092 49.3175 49.4092H48.8932C48.8445 49.4092 48.8208 49.3986 48.8208 49.3746C48.8208 49.3467 48.8258 49.3214 48.837 49.2975C48.8483 49.2748 48.862 49.2456 48.8807 49.2083C48.8994 49.171 48.9144 49.1311 48.9244 49.0846C48.9356 49.0446 48.9556 49.0154 48.9843 48.9954C49.013 48.9754 49.0417 48.9661 49.0679 48.9661C49.1054 48.9834 49.1965 48.9914 49.34 48.9914C49.3937 48.9914 49.4274 48.9768 49.4398 48.9488C49.4536 48.9209 49.4598 48.8836 49.4598 48.8384C49.4598 48.8105 49.4673 48.7399 49.4835 48.6295C49.4998 48.519 49.5072 48.4179 49.5072 48.3274C49.5285 48.2197 49.5584 48.0161 49.5959 47.7154C49.6333 47.4146 49.652 47.227 49.652 47.1538C49.652 47.0966 49.6445 47.0634 49.6283 47.0514C49.6121 47.0407 49.5934 47.0341 49.5721 47.0341H49.2589C49.2002 47.0341 49.1703 47.0061 49.1703 46.9489C49.1815 46.921 49.1902 46.8957 49.1977 46.8718C49.2052 46.8491 49.2177 46.8239 49.2339 46.7946C49.2664 46.7147 49.2926 46.6642 49.3138 46.6416C49.3462 46.6416 49.3874 46.6376 49.4386 46.6283C49.4898 46.6203 49.5409 46.6149 49.5946 46.6149C49.637 46.6149 49.667 46.607 49.6832 46.5897C49.6994 46.5724 49.7144 46.5444 49.7269 46.5045C49.7406 46.4646 49.7519 46.4313 49.7631 46.4021C49.7681 46.3741 49.7893 46.2544 49.8268 46.0441C49.8642 45.8339 49.8829 45.6529 49.8829 45.4999C49.8829 45.3921 49.9079 45.3256 49.959 45.3003C50.0102 45.275 50.0888 45.2617 50.1962 45.2617H50.6767C50.7354 45.2617 50.7965 45.2697 50.8614 45.287C50.9251 45.3043 50.9762 45.3149 51.0137 45.3216C51.0836 45.3269 51.1173 45.3522 51.1173 45.3988C51.1173 45.4214 51.111 45.448 51.0973 45.4799C51.0836 45.5119 51.0748 45.5385 51.0698 45.5611C51.0162 45.7767 50.9787 45.959 50.9575 46.1053C50.9525 46.1732 50.9388 46.2504 50.9176 46.3355C50.8914 46.4832 50.8851 46.5657 50.9013 46.583C50.9013 46.611 50.9276 46.6256 50.9812 46.6256L51.1335 46.6176C51.2458 46.6176 51.4517 46.595 51.7513 46.5497H52.5214C52.5538 46.5497 52.575 46.5418 52.585 46.5245C52.5962 46.5072 52.6037 46.4819 52.6087 46.4473C52.6137 46.4127 52.62 46.3874 52.6249 46.3701C52.6412 46.257 52.6674 46.104 52.7048 45.9111C52.7423 45.7181 52.7747 45.5824 52.8009 45.5026C52.8221 45.3668 52.8671 45.3149 52.937 45.3495C52.9482 45.3495 52.9782 45.3455 53.0293 45.3362C53.0805 45.3282 53.1454 45.3229 53.2253 45.3229C53.2739 45.3283 53.2977 45.3455 53.2977 45.3735C53.2977 45.3908 53.2839 45.4294 53.2577 45.4879C53.2315 45.5478 53.2128 45.5997 53.2016 45.6449L53.1454 45.9603C53.0867 46.3116 53.0568 46.4992 53.0568 46.5218C53.0568 46.567 53.083 46.5897 53.1367 46.5897L53.249 46.5817C53.2914 46.5817 53.4062 46.5617 53.5935 46.5218L53.6259 46.5138C53.6521 46.5138 53.6721 46.5258 53.6858 46.5484C53.6995 46.571 53.7058 46.5937 53.7058 46.6163C53.6945 46.6283 53.6858 46.6549 53.6783 46.6974C53.6708 46.74 53.6608 46.7813 53.6496 46.8212C53.6384 46.8611 53.6159 46.8917 53.581 46.9143C53.546 46.937 53.5123 46.9489 53.4811 46.9489H53.0805C53.0056 46.9489 52.9682 47.0088 52.9682 47.1272C52.9519 47.1618 52.9332 47.2523 52.912 47.4C52.8908 47.5477 52.8721 47.6861 52.8558 47.8165C52.8134 47.9974 52.7685 48.213 52.7235 48.4632C52.6786 48.7133 52.6549 48.857 52.6549 48.8969L52.6387 48.9741C52.6387 48.9967 52.6462 49.01 52.6624 49.0127C52.6786 49.0154 52.6936 49.0167 52.7061 49.0167H52.7423C52.7522 49.0287 52.7872 49.034 52.8459 49.034C52.937 49.034 53.0618 49.0194 53.2228 48.9914C53.2764 48.9914 53.3139 49.0074 53.3351 49.038C53.3563 49.0686 53.3563 49.0939 53.3351 49.1098C53.3351 49.1444 53.3314 49.183 53.3226 49.2296C53.3151 49.2748 53.3101 49.3267 53.3101 49.3826C53.2939 49.4279 53.2652 49.4505 53.2215 49.4505L53.1329 49.4425L52.9008 49.4598L52.6524 49.4771C52.5987 49.4598 52.5663 49.4678 52.5563 49.4984C52.5451 49.529 52.5401 49.6022 52.5401 49.7153C52.5139 49.8576 52.4802 50.0413 52.4402 50.2688C52.4003 50.4963 52.3666 50.672 52.3404 50.7957C52.3404 50.8583 52.3291 50.8982 52.3079 50.9155C52.2867 50.9328 52.2593 50.9328 52.2281 50.9155C52.1956 50.9155 52.1657 50.9181 52.1357 50.9235C52.1057 50.9288 52.0758 50.9314 52.0433 50.9314C52.0221 50.9314 51.9897 50.9261 51.9472 50.9141C51.9048 50.9141 51.8836 50.8942 51.8836 50.8543C51.8836 50.8316 51.8911 50.7917 51.9073 50.7345C51.9235 50.6773 51.936 50.6267 51.9472 50.5815C51.9522 50.5362 51.9822 50.3686 52.0359 50.0799C52.0895 49.7911 52.1157 49.6062 52.1157 49.5263L52.1232 49.4664C52.1232 49.4212 52.1045 49.3986 52.0671 49.3986L51.9709 49.4066C51.9447 49.4012 51.8886 49.3986 51.8025 49.3986L51.3781 49.4066L50.8976 49.3893L50.6492 49.3813C50.638 49.376 50.6255 49.3733 50.6093 49.3733C50.5768 49.3733 50.5519 49.3879 50.5332 49.4159C50.5144 49.4438 50.5045 49.4731 50.5045 49.501C50.5045 49.5463 50.4832 49.6767 50.4408 49.8922C50.4196 50.0173 50.3971 50.1916 50.3722 50.4152C50.3484 50.6387 50.336 50.7851 50.336 50.8529C50.336 50.8982 50.3297 50.9301 50.316 50.9461C50.3023 50.9634 50.2823 50.9714 50.2561 50.9714C50.2349 50.9714 50.2112 50.9687 50.1837 50.9634C50.1575 50.9581 50.13 50.9514 50.1038 50.9461C50.0402 50.9341 49.9753 50.9288 49.9116 50.9288C49.7781 50.9288 49.5959 50.9434 49.3662 50.9714C49.2801 50.9714 49.2377 50.9434 49.2377 50.8862L49.2476 50.8902ZM51.116 48.9834L51.6215 48.9661C51.7338 48.9834 51.8936 48.9914 52.102 48.9914C52.1507 48.9914 52.1856 48.9808 52.2106 48.9568C52.2343 48.9342 52.2543 48.8863 52.2705 48.8118L52.2942 48.531C52.2992 48.4858 52.3104 48.3767 52.3267 48.2037C52.3429 48.0307 52.3616 47.9096 52.3828 47.8418C52.4365 47.5011 52.4839 47.2723 52.5276 47.1525C52.5326 47.1179 52.5388 47.0873 52.5438 47.0594C52.5488 47.0314 52.5513 47.0022 52.5513 46.9742C52.5513 46.9117 52.5139 46.8811 52.439 46.8811C52.4015 46.8811 52.3441 46.8864 52.2667 46.8984C52.1894 46.9103 52.1295 46.9183 52.0858 46.9236C51.8823 46.9582 51.7438 46.9742 51.6689 46.9742C51.5828 46.9862 51.4979 46.9915 51.4118 46.9915C51.3319 46.9915 51.2483 46.9862 51.1634 46.9742C51.0998 46.9516 51.0274 46.9396 50.9475 46.9396C50.8889 46.9396 50.8564 46.9516 50.8514 46.9742C50.8402 47.0088 50.8252 47.082 50.8027 47.1951L50.7628 47.3907C50.7628 47.4705 50.7441 47.6635 50.7066 47.9695C50.6692 48.2755 50.6393 48.4552 50.618 48.5057C50.5806 48.704 50.5619 48.8144 50.5619 48.8371V48.8796C50.5619 48.9422 50.6018 48.9794 50.6817 48.9901L51.1148 48.9821L51.116 48.9834Z" fill="#EDDCB6"/>
<path d="M54.1901 51.665C54.1901 51.6464 54.1876 51.6278 54.1838 51.6091C54.1788 51.5905 54.1813 51.5679 54.1901 51.54C54.1901 51.3364 54.2425 51.2219 54.3461 51.194C54.5894 51.1567 54.8241 51.1022 55.05 51.0277C55.1024 51.009 55.2197 50.9718 55.4019 50.9172C55.8101 50.9265 56.0235 50.8254 56.041 50.6125C56.0497 50.4648 56.0534 50.2666 56.0534 50.0177C56.0534 49.7223 56.0484 49.4589 56.041 49.2287V47.9832C56.0497 47.5308 56.041 47.0971 56.0147 46.6819L56.0023 45.99C56.0023 45.676 56.006 45.4405 56.0147 45.2834L56.0534 43.9409L54.9052 44.3281C54.6269 44.3933 54.4621 44.4252 54.4097 44.4252C54.3136 44.4252 54.2662 44.4026 54.2662 44.356C54.24 44.3094 54.2275 44.2549 54.2275 44.1897C54.2188 43.8291 54.2275 43.5949 54.2537 43.4831C54.2887 43.3913 54.401 43.3035 54.5932 43.2197C55.4456 43.1731 56.363 42.8923 57.3452 42.3747C57.4575 42.3375 57.5674 42.3188 57.671 42.3188C57.7671 42.3188 57.8407 42.3348 57.8931 42.3667C57.9455 42.3987 57.9717 42.4426 57.9717 42.4985C57.9717 42.8125 57.963 43.1997 57.9455 43.6614L57.933 44.1604L57.8544 45.4338V46.4025L57.8931 47.2474C57.9106 47.5428 57.9193 47.9486 57.9193 48.4663C57.9281 48.5674 57.9318 48.7936 57.9318 49.1449C57.9318 50.0683 57.9618 50.6857 58.0229 50.9997C59.0576 51.0463 59.5755 51.1102 59.5755 51.194L59.6142 51.7888C59.6317 51.9737 59.5356 52.0655 59.3271 52.0655C58.9615 52.0655 58.6307 52.0469 58.3362 52.0097C58.1877 51.991 57.9443 51.9724 57.606 51.9538C57.1892 51.9817 56.6276 52.0097 55.9236 52.0363L55.4144 52.023C55.1099 52.023 54.7667 52.0363 54.3835 52.0642C54.2961 52.0642 54.2312 51.9312 54.1876 51.6624L54.1901 51.665Z" fill="#EDDCB6"/>
<path d="M84.9091 62.8007L82.9259 61.8147L85.1749 62.13L86.3581 59.731L86.1023 62.2139L88.2028 63.4513L85.9787 63.0149L84.6083 65.7746L84.9091 62.8007Z" fill="#EDDCB6"/>
</svg>
