<svg width="124" height="124" viewBox="0 0 124 124" fill="none" xmlns="http://www.w3.org/2000/svg">
<circle cx="62" cy="62" r="62" fill="#FFAB00"/>
<path d="M52.9881 83.2168L35.4548 78.4287L38.2847 83.8879L28.4871 83.1333L35.0544 86.5626L20.4955 91.5491L37.4344 90.9879L34.8186 95.7317L46.2308 91.1421L46.1801 95.1806L52.7878 90.7249L55.4961 87.326L52.9881 83.2168Z" fill="#FD710C"/>
<path d="M89.8579 81.9701L90.2128 78.6356L91.9591 77.1846L93.3785 78.6319L94.4278 81.7931L94.5824 85.7292L93.1821 87.1677L91.3407 86.202L89.8579 81.9701Z" fill="#14222F"/>
<path d="M73.9314 50.5043L73.1001 52.4597L71.9202 53.3483L70.9887 52.8402L67.7938 51.7506L63.2366 45.5431L65.0818 51.7506L66.2313 53.2939L63.9628 55.5312L61.9718 56.2934C61.8616 56.0596 61.6702 55.8422 61.4636 55.7057C61.0137 55.4086 60.4409 55.1912 60.261 54.6654C59.9847 53.8539 60.8515 53.1246 61.0201 52.2815C61.2304 51.2248 60.2673 50.273 59.2788 49.9999C58.2903 49.7282 57.2397 49.8811 56.2347 49.6928C55.2285 49.5032 54.1665 48.7688 54.136 47.6893C54.0866 45.9096 56.6821 45.1715 56.8848 43.4031C56.9773 42.5815 56.4755 41.7789 55.8038 41.3516C55.1334 40.9244 54.3249 40.8132 53.5429 40.798C53.0588 40.7891 52.562 40.8106 52.1083 40.6337C51.6559 40.4555 51.2516 40.0131 51.2808 39.5024C51.3061 39.0233 51.6851 38.6593 52.0412 38.3597C53.0018 37.552 54.008 36.8037 55.051 36.1187C55.3527 35.2301 55.0878 34.2151 54.5086 33.5072L54.9813 33.3707L55.0054 33.4061L58.7947 32.3507L58.7807 32.2685L60.0911 31.888L60.0366 32.0587L63.2366 30.9754L64.0401 30.0894L65.0717 30.0944L68.9686 31.0449L71.834 35.8519C71.3943 35.5473 70.8696 35.3514 70.3323 35.2819L68.1284 31.883L64.7688 31.2244L63.2366 32.6009V37.0287L64.1402 40.1066C64.1769 40.2595 64.234 40.4352 64.3011 40.6564C64.31 40.6868 64.3189 40.7184 64.329 40.7512C64.3379 40.7816 64.3468 40.8132 64.3556 40.8448C64.6281 41.8307 64.7789 43.2401 65.3086 44.0907L67.8027 48.1001C67.8129 48.1052 67.8243 48.109 67.8344 48.114L69.0282 50.0151L71.7884 51.7506L72.782 50.1289C73.1634 50.2603 73.5474 50.3867 73.9314 50.5043Z" fill="#FF6E5F"/>
<path d="M58.7947 32.3507L55.0054 33.4062L54.9813 33.3708L57.4957 32.6414L57.5147 32.6351L58.7807 32.2686L58.7947 32.3507Z" fill="#E64927"/>
<path d="M61.9719 56.2935L57.4286 58.0341L50.869 58.9757L47.8655 57.8571L42.3552 42.5058L43.9774 37.6267L48.0873 35.3705L54.5087 33.5073C55.0879 34.2152 55.3528 35.2302 55.0512 36.1188C54.0082 36.8038 53.0019 37.5521 52.0413 38.3598C51.6852 38.6594 51.3062 39.0234 51.2809 39.5025C51.2517 40.0132 51.656 40.4556 52.1085 40.6338C52.5621 40.8107 53.0589 40.7893 53.543 40.7981C54.325 40.8133 55.1335 40.9245 55.8039 41.3517C56.4756 41.779 56.9775 42.5816 56.8849 43.4032C56.6822 45.1716 54.0867 45.9097 54.1362 47.6894C54.1666 48.7689 55.2286 49.5033 56.2348 49.6929C57.2398 49.8812 58.2904 49.7283 59.2789 50C60.2674 50.2731 61.2306 51.2249 61.0202 52.2816C60.8516 53.1247 59.9848 53.854 60.2611 54.6655C60.441 55.1913 61.0138 55.4087 61.4637 55.7058C61.6703 55.8423 61.8617 56.0597 61.9719 56.2935Z" fill="#E64927"/>
<path d="M63.2367 30.9751L60.0367 32.0583L60.0912 31.8877L60.0925 31.8864L61.3725 31.5148L63.2367 30.9751Z" fill="#E64927"/>
<path d="M67.7939 51.7505L70.9888 52.8401L63.9629 55.5311L66.2314 53.2938L65.0819 51.7505L63.2367 45.543L67.7939 51.7505Z" fill="#E64927"/>
<path d="M75.2343 47.4413L73.9315 50.504C73.5475 50.3864 73.1635 50.26 72.7821 50.1286L71.7885 51.7503L69.0283 50.0148L67.8345 48.1137C67.8244 48.1087 67.813 48.1049 67.8028 48.0998L65.3087 44.0904C64.779 43.2397 64.6282 41.8304 64.3557 40.8445C64.3469 40.8129 64.338 40.7813 64.3291 40.7509C64.319 40.7181 64.3101 40.6865 64.3012 40.6561C64.2341 40.4349 64.177 40.2592 64.1403 40.1063L63.2367 37.0284V32.6006L64.7689 31.2241L68.1285 31.8827L70.3324 35.2816C70.8697 35.3511 71.3944 35.547 71.8341 35.8516L73.0254 37.85L74.2484 39.9015L74.4575 41.4992L75.2343 47.4413Z" fill="#E64927"/>
<path d="M61.3724 31.515V30.203L60.5043 28.8025L59.4385 28.4511L58.3232 29.6506L58.7807 32.2684L57.5147 32.6349L57.0825 31.1573L57.4285 28.9074L57.8568 28.0744L60.1672 27L62.7943 28.7519L63.2366 30.9753L61.3724 31.515Z" fill="#FF6E5F"/>
<path d="M58.7808 32.2682L58.7947 32.3504L55.0054 33.4058L54.9814 33.3704L54.5885 32.7801L56.1638 31.9649L56.4147 30.8753L57.4285 28.9072L57.0826 31.1572L57.5147 32.6348L58.7808 32.2682Z" fill="#E64927"/>
<path d="M63.2367 30.9751L60.0367 32.0583L60.0912 31.8877L60.0925 31.8864L60.6691 30.089L60.5044 28.8022L61.3725 30.2028V31.5148L63.2367 30.9751Z" fill="#E64927"/>
<path d="M57.4273 58.0337L49.8818 55.6258L45.0622 47.9899L44.6009 40.1531L48.086 35.3701L43.9774 37.6264L41.2336 42.2602L42.3552 50.5571L46.4169 57.317L51.4672 59.5139L57.4273 58.0337Z" fill="#C02E19"/>
<path d="M74.4283 47.4413L72.7821 50.1286L71.7885 51.7503L69.0283 50.0148L67.8345 48.1137L65.3087 44.0904L64.3557 40.8445C64.3469 40.8129 64.338 40.7813 64.3291 40.7509C64.319 40.7181 64.3101 40.6865 64.3012 40.6561L64.1403 40.1063L63.2367 37.0284V32.6006L64.7689 31.2241L68.1285 31.8827L70.3324 35.2816L73.1851 39.6828L73.2877 39.8408L73.3752 40.4248L74.4283 47.4413Z" fill="#E64927"/>
<path d="M63.9629 55.5311L66.2314 53.2938L65.0819 51.7505L63.2367 45.543L67.7939 51.7505L70.9888 52.8401L63.9629 55.5311Z" fill="#E64927"/>
<path d="M57.5148 32.6348L57.4958 32.6411L55.0056 33.4058L54.9815 33.3704L54.5886 32.7801L56.1639 31.9649L56.4148 30.8753L57.4287 28.9072L57.0827 31.1572L57.5148 32.6348Z" fill="#E64927"/>
<path d="M61.3726 30.2028V31.5148L60.0926 31.8864L60.0875 31.8877L60.6527 30.0056L60.5045 28.8022L61.3726 30.2028Z" fill="#E64927"/>
<path d="M84.7988 49.0078C84.6543 49.2126 84.4908 49.4047 84.3109 49.5817C82.9003 50.9734 80.7662 51.3146 78.7816 51.3399C77.276 51.3589 75.6019 51.0151 73.9316 50.5044C73.5476 50.3869 73.1636 50.2605 72.7821 50.129C71.0168 49.516 69.2996 48.7651 67.8346 48.1142C67.8244 48.1091 67.813 48.1053 67.8029 48.1003L65.3088 44.0909C64.7791 43.2402 64.6283 41.8308 64.3558 40.8449C64.3469 40.8133 64.338 40.7817 64.3292 40.7514C64.319 40.7185 64.3102 40.6869 64.3013 40.6566C64.2341 40.4354 64.1771 40.2597 64.1403 40.1067C64.0782 39.8526 64.0719 39.6605 64.1695 39.4204C64.2138 39.3104 64.281 39.1903 64.3748 39.0487C64.8386 38.3535 65.4989 37.6204 66.1554 37.0099C66.3138 36.862 66.4722 36.7217 66.6268 36.5915C67.5456 35.8167 68.6951 35.2504 69.899 35.2529C70.0435 35.2529 70.1879 35.263 70.3324 35.282C70.8698 35.3515 71.3944 35.5475 71.8342 35.8521C72.26 36.1466 72.6072 36.5422 72.8075 37.0213C72.919 37.2867 72.9836 37.5661 73.0255 37.8505C73.0787 38.2208 73.0926 38.6013 73.1154 38.9754C73.1294 39.2105 73.1497 39.4494 73.1851 39.6833C73.2244 39.9386 73.2827 40.1889 73.3752 40.4252C73.4373 40.5832 73.5146 40.7349 73.6122 40.8765C73.8036 41.1558 74.1001 41.3568 74.4575 41.4996C75.5043 41.9206 77.0631 41.8422 77.9376 41.7878C79.5052 41.6905 81.1312 41.4352 82.6114 41.9597C84.0764 42.4805 85.2347 43.7875 85.5731 45.303C85.8557 46.5721 85.5554 47.9524 84.7988 49.0078Z" fill="#00A19E"/>
<path d="M80.5381 28.5686C81.2414 29.3105 81.3745 30.5846 80.7066 31.3595C80.187 31.9624 79.3493 32.1596 78.5699 32.3239C77.3052 32.5906 76.0404 32.8573 74.7743 33.124C72.6909 33.5626 74.2535 30.3875 74.8605 29.6076C76.1126 27.9985 78.869 26.8103 80.5381 28.5698V28.5686Z" fill="#00A19E"/>
<path d="M84.7988 49.0077C84.6543 49.2125 84.4908 49.4046 84.3109 49.5815C82.9003 50.9732 80.7662 51.3145 78.7816 51.3398C77.276 51.3587 75.6019 51.0149 73.9316 50.5043C73.5476 50.3867 73.1636 50.2603 72.7821 50.1289C71.0168 49.5158 69.2996 48.765 67.8346 48.114C67.8244 48.109 67.813 48.1052 67.8029 48.1001L65.3088 44.0907C64.7791 43.24 64.6283 41.8307 64.3558 40.8448C64.3469 40.8132 64.338 40.7816 64.3292 40.7512C64.319 40.7184 64.3102 40.6868 64.3013 40.6564C64.2341 40.4352 64.1771 40.2595 64.1403 40.1066C64.0782 39.8525 64.0719 39.6604 64.1695 39.4202C64.2138 39.3103 64.281 39.1902 64.3748 39.0486C64.8386 38.3534 65.4989 37.6203 66.1554 37.0098C67.7066 38.1069 68.1831 40.1862 68.4454 42.0772C68.7115 43.9972 68.9599 46.0942 70.3375 47.4618C71.6846 48.8017 73.7884 49.0696 75.6716 48.8054C77.5548 48.5425 79.3493 47.8334 81.2212 47.4985C82.3769 47.2924 83.771 47.3215 84.4705 48.2619C84.6353 48.4831 84.743 48.7385 84.7988 49.0077Z" fill="#137171"/>
<path d="M99.734 78.5727L85.5845 86.6105L82.899 87.6824L77.1974 86.3122L75.4143 80.8302L73.5856 80.1805L70.6986 81.5747L70.2399 84.7815L70.1828 85.1822L55.496 87.3259L52.9892 83.2167H49.4065L47.6158 85.5386L47.7945 88.9337H41.7051L39.5076 83.0776L35.4547 72.2805L37.4723 68.2256L47.2572 63.3895L90.0593 55.626L92.7587 56.6119L96.8686 65.7115L99.734 78.5727Z" fill="#00A19E"/>
<path d="M70.7267 86.3842L71.2121 83.0447L73.4387 81.5747L75.2206 83.0081L76.5183 86.1592L76.6716 90.0966L74.8835 91.549L72.5618 90.6022L70.7267 86.3842Z" fill="#14222F"/>
<path d="M48.5879 88.4977L49.1252 85.3907L51.5154 84.0117L53.4125 85.3351L54.7825 88.2575L54.9257 91.9168L53.0045 93.2781L50.5269 92.4098L48.5879 88.4977Z" fill="#14222F"/>
<path d="M81.4316 73.035L77.6145 63.5562L78.5396 61.5022L89.18 57.9238L91.067 58.3005L96.0108 66.72L81.4316 73.035Z" fill="#1BEAEA"/>
<path d="M91.6715 78.254C93.282 78.254 94.5875 76.6514 94.5875 74.6744C94.5875 72.6974 93.282 71.0947 91.6715 71.0947C90.0609 71.0947 88.7554 72.6974 88.7554 74.6744C88.7554 76.6514 90.0609 78.254 91.6715 78.254Z" fill="#FD710C"/>
<path d="M84.8919 79.9742C85.8499 79.7078 86.3449 78.4844 85.9976 77.2418C85.6502 75.9991 84.5919 75.2077 83.6338 75.4741C82.6758 75.7406 82.1808 76.9639 82.5282 78.2066C82.8756 79.4493 83.9339 80.2407 84.8919 79.9742Z" fill="#FFAF32"/>
<path d="M97.0559 73.6969C98.014 73.4305 98.509 72.2071 98.1616 70.9644C97.8142 69.7217 96.7559 68.9304 95.7979 69.1968C94.8399 69.4632 94.3449 70.6866 94.6923 71.9292C95.0397 73.1719 96.0979 73.9633 97.0559 73.6969Z" fill="#FFAF32"/>
<path d="M38.3354 70.2605L37.1353 72.2792L39.6559 80.1981L49.7006 78.6042L46.8593 70.2605L46.1382 68.5845L38.3354 70.2605Z" fill="#1BEAEA"/>
<path d="M51.1809 78.6045L49.0201 70.501V68.5848L61.5044 66.3096L64.1873 76.4456L51.1809 78.6045Z" fill="#1BEAEA"/>
<path d="M66.5191 75.5289L64.1873 68.1054V66.3093L74.1876 64.4575L78.6701 74.1436L66.5191 75.5289Z" fill="#1BEAEA"/>
<path d="M50.4332 52.7769L53.4151 53.6503L53.0552 55.765L52.457 57.5055L50.072 59.8072L44.8025 61.6704" fill="#FD710C"/>
<path d="M41.9245 54.846C44.7328 54.0472 47.5716 53.3558 50.4332 52.7769L50.8463 55.655L48.1673 60.0689L44.8025 61.6704L40.5748 59.2245C40.2973 58.815 39.6332 55.9141 39.6332 55.9141L41.9232 54.8448L41.9245 54.846Z" fill="#EDDCB6"/>
<path d="M46.3004 53.6948L49.4928 53.5898L49.7564 55.6464L48.6817 57.1581C48.1456 57.0861 48.0404 57.0709 47.5031 56.9989L46.3004 53.6935V53.6948Z" fill="#FFAF32"/>
<path d="M44.8507 54.0195C44.8507 54.0195 47.8669 58.0391 47.872 58.0909L47.2928 59.2765C47.2928 59.2765 45.8202 60.2624 45.6504 60.4596L43.719 59.5761L44.8507 54.0195Z" fill="#FFAF32"/>
<path d="M44.0104 54.2354L43.2183 58.4192C43.1537 58.6619 42.0512 59.0689 42.0512 59.0689C41.5493 58.7605 40.5684 57.7733 40.5684 57.7733L40.3948 55.2478L44.0104 54.2366V54.2354Z" fill="#FFAF32"/>
<path d="M52.746 45.8828L52.3848 44.6049L51.4863 44.2851L51.0757 45.0371L50.8108 43.4761L52.2974 42.9452L51.9362 41.6673L51.0377 41.3475L50.5814 42.1148L50.1607 39.6259L49.2622 39.3062L49.2508 42.5546L47.7401 43.0539L47.3688 40.8571L46.4703 40.5373L46.4145 43.4925L44.2512 45.1787L45.1497 45.4985L46.6338 44.9689L46.8517 46.4326L44.6986 48.1163L45.5971 48.4361L47.071 47.909L46.6046 50.4926L47.5031 50.8124L48.9251 50.0679L48.4752 47.4072L49.8971 46.899L49.3978 49.2614L50.2963 49.5812L51.7182 48.8367L51.3051 46.396L52.7447 45.8815L52.746 45.8828ZM48.2344 45.9763L47.9822 44.4873L49.4599 43.9602L49.6893 45.4972L48.2344 45.9776V45.9763Z" fill="#14222F"/>
<path d="M51.8474 45.563L51.4863 44.2851L50.1771 44.7174L49.9123 43.1563L51.3988 42.6254L51.0376 41.3475L49.6816 41.795L49.2609 39.3062L48.0265 40.0683L48.3497 42.2361L46.839 42.7354L46.4677 40.5386L45.2333 41.3008L45.5121 43.174L43.9305 43.696L44.2474 45.1812L45.7314 44.6516L45.9494 46.1153L44.3779 46.6348L44.6947 48.1201L46.1686 47.593L46.602 50.4964L48.024 49.7519L47.5741 47.0912L48.996 46.583L49.3965 49.2652L50.8184 48.5207L50.4052 46.0799L51.8449 45.5655L51.8474 45.563ZM47.3345 45.6565L47.0823 44.1675L48.56 43.6404L48.7894 45.1774L47.3345 45.6578V45.6565Z" fill="#FFAF32"/>
<path d="M46.5741 46.9203L45.0648 47.4588L44.9583 46.9621L46.5032 46.4514L46.1344 43.979L44.6149 44.5213L44.5084 44.0245L46.0634 43.5113L45.7707 41.5483L46.0989 41.3461L46.4436 43.3862L48.8997 42.5747L48.5638 40.3185L48.8921 40.1162L49.2862 42.4483L50.698 41.9819L50.793 42.3168L49.3521 42.8313L49.7817 45.3707L51.1466 44.9194L51.2416 45.2544L49.8463 45.7524L50.2684 48.2488L49.7842 48.5029L49.3977 45.9129L47.0164 46.7636L47.4765 49.4787L46.9924 49.7328L46.5729 46.9216L46.5741 46.9203ZM46.5247 43.84L46.9429 46.3073L49.3419 45.5148L48.963 42.9691L46.5247 43.84Z" fill="#EDDCB6"/>
<path d="M54.05 42.0644L57.8925 35.5737L59.0939 36.2538L61.2319 48.8774L63.451 47.5969L64.6524 48.2757L65.4597 51.0515L55.9105 52.6706L54.7091 51.9906L58.3146 49.2376L56.9623 40.6019L55.2515 42.7444L54.05 42.0644Z" fill="#14222F"/>
<path d="M51.6879 40.1861L55.4505 35.9858L57.8926 35.5737L60.0318 48.1973L63.4511 47.5969L64.2583 50.3727L54.7091 51.9906L54.3175 49.3906L57.1132 48.5588L55.761 39.9232L54.0501 42.0644L51.6879 40.1861Z" fill="#FFAF32"/>
<path d="M55.3085 50.0187L58.1093 49.1858L56.3262 37.7971L53.9094 40.8218L52.9741 40.0786L55.9054 36.8061L57.1651 36.5938L59.3056 49.2237L62.8211 48.6056L63.1291 49.6661L55.4517 50.968L55.3085 50.0187Z" fill="#EDDCB6"/>
<path d="M89.6602 43.3719C88.872 43.3214 87.6744 43.3214 87.023 42.8486C85.8444 41.9942 85.6289 40.629 85.5326 40.351C85.4211 40.0286 85.0548 39.9149 84.8939 39.6292C84.6683 39.2298 84.994 38.7406 85.3678 38.4727C85.9077 38.0859 86.3323 37.6953 86.8062 37.239C87.6655 36.4111 88.9163 35.9902 90.1152 36.1241" fill="#00CF70"/>
<path d="M89.6843 36.0767L88.2092 37.4709L87.6072 40.0456L88.0457 42.3499L89.6602 43.3725L91.5561 42.3095L92.2101 40.373L92.1112 37.4064L90.8452 36.2069L89.6843 36.0767Z" fill="#EDDCB6"/>
<path d="M90.9884 36.6567L90.5259 39.009L92.143 37.8436L90.9884 36.6567Z" fill="#078C63"/>
<path d="M89.7528 36.4194L88.6654 37.4938L90.3763 38.9272L90.6488 36.5206L89.7528 36.4194Z" fill="#078C63"/>
<path d="M87.8936 39.9169L88.6261 37.8389L90.2393 39.1357L87.8936 39.9169Z" fill="#078C63"/>
<path d="M88.4132 42.0468L88.0254 40.3101L90.2787 39.3115L88.4132 42.0468Z" fill="#078C63"/>
<path d="M89.6956 43.0669L88.844 42.2706L90.233 39.7173L90.6727 42.5057L89.6956 43.0669Z" fill="#078C63"/>
<path d="M93.4153 37.2031C94.1288 37.4913 94.7333 38.0134 95.1186 38.6782C95.3771 39.1219 95.4861 39.6477 95.5317 40.1546C95.5748 40.6349 95.7979 41.0305 95.8688 41.4982C95.9183 41.8243 95.8118 42.1694 95.5888 42.4121C95.3074 42.7167 94.8753 42.7508 94.5382 42.9733C94.0997 43.2615 93.6498 43.6116 93.1289 43.7317C92.717 43.8265 92.328 43.9023 91.9009 43.8758C91.707 43.8644 90.9111 43.8215 90.8072 43.6306L89.6071 42.1719L90.2546 39.2217L91.6981 37.5065L93.4128 37.2044L93.4153 37.2031Z" fill="#00CF70"/>
<path d="M93.5052 39.7409C93.7355 39.7409 93.9221 39.5547 93.9221 39.325C93.9221 39.0954 93.7355 38.9092 93.5052 38.9092C93.2749 38.9092 93.0883 39.0954 93.0883 39.325C93.0883 39.5547 93.2749 39.7409 93.5052 39.7409Z" fill="#078C63"/>
<path d="M93.7219 41.0344C93.9521 41.0344 94.1388 40.8482 94.1388 40.6185C94.1388 40.3888 93.9521 40.2026 93.7219 40.2026C93.4916 40.2026 93.3049 40.3888 93.3049 40.6185C93.3049 40.8482 93.4916 41.0344 93.7219 41.0344Z" fill="#078C63"/>
<path d="M92.0047 40.4704C92.235 40.4704 92.4217 40.2842 92.4217 40.0545C92.4217 39.8249 92.235 39.6387 92.0047 39.6387C91.7744 39.6387 91.5878 39.8249 91.5878 40.0545C91.5878 40.2842 91.7744 40.4704 92.0047 40.4704Z" fill="#078C63"/>
<path d="M77.0341 45.2322C79.7672 45.2322 81.9829 43.0223 81.9829 40.2963C81.9829 37.5702 79.7672 35.3604 77.0341 35.3604C74.3009 35.3604 72.0852 37.5702 72.0852 40.2963C72.0852 43.0223 74.3009 45.2322 77.0341 45.2322Z" fill="#FF6E5F"/>
<path d="M78.4383 39.0196C78.7547 39.0196 79.0111 38.7638 79.0111 38.4483C79.0111 38.1327 78.7547 37.877 78.4383 37.877C78.1219 37.877 77.8655 38.1327 77.8655 38.4483C77.8655 38.7638 78.1219 39.0196 78.4383 39.0196Z" fill="#E64927"/>
<path d="M79.3824 40.5577C79.6988 40.5577 79.9552 40.3019 79.9552 39.9864C79.9552 39.6708 79.6988 39.415 79.3824 39.415C79.066 39.415 78.8096 39.6708 78.8096 39.9864C78.8096 40.3019 79.066 40.5577 79.3824 40.5577Z" fill="#E64927"/>
<path d="M76.9009 40.7222C77.2173 40.7222 77.4738 40.4665 77.4738 40.1509C77.4738 39.8354 77.2173 39.5796 76.9009 39.5796C76.5846 39.5796 76.3281 39.8354 76.3281 40.1509C76.3281 40.4665 76.5846 40.7222 76.9009 40.7222Z" fill="#E64927"/>
<path d="M72.2981 38.7981L73.5223 42.2274L77.2127 44.1171L81.1439 43.049C81.1439 43.049 79.5877 45.2888 77.0353 45.2319C74.4829 45.175 71.3628 43.1071 72.2981 38.7969V38.7981Z" fill="#E64927"/>
<path d="M65.1542 61.4604L59.7542 61.6703L54.05 62.7788L47.4549 64.4574L45.796 65.911L49.9845 66.6113L61.645 63.225L64.3951 62.454" fill="#137171"/>
<path d="M65.1543 61.4606L64.3951 62.4541L61.6451 63.2252L60.0559 62.8788L58.5731 57.4499L63.5575 55.626L65.1543 61.4606Z" fill="#14222F"/>
<path d="M38.2847 75.8914L38.9348 73.7464L42.2488 72.4558L43.9926 73.0347L44.5173 70.9883L46.8593 70.2603L49.7006 78.6039L39.6559 80.1979L38.2847 75.8914Z" fill="#137171"/>
<path d="M65.0187 71.3283L65.6688 69.1845L68.9828 67.894L70.7266 68.4716L71.2513 66.4265L74.6148 65.3799L78.6702 74.1432L66.3899 75.636L65.0187 71.3283Z" fill="#137171"/>
<path d="M79.8196 69.2796L80.637 66.5835L83.9498 65.2929L85.6948 65.8718L86.2182 63.8254L89.5817 62.7788L91.7627 63.68L93.8183 67.6692L81.4177 73.0665L79.8196 69.2796Z" fill="#137171"/>
<path d="M49.9845 74.2158L50.6346 72.0708L53.9474 70.7802L55.6925 71.3592L56.2159 69.3127L59.412 68.1372L62.1063 68.5847L64.1873 76.4455L61.8921 76.8272L51.1808 78.6044L49.9845 74.2158Z" fill="#137171"/>
<path d="M68.187 67.7704L65.6194 73.4281L65.9907 74.3496L69.5696 67.1953L68.187 67.7704Z" fill="#EDDCB6"/>
<path d="M84.3502 61.8273L81.7814 67.4862L82.1527 68.4077L85.7316 61.2534L84.3502 61.8273Z" fill="#EDDCB6"/>
<path d="M90.9605 59.8335L87.151 69.0809L88.2688 68.8269L91.4713 61.253L90.9605 59.8335Z" fill="#EDDCB6"/>
<path d="M44.0103 71.1403L41.4427 76.7992L41.8141 77.7207L45.393 70.5664L44.0103 71.1403Z" fill="#EDDCB6"/>
<path d="M57.9217 68.7466L54.1122 77.994L55.2299 77.74L58.4324 70.1661L57.9217 68.7466Z" fill="#EDDCB6"/>
<path d="M63.2013 73.0347L64.1873 76.4449L55.4961 77.8872L63.2013 73.0347Z" fill="#14222F"/>
<path d="M80.3581 84.2555L80.0502 86.5231L81.0881 88.0008H85.056L89.0722 87.0983L102 77.7851L101.692 74.9916L100.614 73.7466L98.9965 74.3798L99.4945 75.4985L87.8708 84.5323L84.1322 85.1011L80.3581 84.2555Z" fill="#EDDCB6"/>
<path d="M96.003 71.4239L93.9893 70.4872L96.273 70.7868L97.4744 68.5078L97.2146 70.8664L99.3475 72.042L97.0891 71.6274L95.6976 74.2489L96.003 71.4239Z" fill="#EDDCB6"/>
<path d="M93.3658 76.7286C93.5597 76.7286 93.7169 76.5718 93.7169 76.3784C93.7169 76.1851 93.5597 76.0283 93.3658 76.0283C93.1719 76.0283 93.0148 76.1851 93.0148 76.3784C93.0148 76.5718 93.1719 76.7286 93.3658 76.7286Z" fill="#E64927"/>
<path d="M92.3115 75.9219C92.5054 75.9219 92.6625 75.7652 92.6625 75.5718C92.6625 75.3784 92.5054 75.2217 92.3115 75.2217C92.1176 75.2217 91.9604 75.3784 91.9604 75.5718C91.9604 75.7652 92.1176 75.9219 92.3115 75.9219Z" fill="#E64927"/>
<path d="M93.5129 75.0245C93.7068 75.0245 93.864 74.8677 93.864 74.6744C93.864 74.481 93.7068 74.3242 93.5129 74.3242C93.319 74.3242 93.1619 74.481 93.1619 74.6744C93.1619 74.8677 93.319 75.0245 93.5129 75.0245Z" fill="#E64927"/>
<path d="M84.0345 73.3219L85.0813 74.4279L87.27 74.9967C87.967 75.1307 89.1811 74.6908 89.1811 74.6908C89.4232 74.529 89.4903 73.7896 89.4599 73.5696C89.4041 73.1639 89.1684 72.4143 89.1684 72.4143C88.5766 72.3195 86.7517 72.0996 86.7517 72.0996C86.7517 72.0996 84.6847 72.8087 84.0358 73.3219H84.0345Z" fill="#00CF70"/>
<path d="M84.0345 73.3223L86.6249 73.0088L89.4029 73.1655L90.5042 73.9644L90.3382 74.4902L89.446 73.7786L87.8263 73.5005L86.4982 74.6912H86.189L87.0862 73.5093L86.5704 73.4057L84.4743 73.5713L84.0345 73.3223Z" fill="#078C63"/>
<path d="M70.24 84.7814L70.183 85.1821L55.4961 87.3258L52.9893 83.2165H49.4067L47.6159 85.5385L47.7946 88.9336H41.7052L39.5077 83.0775C41.0956 83.391 42.4504 85.1353 44.1663 85.2958C45.2423 85.397 46.2764 84.8484 47.1192 84.1759C47.9632 83.5035 48.6957 82.6907 49.6044 82.1068C51.6156 80.8137 54.4125 80.8731 56.3667 82.2508C57.0131 82.7072 57.5669 83.2873 58.2386 83.7032C58.9102 84.119 59.7682 84.3567 60.4944 84.0419C61.7008 83.5199 62.242 81.6542 63.5537 81.7592C64.6081 81.8451 65.0656 83.1799 66.0046 83.6653C67.1769 84.272 68.8206 83.4238 69.8433 84.2581C70.0195 84.4022 70.15 84.5817 70.24 84.7814Z" fill="#1BEAEA"/>
<path d="M42.7838 89.4419L43.4187 88.9337L43.1006 87.1679L42.2756 86.5625H40.8156L40.4595 85.6157L39.2936 87.0807V88.9337L41.8396 89.4419H42.7838Z" fill="#EDDCB6"/>
<path d="M60.4246 78.8355C60.9201 78.3817 61.6133 78.1504 62.2837 78.2161C62.5372 78.2401 62.7945 78.3096 62.9972 78.4626C63.2 78.6155 63.3407 78.8671 63.314 79.1199C63.2862 79.3916 63.0745 79.6141 62.835 79.7443C62.5955 79.8745 62.323 79.9313 62.0607 80.011C61.5702 80.1601 61.1064 80.394 60.6945 80.6999C60.2307 81.0437 59.4855 81.3698 59.4145 80.5545C59.379 80.1488 60.1382 79.0996 60.4258 78.8355H60.4246Z" fill="#1BEAEA"/>
<path d="M66.9221 80.7595C67.2187 80.6015 67.6115 80.6104 67.8675 80.8278C68.1045 81.0287 68.1869 81.3763 68.1096 81.6759C68.0323 81.9755 67.8143 82.227 67.5507 82.3913C67.1895 82.6163 66.2847 82.9943 66.22 82.3382C66.1643 81.7783 66.4051 81.0351 66.9221 80.7582V80.7595Z" fill="#1BEAEA"/>
</svg>
