<svg width="144" height="122" viewBox="0 0 144 122" fill="none" xmlns="http://www.w3.org/2000/svg">
<path d="M57.407 99.3222L26.4298 90.8628L31.4296 100.508L14.1195 99.1748L25.7222 105.233L0 114.043L29.9272 113.052L25.3058 121.433L45.4684 113.324L45.3789 120.46L57.0533 112.587L61.8381 106.582L57.407 99.3222Z" fill="#FD710C"/>
<path d="M122.548 97.12L123.175 91.2288L126.26 88.665L128.768 91.2221L130.622 96.8073L130.895 103.762L128.421 106.303L125.167 104.597L122.548 97.12Z" fill="#14222F"/>
<path d="M94.4097 41.5266L92.9409 44.9813L90.8564 46.5513L89.2107 45.6535L83.566 43.7285L75.5144 32.7612L78.7744 43.7285L80.8053 46.4552L76.7974 50.408L73.2798 51.7547C73.085 51.3415 72.7469 50.9574 72.382 50.7162C71.5871 50.1914 70.575 49.8073 70.2571 48.8783C69.769 47.4446 71.3005 46.156 71.5983 44.6664C71.97 42.7995 70.2683 41.1179 68.5218 40.6355C66.7754 40.1554 64.9192 40.4256 63.1436 40.0928C61.3658 39.7579 59.4895 38.4604 59.4358 36.5532C59.3484 33.4088 63.934 32.1047 64.2923 28.9804C64.4557 27.5288 63.569 26.1107 62.3823 25.3559C61.1979 24.6011 59.7694 24.4045 58.3879 24.3778C57.5326 24.3621 56.6549 24.4001 55.8533 24.0874C55.0539 23.7726 54.3397 22.9909 54.3912 22.0887C54.436 21.2423 55.1054 20.5992 55.7346 20.0699C57.4318 18.6429 59.2096 17.3208 61.0524 16.1104C61.5852 14.5405 61.1173 12.7472 60.094 11.4966L60.9292 11.2554L60.9717 11.3179L67.6665 9.45322L67.6419 9.30806L69.9571 8.63586L69.8608 8.93735L75.5144 7.02349L76.9339 5.45801L78.7565 5.46694L85.6416 7.14631L90.7041 15.6392C89.9272 15.101 89.0002 14.7549 88.0508 14.632L84.1571 8.62693L78.2214 7.46343L75.5144 9.89539V17.7183L77.1108 23.1562C77.1758 23.4264 77.2765 23.7368 77.3952 24.1276C77.4109 24.1812 77.4265 24.2371 77.4444 24.2951C77.4601 24.3487 77.4758 24.4045 77.4915 24.4604C77.9729 26.2023 78.2393 28.6923 79.1752 30.1953L83.5817 37.279C83.5996 37.2879 83.6198 37.2946 83.6377 37.3036L85.7468 40.6623L90.6235 43.7285L92.3789 40.8633C93.0529 41.0955 93.7313 41.3189 94.4097 41.5266Z" fill="#FF6E5F"/>
<path d="M67.6665 9.45326L60.9717 11.318L60.9292 11.2555L65.3715 9.9669L65.4051 9.95574L67.6419 9.30811L67.6665 9.45326Z" fill="#E64927"/>
<path d="M73.2799 51.7546L65.2529 54.8298L53.6635 56.4935L48.357 54.5171L38.6216 27.3948L41.4876 18.7746L48.7488 14.7883L60.0941 11.4966C61.1173 12.7472 61.5853 14.5404 61.0524 16.1104C59.2097 17.3208 57.4319 18.6428 55.7347 20.0699C55.1055 20.5991 54.436 21.2423 54.3912 22.0887C54.3397 22.9909 55.054 23.7725 55.8533 24.0874C56.6549 24.4001 57.5326 24.3621 58.3879 24.3777C59.7694 24.4045 61.1979 24.601 62.3824 25.3559C63.5691 26.1107 64.4558 27.5288 64.2923 28.9804C63.9341 32.1046 59.3485 33.4088 59.4358 36.5532C59.4895 38.4603 61.3659 39.7578 63.1437 40.0928C64.9192 40.4256 66.7754 40.1553 68.5219 40.6355C70.2683 41.1179 71.97 42.7995 71.5983 44.6664C71.3005 46.156 69.769 47.4445 70.2571 48.8783C70.5751 49.8073 71.5871 50.1914 72.382 50.7162C72.747 50.9574 73.0851 51.3415 73.2799 51.7546Z" fill="#E64927"/>
<path d="M75.5144 7.02344L69.8608 8.9373L69.9571 8.63581L69.9594 8.63358L72.2208 7.97702L75.5144 7.02344Z" fill="#E64927"/>
<path d="M83.566 43.7285L89.2107 45.6535L76.7974 50.408L80.8053 46.4553L78.7745 43.7285L75.5144 32.7612L83.566 43.7285Z" fill="#E64927"/>
<path d="M96.7115 36.1154L94.4098 41.5265C93.7313 41.3188 93.0529 41.0955 92.3789 40.8632L90.6235 43.7284L85.7469 40.6623L83.6377 37.3035C83.6198 37.2946 83.5996 37.2879 83.5817 37.2789L79.1752 30.1952C78.2393 28.6923 77.9729 26.2022 77.4915 24.4603C77.4758 24.4045 77.4601 24.3487 77.4445 24.2951C77.4266 24.237 77.4109 24.1812 77.3952 24.1276C77.2765 23.7368 77.1758 23.4264 77.1108 23.1561L75.5144 17.7183V9.89534L78.2214 7.46338L84.1571 8.62688L88.0509 14.632C89.0002 14.7548 89.9272 15.101 90.7041 15.6392L92.8088 19.1699L94.9695 22.7944L95.339 25.6171L96.7115 36.1154Z" fill="#E64927"/>
<path d="M72.2207 7.97702V5.65895L70.6869 3.18456L68.8039 2.56372L66.8335 4.68304L67.6418 9.30801L65.405 9.95564L64.6415 7.34502L65.2527 3.36991L66.0095 1.89823L70.0913 0L74.7329 3.09523L75.5143 7.02344L72.2207 7.97702Z" fill="#FF6E5F"/>
<path d="M67.642 9.30773L67.6666 9.45289L60.9719 11.3176L60.9293 11.2551L60.2352 10.2122L63.0184 8.77176L63.4617 6.84673L65.2529 3.36963L64.6417 7.34474L65.4052 9.95536L67.642 9.30773Z" fill="#E64927"/>
<path d="M75.5144 7.02346L69.8608 8.93731L69.9571 8.63583L69.9594 8.6336L70.9781 5.45798L70.6871 3.18457L72.2208 5.65896V7.97704L75.5144 7.02346Z" fill="#E64927"/>
<path d="M65.2506 54.83L51.9193 50.5757L43.4042 37.0849L42.5892 23.239L48.7466 14.7886L41.4876 18.7749L36.64 26.9618L38.6216 41.6206L45.7977 53.5638L54.7204 57.4451L65.2506 54.83Z" fill="#C02E19"/>
<path d="M95.2875 36.1154L92.3789 40.8632L90.6235 43.7284L85.7469 40.6623L83.6377 37.3035L79.1752 30.1952L77.4915 24.4603C77.4758 24.4045 77.4601 24.3487 77.4445 24.2951C77.4266 24.237 77.4109 24.1812 77.3952 24.1276L77.1108 23.1561L75.5144 17.7183V9.89534L78.2214 7.46338L84.1571 8.62688L88.0509 14.632L93.091 22.408L93.2723 22.6872L93.4268 23.7189L95.2875 36.1154Z" fill="#E64927"/>
<path d="M76.7974 50.408L80.8053 46.4553L78.7745 43.7285L75.5144 32.7612L83.566 43.7285L89.2107 45.6535L76.7974 50.408Z" fill="#E64927"/>
<path d="M65.4051 9.95536L65.3715 9.96653L60.9718 11.3176L60.9292 11.2551L60.2351 10.2122L63.0183 8.77176L63.4616 6.84673L65.2528 3.36963L64.6416 7.34474L65.4051 9.95536Z" fill="#E64927"/>
<path d="M72.2208 5.65897V7.97704L69.9594 8.6336L69.9504 8.63583L70.9491 5.31059L70.6871 3.18457L72.2208 5.65897Z" fill="#E64927"/>
<path d="M113.61 38.8824C113.354 39.2441 113.066 39.5836 112.748 39.8962C110.256 42.355 106.485 42.958 102.979 43.0026C100.319 43.0361 97.3608 42.4287 94.4098 41.5265C93.7313 41.3188 93.0529 41.0955 92.379 40.8632C89.26 39.7801 86.226 38.4536 83.6377 37.3035C83.6198 37.2945 83.5996 37.2878 83.5817 37.2789L79.1753 30.1952C78.2393 28.6922 77.9729 26.2022 77.4915 24.4603C77.4758 24.4045 77.4602 24.3486 77.4445 24.295C77.4266 24.237 77.4109 24.1811 77.3952 24.1275C77.2766 23.7367 77.1758 23.4263 77.1109 23.1561C77.0012 22.7072 76.99 22.3678 77.1624 21.9435C77.2407 21.7492 77.3594 21.537 77.5251 21.2869C78.3446 20.0586 79.5111 18.7634 80.671 17.6847C80.9508 17.4235 81.2307 17.1756 81.5039 16.9455C83.1272 15.5766 85.158 14.5761 87.2851 14.5806C87.5404 14.5806 87.7956 14.5984 88.0509 14.6319C89.0002 14.7548 89.9272 15.1009 90.7041 15.6391C91.4565 16.1595 92.07 16.8585 92.4237 17.7048C92.6208 18.1738 92.735 18.6674 92.8089 19.1698C92.9029 19.8242 92.9275 20.4963 92.9678 21.1574C92.9925 21.5728 93.0283 21.9948 93.091 22.408C93.1604 22.8591 93.2634 23.3013 93.4268 23.7189C93.5365 23.998 93.6731 24.266 93.8455 24.5161C94.1836 25.0097 94.7076 25.3647 95.339 25.6171C97.1884 26.3608 99.9425 26.2223 101.487 26.1263C104.257 25.9543 107.13 25.5032 109.745 26.43C112.333 27.3501 114.38 29.6592 114.978 32.3368C115.477 34.579 114.946 37.0176 113.61 38.8824Z" fill="#00A19E"/>
<path d="M106.082 2.7713C107.325 4.08219 107.56 6.33327 106.38 7.70222C105.462 8.76746 103.982 9.11584 102.605 9.40616C100.37 9.87737 98.1356 10.3486 95.8988 10.8198C92.2178 11.5947 94.9785 5.98488 96.051 4.607C98.2632 1.76412 103.133 -0.335094 106.082 2.77353V2.7713Z" fill="#00A19E"/>
<path d="M113.61 38.8822C113.354 39.244 113.066 39.5834 112.748 39.8961C110.256 42.3548 106.485 42.9578 102.979 43.0024C100.319 43.0359 97.3608 42.4285 94.4098 41.5263C93.7313 41.3186 93.0529 41.0953 92.3789 40.863C89.26 39.7799 86.226 38.4534 83.6377 37.3033C83.6198 37.2944 83.5996 37.2877 83.5817 37.2787L79.1753 30.195C78.2393 28.6921 77.9729 26.202 77.4915 24.4601C77.4758 24.4043 77.4602 24.3485 77.4445 24.2949C77.4266 24.2368 77.4109 24.181 77.3952 24.1274C77.2766 23.7366 77.1758 23.4261 77.1109 23.1559C77.0012 22.7071 76.99 22.3676 77.1624 21.9433C77.2407 21.749 77.3594 21.5369 77.5251 21.2867C78.3446 20.0585 79.5111 18.7632 80.671 17.6846C83.4116 19.623 84.2534 23.2966 84.7169 26.6375C85.1871 30.0297 85.626 33.7346 88.0598 36.151C90.4399 38.5182 94.1568 38.9916 97.484 38.5249C100.811 38.0604 103.982 36.8075 107.289 36.2157C109.331 35.8517 111.794 35.9031 113.03 37.5646C113.321 37.9554 113.511 38.4065 113.61 38.8822Z" fill="#137171"/>
<path d="M139.997 91.1169L114.998 105.318L110.253 107.212L100.18 104.791L97.0292 95.1054L93.7983 93.9575L88.6977 96.4207L87.8872 102.086L87.7864 102.794L61.838 106.582L57.4092 99.3217H51.0794L47.9156 103.424L48.2313 109.422H37.4727L33.5902 99.076L26.4297 80L29.9943 72.8358L47.282 64.2916L122.904 50.5752L127.673 52.3171L134.934 68.394L139.997 91.1169Z" fill="#00A19E"/>
<path d="M88.7471 104.918L89.6046 99.0181L93.5386 96.4209L96.6868 98.9534L98.9795 104.521L99.2505 111.477L96.0912 114.043L91.9892 112.37L88.7471 104.918Z" fill="#14222F"/>
<path d="M49.6331 108.652L50.5824 103.163L54.8053 100.727L58.1571 103.065L60.5775 108.228L60.8306 114.693L57.4362 117.098L53.0588 115.564L49.6331 108.652Z" fill="#14222F"/>
<path d="M107.66 81.3333L100.916 64.5864L102.551 60.9575L121.35 54.6353L124.684 55.3008L133.418 70.1761L107.66 81.3333Z" fill="#1BEAEA"/>
<path d="M125.752 90.5542C128.597 90.5542 130.904 87.7226 130.904 84.2297C130.904 80.7368 128.597 77.9053 125.752 77.9053C122.907 77.9053 120.6 80.7368 120.6 84.2297C120.6 87.7226 122.907 90.5542 125.752 90.5542Z" fill="#FD710C"/>
<path d="M113.774 93.5939C115.467 93.1232 116.341 90.9618 115.728 88.7663C115.114 86.5708 113.244 85.1726 111.551 85.6433C109.859 86.114 108.984 88.2754 109.598 90.4709C110.212 92.6665 112.082 94.0647 113.774 93.5939Z" fill="#FFAF32"/>
<path d="M135.265 82.5031C136.958 82.0324 137.832 79.871 137.219 77.6755C136.605 75.48 134.735 74.0817 133.042 74.5525C131.35 75.0232 130.475 77.1846 131.089 79.3801C131.703 81.5756 133.572 82.9738 135.265 82.5031Z" fill="#FFAF32"/>
<path d="M31.5192 76.4315L29.3988 79.9979L33.8523 93.9889L51.599 91.1729L46.579 76.4315L45.305 73.4702L31.5192 76.4315Z" fill="#1BEAEA"/>
<path d="M54.2142 91.1731L50.3966 76.856V73.4705L72.4535 69.4507L77.1936 87.3588L54.2142 91.1731Z" fill="#1BEAEA"/>
<path d="M81.3135 85.7394L77.1936 72.6238V69.4504L94.862 66.1787L102.781 83.2918L81.3135 85.7394Z" fill="#1BEAEA"/>
<path d="M52.8932 45.542L58.1617 47.0851L57.5258 50.8213L56.4689 53.8964L52.255 57.9631L42.9451 61.2548" fill="#FD710C"/>
<path d="M37.8601 49.1978C42.8218 47.7864 47.8373 46.5648 52.8931 45.542L53.623 50.627L48.8897 58.4254L42.945 61.2548L35.4755 56.9336C34.9852 56.21 33.8119 51.0848 33.8119 51.0848L37.8579 49.1955L37.8601 49.1978Z" fill="#EDDCB6"/>
<path d="M45.5917 47.1634L51.2318 46.978L51.6976 50.6115L49.7989 53.2824C48.8517 53.1551 48.6659 53.1283 47.7165 53.001L45.5917 47.1611V47.1634Z" fill="#FFAF32"/>
<path d="M43.0301 47.7373C43.0301 47.7373 48.3591 54.8389 48.368 54.9305L47.3448 57.0252C47.3448 57.0252 44.743 58.7671 44.443 59.1155L41.0306 57.5545L43.0301 47.7373Z" fill="#FFAF32"/>
<path d="M41.5456 48.1191L40.1462 55.5111C40.032 55.9398 38.084 56.6589 38.084 56.6589C37.1974 56.114 35.4643 54.3699 35.4643 54.3699L35.1576 49.9079L41.5456 48.1214V48.1191Z" fill="#FFAF32"/>
<path d="M56.9794 33.3621L56.3413 31.1043L54.7538 30.5393L54.0284 31.868L53.5604 29.11L56.1868 28.1721L55.5487 25.9143L53.9612 25.3493L53.1551 26.7049L52.4118 22.3077L50.8243 21.7427L50.8041 27.482L48.1352 28.3641L47.4791 24.4828L45.8917 23.9178L45.7931 29.1391L41.9711 32.1182L43.5586 32.6832L46.1805 31.7474L46.5656 34.3335L42.7615 37.3081L44.3489 37.8731L46.953 36.9419L46.129 41.5066L47.7165 42.0716L50.2287 40.7562L49.4338 36.0553L51.946 35.1576L51.0639 39.3314L52.6513 39.8964L55.1636 38.5811L54.4336 34.2687L56.9772 33.3598L56.9794 33.3621ZM49.0084 33.5273L48.5628 30.8966L51.1736 29.9653L51.5788 32.6809L49.0084 33.5295V33.5273Z" fill="#14222F"/>
<path d="M55.3919 32.7971L54.7538 30.5393L52.4408 31.303L51.9729 28.545L54.5993 27.6071L53.9611 25.3493L51.5654 26.1399L50.822 21.7427L48.6412 23.0893L49.2121 26.9193L46.5432 27.8014L45.8871 23.9201L43.7063 25.2667L44.1989 28.5763L41.4045 29.4986L41.9643 32.1226L44.5862 31.1869L44.9714 33.773L42.1949 34.6908L42.7547 37.3148L45.3587 36.3836L46.1245 41.5133L48.6367 40.1979L47.8418 35.497L50.354 34.5993L51.0616 39.3381L53.5738 38.0228L52.8439 33.7104L55.3874 32.8015L55.3919 32.7971ZM47.4186 32.9623L46.9731 30.3316L49.5838 29.4003L49.9891 32.1159L47.4186 32.9645V32.9623Z" fill="#FFAF32"/>
<path d="M46.0752 35.1957L43.4085 36.147L43.2204 35.2694L45.9498 34.3672L45.2982 29.999L42.6136 30.957L42.4255 30.0794L45.1729 29.1727L44.6556 25.7045L45.2355 25.3472L45.8446 28.9516L50.1839 27.5179L49.5905 23.5316L50.1704 23.1743L50.8668 27.2946L53.3611 26.4705L53.529 27.0623L50.9832 27.9712L51.7422 32.4578L54.1537 31.6605L54.3216 32.2523L51.8564 33.1322L52.602 37.5428L51.7467 37.9917L51.0638 33.4158L46.8566 34.9188L47.6694 39.7157L46.8141 40.1646L46.073 35.1979L46.0752 35.1957ZM45.9879 29.7533L46.7268 34.1126L50.9653 32.7123L50.2958 28.2147L45.9879 29.7533Z" fill="#EDDCB6"/>
<path d="M59.2833 26.6155L66.0721 15.1479L68.1948 16.3494L71.972 38.6525L75.8926 36.3902L78.0152 37.5895L79.4415 42.4936L62.5703 45.3543L60.4476 44.1529L66.8177 39.2889L64.4287 24.0317L61.4059 27.8169L59.2833 26.6155Z" fill="#14222F"/>
<path d="M55.11 23.2969L61.7577 15.876L66.0724 15.1479L69.8519 37.451L75.8929 36.3902L77.3191 41.2944L60.4479 44.1529L59.756 39.5591L64.6954 38.0897L62.3063 22.8324L59.2836 26.6155L55.11 23.2969Z" fill="#FFAF32"/>
<path d="M61.5068 40.6691L66.4551 39.1974L63.3047 19.0762L59.0349 24.4203L57.3824 23.1072L62.5614 17.3254L64.787 16.9502L68.5687 39.2644L74.7799 38.1724L75.324 40.046L61.7598 42.3462L61.5068 40.6691Z" fill="#EDDCB6"/>
<path d="M122.199 28.9267C120.806 28.8373 118.69 28.8373 117.539 28.0021C115.457 26.4925 115.076 24.0806 114.906 23.5893C114.709 23.0198 114.062 22.8189 113.778 22.3141C113.379 21.6085 113.955 20.7442 114.615 20.2708C115.569 19.5874 116.319 18.8973 117.156 18.0912C118.674 16.6284 120.884 15.8847 123.002 16.1215" fill="#00CF70"/>
<path d="M122.241 16.0366L119.635 18.4998L118.571 23.0489L119.346 27.12L122.199 28.9267L125.548 27.0486L126.704 23.6273L126.529 18.386L124.292 16.2666L122.241 16.0366Z" fill="#EDDCB6"/>
<path d="M124.545 17.0615L123.728 21.2175L126.585 19.1585L124.545 17.0615Z" fill="#078C63"/>
<path d="M122.362 16.6416L120.441 18.5398L123.464 21.0723L123.945 16.8203L122.362 16.6416Z" fill="#078C63"/>
<path d="M119.077 22.8208L120.372 19.1494L123.222 21.4407L119.077 22.8208Z" fill="#078C63"/>
<path d="M119.995 26.5841L119.31 23.5157L123.291 21.7515L119.995 26.5841Z" fill="#078C63"/>
<path d="M122.261 28.3863L120.757 26.9793L123.211 22.4683L123.988 27.3947L122.261 28.3863Z" fill="#078C63"/>
<path d="M128.833 18.0264C130.094 18.5355 131.162 19.4579 131.842 20.6325C132.299 21.4164 132.492 22.3454 132.572 23.2409C132.648 24.0895 133.042 24.7885 133.168 25.6148C133.255 26.191 133.067 26.8006 132.673 27.2294C132.176 27.7676 131.412 27.8279 130.817 28.221C130.042 28.7301 129.247 29.3487 128.327 29.5609C127.599 29.7284 126.912 29.8624 126.157 29.8155C125.815 29.7954 124.409 29.7194 124.225 29.3822L122.105 26.8051L123.249 21.5928L125.799 18.5623L128.828 18.0286L128.833 18.0264Z" fill="#00CF70"/>
<path d="M128.992 22.5105C129.399 22.5105 129.728 22.1815 129.728 21.7757C129.728 21.37 129.399 21.041 128.992 21.041C128.585 21.041 128.255 21.37 128.255 21.7757C128.255 22.1815 128.585 22.5105 128.992 22.5105Z" fill="#078C63"/>
<path d="M129.375 24.7951C129.782 24.7951 130.111 24.4662 130.111 24.0604C130.111 23.6546 129.782 23.3257 129.375 23.3257C128.968 23.3257 128.638 23.6546 128.638 24.0604C128.638 24.4662 128.968 24.7951 129.375 24.7951Z" fill="#078C63"/>
<path d="M126.341 23.7995C126.748 23.7995 127.077 23.4706 127.077 23.0648C127.077 22.659 126.748 22.3301 126.341 22.3301C125.934 22.3301 125.604 22.659 125.604 23.0648C125.604 23.4706 125.934 23.7995 126.341 23.7995Z" fill="#078C63"/>
<path d="M99.8908 32.2119C104.72 32.2119 108.634 28.3075 108.634 23.4912C108.634 18.6749 104.72 14.7705 99.8908 14.7705C95.0619 14.7705 91.1473 18.6749 91.1473 23.4912C91.1473 28.3075 95.0619 32.2119 99.8908 32.2119Z" fill="#FF6E5F"/>
<path d="M102.372 21.2356C102.931 21.2356 103.384 20.7837 103.384 20.2262C103.384 19.6687 102.931 19.2168 102.372 19.2168C101.813 19.2168 101.36 19.6687 101.36 20.2262C101.36 20.7837 101.813 21.2356 102.372 21.2356Z" fill="#E64927"/>
<path d="M104.04 23.9534C104.599 23.9534 105.052 23.5015 105.052 22.944C105.052 22.3865 104.599 21.9346 104.04 21.9346C103.481 21.9346 103.028 22.3865 103.028 22.944C103.028 23.5015 103.481 23.9534 104.04 23.9534Z" fill="#E64927"/>
<path d="M99.6557 24.2439C100.215 24.2439 100.668 23.792 100.668 23.2345C100.668 22.677 100.215 22.2251 99.6557 22.2251C99.0968 22.2251 98.6437 22.677 98.6437 23.2345C98.6437 23.792 99.0968 24.2439 99.6557 24.2439Z" fill="#E64927"/>
<path d="M91.5234 20.8445L93.6863 26.9032L100.206 30.2419L107.152 28.3548C107.152 28.3548 104.402 32.312 99.893 32.2116C95.3835 32.1111 89.871 28.4575 91.5234 20.8423V20.8445Z" fill="#E64927"/>
<path d="M78.902 60.8843L69.3614 61.255L59.2834 63.2135L47.6314 66.1792L44.7004 68.7474L52.1005 69.9846L72.702 64.0018L77.5608 62.6396" fill="#137171"/>
<path d="M78.9019 60.8837L77.5607 62.639L72.702 64.0012L69.8942 63.3893L67.2745 53.7977L76.0807 50.5752L78.9019 60.8837Z" fill="#14222F"/>
<path d="M31.4296 86.3806L32.5782 82.5908L38.4333 80.3107L41.5143 81.3335L42.4412 77.718L46.579 76.4316L51.5989 91.1731L33.8522 93.9891L31.4296 86.3806Z" fill="#137171"/>
<path d="M78.6625 78.3186L79.8111 74.531L85.6662 72.2509L88.7472 73.2715L89.6741 69.6582L95.6166 67.8091L102.782 83.2919L81.0851 85.9293L78.6625 78.3186Z" fill="#137171"/>
<path d="M104.812 74.6988L106.256 69.9353L112.109 67.6552L115.192 68.678L116.117 65.0625L122.06 63.2134L125.913 64.8057L129.545 71.8537L107.636 81.3895L104.812 74.6988Z" fill="#137171"/>
<path d="M52.1007 83.4192L53.2493 79.6294L59.1022 77.3493L62.1854 78.3721L63.1101 74.7566L68.757 72.6797L73.5172 73.4702L77.1938 87.3586L73.1388 88.033L54.2144 91.1729L52.1007 83.4192Z" fill="#137171"/>
<path d="M84.2601 72.0322L79.7238 82.0281L80.3798 83.6561L86.7029 71.0161L84.2601 72.0322Z" fill="#EDDCB6"/>
<path d="M112.817 61.5315L108.278 71.5295L108.934 73.1575L115.257 60.5176L112.817 61.5315Z" fill="#EDDCB6"/>
<path d="M124.496 58.0098L117.765 74.3479L119.74 73.899L125.398 60.5177L124.496 58.0098Z" fill="#EDDCB6"/>
<path d="M41.5457 77.9856L37.0094 87.9836L37.6654 89.6116L43.9885 76.9717L41.5457 77.9856Z" fill="#EDDCB6"/>
<path d="M66.1238 73.7563L59.3932 90.0945L61.368 89.6456L67.0261 76.2642L66.1238 73.7563Z" fill="#EDDCB6"/>
<path d="M75.4517 81.3335L77.1937 87.3587L61.8383 89.9068L75.4517 81.3335Z" fill="#14222F"/>
<path d="M105.764 101.158L105.22 105.164L107.054 107.775H114.064L121.16 106.18L144 89.7259L143.456 84.7905L141.551 82.5908L138.694 83.7097L139.573 85.6861L119.037 101.647L112.432 102.652L105.764 101.158Z" fill="#EDDCB6"/>
<path d="M133.405 78.486L129.847 76.8312L133.882 77.3605L136.005 73.334L135.546 77.5012L139.314 79.578L135.324 78.8455L132.865 83.4772L133.405 78.486Z" fill="#EDDCB6"/>
<path d="M128.746 87.8588C129.088 87.8588 129.366 87.5818 129.366 87.2402C129.366 86.8985 129.088 86.6216 128.746 86.6216C128.403 86.6216 128.125 86.8985 128.125 87.2402C128.125 87.5818 128.403 87.8588 128.746 87.8588Z" fill="#E64927"/>
<path d="M126.883 86.434C127.225 86.434 127.503 86.157 127.503 85.8154C127.503 85.4737 127.225 85.1968 126.883 85.1968C126.54 85.1968 126.262 85.4737 126.262 85.8154C126.262 86.157 126.54 86.434 126.883 86.434Z" fill="#E64927"/>
<path d="M129.005 84.8485C129.348 84.8485 129.626 84.5716 129.626 84.2299C129.626 83.8883 129.348 83.6113 129.005 83.6113C128.663 83.6113 128.385 83.8883 128.385 84.2299C128.385 84.5716 128.663 84.8485 129.005 84.8485Z" fill="#E64927"/>
<path d="M112.259 81.8402L114.109 83.7942L117.976 84.7992C119.207 85.0359 121.352 84.2587 121.352 84.2587C121.78 83.9729 121.899 82.6665 121.845 82.2779C121.746 81.561 121.33 80.2367 121.33 80.2367C120.284 80.0692 117.06 79.6807 117.06 79.6807C117.06 79.6807 113.408 80.9335 112.262 81.8402H112.259Z" fill="#00CF70"/>
<path d="M112.259 81.8405L116.836 81.2866L121.744 81.5635L123.69 82.9749L123.396 83.9039L121.82 82.6466L118.959 82.1553L116.612 84.259H116.066L117.651 82.171L116.74 81.9879L113.036 82.2804L112.259 81.8405Z" fill="#078C63"/>
<path d="M87.8873 102.087L87.7866 102.795L61.8382 106.582L57.4094 99.3219H51.0796L47.9158 103.424L48.2315 109.423H37.4728L33.5903 99.0762C36.3959 99.6301 38.7894 102.712 41.8211 102.996C43.722 103.174 45.5491 102.205 47.0381 101.017C48.5293 99.8288 49.8235 98.3929 51.4289 97.3611C54.9822 95.0766 59.9238 95.1815 63.3764 97.6157C64.5183 98.4219 65.4968 99.4469 66.6835 100.182C67.8702 100.916 69.386 101.336 70.669 100.78C72.8006 99.8578 73.7567 96.5616 76.0741 96.747C77.937 96.8988 78.7453 99.2571 80.4044 100.115C82.4755 101.187 85.3796 99.6881 87.1865 101.162C87.4977 101.417 87.7284 101.734 87.8873 102.087Z" fill="#1BEAEA"/>
<path d="M39.3784 110.32L40.5001 109.423L39.9381 106.303L38.4805 105.233H35.9011L35.272 103.561L33.212 106.149V109.423L37.7103 110.32H39.3784Z" fill="#EDDCB6"/>
<path d="M70.5458 91.582C71.4213 90.7803 72.646 90.3716 73.8305 90.4877C74.2783 90.5301 74.7328 90.653 75.0911 90.9232C75.4493 91.1934 75.6979 91.6378 75.6508 92.0845C75.6016 92.5646 75.2277 92.9576 74.8045 93.1877C74.3813 93.4177 73.8999 93.5182 73.4364 93.6589C72.5699 93.9224 71.7504 94.3355 71.0227 94.876C70.2032 95.4834 68.8867 96.0596 68.7613 94.6192C68.6986 93.9023 70.0398 92.0487 70.548 91.582H70.5458Z" fill="#1BEAEA"/>
<path d="M82.0255 94.9806C82.5494 94.7015 83.2435 94.7171 83.6958 95.1012C84.1145 95.4563 84.2601 96.0704 84.1235 96.5997C83.9869 97.129 83.6018 97.5734 83.136 97.8637C82.4979 98.2612 80.8992 98.9289 80.785 97.7699C80.6865 96.7806 81.1119 95.4674 82.0255 94.9784V94.9806Z" fill="#1BEAEA"/>
</svg>
