<svg width="112" height="121" viewBox="0 0 112 121" fill="none" xmlns="http://www.w3.org/2000/svg">
<path d="M48.8818 47.6642C49.2518 47.6642 49.5517 47.3564 49.5517 46.9766C49.5517 46.5969 49.2518 46.2891 48.8818 46.2891C48.5118 46.2891 48.2119 46.5969 48.2119 46.9766C48.2119 47.3564 48.5118 47.6642 48.8818 47.6642Z" fill="#EDDCB6"/>
<path d="M46.5774 45.9684C46.9473 45.9684 47.2473 45.6606 47.2473 45.2808C47.2473 44.9011 46.9473 44.5933 46.5774 44.5933C46.2074 44.5933 45.9075 44.9011 45.9075 45.2808C45.9075 45.6606 46.2074 45.9684 46.5774 45.9684Z" fill="#EDDCB6"/>
<path d="M46.3507 49.4061C47.0172 49.4061 47.5575 48.8515 47.5575 48.1674C47.5575 47.4833 47.0172 46.9287 46.3507 46.9287C45.6841 46.9287 45.1438 47.4833 45.1438 48.1674C45.1438 48.8515 45.6841 49.4061 46.3507 49.4061Z" fill="#EDDCB6"/>
<path d="M48.29 45.0692C48.5419 45.0692 48.7462 44.8596 48.7462 44.601C48.7462 44.3424 48.5419 44.1328 48.29 44.1328C48.0381 44.1328 47.8339 44.3424 47.8339 44.601C47.8339 44.8596 48.0381 45.0692 48.29 45.0692Z" fill="#EDDCB6"/>
<path d="M50.0702 42.9049L50.1927 43.234L50.6541 44.4727L51.0399 45.5108L53.9619 46.3455L54.0218 46.3615L54.9185 46.6184C54.9289 46.6344 54.9394 46.6531 54.9498 46.6746C55.1896 47.124 55.5467 48.665 55.9351 50.4228C56.1488 51.3993 56.373 52.44 56.592 53.3978C56.8891 54.706 57.1758 55.8538 57.4156 56.4638C57.4704 56.6082 57.5251 56.7634 57.5877 56.9186L58.1689 56.6965C58.1689 56.6965 61.7635 51.3966 61.5549 51.0675C60.2177 48.9272 58.5782 43.8788 57.7336 42.83H57.7206L54.5771 41.9498L52.8046 41.4549L52.046 41.2409L51.2171 41.0108L50.8783 40.9145L50.5603 40.8262L50.5081 41.0509L50.3596 41.6823L50.0989 42.7792L50.0676 42.9076L50.0702 42.9049Z" fill="#FFAF32"/>
<path d="M55.4425 41.7704L52.7942 40.208L49.8905 41.2728L48.4829 43.5121L49.5751 44.1595L50.6829 42.4981L52.8776 42.2868L55.4425 41.7704Z" fill="#D37B11"/>
<path d="M55.5964 42.7229L52.8073 41.4468L50.0261 42.8112L49.2832 44.3041L49.5491 45.5695L50.5657 45.5535L50.6438 44.494L50.9358 43.9456L53.0967 43.5068L55.5964 42.7229Z" fill="#D37B11"/>
<path d="M56.2635 41.1925L52.6038 40.9731C52.3119 41.0454 50.5576 42.0834 50.5576 42.0834C50.5576 42.0834 50.3778 42.9529 50.4351 43.0466L51.0711 43.7636L53.5891 43.1964C53.5891 43.1964 53.7299 45.8958 56.3182 46.776C56.6493 46.8884 57.6763 43.1643 57.7206 42.8218L56.2609 41.1925H56.2635Z" fill="#FFAF32"/>
<path d="M54.9263 46.5674L56.8812 45.0879L55.7708 47.0516L55.935 50.4226L54.9263 46.5674Z" fill="#D37B11"/>
<path d="M56.2635 41.1926L54.0245 39.063L50.9617 39.4322L49.1006 41.2916L49.4994 42.351L51.4674 40.8073L53.6517 41.107L56.2635 41.1926Z" fill="#FFAF32"/>
<path d="M51.0712 43.7607L52.5335 42.9902L53.5891 43.1936C53.5891 43.1936 53.8211 44.9138 54.4962 45.4997L53.988 46.4201L53.2503 44.1085L52.7967 45.5238L52.7785 44.1166L51.0712 43.7607Z" fill="#D37B11"/>
<path d="M52.7367 40.9921L51.4673 40.8075L53.4327 40.2002L54.6004 41.0938L52.7367 40.9921Z" fill="#D37B11"/>
<path d="M53.8214 49.4941L60.9215 45.8647L63.0104 48.828L55.1183 52.6095L53.8214 49.4941Z" fill="#14222F"/>
<path d="M56.4468 52.7805L57.7064 59.9765L60.2956 62.0522L66.9485 60.0267L63.7045 57.2281L60.9804 49.9116" fill="#14222F"/>
<path d="M63.0104 63.9184L66.482 58.2177L70.7352 55.3076L80.2048 55.5463L85.0353 58.2044L85.3266 64.7503L63.0104 63.9184Z" fill="#14222F"/>
<path d="M78.763 52.6094H72.1995V58.0052H78.763V52.6094Z" fill="#D37B11"/>
<path d="M61.1227 40.5109L60.385 36.0141L63.7425 32.1539L66.9565 31.0264L70.5199 33.7347L73.3351 35.7686H76.3798L79.8545 33.2006L81.8826 31.5038L85.3938 31.9139L87.3984 34.8083L89.2648 39.119V44.398L87.0386 47.9723L80.9572 49.9118L72.1726 49.4748L64.7565 46.1784L61.1227 40.5109Z" fill="#14222F"/>
<path d="M74.1605 33.7393L69.6823 34.7265L66.2963 38.3382L65.4283 44.2214L66.1191 49.6417L70.0055 53.2669L74.442 54.6233L79.3945 53.43L83.6589 50.035L84.8241 45.8052L83.8075 39.5662L80.1869 35.1786L74.1605 33.7393Z" fill="#FFAF32"/>
<path d="M66.7186 39.7908L65.0947 38.8276L63.0016 39.1059L61.3281 41.7599L61.8364 44.5556L64.0651 45.5295L66.7655 44.8205" fill="#FFAF32"/>
<path d="M84.0109 40.5668L85.5957 39.585L87.6653 39.8204L89.3648 42.4075L88.9113 45.1738L86.7296 46.1771L84.0552 45.527" fill="#FFAF32"/>
<path d="M65.7698 41.9449L63.3091 41.062L62.9233 41.7469L65.7776 42.801L65.7698 41.9449Z" fill="#E64927"/>
<path d="M84.8372 42.7094L85.2803 43.6645L87.6445 42.6827L87.6393 42.0566L84.8372 42.7094Z" fill="#E64927"/>
<path d="M75.6019 46.3725L73.209 45.6769L71.1263 47.5764L71.3375 49.5L74.7417 51.5547L78.5473 50.5836L81.1618 47.836L81.6883 44.5907L79.5196 43.665L77.6924 44.4355L75.6019 46.3725Z" fill="#EDDCB6"/>
<path d="M74.5593 42.1772L74.5723 44.0821L72.229 43.6648L74.5593 42.1772Z" fill="#E64927"/>
<path d="M75.6018 46.3722L74.7416 51.5544L73.5426 50.8294L74.8355 46.1475L75.6018 46.3722Z" fill="#14222F"/>
<path d="M76.78 45.2837L79.5482 49.5322L80.4606 48.5717L77.3378 44.7646L76.78 45.2837Z" fill="#14222F"/>
<path d="M68.1237 41.0083L70.2793 40.2084L71.7807 40.3234L72.1509 39.4111L70.1959 39.5717L67.9907 39.9837L68.1237 41.0083Z" fill="#14222F"/>
<path d="M68.6006 41.9634L68.4495 43.0576L69.2888 44.0957L70.1307 44.2963L71.3245 43.9271L71.7155 42.8275V42.0436H70.7042L70.5478 43.3439L69.8414 43.5365L69.2888 43.1298V42.0222L68.6006 41.9634Z" fill="#14222F"/>
<path d="M77.1371 40.8901L76.986 41.9844L77.8253 43.0224L78.6672 43.2231L79.8637 42.8539L80.252 41.7516V40.9704H79.2407L79.0843 42.2706L78.3779 42.4633L77.8253 42.0566V40.949L77.1371 40.8901Z" fill="#14222F"/>
<path d="M77.8671 38.1001L79.5796 38.5415L80.9038 39.411V40.2083L79.7751 39.5849L78.9175 39.1542L77.4396 38.8278L77.8671 38.1001Z" fill="#14222F"/>
<path d="M42.007 113.099L42.6733 108.573L45.6444 106.568L48.0036 108.491L49.7044 112.748L49.8833 118.076L47.4955 120.057L44.4155 118.794L42.007 113.099Z" fill="#14222F"/>
<path d="M106.67 75.3416L110.228 73.8032L110.061 69.9507L20.6235 71.7405L20.501 76.9468L27.5544 78.2256L27.4736 89.0047L25.576 96.3139L25.503 96.5921C25.503 96.5921 25.5057 96.5975 25.503 96.6001L25.49 96.6456L25.5004 96.6563L30.3409 101.929L31.003 102.248L40.2512 106.689L87.2978 106.82L100.857 103.372L109.748 97.3038L110.061 91.7577L107.275 86.4685L106.67 75.3416Z" fill="#E64927"/>
<path d="M110.061 91.7578L109.748 97.3039L100.857 103.372L87.2978 106.82L40.2512 106.689L31.003 102.248L30.3409 101.93L25.5004 96.6564L25.49 96.6457L25.5004 96.6484L32.4965 98.2108L41.4085 100.199L77.1059 100.45L97.2263 97.3012L110.061 91.7578Z" fill="#C02E19"/>
<path d="M21.0034 72.8439L32.6297 60.6853L104.925 58.0054L110.268 70.8629L21.0034 72.8439Z" fill="#E9DCB7"/>
<path d="M26.6586 89.2385L20.8104 89.0312L12.5945 91.4358L10.8643 94.0822H5.03881H1.10287L0 97.5549L5.35247 98.8781L11.0995 97.058L16.6873 100.695L31.5052 102.521L30.7413 98.6921L18.2631 97.2228L15.4301 94.9324L20.952 92.4136L25.2826 93.8431L26.6586 89.2385Z" fill="#14222F"/>
<path d="M44.6323 113.881L44.9648 111.617L46.4508 110.615L47.63 111.577L48.4824 113.705L48.5705 116.37L47.3771 117.36L45.8371 116.729L44.6323 113.881Z" fill="#EDDCB6"/>
<path d="M82.701 113.098L83.3673 108.576L86.3385 106.568L88.6977 108.494L90.3985 112.749L90.5773 118.077L88.1896 120.057L85.1096 118.791L82.701 113.098Z" fill="#14222F"/>
<path d="M86.6393 113.881L86.8609 111.617L87.8516 110.615L88.6377 111.577L89.206 113.705L89.2647 116.367L88.4691 117.36L87.4424 116.726L86.6393 113.881Z" fill="#EDDCB6"/>
<path d="M91.7733 67.8936C95.0555 67.8936 97.7163 65.1626 97.7163 61.7937C97.7163 58.4249 95.0555 55.6938 91.7733 55.6938C88.491 55.6938 85.8302 58.4249 85.8302 61.7937C85.8302 65.1626 88.491 67.8936 91.7733 67.8936Z" fill="#FFAF32"/>
<path d="M93.4597 60.2153C93.8398 60.2153 94.1479 59.8991 94.1479 59.509C94.1479 59.119 93.8398 58.8027 93.4597 58.8027C93.0797 58.8027 92.7716 59.119 92.7716 59.509C92.7716 59.8991 93.0797 60.2153 93.4597 60.2153Z" fill="#FD710C"/>
<path d="M94.5935 62.1147C94.9736 62.1147 95.2817 61.7985 95.2817 61.4084C95.2817 61.0184 94.9736 60.7021 94.5935 60.7021C94.2135 60.7021 93.9054 61.0184 93.9054 61.4084C93.9054 61.7985 94.2135 62.1147 94.5935 62.1147Z" fill="#FD710C"/>
<path d="M91.6142 62.3184C91.9942 62.3184 92.3023 62.0021 92.3023 61.6121C92.3023 61.222 91.9942 60.9058 91.6142 60.9058C91.2341 60.9058 90.926 61.222 90.926 61.6121C90.926 62.0021 91.2341 62.3184 91.6142 62.3184Z" fill="#FD710C"/>
<path d="M86.0856 59.9424L87.5557 64.1802L91.987 66.5158L96.7075 65.1968C96.7075 65.1968 94.8386 67.9658 91.7732 67.8936C88.7079 67.8214 84.9622 65.2691 86.0856 59.9424Z" fill="#FD710C"/>
<path d="M103.662 67.8936C106.944 67.8936 109.605 65.1626 109.605 61.7937C109.605 58.4249 106.944 55.6938 103.662 55.6938C100.38 55.6938 97.719 58.4249 97.719 61.7937C97.719 65.1626 100.38 67.8936 103.662 67.8936Z" fill="#FFAF32"/>
<path d="M105.346 60.2153C105.726 60.2153 106.034 59.8991 106.034 59.509C106.034 59.119 105.726 58.8027 105.346 58.8027C104.966 58.8027 104.658 59.119 104.658 59.509C104.658 59.8991 104.966 60.2153 105.346 60.2153Z" fill="#FD710C"/>
<path d="M106.482 62.1147C106.862 62.1147 107.17 61.7985 107.17 61.4084C107.17 61.0184 106.862 60.7021 106.482 60.7021C106.102 60.7021 105.794 61.0184 105.794 61.4084C105.794 61.7985 106.102 62.1147 106.482 62.1147Z" fill="#FD710C"/>
<path d="M103.5 62.3184C103.88 62.3184 104.189 62.0021 104.189 61.6121C104.189 61.222 103.88 60.9058 103.5 60.9058C103.12 60.9058 102.812 61.222 102.812 61.6121C102.812 62.0021 103.12 62.3184 103.5 62.3184Z" fill="#FD710C"/>
<path d="M97.9744 59.9424L99.4445 64.1802L103.876 66.5158L108.596 65.1968C108.596 65.1968 106.727 67.9658 103.662 67.8936C100.597 67.8214 96.851 65.2691 97.9744 59.9424Z" fill="#FD710C"/>
<path d="M98.162 57.4834C101.444 57.4834 104.105 54.7524 104.105 51.3836C104.105 48.0147 101.444 45.2837 98.162 45.2837C94.8798 45.2837 92.219 48.0147 92.219 51.3836C92.219 54.7524 94.8798 57.4834 98.162 57.4834Z" fill="#FFAF32"/>
<path d="M99.846 49.8052C100.226 49.8052 100.534 49.489 100.534 49.0989C100.534 48.7088 100.226 48.3926 99.846 48.3926C99.4659 48.3926 99.1578 48.7088 99.1578 49.0989C99.1578 49.489 99.4659 49.8052 99.846 49.8052Z" fill="#FD710C"/>
<path d="M100.982 51.707C101.363 51.707 101.671 51.3908 101.671 51.0007C101.671 50.6107 101.363 50.2944 100.982 50.2944C100.602 50.2944 100.294 50.6107 100.294 51.0007C100.294 51.3908 100.602 51.707 100.982 51.707Z" fill="#FD710C"/>
<path d="M98.0006 51.9106C98.3807 51.9106 98.6888 51.5944 98.6888 51.2043C98.6888 50.8143 98.3807 50.498 98.0006 50.498C97.6206 50.498 97.3125 50.8143 97.3125 51.2043C97.3125 51.5944 97.6206 51.9106 98.0006 51.9106Z" fill="#FD710C"/>
<path d="M92.4745 49.5322L93.9447 53.77L98.3759 56.1056L103.096 54.7867C103.096 54.7867 101.228 57.5557 98.1621 57.4835C95.0968 57.4112 91.3511 54.8589 92.4745 49.5322Z" fill="#FD710C"/>
<path d="M50.9831 61.366L45.9451 67.4484H82.7011L78.9733 60.7036L50.9831 61.366Z" fill="white"/>
<path d="M89.4508 95.7331L90.1416 96.2254L91.5126 94.9653L91.4866 94.869C91.4866 94.869 90.3657 94.8262 90.3344 94.8315C90.3032 94.8369 89.4534 95.7331 89.4534 95.7331H89.4508Z" fill="#137171"/>
<path d="M92.2059 94.6577L93.4493 93.9996L93.246 93.5073L93.0583 93.5635L92.2059 94.6577Z" fill="#137171"/>
<path d="M93.2174 93.1566L95.2897 91.6317L96.9214 88.6861L96.8172 88.3115L92.094 92.8597C92.1539 92.8757 93.2174 93.1566 93.2174 93.1566Z" fill="#137171"/>
<path d="M96.3714 88.499C96.3714 88.499 97.1143 86.1581 97.1403 86.126C97.1664 86.0965 96.8249 84.2559 96.8249 84.2559L94.2731 90.642L96.3714 88.4963V88.499Z" fill="#137171"/>
<path d="M91.6847 92.7685L93.6058 91.1312L94.883 82.2329L93.6631 76.8901L91.1086 92.8541L91.6847 92.7685Z" fill="#137171"/>
<path d="M90.7021 92.4986L90.8872 92.71L92.18 84.1301L90.1104 76.655L88.7576 74.2178L90.6812 92.215L90.7021 92.4986Z" fill="#137171"/>
<path d="M90.2929 90.5618C90.2955 90.4922 88.2649 86.7547 88.2649 86.7547L87.5012 84.8284L84.8399 76.1094L84.4984 79.6917L85.979 86.6664L90.3398 92.0841L90.2929 90.5591V90.5618Z" fill="#137171"/>
<path d="M90.4727 92.5708L86.5523 88.5202L81.9569 80.8071L82.0351 82.6398L85.8277 90.7756L90.5926 93.0042L90.4727 92.5708Z" fill="#137171"/>
<path d="M89.774 93.0365L85.5409 90.8828L80.1322 82.731L83.0073 91.2012L88.7731 93.0686L89.774 93.0365Z" fill="#137171"/>
<path d="M92.8525 93.4427L91.9115 93.1377L88.549 93.3945L82.2019 91.4067L83.9952 93.1484L88.5412 94.2132L92.8525 93.4427Z" fill="#137171"/>
<path d="M92.5057 93.7832C92.5057 93.7832 90.6576 94.2541 90.6029 94.2701L90.6107 94.2808C90.5925 94.2862 90.5794 94.2888 90.5742 94.2888L90.7358 94.5029L91.9687 94.4574L91.9844 94.4387H91.9974L92.5057 93.7859V93.7832Z" fill="#137171"/>
<path d="M88.2101 85.4118L89.9044 89.1574L89.5656 84.6681L86.1848 74.6729L86.9511 79.9755L88.2101 85.4118Z" fill="#137171"/>
<path d="M47.5131 88.2046C47.7424 89.2186 47.5313 90.8051 47.659 92.0438C47.487 92.5441 47.9145 92.742 48.2325 92.9106C47.6747 92.8812 47.1169 92.9614 46.559 92.932C47.1742 92.5922 47.0126 91.6639 47.023 91.0619C46.864 90.2727 47.268 89.3309 46.8223 88.6327C46.0455 88.3865 47.1872 88.1805 47.5131 88.2073V88.2046Z" fill="white"/>
<path d="M44.505 88.6004C45.3131 88.2687 45.5763 88.9242 45.3704 89.6251C45.0993 88.769 44.0202 88.9028 43.3138 88.983C43.147 89.4485 43.3295 90.0612 43.2565 90.5775C43.8821 90.607 44.737 90.7996 45.0941 90.1174C44.8126 90.31 45.4147 91.4631 44.982 91.324C44.7527 90.6043 43.8768 90.9253 43.3295 90.936C43.2721 91.5219 43.3008 92.1132 43.3295 92.7018C43.9238 92.6938 44.5389 92.7419 45.1045 92.5332C45.459 92.461 45.3782 91.8376 45.764 91.8564C45.6233 92.3085 45.7979 93.4429 44.9273 93.0362C43.9472 92.9265 42.9671 93.0737 41.9871 93.0603C41.9636 92.7205 42.511 92.9105 42.5188 92.5172C42.4823 91.3481 42.6465 90.1522 42.438 88.9937C42.3728 88.7182 41.6873 88.9161 42.0913 88.6245C42.8968 88.6513 43.6996 88.6379 44.5024 88.6031L44.505 88.6004Z" fill="white"/>
<path d="M64.8704 86.511C65.4439 86.4762 66.2128 87.1772 65.7411 87.7765C65.3501 88.4667 64.3126 88.1109 64.125 87.4313C64.1119 86.9953 64.5003 86.6555 64.8704 86.5137V86.511Z" fill="white"/>
<path d="M61.7033 86.61C62.1803 86.4682 62.5661 86.8026 62.8215 87.1558C63.1187 88.1698 61.5026 88.5764 61.1663 87.6828C60.8926 87.2387 61.4374 86.8749 61.7033 86.61Z" fill="white"/>
<path d="M55.1923 86.6503C56.1437 86.6182 57.1368 86.6744 58.0309 87.0463C58.1612 87.7686 58.255 88.5124 58.3489 89.2454C57.5721 89.6173 57.7129 88.5231 57.1967 88.2127C55.9039 87.1907 53.7795 87.3298 52.6534 88.5685C51.1963 90.5216 51.6942 94.037 54.0402 95.0189C54.929 95.2971 55.8987 95.2918 56.7667 94.936C56.7484 93.9701 57.1837 91.9422 55.6562 92.1054C55.3513 92.1589 55.466 91.8405 55.4738 91.6506C56.7406 91.7201 58.0204 91.7014 59.282 91.565C59.4671 92.2766 58.4948 91.8459 58.3854 92.4371C58.2368 93.4511 58.2889 94.4865 58.3645 95.5058C56.1463 96.1961 53.2738 96.6616 51.4075 94.8717C49.1632 92.7876 49.7705 88.4535 52.6117 87.2121C53.4146 86.8322 54.3008 86.6396 55.1871 86.6556L55.1923 86.6503Z" fill="white"/>
<path d="M82.9941 88.9003C84.3 88.7344 85.8509 89.2374 86.4426 90.5322C87.4827 92.4157 86.2263 95.0911 84.1593 95.4121C82.7178 95.7733 81.0027 95.067 80.4422 93.6089C79.5221 91.6505 80.9297 89.1491 82.9915 88.9003H82.9941ZM82.942 89.6654C81.4354 90.1256 81.5761 92.2311 82.0088 93.4698C82.2721 94.8396 84.3183 95.2382 84.9386 93.9326C85.7284 92.3916 85.1602 89.2775 82.942 89.6654Z" fill="white"/>
<path d="M65.9315 89.4784C65.9863 89.4784 66.0983 89.4731 66.1531 89.4731C66.2652 91.1719 66.1244 92.8869 66.2886 94.5857C66.4763 95.0566 67.3599 94.6419 67.0732 95.3054C66.3382 95.4606 65.6239 95.7067 64.8889 95.8672C64.7481 95.7014 65.1991 94.7329 64.6465 94.9924C63.8097 95.7308 62.5403 96.2953 61.5107 95.6345C60.1892 94.2807 61.1484 92.1966 60.6636 90.5406C60.5802 90.1981 60.1918 90.2998 59.9181 90.257C59.9442 89.9948 59.8295 89.5319 60.3847 89.7513C60.9816 89.7246 61.529 89.3794 62.1285 89.4169C62.2614 91.1532 61.7766 93.0554 62.5794 94.6713C63.3275 95.1128 64.2294 94.7837 64.8602 94.2888C64.8107 93.1357 64.9436 91.9719 64.7716 90.8268C65.0088 89.8637 63.5178 90.6262 63.8697 89.7834C64.5552 89.6791 65.2408 89.5774 65.9289 89.4784H65.9315Z" fill="white"/>
<path d="M78.628 89.0315C79.2458 88.871 79.7932 89.7592 79.3891 90.2809C79.1415 90.8374 78.3882 90.1391 77.9946 90.3237C77.5515 90.5271 77.2022 90.9418 76.9389 91.3431C76.9832 92.4507 76.8607 93.5877 77.1579 94.6712C77.382 95.217 78.456 94.6418 78.1718 95.4337C77.0093 95.3214 75.8285 95.2438 74.679 95.514C74.3662 94.6605 75.3515 95.2143 75.5027 94.69C75.8103 93.5877 75.56 92.4105 75.5731 91.2815C75.5053 90.8802 75.6122 90.3077 75.2368 90.0268C74.7911 90.1953 74.7442 89.8796 74.6529 89.6335C75.4193 89.4088 76.2039 89.2429 76.9598 88.978C76.9363 89.4061 76.8946 90.2595 76.8738 90.6876C77.3768 90.0803 77.7444 89.1198 78.6306 89.0315H78.628Z" fill="white"/>
<path d="M70.579 89.149C72.3098 88.745 73.7903 90.3958 73.7226 92.1C72.3463 92.1401 70.9283 92.0117 69.5807 92.3033C69.4217 93.2611 70.0134 94.3312 70.9413 94.6041C71.8224 95.0001 72.7607 94.5239 73.5531 94.1359C73.6235 94.275 73.6991 94.4142 73.7591 94.5613C72.5861 95.6823 70.6937 96.2468 69.2705 95.2676C67.1357 93.6838 67.9255 89.6252 70.5816 89.149H70.579ZM70.639 89.8098C69.9248 90.0694 69.5494 90.8586 69.5051 91.597C70.4539 91.6585 71.4053 91.5408 72.3489 91.4365C72.1951 90.5937 71.6347 89.5503 70.639 89.8098Z" fill="white"/>
<path d="M89.0441 88.1756C89.5393 88.0793 89.2865 88.8016 89.3126 89.0959C89.9981 89.3528 89.7739 88.5287 89.9877 88.1702C90.6419 87.8813 90.3161 88.7508 90.3839 89.0692C90.8218 89.0237 90.7488 89.7674 90.2744 89.6069C90.1597 89.8236 89.9694 90.5406 90.4569 90.3159C90.7644 90.2731 90.8218 90.7199 90.5611 90.8242C90.3969 90.9954 89.8964 90.6102 90.0189 91.0891C89.9329 91.3379 90.0268 91.9158 89.5863 91.8034C89.1066 91.6402 89.9121 90.653 89.164 90.8884C88.7156 90.9098 89.1301 91.8088 88.6322 91.8703C88.163 91.8409 88.4732 91.2255 88.4446 90.9419C88.1943 90.9339 87.9858 90.5808 88.2386 90.4176C88.6583 90.4711 88.6036 89.9547 88.6713 89.6872C88.4758 89.722 88.0718 89.6765 88.0979 89.3822C88.1422 89.0745 88.5514 89.1869 88.7574 89.1013C88.8564 88.7963 88.7417 88.3762 89.0415 88.1809L89.0441 88.1756ZM89.2135 89.6658C89.1379 89.8745 89.1145 90.1099 89.104 90.3319C89.2761 90.3614 89.4429 90.3881 89.6175 90.34C89.6566 89.9734 89.8208 89.3581 89.2135 89.6658Z" fill="white"/>
<path d="M92.2449 88.138C92.5134 87.9882 92.7402 88.2209 92.7246 88.4777C92.7063 89.4703 92.8445 90.4682 92.7715 91.4581C92.7558 91.8353 92.1876 91.7979 92.1719 91.4501C92.099 90.7037 92.1224 89.9412 92.0547 89.1921C91.7549 89.3098 91.3691 89.885 91.0563 89.5185C90.8739 89.2162 91.2961 89.069 91.489 88.9513C91.8175 88.7694 92.0938 88.4911 92.2449 88.1407V88.138Z" fill="white"/>
<path d="M49.1606 84.5259C47.6722 84.8309 46.6973 83.7474 46.4132 82.276C46.1291 80.8018 46.6244 79.4213 48.1127 79.119C48.707 78.9986 49.2258 79.0066 49.5985 79.0896L49.8878 80.5824L49.098 80.743L48.8582 79.9805C48.6549 79.9805 48.4698 80.0019 48.2874 80.0393C47.4037 80.2186 47.1744 81.0934 47.3646 82.0833C47.5549 83.0732 48.0945 83.7902 48.9781 83.6083C49.1606 83.5708 49.3404 83.52 49.5281 83.4451L49.4629 82.6398L50.2528 82.4793L50.5421 83.9721C50.2267 84.1942 49.7497 84.4056 49.158 84.5286L49.1606 84.5259Z" fill="#FFAF32"/>
<path d="M53.1878 83.6218C52.9611 83.785 52.6743 83.9188 52.3824 83.9643C51.3762 84.1141 50.9618 83.5844 50.8653 82.9155C50.7767 82.2868 51.0739 81.8374 52.0696 81.5671L52.6587 81.4066C52.6222 81.1471 52.4762 81.0481 52.1504 81.0989C51.6812 81.1685 51.2563 81.3103 50.9175 81.511L50.7924 80.6254C51.1495 80.4087 51.6473 80.283 52.0279 80.2268C53.1018 80.0662 53.4537 80.5344 53.5632 81.3023L53.7665 82.739L54.3895 82.7176L54.5042 83.5335L53.2608 83.7208L53.1904 83.6245L53.1878 83.6218ZM52.1921 82.3377C51.8037 82.4447 51.7438 82.6052 51.7698 82.7791C51.7933 82.9396 51.8845 83.1456 52.2729 83.0894C52.531 83.052 52.7343 82.9209 52.862 82.8299L52.7708 82.1798L52.1947 82.3377H52.1921Z" fill="#FFAF32"/>
<path d="M55.7004 79.9696C55.9037 79.8492 56.3077 79.6834 56.6101 79.6513C57.6371 79.5496 58.0229 79.9857 58.1011 80.8204L58.2366 82.2464L58.8596 82.2544L58.9378 83.0757L57.4129 83.2282L57.194 80.9114C57.1705 80.6599 57.0167 80.4967 56.6961 80.5288C56.4016 80.5582 56.0992 80.7027 56.0002 80.7535L56.1618 82.4524L56.7848 82.4604L56.8629 83.2817L54.7229 83.4958L54.6447 82.6744L55.2547 82.5433L55.0905 80.8177L54.4675 80.8097L54.3893 79.9884L55.6405 79.8626L55.7056 79.9696H55.7004Z" fill="#FFAF32"/>
<path d="M59.3471 78.6696L60.2386 78.5117L60.2933 79.4829L61.2395 79.4267L61.289 80.3149L60.3429 80.3711L60.4315 81.9469C60.4419 82.1155 60.5774 82.2278 60.8459 82.2118C60.9632 82.2037 61.1952 82.177 61.3229 82.1422L61.3725 83.001C61.0805 83.0893 60.9033 83.092 60.8485 83.0946C60.1891 83.1348 59.5791 82.7816 59.5374 82.0486L59.4462 80.4219L58.8284 80.4594L58.7815 79.6354L59.394 79.5284L59.3445 78.6696H59.3471Z" fill="#FFAF32"/>
<path d="M64.0731 82.7628C63.828 82.8939 63.5283 82.9929 63.2337 83.0009C62.2172 83.0223 61.8679 82.4445 61.8548 81.7676C61.8418 81.1335 62.1911 80.7242 63.2129 80.5797L63.815 80.4968C63.8098 80.2346 63.6769 80.1196 63.3458 80.1249C62.8714 80.1356 62.4335 80.2212 62.0738 80.3791L62.0556 79.4828C62.4361 79.3116 62.9444 79.2527 63.3302 79.242C64.4145 79.218 64.7091 79.7263 64.7247 80.5021L64.756 81.9549L65.3764 82.011L65.3946 82.8351L64.1382 82.8618L64.0809 82.7575L64.0731 82.7628ZM63.2389 81.3636C62.8427 81.4225 62.7619 81.5723 62.7645 81.7489C62.7672 81.9121 62.8349 82.1288 63.2259 82.1207C63.4866 82.1154 63.7055 82.011 63.8411 81.9388L63.828 81.2833L63.2389 81.3663V81.3636Z" fill="#FFAF32"/>
<path d="M66.2808 80.2291L65.6631 80.1462L65.6787 79.3222L66.9351 79.3462L66.9872 79.4613C67.2009 79.3677 67.6232 79.2473 67.9256 79.2526C68.241 79.258 68.4964 79.2981 68.6867 79.381L68.6606 80.7695L67.8578 80.7535L67.8005 80.1382C67.5398 80.1542 67.2818 80.2398 67.1931 80.2746L67.1618 81.9815L67.7796 82.0644L67.764 82.8885L65.6135 82.8456L65.6292 82.0216L66.2495 81.9628L66.2808 80.2291Z" fill="#FFAF32"/>
<path d="M70.5947 82.1153L71.2098 82.2197L71.1681 83.0437L69.0333 82.9313L69.075 82.1073L69.6954 82.0698L69.784 80.3362L69.1689 80.2318L69.2106 79.4078L70.7276 79.4881L70.5947 82.1153ZM69.8805 77.832L70.8345 77.8829L70.785 78.862L69.8309 78.8112L69.8805 77.832Z" fill="#FFAF32"/>
<path d="M72.3568 78.7252L73.2613 78.6958L73.1831 79.667L74.1293 79.7472L74.0589 80.6328L73.1127 80.5525L72.9876 82.1283C72.9746 82.2969 73.0945 82.428 73.3603 82.4494C73.4776 82.4601 73.7096 82.4654 73.8426 82.4494L73.7748 83.3082C73.475 83.3536 73.2978 83.3322 73.243 83.3269C72.5862 83.2707 72.0284 82.8346 72.0857 82.1042L72.216 80.4803L71.5983 80.4294L71.6634 79.6081L72.2864 79.5894L72.3542 78.7306L72.3568 78.7252Z" fill="#FFAF32"/>
<path d="M75.8759 83.6081C74.6273 83.4529 74.4318 82.6476 74.5595 81.556C74.6873 80.4645 75.0652 79.7287 76.3138 79.8839C77.5754 80.0391 77.7579 80.8444 77.6301 81.9359C77.5024 83.0275 77.1401 83.7659 75.8759 83.6081ZM76.2095 80.7588C75.6361 80.6892 75.524 81.1226 75.4588 81.6684C75.3937 82.2142 75.4041 82.6636 75.9775 82.7332C76.5432 82.8028 76.6631 82.3693 76.7282 81.8236C76.7934 81.2778 76.7752 80.8283 76.2095 80.7588Z" fill="#FFAF32"/>
<path d="M79.7281 81.8663C80.7239 82.1311 81.021 82.4094 80.9037 83.1424C80.8021 83.7818 80.2677 84.2661 79.1886 84.0842C78.8706 84.0307 78.2684 83.8246 78.0026 83.6641L78.172 82.5993L78.9644 82.7304L78.9462 83.105C79.0634 83.1531 79.1964 83.1906 79.3319 83.212C79.7464 83.2815 79.9836 83.228 80.0175 83.0194C80.0514 82.8027 79.8689 82.7652 79.5014 82.6689C78.5187 82.404 78.2267 82.0054 78.331 81.3579C78.4248 80.7587 78.954 80.2396 79.9575 80.4082C80.2703 80.459 80.7447 80.5901 81.1148 80.8362L80.948 81.8877L80.1556 81.7539L80.1765 81.3633C80.0644 81.3232 79.9445 81.2964 79.822 81.275C79.4414 81.2108 79.2433 81.2777 79.2094 81.4944C79.1781 81.6897 79.3476 81.7593 79.7281 81.8609V81.8663Z" fill="#FFAF32"/>
<path d="M63.9009 64.6907C62.8556 64.6212 61.2682 64.6212 60.4028 63.9764C58.8389 62.8099 58.5521 60.9452 58.4244 60.5653C58.2758 60.1265 57.791 59.9687 57.5773 59.5807C57.2775 59.035 57.7102 58.3688 58.2055 58.0023C58.9223 57.4752 59.4853 56.9401 60.1135 56.3168C61.2552 55.1851 62.913 54.6126 64.503 54.7945" fill="#00CF70"/>
<path d="M63.9322 54.7305L61.9746 56.6327L61.177 60.1481L61.7583 63.2944L63.9009 64.6909L66.4163 63.2382L67.2843 60.5949L67.1513 56.5444L65.4727 54.907L63.9322 54.7305Z" fill="#EDDCB6"/>
<path d="M65.6628 55.522L65.0503 58.7324L67.1929 57.1433L65.6628 55.522Z" fill="#078C63"/>
<path d="M64.0234 55.1958L62.5793 56.6646L64.8497 58.6203L65.212 55.3349L64.0234 55.1958Z" fill="#078C63"/>
<path d="M61.5575 59.9712L62.5298 57.1353L64.6672 58.9064L61.5575 59.9712Z" fill="#078C63"/>
<path d="M62.2457 62.8798L61.7296 60.5095L64.722 59.145L62.2457 62.8798Z" fill="#078C63"/>
<path d="M63.9477 64.2731L62.8164 63.1843L64.6593 59.6982L65.2432 63.5053L63.9477 64.2731Z" fill="#078C63"/>
<path d="M68.8821 56.2688C69.8283 56.6621 70.6311 57.3737 71.142 58.2807C71.4835 58.888 71.6294 59.605 71.6894 60.2952C71.7467 60.9507 72.0439 61.4911 72.1377 62.1305C72.2029 62.5747 72.0621 63.0482 71.765 63.3773C71.3922 63.792 70.8188 63.8401 70.3705 64.1424C69.7892 64.5357 69.1923 65.0146 68.5015 65.1778C67.9541 65.3062 67.438 65.4106 66.8724 65.3758C66.6143 65.3597 65.5587 65.3009 65.4205 65.0414L63.8279 63.0482L64.6881 59.0191L66.6039 56.6781L68.8795 56.2661L68.8821 56.2688Z" fill="#00CF70"/>
<path d="M69.0022 59.7305C69.3074 59.7305 69.5548 59.4766 69.5548 59.1634C69.5548 58.8501 69.3074 58.5962 69.0022 58.5962C68.697 58.5962 68.4496 58.8501 68.4496 59.1634C68.4496 59.4766 68.697 59.7305 69.0022 59.7305Z" fill="#078C63"/>
<path d="M69.2887 61.4967C69.5939 61.4967 69.8413 61.2427 69.8413 60.9295C69.8413 60.6162 69.5939 60.3623 69.2887 60.3623C68.9835 60.3623 68.7361 60.6162 68.7361 60.9295C68.7361 61.2427 68.9835 61.4967 69.2887 61.4967Z" fill="#078C63"/>
<path d="M67.0105 60.7257C67.3157 60.7257 67.5631 60.4717 67.5631 60.1585C67.5631 59.8452 67.3157 59.5913 67.0105 59.5913C66.7053 59.5913 66.4579 59.8452 66.4579 60.1585C66.4579 60.4717 66.7053 60.7257 67.0105 60.7257Z" fill="#078C63"/>
<path d="M39.0287 48.7349H52.0826L52.3797 49.8639L51.3188 50.8297L52.3015 55.1772L51.4596 62.9385L49.2779 65.7422L42.0081 65.7101L39.5161 62.8181L38.6586 54.3906L40.1704 50.8297L38.9844 49.9067L39.0287 48.7349Z" fill="#C02E19"/>
<path d="M39.516 62.8181L44.0749 63.5351L48.7434 62.8181L52.3014 55.1772L51.4594 62.9385L49.2777 65.7423L42.0079 65.7102L39.516 62.8181Z" fill="#901F18"/>
<path d="M52.3798 49.8638H43.2671L51.3189 50.8296L52.3798 49.8638Z" fill="#901F18"/>
<path d="M41.2052 54.1288C40.968 54.2171 40.71 54.2599 40.465 54.2572C39.7273 54.2465 38.9974 53.979 38.2676 54.0673C36.5551 54.276 35.5854 56.2477 33.9928 56.9219C32.3636 57.6095 30.5416 56.8015 28.9229 56.0872C27.3042 55.3729 25.3362 54.7709 23.8739 55.7769C23.1988 56.2424 22.7583 56.9808 22.2631 57.6443C21.7678 58.3078 21.1344 58.9499 20.3316 59.0676C20.2664 59.0783 20.1986 59.081 20.1309 59.081L20.0683 57.861L20.6835 57.7994L20.4541 55.2953L19.9249 55.0732L19.7425 51.5284L19.5887 48.5694L18.9657 48.2136L18.8328 47.3949L39.4249 44.9844L39.9827 45.7629L39.8733 48.1012L41.2052 54.1235V54.1288Z" fill="#FF6E5F"/>
<path d="M20.0656 57.8661L19.9222 55.0811L20.4514 55.3031L20.6808 57.8046L20.0656 57.8661Z" fill="#E64927"/>
<path d="M42.644 60.6379L41.5988 66.8903L37.8192 68.9476L24.3587 69.6432L21.3872 67.2729L19.7424 62.6097L20.1282 59.0915V59.0862C20.196 59.0862 20.2638 59.0835 20.3289 59.0728C21.1344 58.9524 21.7678 58.313 22.2604 57.6495C22.7557 56.986 23.1936 56.2476 23.8713 55.7821C25.3336 54.7735 27.3016 55.3754 28.9203 56.0924C30.539 56.8094 32.361 57.6147 33.9901 56.9272C35.5828 56.253 36.555 54.2785 38.265 54.0725C38.9974 53.9842 39.7247 54.2518 40.4623 54.2625C40.7073 54.2652 40.9654 54.2223 41.2026 54.1341L42.6414 60.6433L42.644 60.6379Z" fill="#E64927"/>
<path d="M20.6808 57.8049L20.0657 57.8664L19.8258 57.8905L19.7138 56.4886L17.3157 55.1268L15.8247 51.4295L17.2609 49.3213L18.4834 48.9066L18.9631 48.2217L19.586 48.5775L19.7398 51.5365L19.0856 50.0944L18.2645 49.7761L16.9925 51.6114L18.6555 54.5543L19.9223 55.0814L20.4514 55.3034L20.6808 57.8049Z" fill="#FF6E5F"/>
<path d="M19.7449 62.6099L26.9573 64.9723L34.6468 64.2285L39.7141 62.2059L41.7628 56.6519L42.6439 60.6382L41.6012 66.8905L37.8217 68.9479L24.3612 69.6435L21.3896 67.2731L19.7449 62.6099Z" fill="#C02E19"/>
<path d="M39.9852 45.8296L25.3934 48.1197L39.8757 48.1679L39.9852 45.8296Z" fill="#E64927"/>
<path d="M43.538 43.333L44.0045 49.9412L47.5 54.8746L47.1351 66.574" stroke="#EDDCB6" stroke-width="0.94" stroke-miterlimit="10"/>
<path d="M47.0988 66.574H47.1352L47.9016 67.7913L47.6722 68.9578L37.6785 69.0916L37.3892 67.9358L38.4031 67.1305L37.9939 54.1121L41.8595 50.0268L41.7083 43.3999" stroke="#EDDCB6" stroke-width="0.94" stroke-miterlimit="10"/>
<path d="M41.1633 42.5117L41.3666 45.5215L44.3512 45.6152L44.1661 42.5545L41.1633 42.5117Z" fill="#137171"/>
<path d="M38.6063 54.2832L39.0599 66.606C39.0599 66.606 40.8558 68.9015 46.2489 66.5766L46.5356 54.7594" fill="#EB7C00"/>
<path d="M42.5501 57.2368L42.4614 60.9636L40.642 58.4354L41.4631 61.6833L39.7819 61.1482L41.4188 63.2832L43.6084 63.1521L46.0221 61.4505L43.9707 61.6967L45.2375 58.3471L43.3529 60.1209L42.5501 57.2368Z" fill="#EDDCB6"/>
<path d="M38.6063 54.283C38.6063 54.283 41.3954 52.5307 44.8257 52.1855L46.5356 54.7593C46.5356 54.7593 42.0783 56.83 38.6063 54.283Z" fill="#FFAF32"/>
<path d="M66.9485 36.9601L70.1059 36.1028H74.5195H77.9872L82.7011 37.7713L79.7918 33.5843L79.6379 29.9753L77.8854 28.5933L75.3634 29.713L73.4024 28.3286L71.1013 29.3171L70.6198 31.5758L68.1152 33.8126" fill="#14222F"/>
<path d="M68.2612 32.2614L70.3222 31.4751L74.346 31.0264L78.0696 32.2614L80.0757 33.022L78.8287 35.0732L76.7908 33.74L73.8668 33.0477L70.53 33.8682H69.7391L68.2612 32.2614Z" fill="#E64927"/>
<path d="M72.2439 53.9585L70.8866 56.0698L74.1482 59.3543L74.8247 56.6564L72.2439 53.9585Z" fill="#137171"/>
<path d="M74.8248 56.5478L76.0734 59.3543L80.0757 56.1859L78.5229 53.9585L74.8248 56.5478Z" fill="#137171"/>
<path d="M34.1278 24.7969C34.1278 24.7969 34.1278 24.8062 34.1278 24.8178C34.022 25.2707 32.2214 32.4988 23.1812 32.3734C13.8524 32.2456 17.9709 24.2812 17.9709 24.2812L34.1306 24.7969H34.1278Z" fill="#E64927"/>
<path d="M45.945 8.09375L33.5147 24.2812L19.6907 23.714L41.0672 9.13118L45.945 8.09375Z" fill="#FD710C"/>
<path d="M81.3884 22.9321C81.3884 25.2392 80.6799 30.6596 74.0036 31.0083C65.6386 31.4463 64.3612 23.5514 64.3231 23.3059V23.3004L81.3884 22.9321Z" fill="#DBCCAF"/>
<path d="M81.3884 23.9252L64.3763 24.2812L64.3231 8.80846L74.738 8.09375L81.3884 23.9252Z" fill="#EDDCB6"/>
<path d="M64.3231 24.2812V24.2863C64.3231 24.4974 64.264 32.1307 55.5872 32.3694C47.811 32.5806 46.2124 26.7318 45.9451 25.3746L64.3231 24.2812Z" fill="#E64927"/>
<path d="M64.3231 23.1762L45.9928 24.2812C45.9928 24.2812 45.99 24.266 45.99 24.2609C45.9563 24.0933 45.9451 23.9967 45.9451 23.9967L49.9789 8.09375L64.2641 8.60183L64.3231 23.1762Z" fill="#FD710C"/>
<path d="M105.698 31.0248C99.2827 31.1239 97.3618 24.4573 97.1537 23.6621C97.1511 23.6491 97.1486 23.6387 97.1461 23.6282C97.1435 23.6204 97.141 23.6126 97.141 23.6074L111.531 22.9321C111.531 22.9321 112.516 30.9205 105.698 31.0248Z" fill="#DBCCAF"/>
<path d="M111.581 22.2709L97.0109 22.9325L87.9519 9.44287L95.1636 9.64467L111.581 22.2709Z" fill="#EDDCB6"/>
<path d="M89.765 29.6612C82.9373 29.9817 81.6313 25.3095 81.3884 23.2474L97.0524 22.9321C97.0524 22.9321 97.0551 22.9451 97.0577 22.9528C97.0603 22.9631 97.0629 22.9735 97.0655 22.9864C97.1961 23.6996 97.9379 29.2762 89.765 29.6612Z" fill="#E64927"/>
<path d="M97.141 22.6239L81.6227 22.9323L74.8248 8.09375L88.0168 9.27426L97.141 22.6239Z" fill="#FD710C"/>
<path d="M40.2794 32.3699C33.6005 32.6027 34.1165 24.7819 34.154 24.3038C34.154 24.2913 34.154 24.2812 34.154 24.2812L45.88 24.5366C46.0366 25.936 46.3916 32.1596 40.2772 32.3699H40.2794Z" fill="#DBCCAF"/>
<path d="M47.597 24.2611C47.597 24.2611 47.597 24.2737 47.5995 24.2812L34.1306 24.0247L47.0068 8.09375L51.1959 8.25721L47.5564 23.9996C47.5564 23.9996 47.5666 24.0952 47.597 24.2611Z" fill="#EDDCB6"/>
<path d="M65.9001 17.331L65.814 15.4342L64.6958 14.6984L63.9034 15.6161L64.0363 13.3554L66.2154 13.0932L66.1294 11.1964L65.0112 10.4606L64.151 11.3836L64.3648 7.77723L63.2465 7.0415L62.2091 11.5656L60.0065 11.7743L60.1942 8.59055L59.076 7.85482L58.0698 11.9562L54.6082 13.6096L55.7265 14.3453L57.903 14.0831L57.7388 16.194L54.2928 17.8474L55.4111 18.5831L57.5746 18.3236L56.1305 21.7748L57.2487 22.5105L59.4096 21.93L59.6364 18.0774L61.7217 17.8286L60.3011 20.9615L61.4193 21.6972L63.5802 21.1167L63.7887 17.5825L65.9027 17.3283L65.9001 17.331ZM59.7563 16.0067L59.884 13.8503L62.0501 13.5908L61.8781 15.806L59.7563 16.0067Z" fill="#14222F"/>
<path d="M64.7822 16.5953L64.6962 14.6984L62.7856 14.8804L62.9185 12.6197L65.0976 12.3575L65.0116 10.4606L63.0358 10.6479L63.2495 7.0415L61.3389 7.705L61.0939 10.8298L58.8913 11.0385L59.079 7.85482L57.1683 8.51831L56.9572 11.2204L54.6504 11.4398L54.6139 13.6122L56.7904 13.35L56.6262 15.4609L54.335 15.6776L54.2985 17.85L56.4619 17.5905L56.1335 21.7775L58.2944 21.1969L58.5212 17.3444L60.6064 17.0956L60.3041 20.9642L62.4649 20.3836L62.6735 16.8494L64.7874 16.5953H64.7822ZM58.6411 15.271L58.7688 13.1146L60.9349 12.8551L60.7628 15.0703L58.6411 15.271Z" fill="#137171"/>
<path d="M57.2123 16.7876L54.9993 17.0525L55.0123 16.3248L57.267 16.1107L57.5459 12.5444L55.3173 12.812L55.3303 12.0843L57.5981 11.8702L57.8196 9.0397L58.3279 8.86312L58.1533 11.8194L61.7347 11.4796L61.9902 8.22638L62.4985 8.0498L62.3004 11.4288L64.3596 11.2335L64.383 11.7311L62.2691 11.9853L62.0527 15.6639L64.0442 15.474L64.0676 15.9716L62.0215 16.2177L61.8077 19.8322L61.07 20.0302L61.362 16.2953L57.8691 16.7154L57.6371 20.6482L56.9021 20.8461L57.2201 16.7929L57.2123 16.7876ZM58.1142 12.4802L57.903 16.0545L61.4037 15.7228L61.6904 12.0522L58.1142 12.4802Z" fill="#FFAF32"/>
<path d="M98.4623 49.997L94.5155 48.2364L98.9914 48.7995L101.346 44.5156L100.837 48.9492L105.017 51.1588L100.591 50.3795L97.8637 55.3073L98.4623 49.997Z" fill="#EDDCB6"/>
<path d="M26.7565 56.0768L22.3163 54.0957L27.3545 54.7294L30.0007 49.9116L29.4307 54.8978L34.1307 57.3869L29.1512 56.51L26.0858 62.0522L26.7565 56.0768Z" fill="#EDDCB6"/>
<path d="M110.268 74.1929H82.701L106.738 79.5887L106.527 75.7702L110.268 74.1929Z" fill="#C02E19"/>
<path d="M27.8762 74.1929H56.4468L28.0241 79.5887L21.0034 77.6625L27.8762 74.1929Z" fill="#C02E19"/>
<path d="M65.9912 8.02379L73.2402 0.214355L74.653 1.54669L73.579 19.8329L76.9859 18.7628L78.3986 20.0951L78.6202 24.2259L65.1754 23.4072L63.7626 22.0722L69.5127 19.3968L70.3964 6.92421L67.4066 9.35613L65.9912 8.02379Z" fill="#14222F"/>
<path d="M63.3821 4.64446L69.8021 0L73.2403 0.21403L72.1637 18.4976L76.9859 18.7624L77.2049 22.8905L63.7626 22.0719L64.0494 18.321L68.0974 18.0615L68.9837 5.58887L65.9913 8.02346L63.3821 4.64446Z" fill="#187B7B"/>
<path d="M65.1935 19.5169L69.2494 19.2574L70.4171 2.80649L66.1918 6.24435L65.1596 4.90666L70.1591 1.28955L71.9342 1.39924L70.8576 19.6962L75.8154 19.9664L75.8988 21.5448L65.0892 20.884L65.1935 19.5169Z" fill="#FFAF32"/>
</svg>
