<svg width="166" height="128" viewBox="0 0 166 128" fill="none" xmlns="http://www.w3.org/2000/svg">
<path d="M35.6331 79.3515L65.6979 89.1195L70.8542 77.6057L44.9679 66.6011L35.6331 79.3515Z" fill="#EA7C0B"/>
<path d="M42.9862 69.3101L67.6277 78.7463" stroke="#14222F" stroke-width="2" stroke-miterlimit="10"/>
<path d="M38.0997 75.7554L64.5055 85.8667" stroke="#14222F" stroke-width="2" stroke-miterlimit="10"/>
<path d="M51.1196 69.2168L42.6233 81.621" stroke="#14222F" stroke-width="2" stroke-miterlimit="10"/>
<path d="M63.5477 74.501L55.8175 85.9101" stroke="#14222F" stroke-width="2" stroke-miterlimit="10"/>
<path d="M146.146 56.2075L140.69 51.2115L139.567 44.007L142.513 36.6424L152.93 31.7744L160.471 36.6424L163.393 44.2165L163.376 51.2376L155.869 56.772L154.091 57.6827L146.146 56.2075Z" fill="#C02E19"/>
<path d="M128.962 57.0107L161.754 72.604L161.188 75.7349L157.401 76.8319L154.822 88.6803L143.699 106.718L134.971 110.992L116.742 102.225L113.844 92.1517L121.466 70.4537L129.397 63.514L127.493 59.8361L128.962 57.0107Z" fill="#C02E19"/>
<path d="M113.844 92.152L124.464 99.3623L137.023 103.177L154.822 88.6807L143.699 106.718L134.971 110.993L116.742 102.226L113.844 92.152Z" fill="#901F18"/>
<path d="M161.188 75.7349L138.299 64.8496L157.401 76.8319L161.188 75.7349Z" fill="#901F18"/>
<path d="M110.649 117.403L19.7468 127.098L61.7232 113.166L32.0124 111.592L77.8249 97.0698L59.9793 96.223L96.8167 83.3882L110.649 117.403Z" fill="#00A49F"/>
<path d="M76.7536 35.0099L23.1558 45.3308L30.2708 38.4696L0 41.359L37.0899 27.174L21.0956 26.4146L54.4538 12.9541L76.7536 35.0099Z" fill="#00A49F"/>
<path d="M121.257 76.2355C119.136 77.2568 117.607 79.1772 116.211 81.0773C114.816 82.9773 113.426 84.9705 111.444 86.2421C107.86 88.5408 102.631 87.7551 99.8775 84.4991C97.8115 82.055 96.6769 78.2374 93.5343 77.6467C91.4363 77.251 89.4516 78.572 87.6438 79.7126C85.8389 80.8503 83.5669 81.8862 81.6517 80.9376C79.0634 79.6544 78.8341 75.5575 76.182 74.4198C74.6876 73.7767 72.9436 74.35 71.5682 75.2171C70.1957 76.0871 69.006 77.251 67.5406 77.9522C66.0927 78.6476 64.4329 78.7844 62.8688 78.4469L61.6588 94.6803L67.265 112.296L90.9024 120.775L111.949 117.414L124.383 100.456L125.433 75.7874C124.084 75.4353 122.534 75.6215 121.257 76.2355Z" fill="#E64927"/>
<path d="M126.852 50.4408L69.9259 47.2256L61.8707 49.0005L63.043 53.2138L54.5206 52.3205L47.8931 61.5415L51.0676 68.103L63.2084 73.8701L62.8689 78.4471C64.4329 78.7846 66.0927 78.6478 67.5407 77.9524C69.006 77.2512 70.1958 76.0873 71.5683 75.2173C72.9437 74.3502 74.6876 73.7769 76.182 74.42C78.8342 75.5577 79.0634 79.6546 81.6518 80.9378C83.5669 81.8864 85.839 80.8505 87.6438 79.7128C89.4516 78.5722 91.4364 77.2512 93.5344 77.6469C96.6769 78.2376 97.8115 82.0551 99.8775 84.4993C102.631 87.7553 107.86 88.541 111.444 86.2423C113.426 84.9707 114.816 82.9775 116.211 81.0775C117.607 79.1774 119.136 77.257 121.257 76.2357C122.534 75.6217 124.084 75.4355 125.433 75.7876L126.164 58.5677L127.511 53.1353L126.852 50.4408ZM55.4869 66.6161L52.4169 61.9518L53.7168 57.1507L58.6614 55.1197L62.0709 58.786L62.5787 69.4123L55.4869 66.6161Z" fill="#FF6E5F"/>
<path d="M124.24 52.8849L119.156 54.0837L111.626 54.3339L96.8972 54.8227L72.9754 54.9013L72.6417 54.7471L66.0867 51.6948L69.415 49.559L69.7603 49.3379L81.933 50.0653L85.7517 50.3185L93.2614 50.8189L109.636 51.9101L124.24 52.8849Z" fill="#E64927"/>
<path d="M111.626 54.3336L96.8973 54.8253L72.9754 54.9039L72.6417 54.7497C72.6737 54.4267 72.6882 54.0979 72.6185 53.74C72.3719 52.4801 70.8862 51.6042 70.0534 50.7633C69.7371 50.4462 69.5282 50.0243 69.415 49.5587C68.9914 47.7954 69.9663 45.3425 71.7567 45.0137C73.1902 44.7489 74.7484 45.2086 76.2051 45.8633C77.3309 46.3696 78.3988 46.9923 79.307 47.487C81.3701 48.613 83.5232 49.582 85.7518 50.321C86.5265 50.5771 87.31 50.807 88.1022 51.0019C89.318 51.3045 90.7224 51.7817 91.9528 51.3773C92.3967 51.2318 92.832 51.0368 93.2614 50.8215C94.0652 50.42 94.8545 49.9515 95.6641 49.614C97.6343 48.7934 99.8716 48.5665 101.999 48.8924C104.404 49.2619 106.685 50.3967 108.815 51.5257C109.015 51.6304 109.308 51.7614 109.636 51.9127C110.472 52.2997 111.519 52.8205 111.711 53.4112C111.821 53.7516 111.772 54.0601 111.626 54.3336Z" fill="#14222F"/>
<path d="M62.8253 79.0288L72.1224 101.725L94.0856 113.035L111.267 107.981L124.383 100.456L111.952 117.414L90.9024 120.775L67.2679 112.296L61.6588 94.6803L62.8253 79.0288Z" fill="#C02E19"/>
<path d="M100.748 107.64L94.2452 115.991L99.4393 121.153L104.549 124.799L115.718 126.457L133.982 121.165" fill="#078C63"/>
<path d="M128.378 96.4779C119.029 99.8358 109.81 103.56 100.751 107.64L105.33 116.459L121.504 123.399L133.984 121.164L140.812 105.967C140.766 104.279 136.837 94.8979 136.837 94.8979L128.381 96.4808L128.378 96.4779Z" fill="white"/>
<path d="M113.995 101.978L104.964 108.03L108.322 114.271L114.296 116.334C115.634 115.066 115.898 114.818 117.236 113.552L113.992 101.98L113.995 101.978Z" fill="#00CF70"/>
<path d="M118.646 99.999C118.646 99.999 118.298 117.161 118.385 117.315L122.34 119.459C122.34 119.459 128.37 119.27 129.229 119.486L132.812 113.195L118.643 100.002L118.646 99.999Z" fill="#00CF70"/>
<path d="M121.397 98.928L131.901 108.981C132.56 109.528 136.416 108.466 136.416 108.466C137.191 106.613 137.939 101.919 137.939 101.919L133.401 94.5547L121.4 98.928H121.397Z" fill="#00CF70"/>
<path d="M36.0913 66.9882C35.6532 67.4945 35.1715 67.9571 34.6202 68.3529C33.0793 69.4498 30.8798 69.8514 29.3042 68.8039C27.8591 67.8408 27.3078 65.8621 27.7112 64.1687C29.3796 57.1707 39.1585 56.8449 43.8419 60.5606C43.6155 60.3831 40.9517 62.0795 40.6151 62.2832C39.4167 63.0106 38.3547 63.77 37.5886 64.9397C37.1244 65.6497 36.6427 66.351 36.0884 66.9911L36.0913 66.9882Z" fill="#14222F"/>
<path d="M47.3357 49.1778C45.4292 47.5978 40.3541 45.1653 38.0414 47.3418C36.0857 49.1836 37.0258 52.8412 39.6461 53.2893C42.3766 53.7548 42.8177 51.9624 44.4978 50.5192C45.2058 49.9111 46.4535 49.0382 47.3357 49.1807V49.1778Z" fill="#14222F"/>
<path d="M60.9052 105.57V115.627L66.8065 119.514L76.4625 118.128L67.2075 116.163L63.9675 114.037L60.9052 105.57Z" fill="#C02E19"/>
<path d="M92.803 24.2905C94.8429 34.0847 78.0041 34.815 78.0041 34.815L56.5226 36.0837L32.8561 37.9255C32.8561 37.9255 32.8416 37.9168 32.8358 37.911C32.5776 37.7189 29.8209 35.5803 29.5511 31.8122C29.4002 29.7637 29.9863 27.2293 32.1075 24.2672C33.4597 22.3788 35.6012 20.7057 38.1634 19.4312C39.4053 18.8085 40.7459 18.2819 42.1504 17.8745C45.7862 16.8037 49.8138 16.5011 53.5251 17.3362C57.0682 14.1588 63.4491 15.5322 66.7744 12.9891L70.7382 11.252C70.7382 11.252 88.1631 2.04263 92.7942 24.2905H92.803Z" fill="#F8AC35"/>
<path d="M75.9123 25.2626C73.6142 28.2218 66.2815 27.9337 66.2525 27.9308C66.1973 27.7562 66.1422 27.5875 66.0842 27.4187C65.5561 25.862 64.8625 24.5352 64.0414 23.4033L64.0356 23.3945C63.8498 23.1385 63.6583 22.8941 63.4581 22.6584C62.9909 22.0997 62.486 21.5905 61.955 21.1366C61.955 21.1366 61.9531 21.1346 61.9492 21.1308L61.9376 21.122C59.4421 18.9747 56.3576 17.9301 53.3746 17.4849C47.8932 16.6614 42.7485 17.8689 42.2262 17.9941C42.1971 18.0028 42.1826 18.0057 42.1826 18.0057L42.1536 17.8806L42.142 17.8137L40.2385 8.5025V8.48796C40.2385 8.48796 40.2356 8.48505 40.2385 8.47632V8.46759C40.3255 8.13006 41.3643 4.199 44.4547 3.42792C47.6814 2.61901 48.4155 3.64906 50.3307 5.40654C50.3307 5.40654 50.4584 5.44146 50.6644 5.47056C50.7863 5.48802 50.94 5.50547 51.1054 5.5142C52.2313 5.57822 54.1319 5.3047 53.6125 2.54918C53.5052 1.97014 53.5632 1.5104 53.7605 1.1496C53.807 1.0623 53.8621 0.980831 53.923 0.908088C56.0094 -1.66994 66.444 2.06034 66.444 2.06034L69.1571 7.85654L70.7502 11.2638L73.3588 16.8447C73.3588 16.8447 73.3588 16.8476 73.3559 16.8476L74.8097 19.9494C74.8097 19.9494 74.9199 20.1502 75.0766 20.479L75.1173 20.5663C75.3755 21.1133 75.7469 21.9659 75.982 22.8126V22.8184V22.8271C76.2431 23.7786 76.336 24.7359 75.9181 25.2684L75.9123 25.2626Z" fill="#F8AC35"/>
<path d="M73.3528 16.8359C73.3528 16.8359 69.9578 20.8106 61.4731 20.6099L67.8569 27.5438C67.8569 27.5438 75.1606 27.8347 76.0398 22.507L73.3557 16.8359H73.3528Z" fill="#B73826"/>
<path d="M61.2931 35.7146L56.5256 36.087L32.8591 37.9289C32.8591 37.9289 32.8446 37.9201 32.8387 37.9143C32.5805 37.7223 29.8239 35.5836 29.554 31.8155C29.4031 29.7671 29.9893 27.2327 32.1104 24.2706C33.4626 22.3821 35.6041 20.709 38.1663 19.4346L39.3996 26.866L44.6227 32.7146L61.2931 35.7146Z" fill="#EA7C0B"/>
<path d="M76.0368 22.5072L70.7469 11.2523C70.7469 11.2523 82.4002 3.82086 88.3807 18.9777C91.5088 26.9067 84.7419 32.2665 79.0633 32.7611C72.6301 33.3227 67.8539 27.544 67.8539 27.544C67.8539 27.544 75.4854 25.7137 76.0368 22.5072Z" fill="#EA7C0B"/>
<path d="M40.218 8.76443L42.1535 17.8748C42.6352 17.7177 47.3156 16.4316 53.5224 17.3423C55.2112 17.5897 57.0161 18.0087 58.8877 18.6663C58.8877 18.6663 58.8616 18.6284 58.8094 18.5557C58.5308 18.1571 57.5326 16.7167 56.2936 14.8807C55.0517 13.0447 53.6733 9.37257 51.1749 8.91283C50.4379 8.77607 49.6602 8.74698 48.9986 8.41527C47.6929 7.76058 47.2692 6.17477 46.1375 5.27857C45.3047 4.62097 44.0976 4.40565 43.0646 4.73154C41.6892 5.16509 40.2993 7.08552 40.2383 8.45891V8.49674C40.2296 8.58403 40.2238 8.67423 40.2209 8.76152L40.218 8.76443Z" fill="#EA7C0B"/>
<path d="M51.6388 5.84015C51.2442 5.74413 50.8438 5.62774 50.4781 5.45606C50.5362 5.45897 50.5971 5.46188 50.6581 5.46188C50.7799 5.47934 50.9337 5.4968 51.0991 5.50553C52.225 5.56954 54.1256 5.29603 53.6062 2.54051C53.4988 1.96147 53.5569 1.50173 53.7542 1.14092C53.8006 1.05363 53.8558 0.972158 53.9167 0.899414C54.3781 1.05945 54.8394 1.21076 55.3066 1.31551C56.2874 1.53374 57.3088 1.54247 58.2983 1.71996C59.2907 1.89454 60.3034 2.27863 60.8808 3.05262C63.7971 6.93421 53.3886 6.2737 51.6417 5.84015H51.6388Z" fill="#EA7C0B"/>
<path d="M103.168 72.1938L95.6787 68.6934L104.175 69.8108L108.638 61.2939L107.674 70.1105L115.605 74.5042L107.207 72.9562L102.033 82.7562L103.168 72.1938Z" fill="#EDDCB6"/>
<path d="M62.5787 69.4121L57.8895 71.3413L63.2113 73.8698L62.5787 69.4121Z" fill="#E64927"/>
<path d="M147.927 55.2996L142.469 50.3007L141.346 43.0962L144.294 35.7346L152.93 31.7744L162.25 35.7346L165.172 43.3086L163.376 51.2376L155.869 56.772L147.927 55.2996Z" fill="white"/>
<path d="M153.49 33.5L153.449 42.7908L161.24 36.6512L153.49 33.5Z" fill="#FF6E5F"/>
<path d="M153.85 43.9345L161.69 38.5835L163.901 43.1081L163.008 49.2593L153.85 43.9345Z" fill="#FF6E5F"/>
<path d="M155.486 54.9186L161.893 50.3008L153.85 45.1826L155.486 54.9186Z" fill="#FF6E5F"/>
<path d="M153.849 54.5402L149.27 53.9902L144.86 50.3007L152.776 44.5918L153.849 54.5402Z" fill="#FF6E5F"/>
<path d="M144.376 49.5883L142.797 44.2751L144.376 39.5991L152.141 43.923L144.376 49.5883Z" fill="#FF6E5F"/>
<path d="M145.441 38.2341L146.114 36.1565L151.874 34.0586L152.622 43.1079L145.441 38.2341Z" fill="#FF6E5F"/>
<path d="M89.3004 96.889L82.403 95.696L88.8564 98.2857L94.6367 97.1742L94.5583 98.5912L89.8401 100.832L82.6467 100.448L87.0138 102.551L90.1129 102.717L90.0548 103.837L85.9082 104.611L77.7167 101.932L68.7474 97.5874L64.0989 97.1014L63.9073 97.0811L64.2439 90.7582V90.7524L64.5428 85.1744L70.5378 85.4945L78.2941 79.8467L82.4842 80.0736L82.3856 81.9795L79.6608 84.1065L77.6615 86.5915L86.8368 87.0803L92.5822 86.638L93.2206 88.669L87.1386 90.828L82.2695 91.2005L89.9039 92.6059L95.6726 92.9143L95.5739 94.7882L89.3004 96.889Z" fill="#FFAF32"/>
<path d="M90.1129 102.717L90.0548 103.838L85.9083 104.612L77.7167 101.932L68.7474 97.5874L64.0989 97.1015L64.244 90.7583V90.7524L69.8791 92.2306L74.7366 97.2848L82.6467 100.448L87.0138 102.551L90.1129 102.717Z" fill="#D37B11"/>
<path d="M76.0974 90.7524L77.6237 92.2306L79.7913 91.2907H77.6237L76.0974 90.7524Z" fill="#D37B11"/>
<path d="M76.0974 95.2539L77.6237 96.735L79.7913 95.7951H77.6237L76.0974 95.2539Z" fill="#D37B11"/>
<path d="M82.4321 81.0918L79.1822 82.1044L74.8267 86.1897L77.6617 86.5912L79.6609 84.1063L82.3857 81.9793L82.4321 81.0918Z" fill="#D37B11"/>
<path d="M54.2563 99.2812L64.4791 99.8253L65.4193 82.1283L56.9753 81.6772L54.2563 99.2812Z" fill="#EA7C0B"/>
<path d="M25.4277 95.6031L56.9898 97.2879L59.0152 84.8313L31.179 80.874L25.4277 95.6031Z" fill="#EA7C0B"/>
<path d="M29.9573 84.002L56.1889 86.7633" stroke="#14222F" stroke-width="2" stroke-miterlimit="10"/>
<path d="M26.8903 91.4917L54.9993 94.4509" stroke="#14222F" stroke-width="2" stroke-miterlimit="10"/>
<path d="M37.7949 81.8135L32.7633 95.9926" stroke="#14222F" stroke-width="2" stroke-miterlimit="10"/>
<path d="M51.1572 83.7139L46.616 96.7349" stroke="#14222F" stroke-width="2" stroke-miterlimit="10"/>
<path d="M61.6586 81.8135L59.4417 99.4989" stroke="#14222F" stroke-width="2" stroke-miterlimit="10"/>
<path d="M56.1888 90.2227L64.244 90.7522" stroke="#14222F" stroke-width="2" stroke-miterlimit="10"/>
<path d="M59.5579 96.3651C60.1701 96.3651 60.6664 95.8675 60.6664 95.2536C60.6664 94.6397 60.1701 94.1421 59.5579 94.1421C58.9457 94.1421 58.4495 94.6397 58.4495 95.2536C58.4495 95.8675 58.9457 96.3651 59.5579 96.3651Z" fill="#EDDCB6"/>
<path d="M63.043 53.2139L58.6614 55.1197L62.0709 58.786L63.043 53.2139Z" fill="#E64927"/>
</svg>
